<svg width="28" height="28" viewBox="0 0 28 28" fill="none" xmlns="http://www.w3.org/2000/svg">
<path d="M3.5 9.33341V7.00008C3.5 6.38124 3.74583 5.78775 4.18342 5.35017C4.621 4.91258 5.21449 4.66675 5.83333 4.66675H22.1667C22.7855 4.66675 23.379 4.91258 23.8166 5.35017C24.2542 5.78775 24.5 6.38124 24.5 7.00008V9.33341M3.5 9.33341V16.3334M3.5 9.33341H10.5M24.5 9.33341V16.3334M24.5 9.33341H10.5M3.5 16.3334V21.0001C3.5 21.6189 3.74583 22.2124 4.18342 22.65C4.621 23.0876 5.21449 23.3334 5.83333 23.3334H10.5M3.5 16.3334H10.5M10.5 9.33341V16.3334M24.5 16.3334V21.0001C24.5 21.6189 24.2542 22.2124 23.8166 22.65C23.379 23.0876 22.7855 23.3334 22.1667 23.3334H10.5M24.5 16.3334H10.5M10.5 23.3334V16.3334M17.5 9.33341V23.3334" stroke="#9CA3AF" stroke-width="2" stroke-linecap="round" stroke-linejoin="round"/>
<path d="M3.5 7.00008C3.5 6.38124 3.74583 5.78775 4.18342 5.35017C4.621 4.91258 5.21449 4.66675 5.83333 4.66675H22.1667C22.7855 4.66675 23.379 4.91258 23.8166 5.35017C24.2542 5.78775 24.5 6.38124 24.5 7.00008V9.33341H3.5V7.00008Z" fill="#9CA3AF"/>
</svg>
