<svg width="16" height="16" viewBox="0 0 16 16" fill="none" xmlns="http://www.w3.org/2000/svg">
<path fill-rule="evenodd" clip-rule="evenodd" d="M9.224 10H7.77694L6 16H7.04293L7.48717 14.5H9.50029V14.4656L9.95349 16H10.9962L9.224 10ZM9.21507 13.5L8.50016 11.0796L7.78332 13.5H9.21507Z" fill="#DB3B4B"/>
<path d="M12.0005 11.75C12.0005 10.7835 12.784 10 13.7505 10H14.5005C15.3289 10 16.0005 10.6716 16.0005 11.5H15.0005C15.0005 11.2239 14.7766 11 14.5005 11H13.7505C13.3363 11 13.0005 11.3358 13.0005 11.75C13.0005 12.1642 13.3363 12.5 13.7505 12.5H14.2505C15.217 12.5 16.0005 13.2835 16.0005 14.25C16.0005 15.2165 15.217 16 14.2505 16H13.5005C12.6721 16 12.0005 15.3284 12.0005 14.5H13.0005C13.0005 14.7761 13.2243 15 13.5005 15H14.2505C14.6647 15 15.0005 14.6642 15.0005 14.25C15.0005 13.8358 14.6647 13.5 14.2505 13.5H13.7505C12.784 13.5 12.0005 12.7165 12.0005 11.75Z" fill="#DB3B4B"/>
<path d="M15 8C15 8.33952 14.9758 8.6734 14.9291 9H7.03013L5.4008 14.5016C2.82179 13.4696 1 10.9475 1 8C1 4.13401 4.13401 1 8 1C11.866 1 15 4.13401 15 8Z" fill="#FAF5FF"/>
<path d="M14.9291 9C14.9758 8.6734 15 8.33952 15 8C15 4.13401 11.866 1 8 1C4.13401 1 1 4.13401 1 8C1 10.9475 2.82179 13.4696 5.4008 14.5016L5.68628 13.5376C3.52122 12.632 2 10.4936 2 8C2 4.68629 4.68629 2 8 2C11.3137 2 14 4.68629 14 8C14 8.34071 13.9716 8.67479 13.917 9H14.9291Z" fill="#834DF0"/>
<path d="M5.5 11.5H6.28974L6.5 10.79V8.5H10V7.5H6.5V5.5H10.4102V4.5H5.5V11.5Z" fill="#834DF0"/>
</svg>
