<svg width="16" height="16" viewBox="0 0 16 16" fill="none" xmlns="http://www.w3.org/2000/svg">
<path d="M3.5 13.5H2.5C1.94772 13.5 1.5 13.0523 1.5 12.5V3.5C1.5 2.94771 1.94772 2.5 2.5 2.5H3.5" stroke="#6C707E" stroke-linecap="round"/>
<path d="M12.5 13.5H13.5C14.0523 13.5 14.5 13.0523 14.5 12.5V3.5C14.5 2.94771 14.0523 2.5 13.5 2.5H12.5" stroke="#6C707E" stroke-linecap="round"/>
<path d="M3.20508 4.5H4.25008L7.81508 9.935V4.5H8.79508V11.5H7.74508L4.18508 6.065V11.5H3.20508V4.5Z" fill="#6C707E"/>
<rect x="10" y="8" width="1" height="1" fill="#6C707E"/>
<rect x="12" y="8" width="1" height="1" fill="#6C707E"/>
<rect x="12" y="10" width="1" height="1" fill="#6C707E"/>
<rect x="10" y="10" width="1" height="1" fill="#6C707E"/>
</svg>
