<svg width="16" height="16" viewBox="0 0 16 16" fill="none" xmlns="http://www.w3.org/2000/svg">
<path fill-rule="evenodd" clip-rule="evenodd" d="M9.224 10H7.77694L6 16H7.04293L7.48717 14.5H9.50029V14.4656L9.95349 16H10.9962L9.224 10ZM9.21507 13.5L8.50016 11.0796L7.78332 13.5H9.21507Z" fill="#DB3B4B"/>
<path d="M12.0005 11.75C12.0005 10.7835 12.784 10 13.7505 10H14.5005C15.3289 10 16.0005 10.6716 16.0005 11.5H15.0005C15.0005 11.2239 14.7766 11 14.5005 11H13.7505C13.3363 11 13.0005 11.3358 13.0005 11.75C13.0005 12.1642 13.3363 12.5 13.7505 12.5H14.2505C15.217 12.5 16.0005 13.2835 16.0005 14.25C16.0005 15.2165 15.217 16 14.2505 16H13.5005C12.6721 16 12.0005 15.3284 12.0005 14.5H13.0005C13.0005 14.7761 13.2243 15 13.5005 15H14.2505C14.6647 15 15.0005 14.6642 15.0005 14.25C15.0005 13.8358 14.6647 13.5 14.2505 13.5H13.7505C12.784 13.5 12.0005 12.7165 12.0005 11.75Z" fill="#DB3B4B"/>
<path d="M2 4C2 2.89543 2.89543 2 4 2H12C13.1046 2 14 2.89543 14 4V9H7.03013L5.54935 14H4C2.89543 14 2 13.1046 2 12V4Z" fill="#EDF3FF"/>
<path d="M12 3H4C3.44772 3 3 3.44772 3 4V12C3 12.5523 3.44772 13 4 13H5.8455L5.54935 14H4C2.89543 14 2 13.1046 2 12V4C2 2.89543 2.89543 2 4 2H12C13.1046 2 14 2.89543 14 4V9H13V4C13 3.44772 12.5523 3 12 3Z" fill="#3574F0"/>
</svg>
