<svg width="16" height="16" viewBox="0 0 16 16" fill="none" xmlns="http://www.w3.org/2000/svg">
<path d="M11.998 13C12.5503 13 12.998 12.5523 12.998 12C12.998 11.4477 12.5503 11 11.998 11C11.4458 11 10.998 11.4477 10.998 12C10.998 12.5523 11.4458 13 11.998 13Z" fill="#548AF7"/>
<path fill-rule="evenodd" clip-rule="evenodd" d="M13.1197 15.6756C13.0465 15.8707 12.8599 16 12.6515 16H11.3445C11.1361 16 10.9495 15.8707 10.8763 15.6756L10.6268 15.0102C10.5429 14.7865 10.3124 14.6534 10.0766 14.6926L9.3757 14.8092C9.1701 14.8434 8.96486 14.7464 8.86065 14.5659L8.20715 13.4341C8.10294 13.2536 8.12162 13.0273 8.25404 12.8664L8.70546 12.3177C8.8573 12.1331 8.8573 11.8669 8.70546 11.6824L8.25402 11.1336C8.1216 10.9727 8.10292 10.7464 8.20713 10.5659L8.86063 9.43405C8.96484 9.25355 9.17008 9.15663 9.37568 9.19083L10.0766 9.30742C10.3124 9.34664 10.5429 9.21353 10.6268 8.98976L10.8763 8.32444C10.9495 8.12929 11.1361 8 11.3445 8H12.6515C12.8599 8 13.0465 8.12929 13.1197 8.32444L13.3691 8.98976C13.4531 9.21353 13.6836 9.34664 13.9194 9.30742L14.6203 9.19083C14.8259 9.15663 15.0311 9.25355 15.1354 9.43405L15.7888 10.5659C15.8931 10.7464 15.8744 10.9727 15.742 11.1336L15.2905 11.6824C15.1387 11.8669 15.1387 12.1331 15.2905 12.3177L15.7419 12.8664C15.8744 13.0273 15.893 13.2536 15.7888 13.4341L15.1353 14.5659C15.0311 14.7464 14.8259 14.8434 14.6203 14.8092L13.9194 14.6926C13.6836 14.6534 13.4531 14.7865 13.3691 15.0102L13.1197 15.6756ZM11.691 15H12.305L12.4328 14.6591C12.6846 13.9878 13.3762 13.5885 14.0834 13.7061L14.4426 13.7659L14.7496 13.2341L14.5183 12.953C14.0628 12.3993 14.0628 11.6007 14.5183 11.047L14.7496 10.7659L14.4426 10.2341L14.0834 10.2939C13.3762 10.4115 12.6846 10.0122 12.4328 9.34088L12.305 9H11.691L11.5632 9.34088C11.3114 10.0122 10.6198 10.4115 9.91254 10.2939L9.5534 10.2341L9.2464 10.7659L9.47771 11.047C9.93322 11.6007 9.93322 12.3993 9.47771 12.953L9.24642 13.2341L9.55342 13.7659L9.91254 13.7061C10.6198 13.5885 11.3114 13.9878 11.5632 14.6591L11.691 15Z" fill="#548AF7"/>
<path fill-rule="evenodd" clip-rule="evenodd" d="M12.3086 15H11.6946L11.5668 14.6591C11.315 13.9878 10.6234 13.5885 9.91614 13.7061L9.55702 13.7659L9.25002 13.2341L9.48131 12.953C9.93681 12.3993 9.93681 11.6007 9.48131 11.047L9.25 10.7659L9.557 10.2341L9.91614 10.2939C10.6234 10.4115 11.315 10.0122 11.5668 9.34088L11.6946 9H12.3086L12.4364 9.34088C12.6882 10.0122 13.3798 10.4115 14.087 10.2939L14.4462 10.2341L14.7532 10.7659L14.5219 11.047C14.0664 11.6007 14.0664 12.3993 14.5219 12.953L14.7532 13.2341L14.4462 13.7659L14.087 13.7061C13.3798 13.5885 12.6882 13.9878 12.4364 14.6591L12.3086 15ZM13.0016 12C13.0016 12.5523 12.5539 13 12.0016 13C11.4494 13 11.0016 12.5523 11.0016 12C11.0016 11.4477 11.4494 11 12.0016 11C12.5539 11 13.0016 11.4477 13.0016 12Z" fill="#25324D"/>
<path fill-rule="evenodd" clip-rule="evenodd" d="M2.47037 5.67626C2.66735 5.20781 2.92233 4.76924 3.22655 4.36961L4.87261 4.38764C5.52165 4.39475 6.12297 4.04758 6.44133 3.48194L7.24899 2.04695C7.49594 2.016 7.74792 2 8.00408 2C8.2602 2 8.51214 2.01599 8.75904 2.04693L9.56671 3.48194C9.88507 4.04758 10.4864 4.39475 11.1354 4.38764L12.7816 4.36961C13.0858 4.76921 13.3408 5.20773 13.5377 5.67613L12.7232 7.05192C13.073 7.10259 13.411 7.18947 13.7334 7.30862L14.4612 6.07931C14.5763 5.88489 14.6034 5.6491 14.5207 5.43884C14.2632 4.78416 13.9099 4.17766 13.4781 3.63661C13.3372 3.46012 13.1196 3.36585 12.8938 3.36832L11.1245 3.3877C10.8405 3.39081 10.5774 3.23892 10.4382 2.99146L9.56986 1.44873C9.45889 1.25157 9.26792 1.11007 9.04414 1.07674C8.7048 1.02619 8.3575 1 8.00408 1C7.65062 1 7.30327 1.0262 6.96387 1.07676C6.7401 1.1101 6.54914 1.25159 6.43817 1.44875L5.56988 2.99146C5.4306 3.23892 5.16752 3.39081 4.88356 3.3877L3.1144 3.36832C2.8886 3.36585 2.67096 3.46012 2.53009 3.63661C2.09822 4.1777 1.74489 4.78425 1.48738 5.43898C1.40469 5.64924 1.43184 5.88502 1.54695 6.07944L2.44942 7.60376C2.5941 7.84811 2.5941 8.15189 2.44942 8.39625L1.54695 9.92057C1.43184 10.115 1.40469 10.3508 1.48738 10.561C1.74489 11.2158 2.09822 11.8223 2.5301 12.3634C2.67096 12.5399 2.8886 12.6342 3.1144 12.6317L4.88356 12.6123C5.16752 12.6092 5.4306 12.7611 5.56988 13.0085L6.43817 14.5512C6.54914 14.7484 6.7401 14.8899 6.96387 14.9232C7.30184 14.9736 7.6477 14.9998 7.99963 15C7.7621 14.6838 7.5612 14.3385 7.40321 13.9704C7.35159 13.9652 7.30018 13.9595 7.24899 13.953L6.44133 12.5181C6.12297 11.9524 5.52165 11.6053 4.87261 11.6124L3.22656 11.6304C2.92233 11.2308 2.66736 10.7922 2.47037 10.3237L3.30992 8.9057C3.6406 8.34718 3.6406 7.65283 3.30992 7.0943L2.47037 5.67626ZM10.5375 7.21727C10.2036 6.13525 9.19564 5.34902 8.004 5.34902C6.5399 5.34902 5.353 6.53591 5.353 8.00001C5.353 9.19072 6.13802 10.1981 7.21873 10.5328C7.31834 10.2078 7.45017 9.8969 7.61049 9.60383C6.88866 9.42733 6.353 8.77623 6.353 8.00001C6.353 7.08819 7.09218 6.34902 8.004 6.34902C8.78079 6.34902 9.43228 6.88547 9.6082 7.60811C9.90143 7.44808 10.2125 7.31656 10.5375 7.21727Z" fill="#CED0D6"/>
</svg>
