<svg width="16" height="16" viewBox="0 0 16 16" fill="none" xmlns="http://www.w3.org/2000/svg">
<path d="M12.2448 9H13.3398L15.9998 16H14.9498L14.3098 14.22H11.3448L10.7498 16H9.6748L12.2448 9ZM14.0098 13.385L12.8998 10.33L12.7848 9.9L12.6748 10.33L11.6248 13.385H14.0098Z" fill="#6C707E"/>
<path d="M1 3.86667C1 2.83574 1.73127 2 2.63333 2H6.1217C6.39413 2 6.65477 2.11115 6.84336 2.30775L8.46667 4L13 4C14.1046 4 15 4.89543 15 6V10.5543L14.0294 8H11.5465L9.34362 14H2.63333C1.73127 14 1 13.1643 1 12.1333V3.86667Z" fill="#FFF7F7"/>
<path d="M2.63333 3L6.1217 3L8.04022 5H13C13.5523 5 14 5.44771 14 6V8H14.0294L15 10.5543V6C15 4.89543 14.1046 4 13 4L8.46667 4L6.84336 2.30775C6.65477 2.11115 6.39413 2 6.1217 2H2.63333C1.73127 2 1 2.83574 1 3.86667V12.1333C1 13.1643 1.73127 14 2.63333 14H9.34362L9.71076 13H2.63333C2.40481 13 2 12.7416 2 12.1333V3.86667C2 3.25841 2.40481 3 2.63333 3Z" fill="#DB3B4B"/>
</svg>
