<svg width="14" height="14" viewBox="0 0 14 14" fill="none" xmlns="http://www.w3.org/2000/svg">
<path fill-rule="evenodd" clip-rule="evenodd" d="M10.5 7C10.7761 7 11 7.22386 11 7.5V10H13.5C13.7761 10 14 10.2239 14 10.5C14 10.7761 13.7761 11 13.5 11H11V13.5C11 13.7761 10.7761 14 10.5 14C10.2239 14 10 13.7761 10 13.5V11H7.5C7.22386 11 7 10.7761 7 10.5C7 10.2239 7.22386 10 7.5 10H10V7.5C10 7.22386 10.2239 7 10.5 7Z" fill="#548AF7"/>
<path d="M2 12V4.82843C2 4.29799 2.21071 3.78929 2.58579 3.41421L5.41421 0.585786C5.78929 0.210713 6.29799 0 6.82843 0H10C11.1046 0 12 0.895431 12 2V6H10.5C9.67157 6 9 6.67157 9 7.5V9H7.5C6.67157 9 6 9.67157 6 10.5C6 11.3284 6.67157 12 7.5 12H9V14H4C2.89543 14 2 13.1046 2 12Z" fill="#43454A"/>
<path fill-rule="evenodd" clip-rule="evenodd" d="M2 12V4.82843C2 4.29799 2.21071 3.78929 2.58579 3.41421L5.41421 0.585786C5.78929 0.210713 6.29799 0 6.82843 0H10C11.1046 0 12 0.895431 12 2V6H11V2C11 1.44772 10.5523 1 10 1H7V3C7 4.10457 6.10457 5 5 5H3V12C3 12.5523 3.44772 13 4 13H9V14H4C2.89543 14 2 13.1046 2 12ZM3.41421 4L6 1.41421V3C6 3.55228 5.55228 4 5 4H3.41421Z" fill="#CED0D6"/>
</svg>
