<svg width="16" height="16" viewBox="0 0 16 16" fill="none" xmlns="http://www.w3.org/2000/svg">
<path fill-rule="evenodd" clip-rule="evenodd" d="M12.5 9C12.7761 9 13 9.22386 13 9.5V12H15.5C15.7761 12 16 12.2239 16 12.5C16 12.7761 15.7761 13 15.5 13H13V15.5C13 15.7761 12.7761 16 12.5 16C12.2239 16 12 15.7761 12 15.5V13H9.5C9.22386 13 9 12.7761 9 12.5C9 12.2239 9.22386 12 9.5 12H12V9.5C12 9.22386 12.2239 9 12.5 9Z" fill="#3574F0"/>
<path d="M4.5 13C4.77614 13 5 13.2239 5 13.5C5 13.7761 4.77614 14 4.5 14H4C2.89543 14 2 13.1046 2 12V4C2 2.89543 2.89543 2 4 2H4.5C4.77614 2 5 2.22386 5 2.5C5 2.77614 4.77614 3 4.5 3H4C3.44772 3 3 3.44772 3 4V12C3 12.5523 3.44772 13 4 13H4.5Z" fill="#6C707E"/>
<path d="M11.5 3H12C12.5523 3 13 3.44772 13 4V8H14V4C14 2.89543 13.1046 2 12 2H11.5C11.2239 2 11 2.22386 11 2.5C11 2.77614 11.2239 3 11.5 3Z" fill="#6C707E"/>
<path d="M11 8C11 7.72386 10.7761 7.5 10.5 7.5H5.5C5.22386 7.5 5 7.72386 5 8C5 8.27614 5.22386 8.5 5.5 8.5H10.5C10.7761 8.5 11 8.27614 11 8Z" fill="#6C707E"/>
<path d="M11 10.5C11 10.2239 10.7761 10 10.5 10H5.5C5.22386 10 5 10.2239 5 10.5C5 10.7761 5.22386 11 5.5 11H10.5C10.7761 11 11 10.7761 11 10.5Z" fill="#6C707E"/>
<path d="M5 5.5C5 5.22386 5.22386 5 5.5 5H10.5C10.7761 5 11 5.22386 11 5.5C11 5.77614 10.7761 6 10.5 6H5.5C5.22386 6 5 5.77614 5 5.5Z" fill="#6C707E"/>
</svg>
