<svg width="16" height="16" viewBox="0 0 16 16" fill="none" xmlns="http://www.w3.org/2000/svg">
<circle cx="12" cy="12" r="2" fill="#EBECF0"/>
<path fill-rule="evenodd" clip-rule="evenodd" d="M13.7383 14.4454C13.2479 14.7946 12.6479 15 12 15C10.3431 15 9 13.6569 9 12C9 10.3431 10.3431 9 12 9C13.6569 9 15 10.3431 15 12C15 12.6479 14.7946 13.2479 14.4454 13.7383L15.8536 15.1464C16.0488 15.3417 16.0488 15.6583 15.8536 15.8536C15.6583 16.0488 15.3417 16.0488 15.1464 15.8536L13.7383 14.4454ZM14 12C14 13.1046 13.1046 14 12 14C10.8954 14 10 13.1046 10 12C10 10.8954 10.8954 10 12 10C13.1046 10 14 10.8954 14 12Z" fill="#6C707E"/>
<path fill-rule="evenodd" clip-rule="evenodd" d="M3.5 9C3.77614 9 4 9.22386 4 9.5V12H6.5C6.77614 12 7 12.2239 7 12.5C7 12.7761 6.77614 13 6.5 13H4V15.5C4 15.7761 3.77614 16 3.5 16C3.22386 16 3 15.7761 3 15.5V13H0.5C0.223858 13 0 12.7761 0 12.5C0 12.2239 0.223858 12 0.5 12H3V9.5C3 9.22386 3.22386 9 3.5 9Z" fill="#3574F0"/>
<path fill-rule="evenodd" clip-rule="evenodd" d="M2 3.39246H2.01664C2.07865 3.00405 2.30765 2.67483 2.59694 2.41334C2.9371 2.10586 3.40129 1.85189 3.93236 1.64885C4.99792 1.24147 6.43619 1 8 1C9.56381 1 11.0021 1.24147 12.0676 1.64885C12.5987 1.85189 13.0629 2.10586 13.4031 2.41334C13.6924 2.67483 13.9213 3.00405 13.9834 3.39246H14V8.53513C13.6905 8.35609 13.3548 8.21733 13 8.12602V8.04112C12.9679 8.06175 12.9352 8.08207 12.9019 8.10209C12.612 8.0353 12.3101 8 12 8C10.9339 8 9.96529 8.41704 9.24829 9.09687C8.84492 9.13136 8.42714 9.14938 8 9.14938C6.83462 9.14938 5.73897 9.01528 4.81532 8.77835C4.56024 8.31441 4.06684 8 3.5 8C3.34164 8 3.18902 8.02454 3.04571 8.07002C3.03034 8.06046 3.01511 8.05082 3 8.04112V8.08535C2.4174 8.29127 2 8.84689 2 9.5V3.39246ZM3 3.60275C3 3.50293 3.05102 3.35087 3.2675 3.15519C3.48396 2.95953 3.82523 2.7604 4.28947 2.58291C5.21452 2.22925 6.52624 2 8 2C9.47376 2 10.7855 2.22925 11.7105 2.58291C12.1748 2.7604 12.516 2.95953 12.7325 3.15519C12.949 3.35087 13 3.50293 13 3.60275C13 3.70256 12.949 3.85463 12.7325 4.05031C12.516 4.24597 12.1748 4.4451 11.7105 4.62258C10.7855 4.97625 9.47376 5.2055 8 5.2055C6.52624 5.2055 5.21452 4.97625 4.28947 4.62258C3.82523 4.4451 3.48396 4.24597 3.2675 4.05031C3.05102 3.85463 3 3.70256 3 3.60275ZM3 6.54663V5.09723C3.27236 5.27221 3.58833 5.42512 3.93236 5.55665C4.99792 5.96403 6.43619 6.2055 8 6.2055C9.56381 6.2055 11.0021 5.96403 12.0676 5.55665C12.4117 5.42512 12.7276 5.27221 13 5.09723V6.54663C13 6.64645 12.949 6.79851 12.7325 6.99419C12.516 7.18985 12.1748 7.38898 11.7105 7.56647C10.7855 7.92013 9.47376 8.14938 8 8.14938C6.52624 8.14938 5.21452 7.92013 4.28947 7.56647C3.82523 7.38898 3.48396 7.18985 3.2675 6.99419C3.05102 6.79851 3 6.64645 3 6.54663Z" fill="#6C707E"/>
</svg>
