<svg width="14" height="14" viewBox="0 0 14 14" fill="none" xmlns="http://www.w3.org/2000/svg">
<path fill-rule="evenodd" clip-rule="evenodd" d="M10.5 7C10.7761 7 11 7.22386 11 7.5V10H13.5C13.7761 10 14 10.2239 14 10.5C14 10.7761 13.7761 11 13.5 11H11V13.5C11 13.7761 10.7761 14 10.5 14C10.2239 14 10 13.7761 10 13.5V11H7.5C7.22386 11 7 10.7761 7 10.5C7 10.2239 7.22386 10 7.5 10H10V7.5C10 7.22386 10.2239 7 10.5 7Z" fill="#548AF7"/>
<path d="M2.23223 6.47491C3.20854 5.4986 4.79146 5.4986 5.76777 6.47491L7.52513 8.23227C7.95134 8.65848 8.46013 8.95179 9 9.1122V8.04941C8.7213 7.9279 8.46022 7.75315 8.23223 7.52516L6.47487 5.7678C5.10804 4.40097 2.89196 4.40097 1.52513 5.7678L0.646447 6.64648C0.451184 6.84174 0.451184 7.15833 0.646447 7.35359C0.841709 7.54885 1.15829 7.54885 1.35355 7.35359L2.23223 6.47491Z" fill="#CED0D6"/>
<path d="M12 7.29293V8.6304C12.1669 8.51392 12.3259 8.38121 12.4749 8.23227L13.3536 7.35359C13.5488 7.15833 13.5488 6.84174 13.3536 6.64648C13.1583 6.45122 12.8417 6.45122 12.6464 6.64648L12 7.29293Z" fill="#CED0D6"/>
</svg>
