<svg width="16" height="16" viewBox="0 0 16 16" fill="none" xmlns="http://www.w3.org/2000/svg">
<path d="M9.24194 14C5.04839 14 2 11.7903 2 8.77419C2 6.35484 4.04839 4.6129 6.87097 4.6129C9.27419 4.6129 11 5.67742 11 7.22581C11 8.67742 9.53226 9.43548 7.72581 8.75806L7.98387 8C6.82258 7.64516 6 7.95161 6 8.74194C6 9.69355 7.25806 10.4516 9.08065 10.4516C11.2419 10.4516 13 9.09677 13 7.22581C13 4.77419 10.371 3 6.75806 3C5.87097 3 4.67742 3.20968 3.90323 3.54839C3.35484 3.77419 3 3.54839 3 3.19355C3 2.91935 3.19355 2.72581 3.58065 2.56452C4.35484 2.22581 5.67742 2 6.75806 2C10.9516 2 14 4.20968 14 7.22581C14 9.64516 11.9516 11.3871 9.12903 11.3871C6.72581 11.3871 5 10.3226 5 8.74194C5 7.32258 6.46774 6.59677 8.27419 7.22581L8.01613 8C9.17742 8.3871 10 8.06452 10 7.22581C10 6.30645 8.74194 5.54839 6.91935 5.54839C4.67742 5.54839 3 6.93548 3 8.77419C3 11.2258 5.62903 13 9.24194 13C10.129 13 11.3226 12.7903 12.0968 12.4516C12.6452 12.2258 13 12.4516 13 12.8065C13 13.0806 12.8065 13.2742 12.4194 13.4355C11.6452 13.7742 10.3226 14 9.24194 14Z" fill="#6C707E"/>
</svg>
