<svg width="20" height="20" viewBox="0 0 20 20" fill="none" xmlns="http://www.w3.org/2000/svg">
<path d="M11.64 18C13.12 18 14.76 17.7 16.22 17.12C16.76 16.9 17 16.7 17 16.24C17 15.86 16.6 15.4 15.82 15.72C14.54 16.26 13 16.5 11.64 16.5C6.66 16.5 3.5 14.18 3.5 11.04C3.5 8.54 5.68 6.76 8.58 6.76C10.98 6.76 12.66 7.76 12.66 9C12.66 10.08 11.56 10.6 10.02 10L10.36 8.98C7.96 8 5.98 9.12 5.98 11C5.98 13.1 8.3 14.5 11.5 14.5C15.26 14.5 18 12.18 18 8.96C18 4.94 14.2 2 8.36 2C6.88 2 5.24 2.26 3.78 2.88C3.26 3.1 3 3.36 3 3.74C3 4.2 3.46 4.58 4.18 4.28C5.46 3.74 7 3.5 8.36 3.5C13.34 3.5 16.5 5.82 16.5 8.96C16.5 11.46 14.32 13.24 11.42 13.24C9.02 13.24 7.34 12.24 7.34 11C7.34 9.92 8.44 9.4 9.98 10L9.64 11.02C12.04 12 14.02 10.88 14.02 9C14.02 6.9 11.7 5.5 8.5 5.5C4.74 5.5 2 7.82 2 11.04C2 15.06 5.8 18 11.64 18Z" fill="#CED0D6"/>
</svg>
