<svg width="16" height="16" viewBox="0 0 16 16" fill="none" xmlns="http://www.w3.org/2000/svg">
<path d="M11.59 11.0652L8.63997 12.4265C8.30998 11.7559 8.10753 11.1634 8.01212 10.8544C7.97162 10.7232 8.03562 10.585 8.15943 10.5256L11.3105 9.01437C11.4131 8.96517 11.5325 9.04915 11.5246 9.16266C11.4991 9.53336 11.4757 10.2563 11.59 11.0652Z" fill="#59A5BA"/>
<path d="M9.48922 13.8288L11.947 12.4884C11.8408 12.2132 11.7589 11.9304 11.6961 11.6502L8.90909 12.9363C9.0777 13.2342 9.27055 13.537 9.48922 13.8288Z" fill="#59A5BA"/>
<path d="M15.9156 14.6481C15.8745 14.4946 15.7166 14.4035 15.563 14.4446L15.0069 14.5936C14.9032 14.6214 14.8279 14.7024 14.8027 14.7994C13.4693 14.6387 12.666 13.9085 12.1865 13.0135L9.86002 14.2823C10.9693 15.5219 12.6186 16.3657 14.9534 15.3543C15.0238 15.4237 15.1281 15.4551 15.2304 15.4277L15.7866 15.2787C15.9401 15.2375 16.0313 15.0797 15.9901 14.9262C15.9627 14.8238 15.9446 14.7564 15.9156 14.6481Z" fill="#59A5BA"/>
<path d="M3 2C1.89543 2 1 2.89543 1 4V12C1 13.1046 1.89543 14 3 14H8.39043C7.79677 13.1138 7.36826 12.1596 7.05632 11.1492C6.86305 10.5231 7.17672 9.8875 7.7267 9.62373L10.8778 8.11248C11.7005 7.71789 12.5802 8.38548 12.522 9.23115C12.4532 10.23 12.5461 11.2518 12.8722 12.1087C13.137 12.7114 13.4124 13.09 13.7082 13.3352C13.8421 13.4462 13.9944 13.5416 14.175 13.6186C14.675 13.255 15 12.6655 15 12V4C15 2.89543 14.1046 2 13 2H3Z" fill="#43454A"/>
<path d="M3 3H13C13.5523 3 14 3.44772 14 4V12C14 12.4331 13.7247 12.8019 13.3395 12.9409C13.4592 13.1014 13.5818 13.2304 13.7082 13.3352C13.8421 13.4462 13.9944 13.5416 14.175 13.6186C14.675 13.255 15 12.6655 15 12V4C15 2.89543 14.1046 2 13 2H3C1.89543 2 1 2.89543 1 4V12C1 13.1046 1.89543 14 3 14H8.39043C8.17311 13.6756 7.97792 13.3421 7.80248 13H3C2.44772 13 2 12.5523 2 12V4C2 3.44772 2.44772 3 3 3Z" fill="#CED0D6"/>
<path d="M4 5C3.72386 5 3.5 5.22386 3.5 5.5C3.5 5.77614 3.72386 6 4 6H5C5.27614 6 5.5 5.77614 5.5 5.5C5.5 5.22386 5.27614 5 5 5H4Z" fill="#CED0D6"/>
<path d="M7 5C6.72386 5 6.5 5.22386 6.5 5.5C6.5 5.77614 6.72386 6 7 6H8C8.27614 6 8.5 5.77614 8.5 5.5C8.5 5.22386 8.27614 5 8 5H7Z" fill="#CED0D6"/>
</svg>
