<svg width="16" height="16" viewBox="0 0 16 16" fill="none" xmlns="http://www.w3.org/2000/svg">
<path d="M12.9508 3.05025C15.6845 5.78392 15.6845 10.2161 12.9508 12.9497C10.2171 15.6834 5.78498 15.6834 3.05131 12.9497C0.31764 10.2161 0.31764 5.78392 3.05131 3.05025C5.78498 0.316582 10.2171 0.316583 12.9508 3.05025Z" fill="#FFF7F7"/>
<path d="M10.0657 5.24573C9.25361 5.24573 8.636 5.6473 8.29593 6.31537C8.00368 5.64257 7.40552 5.24573 6.6071 5.24573C5.84915 5.24573 5.28147 5.60946 4.96189 6.24862V5.37188H4V10.7543H4.99869V7.59001C4.99869 6.68068 5.5138 6.10775 6.32852 6.10775C7.0749 6.10775 7.50591 6.61761 7.50591 7.43758V10.7543H8.49409V7.59001C8.49409 6.68068 9.01971 6.10775 9.82392 6.10775C10.5756 6.10775 11.0013 6.61761 11.0013 7.43758V10.7543H12V7.35874C12 6.07096 11.2168 5.24573 10.0657 5.24573Z" fill="#DB3B4B"/>
<path d="M13.9165 9C13.4404 11.8377 10.9724 14 7.99942 14C5.02643 14 2.55846 11.8377 2.08238 9H1.07031C1.55554 12.3923 4.47295 15 7.99942 15C11.5259 15 14.4433 12.3923 14.9285 9H13.9165Z" fill="#6C707E"/>
<path d="M2.08238 7C2.55846 4.16229 5.02643 2 7.99942 2C10.9724 2 13.4404 4.16229 13.9165 7H14.9285C14.4433 3.60771 11.5259 1 7.99942 1C4.47295 1 1.55554 3.60771 1.07031 7H2.08238Z" fill="#6C707E"/>
</svg>
