<svg width="16" height="16" viewBox="0 0 16 16" fill="none" xmlns="http://www.w3.org/2000/svg">
<path fill-rule="evenodd" clip-rule="evenodd" d="M4 2.5C4 2.22386 3.77614 2 3.5 2C3.22386 2 3 2.22386 3 2.5V9.08535C2.4174 9.29127 2 9.84689 2 10.5C2 11.1531 2.4174 11.7087 3 11.9146V13.5C3 13.7761 3.22386 14 3.5 14C3.77614 14 4 13.7761 4 13.5V11.9146C4.5826 11.7087 5 11.1531 5 10.5C5 9.84689 4.5826 9.29127 4 9.08535V2.5ZM4 10.5C4 10.7761 3.77614 11 3.5 11C3.22386 11 3 10.7761 3 10.5C3 10.2239 3.22386 10 3.5 10C3.77614 10 4 10.2239 4 10.5Z" fill="#3574F0"/>
<path fill-rule="evenodd" clip-rule="evenodd" d="M8.5 2.5C8.5 2.22386 8.27614 2 8 2C7.72386 2 7.5 2.22386 7.5 2.5V4.08535C6.9174 4.29127 6.5 4.84689 6.5 5.5C6.5 6.15311 6.9174 6.70873 7.5 6.91465V13.5C7.5 13.7761 7.72386 14 8 14C8.27614 14 8.5 13.7761 8.5 13.5V6.91465C9.0826 6.70873 9.5 6.15311 9.5 5.5C9.5 4.84689 9.0826 4.29127 8.5 4.08535V2.5ZM8.5 5.5C8.5 5.77614 8.27614 6 8 6C7.72386 6 7.5 5.77614 7.5 5.5C7.5 5.22386 7.72386 5 8 5C8.27614 5 8.5 5.22386 8.5 5.5Z" fill="#3574F0"/>
<path fill-rule="evenodd" clip-rule="evenodd" d="M13 2.5C13 2.22386 12.7761 2 12.5 2C12.2239 2 12 2.22386 12 2.5V7.08535C11.4174 7.29127 11 7.84689 11 8.5C11 9.15311 11.4174 9.70873 12 9.91465V13.5C12 13.7761 12.2239 14 12.5 14C12.7761 14 13 13.7761 13 13.5V9.91465C13.5826 9.70873 14 9.15311 14 8.5C14 7.84689 13.5826 7.29127 13 7.08535V2.5ZM13 8.5C13 8.77614 12.7761 9 12.5 9C12.2239 9 12 8.77614 12 8.5C12 8.22386 12.2239 8 12.5 8C12.7761 8 13 8.22386 13 8.5Z" fill="#3574F0"/>
</svg>
