<svg width="14" height="14" viewBox="0 0 14 14" fill="none" xmlns="http://www.w3.org/2000/svg">
<g clip-path="url(#clip0_8545_13034)">
<path fill-rule="evenodd" clip-rule="evenodd" d="M13.827 9.17574C14.0613 9.41005 14.0613 9.78995 13.827 10.0243L10.0301 13.8211C9.79581 14.0555 9.41591 14.0555 9.1816 13.8211L7.17574 11.8153C6.94142 11.581 6.94142 11.2011 7.17574 10.9668C7.41005 10.7324 7.78995 10.7324 8.02426 10.9668L9.60586 12.5483L12.9785 9.17574C13.2128 8.94142 13.5927 8.94142 13.827 9.17574Z" fill="#369650"/>
<path d="M13.9995 8.115C14.0257 6.17332 13.0648 4.18706 11.4211 2.54342C8.55592 -0.321695 4.60271 -1.034 1.76887 1.79978C-1.06496 4.63356 -0.250103 8.73619 2.48908 11.4753C4.03664 13.0228 6.00442 13.9811 7.94597 13.9997L6.46863 12.5224C5.84379 11.8975 5.84379 10.8845 6.46863 10.2596C7.09347 9.63481 8.10653 9.63481 8.73137 10.2596L9.60586 11.1341L12.2714 8.46863C12.7386 8.00144 13.4228 7.88357 13.9995 8.115Z" fill="#FFF4EB"/>
<path d="M13.9995 8.115C14.0257 6.17332 13.0648 4.18706 11.4211 2.54342C8.55592 -0.321695 4.60271 -1.034 1.76887 1.79978C-1.06496 4.63356 -0.250103 8.73619 2.48908 11.4753C4.03664 13.0228 6.00442 13.9811 7.94597 13.9997L6.80572 12.8595C5.54068 12.5711 4.27247 11.8416 3.19761 10.7668C1.96238 9.53159 1.1978 8.02377 1.03495 6.5621C0.891189 5.27175 1.20946 3.98843 2.13864 2.87802L10.0004 10.7396L10.7089 10.0311L2.84627 2.1686C3.96097 1.22632 5.21752 0.896088 6.47661 1.03083C7.90451 1.18363 9.40651 1.94592 10.7126 3.25194C12.025 4.56439 12.8035 6.05797 12.9658 7.47924C12.9876 7.67004 12.9985 7.86104 12.998 8.05178C13.3281 7.96582 13.6802 7.98689 13.9995 8.115Z" fill="#E66D17"/>
</g>
<defs>
<clipPath id="clip0_8545_13034">
<rect width="14" height="14" fill="white"/>
</clipPath>
</defs>
</svg>
