<svg width="14" height="14" viewBox="0 0 14 14" fill="none" xmlns="http://www.w3.org/2000/svg">
<g clip-path="url(#clip0_8037_13683)">
<path d="M11.4211 2.54342C13.0386 4.16093 13.995 6.11026 14 8.02239C13.848 7.67975 13.6467 7.36555 13.3969 7.0898C12.7892 6.41893 11.9457 6.03432 11 6.00219V6H7V13.9178C5.37645 13.6544 3.78534 12.7716 2.48908 11.4753C-0.250103 8.73619 -1.06496 4.63356 1.76887 1.79978C4.60271 -1.034 8.55592 -0.321695 11.4211 2.54342Z" fill="#FFF4EB"/>
<path d="M10.8706 7C10.0268 7 9.36316 7.37098 8.98246 7.99832V7.12281H8V14H9.00292V11.5203C9.3867 12.1272 10.0417 12.4854 10.8706 12.4854C12.3289 12.4854 13.3472 11.3699 13.3472 9.74269C13.3472 8.1155 12.3289 7 10.8706 7ZM10.6608 11.5848C9.68348 11.5848 9.00292 10.8326 9.00292 9.74269C9.00292 8.65278 9.68348 7.90058 10.6608 7.90058C11.633 7.90058 12.3034 8.65278 12.3034 9.74269C12.3034 10.8326 11.633 11.5848 10.6608 11.5848Z" fill="#6C707E"/>
<path d="M14 8.02238C13.995 6.11026 13.0386 4.16093 11.4211 2.54342C8.55592 -0.321695 4.60271 -1.034 1.76887 1.79978C-1.06496 4.63356 -0.250103 8.73619 2.48908 11.4753C3.78534 12.7716 5.37645 13.6544 7 13.9178V12.9003C5.67106 12.6449 4.32751 11.8967 3.19761 10.7668C1.96238 9.53159 1.1978 8.02377 1.03495 6.5621C0.891189 5.27175 1.20946 3.98843 2.13864 2.87802L7 7.73929V6.32225L2.84627 2.1686C3.96097 1.22632 5.21752 0.896088 6.47661 1.03083C7.90451 1.18363 9.40651 1.94592 10.7126 3.25194C11.7433 4.28265 12.4447 5.42506 12.7769 6.55644C13.0031 6.70618 13.2111 6.8846 13.3969 7.0898C13.6467 7.36555 13.848 7.67975 14 8.02238Z" fill="#E66D17"/>
</g>
<defs>
<clipPath id="clip0_8037_13683">
<rect width="14" height="14" fill="white"/>
</clipPath>
</defs>
</svg>
