<svg width="16" height="16" viewBox="0 0 16 16" fill="none" xmlns="http://www.w3.org/2000/svg">
<path d="M8 10.062L8.00083 10.0009H7V16.0009H8.00083L8 12.4615C8 12.1106 8.06323 11.8044 8.18803 11.5431C8.31673 11.2817 8.49808 11.0809 8.73208 10.9406C8.96998 10.8002 9.3129 10.73 9.6249 10.73C9.9135 10.73 10.1592 10.7924 10.362 10.9171C10.5687 11.042 10.7267 11.2213 10.8359 11.4553C10.9451 11.6893 10.9996 11.9644 10.9996 12.2802V16.0009H12V12.4615C12 12.1106 12.0644 11.8064 12.1931 11.549C12.3217 11.2876 12.5719 11.0868 12.8059 10.9464C13.0399 10.8021 13.3129 10.73 13.6249 10.73C13.9135 10.73 14.1592 10.7924 14.362 10.9171C14.5687 11.042 14.7247 11.2213 14.83 11.4553C14.9392 11.6893 15 11.9644 15 12.2802V16.0009H16V12.2217C16 11.7498 15.9083 11.3364 15.7251 10.9814C15.5456 10.6266 15.2922 10.3536 14.9646 10.1625C14.6369 9.96753 14.2606 9.87 13.8355 9.87C13.3714 9.87 12.9658 9.98315 12.6187 10.2094C12.2941 10.4209 11.9792 10.7142 11.7867 11.0895C11.7709 11.0529 11.7543 11.0168 11.7367 10.9814C11.5651 10.6266 11.3195 10.3536 10.9996 10.1625C10.6837 9.96753 10.3132 9.87 9.88815 9.87C9.43575 9.87 8.97778 9.97925 8.65018 10.1976C8.38295 10.3779 8.16622 10.6233 8 10.9338V10.062Z" fill="#CED0D6"/>
<path d="M14.9999 9.07401C15.0121 7.14538 14.0532 5.17549 12.4211 3.54342C9.55592 0.678305 5.60271 -0.0339965 2.76887 2.79978C-0.0649633 5.63356 0.749897 9.73619 3.48908 12.4753C4.24344 13.2297 5.09765 13.844 6 14.2777V9.00085H8.90827C9.23636 8.90939 9.5738 8.87 9.88815 8.87C10.469 8.87 11.0247 9.00457 11.5188 9.30776C11.6331 9.37644 11.7409 9.45188 11.8422 9.53367C11.9195 9.47504 11.9968 9.42105 12.0727 9.37156C12.6012 9.02714 13.2015 8.87 13.8355 8.87C14.24 8.87 14.6315 8.93518 14.9999 9.07401Z" fill="#45322B"/>
<path d="M14.9999 9.07401C15.0121 7.14538 14.0532 5.17549 12.4211 3.54342C9.55592 0.678305 5.60271 -0.0339965 2.76887 2.79978C-0.0649632 5.63356 0.749897 9.73619 3.48908 12.4753C4.24344 13.2297 5.09765 13.844 6 14.2777V13.1479C5.36544 12.7895 4.75548 12.3247 4.19761 11.7668C2.96238 10.5316 2.1978 9.02377 2.03495 7.5621C1.89119 6.27175 2.20946 4.98843 3.13864 3.87802L8.26157 9.00085H8.90827C9.12517 8.94039 9.34615 8.90268 9.56185 8.88406L3.84627 3.1686C4.96097 2.22632 6.21752 1.89609 7.47661 2.03083C8.90451 2.18363 10.4065 2.94592 11.7126 4.25194C13.025 5.56439 13.8035 7.05797 13.9658 8.47924C13.9808 8.61059 13.9907 8.74204 13.9952 8.87344C14.343 8.88852 14.6802 8.95353 14.9999 9.07401Z" fill="#C77D55"/>
</svg>
