<svg width="16" height="16" viewBox="0 0 16 16" fill="none" xmlns="http://www.w3.org/2000/svg">
<path d="M12.8706 9C12.0268 9 11.3632 9.37098 10.9825 9.99832V9.12281H10V16H11.0029V13.5203C11.3867 14.1272 12.0417 14.4854 12.8706 14.4854C14.3289 14.4854 15.3472 13.3699 15.3472 11.7427C15.3472 10.1155 14.3289 9 12.8706 9ZM12.6608 13.5848C11.6835 13.5848 11.0029 12.8326 11.0029 11.7427C11.0029 10.6528 11.6835 9.90058 12.6608 9.90058C13.633 9.90058 14.3034 10.6528 14.3034 11.7427C14.3034 12.8326 13.633 13.5848 12.6608 13.5848Z" fill="#CED0D6"/>
<path d="M14.9908 8.71088C14.8893 6.89971 13.9509 5.07317 12.4211 3.54342C9.55592 0.678305 5.60271 -0.0339965 2.76887 2.79978C-0.0649633 5.63356 0.749897 9.73619 3.48908 12.4753C5.05099 14.0372 7.04097 14.9989 9 15V8H13V8.00219C13.7502 8.02768 14.436 8.27492 14.9908 8.71088Z" fill="#45322B"/>
<path d="M14.9908 8.71088C14.8893 6.89971 13.9509 5.07317 12.4211 3.54342C9.55592 0.678305 5.60271 -0.0339965 2.76887 2.79978C-0.0649632 5.63356 0.749897 9.73619 3.48908 12.4753C5.05099 14.0372 7.04097 14.9989 9 15V13.9981C8.7982 13.9979 8.5959 13.9855 8.3937 13.9615C6.93895 13.7891 5.43927 13.0084 4.19761 11.7668C2.96238 10.5316 2.1978 9.02377 2.03495 7.5621C1.89119 6.27175 2.20946 4.98843 3.13864 3.87802L9 9.73927V8.32223L3.84627 3.1686C4.96097 2.22632 6.21752 1.89609 7.47661 2.03083C8.90451 2.18363 10.4065 2.94592 11.7126 4.25194C12.9249 5.46426 13.6816 6.83111 13.918 8.15277C14.3104 8.2724 14.6722 8.46052 14.9908 8.71088Z" fill="#C77D55"/>
</svg>
