<svg width="16" height="16" viewBox="0 0 16 16" fill="none" xmlns="http://www.w3.org/2000/svg">
<path fill-rule="evenodd" clip-rule="evenodd" d="M14.5819 3.41812L10.4998 7.50015L11.0856 8.08594C11.8667 8.86699 11.8667 10.1333 11.0856 10.9144L7.29094 14.7091C6.90042 15.0996 6.26725 15.0996 5.87673 14.7091L1.29094 10.1233C0.900416 9.73275 0.900416 9.09958 1.29094 8.70906L5.08564 4.91436C5.86668 4.13331 7.13301 4.13332 7.91406 4.91436L8.49985 5.50015L12.5819 1.41812C13.1342 0.865835 14.0296 0.865835 14.5819 1.41812C15.1342 1.9704 15.1342 2.86583 14.5819 3.41812ZM8.49985 6.91436L7.20696 5.62147C6.81643 5.23095 6.18327 5.23095 5.79274 5.62147L5.56066 5.85355L10.1464 10.4393L10.3785 10.2073C10.7691 9.81673 10.7691 9.18357 10.3785 8.79304L9.08564 7.50015L13.8748 2.71101C14.0365 2.54925 14.0365 2.28699 13.8748 2.12523C13.713 1.96347 13.4507 1.96347 13.289 2.12523L8.49985 6.91436ZM9.43934 11.1464L4.85355 6.56066L1.99805 9.41617L2.93741 10.3555L4.14648 9.14645C4.34175 8.95118 4.65833 8.95118 4.85359 9.14645C5.04885 9.34171 5.04885 9.65829 4.85359 9.85355L3.64451 11.0626L4.93741 12.3555L6.14648 11.1464C6.34175 10.9512 6.65833 10.9512 6.85359 11.1464C7.04885 11.3417 7.04885 11.6583 6.85359 11.8536L5.64451 13.0626L6.58383 14.002L9.43934 11.1464Z" fill="#6C707E"/>
</svg>
