<svg width="20" height="20" viewBox="0 0 20 20" fill="none" xmlns="http://www.w3.org/2000/svg">
<path fill-rule="evenodd" clip-rule="evenodd" d="M15.6843 4.27011C19.3681 7.95383 20.3846 12.9761 16.6606 16.7001C12.9366 20.424 7.72205 19.2757 4.20025 15.754C0.678439 12.2322 -0.369239 6.95744 3.27427 3.31401C6.91777 -0.329424 12.0005 0.586392 15.6843 4.27011ZM14.6236 5.33078C16.2857 6.99284 17.258 8.87105 17.46 10.6402C17.6324 12.1493 17.2587 13.6698 16.1228 15.0622L4.91349 3.85283C6.27261 2.75333 7.7871 2.37348 9.30455 2.53586C11.0828 2.72616 12.9711 3.67835 14.6236 5.33078ZM3.85034 4.911L15.0645 16.1252C13.6671 17.2701 12.0977 17.6402 10.5311 17.4546C8.71638 17.2395 6.83028 16.2627 5.2609 14.6933C3.70113 13.1336 2.74428 11.2378 2.54104 9.41354C2.36553 7.83821 2.74208 6.27494 3.85034 4.911Z" fill="#CED0D6"/>
</svg>
