<svg width="16" height="16" viewBox="0 0 16 16" fill="none" xmlns="http://www.w3.org/2000/svg">
<path d="M5 5.5C5 5.22386 5.22386 5 5.5 5H10.5C10.7761 5 11 5.22386 11 5.5C11 5.77614 10.7761 6 10.5 6H5.5C5.22386 6 5 5.77614 5 5.5Z" fill="#6C707E"/>
<path d="M5 8C5 7.72386 5.22386 7.5 5.5 7.5H10.5C10.7761 7.5 11 7.72386 11 8C11 8.27614 10.7761 8.5 10.5 8.5H5.5C5.22386 8.5 5 8.27614 5 8Z" fill="#6C707E"/>
<path d="M5 10.5C5 10.2239 5.22386 10 5.5 10H10.5C10.7761 10 11 10.2239 11 10.5C11 10.7761 10.7761 11 10.5 11H5.5C5.22386 11 5 10.7761 5 10.5Z" fill="#6C707E"/>
<path d="M12 3H11.5C11.2239 3 11 2.77614 11 2.5C11 2.22386 11.2239 2 11.5 2H12C13.1046 2 14 2.89543 14 4V12C14 13.1046 13.1046 14 12 14H11.5C11.2239 14 11 13.7761 11 13.5C11 13.2239 11.2239 13 11.5 13H12C12.5523 13 13 12.5523 13 12V4C13 3.44772 12.5523 3 12 3Z" fill="#6C707E"/>
<path d="M5 13.5C5 13.2239 4.77614 13 4.5 13H4C3.44772 13 3 12.5523 3 12V4C3 3.44772 3.44772 3 4 3H4.5C4.77614 3 5 2.77614 5 2.5C5 2.22386 4.77614 2 4.5 2H4C2.89543 2 2 2.89543 2 4V12C2 13.1046 2.89543 14 4 14H4.5C4.77614 14 5 13.7761 5 13.5Z" fill="#6C707E"/>
</svg>
