<svg width="16" height="16" viewBox="0 0 16 16" fill="none" xmlns="http://www.w3.org/2000/svg">
<path d="M9.5 3.14062L14 6.74062V10.46L10.1247 7.35976C9.75948 7.06758 9.24052 7.06758 8.8753 7.35976L4.5 10.86L2 8.86V5.14062L3.8753 6.64087C4.24052 6.93304 4.75948 6.93304 5.12469 6.64087L9.5 3.14062Z" fill="#25324D"/>
<path d="M2 2.5C2 2.22386 1.77614 2 1.5 2C1.22386 2 1 2.22386 1 2.5V13C1 13.5523 1.44772 14 2 14H14.5C14.7761 14 15 13.7761 15 13.5C15 13.2239 14.7761 13 14.5 13H2V2.5Z" fill="#CED0D6"/>
<path d="M2 3.86L4.5 5.86L8.8753 2.35976C9.24052 2.06758 9.75948 2.06758 10.1247 2.35976L14.8123 6.10988C14.931 6.20476 15 6.34842 15 6.50031V11.5003C15 11.6925 14.8898 11.8677 14.7166 11.951C14.5434 12.0342 14.3377 12.0108 14.1877 11.8907L9.5 8.14062L5.12469 11.6409C4.75948 11.933 4.24052 11.933 3.8753 11.6409L2 10.1406V8.86L4.5 10.86L8.8753 7.35976C9.24052 7.06758 9.75948 7.06758 10.1247 7.35976L14 10.46V6.74062L9.5 3.14063L5.12469 6.64087C4.75948 6.93304 4.24052 6.93304 3.8753 6.64087L2 5.14062V3.86Z" fill="#548AF7"/>
</svg>
