<svg width="16" height="16" viewBox="0 0 16 16" fill="none" xmlns="http://www.w3.org/2000/svg">
<path d="M1.5 2C1.77614 2 2 2.22386 2 2.5V8.29289V9.70711V13H14.5C14.7761 13 15 13.2239 15 13.5C15 13.7761 14.7761 14 14.5 14H2C1.44772 14 1 13.5523 1 13V2.5C1 2.22386 1.22386 2 1.5 2Z" fill="#CED0D6"/>
<path fill-rule="evenodd" clip-rule="evenodd" d="M8 2C7.44772 2 7 2.44772 7 3V7C7 7.55228 7.44772 8 8 8H9C9.55228 8 10 7.55229 10 7V3C10 2.44772 9.55229 2 9 2H8ZM8 3H9V7H8V3Z" fill="#548AF7"/>
<path fill-rule="evenodd" clip-rule="evenodd" d="M3 5C3 4.44772 3.44772 4 4 4H5C5.55228 4 6 4.44772 6 5V10C6 10.5523 5.55228 11 5 11H4C3.44772 11 3 10.5523 3 10V5ZM5 5H4V10H5V5Z" fill="#548AF7"/>
<path fill-rule="evenodd" clip-rule="evenodd" d="M11 5C11 4.44772 11.4477 4 12 4H13C13.5523 4 14 4.44772 14 5V11C14 11.5523 13.5523 12 13 12H12C11.4477 12 11 11.5523 11 11V5ZM13 5H12V11H13V5Z" fill="#548AF7"/>
<path d="M8 3H9V7H8V3Z" fill="#25324D"/>
<path d="M5 5H4V10H5V5Z" fill="#25324D"/>
<path d="M12 5H13V11H12V5Z" fill="#25324D"/>
</svg>
