<svg width="16" height="16" viewBox="0 0 16 16" fill="none" xmlns="http://www.w3.org/2000/svg">
<path d="M2 2.5C2 2.22386 1.77614 2 1.5 2C1.22386 2 1 2.22386 1 2.5V13C1 13.5523 1.44772 14 2 14H14C14.5523 14 15 13.5523 15 13H2V2.5Z" fill="#CED0D6"/>
<path d="M2 4.85951L4.5 6.85951L8.8753 3.35927C9.24052 3.06709 9.75948 3.06709 10.1247 3.35927L14.6247 6.95927C14.8619 7.14904 15 7.43635 15 7.74014V12.9998C15 12.9998 15 12.9999 15 12.9998L2 13L14 12.9998V7.74014L9.5 4.14014L5.12469 7.64038C4.75948 7.93256 4.24052 7.93256 3.87531 7.64038L2 6.14014V4.85951Z" fill="#548AF7"/>
<path d="M2 6.14014V13H14.5L14 12.9998V7.74014L9.5 4.14014L5.12469 7.64038C4.75948 7.93256 4.24052 7.93256 3.87531 7.64038L2 6.14014Z" fill="#25324D"/>
</svg>
