<svg width="16" height="16" viewBox="0 0 16 16" fill="none" xmlns="http://www.w3.org/2000/svg">
<path d="M11.5618 10.1475C11.3665 10.3428 11.0499 10.3428 10.8547 10.1475C10.6594 9.95229 10.6594 9.6357 10.8547 9.44044L11.5322 8.76291C12.5519 7.74327 14.2078 7.74606 15.2309 8.76913C16.2539 9.7922 16.2567 11.4481 15.2371 12.4678L14.5596 13.1453C14.3643 13.3406 14.0477 13.3406 13.8525 13.1453C13.6572 12.9501 13.6572 12.6335 13.8525 12.4382L14.53 11.7607C15.1569 11.1338 15.1586 10.111 14.5238 9.47624C13.889 8.84144 12.8662 8.84315 12.2393 9.47001L11.5618 10.1475Z" fill="#3574F0"/>
<path d="M10.1476 10.8547C10.3428 11.0499 10.3428 11.3665 10.1476 11.5618L9.47001 12.2393C8.84315 12.8662 8.84144 13.889 9.47624 14.5238C10.111 15.1586 11.1338 15.1569 11.7607 14.53L12.4382 13.8524C12.6335 13.6572 12.9501 13.6572 13.1453 13.8524C13.3406 14.0477 13.3406 14.3643 13.1453 14.5595L12.4678 15.2371C11.4481 16.2567 9.7922 16.2539 8.76913 15.2309C7.74606 14.2078 7.74327 12.5519 8.76291 11.5322L9.44047 10.8547C9.63573 10.6594 9.95232 10.6594 10.1476 10.8547Z" fill="#3574F0"/>
<path d="M13.8536 10.8536C14.0488 10.6583 14.0488 10.3417 13.8536 10.1464C13.6583 9.95118 13.3417 9.95118 13.1464 10.1464L10.1464 13.1464C9.95118 13.3417 9.95118 13.6583 10.1464 13.8536C10.3417 14.0488 10.6583 14.0488 10.8536 13.8536L13.8536 10.8536Z" fill="#3574F0"/>
<path d="M14 3.5L8 1L2 3.5V9.17871C2 10.9446 2.89245 12.236 4.03238 13.2576C4.87083 14.009 5.8918 14.6534 6.82862 15.2446C6.88608 15.2809 6.9433 15.317 7.00006 15.3529L7.00014 13.3747C7.00028 12.4519 7.35157 11.5295 8.05594 10.8251L10.8253 8.0558C11.5307 7.35037 12.4548 6.99909 13.379 7L14 7L14 3.5Z" fill="#EBECF0"/>
<path d="M13 7.01943L13 4.16667L8 2.08333L3 4.16667V9.17871C3 10.5557 3.67852 11.5977 4.69977 12.5129C5.3673 13.1111 6.17341 13.6446 7.00011 14.1698L7.00006 15.3529C6.9433 15.317 6.88615 15.2809 6.82869 15.2447C5.89187 14.6534 4.87083 14.009 4.03238 13.2576C2.89245 12.236 2 10.9446 2 9.17871V3.5L8 1L14 3.5L14 7L13.379 7C13.2525 6.99988 13.126 7.00635 13 7.01943Z" fill="#6C707E"/>
</svg>
