<svg width="16" height="16" viewBox="0 0 16 16" fill="none" xmlns="http://www.w3.org/2000/svg">
<circle cx="12" cy="12" r="2" fill="#EBECF0"/>
<path fill-rule="evenodd" clip-rule="evenodd" d="M13.7383 14.4454C13.2479 14.7946 12.6479 15 12 15C10.3431 15 9 13.6569 9 12C9 10.3431 10.3431 9 12 9C13.6569 9 15 10.3431 15 12C15 12.6479 14.7946 13.2479 14.4454 13.7383L15.8536 15.1464C16.0488 15.3417 16.0488 15.6583 15.8536 15.8536C15.6583 16.0488 15.3417 16.0488 15.1464 15.8536L13.7383 14.4454ZM14 12C14 13.1046 13.1046 14 12 14C10.8954 14 10 13.1046 10 12C10 10.8954 10.8954 10 12 10C13.1046 10 14 10.8954 14 12Z" fill="#6C707E"/>
<path d="M14.9917 9.34484C15.1005 7.33075 14.1297 5.25197 12.4211 3.54342C9.55592 0.678305 5.60271 -0.0339967 2.76887 2.79978C-0.0649633 5.63357 0.749897 9.73619 3.48908 12.4753C5.14231 14.1285 7.27513 15.1093 9.3432 14.9903C8.51915 14.2576 8 13.1894 8 12C8 9.79086 9.79086 8 12 8C13.1902 8 14.259 8.51983 14.9917 9.34484Z" fill="#FFF4EB"/>
<path d="M14.9917 9.34484C15.1005 7.33075 14.1297 5.25197 12.4211 3.54342C9.55592 0.678305 5.60271 -0.0339965 2.76887 2.79978C-0.0649632 5.63356 0.749897 9.73619 3.48908 12.4753C5.14231 14.1285 7.27513 15.1093 9.3432 14.9903C9.0168 14.7001 8.73824 14.3572 8.52082 13.9751C8.47845 13.9711 8.43607 13.9665 8.3937 13.9615C6.93895 13.7891 5.43927 13.0084 4.19761 11.7668C2.96238 10.5316 2.1978 9.02377 2.03495 7.5621C1.89119 6.27175 2.20946 4.98843 3.13864 3.87802L8.82605 9.56532C9.03029 9.29947 9.26718 9.06001 9.53072 8.85293L3.84627 3.1686C4.96097 2.22632 6.21752 1.89609 7.47661 2.03083C8.90451 2.18363 10.4065 2.94592 11.7126 4.25194C13.025 5.56439 13.8035 7.05797 13.9658 8.47924C13.9673 8.49216 13.9687 8.50509 13.9701 8.51801C14.3549 8.7362 14.7 9.01632 14.9917 9.34484Z" fill="#E66D17"/>
</svg>
