<svg width="16" height="16" viewBox="0 0 16 16" fill="none" xmlns="http://www.w3.org/2000/svg">
<path fill-rule="evenodd" clip-rule="evenodd" d="M5.5 0C5.22386 0 5 0.223858 5 0.5V4.5C5 4.77614 5.22386 5 5.5 5H7.5V7H4.5C4.22386 7 4 7.22386 4 7.5V10H1.5C1.22386 10 1 10.2239 1 10.5V14.5C1 14.7761 1.22386 15 1.5 15H6.5C6.77614 15 7 14.7761 7 14.5V10.5C7 10.2239 6.77614 10 6.5 10H5V8H11V10H9.5C9.22386 10 9 10.2239 9 10.5V14.5C9 14.7761 9.22386 15 9.5 15H14.5C14.7761 15 15 14.7761 15 14.5V10.5C15 10.2239 14.7761 10 14.5 10H12V7.5C12 7.22386 11.7761 7 11.5 7H8.5V5H10.5C10.7761 5 11 4.77614 11 4.5V0.5C11 0.223858 10.7761 0 10.5 0H5.5ZM6 4V1H10V4H6ZM2 11V14H6V11H2ZM10 11V14H14V11H10Z" fill="#CED0D6"/>
</svg>
