<svg width="16" height="16" viewBox="0 0 16 16" fill="none" xmlns="http://www.w3.org/2000/svg">
<path d="M12.328 16C11.6997 16 11.132 15.8476 10.625 15.5429C10.118 15.2382 9.71933 14.8203 9.429 14.2892C9.143 13.7537 9 13.1573 9 12.5C9 11.8427 9.143 11.2484 9.429 10.7174C9.71933 10.1819 10.118 9.76182 10.625 9.45709C11.132 9.15236 11.6997 9 12.328 9C12.861 9 13.3398 9.09142 13.7645 9.27425C14.1892 9.45274 14.5423 9.72264 14.824 10.084C15.1057 10.4409 15.2985 10.8806 15.4025 11.403H14.3625C14.2672 11.0808 14.1177 10.8109 13.914 10.5933C13.7103 10.3756 13.472 10.2146 13.199 10.1101C12.926 10.0012 12.6357 9.94683 12.328 9.94683C11.899 9.94683 11.5133 10.0557 11.171 10.2733C10.833 10.491 10.5687 10.7935 10.378 11.181C10.1873 11.5684 10.092 12.0081 10.092 12.5C10.092 12.9876 10.1873 13.4251 10.378 13.8125C10.5687 14.1999 10.833 14.5047 11.171 14.7267C11.5133 14.9443 11.899 15.0532 12.328 15.0532C12.6357 15.0532 12.926 15.0009 13.199 14.8965C13.472 14.7876 13.7103 14.6244 13.914 14.4067C14.1177 14.1891 14.2672 13.9192 14.3625 13.597H15.4025C15.3028 14.102 15.1078 14.5351 14.8175 14.8965C14.5272 15.2578 14.1675 15.532 13.7385 15.7192C13.3095 15.9064 12.8393 16 12.328 16Z" fill="#CED0D6"/>
<path d="M1 3.86667C1 2.83574 1.73127 2 2.63333 2H6.1217C6.39413 2 6.65477 2.11115 6.84336 2.30775L8.46667 4L13 4C14.1046 4 15 4.89543 15 6V8.8509C14.7452 8.64963 14.4632 8.48358 14.156 8.35407C13.5899 8.11104 12.9749 8 12.328 8C11.5299 8 10.7822 8.19589 10.1098 8.59999C9.44504 8.99957 8.92275 9.55308 8.54991 10.2407L8.54855 10.2432C8.17717 10.9329 8 11.6924 8 12.5C8 13.0216 8.07389 13.5235 8.22583 14H2.63333C1.73127 14 1 13.1643 1 12.1333V3.86667Z" fill="#25324D"/>
<path d="M2.63333 3L6.1217 3L8.04022 5H13C13.5523 5 14 5.44771 14 6V8.29089C14.0524 8.31086 14.1044 8.33192 14.156 8.35407C14.4632 8.48358 14.7452 8.64963 15 8.8509V6C15 4.89543 14.1046 4 13 4L8.46667 4L6.84336 2.30775C6.65477 2.11115 6.39413 2 6.1217 2H2.63333C1.73127 2 1 2.83574 1 3.86667V12.1333C1 13.1643 1.73127 14 2.63333 14H8.22583C8.12306 13.6777 8.056 13.3438 8.02336 13H2.63333C2.40481 13 2 12.7416 2 12.1333V3.86667C2 3.25841 2.40481 3 2.63333 3Z" fill="#548AF7"/>
</svg>
