<svg width="16" height="16" viewBox="0 0 16 16" fill="none" xmlns="http://www.w3.org/2000/svg">
<path d="M1 4C1 2.89543 1.89543 2 3 2H13C14.1046 2 15 2.89543 15 4V12C15 13.1046 14.1046 14 13 14H3C1.89543 14 1 13.1046 1 12V4Z" fill="#253627"/>
<path d="M3.5 13.5H2.5C1.94772 13.5 1.5 13.0523 1.5 12.5V3.5C1.5 2.94771 1.94772 2.5 2.5 2.5H3.5" stroke="#57965C" stroke-linecap="round"/>
<path d="M12.5 13.5H13.5C14.0523 13.5 14.5 13.0523 14.5 12.5V3.5C14.5 2.94771 14.0523 2.5 13.5 2.5H12.5" stroke="#57965C" stroke-linecap="round"/>
<path d="M8.57081 5C7.72702 5 7.06335 5.37098 6.68265 5.99832V5.12281H5.7002V12H6.70312V9.52032C7.08689 10.1272 7.74186 10.4854 8.57081 10.4854C10.0291 10.4854 11.0474 9.36988 11.0474 7.74269C11.0474 6.1155 10.0291 5 8.57081 5ZM8.36101 9.5848C7.38367 9.5848 6.70312 8.8326 6.70312 7.74269C6.70312 6.65278 7.38367 5.90058 8.36101 5.90058C9.33324 5.90058 10.0036 6.65278 10.0036 7.74269C10.0036 8.8326 9.33324 9.5848 8.36101 9.5848Z" fill="#CED0D6"/>
</svg>
