<svg width="16" height="16" viewBox="0 0 16 16" fill="none" xmlns="http://www.w3.org/2000/svg">
<path d="M11.9985 13C12.5508 13 12.9985 12.5523 12.9985 12C12.9985 11.4477 12.5508 11 11.9985 11C11.4462 11 10.9985 11.4477 10.9985 12C10.9985 12.5523 11.4462 13 11.9985 13Z" fill="#548AF7"/>
<path fill-rule="evenodd" clip-rule="evenodd" d="M13.1201 15.6756C13.047 15.8707 12.8604 16 12.652 16H11.345C11.1366 16 10.95 15.8707 10.8768 15.6756L10.6273 15.0102C10.5434 14.7865 10.3129 14.6534 10.0771 14.6926L9.37619 14.8092C9.17059 14.8434 8.96535 14.7464 8.86114 14.5659L8.20764 13.4341C8.10342 13.2536 8.12211 13.0273 8.25453 12.8664L8.70595 12.3177C8.85779 12.1331 8.85779 11.8669 8.70595 11.6824L8.25451 11.1336C8.12209 10.9727 8.10341 10.7464 8.20762 10.5659L8.86112 9.43405C8.96533 9.25355 9.17057 9.15663 9.37617 9.19083L10.0771 9.30742C10.3129 9.34664 10.5434 9.21353 10.6273 8.98976L10.8768 8.32444C10.95 8.12929 11.1366 8 11.345 8H12.652C12.8604 8 13.047 8.12929 13.1201 8.32444L13.3696 8.98976C13.4536 9.21353 13.6841 9.34664 13.9198 9.30742L14.6208 9.19083C14.8264 9.15663 15.0316 9.25355 15.1358 9.43405L15.7893 10.5659C15.8935 10.7464 15.8749 10.9727 15.7424 11.1336L15.291 11.6824C15.1392 11.8669 15.1392 12.1331 15.291 12.3177L15.7424 12.8664C15.8748 13.0273 15.8935 13.2536 15.7893 13.4341L15.1358 14.5659C15.0316 14.7464 14.8264 14.8434 14.6208 14.8092L13.9198 14.6926C13.6841 14.6534 13.4536 14.7865 13.3696 15.0102L13.1201 15.6756ZM11.6915 15H12.3055L12.4333 14.6591C12.6851 13.9878 13.3767 13.5885 14.0839 13.7061L14.443 13.7659L14.75 13.2341L14.5188 12.953C14.0632 12.3993 14.0632 11.6007 14.5188 11.047L14.7501 10.7659L14.4431 10.2341L14.0839 10.2939C13.3767 10.4115 12.6851 10.0122 12.4333 9.34088L12.3055 9H11.6915L11.5636 9.34088C11.3119 10.0122 10.6203 10.4115 9.91303 10.2939L9.55389 10.2341L9.24689 10.7659L9.4782 11.047C9.93371 11.6007 9.93371 12.3993 9.4782 12.953L9.24691 13.2341L9.55391 13.7659L9.91303 13.7061C10.6203 13.5885 11.3119 13.9878 11.5636 14.6591L11.6915 15Z" fill="#548AF7"/>
<path fill-rule="evenodd" clip-rule="evenodd" d="M12.3086 15H11.6946L11.5668 14.6591C11.315 13.9878 10.6234 13.5885 9.91614 13.7061L9.55702 13.7659L9.25002 13.2341L9.48131 12.953C9.93681 12.3993 9.93681 11.6007 9.48131 11.047L9.25 10.7659L9.557 10.2341L9.91614 10.2939C10.6234 10.4115 11.315 10.0122 11.5668 9.34088L11.6946 9H12.3086L12.4364 9.34088C12.6882 10.0122 13.3798 10.4115 14.087 10.2939L14.4462 10.2341L14.7532 10.7659L14.5219 11.047C14.0664 11.6007 14.0664 12.3993 14.5219 12.953L14.7532 13.2341L14.4462 13.7659L14.087 13.7061C13.3798 13.5885 12.6882 13.9878 12.4364 14.6591L12.3086 15ZM13.0016 12C13.0016 12.5523 12.5539 13 12.0016 13C11.4494 13 11.0016 12.5523 11.0016 12C11.0016 11.4477 11.4494 11 12.0016 11C12.5539 11 13.0016 11.4477 13.0016 12Z" fill="#25324D"/>
<path d="M1 3.86667C1 2.83574 1.73127 2 2.63333 2H6.1217C6.39413 2 6.65477 2.11115 6.84336 2.30775L8.46667 4L13 4C14.1046 4 15 4.89543 15 6V7.99963C14.1643 7.37194 13.1256 7 12 7C9.23858 7 7 9.23858 7 12C7 12.7111 7.14845 13.3875 7.41604 14H2.63333C1.73127 14 1 13.1643 1 12.1333V3.86667Z" fill="#43454A"/>
<path d="M2.63333 3L6.1217 3L8.04022 5H13C13.5523 5 14 5.44771 14 6V7.41604C14.357 7.57202 14.6923 7.76849 15 7.99963V6C15 4.89543 14.1046 4 13 4L8.46667 4L6.84336 2.30775C6.65477 2.11115 6.39413 2 6.1217 2H2.63333C1.73127 2 1 2.83574 1 3.86667V12.1333C1 13.1643 1.73127 14 2.63333 14H7.41604C7.27732 13.6825 7.17062 13.3478 7.10002 13H2.63333C2.40481 13 2 12.7416 2 12.1333V3.86667C2 3.25841 2.40481 3 2.63333 3Z" fill="#CED0D6"/>
</svg>
