<svg width="24" height="24" viewBox="0 0 24 24" fill="none" xmlns="http://www.w3.org/2000/svg">
<path d="M23.989 11.7917C23.9856 11.6914 23.9796 11.5913 23.971 11.4913V11.4892V11.487C23.884 10.4032 23.5435 9.36076 22.9811 8.45703C22.7308 8.05126 22.4401 7.67612 22.1142 7.33829C21.6311 6.84149 21.0776 6.43077 20.4745 6.12156C19.5207 5.63801 18.478 5.39217 17.4239 5.40229C16.5557 5.39848 15.6939 5.56034 14.8782 5.88037C14.2202 6.12729 13.6046 6.48966 13.0564 6.95281C12.9422 7.05277 12.8311 7.15692 12.7235 7.26507L12.6385 7.35659L12.5215 7.49119H12.5225L12.4665 7.55041L12.4405 7.58056L12.2995 7.73884C12.1955 7.86482 12.0975 7.9908 12.0036 8.11462V8.11247L11.9996 8.10924C11.8076 8.36012 11.6296 8.62178 11.4996 8.85543C11.4106 9.00618 11.3236 9.16015 11.2407 9.3152L10.0938 11.8122L10.0958 11.8133L10.0358 11.9403L9.90983 12.216C9.65887 12.764 9.3889 13.311 9.08894 13.7611C8.41703 14.5547 7.65813 14.9434 6.68325 14.9434C6.61526 14.9434 6.54427 14.9401 6.47428 14.9348C5.88636 14.91 5.38242 14.7603 4.93548 14.475C4.51355 14.2138 4.16895 13.8293 3.94161 13.3659C3.712 12.915 3.5994 12.4058 3.61565 11.8919L3.61765 11.8553C3.64865 11.0369 3.93861 10.3995 4.52153 9.85142C4.66352 9.71791 4.8125 9.60593 4.96748 9.50686C4.98847 9.49287 5.01147 9.48102 5.03247 9.4681C5.46641 9.21291 5.95935 9.08585 6.52427 9.08585L6.70025 9.09124C7.59913 9.12785 8.29204 9.42934 8.84497 10.0205L10.5787 6.66855C10.1412 6.35683 9.67187 6.10031 9.17993 5.90406C9.16093 5.89652 9.13993 5.88683 9.11994 5.88037C9.05795 5.85668 8.99695 5.83191 8.93396 5.81038C8.37776 5.61304 7.80183 5.48726 7.21818 5.43567C7.20284 5.43358 7.18751 5.43143 7.17219 5.42921C7.0812 5.42382 6.98821 5.41198 6.89723 5.40767C6.79828 5.40357 6.69928 5.40106 6.60026 5.40014H6.54527C5.49869 5.394 4.46414 5.64051 3.51766 6.12156C2.50229 6.63943 1.63734 7.44579 1.01599 8.4538C0.346351 9.5303 -0.00756465 10.7986 0.000122622 12.0943C-0.00187712 13.7783 0.568049 15.2578 1.7009 16.5014C2.88475 17.8054 4.42155 18.5085 6.26731 18.5914C6.38529 18.5968 6.50228 18.6 6.62026 18.6C7.66513 18.6 8.631 18.3997 9.49789 17.9992C9.71486 17.8991 9.92483 17.7828 10.1398 17.6525C10.2568 17.5803 10.3678 17.5028 10.4778 17.421L10.5577 17.3618L10.6947 17.2616C10.8587 17.1346 11.0117 16.9967 11.1617 16.8514L11.2137 16.7975C11.3017 16.7082 11.3896 16.6166 11.4726 16.523L11.7836 16.144L11.9016 15.9846L11.9576 15.8974L12.0126 15.8123C12.4745 14.9768 13.9773 11.9349 13.9773 11.9349V11.9285L14.0673 11.7433L14.1413 11.5979C14.3633 11.164 14.5232 10.856 14.7352 10.5319L14.7412 10.5212C15.2341 9.74913 16.085 9.19999 17.0869 9.10739C18.7667 8.95126 20.2385 10.14 20.3735 11.7616C20.5085 13.3842 19.2566 14.826 17.5758 14.9821C17.2376 15.0134 16.8969 14.9902 16.565 14.9132L16.556 14.9165C15.3241 14.6397 14.5392 13.6728 14.1523 13.2389L12.5355 16.4411C12.5355 16.4411 13.0384 16.986 13.3824 17.2584C13.7283 17.5308 14.1733 17.7978 14.5282 17.9647C15.424 18.3825 16.3897 18.5984 17.3659 18.5989C17.4868 18.5989 17.4629 18.5989 17.5878 18.5936C19.4316 18.5107 21.0764 17.7494 22.2622 16.4454C23.3851 15.2072 23.995 13.7934 24 12.1191V12.0685L23.989 11.7917Z" fill="#4682FA"/>
</svg>
