<svg width="16" height="16" viewBox="0 0 16 16" fill="none" xmlns="http://www.w3.org/2000/svg">
<g clip-path="url(#clip0_13262_13987)">
<path fill-rule="evenodd" clip-rule="evenodd" d="M12.5 9C12.7761 9 13 9.22386 13 9.5V12H15.5C15.7761 12 16 12.2239 16 12.5C16 12.7761 15.7761 13 15.5 13H13V15.5C13 15.7761 12.7761 16 12.5 16C12.2239 16 12 15.7761 12 15.5V13H9.5C9.22386 13 9 12.7761 9 12.5C9 12.2239 9.22386 12 9.5 12H12V9.5C12 9.22386 12.2239 9 12.5 9Z" fill="#548AF7"/>
<path fill-rule="evenodd" clip-rule="evenodd" d="M3 2C1.89543 2 1 2.89543 1 4V12C1 13.1046 1.89543 14 3 14H8V13H6V6H10V11H11V6H14V8H15V4C15 2.89543 14.1046 2 13 2H3ZM10 3H6V5H10V3ZM3 3H5V5H2V4C2 3.44772 2.44772 3 3 3ZM2 12V6H5V13H3C2.44772 13 2 12.5523 2 12ZM14 4V5H11V3H13C13.5523 3 14 3.44772 14 4Z" fill="#CED0D6"/>
</g>
<defs>
<clipPath id="clip0_13262_13987">
<rect width="16" height="16" fill="white"/>
</clipPath>
</defs>
</svg>
