<svg width="16" height="16" viewBox="0 0 16 16" fill="none" xmlns="http://www.w3.org/2000/svg">
<path fill-rule="evenodd" clip-rule="evenodd" d="M12.5 9C12.7761 9 13 9.22386 13 9.5V12H15.5C15.7761 12 16 12.2239 16 12.5C16 12.7761 15.7761 13 15.5 13H13V15.5C13 15.7761 12.7761 16 12.5 16C12.2239 16 12 15.7761 12 15.5V13H9.5C9.22386 13 9 12.7761 9 12.5C9 12.2239 9.22386 12 9.5 12H12V9.5C12 9.22386 12.2239 9 12.5 9Z" fill="#3574F0"/>
<path d="M1 2.5C1 2.22386 1.22386 2 1.5 2H14.5C14.7761 2 15 2.22386 15 2.5C15 2.77614 14.7761 3 14.5 3H1.5C1.22386 3 1 2.77614 1 2.5Z" fill="#6C707E"/>
<path d="M5.27461 10.2938L7.70136 8.06252C7.93369 7.84718 8.10227 7.64035 8.20711 7.44202C8.31477 7.24085 8.36861 7.02835 8.36861 6.80452C8.36861 6.59202 8.32044 6.4036 8.22411 6.23927C8.12777 6.07493 7.99177 5.94743 7.81611 5.85677C7.64327 5.7661 7.44352 5.72077 7.21686 5.72077C6.97602 5.72077 6.76069 5.77318 6.57086 5.87802C6.38386 5.98002 6.23652 6.1231 6.12886 6.30727C6.02402 6.49143 5.97161 6.70252 5.97161 6.94052H5.10886C5.10886 6.56085 5.20094 6.22085 5.38511 5.92052C5.56927 5.61735 5.82286 5.37935 6.14586 5.20652C6.46886 5.03368 6.83152 4.94727 7.23386 4.94727C7.61352 4.94727 7.95636 5.02518 8.26236 5.18102C8.57119 5.33685 8.81202 5.55077 8.98486 5.82277C9.16052 6.09477 9.24836 6.40076 9.24836 6.74077C9.24836 7.0666 9.16336 7.3811 8.99336 7.68427C8.82336 7.9846 8.55561 8.30052 8.19011 8.63202L6.48161 10.2173H9.41411V10.9993H5.27461V10.2938Z" fill="#6C707E"/>
<path d="M14 10.5608C14.1272 10.4487 14.2369 10.3214 14.3291 10.179C14.5161 9.89002 14.6096 9.56135 14.6096 9.19302C14.6096 8.81902 14.5161 8.48752 14.3291 8.19852C14.1421 7.90668 13.8828 7.68143 13.5513 7.52277C13.2994 7.40117 13.0209 7.32866 12.7158 7.30524L14.3971 5.72927V5.04927H10.5976V5.79302H13.3473L11.7366 7.31452V7.98177H12.4208C12.5991 7.98177 12.7639 8.00725 12.9152 8.05821C13.5417 8.2383 14 8.81563 14 9.5V10.5608Z" fill="#6C707E"/>
<path d="M11 10.6701V9.5C11 9.43193 11.0045 9.36493 11.0133 9.29927H10.2703C10.2817 9.64777 10.3822 9.95943 10.5721 10.2343C10.6893 10.4023 10.832 10.5475 11 10.6701Z" fill="#6C707E"/>
<path d="M8.08535 13C8.29127 13.5826 8.84689 14 9.5 14H1.5C1.22386 14 1 13.7761 1 13.5C1 13.2239 1.22386 13 1.5 13H8.08535Z" fill="#6C707E"/>
<path d="M1.29297 6.67702H2.70822V10.9993H3.56672V5.04927H2.94197C2.94197 5.23627 2.90655 5.39918 2.83572 5.53802C2.76489 5.67402 2.66289 5.78027 2.52972 5.85677C2.39655 5.93043 2.24072 5.96727 2.06222 5.96727H1.29297V6.67702Z" fill="#6C707E"/>
</svg>
