<svg width="16" height="16" viewBox="0 0 16 16" fill="none" xmlns="http://www.w3.org/2000/svg">
<path d="M12 1C11.4477 1 11 1.44772 11 2V4C11 4.55228 11.4477 5 12 5H14C14.5523 5 15 4.55228 15 4V2C15 1.44772 14.5523 1 14 1H12Z" fill="#F7F8FA"/>
<path d="M1 7C1 6.44772 1.44772 6 2 6H4C4.55228 6 5 6.44772 5 7V9C5 9.55228 4.55228 10 4 10H2C1.44772 10 1 9.55228 1 9V7Z" fill="#F7F8FA"/>
<path d="M2 11C1.44772 11 1 11.4477 1 12V14C1 14.5523 1.44772 15 2 15H4C4.55228 15 5 14.5523 5 14V12C5 11.4477 4.55228 11 4 11H2Z" fill="#F7F8FA"/>
<path d="M6 12C6 11.4477 6.44772 11 7 11H8.25606C8.09023 11.4692 8 11.974 8 12.5C8 13.4251 8.27914 14.285 8.75777 15H7C6.44772 15 6 14.5523 6 14V12Z" fill="#F7F8FA"/>
<path d="M15 8.75777V7C15 6.44772 14.5523 6 14 6H12C11.4477 6 11 6.44772 11 7V8.25606C11.4692 8.09023 11.974 8 12.5 8C13.4251 8 14.285 8.27914 15 8.75777Z" fill="#F7F8FA"/>
<path d="M10 8.75777V7C10 6.44772 9.55228 6 9 6H7C6.44772 6 6 6.44772 6 7V9C6 9.55228 6.44772 10 7 10H8.75777C9.0864 9.50906 9.50906 9.0864 10 8.75777Z" fill="#F7F8FA"/>
<path fill-rule="evenodd" clip-rule="evenodd" d="M11 2C11 1.44772 11.4477 1 12 1H14C14.5523 1 15 1.44772 15 2V4C15 4.55228 14.5523 5 14 5H12C11.4477 5 11 4.55228 11 4V2ZM12 2H14V4H12V2Z" fill="#6C707E"/>
<path fill-rule="evenodd" clip-rule="evenodd" d="M2 6C1.44772 6 1 6.44772 1 7V9C1 9.55228 1.44772 10 2 10H4C4.55228 10 5 9.55228 5 9V7C5 6.44772 4.55228 6 4 6H2ZM4 7H2V9H4V7Z" fill="#6C707E"/>
<path fill-rule="evenodd" clip-rule="evenodd" d="M1 12C1 11.4477 1.44772 11 2 11H4C4.55228 11 5 11.4477 5 12V14C5 14.5523 4.55228 15 4 15H2C1.44772 15 1 14.5523 1 14V12ZM2 12H4V14H2V12Z" fill="#6C707E"/>
<path d="M7 11C6.44772 11 6 11.4477 6 12V14C6 14.5523 6.44772 15 7 15H8.75777C8.55127 14.6915 8.3819 14.356 8.25606 14H7V12H8.02746C8.06579 11.6533 8.14352 11.3184 8.25606 11H7Z" fill="#6C707E"/>
<path fill-rule="evenodd" clip-rule="evenodd" d="M10 8.75777C9.50906 9.0864 9.0864 9.50906 8.75777 10H7C6.44772 10 6 9.55228 6 9V7C6 6.44772 6.44772 6 7 6H9C9.55228 6 10 6.44772 10 7V8.75777ZM9 7H7V9H9V7Z" fill="#6C707E"/>
<path d="M15 8.75777V7C15 6.44772 14.5523 6 14 6H12C11.4477 6 11 6.44772 11 7V8.25606C11.3184 8.14352 11.6533 8.06579 12 8.02746V7H14V8.25606C14.356 8.3819 14.6915 8.55127 15 8.75777Z" fill="#6C707E"/>
<rect x="9" y="9" width="7" height="7" rx="3" fill="white"/>
<path fill-rule="evenodd" clip-rule="evenodd" d="M12.5 16C14.433 16 16 14.433 16 12.5C16 10.567 14.433 9 12.5 9C10.567 9 9 10.567 9 12.5C9 14.433 10.567 16 12.5 16ZM13 10.5C13 10.2239 12.7761 10 12.5 10C12.2239 10 12 10.2239 12 10.5V12.5C12 12.6326 12.0527 12.7598 12.1464 12.8536L13.5607 14.2678C13.7559 14.463 14.0725 14.463 14.2678 14.2678C14.463 14.0725 14.463 13.7559 14.2678 13.5607L13 12.2929V10.5Z" fill="#4682FA"/>
</svg>
