<svg width="20" height="20" viewBox="0 0 20 20" fill="none" xmlns="http://www.w3.org/2000/svg">
<path fill-rule="evenodd" clip-rule="evenodd" d="M11 5.5C11 7.433 9.433 9 7.5 9C5.567 9 4 7.433 4 5.5C4 3.567 5.567 2 7.5 2C9.433 2 11 3.567 11 5.5ZM9.5 5.5C9.5 6.60457 8.60457 7.5 7.5 7.5C6.39543 7.5 5.5 6.60457 5.5 5.5C5.5 4.39543 6.39543 3.5 7.5 3.5C8.60457 3.5 9.5 4.39543 9.5 5.5Z" fill="#6C707E"/>
<path fill-rule="evenodd" clip-rule="evenodd" d="M1.92363 17H13.076C13.6337 17 14.0757 16.5463 13.9891 15.996C13.684 14.0578 12.4532 9.99076 7.49638 10C2.54136 10.0093 1.31428 14.0636 1.01082 15.997C0.924499 16.5469 1.36639 17 1.92363 17ZM11.2955 13.1804C11.8489 13.9014 12.1725 14.7568 12.3579 15.5H2.64213C2.82684 14.76 3.14929 13.9085 3.70103 13.1895C4.39246 12.2884 5.50545 11.5037 7.49918 11.5C9.49123 11.4963 10.6035 12.2787 11.2955 13.1804Z" fill="#6C707E"/>
<path d="M11.2734 8.7794C11.6549 8.92202 12.0679 9 12.4991 9C14.4321 9 15.9991 7.433 15.9991 5.5C15.9991 3.567 14.4321 2 12.4991 2C12.0679 2 11.6549 2.07798 11.2734 2.22059C11.6135 2.6117 11.8939 3.05617 12.1002 3.53979C12.2291 3.5137 12.3625 3.5 12.4991 3.5C13.6036 3.5 14.4991 4.39543 14.4991 5.5C14.4991 6.60457 13.6036 7.5 12.4991 7.5C12.3625 7.5 12.2291 7.4863 12.1002 7.46021C11.8939 7.94383 11.6135 8.3883 11.2734 8.7794Z" fill="#6C707E"/>
<path d="M13.8898 11.6467C13.8214 11.5485 13.7502 11.451 13.6761 11.3544C13.2972 10.8607 12.8488 10.4015 12.3242 10.002C12.3808 10.0008 12.4378 10.0001 12.4954 10C17.4523 9.99076 18.6831 14.0578 18.9882 15.996C19.0748 16.5463 18.6327 17 18.0751 17H15.3395C15.4862 16.6342 15.5413 16.2162 15.4699 15.7627C15.4567 15.6792 15.442 15.5915 15.4254 15.5H17.3569C17.1715 14.7568 16.8479 13.9014 16.2946 13.1804C15.7836 12.5147 15.0437 11.914 13.8898 11.6467Z" fill="#6C707E"/>
</svg>
