<svg width="13" height="13" viewBox="0 0 13 13" fill="none" xmlns="http://www.w3.org/2000/svg">
<circle cx="6.5" cy="6.5" r="6.5" fill="#F7F8FA"/>
<path fill-rule="evenodd" clip-rule="evenodd" d="M3.85355 3.14645C3.65829 2.95118 3.34171 2.95118 3.14645 3.14645C2.95118 3.34171 2.95118 3.65829 3.14645 3.85355L3.45459 4.16169C3.18091 4.34012 3 4.64893 3 5V8C3 8.55228 3.44772 9 4 9H7C7.35107 9 7.65988 8.81909 7.83831 8.54541L9.14645 9.85355C9.34171 10.0488 9.65829 10.0488 9.85355 9.85355C10.0488 9.65829 10.0488 9.34171 9.85355 9.14645L6.85355 6.14645L3.85355 3.14645ZM7 7.70711L4.29289 5H4L4 8H7V7.70711Z" fill="#DB3B4B"/>
<path d="M10 4.80924V7.87861L9 6.87861V5.61826L8.15977 6.03837L6.12139 4H7C7.55228 4 8 4.44772 8 5L9.27639 4.36203C9.60884 4.1958 10 4.43755 10 4.80924Z" fill="#DB3B4B"/>
</svg>
