<svg width="16" height="16" viewBox="0 0 16 16" fill="none" xmlns="http://www.w3.org/2000/svg">
<path d="M10.7107 14.7107C10.4697 14.1134 10.3074 13.3479 10.2611 12.5H9.03906C9.20335 13.4792 9.84203 14.2976 10.7107 14.7107Z" fill="#43454A"/>
<path d="M11.6763 14.4276C11.4696 13.955 11.311 13.285 11.2628 12.5H12.7324C12.6842 13.285 12.5256 13.955 12.3189 14.4276C12.2001 14.6991 12.083 14.8652 11.9976 14.9529C11.9122 14.8652 11.7951 14.6991 11.6763 14.4276Z" fill="#43454A"/>
<path d="M11.6763 9.57238C11.4696 10.0449 11.311 10.715 11.2628 11.5H12.7324C12.6842 10.715 12.5256 10.0449 12.3189 9.57238C12.2001 9.30087 12.083 9.13482 11.9976 9.04712C11.9122 9.13482 11.7951 9.30087 11.6763 9.57238Z" fill="#43454A"/>
<path d="M13.2845 14.7107C13.5254 14.1134 13.6878 13.3479 13.734 12.5H14.9561C14.7918 13.4792 14.1531 14.2976 13.2845 14.7107Z" fill="#43454A"/>
<path d="M13.734 11.5H14.9561C14.7918 10.5207 14.1531 9.70236 13.2845 9.28924C13.5254 9.88657 13.6878 10.6521 13.734 11.5Z" fill="#43454A"/>
<path d="M9.03906 11.5H10.2611C10.3074 10.6521 10.4697 9.88657 10.7107 9.28924C9.84203 9.70236 9.20335 10.5207 9.03906 11.5Z" fill="#43454A"/>
<path fill-rule="evenodd" clip-rule="evenodd" d="M16 12C16 9.79086 14.2091 8 12 8C9.79086 8 8 9.79086 8 12C8 14.2091 9.79086 16 12 16C14.2091 16 16 14.2091 16 12ZM10.2635 12.5C10.3098 13.3479 10.4722 14.1134 10.7131 14.7107C9.84445 14.2976 9.20577 13.4792 9.04148 12.5H10.2635ZM11.2652 12.5C11.3134 13.285 11.472 13.955 11.6787 14.4276C11.7975 14.6991 11.9146 14.8652 12 14.9529C12.0854 14.8652 12.2025 14.6991 12.3213 14.4276C12.528 13.955 12.6866 13.285 12.7348 12.5H11.2652ZM12.7348 11.5H11.2652C11.3134 10.715 11.472 10.045 11.6787 9.57239C11.7975 9.30089 11.9146 9.13483 12 9.04713C12.0854 9.13483 12.2025 9.30089 12.3213 9.57239C12.528 10.045 12.6866 10.715 12.7348 11.5ZM13.7365 12.5C13.6902 13.3479 13.5278 14.1134 13.2869 14.7107C14.1556 14.2976 14.7942 13.4792 14.9585 12.5H13.7365ZM14.9585 11.5H13.7365C13.6902 10.6521 13.5278 9.88659 13.2869 9.28925C14.1556 9.70237 14.7942 10.5208 14.9585 11.5ZM10.2635 11.5H9.04148C9.20577 10.5208 9.84445 9.70237 10.7131 9.28925C10.4722 9.88659 10.3098 10.6521 10.2635 11.5Z" fill="#CED0D6"/>
<path d="M10.272 3.37897L3.375 3.37297L7.926 1.19097C8.47 0.935969 9.134 0.82897 9.878 1.57297L12.016 3.71097C11.6815 3.37649 11.1601 3.3777 10.5295 3.37916C10.4455 3.37936 10.3596 3.37956 10.272 3.37897Z" fill="#29B6F6"/>
<path d="M8.46566 8.46425L3.375 3.37297L3.381 10.271C3.38159 10.3587 3.38139 10.4445 3.38119 10.5285C3.37973 11.1591 3.37852 11.6805 3.713 12.014L4.22266 12.5259L6.69666 14.9999L8.00055 14.9999C7.3729 14.1643 7.00098 13.1256 7.00098 12C7.00098 10.6192 7.56071 9.36909 8.46566 8.46425Z" fill="#29B6F6"/>
<path d="M3.37328 3.37354L3.37928 10.2715C3.37987 10.3592 3.37967 10.445 3.37948 10.529C3.37801 11.1594 3.37681 11.6801 3.71128 12.0145L1.57328 9.87654C0.828284 9.13253 0.936284 8.46854 1.19128 7.92554L3.37328 3.37354Z" fill="#01579B"/>
<path d="M15.0006 8.00008L15.0008 6.69674L12.5258 4.22274L12.0148 3.71074C11.6803 3.37626 11.1597 3.37747 10.5292 3.37893C10.4453 3.37912 10.3594 3.37932 10.2718 3.37874L3.37328 3.37354L8.46441 8.46452C9.36924 7.55967 10.6193 7 12 7C13.1259 7 14.1648 7.37212 15.0006 8.00008Z" fill="#01579B"/>
</svg>
