<svg width="16" height="16" viewBox="0 0 16 16" fill="none" xmlns="http://www.w3.org/2000/svg">
<path d="M14.0061 10.3483L15.2259 9.6441C14.906 9.20557 14.4966 8.82172 13.9955 8.53272C12.2162 7.50672 9.99192 8.0127 8.79492 9.62145C8.79492 9.62145 11.0406 6.99853 14.0061 10.3483Z" fill="#3574F0"/>
<path d="M12.5429 14.5516L12.5427 15.958C13.7268 15.7955 14.8293 15.1242 15.4731 14.0105C16.1094 12.9098 16.145 11.6382 15.7104 10.54C15.7104 10.54 16.5728 13.9321 12.5429 14.5516Z" fill="#3574F0"/>
<path d="M8.34842 10.396L9.56889 11.099C8.14718 15.339 11.5443 15.97 11.5443 15.97C9.55087 15.739 8 14.068 8 12.016C8 11.438 8.12815 10.892 8.34842 10.396Z" fill="#3574F0"/>
<path d="M1 3.86667C1 2.83574 1.73127 2 2.63333 2H6.1217C6.39413 2 6.65477 2.11115 6.84336 2.30775L8.46667 4L13 4C14.1046 4 15 4.89543 15 6V7.99963C14.1643 7.37194 13.1256 7 12 7C9.23858 7 7 9.23858 7 12C7 12.7111 7.14845 13.3875 7.41604 14H2.63333C1.73127 14 1 13.1643 1 12.1333V3.86667Z" fill="#EBECF0"/>
<path d="M6.1217 3L2.63333 3C2.40481 3 2 3.25841 2 3.86667V12.1333C2 12.7416 2.40481 13 2.63333 13H7.10002C7.17062 13.3478 7.27732 13.6825 7.41604 14H2.63333C1.73127 14 1 13.1643 1 12.1333V3.86667C1 2.83574 1.73127 2 2.63333 2H6.1217C6.39413 2 6.65477 2.11115 6.84336 2.30775L8.46667 4L13 4C14.1046 4 15 4.89543 15 6V7.99963C14.6923 7.76849 14.357 7.57202 14 7.41604V6C14 5.44771 13.5523 5 13 5H8.04022L6.1217 3Z" fill="#6C707E"/>
</svg>
