<svg width="16" height="16" viewBox="0 0 16 16" fill="none" xmlns="http://www.w3.org/2000/svg">
<path fill-rule="evenodd" clip-rule="evenodd" d="M2.01664 3.39246H2V12.5184H2.00263C2.03051 12.9621 2.2768 13.3344 2.59694 13.6237C2.9371 13.9312 3.40129 14.1852 3.93236 14.3882C4.76617 14.707 5.82819 14.9242 7 15.0036V14.0011C5.93651 13.9236 4.99918 13.7255 4.28947 13.4542C3.82523 13.2767 3.48396 13.0775 3.2675 12.8819C3.05102 12.6862 3 12.5341 3 12.4343V10.985C3.27236 11.1599 3.58833 11.3128 3.93236 11.4444C4.76617 11.7632 5.82819 11.9803 7 12.0597V11.0573C5.93651 10.9798 4.99918 10.7817 4.28947 10.5103C3.82523 10.3328 3.48396 10.1337 3.2675 9.93804C3.05102 9.74236 3 9.59029 3 9.49048V8.04112C3.27236 8.21609 3.58833 8.369 3.93236 8.50053C4.99792 8.90791 6.43619 9.14938 8 9.14938C9.56381 9.14938 11.0021 8.90791 12.0676 8.50053C12.1255 8.4784 12.1826 8.45567 12.2388 8.43233C12.5706 7.73084 13.2192 7.2085 14 7.05001V3.39246H13.9834C13.9213 3.00405 13.6924 2.67483 13.4031 2.41334C13.0629 2.10586 12.5987 1.85189 12.0676 1.64885C11.0021 1.24147 9.56381 1 8 1C6.43619 1 4.99792 1.24147 3.93236 1.64885C3.40129 1.85189 2.9371 2.10586 2.59694 2.41334C2.30765 2.67483 2.07865 3.00405 2.01664 3.39246ZM3.2675 3.15519C3.05102 3.35087 3 3.50293 3 3.60275C3 3.70256 3.05102 3.85463 3.2675 4.05031C3.48396 4.24597 3.82523 4.4451 4.28947 4.62258C5.21452 4.97625 6.52624 5.2055 8 5.2055C9.47376 5.2055 10.7855 4.97625 11.7105 4.62258C12.1748 4.4451 12.516 4.24597 12.7325 4.05031C12.949 3.85463 13 3.70256 13 3.60275C13 3.50293 12.949 3.35087 12.7325 3.15519C12.516 2.95953 12.1748 2.7604 11.7105 2.58291C10.7855 2.22925 9.47376 2 8 2C6.52624 2 5.21452 2.22925 4.28947 2.58291C3.82523 2.7604 3.48396 2.95953 3.2675 3.15519ZM3 5.09723V6.54663C3 6.64645 3.05102 6.79851 3.2675 6.99419C3.48396 7.18985 3.82523 7.38898 4.28947 7.56647C5.21452 7.92013 6.52624 8.14938 8 8.14938C9.47376 8.14938 10.7855 7.92013 11.7105 7.56647C12.1748 7.38898 12.516 7.18985 12.7325 6.99419C12.949 6.79851 13 6.64645 13 6.54663V5.09723C12.7276 5.27221 12.4117 5.42512 12.0676 5.55665C11.0021 5.96403 9.56381 6.2055 8 6.2055C6.43619 6.2055 4.99792 5.96403 3.93236 5.55665C3.58833 5.42512 3.27236 5.27221 3 5.09723Z" fill="#6C707E"/>
<path fill-rule="evenodd" clip-rule="evenodd" d="M14.5 11C15.3284 11 16 10.3284 16 9.5C16 8.67157 15.3284 8 14.5 8C13.6716 8 13 8.67157 13 9.5C13 9.56274 13.0039 9.62458 13.0113 9.6853L10.5413 10.9203C10.2715 10.6601 9.90445 10.5 9.5 10.5C8.67157 10.5 8 11.1716 8 12C8 12.8284 8.67157 13.5 9.5 13.5C9.90445 13.5 10.2715 13.3399 10.5413 13.0797L13.0113 14.3147C13.0039 14.3754 13 14.4373 13 14.5C13 15.3284 13.6716 16 14.5 16C15.3284 16 16 15.3284 16 14.5C16 13.6716 15.3284 13 14.5 13C14.0955 13 13.7285 13.1601 13.4587 13.4203L10.9887 12.1853C10.9961 12.1246 11 12.0627 11 12C11 11.9372 10.9961 11.8754 10.9887 11.8147L13.4587 10.5797C13.7285 10.8399 14.0955 11 14.5 11ZM10 12C10 12.2761 9.77614 12.5 9.5 12.5C9.22386 12.5 9 12.2761 9 12C9 11.7239 9.22386 11.5 9.5 11.5C9.77614 11.5 10 11.7239 10 12ZM15 9.5C15 9.77614 14.7761 10 14.5 10C14.2239 10 14 9.77614 14 9.5C14 9.22386 14.2239 9 14.5 9C14.7761 9 15 9.22386 15 9.5ZM15 14.5C15 14.7761 14.7761 15 14.5 15C14.2239 15 14 14.7761 14 14.5C14 14.2239 14.2239 14 14.5 14C14.7761 14 15 14.2239 15 14.5Z" fill="#3574F0"/>
</svg>
