<svg width="16" height="16" viewBox="0 0 16 16" fill="none" xmlns="http://www.w3.org/2000/svg">
<path fill-rule="evenodd" clip-rule="evenodd" d="M10.98 6.9922C9.484 6.9922 8.5 5.7362 8.5 4.1122V4.0962C8.5 2.4722 9.508 1.2002 10.996 1.2002C12.476 1.2002 13.476 2.4562 13.476 4.0802V4.0962C13.476 5.7202 12.476 6.9922 10.98 6.9922ZM11.002 5.88019C11.746 5.88019 12.218 5.12819 12.218 4.1122V4.09619C12.218 3.08019 11.722 2.31219 10.986 2.31219C10.25 2.31219 9.76999 3.05619 9.76999 4.08019V4.09619C9.76999 5.12019 10.258 5.88019 11.002 5.88019Z" fill="#CED0D6"/>
<path fill-rule="evenodd" clip-rule="evenodd" d="M4.98 14.7922C3.484 14.7922 2.5 13.5362 2.5 11.9122V11.8962C2.5 10.2722 3.508 9.00018 4.996 9.00018C6.476 9.00018 7.476 10.2562 7.476 11.8802V11.8962C7.476 13.5202 6.476 14.7922 4.98 14.7922ZM5.00199 13.6802C5.74599 13.6802 6.21799 12.9282 6.21799 11.9122V11.8962C6.21799 10.8802 5.72199 10.1122 4.98599 10.1122C4.24999 10.1122 3.76999 10.8562 3.76999 11.8802V11.8962C3.76999 12.9202 4.25799 13.6802 5.00199 13.6802Z" fill="#CED0D6"/>
<path d="M6.90999 6.09219H5.85798V1.35156H5.01798L3.08252 1.97261L3.33852 2.88606L4.64198 2.50501V6.09219H3.40999V6.99219H6.90999V6.09219Z" fill="#CED0D6"/>
<path d="M11.8621 13.7409H12.9141V14.6409H9.41406V13.7409H10.6461V10.1537L9.3426 10.5347L9.0866 9.62129L11.0221 9.00024H11.8621V13.7409Z" fill="#CED0D6"/>
</svg>
