<svg width="16" height="16" viewBox="0 0 16 16" fill="none" xmlns="http://www.w3.org/2000/svg">
<g clip-path="url(#clip0_10609_9850)">
<path d="M0 10C0 9.44772 0.447715 9 1 9H15C15.5523 9 16 9.44772 16 10V15C16 15.5523 15.5523 16 15 16H1C0.447715 16 0 15.5523 0 15V10Z" fill="#6C707E"/>
<path d="M2.5 10.5V14.5H4C4.82843 14.5 5.5 13.8284 5.5 13V12C5.5 11.1716 4.82843 10.5 4 10.5H2.5Z" stroke="#F7F8FA"/>
<path d="M7.5 10.5V14.5H9C9.82843 14.5 10.5 13.8284 10.5 13V12C10.5 11.1716 9.82843 10.5 9 10.5H7.5Z" stroke="#F7F8FA"/>
<path d="M12.5 10V14.5H15" stroke="#F7F8FA"/>
<path fill-rule="evenodd" clip-rule="evenodd" d="M2.01664 3.39246H2V8H5.99845C5.34648 7.89817 4.76655 7.74886 4.28947 7.56647C3.82523 7.38898 3.48396 7.18985 3.2675 6.99419C3.05102 6.79851 3 6.64645 3 6.54663V5.09723C3.27236 5.27221 3.58833 5.42512 3.93236 5.55665C4.99792 5.96403 6.43619 6.2055 8 6.2055C9.56381 6.2055 11.0021 5.96403 12.0676 5.55665C12.4117 5.42512 12.7276 5.27221 13 5.09723V6.54663C13 6.64645 12.949 6.79851 12.7325 6.99419C12.516 7.18985 12.1748 7.38898 11.7105 7.56647C11.2335 7.74886 10.6535 7.89817 10.0016 8H14V3.39246H13.9834C13.9213 3.00405 13.6924 2.67483 13.4031 2.41334C13.0629 2.10586 12.5987 1.85189 12.0676 1.64885C11.0021 1.24147 9.56381 1 8 1C6.43619 1 4.99792 1.24147 3.93236 1.64885C3.40129 1.85189 2.9371 2.10586 2.59694 2.41334C2.30765 2.67483 2.07865 3.00405 2.01664 3.39246ZM3.2675 3.15519C3.05102 3.35087 3 3.50293 3 3.60275C3 3.70256 3.05102 3.85463 3.2675 4.05031C3.48396 4.24597 3.82523 4.4451 4.28947 4.62258C5.21452 4.97625 6.52624 5.2055 8 5.2055C9.47376 5.2055 10.7855 4.97625 11.7105 4.62258C12.1748 4.4451 12.516 4.24597 12.7325 4.05031C12.949 3.85463 13 3.70256 13 3.60275C13 3.50293 12.949 3.35087 12.7325 3.15519C12.516 2.95953 12.1748 2.7604 11.7105 2.58291C10.7855 2.22925 9.47376 2 8 2C6.52624 2 5.21452 2.22925 4.28947 2.58291C3.82523 2.7604 3.48396 2.95953 3.2675 3.15519Z" fill="#6C707E"/>
</g>
<defs>
<clipPath id="clip0_10609_9850">
<rect width="16" height="16" fill="white"/>
</clipPath>
</defs>
</svg>
