<svg width="16" height="16" viewBox="0 0 16 16" fill="none" xmlns="http://www.w3.org/2000/svg">
<path d="M2 4C2 2.89543 2.89543 2 4 2H12C13.1046 2 14 2.89543 14 4V10C14 11.1046 13.1046 12 12 12H8V11.9695L8.33189 11.7482C9.02118 11.2887 9.20744 10.3574 8.74792 9.66811C8.33283 9.04548 7.53282 8.83329 6.87394 9.13675C6.50319 7.90068 5.35678 7 4 7C3.23165 7 2.53076 7.28885 2 7.76389V4Z" fill="#43454A"/>
<path d="M2 4C2 2.89543 2.89543 2 4 2H12C13.1046 2 14 2.89543 14 4V10C14 11.1046 13.1046 12 12 12H8V11.9695L8.33189 11.7482C8.61269 11.561 8.81002 11.2955 8.9142 11H12C12.5523 11 13 10.5523 13 10V4C13 3.44772 12.5523 3 12 3L4 3C3.44771 3 3 3.44772 3 4V7.17071C2.62738 7.30241 2.28855 7.50564 2 7.76389V4Z" fill="#CED0D6"/>
<path d="M8 13H11.5C11.7761 13 12 13.2238 12 13.5C12 13.7761 11.7761 14 11.5 14H8V13Z" fill="#CED0D6"/>
<path d="M6 10C6 10.0847 5.99475 10.1682 5.9845 10.2501C5.45569 9.78326 4.76086 9.5 4 9.5C3.23914 9.5 2.54431 9.78326 2.0155 10.2501C2.00525 10.1682 2 10.0847 2 10C2 8.89545 2.89539 8 4 8C5.10461 8 6 8.89545 6 10Z" fill="#253627"/>
<path d="M6 12.5C6 11.3954 5.10461 10.5 4 10.5C2.89539 10.5 2 11.3954 2 12.5V13C2 14.1046 2.89539 15 4 15C5.10461 15 6 14.1046 6 13V12.5Z" fill="#253627"/>
<path fill-rule="evenodd" clip-rule="evenodd" d="M5.99999 10C5.99999 10.0847 5.99474 10.1682 5.98449 10.2501C6.12365 10.373 6.25146 10.5086 6.36584 10.6552L7.22265 10.084C7.45251 9.93079 7.76293 9.99286 7.91613 10.2227C8.06921 10.4524 8.0072 10.7628 7.77734 10.916L6.84277 11.5391C6.9447 11.8408 6.99999 12.1639 6.99999 12.5V13C6.99999 13.4863 6.88427 13.9456 6.67895 14.3517L7.77734 15.084C8.0072 15.2371 8.06921 15.5476 7.91613 15.7773C7.76293 16.0071 7.45251 16.0692 7.22265 15.916L6.08471 15.1573C5.54492 15.679 4.80993 16 3.99999 16C3.19006 16 2.45507 15.679 1.91528 15.1573L0.777337 15.916C0.547601 16.0692 0.237176 16.0071 0.0839776 15.7773C-0.0690985 15.5476 -0.00708681 15.2371 0.22265 15.084L1.32104 14.3517C1.11572 13.9456 0.999993 13.4863 0.999993 13V12.5C0.999993 12.1639 1.05529 11.8408 1.15722 11.5391L0.22265 10.916C-0.00708681 10.7628 -0.0690985 10.4524 0.0839776 10.2227C0.237176 9.99286 0.547601 9.93079 0.777337 10.084L1.63415 10.6552C1.74853 10.5086 1.87634 10.373 2.0155 10.2501C2.00524 10.1682 1.99999 10.0847 1.99999 10C1.99999 8.89545 2.89538 8 3.99999 8C5.10461 8 5.99999 8.89545 5.99999 10ZM2.39172 14.189C2.39697 14.196 2.40222 14.2031 2.40746 14.2101C2.77282 14.6901 3.35021 15 3.99999 15C4.65099 15 5.22924 14.689 5.59448 14.2075C5.5985 14.2021 5.60253 14.1968 5.60656 14.1915C5.85375 13.8587 5.99999 13.4464 5.99999 13V12.5C5.99999 11.3954 5.10461 10.5 3.99999 10.5C2.89538 10.5 1.99999 11.3954 1.99999 12.5V13C1.99999 13.4453 2.14562 13.8566 2.39172 14.189ZM3.06323 9.64911C3.20532 9.2699 3.57116 9 3.99999 9C4.42883 9 4.79467 9.2699 4.93676 9.64911C4.64196 9.55231 4.32714 9.5 3.99999 9.5C3.67284 9.5 3.35803 9.55231 3.06323 9.64911Z" fill="#57965C"/>
</svg>
