<svg width="16" height="16" viewBox="0 0 16 16" fill="none" xmlns="http://www.w3.org/2000/svg">
<path fill-rule="evenodd" clip-rule="evenodd" d="M10.1464 10.1464C10.3417 9.95118 10.6583 9.95118 10.8536 10.1464L13 12.2929L15.1464 10.1464C15.3417 9.95118 15.6583 9.95118 15.8536 10.1464C16.0488 10.3417 16.0488 10.6583 15.8536 10.8536L13.7071 13L15.8536 15.1464C16.0488 15.3417 16.0488 15.6583 15.8536 15.8536C15.6583 16.0488 15.3417 16.0488 15.1464 15.8536L13 13.7071L10.8536 15.8536C10.6583 16.0488 10.3417 16.0488 10.1464 15.8536C9.95118 15.6583 9.95118 15.3417 10.1464 15.1464L12.2929 13L10.1464 10.8536C9.95118 10.6583 9.95118 10.3417 10.1464 10.1464Z" fill="#DB3B4B"/>
<path d="M10.0518 13.8265C8.9686 14.0032 7.79223 13.9666 6.70554 13.9327C6.07993 13.9132 5.48404 13.8946 4.95277 13.9182C4.95277 13.9182 4.52047 13.9423 4.08467 14.0129C4.08467 14.0129 4.24952 13.944 4.45997 13.8726C5.0869 13.6597 5.59303 13.5089 6.03387 13.3777C6.79844 13.15 7.36662 12.9808 8.02792 12.6471C8.53976 12.3894 9.05105 12.0524 9.53416 11.6554L10.8785 12.9997L10.0518 13.8265Z" fill="#F2FCF3"/>
<path d="M13.9134 9.96479C14.2418 7.83151 13.5502 5.35809 12.9454 3.59766C12.1948 5.12972 10.3481 6.30783 8.75308 6.67987C8.09806 6.83344 7.47602 6.86451 6.86743 6.8949C6.08696 6.93389 5.32861 6.97177 4.55116 7.26548C1.39622 8.45651 1.44444 12.1519 3.18238 12.9821L3.28585 13.0363L3.31088 13.0313C3.57821 12.9775 5.92295 12.5063 7.25453 12.0244C7.8722 11.8007 8.5081 11.4785 9.11595 11.0795C8.88788 10.5347 8.9956 9.88251 9.43911 9.439C10.0249 8.85321 10.9746 8.85321 11.5604 9.439L12.9998 10.8783L13.9134 9.96479Z" fill="#F2FCF3"/>
<path d="M4.19306 6.34848C5.04122 6.0281 5.85274 5.96513 6.55611 5.92719C6.64574 5.92236 6.73331 5.91791 6.81914 5.91355L6.82056 5.91348C7.43529 5.88228 7.96186 5.85554 8.52154 5.72433L8.52266 5.72407C9.90789 5.40096 11.4581 4.36933 12.0449 3.17167L13.1088 1L13.8934 3.28357C14.3228 4.53336 14.8172 6.1955 14.9587 7.87787C14.9864 8.20674 15.001 8.54222 14.9982 8.88014L13.914 9.96418C14.2421 7.83107 13.5506 5.35804 12.9458 3.59782C12.1953 5.12988 10.3486 6.308 8.75357 6.68003C8.09855 6.8336 7.47651 6.86467 6.86792 6.89507C6.08745 6.93405 5.3291 6.97193 4.55165 7.26564C1.3967 8.45667 1.44493 12.1521 3.18287 12.9822L3.28634 13.0365C3.28634 13.0365 5.84152 12.5361 7.25502 12.0246C7.87257 11.8009 8.50836 11.4788 9.11611 11.0799C9.15332 11.1687 9.19944 11.2547 9.25449 11.3364C9.30775 11.4155 9.36936 11.4907 9.43934 11.5607L9.53441 11.6557C9.05137 12.0527 8.54016 12.3896 8.02841 12.6472C7.36711 12.981 6.79889 13.1502 6.03431 13.3779C5.59349 13.5091 5.08734 13.6598 4.46046 13.8727C4.25001 13.9442 4.08516 14.0131 4.08516 14.0131C4.52096 13.9425 4.95325 13.9184 4.95325 13.9184C5.48453 13.8948 6.08041 13.9133 6.70602 13.9328C7.79246 13.9667 8.96852 14.0034 10.0515 13.8268L8.9548 14.9236C8.26855 14.9572 7.58432 14.9423 6.95762 14.9236L6.67179 14.9149C6.04413 14.8954 5.49374 14.8783 5.00581 14.8996L4.9978 14.9001L4.95111 14.9032C4.90953 14.9062 4.84878 14.9109 4.77532 14.9176C4.62629 14.9312 4.43448 14.9523 4.24795 14.9825C4.03864 15.0165 3.80724 15.0043 3.57859 14.9162C3.35522 14.8302 3.19454 14.695 3.08492 14.572C2.90264 14.3675 2.80274 14.1231 2.76153 14.0223L2.72278 13.9275C2.70621 13.8868 2.69455 13.8582 2.68495 13.836C1.33026 13.1485 0.845643 11.5236 1.04186 10.1251C1.25338 8.61754 2.25367 7.08072 4.19306 6.34848Z" fill="#208A3C"/>
</svg>
