<svg width="15" height="14" viewBox="0 0 15 14" fill="none" xmlns="http://www.w3.org/2000/svg">
<path d="M8.5 9.5L11.5 12.5M11.5 12.5V10M11.5 12.5H9" stroke="#369650" stroke-linecap="round" stroke-linejoin="round"/>
<path d="M8.5 6.5H13.5M13.5 6.5L11.5 8.5M13.5 6.5L11.5 4.5" stroke="#369650" stroke-linecap="round" stroke-linejoin="round"/>
<path d="M8.5 3.5L11.5 0.5M11.5 0.5V3M11.5 0.5H9" stroke="#369650" stroke-linecap="round" stroke-linejoin="round"/>
<path d="M7 0.0932933C5.16167 -0.228222 3.30155 0.267133 1.76887 1.79978C-1.06496 4.63356 -0.250103 8.73619 2.48908 11.4753C3.78535 12.7716 5.37645 13.6544 7 13.9178V0.0932933Z" fill="#FFF4EB"/>
<path d="M7 0.0932934C5.16167 -0.228222 3.30155 0.267133 1.76887 1.79978C-1.06496 4.63356 -0.250103 8.73619 2.48908 11.4753C3.78534 12.7716 5.37645 13.6544 7 13.9178V12.9003C5.67106 12.6449 4.32751 11.8967 3.19761 10.7668C1.96238 9.53159 1.1978 8.02377 1.03495 6.5621C0.891189 5.27175 1.20946 3.98843 2.13864 2.87802L7 7.73929V6.32225L2.84627 2.1686C3.96097 1.22632 5.21752 0.896088 6.47661 1.03083C6.65014 1.0494 6.82477 1.07697 7 1.11342V0.0932934Z" fill="#E66D17"/>
</svg>
