<svg width="40" height="40" viewBox="0 0 40 40" fill="none" xmlns="http://www.w3.org/2000/svg">
<path d="M20 18.5001V30.5001M20 18.5001L30 13.8836M20 18.5001L10 13.8836" stroke="#548AF7" stroke-width="3" stroke-linecap="round"/>
<path d="M36.5 27.7122V12.2878C36.5 11.5035 36.0416 10.7916 35.3276 10.4671L20.8276 3.87618C20.3018 3.63716 19.6982 3.63716 19.1724 3.87618L4.67239 10.4671C3.95841 10.7916 3.5 11.5035 3.5 12.2878V27.7122C3.5 28.4965 3.95841 29.2084 4.67239 29.5329L19.1724 36.1238C19.6982 36.3628 20.3018 36.3628 20.8276 36.1238L35.3276 29.5329C36.0416 29.2084 36.5 28.4965 36.5 27.7122Z" stroke="#548AF7" stroke-width="3" stroke-linecap="round" stroke-linejoin="round"/>
</svg>
