<svg width="64" height="64" viewBox="0 0 64 64" fill="none" xmlns="http://www.w3.org/2000/svg">
<path d="M32 29.9999V48.9999M32 29.9999L15 22.1538M32 29.9999L49 22.1538" stroke="#548AF7" stroke-width="4" stroke-linecap="round"/>
<path d="M58 43.993V19.9195C58 18.7493 57.3196 17.686 56.2572 17.1956L33.2572 6.58023C32.4595 6.21207 31.5405 6.21207 30.7428 6.58023L7.74283 17.1956C6.68038 17.686 6 18.7493 6 19.9195V44.0805C6 45.2507 6.68037 46.314 7.74283 46.8044L30.7379 57.4175C31.5384 57.787 32.4609 57.7856 33.2603 57.4138L56.2653 46.7132C57.3233 46.221 58 45.16 58 43.993Z" stroke="#548AF7" stroke-width="4" stroke-linecap="round" stroke-linejoin="round"/>
</svg>
