<svg width="16" height="16" viewBox="0 0 16 16" fill="none" xmlns="http://www.w3.org/2000/svg">
<path d="M14.5001 9.00002C14.5001 9.82802 13.8281 10.5 13.0001 10.5H11.5001L11.5001 2.50002L13.0001 2.50002C13.8281 2.50002 14.5001 3.17102 14.5001 4.00002V9.00002Z" fill="#FFF7F7"/>
<path d="M6.50005 10.5H3C2.172 10.5 1.5 9.82802 1.5 9.00002L1.5 5.69202C1.5 5.26602 1.681 4.86002 1.998 4.57602L3.885 2.88302C4.16 2.63602 4.517 2.49902 4.887 2.49902L11.5001 2.49902L11.5001 10.792L8.03505 14.238C7.86605 14.406 7.63805 14.5 7.40005 14.5C6.90305 14.5 6.50005 14.097 6.50005 13.6L6.50005 10.5Z" fill="#FFF7F7"/>
<path d="M14.5001 9.00002C14.5001 9.82802 13.8281 10.5 13.0001 10.5H11.5001L11.5001 2.50002L13.0001 2.50002C13.8281 2.50002 14.5001 3.17102 14.5001 4.00002V9.00002Z" stroke="#DB3B4B"/>
<path d="M6.50005 10.5H3C2.172 10.5 1.5 9.82802 1.5 9.00002L1.5 5.69202C1.5 5.26602 1.681 4.86002 1.998 4.57602L3.885 2.88302C4.16 2.63602 4.517 2.49902 4.887 2.49902L11.5001 2.49902L11.5001 10.792L8.03505 14.238C7.86605 14.406 7.63805 14.5 7.40005 14.5C6.90305 14.5 6.50005 14.097 6.50005 13.6L6.50005 10.5Z" stroke="#DB3B4B"/>
</svg>
