<svg width="16" height="16" viewBox="0 0 16 16" fill="none" xmlns="http://www.w3.org/2000/svg">
<path d="M5.00098 2H8.00098C8.55326 2 9.00098 2.44772 9.00098 3V6C9.00098 6.55228 8.55326 7 8.00098 7H5.00098C4.44869 7 4.00098 6.55228 4.00098 6V3C4.00098 2.44772 4.44869 2 5.00098 2Z" fill="#6F737A"/>
<path fill-rule="evenodd" clip-rule="evenodd" d="M14.0887 6.73537C14.851 6.73537 15.2124 7.00829 15.2512 7.03904L15.392 7.15031L15.3336 7.3212C15.2404 7.55692 15.0969 7.76945 14.9131 7.94392C14.6364 8.21746 14.1348 8.5439 13.3191 8.5439H13.1875C13.1205 8.71333 13.0487 8.91217 12.9708 9.12794C12.6647 9.97522 12.2622 11.0893 11.6685 11.7614C11.2229 12.2658 10.6987 12.6948 10.1163 13.0321C9.40952 13.4323 8.64075 13.7116 7.84182 13.8583C7.2671 13.9652 6.68362 14.0181 6.09905 14.0163C4.80504 14.0163 4.2492 13.8704 3.34656 13.4401C2.44392 13.0098 1.90114 12.3003 1.41361 11.196C1.14318 10.5834 1.04585 9.67345 1.0128 8.98449C0.987002 8.44692 1.42737 8.02076 1.96555 8.02076H10.9665C11.0814 8.01646 11.6494 7.96789 12.0035 7.77057C11.7103 7.30705 11.6273 6.76488 11.7638 6.18763C11.7837 6.10437 11.8075 6.02221 11.835 5.94141C11.9073 5.72897 12.0056 5.5259 12.1277 5.33684L12.2623 5.14258L12.467 5.26063C12.5053 5.28322 13.3406 5.77629 13.4881 6.78699C13.6866 6.75351 13.8874 6.73624 14.0887 6.73537ZM6.00098 11C6.00098 11.5523 5.55326 12 5.00098 12C4.44869 12 4.00098 11.5523 4.00098 11C4.00098 10.4477 4.44869 10 5.00098 10C5.55326 10 6.00098 10.4477 6.00098 11Z" fill="#6F737A"/>
</svg>
