<svg width="16" height="16" viewBox="0 0 16 16" fill="none" xmlns="http://www.w3.org/2000/svg">
<path fill-rule="evenodd" clip-rule="evenodd" d="M4.16796 13.2205C5.01982 13.6629 6.31219 14 8 14C9.68781 14 10.9802 13.6629 11.832 13.2205C12.2586 12.999 12.561 12.7582 12.7512 12.5336C12.9429 12.307 13 12.123 13 12H14C14 12.4293 13.8071 12.8339 13.5145 13.1796C13.2202 13.5273 12.8039 13.8425 12.293 14.1079C11.2698 14.6393 9.81219 15 8 15C6.18781 15 4.73018 14.6393 3.70704 14.1079C3.19606 13.8425 2.77979 13.5273 2.48553 13.1796C2.19295 12.8339 2 12.4293 2 12H3C3 12.123 3.05705 12.307 3.24884 12.5336C3.43896 12.7582 3.74144 12.999 4.16796 13.2205Z" fill="#6C707E"/>
<path d="M11.7071 0.879075C11.3166 0.488551 10.6834 0.488551 10.2929 0.879075L8.87868 2.29329C8.48815 2.68381 8.48815 3.31698 8.87868 3.7075L10.2929 5.12172C10.6834 5.51224 11.3166 5.51224 11.7071 5.12172L13.1213 3.7075C13.5118 3.31698 13.5118 2.68381 13.1213 2.29329L11.7071 0.879075Z" fill="#4682FA"/>
<path d="M4.0004 1.00052C3.44811 1.00052 3.0004 1.44823 3.0004 2.00052V4.00052C3.0004 4.5528 3.44811 5.00051 4.0004 5.00051H6.0004C6.55268 5.00051 7.0004 4.5528 7.0004 4.00052V2.00052C7.0004 1.44823 6.55268 1.00052 6.0004 1.00052H4.0004Z" fill="#4682FA"/>
<path d="M4 6.99992C3.44772 6.99992 3 7.44763 3 7.99992V9.99992C3 10.5522 3.44772 10.9999 4 10.9999H6C6.55228 10.9999 7 10.5522 7 9.99992V7.99992C7 7.44763 6.55228 6.99992 6 6.99992H4Z" fill="#4682FA"/>
<path d="M9.00027 8.0004C9.00027 7.44811 9.44799 7.0004 10.0003 7.0004H12.0003C12.5526 7.0004 13.0003 7.44811 13.0003 8.0004V10.0004C13.0003 10.5527 12.5526 11.0004 12.0003 11.0004H10.0003C9.44799 11.0004 9.00027 10.5527 9.00027 10.0004V8.0004Z" fill="#4682FA"/>
</svg>
