<svg width="16" height="16" viewBox="0 0 16 16" fill="none" xmlns="http://www.w3.org/2000/svg">
<rect x="2.5" y="3.5" width="9" height="10" rx="1.5" stroke="#6C707E"/>
<rect x="5" y="6" width="4" height="1" rx="0.5" fill="#6C707E"/>
<rect x="5" y="8" width="4" height="1" rx="0.5" fill="#6C707E"/>
<rect x="5" y="10" width="4" height="1" rx="0.5" fill="#6C707E"/>
<path fill-rule="evenodd" clip-rule="evenodd" d="M5 1.5C5 1.22386 5.22386 1 5.5 1H12C13.1046 1 14 1.89543 14 3V10.5C14 10.7761 13.7761 11 13.5 11C13.2239 11 13 10.7761 13 10.5V3C13 2.44772 12.5523 2 12 2H5.5C5.22386 2 5 1.77614 5 1.5Z" fill="#6C707E"/>
</svg>
