<svg width="16" height="16" viewBox="0 0 16 16" fill="none" xmlns="http://www.w3.org/2000/svg">
<g clip-path="url(#clip0_13275_10241)">
<path fill-rule="evenodd" clip-rule="evenodd" d="M10.1464 10.1464C10.3417 9.95118 10.6583 9.95118 10.8536 10.1464L13 12.2929L15.1464 10.1464C15.3417 9.95118 15.6583 9.95118 15.8536 10.1464C16.0488 10.3417 16.0488 10.6583 15.8536 10.8536L13.7071 13L15.8536 15.1464C16.0488 15.3417 16.0488 15.6583 15.8536 15.8536C15.6583 16.0488 15.3417 16.0488 15.1464 15.8536L13 13.7071L10.8536 15.8536C10.6583 16.0488 10.3417 16.0488 10.1464 15.8536C9.95118 15.6583 9.95118 15.3417 10.1464 15.1464L12.2929 13L10.1464 10.8536C9.95118 10.6583 9.95118 10.3417 10.1464 10.1464Z" fill="#DB5C5C"/>
<path fill-rule="evenodd" clip-rule="evenodd" d="M3 2C1.89543 2 1 2.89543 1 4V12C1 13.1046 1.89543 14 3 14H9.87868L10.8787 13L10 12.1213V13H6V6H10V9.08542C10.3229 8.97153 10.6771 8.97153 11 9.08542V6H14V9.87868L14.4393 9.43934C14.6031 9.27559 14.7953 9.15762 15 9.08542V4C15 2.89543 14.1046 2 13 2H3ZM10 3H6V5H10V3ZM3 3H5V5H2V4C2 3.44772 2.44772 3 3 3ZM2 12V6H5V13H3C2.44772 13 2 12.5523 2 12ZM14 4V5H11V3H13C13.5523 3 14 3.44772 14 4Z" fill="#CED0D6"/>
</g>
<defs>
<clipPath id="clip0_13275_10241">
<rect width="16" height="16" fill="white"/>
</clipPath>
</defs>
</svg>
