<svg width="16" height="16" viewBox="0 0 16 16" fill="none" xmlns="http://www.w3.org/2000/svg">
<path fill-rule="evenodd" clip-rule="evenodd" d="M10.1464 10.1464C10.3417 9.95118 10.6583 9.95118 10.8536 10.1464L13 12.2929L15.1464 10.1464C15.3417 9.95118 15.6583 9.95118 15.8536 10.1464C16.0488 10.3417 16.0488 10.6583 15.8536 10.8536L13.7071 13L15.8536 15.1464C16.0488 15.3417 16.0488 15.6583 15.8536 15.8536C15.6583 16.0488 15.3417 16.0488 15.1464 15.8536L13 13.7071L10.8536 15.8536C10.6583 16.0488 10.3417 16.0488 10.1464 15.8536C9.95118 15.6583 9.95118 15.3417 10.1464 15.1464L12.2929 13L10.1464 10.8536C9.95118 10.6583 9.95118 10.3417 10.1464 10.1464Z" fill="#DB3B4B"/>
<path fill-rule="evenodd" clip-rule="evenodd" d="M7 8.96905C5.02684 8.723 3.5 7.03981 3.5 5C3.5 2.79086 5.29086 1 7.5 1C9.70914 1 11.5 2.79086 11.5 5C11.5 7.03981 9.97316 8.723 8 8.96905V14.5C8 14.7761 7.77614 15 7.5 15C7.22386 15 7 14.7761 7 14.5V14H5.5C5.22386 14 5 13.7761 5 13.5C5 13.2239 5.22386 13 5.5 13H7V12H5.5C5.22386 12 5 11.7761 5 11.5C5 11.2239 5.22386 11 5.5 11H7V8.96905ZM4.5 5C4.5 6.65685 5.84315 8 7.5 8C9.15685 8 10.5 6.65685 10.5 5C10.5 3.34315 9.15685 2 7.5 2C5.84315 2 4.5 3.34315 4.5 5Z" fill="#E66D17"/>
</svg>
