<svg width="16" height="16" viewBox="0 0 16 16" fill="none" xmlns="http://www.w3.org/2000/svg">
<path fill-rule="evenodd" clip-rule="evenodd" d="M10.1464 10.1464C10.3417 9.95118 10.6583 9.95118 10.8536 10.1464L13 12.2929L15.1464 10.1464C15.3417 9.95118 15.6583 9.95118 15.8536 10.1464C16.0488 10.3417 16.0488 10.6583 15.8536 10.8536L13.7071 13L15.8536 15.1464C16.0488 15.3417 16.0488 15.6583 15.8536 15.8536C15.6583 16.0488 15.3417 16.0488 15.1464 15.8536L13 13.7071L10.8536 15.8536C10.6583 16.0488 10.3417 16.0488 10.1464 15.8536C9.95118 15.6583 9.95118 15.3417 10.1464 15.1464L12.2929 13L10.1464 10.8536C9.95118 10.6583 9.95118 10.3417 10.1464 10.1464Z" fill="#DB5C5C"/>
<path d="M1 2.5C1 2.22386 1.22386 2 1.5 2H14.5C14.7761 2 15 2.22386 15 2.5C15 2.77614 14.7761 3 14.5 3H1.5C1.22386 3 1 2.77614 1 2.5Z" fill="#CED0D6"/>
<path d="M5.27461 10.2938L7.70136 8.06252C7.93369 7.84718 8.10227 7.64035 8.20711 7.44202C8.31477 7.24085 8.36861 7.02835 8.36861 6.80452C8.36861 6.59202 8.32044 6.4036 8.22411 6.23927C8.12777 6.07493 7.99177 5.94743 7.81611 5.85677C7.64327 5.7661 7.44352 5.72077 7.21686 5.72077C6.97602 5.72077 6.76069 5.77318 6.57086 5.87802C6.38386 5.98002 6.23652 6.1231 6.12886 6.30727C6.02402 6.49143 5.97161 6.70252 5.97161 6.94052H5.10886C5.10886 6.56085 5.20094 6.22085 5.38511 5.92052C5.56927 5.61735 5.82286 5.37935 6.14586 5.20652C6.46886 5.03368 6.83152 4.94727 7.23386 4.94727C7.61352 4.94727 7.95636 5.02518 8.26236 5.18102C8.57119 5.33685 8.81202 5.55077 8.98486 5.82277C9.16052 6.09477 9.24836 6.40076 9.24836 6.74077C9.24836 7.0666 9.16336 7.3811 8.99336 7.68427C8.82336 7.9846 8.55561 8.30052 8.19011 8.63202L6.48161 10.2173H9.02674C8.9771 10.4772 8.99658 10.7477 9.08516 10.9993H5.27461V10.2938Z" fill="#CED0D6"/>
<path d="M10.8787 13H1.5C1.22386 13 1 13.2239 1 13.5C1 13.7761 1.22386 14 1.5 14H9.87868L10.8787 13Z" fill="#CED0D6"/>
<path d="M14.6072 9.29441C14.6088 9.26095 14.6096 9.22715 14.6096 9.19302C14.6096 8.81902 14.5161 8.48752 14.3291 8.19852C14.1421 7.90668 13.8828 7.68143 13.5513 7.52277C13.2994 7.40117 13.0209 7.32866 12.7158 7.30524L14.3971 5.72927V5.04927H10.5976V5.79302H13.3473L11.7366 7.31452V7.98177H12.4208C12.673 7.98177 12.8982 8.03277 13.0966 8.13477C13.2949 8.23677 13.4493 8.37843 13.5598 8.55977C13.6732 8.7411 13.7298 8.94652 13.7298 9.17602C13.7298 9.39985 13.6746 9.60243 13.5641 9.78377C13.4536 9.96227 13.3006 10.1025 13.1051 10.2045C12.9191 10.2988 12.7089 10.3483 12.4742 10.3529L13 10.8787L14.4393 9.43934C14.4925 9.38621 14.5486 9.3379 14.6072 9.29441Z" fill="#CED0D6"/>
<path d="M1.29297 6.67702H2.70822V10.9993H3.56672V5.04927H2.94197C2.94197 5.23627 2.90655 5.39918 2.83572 5.53802C2.76489 5.67402 2.66289 5.78027 2.52972 5.85677C2.39655 5.93043 2.24072 5.96727 2.06222 5.96727H1.29297V6.67702Z" fill="#CED0D6"/>
</svg>
