<svg width="16" height="16" viewBox="0 0 16 16" fill="none" xmlns="http://www.w3.org/2000/svg">
<path d="M12 2C13.1046 2 14 2.89543 14 4V7.05404C12.8814 6.85899 11.6892 7.19173 10.8251 8.0558L8.0558 10.8251C7.19173 11.6892 6.85899 12.8814 7.05404 14H4C2.89543 14 2 13.1046 2 12V4C2 2.89543 2.89543 2 4 2H12Z" fill="#3574F0"/>
<path d="M11.5618 10.1475C11.3665 10.3428 11.0499 10.3428 10.8547 10.1475C10.6594 9.95229 10.6594 9.6357 10.8547 9.44044L11.5322 8.76291C12.5519 7.74327 14.2078 7.74606 15.2309 8.76913C16.2539 9.7922 16.2567 11.4481 15.2371 12.4678L14.5596 13.1453C14.3643 13.3406 14.0477 13.3406 13.8525 13.1453C13.6572 12.9501 13.6572 12.6335 13.8525 12.4382L14.53 11.7607C15.1569 11.1338 15.1586 10.111 14.5238 9.47624C13.889 8.84144 12.8662 8.84315 12.2393 9.47001L11.5618 10.1475Z" fill="#6C707E"/>
<path d="M10.1476 10.8547C10.3428 11.0499 10.3428 11.3665 10.1476 11.5618L9.47001 12.2393C8.84315 12.8662 8.84144 13.889 9.47624 14.5238C10.111 15.1586 11.1338 15.1569 11.7607 14.53L12.4382 13.8524C12.6335 13.6572 12.9501 13.6572 13.1453 13.8524C13.3406 14.0477 13.3406 14.3643 13.1453 14.5595L12.4678 15.2371C11.4481 16.2567 9.7922 16.2539 8.76913 15.2309C7.74606 14.2078 7.74327 12.5519 8.76291 11.5322L9.44047 10.8547C9.63573 10.6594 9.95232 10.6594 10.1476 10.8547Z" fill="#6C707E"/>
<path d="M13.8536 10.8536C14.0488 10.6583 14.0488 10.3417 13.8536 10.1464C13.6583 9.95118 13.3417 9.95118 13.1464 10.1464L10.1464 13.1464C9.95118 13.3417 9.95118 13.6583 10.1464 13.8536C10.3417 14.0488 10.6583 14.0488 10.8536 13.8536L13.8536 10.8536Z" fill="#6C707E"/>
<path d="M10.4944 8.38656L9.69885 9.18207C9.56126 9.12892 9.43485 9.06087 9.31962 8.9779C9.10587 8.824 8.94057 8.63163 8.82372 8.40078C8.70972 8.16708 8.65272 7.912 8.65272 7.63555C8.65272 7.30495 8.73822 7.00855 8.90922 6.74635C9.08307 6.4813 9.3239 6.27468 9.6317 6.12648C9.9395 5.97543 10.2872 5.8999 10.6748 5.8999C11.0709 5.8999 11.4229 5.97258 11.7307 6.11793C12.0414 6.26328 12.2836 6.46563 12.4575 6.72498C12.5315 6.83547 12.5901 6.95269 12.6331 7.07664C12.3066 7.14488 11.9877 7.25872 11.6867 7.41825C11.6658 7.33247 11.6306 7.25243 11.5811 7.17813C11.4956 7.04703 11.3759 6.94585 11.222 6.8746C11.0681 6.80335 10.89 6.76773 10.6876 6.76773C10.4853 6.76773 10.3071 6.80193 10.1532 6.87033C9.99935 6.93873 9.87965 7.03563 9.79415 7.16103C9.70865 7.28643 9.6659 7.43178 9.6659 7.59708C9.6659 7.79088 9.7286 7.95903 9.854 8.10153C9.9794 8.24118 10.1433 8.3281 10.3456 8.3623L10.4944 8.38656Z" fill="white"/>
<path d="M7.87171 5.99999H3.13501V6.99999H5V12H6V6.99999H7.87171V5.99999Z" fill="white"/>
</svg>
