<svg width="16" height="16" viewBox="0 0 16 16" fill="none" xmlns="http://www.w3.org/2000/svg">
<path d="M2.5 2C2.22386 2 2 2.22386 2 2.5C2 2.77614 2.22386 3 2.5 3H13.5C13.7761 3 14 2.77614 14 2.5C14 2.22386 13.7761 2 13.5 2H2.5Z" fill="#6C707E"/>
<path d="M2.5 13C2.22386 13 2 13.2239 2 13.5C2 13.7761 2.22386 14 2.5 14H13.5C13.7761 14 14 13.7761 14 13.5C14 13.2239 13.7761 13 13.5 13H2.5Z" fill="#6C707E"/>
<path fill-rule="evenodd" clip-rule="evenodd" d="M2 10V6C2 4.89543 2.89543 4 4 4H12C13.1046 4 14 4.89543 14 6V10C14 11.1046 13.1046 12 12 12H4C2.89543 12 2 11.1046 2 10ZM3 6V10C3 10.5523 3.44772 11 4 11H5V5H4C3.44772 5 3 5.44772 3 6ZM6 5V11H12C12.5523 11 13 10.5523 13 10V6C13 5.44772 12.5523 5 12 5H6Z" fill="#6C707E"/>
</svg>
