<svg width="16" height="16" viewBox="0 0 16 16" fill="none" xmlns="http://www.w3.org/2000/svg">
<g clip-path="url(#clip0_9859_14828)">
<g clip-path="url(#clip1_9859_14828)">
<path fill-rule="evenodd" clip-rule="evenodd" d="M15.827 0.175736C16.0613 0.410051 16.0613 0.78995 15.827 1.02426L12.0301 4.82114C11.7958 5.05545 11.4159 5.05545 11.1816 4.82114L9.17574 2.81528C8.94142 2.58097 8.94142 2.20107 9.17574 1.96675C9.41005 1.73244 9.78995 1.73244 10.0243 1.96675L11.6059 3.54835L14.9785 0.175736C15.2128 -0.0585787 15.5927 -0.0585787 15.827 0.175736Z" fill="#548AF7"/>
<path d="M8.46863 3.52239C7.84379 2.89755 7.84379 1.88448 8.46863 1.25964C8.55376 1.17451 8.64611 1.10097 8.74369 1.03904C8.49932 1.01323 8.25121 1 8 1C4.13401 1 1 4.13401 1 8C1 11.866 4.13401 15 8 15C11.866 15 15 11.866 15 8C15 6.6473 14.6163 5.38422 13.9518 4.31365L12.7372 5.52825C12.1124 6.15308 11.0993 6.15309 10.4745 5.52824L8.46863 3.52239Z" fill="#3D3223"/>
<path d="M8.04822 2.00019C8.11628 1.72884 8.25642 1.47185 8.46863 1.25964C8.55376 1.17451 8.64611 1.10097 8.74369 1.03904C8.49932 1.01323 8.25121 1 8 1C4.13401 1 1 4.13401 1 8C1 11.866 4.13401 15 8 15C11.866 15 15 11.866 15 8C15 6.6473 14.6163 5.38422 13.9518 4.31365L13.2221 5.04334C13.7173 5.916 14 6.92498 14 8C14 11.3137 11.3137 14 8 14C4.68629 14 2 11.3137 2 8C2 4.68629 4.68629 2 8 2C8.01609 2 8.03216 2.00006 8.04822 2.00019Z" fill="#D6AE58"/>
<path d="M9.44624 4.5L10.3612 5.415H6.48023V7.515H10.0702V8.435H6.48023V10.585H10.5102V11.5H5.49023V4.5H9.44624Z" fill="#D6AE58"/>
</g>
</g>
<defs>
<clipPath id="clip0_9859_14828">
<rect width="16" height="16" fill="white"/>
</clipPath>
<clipPath id="clip1_9859_14828">
<rect width="16" height="16" fill="white"/>
</clipPath>
</defs>
</svg>
