<svg width="16" height="16" viewBox="0 0 16 16" fill="none" xmlns="http://www.w3.org/2000/svg">
<path fill-rule="evenodd" clip-rule="evenodd" d="M14.5263 9.45338C16.1636 11.0906 16.6154 13.3227 14.9603 14.9778C13.3051 16.6329 10.9876 16.1225 9.42233 14.5573C7.85708 12.9921 7.39145 10.6478 9.01078 9.02845C10.6301 7.40914 12.8891 7.81617 14.5263 9.45338Z" fill="#45322B"/>
<path fill-rule="evenodd" clip-rule="evenodd" d="M14.5263 9.45338C16.1636 11.0906 16.6154 13.3227 14.9603 14.9778C13.3051 16.6329 10.9876 16.1225 9.42233 14.5573C7.85708 12.9921 7.39145 10.6478 9.01078 9.02845C10.6301 7.40914 12.8891 7.81617 14.5263 9.45338ZM13.8192 10.1605C14.518 10.8592 14.9051 11.6277 14.9844 12.3223C15.0442 12.8461 14.9368 13.3752 14.5851 13.8779L10.1121 9.40499C10.602 9.06741 11.1283 8.95763 11.6554 9.01405C12.355 9.08891 13.1269 9.46818 13.8192 10.1605ZM9.40383 10.1109L13.8791 14.5862C13.3735 14.9393 12.8254 15.0473 12.2753 14.9821C11.5564 14.8969 10.7844 14.5051 10.1294 13.8502C9.4809 13.2017 9.09686 12.4265 9.01619 11.7024C8.9545 11.1487 9.06497 10.6036 9.40383 10.1109Z" fill="#C77D55"/>
<path d="M3.29368 10.7087L1.29289 8.70789C0.902369 8.31737 0.902369 7.6842 1.29289 7.29368L3.29368 5.29289C3.6842 4.90237 4.31737 4.90237 4.70789 5.29289L6.70868 7.29368C7.09921 7.68421 7.0992 8.31737 6.70868 8.70789L4.70789 10.7087C4.31737 11.0992 3.6842 11.0992 3.29368 10.7087Z" fill="#25324D"/>
<path d="M9.04162 7.71462C9.90802 7.13922 10.8872 6.92041 11.8682 7.02539C12.9707 7.14338 14.02 7.66174 14.9022 8.4359C15.0822 8.0635 15.0177 7.60265 14.7087 7.29368L12.7079 5.29289C12.3174 4.90237 11.6842 4.90237 11.2937 5.29289L9.29289 7.29368C9.17124 7.41534 9.08748 7.56054 9.04162 7.71462Z" fill="#25324D"/>
<path d="M7.29368 6.70868L5.29289 4.70789C4.90237 4.31737 4.90237 3.6842 5.29289 3.29368L7.29368 1.29289C7.68421 0.902369 8.31737 0.902369 8.70789 1.29289L10.7087 3.29368C11.0992 3.6842 11.0992 4.31737 10.7087 4.70789L8.70789 6.70868C8.31737 7.09921 7.6842 7.0992 7.29368 6.70868Z" fill="#43454A"/>
<path d="M5.29289 12.7079L7.29368 14.7087C7.59156 15.0066 8.03062 15.0772 8.39548 14.9207C7.65295 14.0615 7.15028 13.0177 7.02842 11.9239C6.91819 10.9345 7.12498 9.92857 7.71191 9.04243C7.55884 9.08846 7.41462 9.17195 7.29368 9.29289L5.29289 11.2937C4.90237 11.6842 4.90237 12.3174 5.29289 12.7079Z" fill="#43454A"/>
<path fill-rule="evenodd" clip-rule="evenodd" d="M3.29368 10.7087L1.29289 8.70789C0.902369 8.31737 0.902369 7.6842 1.29289 7.29368L3.29368 5.29289C3.6842 4.90237 4.31737 4.90237 4.70789 5.29289L6.70868 7.29368C7.09921 7.68421 7.0992 8.31737 6.70868 8.70789L4.70789 10.7087C4.31737 11.0992 3.6842 11.0992 3.29368 10.7087ZM2 8.00079L4.00079 10.0016L6.00157 8.00079L4.00079 6L2 8.00079Z" fill="#548AF7"/>
<path d="M9.04162 7.71462C9.64572 7.31342 10.3047 7.08558 10.9808 7.01998L12.0008 6L13.5013 7.50052C13.9994 7.73986 14.4708 8.05729 14.9022 8.4359C15.0822 8.0635 15.0177 7.60265 14.7087 7.29368L12.7079 5.29289C12.3174 4.90237 11.6842 4.90237 11.2937 5.29289L9.29289 7.29368C9.17124 7.41534 9.08748 7.56054 9.04162 7.71462Z" fill="#548AF7"/>
<path fill-rule="evenodd" clip-rule="evenodd" d="M7.29368 6.70868L5.29289 4.70789C4.90237 4.31737 4.90237 3.6842 5.29289 3.29368L7.29368 1.29289C7.68421 0.902369 8.31737 0.902369 8.70789 1.29289L10.7087 3.29368C11.0992 3.6842 11.0992 4.31737 10.7087 4.70789L8.70789 6.70868C8.31737 7.09921 7.6842 7.0992 7.29368 6.70868ZM6 4.00079L8.00079 6.00157L10.0016 4.00079L8.00079 2L6 4.00079Z" fill="#CED0D6"/>
<path d="M5.29289 12.7079L7.29368 14.7087C7.59156 15.0066 8.03062 15.0772 8.39548 14.9207C8.01061 14.4753 7.69018 13.9804 7.45382 13.4546L6 12.0008L7.02147 10.9793C7.08816 10.3068 7.31164 9.64676 7.71191 9.04243C7.55884 9.08846 7.41462 9.17195 7.29368 9.29289L5.29289 11.2937C4.90237 11.6842 4.90237 12.3174 5.29289 12.7079Z" fill="#CED0D6"/>
</svg>
