<svg width="16" height="16" viewBox="0 0 16 16" fill="none" xmlns="http://www.w3.org/2000/svg">
<path d="M14.9819 8.50689C14.9939 8.33949 15 8.17046 15 8C15 4.13401 11.866 1 8 1C4.13401 1 1 4.13401 1 8C1 11.866 4.13401 15 8 15C8.15199 15 8.30284 14.9952 8.45242 14.9856C7.67872 14.1143 7.15343 13.0454 7.02848 11.9239C6.88703 10.6543 7.26763 9.35736 8.30368 8.32134C9.3276 7.29744 10.5964 6.8893 11.8682 7.0254C13.0042 7.14696 14.0836 7.6935 14.9819 8.50689Z" fill="#25324D"/>
<path d="M13.9956 7.76865C13.8741 4.56216 11.2362 2 8 2C4.68629 2 2 4.68629 2 8C2 11.2239 4.54258 13.8539 7.73186 13.9941C7.93654 14.345 8.17896 14.6777 8.45242 14.9856C8.30284 14.9952 8.15199 15 8 15C4.13401 15 1 11.866 1 8C1 4.13401 4.13401 1 8 1C11.866 1 15 4.13401 15 8C15 8.17046 14.9939 8.33949 14.9819 8.50689C14.6729 8.22709 14.3424 7.97886 13.9956 7.76865Z" fill="#548AF7"/>
<path d="M5.82647 8C5.82647 9.09303 6.3375 9.95865 7.13107 10.3498C7.05088 10.6664 7.00815 10.9889 7.0007 11.3127C5.67872 10.8522 4.78711 9.58631 4.78711 8C4.78711 5.99378 6.21321 4.5 8.13241 4.5C9.30713 4.5 10.3494 5.05969 10.8914 5.92267L10.1098 6.49955C9.75297 5.86303 9.02411 5.42334 8.13241 5.42334C6.79332 5.42334 5.82647 6.49655 5.82647 8Z" fill="#548AF7"/>
<path fill-rule="evenodd" clip-rule="evenodd" d="M14.5263 9.45338C16.1636 11.0906 16.6154 13.3227 14.9603 14.9778C13.3051 16.6329 10.9876 16.1225 9.42233 14.5573C7.85708 12.9921 7.39145 10.6478 9.01078 9.02845C10.6301 7.40914 12.8891 7.81617 14.5263 9.45338Z" fill="#45322B"/>
<path fill-rule="evenodd" clip-rule="evenodd" d="M14.5263 9.45338C16.1636 11.0906 16.6154 13.3227 14.9603 14.9778C13.3051 16.6329 10.9876 16.1225 9.42233 14.5573C7.85708 12.9921 7.39145 10.6478 9.01078 9.02845C10.6301 7.40914 12.8891 7.81617 14.5263 9.45338ZM13.8192 10.1605C14.518 10.8592 14.9051 11.6277 14.9844 12.3223C15.0442 12.8461 14.9368 13.3752 14.5851 13.8779L10.1121 9.40499C10.602 9.06741 11.1283 8.95763 11.6554 9.01405C12.355 9.08891 13.1269 9.46818 13.8192 10.1605ZM9.40383 10.1109L13.8791 14.5862C13.3735 14.9393 12.8254 15.0473 12.2753 14.9821C11.5564 14.8969 10.7844 14.5051 10.1294 13.8502C9.4809 13.2017 9.09686 12.4265 9.01619 11.7024C8.9545 11.1487 9.06497 10.6036 9.40383 10.1109Z" fill="#C77D55"/>
</svg>
