<svg width="14" height="14" viewBox="0 0 14 14" fill="none" xmlns="http://www.w3.org/2000/svg">
<path fill-rule="evenodd" clip-rule="evenodd" d="M12.5263 7.45338C14.1636 9.09059 14.6154 11.3227 12.9603 12.9778C11.3051 14.6329 8.98758 14.1225 7.42233 12.5573C5.85708 10.9921 5.39145 8.64775 7.01078 7.02845C8.63012 5.40914 10.8891 5.81617 12.5263 7.45338Z" fill="#45322B"/>
<path fill-rule="evenodd" clip-rule="evenodd" d="M12.5263 7.45338C14.1636 9.09059 14.6154 11.3227 12.9603 12.9778C11.3051 14.6329 8.98758 14.1225 7.42233 12.5573C5.85708 10.9921 5.39145 8.64775 7.01078 7.02845C8.63012 5.40914 10.8891 5.81617 12.5263 7.45338ZM11.8192 8.1605C12.518 8.85924 12.9051 9.62771 12.9844 10.3223C13.0442 10.8461 12.9368 11.3752 12.5851 11.8779L8.11213 7.40499C8.602 7.06741 9.12827 6.95763 9.65544 7.01405C10.355 7.08891 11.1269 7.46818 11.8192 8.1605ZM7.40383 8.11091L11.8791 12.5862C11.3735 12.9393 10.8254 13.0473 10.2753 12.9821C9.55643 12.8969 8.78438 12.5051 8.12943 11.8502C7.4809 11.2017 7.09686 10.4265 7.01619 9.70244C6.9545 9.14872 7.06497 8.60361 7.40383 8.11091Z" fill="#C77D55"/>
<path d="M1 3C1 1.89543 1.89543 1 3 1H11C12.1046 1 13 1.89543 13 3V6.52335C12.098 5.70086 11.0118 5.14776 9.86818 5.02539C8.59635 4.88929 7.32753 5.29743 6.30362 6.32132C5.26757 7.35735 4.88697 8.65424 5.02842 9.92388C5.15406 11.0515 5.68446 12.1261 6.46518 13H3C1.89543 13 1 12.1046 1 11V3Z" fill="#25324D"/>
<path d="M11 2H3C2.44772 2 2 2.44772 2 3V11C2 11.5523 2.44772 12 3 12H5.73524C5.9424 12.3542 6.18801 12.6898 6.46518 13H3C1.89543 13 1 12.1046 1 11V3C1 1.89543 1.89543 1 3 1H11C12.1046 1 13 1.89543 13 3V6.52335C12.6871 6.238 12.352 5.98508 12 5.77132V3C12 2.44772 11.5523 2 11 2Z" fill="#548AF7"/>
</svg>
