<svg width="16" height="16" viewBox="0 0 16 16" fill="none" xmlns="http://www.w3.org/2000/svg">
<path fill-rule="evenodd" clip-rule="evenodd" d="M14.5263 9.45338C16.1636 11.0906 16.6154 13.3227 14.9603 14.9778C13.3051 16.6329 10.9876 16.1225 9.42233 14.5573C7.85708 12.9921 7.39145 10.6478 9.01078 9.02845C10.6301 7.40914 12.8891 7.81617 14.5263 9.45338Z" fill="#FFF4EB"/>
<path fill-rule="evenodd" clip-rule="evenodd" d="M14.5263 9.45338C16.1636 11.0906 16.6154 13.3227 14.9603 14.9778C13.3051 16.6329 10.9876 16.1225 9.42233 14.5573C7.85708 12.9921 7.39145 10.6478 9.01078 9.02845C10.6301 7.40914 12.8891 7.81617 14.5263 9.45338ZM13.8192 10.1605C14.518 10.8592 14.9051 11.6277 14.9844 12.3223C15.0442 12.8461 14.9368 13.3752 14.5851 13.8779L10.1121 9.40499C10.602 9.06741 11.1283 8.95763 11.6554 9.01405C12.355 9.08891 13.1269 9.46818 13.8192 10.1605ZM9.40383 10.1109L13.8791 14.5862C13.3735 14.9393 12.8254 15.0473 12.2753 14.9821C11.5564 14.8969 10.7844 14.5051 10.1294 13.8502C9.4809 13.2017 9.09686 12.4265 9.01619 11.7024C8.9545 11.1487 9.06497 10.6036 9.40383 10.1109Z" fill="#E66D17"/>
<path d="M4 2C2.89543 2 2 2.89543 2 4V12C2 13.1046 2.89543 14 4 14H7.73529C7.35893 13.3565 7.10952 12.6512 7.02848 11.9239C6.88703 10.6543 7.26763 9.35736 8.30368 8.32134C9.3276 7.29744 10.5964 6.8893 11.8682 7.0254C12.6151 7.10532 13.3374 7.36893 14 7.7713V4C14 2.89543 13.1046 2 12 2H4Z" fill="#EDF3FF"/>
<path d="M4 3H12C12.5523 3 13 3.44772 13 4V7.28969C13.3447 7.41433 13.6793 7.57657 14 7.7713V4C14 2.89543 13.1046 2 12 2H4C2.89543 2 2 2.89543 2 4V12C2 13.1046 2.89543 14 4 14H7.73529C7.54831 13.6803 7.39266 13.3453 7.27343 13H4C3.44772 13 3 12.5523 3 12V4C3 3.44772 3.44772 3 4 3Z" fill="#3574F0"/>
</svg>
