<svg width="16" height="16" viewBox="0 0 16 16" fill="none" xmlns="http://www.w3.org/2000/svg">
<path fill-rule="evenodd" clip-rule="evenodd" d="M14 11.95C15.1411 11.7184 16 10.7095 16 9.5C16 8.11929 14.8807 7 13.5 7C12.1193 7 11 8.11929 11 9.5C11 10.7095 11.8589 11.7184 13 11.95V16H14V15H16V14H14V11.95ZM15 9.5C15 10.3284 14.3284 11 13.5 11C12.6716 11 12 10.3284 12 9.5C12 8.67157 12.6716 8 13.5 8C14.3284 8 15 8.67157 15 9.5Z" fill="#6C707E"/>
<path d="M14.777 6.24026C14.3813 6.08516 13.9506 6 13.5 6C11.567 6 10 7.567 10 9.5C10 10.8968 10.8176 12.1012 12 12.6629V13.7453C10.8662 14.5362 9.48725 15 8 15C4.13401 15 1 11.866 1 8C1 4.13401 4.13401 1 8 1C11.2582 1 13.9965 3.22605 14.777 6.24026Z" fill="#EDF3FF"/>
<path d="M8 1C11.2582 1 13.9965 3.22605 14.777 6.24026C14.4284 6.1036 14.0525 6.02124 13.6599 6.00359C12.8372 3.67133 10.6138 2 8 2C4.68629 2 2 4.68629 2 8C2 11.3137 4.68629 14 8 14C9.47049 14 10.8174 13.471 11.8609 12.5929C11.9067 12.6172 11.953 12.6406 12 12.6629V13.7453C10.8662 14.5362 9.48725 15 8 15C4.13401 15 1 11.866 1 8C1 4.13401 4.13401 1 8 1Z" fill="#3574F0"/>
<path d="M8.13296 10.5767C8.94365 10.5767 9.61973 10.2132 10.004 9.66889C10.0228 10.0639 10.107 10.4417 10.246 10.7917C9.68341 11.2362 8.93938 11.5 8.13296 11.5C7.73127 11.5 7.35118 11.4346 7.00125 11.3127C6.9332 11.289 6.8663 11.2632 6.8006 11.2352C5.58984 10.7211 4.78766 9.50466 4.78766 8C4.78766 5.99378 6.21376 4.5 8.13296 4.5C8.59084 4.5 9.02861 4.58503 9.42446 4.73991C10.0442 4.98239 10.5612 5.39606 10.8919 5.92267L10.1103 6.49955C9.86683 6.06517 9.45006 5.72245 8.92652 5.54859C8.68289 5.46768 8.41614 5.42334 8.13296 5.42334C6.79387 5.42334 5.82702 6.49655 5.82702 8C5.82702 9.09303 6.33805 9.95865 7.13162 10.3498C7.42959 10.4967 7.76741 10.5767 8.13296 10.5767Z" fill="#3574F0"/>
</svg>
