<svg width="16" height="16" viewBox="0 0 16 16" fill="none" xmlns="http://www.w3.org/2000/svg">
<path fill-rule="evenodd" clip-rule="evenodd" d="M12.1464 0.146447C12.3417 -0.0488155 12.6583 -0.0488155 12.8536 0.146447L15.8536 3.14645C16.0488 3.34171 16.0488 3.65829 15.8536 3.85355C15.6583 4.04882 15.3417 4.04882 15.1464 3.85355L13 1.70711V7.5C13 7.77614 12.7761 8 12.5 8C12.2239 8 12 7.77614 12 7.5V1.70711L9.85355 3.85355C9.65829 4.04882 9.34171 4.04882 9.14645 3.85355C8.95118 3.65829 8.95118 3.34171 9.14645 3.14645L12.1464 0.146447Z" fill="#6C707E"/>
<path d="M11 4.12132L10.5607 4.56066C9.97487 5.14645 9.02513 5.14645 8.43934 4.56066C7.85355 3.97487 7.85355 3.02513 8.43934 2.43934L9.38732 1.49136C7.1252 0.587365 4.68985 0.878842 2.76887 2.79978C-0.0649633 5.63356 0.749897 9.73619 3.48908 12.4753C6.22827 15.2144 10.284 16.1076 13.1805 13.2112C15.4365 10.9552 15.4556 8.08665 14 5.57456V7.5C14 8.32843 13.3284 9 12.5 9C11.6716 9 11 8.32843 11 7.5V4.12132Z" fill="#FFF4EB"/>
<path fill-rule="evenodd" clip-rule="evenodd" d="M13.8977 8.04561C13.9267 8.19072 13.9494 8.33535 13.9658 8.47924C14.1089 9.73177 13.7837 10.9927 12.8122 12.1344L3.84627 3.1686C4.96097 2.22632 6.21752 1.89609 7.47661 2.03083C7.84925 2.0707 8.22693 2.15209 8.60487 2.27381L9.38732 1.49136C7.1252 0.587365 4.68985 0.878842 2.76887 2.79978C-0.0649632 5.63356 0.749897 9.73619 3.48908 12.4753C6.22826 15.2144 10.284 16.1076 13.1805 13.2112C15.4364 10.9552 15.4556 8.08665 14 5.57456V7.5C14 7.69249 13.9637 7.87652 13.8977 8.04561ZM12.1028 12.842L3.13864 3.87802C2.20946 4.98843 1.89119 6.27175 2.03495 7.5621C2.1978 9.02377 2.96238 10.5316 4.19761 11.7668C5.43927 13.0084 6.93895 13.7891 8.3937 13.9615C9.67759 14.1137 10.9657 13.8003 12.1028 12.842Z" fill="#E66D17"/>
</svg>
