<svg width="16" height="16" viewBox="0 0 16 16" fill="none" xmlns="http://www.w3.org/2000/svg">
<g clip-path="url(#clip0_13262_13627)">
<path d="M14.9473 9.72372C15.0708 9.47673 14.9707 9.17639 14.7237 9.0529C14.4767 8.9294 14.1764 9.02951 14.0529 9.2765L13.1911 11H10.5C10.2239 11 10 11.2239 10 11.5C10 11.7761 10.2239 12 10.5 12H12.6911L12.1911 13H10.5C10.2239 13 10 13.2239 10 13.5C10 13.7761 10.2239 14 10.5 14H11.6911L11.0529 15.2765C10.9294 15.5235 11.0295 15.8238 11.2765 15.9473C11.5235 16.0708 11.8238 15.9707 11.9473 15.7237L12.8092 14H15.5C15.7761 14 16 13.7761 16 13.5C16 13.2239 15.7761 13 15.5 13H13.3092L13.8092 12H15.5C15.7761 12 16 11.7761 16 11.5C16 11.2239 15.7761 11 15.5 11H14.3092L14.9473 9.72372Z" fill="#548AF7"/>
<path d="M4 3C3.44772 3 3 3.44772 3 4V12C3 12.5523 3.44772 13 4 13H9.08543C9.15128 12.8138 9.25287 12.6444 9.38195 12.5002C9.14443 12.2348 9 11.8844 9 11.5002C9 10.6718 9.67157 10.0002 10.5 10.0002H12.5731L13 9.14644V4C13 3.44772 12.5523 3 12 3H4Z" fill="#43454A"/>
<path d="M4 2C2.89543 2 2 2.89543 2 4V12C2 13.1046 2.89543 14 4 14H9.08528C9.03005 13.8437 9 13.6755 9 13.5002C9 13.3248 9.03011 13.1565 9.08543 13H4C3.44772 13 3 12.5523 3 12V4C3 3.44772 3.44772 3 4 3H12C12.5523 3 13 3.44772 13 4V9.14644L13.1585 8.82951C13.3393 8.46779 13.6466 8.21108 14 8.08615V4C14 2.89543 13.1046 2 12 2H4Z" fill="#CED0D6"/>
<path d="M11 10.0002V8.33492C11 7.84852 10.9362 7.43242 10.7538 7.08662C10.5714 6.73702 10.3187 6.47292 9.9957 6.29432C9.6727 6.11572 9.3022 6.02642 8.8842 6.02642C8.4244 6.02642 8.0235 6.13472 7.6815 6.35132C7.40751 6.52181 7.16913 6.75205 6.98941 7.04204L6.99219 6.89852V4H6V12H6.99219V8.55722C6.99219 8.23802 7.05869 7.95492 7.19169 7.70792C7.32469 7.45712 7.5333 7.26332 7.7727 7.12652C8.0121 6.98592 8.2876 6.91562 8.5992 6.91562C8.8918 6.91562 9.1426 6.97642 9.3516 7.09802C9.5644 7.21582 9.7278 7.39062 9.8418 7.62242C9.9558 7.85042 10.0128 8.12592 10.0128 8.44892V10.0811C10.1656 10.0287 10.3295 10.0002 10.5 10.0002H11Z" fill="#CED0D6"/>
</g>
<defs>
<clipPath id="clip0_13262_13627">
<rect width="16" height="16" fill="white"/>
</clipPath>
</defs>
</svg>
