<svg width="16" height="16" viewBox="0 0 16 16" fill="none" xmlns="http://www.w3.org/2000/svg">
<g clip-path="url(#clip0_8037_14004)">
<path fill-rule="evenodd" clip-rule="evenodd" d="M8.70502 0.593278C8.78584 0.0919017 8.15595 -0.197339 7.82954 0.191264L1.11438 8.18603C0.840944 8.51157 1.07196 9.00875 1.49665 9.00875H5.99554L5.28407 13.4292C5.20336 13.9306 5.83337 14.2197 6.15967 13.831L12.8779 5.82746C13.1512 5.50189 12.9202 5.00486 12.4955 5.00486H7.99392L8.70502 0.593278Z" fill="#45322B"/>
<path fill-rule="evenodd" clip-rule="evenodd" d="M7.23315 5.65379C7.04331 5.43044 6.96083 5.1349 7.00751 4.84529L7.43051 2.22103L2.56996 8.00778H5.99554C6.28833 8.00778 6.56639 8.13643 6.75623 8.35973C6.94607 8.58303 7.0286 8.87851 6.98199 9.16808L6.55824 11.8009L11.4227 6.00583H7.99392C7.70109 6.00583 7.423 5.87715 7.23315 5.65379ZM8.70502 0.593278C8.78584 0.0919017 8.15594 -0.197339 7.82954 0.191264L1.11438 8.18603C0.840944 8.51157 1.07196 9.00875 1.49665 9.00875H5.99554L5.28407 13.4292C5.20336 13.9306 5.83337 14.2197 6.15967 13.831L12.8779 5.82746C13.1512 5.50189 12.9202 5.00486 12.4955 5.00486H7.99392L8.70502 0.593278Z" fill="#C77D55"/>
</g>
<defs>
<clipPath id="clip0_8037_14004">
<rect width="14" height="14" fill="white"/>
</clipPath>
</defs>
</svg>
