<svg width="16" height="16" viewBox="0 0 16 16" fill="none" xmlns="http://www.w3.org/2000/svg">
<path d="M14.8244 9.56495C14.9393 9.06179 15 8.53798 15 8C15 4.13401 11.866 1 8 1C4.13401 1 1 4.13401 1 8C1 11.866 4.13401 15 8 15C7.99978 15 8.00022 15 8 15C8.03905 12.1552 9.56995 9.53682 12.0321 8.13167L12.5331 7.8457L13.0315 8.13636C13.704 8.52853 14.3054 9.01157 14.8244 9.56495Z" fill="#FAF5FF"/>
<path fill-rule="evenodd" clip-rule="evenodd" d="M9 15.0764C9.01235 12.5573 10.3587 10.2379 12.5278 9C14.6737 10.2515 15.9972 12.566 16 15.0716L15.9993 15.0895C13.9341 16.2842 11.2695 16.327 9 15.0764ZM13.9995 11.8955C13.9942 12.9751 13.4172 13.9691 12.4876 14.4997C11.5679 13.9633 11.0007 12.9714 10.9995 11.8976L10.9998 11.8899C11.8849 11.3779 13.0269 11.3595 13.9995 11.8955Z" fill="#39207C"/>
<path d="M14.8244 9.56495C14.9393 9.06179 15 8.53798 15 8C15 4.13401 11.866 1 8 1C4.13401 1 1 4.13401 1 8C1 11.866 4.13401 15 8 15C7.99978 15 8.00022 15 8 15C8.00463 14.6628 8.03086 14.3287 8.07647 13.9995C8.05102 13.9998 8.02553 14 8 14C4.68629 14 2 11.3137 2 8C2 4.68629 4.68629 2 8 2C11.3137 2 14 4.68629 14 8C14 8.25865 13.9836 8.51348 13.9519 8.76351C14.2638 9.00982 14.5552 9.27793 14.8244 9.56495Z" fill="#834DF0"/>
<path fill-rule="evenodd" clip-rule="evenodd" d="M8.89916 11.4046C8.64026 11.4566 8.36202 11.4826 8.06442 11.4826C7.44042 11.4826 6.87926 11.3331 6.38092 11.0341C5.88259 10.7351 5.49259 10.3213 5.21092 9.79265C4.93359 9.25965 4.79492 8.65732 4.79492 7.98565C4.79492 7.33132 4.93576 6.73982 5.21742 6.21115C5.50342 5.68248 5.89559 5.26865 6.39392 4.96965C6.89226 4.66632 7.44909 4.51465 8.06442 4.51465C8.69276 4.51465 9.24309 4.66415 9.71542 4.96315C10.1921 5.26215 10.5583 5.67598 10.8139 6.20465C11.0739 6.73332 11.2039 7.33132 11.2039 7.99865V8.25215H5.85465C5.8879 8.6413 5.98316 8.99664 6.14042 9.31815C6.33976 9.71248 6.61276 10.0201 6.95942 10.2411C7.30609 10.4621 7.69609 10.5726 8.12942 10.5726C8.41976 10.5726 8.68842 10.538 8.93542 10.4686C9.18676 10.395 9.40342 10.291 9.58542 10.1566C9.77176 10.018 9.91475 9.85765 10.0144 9.67565H10.1025C9.62635 10.1972 9.22212 10.779 8.89916 11.4046ZM10.1242 7.39415H5.88181C5.92572 7.11217 6.00542 6.85434 6.12092 6.62065C6.30726 6.23932 6.56942 5.94682 6.90742 5.74315C7.24542 5.53515 7.63542 5.43115 8.07742 5.43115C8.51942 5.43115 8.89642 5.53732 9.20842 5.74965C9.52476 5.96198 9.76309 6.26098 9.92342 6.64665C10.0186 6.87293 10.0855 7.1221 10.1242 7.39415Z" fill="#834DF0"/>
</svg>
