<svg width="16" height="16" viewBox="0 0 16 16" fill="none" xmlns="http://www.w3.org/2000/svg">
<path d="M13 3H3C2.44772 3 2 3.44772 2 4V12C2 12.5523 2.44772 13 3 13H8V14H3C1.89543 14 1 13.1046 1 12V4C1 2.89543 1.89543 2 3 2H13C14.1046 2 15 2.89543 15 4V9.36421L14 8.74006V4C14 3.44772 13.5523 3 13 3Z" fill="#CED0D6"/>
<path d="M4.83353 5.16655C4.63827 4.97129 4.32168 4.97129 4.12642 5.16655C3.93116 5.36181 3.93116 5.67839 4.12642 5.87365L5.75277 7.5L4.12642 9.12635C3.93116 9.32161 3.93116 9.63819 4.12642 9.83345C4.32168 10.0287 4.63827 10.0287 4.83353 9.83345L6.81343 7.85355C7.00869 7.65829 7.00869 7.34171 6.81343 7.14645L4.83353 5.16655Z" fill="#CED0D6"/>
<path fill-rule="evenodd" clip-rule="evenodd" d="M9 9.50215C9 8.32441 10.2951 7.60608 11.2942 8.22967L15.2962 10.7275C16.2372 11.3149 16.2372 12.6851 15.2962 13.2725L11.2942 15.7703C10.2951 16.3939 9 15.6756 9 14.4978V9.50215ZM10.7647 9.07799C10.4317 8.87013 10 9.10957 10 9.50215V14.4978C10 14.8904 10.4317 15.1298 10.7647 14.922L14.7667 12.4241C15.0804 12.2284 15.0804 11.7716 14.7667 11.5758L10.7647 9.07799Z" fill="#57965C"/>
<path d="M10 9.50217C10 9.10959 10.4317 8.87015 10.7647 9.07801L14.7667 11.5758C15.0804 11.7716 15.0804 12.2284 14.7667 12.4242L10.7647 14.922C10.4317 15.1299 10 14.8904 10 14.4978V9.50217Z" fill="#253627"/>
</svg>
