<svg width="16" height="16" viewBox="0 0 16 16" fill="none" xmlns="http://www.w3.org/2000/svg">
<g clip-path="url(#clip0_13261_12016)">
<circle cx="4" cy="11" r="2" fill="#25324D"/>
<path fill-rule="evenodd" clip-rule="evenodd" d="M5.73827 13.4454C5.24786 13.7946 4.64792 14 4 14C2.34315 14 1 12.6569 1 11C1 9.34315 2.34315 8 4 8C5.65685 8 7 9.34315 7 11C7 11.6479 6.7946 12.2479 6.44537 12.7383L7.85355 14.1464C8.04882 14.3417 8.04882 14.6583 7.85355 14.8536C7.65829 15.0488 7.34171 15.0488 7.14645 14.8536L5.73827 13.4454ZM6 11C6 12.1046 5.10457 13 4 13C2.89543 13 2 12.1046 2 11C2 9.89543 2.89543 9 4 9C5.10457 9 6 9.89543 6 11Z" fill="#548AF7"/>
<path d="M5.64055 3.18154C5.526 4.02012 5.57432 4.94739 5.95227 5.78658C6.0095 5.9078 6.01812 6.05156 5.96441 6.18583L5.51929 7.29861C5.21244 7.17253 4.88644 7.08349 4.54688 7.03707L4.95929 6.00604C4.55848 5.00284 4.52621 3.9506 4.64975 3.0462C4.78115 2.08428 5.09436 1.24767 5.38016 0.75073C5.47692 0.5825 5.66228 0.485453 5.85566 0.50178C6.04904 0.518108 6.2155 0.644861 6.28268 0.826931L6.90342 2.50933C6.93468 2.50321 6.96698 2.5 7.00004 2.5H8.368C8.37465 2.5 8.3813 2.50013 8.38795 2.5004L8.82407 2.51782C9.66273 2.5513 10.4592 2.89953 11.0227 3.49503L11.2858 3.77311L13.9755 3.94491C14.1891 3.95478 14.5134 4.00184 14.803 4.12627C15.0718 4.24175 15.5 4.51495 15.5 5.05389C15.5 5.36868 15.4992 6.36087 14.6946 7.34369C14.0336 8.1511 12.8831 8.88981 10.9146 9.28849C10.8401 9.43506 10.7708 9.56344 10.706 9.68348L10.7039 9.68742C10.5405 9.99003 10.4054 10.2401 10.2868 10.5957C10.1221 11.09 10 11.7821 10 13.0001C10 13.2763 9.77618 13.5001 9.50004 13.5001C9.2239 13.5001 9.00004 13.2763 9.00004 13.0001C9.00004 11.7181 9.12797 10.9102 9.33821 10.2795C9.43744 9.9818 9.55834 9.7204 9.68178 9.4793C9.62578 9.48558 9.56926 9.49162 9.51221 9.49743C9.23749 9.52539 8.99211 9.32536 8.96415 9.05063C8.93619 8.77591 9.13622 8.53053 9.41095 8.50257C12.1016 8.2287 13.3409 7.41855 13.9208 6.7102C14.1407 6.44164 14.2771 6.17443 14.3617 5.93258C14.2496 5.97612 14.1276 6 14 6C13.4477 6 13 5.55228 13 5C13 4.96115 13.0023 4.92282 13.0066 4.88512L11.0259 4.75855C10.8998 4.75049 10.7814 4.69499 10.6946 4.60321L10.2964 4.18234C9.9219 3.78648 9.37628 3.54066 8.78418 3.51702L8.35801 3.5H7.26894L7.46913 4.04257C7.56471 4.30164 7.43218 4.58914 7.17311 4.68473C6.91404 4.78032 6.62653 4.64779 6.53095 4.38872L5.79765 2.40126C5.73326 2.64238 5.67834 2.90486 5.64055 3.18154Z" fill="#CED0D6"/>
<path d="M9.50004 6C9.77618 6 10 5.77614 10 5.5C10 5.22386 9.77618 5 9.50004 5C9.2239 5 9.00004 5.22386 9.00004 5.5C9.00004 5.77614 9.2239 6 9.50004 6Z" fill="#CED0D6"/>
</g>
<defs>
<clipPath id="clip0_13261_12016">
<rect width="16" height="16" fill="white"/>
</clipPath>
</defs>
</svg>
