<svg width="20" height="20" viewBox="0 0 20 20" fill="none" xmlns="http://www.w3.org/2000/svg">
<path fill-rule="evenodd" clip-rule="evenodd" d="M10 6.49985V9.99985H13.5L19.703 3.7968C20.0936 3.40627 20.0936 2.77311 19.7031 2.38259L17.6173 0.296799C17.2267 -0.0937251 16.5936 -0.0937245 16.203 0.2968L10 6.49985ZM11.5 7.12117V8.49985H12.8787L16.4089 4.96959L15.0303 3.59091L11.5 7.12117ZM18.2888 3.08969L17.4696 3.90893L16.0909 2.53025L16.9102 1.71101L18.2888 3.08969Z" fill="#6C707E"/>
<path d="M4 3H11.3785L9.87853 4.5H4C3.72386 4.5 3.5 4.72386 3.5 5V16.4977L7.1005 13.7996C7.36005 13.6051 7.67566 13.5 8 13.5H16C16.2761 13.5 16.5 13.2761 16.5 13V9.12117L18 7.62117V13C18 14.1046 17.1046 15 16 15H8L2.79983 18.8967C2.47019 19.1438 2 18.9085 2 18.4966V5C2 3.89543 2.89543 3 4 3Z" fill="#6C707E"/>
</svg>
