<svg width="16" height="16" viewBox="0 0 16 16" fill="none" xmlns="http://www.w3.org/2000/svg">
<rect x="5" y="2" width="1" height="1" fill="#FEAB6C"/>
<rect x="6" y="2" width="1" height="1" fill="#F9D88C"/>
<rect x="7" y="2" width="1" height="1" fill="#FE9E52"/>
<rect x="8" y="2" width="1" height="1" fill="#F9D88C"/>
<rect x="6" y="3" width="1" height="1" fill="#F9DD9D"/>
<rect x="7" y="3" width="1" height="1" fill="#FE9F52"/>
<rect x="8" y="3" width="1" height="1" fill="#F9D88C"/>
<rect x="9" y="3" width="1" height="1" fill="#F9D88C"/>
<rect x="5" y="4" width="1" height="1" fill="#FB5F81"/>
<rect x="6" y="4" width="1" height="1" fill="#F57C7C"/>
<rect x="8" y="4" width="1" height="1" fill="#FE9E52"/>
<rect x="9" y="4" width="1" height="1" fill="#F57C7C"/>
<rect x="4" y="5" width="1" height="1" fill="#FB5F81"/>
<rect x="5" y="5" width="1" height="1" fill="#F57B7C"/>
<rect x="7" y="5" width="1" height="1" fill="#F57B7C"/>
<rect x="9" y="5" width="1" height="1" fill="#C62E53"/>
<rect x="10" y="5" width="1" height="1" fill="#951B39"/>
<rect x="3" y="6" width="1" height="1" fill="#AE72B2"/>
<rect x="6" y="6" width="1" height="1" fill="#F57B7C"/>
<rect x="8" y="6" width="1" height="1" fill="#F57C7B"/>
<rect x="9" y="6" width="1" height="1" fill="#C54D5B"/>
<rect x="1" y="7" width="1" height="1" fill="#951B39"/>
<rect x="4" y="7" width="1" height="1" fill="#AE72B2"/>
<rect x="6" y="7" width="1" height="1" fill="#AE72B2"/>
<rect x="7" y="7" width="1" height="1" fill="#C54D5B"/>
<rect x="8" y="7" width="1" height="1" fill="#C62E53"/>
<rect x="12" y="7" width="1" height="1" fill="#B92D4E"/>
<rect x="5" y="8" width="1" height="1" fill="#A058A3"/>
<rect x="6" y="8" width="1" height="1" fill="#C62E53"/>
<rect x="7" y="8" width="1" height="1" fill="#9A3D70"/>
<path d="M7 4H8V5H7V4Z" fill="#F8416D"/>
<path fill-rule="evenodd" clip-rule="evenodd" d="M7 6V5H6V6H4V7H3V8H2V9H3V10H4V9H5V8H6V6H7ZM4 8V7H5V8H4ZM4 8V9H3V8H4Z" fill="#F8416D"/>
<path d="M8 6V7H7V6H8Z" fill="#F8416D"/>
<path d="M8 6H9V5H8V6Z" fill="#F8416D"/>
<rect x="4" y="9" width="1" height="1" fill="#9A3D70"/>
<rect x="5" y="9" width="1" height="1" fill="#9A3D70"/>
<rect x="11" y="9" width="1" height="1" fill="#951B39"/>
<rect x="4" y="10" width="1" height="1" fill="#9A3D70"/>
<rect x="8" y="11" width="1" height="1" fill="#961B39"/>
<rect x="10" y="11" width="1" height="1" fill="#C62E53"/>
<rect x="12" y="11" width="1" height="1" fill="#951B39"/>
<rect x="1" y="12" width="1" height="1" fill="#951B39"/>
<path d="M3 7H2V8H3V9H2V12H3V13H4V10H3V9H4V8H3V7Z" fill="#A05AA5"/>
<rect x="8" y="12" width="1" height="1" fill="#961B39"/>
<rect x="11" y="12" width="1" height="1" fill="#CC5F00"/>
<rect x="12" y="12" width="1" height="1" fill="#FE9C00"/>
<rect x="13" y="12" width="1" height="1" fill="#951B39"/>
<rect x="10" y="13" width="1" height="1" fill="#961B39"/>
<rect x="11" y="13" width="1" height="1" fill="#C62E53"/>
<path d="M11 6H12V8H13V9H11V10H13V9H14V11H10V12H9V11H8V13H10V14H3V13H4V11H6V10H8V9H9V8H10V7H11V6Z" fill="#F8416C"/>
<path d="M3 13H2V12H3V13Z" fill="#F8416C"/>
<path d="M13 13H12V14H13V13Z" fill="#F8416C"/>
<rect x="3" y="14" width="1" height="1" fill="#961B39"/>
<path d="M9 1H5V2H4V3H5V4H4V5H3V6H2V7H3V6H4V5H5V4H6V3H5V2H9V3H10V5H11V6H10V7H9V8H8V9H6V10H5V11H6V10H8V9H9V8H10V7H11V6H12V7H13V6H12V5H11V3H10V2H9V1Z" fill="#392A31"/>
<path d="M2 8H1V12H2V8Z" fill="#392A31"/>
<path d="M14 8H13V9H12V10H13V9H14V11H13V12H14V11H15V9H14V8Z" fill="#392A31"/>
<path d="M12 11H11V12H9V13H11V12H12V11Z" fill="#392A31"/>
<path d="M3 13H2V14H3V13Z" fill="#392A31"/>
<path d="M13 13H14V14H13V13Z" fill="#392A31"/>
<path d="M13 15V14H4V15H13Z" fill="#392A31"/>
</svg>
