<svg width="16" height="16" viewBox="0 0 16 16" fill="none" xmlns="http://www.w3.org/2000/svg">
<g clip-path="url(#clip0_7133_52115)">
<path d="M7.50069 1C7.77683 1 8.00069 1.22386 8.00069 1.5V2.56574L8.72334 2.08397C8.95311 1.9308 9.26354 1.99289 9.41672 2.22265C9.56989 2.45241 9.50781 2.76285 9.27804 2.91603L8.00069 3.76759V7.13413L10.9164 5.45076L11.0152 3.91876C11.0329 3.64319 11.2707 3.43421 11.5463 3.45198C11.8219 3.46975 12.0309 3.70755 12.0131 3.98312L11.9572 4.84984L12.8802 4.31697C13.1193 4.1789 13.4251 4.26083 13.5632 4.49998C13.7012 4.73913 13.6193 5.04492 13.3802 5.18299L12.4572 5.71586L13.2357 6.10081C13.4833 6.22321 13.5847 6.52309 13.4623 6.77063C13.3399 7.01817 13.04 7.11962 12.7925 6.99722L11.4164 6.31679L8.50063 8.00019L11.4157 9.68321L12.7919 9.00278C13.0394 8.88038 13.3393 8.98183 13.4617 9.22937C13.5841 9.4769 13.4826 9.77679 13.2351 9.89919L12.4565 10.2841L13.3795 10.817C13.6187 10.9551 13.7006 11.2609 13.5625 11.5C13.4244 11.7392 13.1187 11.8211 12.8795 11.683L11.9565 11.1502L12.0124 12.0169C12.0302 12.2924 11.8212 12.5302 11.5457 12.548C11.2701 12.5658 11.0323 12.3568 11.0145 12.0812L10.9157 10.5492L8.00069 8.86625V12.2324L9.27804 13.084C9.50781 13.2372 9.56989 13.5476 9.41672 13.7774C9.26354 14.0071 8.95311 14.0692 8.72334 13.916L8.00069 13.4343V14.5C8.00069 14.7761 7.77683 15 7.50069 15C7.22455 15 7.00069 14.7761 7.00069 14.5V13.4343L6.27804 13.916C6.04828 14.0692 5.73784 14.0071 5.58467 13.7774C5.43149 13.5476 5.49358 13.2372 5.72334 13.084L7.00069 12.2324V8.86618L4.08561 10.5492L3.98681 12.0812C3.96904 12.3568 3.73124 12.5658 3.45567 12.548C3.1801 12.5302 2.97111 12.2924 2.98888 12.0168L3.04478 11.1501L2.12182 11.683C1.88268 11.8211 1.57688 11.7391 1.43881 11.5C1.30074 11.2608 1.38268 10.955 1.62182 10.817L2.54478 10.2841L1.76623 9.89915C1.5187 9.77675 1.41725 9.47687 1.53964 9.22933C1.66204 8.98179 1.96192 8.88034 2.20946 9.00274L3.58561 9.68317L6.50063 8.00019L3.58497 6.31683L2.20882 6.99726C1.96128 7.11966 1.66139 7.01821 1.539 6.77067C1.4166 6.52313 1.51805 6.22325 1.76559 6.10085L2.54414 5.7159L1.62118 5.18303C1.38203 5.04496 1.30009 4.73917 1.43816 4.50002C1.57624 4.26087 1.88203 4.17894 2.12118 4.31701L3.04414 4.84988L2.98824 3.98316C2.97047 3.70759 3.17945 3.46979 3.45502 3.45202C3.73059 3.43425 3.96839 3.64323 3.98617 3.9188L4.08497 5.4508L7.00069 7.1342V3.76759L5.72334 2.91603C5.49358 2.76285 5.43149 2.45241 5.58467 2.22265C5.73784 1.99289 6.04828 1.9308 6.27804 2.08397L7.00069 2.56574V1.5C7.00069 1.22386 7.22455 1 7.50069 1Z" fill="#548AF7"/>
</g>
<defs>
<clipPath id="clip0_7133_52115">
<rect width="16" height="16" fill="white"/>
</clipPath>
</defs>
</svg>
