<svg width="16" height="16" viewBox="0 0 16 16" fill="none" xmlns="http://www.w3.org/2000/svg">
<path fill-rule="evenodd" clip-rule="evenodd" d="M15.3798 12.7116C15.5435 12.8689 15.5436 13.1309 15.3799 13.2883L12.6774 15.8875C12.4232 16.1319 12 15.9518 12 15.5992L12 10.4037C12 10.0512 12.423 9.87106 12.6772 10.1153L15.3798 12.7116Z" fill="#57965C"/>
<path fill-rule="evenodd" clip-rule="evenodd" d="M7.62255 13.2884C7.45909 13.131 7.45916 12.8693 7.62271 12.712L10.3216 10.1164C10.5757 9.87198 10.9989 10.0521 10.9989 10.4047V15.5988C10.9989 15.9515 10.5755 16.1315 10.3214 15.8869L7.62255 13.2884Z" fill="#DB5C5C"/>
<path d="M14.5352 10.5135C14.8354 9.73336 15 8.8859 15 8C15 4.13401 11.866 1 8 1C4.13401 1 1 4.13401 1 8C1 11.8522 4.1117 14.9776 7.95868 14.9999L6.92897 14.0085C6.35679 13.4576 6.35704 12.5416 6.92953 11.991L9.6284 9.39536C9.90905 9.12545 10.2487 9.00344 10.5821 9.00167C10.9361 8.9998 11.216 9.00054 11.4962 9.00128C11.7738 9.00201 12.0517 9.00274 12.4024 9.00094C12.7402 8.9992 13.0854 9.12064 13.37 9.3941L14.5352 10.5135Z" fill="#43454A"/>
<path d="M14.5352 10.5135C14.8354 9.73336 15 8.8859 15 8C15 4.13401 11.866 1 8 1C4.13401 1 1 4.13401 1 8C1 11.8522 4.1117 14.9776 7.95868 14.9999L6.92897 14.0085C6.88731 13.9684 6.84869 13.9263 6.8131 13.8826C4.06789 13.3318 2 10.9074 2 8C2 4.68629 4.68629 2 8 2C11.3137 2 14 4.68629 14 8C14 8.60885 13.9093 9.19651 13.7407 9.75023L14.5352 10.5135Z" fill="#CED0D6"/>
<path d="M7.36084 11.5762C6.93787 11.5098 6.54584 11.3697 6.18477 11.1559C5.66144 10.8426 5.25144 10.4109 4.95477 9.86086C4.6581 9.30753 4.50977 8.68753 4.50977 8.00086C4.50977 7.3142 4.6581 6.69586 4.95477 6.14586C5.25144 5.59253 5.66144 5.16086 6.18477 4.85086C6.7081 4.53753 7.29644 4.38086 7.94977 4.38086C8.5031 4.38086 9.01644 4.4942 9.48977 4.72086C9.9631 4.9442 10.3497 5.25086 10.6497 5.64086C10.9497 6.02753 11.1281 6.45753 11.1847 6.93086H9.97976C9.9231 6.66086 9.7981 6.41586 9.60476 6.19586C9.41477 5.97586 9.17476 5.80086 8.88477 5.67086C8.59809 5.54086 8.2881 5.47586 7.95477 5.47586C7.53477 5.47586 7.15644 5.5842 6.81977 5.80086C6.48644 6.0142 6.22477 6.31253 6.03477 6.69586C5.84809 7.07586 5.75477 7.51086 5.75477 8.00086C5.75477 8.49086 5.84809 8.92753 6.03477 9.31086C6.22477 9.69086 6.4881 9.9892 6.82477 10.2059C7.16144 10.4192 7.54144 10.5259 7.96477 10.5259C8.15675 10.5259 8.33937 10.5067 8.51264 10.4684L7.36084 11.5762Z" fill="#CED0D6"/>
<path d="M10.0139 8.82586C10.0042 8.94055 9.98506 9.05107 9.95641 9.15742C10.1564 9.05235 10.3705 9.00279 10.5821 9.00167C10.8024 9.0005 10.9939 9.00035 11.1748 9.00058C11.2081 8.80439 11.2247 8.60115 11.2247 8.39086V7.83086H8.34977V8.82586H10.0139Z" fill="#CED0D6"/>
</svg>
