<svg width="16" height="16" viewBox="0 0 16 16" fill="none" xmlns="http://www.w3.org/2000/svg">
<path fill-rule="evenodd" clip-rule="evenodd" d="M2.01664 3.39246H2V12.5184H2.00263C2.03051 12.9621 2.2768 13.3344 2.59694 13.6237C2.9371 13.9312 3.40129 14.1852 3.93236 14.3882C4.8666 14.7454 6.08734 14.975 7.42801 15.0262C7.28475 14.7034 7.17457 14.3626 7.1019 14.0082C5.9964 13.9361 5.02177 13.7341 4.28947 13.4542C3.82523 13.2767 3.48396 13.0775 3.2675 12.8819C3.05102 12.6862 3 12.5341 3 12.4343V10.985C3.27236 11.1599 3.58833 11.3128 3.93236 11.4444C4.78685 11.7711 5.88101 11.9911 7.08739 12.0654C7.15219 11.7232 7.25186 11.3934 7.38248 11.0797C6.16143 11.0256 5.08313 10.8137 4.28947 10.5103C3.82523 10.3328 3.48396 10.1337 3.2675 9.93804C3.05102 9.74236 3 9.59029 3 9.49048V8.04112C3.27236 8.21609 3.58833 8.369 3.93236 8.50053C4.99792 8.90791 6.43619 9.14938 8 9.14938C9.56381 9.14938 11.0021 8.90791 12.0676 8.50053C12.4117 8.369 12.7276 8.21609 13 8.04112V9H14V3.39246H13.9834C13.9213 3.00405 13.6924 2.67483 13.4031 2.41334C13.0629 2.10586 12.5987 1.85189 12.0676 1.64885C11.0021 1.24147 9.56381 1 8 1C6.43619 1 4.99792 1.24147 3.93236 1.64885C3.40129 1.85189 2.9371 2.10586 2.59694 2.41334C2.30765 2.67483 2.07865 3.00405 2.01664 3.39246ZM3.2675 3.15519C3.05102 3.35087 3 3.50293 3 3.60275C3 3.70256 3.05102 3.85463 3.2675 4.05031C3.48396 4.24597 3.82523 4.4451 4.28947 4.62258C5.21452 4.97625 6.52624 5.2055 8 5.2055C9.47376 5.2055 10.7855 4.97625 11.7105 4.62258C12.1748 4.4451 12.516 4.24597 12.7325 4.05031C12.949 3.85463 13 3.70256 13 3.60275C13 3.50293 12.949 3.35087 12.7325 3.15519C12.516 2.95953 12.1748 2.7604 11.7105 2.58291C10.7855 2.22925 9.47376 2 8 2C6.52624 2 5.21452 2.22925 4.28947 2.58291C3.82523 2.7604 3.48396 2.95953 3.2675 3.15519ZM3 5.09723V6.54663C3 6.64645 3.05102 6.79851 3.2675 6.99419C3.48396 7.18985 3.82523 7.38898 4.28947 7.56647C5.21452 7.92013 6.52624 8.14938 8 8.14938C9.47376 8.14938 10.7855 7.92013 11.7105 7.56647C12.1748 7.38898 12.516 7.18985 12.7325 6.99419C12.949 6.79851 13 6.64645 13 6.54663V5.09723C12.7276 5.27221 12.4117 5.42512 12.0676 5.55665C11.0021 5.96403 9.56381 6.2055 8 6.2055C6.43619 6.2055 4.99792 5.96403 3.93236 5.55665C3.58833 5.42512 3.27236 5.27221 3 5.09723Z" fill="#3574F0"/>
<path d="M9.90046 10.8571C10.0977 10.6638 10.1009 10.3473 9.90763 10.1501C9.71436 9.95282 9.39779 9.94961 9.20056 10.1429C8.46027 10.8683 8 11.8809 8 13C8 14.1191 8.46027 15.1317 9.20056 15.8571C9.39779 16.0504 9.71436 16.0472 9.90763 15.8499C10.1009 15.6527 10.0977 15.3362 9.90046 15.1429C9.3442 14.5978 9 13.8395 9 13C9 12.1605 9.3442 11.4022 9.90046 10.8571Z" fill="#6C707E"/>
<path d="M14.7994 10.1429C14.6022 9.94961 14.2856 9.95282 14.0924 10.1501C13.8991 10.3473 13.9023 10.6638 14.0995 10.8571C14.6558 11.4022 15 12.1605 15 13C15 13.8395 14.6558 14.5978 14.0995 15.1429C13.9023 15.3362 13.8991 15.6527 14.0924 15.8499C14.2856 16.0472 14.6022 16.0504 14.7994 15.8571C15.5397 15.1317 16 14.1191 16 13C16 11.8809 15.5397 10.8683 14.7994 10.1429Z" fill="#6C707E"/>
<path d="M12 14C12.5523 14 13 13.5523 13 13C13 12.4477 12.5523 12 12 12C11.4477 12 11 12.4477 11 13C11 13.5523 11.4477 14 12 14Z" fill="#6C707E"/>
</svg>
