<svg width="16" height="16" viewBox="0 0 16 16" fill="none" xmlns="http://www.w3.org/2000/svg">
<path fill-rule="evenodd" clip-rule="evenodd" d="M10.8536 10.1464C11.0488 10.3417 11.0488 10.6583 10.8536 10.8536L8.70711 13L10.8536 15.1464C11.0488 15.3417 11.0488 15.6583 10.8536 15.8536C10.6583 16.0488 10.3417 16.0488 10.1464 15.8536L7.64645 13.3536C7.45118 13.1583 7.45118 12.8417 7.64645 12.6464L10.1464 10.1464C10.3417 9.95118 10.6583 9.95118 10.8536 10.1464ZM12.1464 10.1464C12.3417 9.95118 12.6583 9.95118 12.8536 10.1464L15.3536 12.6464C15.5488 12.8417 15.5488 13.1583 15.3536 13.3536L12.8536 15.8536C12.6583 16.0488 12.3417 16.0488 12.1464 15.8536C11.9512 15.6583 11.9512 15.3417 12.1464 15.1464L14.2929 13L12.1464 10.8536C11.9512 10.6583 11.9512 10.3417 12.1464 10.1464Z" fill="#CED0D6"/>
<path d="M14.5625 10.4412C14.8454 9.68113 15 8.85862 15 8C15 4.13401 11.866 1 8 1C4.13401 1 1 4.13401 1 8C1 11.8251 4.06809 14.9337 7.87763 14.999L6.93934 14.0607C6.35355 13.4749 6.35355 12.5251 6.93934 11.9393L9.43934 9.43934C9.73223 9.14645 10.1161 9 10.5 9H12.4994C12.8835 8.99984 13.2676 9.14629 13.5607 9.43934L14.5625 10.4412Z" fill="#402929"/>
<path d="M14.5625 10.4412C14.8454 9.68113 15 8.85862 15 8C15 4.13401 11.866 1 8 1C4.13401 1 1 4.13401 1 8C1 11.8251 4.06809 14.9337 7.87763 14.999L6.93934 14.0607C6.88125 14.0026 6.82892 13.9409 6.78236 13.8764C4.05246 13.3136 2 10.8965 2 8C2 4.68629 4.68629 2 8 2C11.3137 2 14 4.68629 14 8C14 8.57195 13.92 9.12521 13.7705 9.64919L14.5625 10.4412Z" fill="#DB5C5C"/>
<path d="M8.12441 10.7543H7.50591V7.43758C7.50591 6.61761 7.0749 6.10775 6.32852 6.10775C5.5138 6.10775 4.99869 6.68068 4.99869 7.59001V10.7543H4V5.37188H4.96189V6.24862C5.28147 5.60946 5.84915 5.24573 6.6071 5.24573C7.40552 5.24573 8.00368 5.64257 8.29593 6.31537C8.636 5.6473 9.25361 5.24573 10.0657 5.24573C11.2168 5.24573 12 6.07096 12 7.35874V9H11.0013V7.43758C11.0013 6.61761 10.5756 6.10775 9.82392 6.10775C9.01971 6.10775 8.49409 6.68068 8.49409 7.59001V10.3846L8.12441 10.7543Z" fill="#DB5C5C"/>
</svg>
