<svg width="16" height="16" viewBox="0 0 16 16" fill="none" xmlns="http://www.w3.org/2000/svg">
<g clip-path="url(#clip0_13418_11881)">
<path fill-rule="evenodd" clip-rule="evenodd" d="M14.7473 6.28664L14.767 6.33694C15.0401 7.05298 15.0735 7.83833 14.8622 8.57498C14.797 8.80209 14.7096 9.02078 14.6021 9.22821L14.1743 8.51526C12.9625 6.49557 10.0354 6.49556 8.82355 8.51526L6.42249 12.517C6.28773 12.7416 6.18673 12.9732 6.11694 13.2072L5.33418 12.6148L2.43145 10.441L2.41395 10.4286L2.40739 10.4235C1.79476 9.96133 1.34898 9.31251 1.13729 8.57486C0.925596 7.83722 0.959454 7.05075 1.23376 6.33403L1.25271 6.28373L3.16187 1.31292C3.2009 1.21561 3.26948 1.133 3.35796 1.07674C3.44669 1.02166 3.55019 0.99513 3.65447 1.00074C3.75876 1.00634 3.85882 1.04381 3.94113 1.10809C4.02317 1.17394 4.08235 1.26398 4.11025 1.36541L5.39687 5.30181H10.6068L11.8934 1.36541C11.9221 1.26453 11.9811 1.17494 12.0625 1.10882C12.1448 1.04454 12.2449 1.00707 12.3492 1.00146C12.4535 0.995859 12.557 1.02239 12.6457 1.07747C12.7344 1.1335 12.803 1.21619 12.8418 1.31365L14.7473 6.28664Z" fill="#E24329"/>
<path fill-rule="evenodd" clip-rule="evenodd" d="M14.7476 6.28662L14.7673 6.33692C15.041 7.05348 15.0746 7.83957 14.8629 8.57685C14.7977 8.80376 14.7105 9.02227 14.603 9.22954L14.1744 8.51526C13.778 7.8546 13.1981 7.41005 12.5547 7.1816C13.2229 6.7509 13.9663 6.44699 14.7476 6.28662Z" fill="#FC6D26"/>
<path fill-rule="evenodd" clip-rule="evenodd" d="M7.22156 11.1918C6.15246 11.9993 5.33594 12.6177 5.33594 12.6177L6.11976 13.2109C6.18958 12.9756 6.29093 12.7428 6.42639 12.5171L7.22156 11.1918Z" fill="#FCA326"/>
<path fill-rule="evenodd" clip-rule="evenodd" d="M1.25271 6.28369C2.18127 6.475 3.05602 6.8693 3.81429 7.43837L7.70601 10.3778L7.21828 11.1907L5.33418 12.6147L2.43145 10.441L2.41395 10.4286L2.40739 10.4235C1.79476 9.9613 1.34898 9.31247 1.13729 8.57483C0.925596 7.83718 0.959454 7.05071 1.23376 6.33399L1.25271 6.28369Z" fill="#FC6D26"/>
<g clip-path="url(#clip1_13418_11881)">
<path fill-rule="evenodd" clip-rule="evenodd" d="M14.8628 13.546L12.4617 9.54425C12.0267 8.81923 10.9759 8.81923 10.5409 9.54425L8.13983 13.546C7.75592 14.1859 8.21683 14.9999 8.96303 14.9999H14.0396C14.7858 14.9999 15.2467 14.1859 14.8628 13.546ZM15.7202 13.0315L13.3192 9.02976C12.4958 7.6574 10.5068 7.6574 9.68341 9.02976L7.28234 13.0315C6.49851 14.3379 7.43953 15.9999 8.96303 15.9999H14.0396C15.5631 15.9999 16.5041 14.3379 15.7202 13.0315Z" fill="#CED0D6"/>
<path d="M12 10H11V12H12V10Z" fill="#CED0D6"/>
<path d="M12.0001 14L12.0002 13H11.0002L11 14H12.0001Z" fill="#CED0D6"/>
</g>
</g>
<defs>
<clipPath id="clip0_13418_11881">
<rect width="16" height="16" fill="white"/>
</clipPath>
<clipPath id="clip1_13418_11881">
<rect width="9" height="8" fill="white" transform="translate(7 8)"/>
</clipPath>
</defs>
</svg>
