<svg width="16" height="16" viewBox="0 0 16 16" fill="none" xmlns="http://www.w3.org/2000/svg">
<path fill-rule="evenodd" clip-rule="evenodd" d="M6 1C5.44772 1 5 1.44772 5 2V5C5 5.55228 5.44772 6 6 6H7.5V7H5C4.44772 7 4 7.44772 4 8V9H2C1.44772 9 1 9.44771 1 10V13C1 13.5523 1.44772 14 2 14H6C6.55228 14 7 13.5523 7 13V10C7 9.44771 6.55228 9 6 9H5V8H11V9H10C9.44772 9 9 9.44771 9 10V13C9 13.5523 9.44772 14 10 14H14C14.5523 14 15 13.5523 15 13V10C15 9.44771 14.5523 9 14 9H12V8C12 7.44772 11.5523 7 11 7H8.5V6H10C10.5523 6 11 5.55228 11 5V2C11 1.44772 10.5523 1 10 1H6ZM6 2H10V5H6V2ZM6 13V10H2V13H6ZM14 13V10H10V13H14Z" fill="#57965C"/>
<path fill-rule="evenodd" clip-rule="evenodd" d="M10 2H6V5H10V2ZM2 10H6V13H2V10ZM10 10H14V13H10V10Z" fill="#253627"/>
</svg>
