<svg width="20" height="20" viewBox="0 0 20 20" fill="none" xmlns="http://www.w3.org/2000/svg">
<path fill-rule="evenodd" clip-rule="evenodd" d="M16 1C16.5523 1 17 1.44772 17 2C17.5523 2 18 2.44772 18 3C18.5523 3 19 3.44772 19 4V16C19 16.5523 18.5523 17 18 17C18 17.5523 17.5523 18 17 18C17 18.5523 16.5523 19 16 19H4C3.44772 19 3 18.5523 3 18C2.44772 18 2 17.5523 2 17C1.44772 17 1 16.5523 1 16V4C1 3.44772 1.44772 3 2 3C2 2.44772 2.44772 2 3 2C3 1.44772 3.44772 1 4 1H16ZM11.3462 1.1H16C16.4971 1.1 16.9 1.50294 16.9 2L14.1272 2C13.2712 1.55747 12.335 1.2483 11.3462 1.1ZM1.1 11.3462L1.1 16C1.1 16.4971 1.50294 16.9 2 16.9L2 14.1272C1.55747 13.2712 1.2483 12.335 1.1 11.3462ZM2.1 14.3151V16.9H3V15.6573C2.66167 15.2392 2.36003 14.7902 2.1 14.3151ZM3 15.497C2.6587 15.063 2.35689 14.5964 2.1 14.1028V5.89723C2.35689 5.40359 2.6587 4.93704 3 4.50302V15.497ZM3.1 15.7787V16.9H4.22126C3.8155 16.5598 3.44019 16.1845 3.1 15.7787ZM4.37817 16.9C3.91018 16.5182 3.48176 16.0898 3.1 15.6218V4.37817C3.48176 3.91018 3.91018 3.48176 4.37817 3.1L15.6218 3.1C16.0898 3.48176 16.5182 3.91018 16.9 4.37817V15.6218C16.5182 16.0898 16.0898 16.5182 15.6218 16.9H4.37817ZM4.34267 17H3.1V17.9H5.68485C5.2098 17.64 4.76078 17.3383 4.34267 17ZM5.89723 17.9C5.40359 17.6431 4.93704 17.3413 4.50303 17L15.497 17C15.063 17.3413 14.5964 17.6431 14.1028 17.9H5.89723ZM5.8728 18H3.1C3.1 18.4971 3.50294 18.9 4 18.9H8.65383C7.66502 18.7517 6.72885 18.4425 5.8728 18ZM11.3462 18.9H16C16.4971 18.9 16.9 18.4971 16.9 18H14.1272C13.2712 18.4425 12.335 18.7517 11.3462 18.9ZM13.9046 18C12.7257 18.5764 11.4007 18.9 10 18.9C8.59935 18.9 7.27426 18.5764 6.09541 18H13.9046ZM14.3151 17.9H16.9V17H15.6573C15.2392 17.3383 14.7902 17.64 14.3151 17.9ZM15.7787 16.9H16.9V15.7787C16.5598 16.1845 16.1845 16.5598 15.7787 16.9ZM17 15.6573V16.9H17.9V14.3151C17.64 14.7902 17.3383 15.2392 17 15.6573ZM18 14.1272V16.9C18.4971 16.9 18.9 16.4971 18.9 16V11.3462C18.7517 12.335 18.4425 13.2712 18 14.1272ZM18.9 10C18.9 11.4007 18.5764 12.7257 18 13.9046V6.09541C18.5764 7.27426 18.9 8.59935 18.9 10ZM18.9 8.65383V4C18.9 3.50294 18.4971 3.1 18 3.1V5.8728C18.4425 6.72885 18.7517 7.66502 18.9 8.65383ZM17.9 5.68485V3.1H17V4.34266C17.3383 4.76077 17.64 5.2098 17.9 5.68485ZM17 4.50302V15.497C17.3413 15.063 17.6431 14.5964 17.9 14.1028V5.89723C17.6431 5.40358 17.3413 4.93704 17 4.50302ZM16.9 4.22126V3.1H15.7787C16.1845 3.44019 16.5598 3.8155 16.9 4.22126ZM15.6573 3H16.9V2.1H14.3151C14.7902 2.36003 15.2392 2.66167 15.6573 3ZM13.9046 2C12.7257 1.42355 11.4007 1.1 10 1.1C8.59935 1.1 7.27426 1.42356 6.09541 2L13.9046 2ZM5.89723 2.1H14.1028C14.5964 2.35689 15.063 2.6587 15.497 3L4.50302 3C4.93704 2.6587 5.40359 2.35689 5.89723 2.1ZM5.8728 2L3.1 2C3.1 1.50294 3.50294 1.1 4 1.1H8.65383C7.66503 1.2483 6.72885 1.55747 5.8728 2ZM5.68485 2.1C5.2098 2.36003 4.76077 2.66167 4.34266 3H3.1V2.1H5.68485ZM4.22126 3.1H3.1V4.22126C3.44019 3.8155 3.8155 3.44019 4.22126 3.1ZM3 4.34267V3.1H2.1V5.68485C2.36003 5.2098 2.66167 4.76077 3 4.34267ZM2 5.8728L2 3.1C1.50294 3.1 1.1 3.50294 1.1 4L1.1 8.65383C1.2483 7.66502 1.55747 6.72885 2 5.8728ZM2 6.09541C1.42356 7.27426 1.1 8.59935 1.1 10C1.1 11.4007 1.42356 12.7257 2 13.9046L2 6.09541ZM3 2.1C2.50294 2.1 2.1 2.50294 2.1 3L3 3V2.1ZM3 17.9C2.50294 17.9 2.1 17.4971 2.1 17H3V17.9ZM17 17.9V17L17.9 17C17.9 17.4971 17.4971 17.9 17 17.9ZM17 2.1C17.4971 2.1 17.9 2.50294 17.9 3L17 3V2.1Z" fill="#5FB865"/>
</svg>
