<svg width="16" height="16" viewBox="0 0 16 16" fill="none" xmlns="http://www.w3.org/2000/svg">
<path d="M1 4C1 2.89543 1.89543 2 3 2H13C14.1046 2 15 2.89543 15 4V7.25716C14.0491 6.47182 12.8296 6 11.5 6C8.46243 6 6 8.46243 6 11.5V14H3C1.89543 14 1 13.1046 1 12V4Z" fill="#EBECF0"/>
<path fill-rule="evenodd" clip-rule="evenodd" d="M12 7.5C12 7.22386 11.7761 7 11.5 7C11.2239 7 11 7.22386 11 7.5V8.03544C10.407 8.12026 9.86204 8.3537 9.40391 8.69681L9.02513 8.31802C8.82986 8.12276 8.51328 8.12276 8.31802 8.31802C8.12276 8.51328 8.12276 8.82986 8.31802 9.02513L8.69681 9.40391C8.3537 9.86204 8.12026 10.407 8.03544 11H7.5C7.22386 11 7 11.2239 7 11.5C7 11.7761 7.22386 12 7.5 12H8.03544C8.12026 12.593 8.3537 13.138 8.69681 13.5961L8.31802 13.9749C8.12276 14.1701 8.12276 14.4867 8.31802 14.682C8.51328 14.8772 8.82986 14.8772 9.02513 14.682L9.40391 14.3032C9.86204 14.6463 10.407 14.8797 11 14.9646V15.5C11 15.7761 11.2239 16 11.5 16C11.7761 16 12 15.7761 12 15.5V14.9646C12.593 14.8797 13.138 14.6463 13.5961 14.3032L13.9749 14.682C14.1701 14.8772 14.4867 14.8772 14.682 14.682C14.8772 14.4867 14.8772 14.1701 14.682 13.9749L14.3032 13.5961C14.6463 13.138 14.8797 12.593 14.9646 12H15.5C15.7761 12 16 11.7761 16 11.5C16 11.2239 15.7761 11 15.5 11H14.9646C14.8797 10.407 14.6463 9.86204 14.3032 9.40391L14.682 9.02513C14.8772 8.82986 14.8772 8.51328 14.682 8.31802C14.4867 8.12276 14.1701 8.12276 13.9749 8.31802L13.5961 8.69681C13.138 8.3537 12.593 8.12026 12 8.03544V7.5ZM14 11.5C14 10.9905 13.8476 10.5165 13.5858 10.1213C13.4 9.84084 13.1592 9.59999 12.8787 9.41422C12.4835 9.15245 12.0096 9 11.5 9C10.1193 9 9 10.1193 9 11.5C9 12.0096 9.15245 12.4835 9.41422 12.8787C9.59999 13.1592 9.84084 13.4 10.1213 13.5858C10.5165 13.8476 10.9905 14 11.5 14C12.8807 14 14 12.8807 14 11.5Z" fill="#039BA1"/>
<path fill-rule="evenodd" clip-rule="evenodd" d="M1 4C1 2.89543 1.89543 2 3 2H13C14.1046 2 15 2.89543 15 4V7.25716C14.6929 7.00353 14.3578 6.78261 14 6.59971V6H11V6.02242C10.6566 6.05337 10.3223 6.11588 10 6.20703V6H6V14H3C1.89543 14 1 13.1046 1 12V4ZM6 3H10V5H6V3ZM5 3H3C2.44772 3 2 3.44772 2 4V5H5V3ZM2 6V12C2 12.5523 2.44772 13 3 13H5V6H2ZM14 5V4C14 3.44772 13.5523 3 13 3H11V5H14Z" fill="#6C707E"/>
</svg>
