<svg width="16" height="16" viewBox="0 0 16 16" fill="none" xmlns="http://www.w3.org/2000/svg">
<path fill-rule="evenodd" clip-rule="evenodd" d="M12 7.5C12 7.22386 11.7761 7 11.5 7C11.2239 7 11 7.22386 11 7.5V8.03544C10.407 8.12026 9.86204 8.3537 9.40391 8.69681L9.02513 8.31802C8.82986 8.12276 8.51328 8.12276 8.31802 8.31802C8.12276 8.51328 8.12276 8.82986 8.31802 9.02513L8.69681 9.40391C8.3537 9.86204 8.12026 10.407 8.03544 11H7.5C7.22386 11 7 11.2239 7 11.5C7 11.7761 7.22386 12 7.5 12H8.03544C8.12026 12.593 8.3537 13.138 8.69681 13.5961L8.31802 13.9749C8.12276 14.1701 8.12276 14.4867 8.31802 14.682C8.51328 14.8772 8.82986 14.8772 9.02513 14.682L9.40391 14.3032C9.86204 14.6463 10.407 14.8797 11 14.9646V15.5C11 15.7761 11.2239 16 11.5 16C11.7761 16 12 15.7761 12 15.5V14.9646C12.593 14.8797 13.138 14.6463 13.5961 14.3032L13.9749 14.682C14.1701 14.8772 14.4867 14.8772 14.682 14.682C14.8772 14.4867 14.8772 14.1701 14.682 13.9749L14.3032 13.5961C14.6463 13.138 14.8797 12.593 14.9646 12H15.5C15.7761 12 16 11.7761 16 11.5C16 11.2239 15.7761 11 15.5 11H14.9646C14.8797 10.407 14.6463 9.86204 14.3032 9.40391L14.682 9.02513C14.8772 8.82986 14.8772 8.51328 14.682 8.31802C14.4867 8.12276 14.1701 8.12276 13.9749 8.31802L13.5961 8.69681C13.138 8.3537 12.593 8.12026 12 8.03544V7.5ZM14 11.5C14 10.9905 13.8476 10.5165 13.5858 10.1213C13.4 9.84084 13.1592 9.59999 12.8787 9.41422C12.4835 9.15245 12.0096 9 11.5 9C10.1193 9 9 10.1193 9 11.5C9 12.0096 9.15245 12.4835 9.41422 12.8787C9.59999 13.1592 9.84084 13.4 10.1213 13.5858C10.5165 13.8476 10.9905 14 11.5 14C12.8807 14 14 12.8807 14 11.5Z" fill="#039BA1"/>
<path d="M3.60505 8.85501C3.87005 9.08501 3.99755 9.39251 3.98755 9.77751L3.95755 11.57C3.95255 12.06 4.05755 12.4875 4.27255 12.8525C4.49255 13.2225 4.80255 13.505 5.20255 13.7C5.60432 13.8984 6.07006 13.9984 6.59976 14C6.43077 13.6694 6.29425 13.3195 6.19441 12.9544C5.91366 12.8967 5.67804 12.7778 5.48755 12.5975C5.21255 12.3375 5.08005 11.9875 5.09005 11.5475L5.12005 9.77001C5.13005 9.30501 4.99255 8.91001 4.70755 8.58501C4.42255 8.25501 4.03755 8.04501 3.55255 7.95501C4.03755 7.92001 4.42255 7.74251 4.70755 7.42251C4.99255 7.09751 5.13005 6.68001 5.12005 6.17001L5.09005 4.6025C5.08505 4.1125 5.23255 3.725 5.53255 3.44C5.83755 3.15 6.25005 3.005 6.77005 3.005H7.5V2H6.76255C6.18755 2 5.68755 2.105 5.26255 2.315C4.83755 2.525 4.51005 2.825 4.28005 3.215C4.05505 3.605 3.94755 4.06 3.95755 4.58L3.98755 6.16251C3.99755 6.54751 3.87005 6.85501 3.60505 7.08501C3.34005 7.31501 2.98255 7.43001 2.53255 7.43001H2V8.51001H2.53255C2.98255 8.51001 3.34005 8.62501 3.60505 8.85501Z" fill="#6C707E"/>
<path d="M12.0172 6.02399C11.8469 6.00812 11.6744 6 11.5001 6C11.292 6 11.0867 6.01155 10.8846 6.03404L10.912 4.6025C10.917 4.1125 10.767 3.725 10.462 3.44C10.162 3.15 9.75205 3.005 9.23205 3.005H8.5V2H9.23955C9.81455 2 10.3145 2.105 10.7395 2.315C11.1645 2.525 11.4895 2.825 11.7145 3.215C11.9445 3.605 12.0545 4.06 12.0445 4.58L12.0172 6.02399Z" fill="#6C707E"/>
</svg>
