<svg width="16" height="16" viewBox="0 0 16 16" fill="none" xmlns="http://www.w3.org/2000/svg">
<path d="M5.5 2C5.22386 2 5 2.22386 5 2.5C5 2.77614 5.22386 3 5.5 3H12C12.5523 3 13 3.44772 13 4V10.5C13 10.7761 13.2239 11 13.5 11C13.7761 11 14 10.7761 14 10.5V4C14 2.89543 13.1046 2 12 2H5.5Z" fill="#834DF0"/>
<path fill-rule="evenodd" clip-rule="evenodd" d="M8.5 9C9.32843 9 10 8.32843 10 7.5C10 6.67157 9.32843 6 8.5 6C7.67157 6 7 6.67157 7 7.5C7 8.32843 7.67157 9 8.5 9ZM8.5 8C8.77614 8 9 7.77614 9 7.5C9 7.22386 8.77614 7 8.5 7C8.22386 7 8 7.22386 8 7.5C8 7.77614 8.22386 8 8.5 8Z" fill="#834DF0"/>
<path fill-rule="evenodd" clip-rule="evenodd" d="M2 6V12C2 13.1046 2.89543 14 4 14H10C11.1046 14 12 13.1046 12 12V6C12 4.89543 11.1046 4 10 4H4C2.89543 4 2 4.89543 2 6ZM3 8.91748V6C3 5.44772 3.44772 5 4 5H10C10.5523 5 11 5.44772 11 6V12C11 12.3595 10.8102 12.6748 10.5254 12.851L5.5387 8.38373C4.94547 7.8523 4.04034 7.87714 3.47716 8.44032L3 8.91748ZM3 10.3317V12C3 12.5523 3.44772 13 4 13H9.19305L4.87145 9.12856C4.6737 8.95142 4.372 8.9597 4.18427 9.14743L3 10.3317Z" fill="#834DF0"/>
<path d="M8.5 8C8.77614 8 9 7.77614 9 7.5C9 7.22386 8.77614 7 8.5 7C8.22386 7 8 7.22386 8 7.5C8 7.77614 8.22386 8 8.5 8Z" fill="#FAF5FF"/>
<path fill-rule="evenodd" clip-rule="evenodd" d="M3 6V8.91748L3.47716 8.44032C4.04034 7.87714 4.94547 7.8523 5.5387 8.38373L10.5254 12.851C10.8102 12.6748 11 12.3595 11 12V6C11 5.44772 10.5523 5 10 5H4C3.44772 5 3 5.44772 3 6ZM8.5 9C9.32843 9 10 8.32843 10 7.5C10 6.67157 9.32843 6 8.5 6C7.67157 6 7 6.67157 7 7.5C7 8.32843 7.67157 9 8.5 9Z" fill="#FAF5FF"/>
<path d="M3 12V10.3317L4.18427 9.14743C4.372 8.9597 4.6737 8.95142 4.87145 9.12856L9.19305 13H4C3.44772 13 3 12.5523 3 12Z" fill="#FAF5FF"/>
</svg>
