<svg width="16" height="16" viewBox="0 0 16 16" fill="none" xmlns="http://www.w3.org/2000/svg">
<path d="M13.0001 9.5C13.0001 9.22386 12.7762 9 12.5001 9C12.2239 9 12.0001 9.22386 12.0001 9.5V10.5C12.0001 10.7761 12.2239 11 12.5001 11C12.7762 11 13.0001 10.7761 13.0001 10.5V9.5Z" fill="#CED0D6"/>
<path d="M10.152 10.567C9.91286 10.4289 9.60707 10.5109 9.46899 10.75C9.33092 10.9891 9.41286 11.2949 9.65201 11.433L10.5177 11.9328C10.7569 12.0709 11.0627 11.989 11.2008 11.7498C11.3388 11.5107 11.2569 11.2049 11.0177 11.0668L10.152 10.567Z" fill="#CED0D6"/>
<path d="M15.3481 11.433C15.5872 11.2949 15.6692 10.9891 15.5311 10.75C15.393 10.5109 15.0872 10.4289 14.8481 10.567L13.9824 11.0668C13.7433 11.2049 13.6613 11.5107 13.7994 11.7498C13.9375 11.989 14.2433 12.0709 14.4824 11.9328L15.3481 11.433Z" fill="#CED0D6"/>
<path d="M11.0177 13.9331C11.2569 13.7951 11.3388 13.4893 11.2007 13.2501C11.0627 13.011 10.7569 12.9291 10.5177 13.0671L9.65194 13.567C9.41279 13.7051 9.33086 14.0109 9.46893 14.25C9.607 14.4891 9.91279 14.5711 10.1519 14.433L11.0177 13.9331Z" fill="#CED0D6"/>
<path d="M14.4824 13.0672C14.2433 12.9291 13.9375 13.011 13.7994 13.2502C13.6613 13.4893 13.7433 13.7951 13.9824 13.9332L14.8482 14.433C15.0873 14.5711 15.3931 14.4891 15.5312 14.25C15.6692 14.0109 15.5873 13.7051 15.3482 13.567L14.4824 13.0672Z" fill="#CED0D6"/>
<path d="M13.0001 14.5C13.0001 14.2239 12.7762 14 12.5001 14C12.2239 14 12.0001 14.2239 12.0001 14.5V15.5C12.0001 15.7761 12.2239 16 12.5001 16C12.7762 16 13.0001 15.7761 13.0001 15.5V14.5Z" fill="#CED0D6"/>
<path d="M12.5 13.5C13.0523 13.5 13.5 13.0523 13.5 12.5C13.5 11.9477 13.0523 11.5 12.5 11.5C11.9477 11.5 11.5 11.9477 11.5 12.5C11.5 13.0523 11.9477 13.5 12.5 13.5Z" fill="#CED0D6"/>
<path d="M2.21799 3.09202C2 3.51984 2 4.0799 2 5.2V10.8C2 11.9201 2 12.4802 2.21799 12.908C2.40973 13.2843 2.71569 13.5903 3.09202 13.782C3.51984 14 4.0799 14 5.2 14H8.25606C8.09023 13.5308 8 13.026 8 12.5C8 10.0147 10.0147 8 12.5 8C13.026 8 13.5308 8.09023 14 8.25606V5.2C14 4.0799 14 3.51984 13.782 3.09202C13.5903 2.71569 13.2843 2.40973 12.908 2.21799C12.4802 2 11.9201 2 10.8 2H5.2C4.0799 2 3.51984 2 3.09202 2.21799C2.71569 2.40973 2.40973 2.71569 2.21799 3.09202Z" fill="#25324D"/>
<path d="M2 5.2C2 4.0799 2 3.51984 2.21799 3.09202C2.40973 2.71569 2.71569 2.40973 3.09202 2.21799C3.51984 2 4.0799 2 5.2 2H10.8C11.9201 2 12.4802 2 12.908 2.21799C13.2843 2.40973 13.5903 2.71569 13.782 3.09202C14 3.51984 14 4.0799 14 5.2V8.25606C13.6816 8.14352 13.3467 8.06579 13 8.02746V5.2C13 4.62345 12.9992 4.25117 12.9761 3.96784C12.9539 3.69617 12.9162 3.59545 12.891 3.54601C12.7951 3.35785 12.6422 3.20487 12.454 3.10899C12.4045 3.0838 12.3038 3.04612 12.0322 3.02393C11.7488 3.00078 11.3766 3 10.8 3H5.2C4.62345 3 4.25117 3.00078 3.96784 3.02393C3.69617 3.04612 3.59545 3.0838 3.54601 3.10899C3.35785 3.20487 3.20487 3.35785 3.10899 3.54601C3.0838 3.59545 3.04612 3.69617 3.02393 3.96784C3.00078 4.25117 3 4.62345 3 5.2V8.13631L3.83063 7.31334C4.39813 6.75109 5.30671 6.73225 5.89702 7.2705L8.80877 9.92544C8.61272 10.206 8.44783 10.51 8.31915 10.8323L5.22325 8.00944C5.02648 7.83002 4.72362 7.8363 4.53445 8.02372L3 9.54402V10.8C3 11.3766 3.00078 11.7488 3.02393 12.0322C3.04612 12.3038 3.0838 12.4045 3.10899 12.454C3.20487 12.6422 3.35785 12.7951 3.54601 12.891C3.59545 12.9162 3.69617 12.9539 3.96784 12.9761C4.25117 12.9992 4.62345 13 5.2 13H8.02746C8.06579 13.3467 8.14352 13.6816 8.25606 14H5.2C4.0799 14 3.51984 14 3.09202 13.782C2.71569 13.5903 2.40973 13.2843 2.21799 12.908C2 12.4802 2 11.9201 2 10.8V5.2Z" fill="#548AF7"/>
<path fill-rule="evenodd" clip-rule="evenodd" d="M8 6C8 4.89543 8.89543 4 10 4C11.1046 4 12 4.89543 12 6C12 7.10457 11.1046 8 10 8C8.89543 8 8 7.10457 8 6ZM10 5C9.44772 5 9 5.44772 9 6C9 6.55228 9.44772 7 10 7C10.5523 7 11 6.55228 11 6C11 5.44772 10.5523 5 10 5Z" fill="#548AF7"/>
</svg>
