<svg width="16" height="16" viewBox="0 0 16 16" fill="none" xmlns="http://www.w3.org/2000/svg">
<path d="M4.5 4.5V4C4.5 3.17157 3.82843 2.5 3 2.5V2.5M4.5 4.5V12V12C4.5 12.8284 5.17157 13.5 6 13.5V13.5H8M4.5 4.5H1.5V4C1.5 3.17157 2.17157 2.5 3 2.5V2.5M3 2.5H10.5C11.6046 2.5 12.5 3.39543 12.5 4.5V5.5V8" stroke="#548AF7" stroke-linejoin="round"/>
<path fill-rule="evenodd" clip-rule="evenodd" d="M12.5 9C12.7761 9 13 9.22386 13 9.5V12H15.5C15.7761 12 16 12.2239 16 12.5C16 12.7761 15.7761 13 15.5 13H13V15.5C13 15.7761 12.7761 16 12.5 16C12.2239 16 12 15.7761 12 15.5V13H9.5C9.22386 13 9 12.7761 9 12.5C9 12.2239 9.22386 12 9.5 12H12V9.5C12 9.22386 12.2239 9 12.5 9Z" fill="#CED0D6"/>
</svg>
