<svg width="12" height="12" viewBox="0 0 12 12" fill="none" xmlns="http://www.w3.org/2000/svg">
<path fill-rule="evenodd" clip-rule="evenodd" d="M9.9001 8.40202C9.45235 8.80843 9.29063 8.97643 8.79459 9.32226C8.20319 9.73458 7.33665 9.79102 6.75748 9.53155C6.28244 9.31873 5.84147 8.84375 5.88932 8.12793C5.17509 9.00289 4.49317 9.67732 3.58627 9.67732C2.71748 9.67732 2.51558 8.89568 2.51558 8.89568L2.39877 9.91836C2.39877 9.91836 2.21137 10.8981 2.20267 10.9656C2.18085 11.2615 2.02416 11.3421 1.7444 11.4457C1.07837 11.6924 0.33667 11.959 0.210205 12C1.06749 7.98262 1.73048 4.98262 2.5728 1H4.34925C4.07381 2.30209 3.03452 7.2502 3.02749 7.32312C2.95657 8.0234 3.51864 8.24219 4.09433 8.24219C4.56415 8.24219 5.82013 7.7171 5.99214 6.90675C6.40679 4.9533 7.05699 1.89003 7.25351 1H9.00534C8.76684 2.13979 7.99748 5.84321 7.71568 7.21074C7.69129 7.33001 7.68148 7.45179 7.68644 7.57343C7.6651 7.89106 7.90675 8.1567 8.18619 8.24219C8.46564 8.32767 8.81383 8.27535 9.08264 8.12793C9.37022 7.96574 9.64853 7.78761 9.91625 7.59438C10.1985 7.38551 10.4646 7.15565 10.7123 6.90675C10.9596 6.68329 11.3038 6.60157 11.6252 6.69006C11.0296 7.28079 10.4836 7.86432 9.9001 8.40202Z" fill="#6C707E"/>
</svg>
