<svg width="12" height="12" viewBox="0 0 12 12" fill="none" xmlns="http://www.w3.org/2000/svg">
<path fill-rule="evenodd" clip-rule="evenodd" d="M1.78708 11.6332C1.88103 11.7386 2.01876 11.8545 2.21022 11.9282C2.4062 12.0037 2.60455 12.0141 2.78396 11.985C2.94384 11.9591 3.10825 11.941 3.23599 11.9293C3.29896 11.9236 3.35103 11.9196 3.38666 11.9171L3.42669 11.9144L3.43355 11.9139C3.85178 11.8957 4.32354 11.9103 4.86155 11.927L5.10653 11.9345C5.73166 11.9531 6.42356 11.9674 7.10726 11.9168C8.45736 11.817 9.96998 11.451 10.9593 10.157C11.9183 8.90218 12.0849 7.32573 11.9646 5.89532C11.8433 4.45329 11.4195 3.02859 11.0515 1.95735L10.379 0L9.46703 1.86143C8.9641 2.888 7.63438 3.77248 6.44704 4.04943C5.96732 4.16189 5.51595 4.18481 4.98905 4.21156L4.98757 4.21163C4.91408 4.21536 4.83911 4.21917 4.76238 4.22331C4.15949 4.25582 3.46391 4.3098 2.73691 4.58441C1.07457 5.21204 0.217184 6.52932 0.0358832 7.82151C-0.132306 9.02024 0.283084 10.413 1.44424 11.0023C1.45247 11.0213 1.46247 11.0459 1.47667 11.0807L1.50988 11.162C1.54521 11.2484 1.63084 11.4579 1.78708 11.6332ZM3.08955 5.51996C1.78551 6.01231 1.15858 7.0127 1.0256 7.96045C0.89209 8.91206 1.25358 9.78442 1.8962 10.1105L2.20489 10.2672C2.81074 10.1419 4.39596 9.79883 5.36071 9.44968C7.12921 8.80896 9.07208 7.2278 9.71094 5.38977C9.37197 7.30014 7.70117 9.13892 6.02361 9.98338C5.45678 10.2695 4.96978 10.4145 4.31443 10.6096C4.02014 10.6972 3.69186 10.795 3.3072 10.9201C3.30993 10.9199 3.3126 10.9198 3.3152 10.9196L3.31889 10.9193L3.36499 10.9162L3.38064 10.9153L3.38943 10.9149C3.84516 10.895 4.34845 10.9106 4.86684 10.9267L5.13571 10.935C5.75962 10.9535 6.40579 10.966 7.03291 10.9196C8.29349 10.8263 9.43958 10.4975 10.1642 9.54975C10.906 8.57909 11.0785 7.29847 10.9675 5.97915C10.8672 4.78605 10.5366 3.58141 10.2079 2.58704C9.85291 3.17165 9.33535 3.66814 8.79005 4.05332C8.15184 4.50414 7.40542 4.85253 6.67403 5.02319C6.10628 5.15622 5.57742 5.18301 5.07438 5.20849L5.03887 5.21029C4.96504 5.21404 4.89069 5.21781 4.81566 5.22186C4.22593 5.25366 3.66255 5.30351 3.08955 5.51996Z" fill="#CED0D6"/>
</svg>
