<svg width="16" height="16" viewBox="0 0 16 16" fill="none" xmlns="http://www.w3.org/2000/svg">
<path fill-rule="evenodd" clip-rule="evenodd" d="M11.8536 9.14645C11.6583 8.95118 11.3417 8.95118 11.1464 9.14645L8.14645 12.1464C7.95118 12.3417 7.95118 12.6583 8.14645 12.8536L11.1464 15.8536C11.3417 16.0488 11.6583 16.0488 11.8536 15.8536C12.0488 15.6583 12.0488 15.3417 11.8536 15.1464L9.70709 13H15.5C15.7761 13 16 12.7761 16 12.5C16 12.2238 15.7761 12 15.5 12H9.70713L11.8536 9.85355C12.0488 9.65829 12.0488 9.34171 11.8536 9.14645Z" fill="#3574F0"/>
<path fill-rule="evenodd" clip-rule="evenodd" d="M8.00497 3.80108C10.0763 3.80108 12.2698 4.71813 13.6568 5.75228C13.8441 5.89194 14.0995 5.69949 13.9712 5.50403C13.358 4.56985 12.4456 3.60991 11.6635 3.09202C10.59 2.38111 9.31317 2 8.00497 2C6.6968 2 5.41998 2.38111 4.34645 3.09202C3.56517 3.6094 2.65381 4.56794 2.04061 5.50124C1.91215 5.69675 2.1676 5.88909 2.35489 5.74922C3.73942 4.71517 5.92586 3.80108 8.00497 3.80108ZM7.01898 12.1333C5.26211 11.9061 3.52265 11.1184 2.35496 10.2477C2.16767 10.1081 1.91223 10.3005 2.04054 10.496C2.65377 11.4301 3.56615 12.3901 4.3482 12.908C5.23296 13.4939 6.25575 13.8558 7.32039 13.9649C7.11473 13.5193 7 13.023 7 12.5C7 12.3762 7.00643 12.2538 7.01898 12.1333Z" fill="#6C707E"/>
</svg>
