<svg width="20" height="20" viewBox="0 0 20 20" fill="none" xmlns="http://www.w3.org/2000/svg">
<path d="M7 10C7 11.1046 6.10457 12 5 12C3.89543 12 3 11.1046 3 10C3 8.89543 3.89543 8 5 8C6.10457 8 7 8.89543 7 10Z" fill="#FFAF0F"/>
<path d="M4.5 2C3.67157 2 3 2.67157 3 3.5C3 4.32843 3.67157 5 4.5 5H9V10.5C9 12.9853 6.98528 15 4.5 15C3.67157 15 3 15.6716 3 16.5C3 17.3284 3.67157 18 4.5 18C8.64214 18 12 14.6421 12 10.5V3.75C12 2.7835 11.2165 2 10.25 2H4.5Z" fill="#4682FA"/>
<path d="M17 3.5C17 2.67157 16.3284 2 15.5 2C14.6716 2 14 2.67157 14 3.5V16.5C14 17.3284 14.6716 18 15.5 18C16.3284 18 17 17.3284 17 16.5V3.5Z" fill="#4682FA"/>
</svg>
