<svg width="14" height="14" viewBox="0 0 14 14" fill="none" xmlns="http://www.w3.org/2000/svg">
<g clip-path="url(#clip0_8037_14026)">
<circle cx="7" cy="7" r="6.5" stroke="#6C707E"/>
<path d="M9.52634 4.45338C11.1636 6.09059 11.6154 8.32272 9.96026 9.97781C8.30514 11.6329 5.98758 11.1225 4.42233 9.55732C2.85708 7.99211 2.39145 5.64775 4.01078 4.02845C5.63012 2.40914 7.8891 2.81617 9.52634 4.45338Z" fill="#FFF4EB"/>
<path fill-rule="evenodd" clip-rule="evenodd" d="M9.52634 4.45338C11.1636 6.09059 11.6154 8.32272 9.96026 9.97781C8.30514 11.6329 5.98758 11.1225 4.42233 9.55732C2.85708 7.99211 2.39145 5.64775 4.01078 4.02845C5.63012 2.40914 7.8891 2.81617 9.52634 4.45338ZM8.81924 5.1605C9.51799 5.85924 9.90507 6.62771 9.98439 7.32235C10.0442 7.84607 9.93682 8.37523 9.58504 8.87793L5.11211 4.40501C5.60199 4.06741 6.12827 3.95763 6.65544 4.01405C7.35503 4.08891 8.12691 4.46818 8.81924 5.1605ZM4.40382 5.11093L8.87906 9.58617C8.37353 9.93928 7.82543 10.0473 7.27527 9.98213C6.55643 9.89695 5.78438 9.50514 5.12943 8.85021C4.4809 8.20169 4.09686 7.42651 4.01619 6.70244C3.9545 6.14873 4.06497 5.60363 4.40382 5.11093Z" fill="#E66D17"/>
</g>
<defs>
<clipPath id="clip0_8037_14026">
<rect width="14" height="14" fill="white"/>
</clipPath>
</defs>
</svg>
