<svg width="16" height="16" viewBox="0 0 16 16" fill="none" xmlns="http://www.w3.org/2000/svg">
<path fill-rule="evenodd" clip-rule="evenodd" d="M11 0.5C11 0.223858 11.2239 0 11.5 0H15.5C15.7761 0 16 0.223858 16 0.5V4.5C16 4.77614 15.7761 5 15.5 5C15.2239 5 15 4.77614 15 4.5V1.70711L10.8536 5.85355C10.6583 6.04882 10.3417 6.04882 10.1464 5.85355C9.95118 5.65829 9.95118 5.34171 10.1464 5.14645L14.2929 1H11.5C11.2239 1 11 0.776142 11 0.5Z" fill="#3574F0"/>
<path d="M11.8787 2L9.43934 4.43934C8.85355 5.02513 8.85355 5.97487 9.43934 6.56066C10.0251 7.14645 10.9749 7.14645 11.5607 6.56066L14 4.12132V12C14 13.1046 13.1046 14 12 14H4C2.89543 14 2 13.1046 2 12V4C2 2.89543 2.89543 2 4 2H11.8787Z" fill="#FFAF0F"/>
<path d="M9.26649 6.35395C9.126 6.4662 9.00677 6.597 8.90881 6.74635C8.73781 7.00855 8.65231 7.30495 8.65231 7.63555C8.65231 7.912 8.70931 8.16708 8.82331 8.40078C8.94016 8.63163 9.10546 8.824 9.31921 8.9779C9.53296 9.1318 9.78519 9.2344 10.0759 9.2857L11.0891 9.4567C11.3114 9.49375 11.4895 9.5935 11.6234 9.75595C11.7574 9.91555 11.8244 10.1065 11.8244 10.3288C11.8244 10.5055 11.7773 10.6623 11.6833 10.7991C11.5921 10.933 11.461 11.037 11.29 11.1111C11.119 11.1852 10.9209 11.2223 10.6958 11.2223C10.4649 11.2223 10.2597 11.1824 10.0802 11.1026C9.90346 11.0199 9.76524 10.9045 9.66549 10.7563C9.56574 10.6081 9.51586 10.44 9.51586 10.2519H8.50269C8.50554 10.611 8.59959 10.9302 8.78484 11.2095C8.97009 11.4859 9.22659 11.7025 9.55434 11.8593C9.88209 12.0132 10.2583 12.0901 10.6829 12.0901C11.1047 12.0901 11.4795 12.0117 11.8073 11.855C12.135 11.6982 12.3901 11.4831 12.5725 11.2095C12.7549 10.933 12.8461 10.6238 12.8461 10.2818C12.8461 9.99963 12.7834 9.73315 12.658 9.48235C12.5326 9.23155 12.3545 9.02208 12.1236 8.85393C11.8956 8.68578 11.6348 8.57605 11.3413 8.52475L10.3452 8.3623C10.1429 8.3281 9.97899 8.24118 9.85359 8.10153C9.72819 7.95903 9.66549 7.79088 9.66549 7.59708C9.66549 7.43178 9.70824 7.28643 9.79374 7.16103C9.85734 7.06774 9.93987 6.99023 10.0413 6.92848C9.82116 6.85799 9.61406 6.73538 9.43934 6.56066C9.37456 6.49588 9.31694 6.42665 9.26649 6.35395Z" fill="black"/>
<path d="M11.1588 6.84803C11.304 6.77708 11.44 6.68129 11.5607 6.56066L11.909 6.21229C12.1354 6.34677 12.3181 6.51766 12.4571 6.72498C12.6309 6.98433 12.7193 7.28073 12.7221 7.61418H11.7089C11.7089 7.45173 11.6662 7.30638 11.5807 7.17813C11.4952 7.04703 11.3755 6.94585 11.2216 6.8746C11.2011 6.86511 11.1802 6.85626 11.1588 6.84803Z" fill="black"/>
<path d="M4.21289 11H5.22179C5.37569 11 5.51107 10.9686 5.62792 10.906C5.74762 10.8404 5.83882 10.7492 5.90152 10.6323C5.96707 10.5127 5.99984 10.3759 5.99984 10.222L5.99989 6H7.00024L7.00019 10.3584C7.00019 10.6804 6.92894 10.9654 6.78644 11.2134C6.64394 11.4613 6.44587 11.6551 6.19222 11.7948C5.93857 11.9316 5.64787 12 5.32012 12H4.21289V11Z" fill="black"/>
</svg>
