<svg width="20" height="20" viewBox="0 0 20 20" fill="none" xmlns="http://www.w3.org/2000/svg">
<path d="M7.5 16.5H4C3.72386 16.5 3.5 16.2761 3.5 16V4C3.5 3.72386 3.72386 3.5 4 3.5H16C16.2761 3.5 16.5 3.72386 16.5 4V9.5H18V4C18 2.89543 17.1046 2 16 2H4C2.89543 2 2 2.89543 2 4V16C2 17.1046 2.89543 18 4 18H7.5V16.5Z" fill="#6C707E"/>
<path d="M14 11H9V20H14V18.5H10.5V16.5H13.5V15H10.5V12.5H14V11Z" fill="#6C707E"/>
<path d="M20 11H15V20H20V18.5H16.5V16.5H19.5V15H16.5V12.5H20V11Z" fill="#6C707E"/>
</svg>
