<svg width="16" height="16" viewBox="0 0 16 16" fill="none" xmlns="http://www.w3.org/2000/svg">
<path d="M14.8355 1.38965L14.7888 1.41298C14.7888 1.41298 12.1271 2.68115 9.97983 2.9594C8.89833 3.0994 7.32333 3.23998 5.9175 3.32107C5.28544 3.35955 4.65252 3.3823 4.01933 3.38932C3.48442 3.39223 3.0685 3.37065 2.88183 3.32515C2.40677 3.21198 1.9392 3.06937 1.48183 2.89815L1.33483 2.83982L1.53667 3.52348L1 3.99598L1.14467 4.25032L1.40133 4.26957L2.015 4.34598L2.1095 4.64581L2.47992 4.67906L2.66542 5.3079L2.71908 5.3114C2.71908 5.3114 3.49958 5.37848 3.74692 5.37848C3.95983 5.37848 4.28942 5.35515 4.37225 5.34931L4.38625 5.58032L4.55367 5.61181V5.79556L4.087 6.20973L4.17858 6.22606C4.09692 6.2319 4.04617 6.23657 3.88692 6.24357C3.63608 6.25348 3.34208 6.25523 3.18517 6.23306C2.84333 6.1829 2.771 6.1829 2.771 6.1829H2.73833L2.66717 6.25873L2.64033 6.5189H2.729L2.76108 7.16698L4.472 7.10106L4.35242 9.2489L4.34075 9.45131L3.03292 9.37723L3.02125 8.93331H3.33508L3.36833 8.68831L3.639 8.62648L3.76908 8.44448L2.53767 8.14698L1.54308 8.44215L1.81433 8.66848H1.91117L1.92575 8.86331L2.21392 8.87965V9.32473L1.8575 9.41632L1.96833 9.65198L2.02958 9.69165V10.1729H2.22967V12.0956L1.8995 12.1457L1.95667 12.8731L2.1515 12.9058L2.11942 14.272L3.17117 14.2912L2.9845 12.9478L4.14067 12.9198L4.059 13.5539L3.91317 14.1559L5.43508 14.1751L5.45083 12.8451L6.222 12.7751L6.18 13.53L6.14325 14.1075H7.09583L7.06492 12.7658L7.16758 12.7816L7.20667 11.9696H7.06492L7.03108 11.7712L6.95467 11.0187L6.98325 10.2231H7.15533V9.53356L6.943 9.54931L6.96633 9.07915L7.21717 9.05406L7.23058 8.84873L7.33092 8.83415L7.62842 8.60723L6.56267 8.38848L5.56517 8.60956L5.732 8.88315L5.87142 8.87148L5.90292 8.86915L5.92275 9.12698L6.16192 9.11531L6.16425 9.50848L5.27408 9.48806L5.305 8.97648L5.33942 8.43631V7.72873L5.36742 7.05673L7.40033 6.9529L9.82408 6.8129L9.84333 7.20606L9.75467 8.34298L9.71792 9.33056L8.94792 9.31715L8.94442 8.72331L9.27925 8.71106L9.29558 8.49348L9.45308 8.46956L9.44608 8.43631L9.53475 8.43048L9.70392 8.20415L8.53142 7.9294L7.37292 8.1779L7.52342 8.4404L7.60508 8.43456V8.48648H7.74858V8.72098L8.05425 8.72565L8.05075 9.22498H7.74333L7.73517 9.51956L7.84425 9.5324L7.832 10.1029L8.06125 10.1146L8.03558 12.2233L7.7305 12.2863L7.73983 12.5331H7.8425V13.1076H8.01108L7.97025 13.8106L7.90492 14.5771L9.17075 14.6103L9.12992 13.9266L9.04942 13.432L9.03658 13.0861L9.8095 13.0721L9.78617 13.6566L9.78092 14.4324L10.3835 14.4802L11.1138 14.4511L11.4247 14.3595L11.2789 13.9161L11.248 13.3328L11.2013 12.9927L11.9206 12.9665L11.8873 13.3993L11.8838 14.2831L12.3143 14.3233L12.6824 14.314L12.9251 14.2381L12.816 13.4075L12.7874 12.9046L12.9333 12.8889L12.9367 12.3668L12.9834 12.3569L12.9677 12.1061H12.7909L12.7623 11.7986L12.7489 10.2283L12.8784 10.2248V9.69865L12.9344 9.70681V9.4379L12.7396 9.42215L12.7431 8.93448L13.0756 8.90473L13.0563 8.69356L13.208 8.68131L13.194 8.61306L13.5323 8.4439L12.333 8.20298L11.2363 8.42465L11.3711 8.67665L11.5012 8.66498L11.5093 8.7099H11.6277L11.6342 8.9584L11.9532 8.9549L11.9737 9.40581L10.9995 9.39881L10.8758 8.5489L10.772 8.06706L10.6874 7.21015L10.7312 6.77498L12.9752 6.60406L12.9823 5.8364L13.0995 5.80723L13.0861 5.58557L12.9467 5.50506H12.9251L12.7168 5.53423L12.2542 5.6019C11.9388 5.64806 11.6228 5.69007 11.3063 5.7279L11.1955 5.73956L11.1867 5.63573L10.7288 5.39657L10.7323 5.23615L10.8904 5.23148L10.9021 4.83948C10.9546 4.83598 11.1074 4.82548 11.3518 4.80332C11.6342 4.77707 11.9585 4.74206 12.1458 4.69831C12.494 4.61665 12.9927 4.53498 12.9927 4.53498L13.0371 4.5274L13.2751 3.88106L13.7447 3.74456L13.7832 3.63723L14.8215 3.35023L15 3.20323L14.5817 2.2909L14.6092 2.15323L14.8098 2.04823L14.9831 1.51973L14.8355 1.38965ZM9.64792 4.92582L9.64208 5.23265L9.8795 5.24256L9.87017 5.42923L9.40992 5.7314L9.35975 5.8819L8.27475 5.9344L8.28058 5.82706L8.34592 5.72206L8.35175 5.63223L8.35233 5.49923L8.39142 5.40823L8.4095 5.3149V5.26123L8.45617 5.07281L9.64792 4.92582ZM6.62625 5.19473L6.60117 5.34873L6.71725 5.48523L6.70908 5.71098L6.81175 5.86848L6.78433 6.05981L6.79892 6.08023L5.7215 6.1234L5.73317 6.03473L5.35225 5.82823L5.33942 5.62698L5.50858 5.61881L5.5255 5.26998L6.62625 5.19473ZM8.96775 10.1531L9.70158 10.2009L9.67242 11.3314L9.77917 12.2297L8.9975 12.2029L8.96775 10.1531ZM3.00317 10.2021L4.26317 10.2674L4.15 11.0158V11.7269L4.22992 12.032L3.01075 12.0891L3.00317 10.2021ZM11.9725 10.2079V12.1072L11.22 12.1621L11.1897 11.157L11.0975 10.2283L11.9725 10.2079ZM5.26767 10.2522L6.16483 10.2557L6.17475 12.0034L5.34058 12.0186L5.29625 11.4772L5.29275 10.8665L5.26767 10.2522Z" fill="#E55765"/>
</svg>
