<svg width="16" height="16" viewBox="0 0 16 16" fill="none" xmlns="http://www.w3.org/2000/svg">
<path fill-rule="evenodd" clip-rule="evenodd" d="M14 11.9959C14 13.0997 12.2091 14 10 14C7.79086 14 6 13.0997 6 11.9959V7.99864C6 6.89482 7.79086 6 10 6C12.2091 6 14 6.89482 14 7.99864V11.9959ZM13 7.99864C13 7.9997 12.9999 8.00125 12.9994 8.00408C12.9988 8.00703 12.9972 8.0132 12.9932 8.02293C12.9852 8.04266 12.9658 8.07964 12.9222 8.1312C12.831 8.23895 12.6598 8.37887 12.3812 8.51807C11.8235 8.79675 10.983 8.99796 10 8.99796C9.01701 8.99796 8.17653 8.79675 7.61879 8.51807C7.3402 8.37887 7.16902 8.23895 7.07781 8.1312C7.03417 8.07964 7.01484 8.04266 7.00676 8.02293C7.00277 8.0132 7.00124 8.00703 7.00064 8.00408C7.00007 8.00125 7 7.9997 7 7.99864C7 7.99758 7.00007 7.99603 7.00064 7.9932C7.00124 7.99025 7.00277 7.98408 7.00676 7.97435C7.01484 7.95462 7.03417 7.91764 7.07781 7.86608C7.16902 7.75833 7.3402 7.61841 7.61879 7.47921C8.17653 7.20053 9.01701 6.99932 10 6.99932C10.983 6.99932 11.8235 7.20053 12.3812 7.47921C12.6598 7.61841 12.831 7.75833 12.9222 7.86608C12.9658 7.91764 12.9852 7.95462 12.9932 7.97435C12.9972 7.98408 12.9988 7.99025 12.9994 7.9932C12.9999 7.99603 13 7.99758 13 7.99864ZM13 9.32065C12.2671 9.73558 11.1947 9.99728 10 9.99728C8.80531 9.99728 7.73294 9.73558 7 9.32065V9.99186C6.99942 9.99469 7 9.99729 7 9.99729C7 9.99729 7.00007 9.9999 7.00064 10.0027C7.00124 10.0057 7.00277 10.0118 7.00676 10.0216C7.01484 10.0413 7.03417 10.0783 7.07781 10.1298C7.16902 10.2376 7.3402 10.3775 7.61879 10.5167C8.17653 10.7954 9.01701 10.9966 10 10.9966C10.983 10.9966 11.8235 10.7954 12.3812 10.5167C12.6598 10.3775 12.831 10.2376 12.9222 10.1298C12.9658 10.0783 12.9852 10.0413 12.9932 10.0216C12.9972 10.0118 12.9988 10.0057 12.9994 10.0027C12.9999 9.9999 13 9.99729 13 9.99729C13 9.99729 12.9999 9.99468 12.9994 9.99185L13 9.32065ZM13 11.3193C12.2671 11.7342 11.1947 11.9959 10 11.9959C8.80531 11.9959 7.73294 11.7342 7 11.3193V11.9959C6.99942 11.9988 7 12.0014 7 12.0014C7 12.0014 7.00007 12.004 7.00064 12.0068C7.00124 12.0097 7.00277 12.0159 7.00676 12.0256C7.01484 12.0454 7.03417 12.0824 7.07781 12.1339C7.16902 12.2417 7.3402 12.3816 7.61879 12.5208C8.17653 12.7995 9.01701 13.0007 10 13.0007C10.983 13.0007 11.8235 12.7995 12.3812 12.5208C12.6598 12.3816 12.831 12.2417 12.9222 12.1339C12.9658 12.0824 12.9852 12.0454 12.9932 12.0256C12.9972 12.0159 12.9988 12.0097 12.9994 12.0068C12.9999 12.004 13 12.0014 13 12.0014C13 12.0014 13 12.0005 12.9999 11.9993C12.9998 11.9983 12.9996 11.9971 12.9994 11.9959L13 11.3193Z" fill="#CED0D6"/>
<path d="M3 1C1.89543 1 1 1.89543 1 3V11C1 12.1046 1.89543 13 3 13H5.25888C5.09786 12.7056 5 12.3713 5 11.9959V7.99864C5 6.86355 5.89469 6.10551 6.7246 5.69084C7.61452 5.24618 8.77394 5 10 5C11.1032 5 12.1525 5.19932 13 5.56321V3C13 1.89543 12.1046 1 11 1H3Z" fill="#25324D"/>
<path d="M1 3C1 1.89543 1.89543 1 3 1H11C11.1381 1 11.2729 1.01399 11.4031 1.04063C12.3144 1.22713 13 2.0335 13 3V5.56321C12.6911 5.43058 12.3554 5.31981 12 5.23258V3C12 2.96548 11.9983 2.93137 11.9948 2.89776C11.9436 2.3935 11.5178 2 11 2H3C2.44772 2 2 2.44772 2 3V11C2 11.5523 2.44772 12 3 12H5C5.00071 12.3737 5.09844 12.7066 5.25888 13H3C2.93096 13 2.86275 12.9965 2.79551 12.9897C1.787 12.8873 1 12.0355 1 11V3Z" fill="#548AF7"/>
</svg>
