<svg width="16" height="16" viewBox="0 0 16 16" fill="none" xmlns="http://www.w3.org/2000/svg">
<path d="M9 12C9 13.6569 10.3431 15 12 15C13.6569 15 15 13.6569 15 12C15 10.3431 13.6569 9 12 9V12H9Z" fill="#57965C"/>
<path d="M4 9C2.34315 9 1 10.3431 1 12C1 13.6569 2.34315 15 4 15C5.65685 15 7 13.6569 7 12H4V9Z" fill="#F2C55C"/>
<path d="M12 7C13.6569 7 15 5.65685 15 4C15 2.34315 13.6569 1 12 1C10.3431 1 9 2.34315 9 4H12V7Z" fill="#DB5C5C"/>
<path d="M7 4C7 2.34315 5.65685 1 4 1C2.34315 1 1 2.34315 1 4C1 5.65685 2.34315 7 4 7V4H7Z" fill="#548AF7"/>
</svg>
