<svg width="16" height="16" viewBox="0 0 16 16" fill="none" xmlns="http://www.w3.org/2000/svg">
<path d="M10 10V14C10 14.5523 9.55228 15 9 15C8.44772 15 8 14.5523 8 14H7C7 15.1046 7.89543 16 9 16C10.1046 16 11 15.1046 11 14V10H10Z" fill="#C77D55"/>
<path d="M13.75 10C12.7835 10 12 10.7835 12 11.75C12 12.7165 12.7835 13.5 13.75 13.5H14.25C14.6642 13.5 15 13.8358 15 14.25C15 14.6642 14.6642 15 14.25 15H13.5C13.2239 15 13 14.7761 13 14.5H12C12 15.3284 12.6716 16 13.5 16H14.25C15.2165 16 16 15.2165 16 14.25C16 13.2835 15.2165 12.5 14.25 12.5H13.75C13.3358 12.5 13 12.1642 13 11.75C13 11.3358 13.3358 11 13.75 11H14.5C14.7761 11 15 11.2239 15 11.5H16C16 10.6716 15.3284 10 14.5 10H13.75Z" fill="#C77D55"/>
<path d="M7 3H10V9H9V13H7V3Z" fill="#43454A"/>
<path d="M6 13V5H3V13H6Z" fill="#43454A"/>
<path d="M14 9H11V7H14V9Z" fill="#43454A"/>
<path fill-rule="evenodd" clip-rule="evenodd" d="M14 6H11V3C11 2.44772 10.5523 2 10 2H7C6.44772 2 6 2.44772 6 3V4H3C2.44772 4 2 4.44772 2 5V13C2 13.5523 2.44772 14 3 14H6V13H7V3H10V9H11V7H14V9H14.5C14.6712 9 14.8384 9.01722 15 9.05001V7C15 6.44772 14.5523 6 14 6ZM6 13H3L3 5H6V13Z" fill="#CED0D6"/>
</svg>
