<svg width="16" height="16" viewBox="0 0 16 16" fill="none" xmlns="http://www.w3.org/2000/svg">
<path fill-rule="evenodd" clip-rule="evenodd" d="M15.3798 12.7117C15.5435 12.8691 15.5436 13.131 15.3799 13.2884L12.6774 15.8876C12.4232 16.132 12 15.9519 12 15.5993L12 10.4038C12 10.0513 12.423 9.87118 12.6772 10.1154L15.3798 12.7117Z" fill="#55A76A"/>
<path fill-rule="evenodd" clip-rule="evenodd" d="M7.62255 13.2883C7.45909 13.1309 7.45916 12.8692 7.62271 12.7119L10.3216 10.1163C10.5757 9.87185 10.9989 10.0519 10.9989 10.4045V15.5986C10.9989 15.9514 10.5755 16.1314 10.3214 15.8868L7.62255 13.2883Z" fill="#E55765"/>
<path fill-rule="evenodd" clip-rule="evenodd" d="M12.1725 5.59135C12.5569 3.83203 12.3545 2.43161 11.4999 1.93823C10.6454 1.44485 9.33141 1.96977 8.00002 3.18229C6.66861 1.96975 5.35462 1.44482 4.50007 1.93819C3.64551 2.43157 3.44312 3.83202 3.82753 5.59135C2.11166 6.13811 1 7.01361 1 8.00039C1 8.98714 2.1116 9.86263 3.8274 10.4094C3.44298 12.1687 3.64536 13.5692 4.49993 14.0626C5.07815 14.3964 5.86671 14.264 6.72868 13.7679C6.57644 13.5361 6.50016 13.2688 6.5 13.0016C6.49993 12.9049 6.5098 12.8083 6.5296 12.7133C6.14132 12.9758 5.80383 13.132 5.53381 13.2024C5.21683 13.2851 5.06579 13.2346 4.99993 13.1966C4.93407 13.1585 4.81476 13.053 4.72789 12.7371C4.63942 12.4155 4.60884 11.949 4.6809 11.3448C4.70655 11.1298 4.74444 10.9036 4.7946 10.6681C5.27303 10.7739 5.78359 10.8567 6.31835 10.9133C6.56291 11.2495 6.81388 11.5653 7.06806 11.8583L7.78986 11.1641C7.74266 11.1092 7.69551 11.0534 7.64843 10.9967C7.75176 10.9989 7.85568 11.0001 7.96013 11.0003L9.03602 9.96562C8.70027 9.98841 8.35427 10.0004 8 10.0004C7.61235 10.0004 7.23459 9.98604 6.86934 9.95889C6.66318 9.65612 6.46186 9.33612 6.26802 9.00037C6.07415 8.66459 5.89767 8.3302 5.73853 8.00025C5.89763 7.67038 6.07407 7.33609 6.26788 7.0004C6.46172 6.66466 6.66305 6.34466 6.8692 6.04189C7.2345 6.01474 7.6123 6.00039 8 6.00039C8.38771 6.00039 8.76552 6.01474 9.13083 6.0419C9.33698 6.34465 9.53829 6.66464 9.73212 7.00037C9.92593 7.33607 10.1024 7.67037 10.2615 8.00024C10.1023 8.33021 9.92585 8.66461 9.73198 9.0004C9.58762 9.25045 9.43911 9.49175 9.28755 9.72371L9.6284 9.3959C9.91636 9.11895 10.2664 8.99772 10.6081 9.00232L11.2329 9.00037H11.7644C11.6475 8.67253 11.5137 8.33822 11.3635 8.00023C11.5819 7.50895 11.7654 7.02546 11.9129 6.55831C12.142 6.63263 12.3568 6.71291 12.5558 6.79821C13.1151 7.0379 13.5038 7.29762 13.7382 7.53509C13.9683 7.76825 14 7.92434 14 8.00039C14 8.07644 13.9683 8.23252 13.7382 8.46569C13.546 8.66039 13.2501 8.87004 12.8415 9.07136C13.0288 9.13399 13.2091 9.24 13.37 9.39459L13.7196 9.73039C14.5261 9.24151 15 8.64467 15 8.00039C15 7.01361 13.8883 6.13811 12.1725 5.59135ZM10.7707 6.80663C10.7146 6.70456 10.6571 6.60245 10.5981 6.50037C10.5392 6.39826 10.4795 6.29736 10.4191 6.19772C10.5995 6.2285 10.7752 6.26252 10.9459 6.29955C10.8926 6.46582 10.8342 6.63501 10.7707 6.80663ZM11.2053 5.33267C10.7269 5.22689 10.2165 5.14405 9.68183 5.08754C9.36551 4.6527 9.03849 4.25198 8.70765 3.89056C8.88649 3.72941 9.06338 3.58355 9.23673 3.45385C9.72394 3.08936 10.1432 2.88259 10.466 2.79836C10.783 2.71566 10.9341 2.76623 10.9999 2.80425C11.0658 2.84228 11.1851 2.94779 11.272 3.26366C11.3604 3.58536 11.391 4.05185 11.319 4.65603C11.2933 4.87103 11.2554 5.09718 11.2053 5.33267ZM5.05403 9.7012C5.1073 9.53484 5.16573 9.36555 5.22931 9.19384C5.28544 9.296 5.34301 9.3982 5.40199 9.50037C5.46096 9.6025 5.52067 9.70342 5.58106 9.80308C5.40056 9.77229 5.22474 9.73825 5.05403 9.7012ZM4.63653 8.00023C4.41809 8.4916 4.23456 8.97519 4.08697 9.44243C3.85797 9.36812 3.64319 9.28785 3.44417 9.20256C2.8849 8.96288 2.4962 8.70315 2.26184 8.46569C2.03173 8.23252 2 8.07644 2 8.00039C2 7.92434 2.03173 7.76825 2.26184 7.53509C2.4962 7.29762 2.8849 7.0379 3.44417 6.79821C3.64322 6.7129 3.85805 6.63263 4.08709 6.55831C4.23466 7.02546 4.41814 7.50896 4.63653 8.00023ZM5.22934 6.80664C5.28542 6.70458 5.34293 6.60247 5.40186 6.5004C5.46082 6.39828 5.52052 6.29737 5.58091 6.19772C5.4005 6.2285 5.22478 6.26252 5.05416 6.29955C5.1074 6.46582 5.16579 6.63502 5.22934 6.80664ZM7.64829 5.00411C7.7648 5.00164 7.88206 5.00039 8 5.00039C8.11795 5.00039 8.23522 5.00164 8.35174 5.00411C8.23483 4.8632 8.11745 4.72797 8.00002 4.59867C7.88259 4.72797 7.7652 4.86319 7.64829 5.00411ZM7.29238 3.89055C6.96154 4.25198 6.63452 4.65269 6.3182 5.08753C5.78354 5.14404 5.27308 5.22689 4.79472 5.33266C4.74457 5.09717 4.70668 4.87101 4.68104 4.65599C4.60898 4.05181 4.63956 3.58532 4.72803 3.26363C4.8149 2.94776 4.93421 2.84224 5.00007 2.80422C5.06593 2.76619 5.21696 2.71563 5.53395 2.79833C5.85678 2.88256 6.27606 3.08932 6.76327 3.45382C6.93664 3.58352 7.11353 3.7294 7.29238 3.89055Z" fill="#C27D04"/>
<path d="M9 8.00039C9 8.55267 8.55229 9.00039 8 9.00039C7.44772 9.00039 7 8.55267 7 8.00039C7 7.4481 7.44772 7.00039 8 7.00039C8.55229 7.00039 9 7.4481 9 8.00039Z" fill="#C27D04"/>
</svg>
