<svg width="16" height="16" viewBox="0 0 16 16" fill="none" xmlns="http://www.w3.org/2000/svg">
<path d="M15.7673 10.5015C14.8426 9.81209 13.3803 9.20072 11.9994 9.20072C10.6133 9.20072 9.15571 9.81011 8.23268 10.4995C8.10783 10.5927 7.93753 10.4645 8.02316 10.3342C8.43197 9.71196 9.03954 9.07293 9.56039 8.72801C10.2761 8.25407 11.1273 8 11.9994 8C12.8715 8 13.7227 8.25407 14.4384 8.72801C14.9598 9.07327 15.5681 9.71324 15.9769 10.336C16.0624 10.4663 15.8921 10.5946 15.7673 10.5015Z" fill="#E08855"/>
<path d="M8.23274 13.4985C9.15736 14.1879 10.6197 14.7993 12.0006 14.7993C13.3867 14.7993 14.8443 14.1899 15.7673 13.5005C15.8922 13.4073 16.0625 13.5355 15.9768 13.6658C15.568 14.288 14.9605 14.9271 14.4396 15.272C13.7239 15.7459 12.8727 16 12.0006 16C11.1285 16 10.2773 15.7459 9.56156 15.272C9.0402 14.9267 8.43194 14.2868 8.02312 13.664C7.93758 13.5337 8.10787 13.4054 8.23274 13.4985Z" fill="#E08855"/>
<path d="M3.00021 2H6.12186C6.39429 2 6.65492 2.11115 6.84352 2.30775L8.46684 4L13.0002 4C14.1048 4 15.0002 4.89543 15.0002 6L15 7.99963C14.1643 7.37195 13.1256 7 12 7C9.23858 7 7 9.23858 7 12C7 12.7111 7.14845 13.3875 7.41604 14H3.00002C1.89542 14 0.999973 13.1045 1 12L1.00019 3.99995C1.00022 2.8954 1.89565 2 3.00021 2Z" fill="#43454A"/>
<path d="M3.00021 3L6.12186 3L8.04039 5H13.0002C13.5525 5 14.0002 5.44773 14.0002 6.00002L14.0002 7.41611C14.3571 7.57208 14.6923 7.76852 15 7.99963V6C15 4.89543 14.1048 4 13.0002 4L8.46684 4L6.84352 2.30775C6.65492 2.11115 6.39429 2 6.12186 2H3.00021C1.89565 2 1.00022 2.8954 1.00019 3.99995L1 12C0.999973 13.1045 1.89542 14 3.00002 14H7.41604C7.27732 13.6825 7.17062 13.3478 7.10002 13H3.00002C2.44772 13 1.99999 12.5523 2.00001 12L2.0002 3.99998C2.00022 3.4477 2.44793 3 3.00021 3Z" fill="#CED0D6"/>
</svg>
