<svg width="16" height="16" viewBox="0 0 16 16" fill="none" xmlns="http://www.w3.org/2000/svg">
<rect x="1.5" y="1.5" width="5" height="5" rx="0.5" fill="#EBECF0" stroke="#6C707E"/>
<rect x="8.5" y="1.5" width="5" height="5" rx="0.5" fill="#EBECF0" stroke="#6C707E"/>
<rect x="3.5" y="8.5" width="5" height="5" rx="0.5" fill="#EBECF0" stroke="#6C707E"/>
<path d="M12 12H14V11H12V12Z" fill="#3574F0"/>
<path d="M12 14H14V13H12V14Z" fill="#3574F0"/>
<path fill-rule="evenodd" clip-rule="evenodd" d="M11 9C10.4477 9 10 9.44772 10 10V15C10 15.5523 10.4477 16 11 16H15C15.5523 16 16 15.5523 16 15V10C16 9.44772 15.5523 9 15 9H11ZM15 10H11V15H15V10Z" fill="#3574F0"/>
</svg>
