<svg width="16" height="16" viewBox="0 0 16 16" fill="none" xmlns="http://www.w3.org/2000/svg">
<path d="M10 10H14.6445L12.6748 11.9697C12.3819 12.2626 12.3819 12.7374 12.6748 13.0303L14.6445 15H10V10Z" fill="#FAF5FF"/>
<path fill-rule="evenodd" clip-rule="evenodd" d="M9 10C9 9.44771 9.44772 9 10 9H15.248C15.9162 9 16.2508 9.80786 15.7783 10.2803L13.5587 12.5L15.7783 14.7197C16.2508 15.1921 15.9162 16 15.248 16H10C9.44772 16 9 15.5523 9 15V10ZM14.6445 10L10 10V15H14.6445L12.6748 13.0303C12.3819 12.7374 12.3819 12.2626 12.6748 11.9697L14.6445 10Z" fill="#834DF0"/>
<path d="M2 12V4C2 2.89543 2.89543 2 4 2H12C13.1046 2 14 2.89543 14 4V8H10C8.89543 8 8 8.89543 8 10V14H4C2.89543 14 2 13.1046 2 12Z" fill="#EBECF0"/>
<path d="M2 12V4C2 2.89543 2.89543 2 4 2H12C13.1046 2 14 2.89543 14 4V8H13V5.40026L10.8729 8H10C9.84054 8 9.68544 8.01866 9.53676 8.05392L12.9868 3.83719C12.9091 3.36234 12.4968 3 12 3H4C3.44772 3 3 3.44772 3 4V10.5989L6.61328 6.18262C6.71368 6.05991 6.86632 5.99209 7.02468 5.99983C7.18304 6.00758 7.32834 6.08997 7.41629 6.22189L8.84593 8.36636C8.55873 8.56962 8.32749 8.8467 8.17983 9.16998L6.95919 7.33902L3.01307 12.1621C3.09051 12.6373 3.5029 13 4 13H8V14H4C2.89543 14 2 13.1046 2 12Z" fill="#6C707E"/>
</svg>
