<svg width="16" height="16" viewBox="0 0 16 16" fill="none" xmlns="http://www.w3.org/2000/svg">
<path d="M1.5 8C1.5 7.17157 2.17157 6.5 3 6.5H8C8.82843 6.5 9.5 7.17157 9.5 8V12C9.5 12.8284 8.82843 13.5 8 13.5H3C2.17157 13.5 1.5 12.8284 1.5 12V8Z" fill="#43454A" stroke="#CED0D6"/>
<path d="M3 2C1.89543 2 1 2.89543 1 4V4.5C1 4.77614 1.22386 5 1.5 5C1.77614 5 2 4.77614 2 4.5V4C2 3.44772 2.44772 3 3 3H13C13.5523 3 14 3.44772 14 4V12C14 12.5523 13.5523 13 13 13H11.5C11.2239 13 11 13.2239 11 13.5C11 13.7761 11.2239 14 11.5 14H13C14.1046 14 15 13.1046 15 12V4C15 2.89543 14.1046 2 13 2H3Z" fill="#CED0D6"/>
</svg>
