<svg width="64" height="64" viewBox="0 0 64 64" fill="none" xmlns="http://www.w3.org/2000/svg">
<path fill-rule="evenodd" clip-rule="evenodd" d="M25.5613 7.7384C25.0577 8.74588 24.7262 9.98456 24.6974 11.504C24.575 17.949 24.9743 16.9522 24.7279 19.9096C24.6147 21.2691 24.464 21.7738 23.7805 23.4136C23.0368 25.1978 22.2395 26.2135 21.133 27.7767C19.7605 29.7157 17.8687 32.3721 16.8331 34.5014C16.241 35.7096 15.7469 37.5518 15.5627 38.7742C15.4396 39.5914 15.4253 40.648 15.4529 41.638C14.723 42.28 14.3481 43.3608 13.5981 44.1852C13.1143 44.7156 12.1792 44.8876 11.1428 45.0908C10.2536 45.2632 9.31281 45.6136 8.98393 46.1496C8.94721 46.2092 8.91401 46.2712 8.88353 46.3352C8.13469 47.7944 9.05121 50.2992 8.60421 52.152C8.41493 52.9396 8.09173 53.6808 8.08597 54.3604C8.08397 54.7104 8.16245 55.082 8.40341 55.504C8.66729 55.9684 9.24669 56.2996 10.0709 56.588C10.8396 56.8568 11.8378 57.0932 12.9985 57.37L13.4001 57.4648C13.9221 57.5904 14.4422 57.7164 14.9681 57.8228C15.3103 57.8944 15.5093 57.9292 15.6793 57.96C16.4194 58.0936 16.7005 58.146 18.6739 58.926C19.15 59.1136 19.6778 59.3148 20.2361 59.4872C21.3395 59.8336 22.5863 60.0852 23.7374 59.8744C24.3207 59.768 24.8714 59.5432 25.3609 59.1564C25.8676 58.7556 26.3552 58.2156 26.7013 57.668C26.7939 57.522 26.8795 57.3708 26.9543 57.2152C27.02 57.0836 27.0783 56.9492 27.1269 56.812C27.1733 56.6868 27.212 56.5568 27.2401 56.4264C27.7045 56.192 28.8534 55.8384 31.5889 55.8116C35.7117 55.7712 38.4576 57.2768 38.4576 57.2768L38.4596 57.246C38.494 57.4436 38.5361 57.6272 38.5897 57.8032C38.6681 58.0608 38.7732 58.2968 38.9147 58.5252C39.0581 58.7516 39.236 58.9664 39.4616 59.1776C39.7064 59.406 40.0009 59.6168 40.3374 59.7968C40.651 59.9632 41.003 60.1028 41.389 60.2052C41.741 60.2984 42.1214 60.36 42.525 60.3796C42.9018 60.3988 43.2954 60.3816 43.7066 60.3216C44.401 60.2208 44.9362 59.9984 45.397 59.71C45.8466 59.4292 46.2138 59.0924 46.5886 58.748L46.5998 58.7384C46.8466 58.512 47.097 58.2816 47.3742 58.0704C47.5598 57.9292 47.7302 57.7976 47.8926 57.67C48.1334 57.482 48.2674 57.3756 48.403 57.2672C48.8106 56.944 49.231 56.6072 49.6518 56.29C50.0878 55.9628 50.5506 55.63 51.0534 55.3048C51.4342 55.0572 51.8622 54.7764 52.2734 54.5036C52.6982 54.2212 53.1414 53.9248 53.5602 53.6344C54.3082 53.1204 55.3406 52.4832 55.7318 51.6552C55.8622 51.3992 55.9326 51.1248 55.9134 50.8296C55.8522 49.8832 54.745 49.0296 53.7662 48.182C53.2898 47.7676 52.8098 47.3572 52.5594 46.9372C52.357 46.5988 52.1122 46.0876 52.0434 45.716C51.8498 44.6856 51.8542 43.916 51.3722 43.2352C50.9298 42.6104 50.543 42.4308 49.861 42.3528C49.759 42.3412 49.663 42.3264 49.5698 42.3112C50.0126 40.6608 50.1598 39.609 50.0306 38.2301C49.5778 33.3995 46.5214 29.8625 44.8598 27.4679C43.775 25.9048 42.5178 24.2959 41.9754 23.2246C41.433 22.1532 41.0294 20.6628 40.765 19.7995C40.5046 18.9492 40.367 16.9265 40.3326 13.646C40.455 8.61964 38.9177 6.29908 37.0571 4.85136C35.1965 3.40367 32.4659 3.4269 31.4811 3.51398C30.6555 3.58684 27.1823 4.43 25.5613 7.7384Z" fill="#191919"/>
<path fill-rule="evenodd" clip-rule="evenodd" d="M13.1836 45.1196C12.2052 45.5956 9.9522 45.586 9.40564 46.5336C8.80564 47.576 9.19356 48.7308 9.19928 50.0616C9.20128 51.0036 9.18588 52.0516 8.7942 53.1676C8.47312 54.0864 8.3642 54.4116 8.82472 55.22C9.28524 56.0304 11.2841 56.4192 13.988 57.0728C16.694 57.7248 15.8321 57.2432 18.861 58.4404C20.7375 59.1828 23.386 60.094 25.102 58.738C25.7346 58.2372 26.7722 57.104 26.8353 55.9996C26.8716 55.3688 26.8142 54.6956 26.6652 54.2876C26.1703 52.926 25.1804 52.344 24.2403 50.9204C22.5185 48.2764 20.6897 45.7696 19.2278 43.5684C18.196 42.0116 17.3666 41.6344 16.6653 41.7584C14.5097 42.1432 15.2053 44.1372 13.1836 45.1196H13.1836Z" fill="#FCC624"/>
<path fill-rule="evenodd" clip-rule="evenodd" d="M40.6024 42.8688C39.653 43.5476 39.8586 45.5824 39.803 46.6544C39.7184 48.2944 39.7068 50.1228 39.6511 50.8504C39.5588 52.0544 38.6574 54.774 38.767 56.058C38.8747 57.34 38.9669 58.0908 39.7549 58.8264C40.5448 59.5616 41.9344 60.11 43.6508 59.8592C45.3672 59.6084 46.0168 58.5284 47.1296 57.6844C48.2404 56.84 49.384 55.8384 50.8524 54.8852C52.3208 53.93 54.6848 52.366 55.0252 51.9436C55.3652 51.5196 55.596 51.154 55.35 50.5976C55.1056 50.0412 54.2488 49.1812 53.3124 48.3992C50.8716 46.3568 51.9256 44.458 50.9064 43.4544C50.5952 43.1152 50.3644 42.9284 50.0032 42.854C48.0552 42.4524 47.52 43.2268 46.3764 43.1132C45.1428 42.9904 45.6064 43.2648 43.0748 42.9228C42.2032 42.8228 41.204 42.4732 40.6024 42.8688Z" fill="#FCC624"/>
<path fill-rule="evenodd" clip-rule="evenodd" d="M24.6867 27.2843C23.8164 29.2104 23.8591 28.5559 23.2743 30.5692C22.4621 31.3151 21.5717 33.3192 20.9855 35.0443C20.2369 37.5515 19.6744 40.1292 20.3735 43.128C20.6509 43.4328 20.876 43.7212 21.1285 43.9632C21.5297 44.348 21.9617 44.6596 22.4894 45.0656C24.3569 46.502 25.6657 47.2608 25.9233 48.1948C26.2661 49.4384 25.4977 50.2608 24.5395 50.7664C25.2401 51.476 27.4765 52.9296 31.5546 52.7476C35.1461 52.588 37.3983 51.212 39.3209 48.8384C39.3332 48.292 39.3923 47.378 39.419 46.3916C39.4445 45.4492 39.4499 44.5056 39.5924 43.7736C39.6259 43.6016 39.6901 43.4384 39.7476 43.2948C39.9821 42.7092 40.6134 42.3104 41.2174 42.2816C41.535 42.2664 41.8686 42.2432 42.1874 42.31C42.6746 38.456 42.2886 35.7948 40.3642 31.7129C40.215 31.4266 39.5021 30.2125 39.0764 29.8698C38.7438 28.2227 38.6999 28.3035 38.0345 26.7957C37.0252 24.5089 36.6595 21.8657 36.3518 20.3124C36.1415 20.4227 35.7746 20.5774 35.2146 21.0165C34.8076 21.3377 34.0546 22.005 33.4774 22.4093C33.1005 22.6733 32.6881 22.9017 32.2823 23.0805C31.6983 23.3379 31.1283 23.4927 30.6986 23.5041C29.1585 23.5865 28.4258 23.2005 27.7236 22.4598C27.4291 22.1491 27.2059 21.8087 26.8344 21.3934C26.6698 21.2094 26.442 20.965 26.2097 20.797C26.2034 21.0012 25.5569 25.3581 24.6867 27.2843ZM31.5987 15.7802C31.551 15.3507 31.5376 14.5654 31.8319 13.5769C32.2867 12.0604 33.9304 11.0449 35.3217 11.7606C36.713 12.4763 36.9701 14.3345 36.6365 15.3817C36.4316 16.0253 35.9451 16.7783 35.5777 17.2503C35.293 17.1323 34.9413 17.0027 34.5037 16.8499C34.756 16.7029 34.9815 16.4707 35.1478 16.1632C35.6083 15.314 35.444 14.2095 34.7847 13.6949C34.1234 13.1804 33.2156 13.4531 32.7569 14.3023C32.4359 14.8943 32.4186 15.6119 32.6613 16.1651C32.2695 16.0123 31.9275 15.8808 31.5987 15.7802V15.7802ZM26.496 12.1358C27.7994 11.6755 28.5791 12.78 28.8964 14.3603C28.992 14.8459 28.9996 15.3314 28.9423 15.7763C28.9059 15.7879 28.8697 15.8034 28.8314 15.8189C28.6785 15.8788 28.5141 15.9543 28.3326 16.0491C28.3613 15.9465 28.3823 15.8363 28.3957 15.7202C28.4989 14.8362 28.0861 13.9213 27.4726 13.6795C26.8591 13.4377 26.2781 13.9599 26.1749 14.8439C26.0755 15.6931 26.452 16.5694 27.0235 16.8518C26.9508 16.9021 26.8763 16.9543 26.8017 17.0085C26.7062 17.0743 26.6107 17.1458 26.517 17.2193C26.064 16.7763 25.7602 16.0625 25.5882 15.312C25.2767 13.9502 25.613 12.4472 26.4959 12.1358H26.496Z" fill="#F5F5F5"/>
<path fill-rule="evenodd" clip-rule="evenodd" d="M26.0706 20.2364C26.0927 20.26 26.0845 20.3017 26.109 20.3265C26.3973 20.6172 26.7309 20.9021 27.0216 21.2355C27.3559 21.6189 27.6624 22.0477 27.9469 22.3104C28.4701 22.7935 28.9673 23.0517 29.6934 23.1425C31.0959 23.3177 32.1445 22.9241 33.3271 22.1346C33.8836 21.7629 34.6542 21.0778 35.0998 20.7391C35.8417 20.1739 36.0539 20.2185 36.2739 19.934C36.5014 19.6379 36.6123 18.8637 36.5454 18.4979C36.4919 18.2153 36.3943 18.0276 36.0922 17.8341C35.7556 17.6192 35.1763 17.3928 34.1723 17.0483L34.1703 17.0464H34.1684L34.1664 17.0445H34.1625L34.1605 17.0425H34.1585H34.1565L34.1527 17.0406H34.1507L34.1487 17.0387H34.1449L34.1429 17.0368H34.1409H34.1389L34.1351 17.0349H34.1331L34.1311 17.0329H34.1273L34.1253 17.031H34.1233L34.1213 17.0291H34.1175H34.1155L34.1135 17.0272H34.1115L34.1078 17.0253H34.1058L34.1038 17.0233H34.1017H34.098L34.096 17.0214H34.0941L34.0903 17.0195H34.0883L34.0863 17.0176H34.0843L34.0804 17.0157H34.0784H34.0764L34.0744 17.0137H34.0706L34.0686 17.0118H34.0666L34.0646 17.0099H34.0626H34.0605H34.0585L34.0565 17.008H34.0545L34.0507 17.0061H34.0487L34.0467 17.0042H34.0447H34.041L34.039 17.0022H34.0369L34.0349 17.0003H34.0329H34.0309L34.0289 16.9984H34.0269H34.0249L34.0211 16.9965H34.0191L34.0171 16.9946H34.0151L34.0055 16.9907L33.9807 16.981H33.9769L33.9597 16.9752L33.954 16.9733L33.9406 16.9675L33.9272 16.9636L33.9234 16.9617L33.9043 16.9559L33.9005 16.954L33.8756 16.9443L33.8699 16.9424L33.8508 16.9366L33.8488 16.9347L33.8239 16.927L33.8163 16.9231L33.7971 16.9173L33.7723 16.9077L33.7475 16.8979H33.7455L33.7283 16.8922L33.7207 16.8903L33.7092 16.8845L33.6958 16.8806L33.692 16.8787L33.6747 16.8729L33.6709 16.8709L33.6461 16.8613L33.6404 16.8594L33.6232 16.8535H33.6212L33.6078 16.8478L33.5963 16.8439L33.5907 16.842L33.5734 16.8343L33.5486 16.8265L33.539 16.8226L33.5237 16.8168H33.5217L33.5064 16.8091L33.5008 16.8072L33.4759 16.7994L33.4721 16.7975L33.4567 16.7917L33.453 16.7897L33.4396 16.7859L33.4281 16.782L33.4243 16.7801L33.4071 16.7723H33.4051L33.3917 16.7665L33.3821 16.7627L33.3745 16.7607L33.3592 16.7549H33.3572L33.3343 16.7453L33.3113 16.7375L33.3093 16.7356L33.2941 16.7298L33.2883 16.7279L33.2787 16.724L33.2654 16.7201L33.2634 16.7182L33.2462 16.7124L33.2423 16.7105L33.2309 16.7066L33.2194 16.7027L33.2156 16.7008L33.2003 16.695L33.1966 16.6931L33.1851 16.6892L33.1756 16.6853L33.1679 16.6834L33.1526 16.6757L33.1373 16.6699L33.1297 16.6679L33.1086 16.6583H33.1066L33.0913 16.6525L33.0856 16.6506L33.076 16.6467L33.0645 16.6428L33.0625 16.6409L33.0473 16.6351L33.0416 16.6332L33.0205 16.6254L33.0167 16.6235L33.0014 16.6177H32.9994L32.9861 16.6119L32.9784 16.608L32.9727 16.6061L32.9575 16.6003H32.9555L32.9516 16.5984L32.9478 16.5965L32.9421 16.5946L32.9383 16.5927H32.9345V16.5907H32.9287L32.9249 16.5888L32.9193 16.5869L32.9154 16.585L32.9134 16.5831L32.9057 16.5811L32.9019 16.5792L32.8963 16.5773L32.8924 16.5754L32.8867 16.5735L32.8829 16.5715L32.8791 16.5696L32.8734 16.5677H32.8714L32.8694 16.5658H32.8637L32.8599 16.5639L32.8561 16.5619L32.8503 16.5601L32.8465 16.5581L32.8408 16.5562L32.837 16.5543L32.8293 16.5524L32.8273 16.5505L32.8235 16.5485L32.8177 16.5466L32.8139 16.5447L32.8101 16.5428H32.8082H32.8043L32.8005 16.5409L32.7967 16.5389L32.7909 16.537L32.7889 16.5351H32.7869L32.7831 16.5332L32.7773 16.5313L32.7736 16.5294L32.7679 16.5275L32.7641 16.5255L32.7603 16.5236H32.7546L32.7508 16.5217L32.747 16.5198L32.7412 16.5179L32.7374 16.5159L32.7336 16.5141L32.7278 16.5121L32.724 16.5102L32.7202 16.5083L32.7144 16.5063L32.7106 16.5044H32.7069L32.7011 16.5025L32.6973 16.5006L32.6934 16.4987L32.6896 16.4968H32.6876L32.6839 16.4949L32.68 16.4929L32.6762 16.4911L32.6705 16.4891H32.6667C31.6475 16.0885 30.9859 15.8291 30.0566 15.8601C29.7334 15.8697 29.4045 15.9065 28.9417 16.0923L28.9188 16.102L28.8958 16.1097V16.1117L28.8767 16.1194H28.8729V16.1213H28.8709L28.8498 16.1291V16.131L28.8326 16.1368L28.8211 16.1426L28.8078 16.1484L28.8039 16.1503H28.8019L28.7829 16.1581L28.779 16.16L28.7771 16.1619L28.7561 16.1715H28.7541L28.7349 16.1812H28.7312L28.7292 16.1831L28.7158 16.1889L28.7119 16.1909L28.7043 16.1947L28.6852 16.2044H28.6832L28.6793 16.2063L28.6659 16.2121L28.6584 16.216L28.6546 16.2179L28.6412 16.2237L28.6374 16.2256L28.6297 16.2295L28.6163 16.2353L28.6087 16.2392L28.6029 16.2431L28.5896 16.2489H28.5875L28.578 16.2547L28.5646 16.2605L28.5512 16.2682L28.5378 16.274L28.5244 16.2817L28.5111 16.2875L28.5091 16.2894L28.4995 16.2933L28.4975 16.2952L28.4841 16.301L28.4707 16.3087L28.4573 16.3145L28.4459 16.3223H28.4439L28.4305 16.3301H28.4285L28.4189 16.3359H28.4169L28.4016 16.3436L28.3901 16.3514H28.3881L28.3748 16.3591L28.3614 16.3669L28.3461 16.3746L28.3327 16.3804V16.3823L28.3174 16.3901L28.304 16.3959V16.3978L28.2887 16.4055L28.2773 16.4113L28.2753 16.4133L28.26 16.421L28.2466 16.4287L28.2313 16.4365L28.216 16.4461C28.1873 16.4616 28.1567 16.4791 28.1261 16.4965L28.1109 16.5061L28.0956 16.5139L28.086 16.5197L28.0688 16.5313L28.0592 16.5371H28.0572L28.0552 16.5391L28.0399 16.5468L28.0304 16.5526L28.0227 16.5584L28.0036 16.57L27.9941 16.5758L27.9749 16.5855L27.9653 16.5913L27.9367 16.6087L27.9271 16.6145L27.908 16.6261L27.8985 16.6339L27.8774 16.6454L27.8679 16.6512L27.843 16.6667L27.841 16.6686H27.839L27.8294 16.6744L27.8084 16.6879L27.7989 16.6938L27.7797 16.7053L27.7777 16.7073H27.7757V16.7092H27.7737L27.7717 16.7111H27.7697V16.7131H27.7677L27.7657 16.7149L27.7619 16.7169H27.7599L27.7503 16.7246H27.7483L27.7463 16.7265L27.7443 16.7284H27.7423H27.7403V16.7303H27.7383L27.7363 16.7322H27.7343V16.7341H27.7323L27.7094 16.7496H27.7074L27.7054 16.7515L27.6958 16.7573L27.6747 16.7709L27.6652 16.7767L27.6632 16.7786L27.6441 16.7902L27.6326 16.798L27.623 16.8038L27.6115 16.8115L27.6019 16.8173L27.5905 16.8251L27.5694 16.8386L27.558 16.8464L27.5369 16.8599L27.5274 16.8677L27.5159 16.8735L27.5045 16.8812L27.4949 16.889L27.4834 16.8947L27.472 16.9025L27.4605 16.9102L27.451 16.918L27.4433 16.9219L27.4299 16.9315L27.4223 16.9354L27.4147 16.9412L27.4071 16.9451L27.4013 16.9509L27.3937 16.9547L27.386 16.9605L27.3783 16.9644L27.3726 16.9702L27.3573 16.9799L27.3497 16.9838L27.3441 16.9895L27.3364 16.9935L27.3287 16.9992H27.3267L27.321 17.0031L27.3133 17.0089L27.3077 17.0128L27.3 17.0186L27.2924 17.0244L27.2847 17.0283L27.2771 17.0341L27.2694 17.0379L27.2617 17.0437L27.256 17.0495L27.2503 17.0514L27.2483 17.0533L27.2407 17.0591L27.2254 17.0688L27.2177 17.0746L27.2101 17.0785L27.2024 17.0843L27.1947 17.0901L27.1872 17.0939L27.1795 17.0998L27.1661 17.1113L27.1585 17.1152L27.1508 17.121L27.1431 17.1268L27.1355 17.1307L27.1335 17.1326L27.1277 17.1365L27.1201 17.1423L27.1124 17.1481L27.1047 17.152L27.0971 17.1577L27.0933 17.1597L27.0894 17.1635L27.0818 17.1693L27.0722 17.1751L27.0589 17.1848H27.0568L27.0531 17.1887L27.0493 17.1906L27.0416 17.1964L27.0339 17.2022L27.0187 17.2119L27.0129 17.2177H27.011L27.0034 17.2235L26.9709 17.2467C26.4967 17.5815 26.0109 18.0267 25.7299 18.4835C25.5633 18.7538 25.2995 19.3114 25.5455 19.6321C25.5464 19.6329 26.1739 19.9583 26.8039 20.3355C27.8225 20.9451 28.986 21.2599 30.0248 21.2014C30.851 21.1548 31.7732 20.8907 32.4392 20.5663C33.1094 20.2397 33.9335 19.7248 34.7368 19.0974C34.8611 19.0045 35.0979 18.7692 35.2459 18.6982C35.3765 18.6356 35.7973 18.6719 35.7779 18.8165C35.7628 18.9298 35.2686 19.1319 35.0905 19.2658C34.2118 19.9264 33.2335 20.5734 32.5977 20.87C31.9407 21.1765 30.8351 21.5303 30.0878 21.5749C29.4051 21.6157 28.8254 21.539 28.2319 21.3359C27.6582 21.1395 27.3181 20.969 26.7071 20.6119C26.5123 20.498 26.325 20.4029 26.0613 20.2363L26.0706 20.2364Z" fill="#FCC624"/>
<path fill-rule="evenodd" clip-rule="evenodd" d="M48.5217 42.5884C48.5553 42.5244 48.6233 42.2688 48.6285 42.2168C48.7569 40.922 46.2681 40.6308 44.3309 40.696C43.4521 40.7256 42.7669 40.8308 42.3577 40.9528C41.6453 41.166 41.2941 41.6544 41.2153 42.2656C41.0553 43.5028 41.4181 46.1168 42.6309 46.6888C43.8853 47.28 45.7849 46.436 46.9061 45.1628C47.6657 44.3004 48.1489 43.2968 48.5217 42.5884Z" fill="#191919"/>
</svg>
