<svg width="16" height="16" viewBox="0 0 16 16" fill="none" xmlns="http://www.w3.org/2000/svg">
<path fill-rule="evenodd" clip-rule="evenodd" d="M6.1763 2.876C6.1457 4.48724 6.24552 4.23804 6.18394 4.97739C6.15563 5.31726 6.11795 5.44345 5.94708 5.85338C5.76116 6.29943 5.56182 6.55337 5.28521 6.94417C4.68415 7.79329 4.05126 8.64035 3.89264 9.69355C3.86186 9.89784 3.85829 10.162 3.86518 10.4095C3.6827 10.57 3.58897 10.8402 3.40147 11.0463C3.28052 11.1789 3.04675 11.2219 2.78766 11.2727C2.56536 11.3158 2.33016 11.4034 2.24794 11.5374C1.98063 11.9713 2.26726 12.5644 2.15301 13.038C2.10569 13.2349 2.02489 13.4202 2.02345 13.5901C2.0217 13.8962 2.25519 14.0544 2.51968 14.147C2.97326 14.3056 3.44948 14.4045 3.92179 14.49C4.3188 14.5617 4.67765 14.7534 5.06099 14.8718C5.33683 14.9584 5.64852 15.0213 5.93631 14.9686C6.255 14.9105 6.50784 14.6851 6.67729 14.417C6.73818 14.3209 6.78826 14.2165 6.81199 14.1066C7.57896 13.7194 8.90071 13.9268 9.61636 14.3192C9.61636 14.3192 9.64876 14.4488 9.64937 14.4508C9.68852 14.5794 9.7544 14.6887 9.86736 14.7944C10.2473 15.149 10.9111 15.203 11.3512 14.9275C11.7352 14.6877 12.053 14.3453 12.4149 14.0725C12.692 13.8645 13.0525 13.644 13.392 13.4086C13.579 13.2801 13.8371 13.1208 13.9349 12.9138C13.9675 12.8498 13.9851 12.7812 13.9803 12.7074C13.965 12.4708 13.6882 12.2574 13.4435 12.0455C13.2505 11.8776 13.0616 11.6925 13.0128 11.429C12.9644 11.1714 12.9655 10.979 12.845 10.8088C12.7344 10.6526 12.6377 10.6077 12.4672 10.5882C12.4417 10.5853 12.4177 10.5816 12.3944 10.5778C12.5051 10.1652 12.5419 9.90223 12.5096 9.55751C12.3649 8.01382 11.1499 7.09809 10.4958 5.80613C10.1154 5.05485 10.0937 4.23658 10.0851 3.41148C10.1157 2.1549 9.73138 1.57476 9.26624 1.21283C7.76729 0.350195 6.20443 1.39371 6.1763 2.876Z" fill="#191919"/>
<path fill-rule="evenodd" clip-rule="evenodd" d="M3.2959 11.2799C3.0513 11.3989 2.48805 11.3965 2.35141 11.6334C2.20141 11.894 2.29839 12.1827 2.29982 12.5154C2.30032 12.7509 2.29647 13.0129 2.19855 13.2919C2.11828 13.5216 2.09105 13.6029 2.20618 13.805C2.32131 14.0076 2.82102 14.1048 3.49701 14.2682C4.17349 14.4312 3.95803 14.3108 4.71524 14.6101C5.18437 14.7957 5.84651 15.0235 6.27551 14.6845C6.43365 14.5593 6.69305 14.276 6.70882 13.9999C6.7179 13.8422 6.70356 13.6739 6.66631 13.5719C6.54257 13.2315 6.2951 13.086 6.06007 12.7301C5.62962 12.0691 5.17243 11.4424 4.80696 10.8921C4.54899 10.5029 4.34165 10.4086 4.16632 10.4396C3.62743 10.5358 3.80133 11.0343 3.29589 11.2799H3.2959Z" fill="#FCC624"/>
<path fill-rule="evenodd" clip-rule="evenodd" d="M10.1486 10.7172C9.9113 10.8869 9.96271 11.3956 9.94879 11.6636C9.92765 12.0736 9.92475 12.5307 9.91083 12.7126C9.88776 13.0136 9.66241 13.6935 9.68981 14.0145C9.71672 14.335 9.73977 14.5227 9.93678 14.7066C10.1342 14.8904 10.4816 15.0275 10.9107 14.9648C11.3398 14.9021 11.5022 14.6321 11.7804 14.4211C12.0581 14.21 12.344 13.9596 12.7111 13.7213C13.0782 13.4825 13.6692 13.0915 13.7543 12.9859C13.8393 12.8799 13.897 12.7885 13.8355 12.6494C13.7744 12.5103 13.5602 12.2953 13.3261 12.0998C12.7159 11.5892 12.9794 11.1145 12.7246 10.8636C12.6468 10.7788 12.5891 10.7321 12.4988 10.7135C12.0118 10.6131 11.878 10.8067 11.5921 10.7783C11.2837 10.7476 11.3996 10.8162 10.7667 10.7307C10.5488 10.7057 10.299 10.6183 10.1486 10.7172Z" fill="#FCC624"/>
<path fill-rule="evenodd" clip-rule="evenodd" d="M6.17362 6.82106C5.95606 7.30259 5.96673 7.13897 5.82052 7.64229C5.61748 7.82877 5.39488 8.3298 5.24833 8.76107C5.06117 9.38787 4.92056 10.0323 5.09534 10.782C5.16467 10.8582 5.22095 10.9303 5.28409 10.9908C5.38439 11.087 5.49238 11.1649 5.62431 11.2664C6.09119 11.6255 6.41839 11.8152 6.48277 12.0487C6.56848 12.3596 6.37637 12.5652 6.13683 12.6916C6.31197 12.869 6.87108 13.2324 7.89061 13.1869C8.78849 13.147 9.35154 12.803 9.83219 12.2096C9.83526 12.073 9.85003 11.8445 9.85671 11.5979C9.86309 11.3623 9.86443 11.1264 9.90006 10.9434C9.90844 10.9004 9.92448 10.8596 9.93885 10.8237C9.99749 10.6773 10.1553 10.5776 10.3063 10.5704C10.3857 10.5666 10.4691 10.5608 10.5488 10.5775C10.6706 9.61399 10.5741 8.94869 10.093 7.92822C10.0557 7.85665 9.87748 7.55312 9.77106 7.46745C9.68791 7.05567 9.67694 7.07587 9.51058 6.69891C9.25826 6.12722 9.16683 5.46642 9.0899 5.0781C9.03734 5.10566 8.94561 5.14435 8.80561 5.25413C8.70385 5.33441 8.5156 5.50124 8.37131 5.60231C8.27709 5.66833 8.17398 5.72541 8.07253 5.77011C7.92654 5.83446 7.78402 5.87317 7.6766 5.87603C7.29157 5.89663 7.10841 5.80011 6.93285 5.61494C6.85922 5.53727 6.80344 5.45218 6.71055 5.34835C6.6694 5.30235 6.61245 5.24124 6.55439 5.19925C6.55281 5.25029 6.39117 6.33953 6.17362 6.82106ZM7.90164 3.94504C7.8897 3.83767 7.88635 3.64134 7.95993 3.39423C8.07364 3.01509 8.48455 2.76122 8.83238 2.94014C9.18021 3.11907 9.24447 3.58361 9.16109 3.84542C9.10985 4.00633 8.98824 4.19456 8.89639 4.31257C8.8252 4.28307 8.73729 4.25067 8.62788 4.21247C8.69095 4.17571 8.74733 4.11768 8.7889 4.04079C8.90404 3.82849 8.86295 3.55236 8.69812 3.42373C8.5328 3.29509 8.30585 3.36328 8.19118 3.57558C8.11092 3.72356 8.10661 3.90297 8.16729 4.04128C8.06934 4.00308 7.98383 3.97018 7.90164 3.94504ZM6.62595 3.03395C6.95181 2.91886 7.14674 3.19499 7.22605 3.59007C7.24995 3.71146 7.25186 3.83284 7.23752 3.94407C7.22844 3.94696 7.21937 3.95084 7.2098 3.95471C7.17158 3.9697 7.13049 3.98856 7.08511 4.01226C7.09227 3.98662 7.09753 3.95906 7.10087 3.93005C7.12667 3.70905 7.02347 3.48031 6.8701 3.41986C6.71673 3.35941 6.57148 3.48998 6.54568 3.71098C6.52084 3.92328 6.61496 4.14235 6.75782 4.21295C6.73965 4.22552 6.72102 4.23858 6.70239 4.25212C6.6785 4.26856 6.65462 4.28645 6.6312 4.30482C6.51796 4.19407 6.442 4.01563 6.399 3.828C6.32112 3.48755 6.40521 3.1118 6.62595 3.03395Z" fill="#F5F5F5"/>
<path fill-rule="evenodd" clip-rule="evenodd" d="M6.5157 5.05911C6.52121 5.06501 6.51916 5.07545 6.52529 5.08163C6.59738 5.15431 6.68076 5.22554 6.75345 5.30889C6.83703 5.40473 6.91364 5.51193 6.98478 5.57762C7.11558 5.6984 7.23986 5.76295 7.4214 5.78563C7.77201 5.82943 8.03416 5.73103 8.32983 5.53366C8.46895 5.44075 8.6616 5.26947 8.77299 5.18479C8.95847 5.0435 9.01153 5.05463 9.06651 4.98351C9.1234 4.90949 9.15112 4.71594 9.13439 4.62449C9.12101 4.55385 9.09663 4.50692 9.02109 4.45853C8.93695 4.40482 8.79211 4.34821 8.54112 4.26209L8.54062 4.26161H8.54014L8.53964 4.26113H8.53868L8.53818 4.26065H8.53768H8.53718L8.53622 4.26017H8.53572L8.53522 4.25969H8.53426L8.53376 4.25921H8.53326H8.53276L8.53182 4.25873H8.53132L8.53082 4.25825H8.52987L8.52936 4.25777H8.52886L8.52836 4.25729H8.52743H8.52693L8.52642 4.25681H8.52592L8.52499 4.25633H8.52449L8.52399 4.25585H8.52348H8.52255L8.52205 4.25537H8.52157L8.52061 4.25489H8.52011L8.51961 4.25441H8.51911L8.51815 4.25393H8.51765H8.51715L8.51665 4.25345H8.51569L8.51519 4.25297H8.51469L8.51419 4.25249H8.51369H8.51318H8.51268L8.51218 4.25201H8.51168L8.51073 4.25153H8.51022L8.50972 4.25106H8.50922H8.50829L8.50779 4.25057H8.50728L8.50678 4.2501H8.50628H8.50578L8.50528 4.24962H8.50478H8.50428L8.50332 4.24914H8.50282L8.50232 4.24866H8.50182L8.49943 4.24769L8.49322 4.24527H8.49228L8.48797 4.24382L8.48655 4.24334L8.4832 4.24189L8.47985 4.24092L8.47889 4.24044L8.47412 4.23899L8.47316 4.23852L8.46695 4.2361L8.46553 4.23562L8.46075 4.23417L8.46024 4.23369L8.45403 4.23176L8.45212 4.23079L8.44733 4.22934L8.44113 4.22693L8.43492 4.2245H8.43442L8.43011 4.22306L8.42822 4.22258L8.42535 4.22113L8.42199 4.22016L8.42104 4.21968L8.41673 4.21823L8.41577 4.21775L8.40956 4.21533L8.40814 4.21486L8.40384 4.2134H8.40334L8.39999 4.21196L8.39713 4.21099L8.39571 4.21051L8.3914 4.20858L8.38519 4.20664L8.3828 4.20567L8.37898 4.20422H8.37848L8.37465 4.20228L8.37324 4.20181L8.36702 4.19986L8.36606 4.19938L8.36223 4.19794L8.3613 4.19745L8.35795 4.19648L8.35507 4.19552L8.35412 4.19504L8.34981 4.1931H8.34931L8.34596 4.19165L8.34357 4.19068L8.34168 4.1902L8.33785 4.18875H8.33735L8.33161 4.18633L8.32588 4.18439L8.32538 4.18391L8.32156 4.18246L8.32012 4.18199L8.31773 4.18102L8.31439 4.18005L8.31389 4.17956L8.30959 4.17812L8.30863 4.17764L8.30577 4.17667L8.30289 4.1757L8.30195 4.17522L8.29813 4.17377L8.29719 4.17329L8.29433 4.17232L8.29194 4.17135L8.29002 4.17087L8.2862 4.16894L8.28237 4.16748L8.28046 4.167L8.27519 4.16459H8.27469L8.27087 4.16314L8.26944 4.16266L8.26705 4.16169L8.26418 4.16072L8.26368 4.16024L8.25986 4.15879L8.25844 4.15831L8.25317 4.15637L8.25222 4.15589L8.2484 4.15444H8.2479L8.24456 4.15299L8.24264 4.15202L8.24123 4.15154L8.23741 4.15009H8.23691L8.23595 4.14961L8.235 4.14913L8.23356 4.14866L8.23262 4.14818H8.23167V4.1477H8.23023L8.22927 4.14722L8.22786 4.14674L8.2269 4.14626L8.2264 4.14578L8.22448 4.1453L8.22353 4.14482L8.22211 4.14434L8.22115 4.14386L8.21972 4.14338L8.21876 4.1429L8.21782 4.14242L8.21639 4.14194H8.21589L8.21539 4.14146H8.21397L8.21301 4.14099L8.21206 4.1405L8.21062 4.14003L8.20968 4.13955L8.20825 4.13907L8.20729 4.13859L8.20538 4.13811L8.20488 4.13764L8.20392 4.13715L8.20248 4.13667L8.20152 4.13619L8.20057 4.13572H8.20009H8.19913L8.19817 4.13523L8.19721 4.13475L8.19578 4.13427L8.19528 4.1338H8.19478L8.19382 4.13332L8.19238 4.13284L8.19145 4.13236L8.19003 4.13188L8.18907 4.1314L8.18812 4.13092H8.1867L8.18574 4.13044L8.18479 4.12996L8.18335 4.12948L8.18239 4.129L8.18144 4.12853L8.18 4.12805L8.17904 4.12757L8.17809 4.12709L8.17665 4.1266L8.17569 4.12612H8.17476L8.17332 4.12565L8.17236 4.12517L8.1714 4.12469L8.17045 4.12421H8.16995L8.16901 4.12373L8.16805 4.12325L8.16709 4.12278L8.16568 4.12229H8.16472C7.90992 4.02214 7.74452 3.9573 7.51219 3.96504C7.4314 3.96745 7.34917 3.97665 7.23348 4.0231L7.22774 4.02552L7.222 4.02745V4.02793L7.21723 4.02987H7.21627V4.03034H7.21577L7.2105 4.03229V4.03276L7.2062 4.03421L7.20333 4.03566L7.19999 4.03711L7.19903 4.03759H7.19853L7.19376 4.03953L7.1928 4.04001L7.19232 4.04048L7.18706 4.0429H7.18656L7.18178 4.04532H7.18084L7.18034 4.0458L7.17699 4.04725L7.17603 4.04773L7.17412 4.0487L7.16934 4.05112H7.16884L7.16788 4.0516L7.16453 4.05305L7.16264 4.05402L7.1617 4.0545L7.15835 4.05594L7.15739 4.05642L7.15548 4.05739L7.15213 4.05884L7.15021 4.05982L7.14878 4.06078L7.14544 4.06223H7.14493L7.14254 4.06368L7.13919 4.06513L7.13584 4.06706L7.1325 4.06851L7.12915 4.07044L7.12581 4.07188L7.12531 4.07237L7.12292 4.07333L7.12241 4.07382L7.11906 4.07526L7.11572 4.0772L7.11237 4.07865L7.10951 4.08059H7.10901L7.10566 4.08253H7.10516L7.10277 4.08398H7.10227L7.09844 4.08592L7.09558 4.08786H7.09508L7.09174 4.0898L7.08839 4.09174L7.08456 4.09366L7.08121 4.09512V4.09559L7.07739 4.09753L7.07405 4.09898V4.09946L7.07022 4.1014L7.06736 4.10285L7.06686 4.10333L7.06304 4.10526L7.0597 4.1072L7.05587 4.10913L7.05205 4.11155C7.04488 4.11542 7.03723 4.11978 7.02958 4.12414L7.02576 4.12655L7.02194 4.1285L7.01955 4.12995L7.01524 4.13285L7.01285 4.1343H7.01235L7.01185 4.13478L7.00803 4.13672L7.00564 4.13817L7.00373 4.13962L6.99894 4.14252L6.99656 4.14396L6.99178 4.14638L6.98938 4.14783L6.98222 4.15219L6.97983 4.15364L6.97505 4.15654L6.97266 4.15848L6.9674 4.16137L6.96501 4.16282L6.95879 4.16669L6.95829 4.16717H6.95779L6.9554 4.16862L6.95015 4.172L6.94776 4.17346L6.94298 4.17635L6.94248 4.17684H6.94198V4.17731H6.94148L6.94098 4.17779H6.94048V4.17828H6.93998L6.93947 4.17875L6.93852 4.17923H6.93802L6.93563 4.18116H6.93513L6.93462 4.18163L6.93412 4.18211H6.93362H6.93312V4.1826H6.93262L6.93212 4.18307H6.93162V4.18355H6.93112L6.92539 4.18742H6.92489L6.92439 4.1879L6.922 4.18935L6.91673 4.19274L6.91434 4.19419L6.91384 4.19467L6.90906 4.19757L6.90619 4.19951L6.90379 4.20096L6.90092 4.2029L6.89853 4.20434L6.89567 4.20628L6.8904 4.20967L6.88754 4.21161L6.88227 4.215L6.87989 4.21694L6.87702 4.21838L6.87416 4.22032L6.87177 4.22226L6.8689 4.2237L6.86604 4.22563L6.86318 4.22757L6.86079 4.22951L6.85888 4.23048L6.85553 4.2329L6.85362 4.23387L6.85172 4.23532L6.84981 4.23629L6.84837 4.23773L6.84646 4.2387L6.84454 4.24015L6.84263 4.24112L6.84119 4.24257L6.83737 4.24499L6.83548 4.24596L6.83406 4.2474L6.83215 4.24838L6.83023 4.24982H6.82973L6.8283 4.25079L6.82638 4.25224L6.82497 4.25321L6.82305 4.25466L6.82114 4.25611L6.81922 4.25708L6.81731 4.25853L6.81539 4.2595L6.81348 4.26094L6.81204 4.2624L6.81063 4.26287L6.81013 4.26335L6.80821 4.2648L6.80439 4.26722L6.80247 4.26867L6.80056 4.26964L6.79865 4.27109L6.79673 4.27254L6.79484 4.2735L6.79292 4.27496L6.78957 4.27785L6.78766 4.27882L6.78574 4.28027L6.78383 4.28172L6.78191 4.28269L6.78141 4.28317L6.77998 4.28414L6.77806 4.28559L6.77615 4.28704L6.77423 4.28801L6.77232 4.28945L6.77136 4.28994L6.7704 4.2909L6.76849 4.29235L6.7661 4.2938L6.76276 4.29622H6.76225L6.76132 4.29719L6.76036 4.29767L6.75845 4.29912L6.75653 4.30057L6.75271 4.30298L6.75127 4.30444H6.75079L6.7489 4.30588L6.74077 4.31169C6.62221 4.3954 6.50078 4.50668 6.43051 4.62088C6.38886 4.68846 6.32293 4.82787 6.38443 4.90804C6.38464 4.90825 6.54151 4.9896 6.69902 5.08388C6.95366 5.23628 7.24454 5.315 7.50424 5.30036C7.7108 5.28871 7.94135 5.22268 8.10784 5.14158C8.27539 5.05995 8.48143 4.93121 8.68224 4.77437C8.71332 4.75114 8.77252 4.69231 8.80953 4.67456C8.84216 4.65891 8.94736 4.66798 8.94253 4.70414C8.93875 4.73246 8.8152 4.783 8.77067 4.81647C8.551 4.98161 8.30643 5.14336 8.14746 5.21751C7.98323 5.29413 7.70682 5.38259 7.52 5.39374C7.34933 5.40394 7.2044 5.38477 7.05603 5.334C6.91259 5.2849 6.82756 5.24227 6.67483 5.15299C6.62612 5.12452 6.57929 5.10075 6.51337 5.05909L6.5157 5.05911Z" fill="#FCC624"/>
<path fill-rule="evenodd" clip-rule="evenodd" d="M12.1324 10.6471C12.1408 10.6311 12.1578 10.5672 12.1591 10.5542C12.1912 10.2305 11.569 10.1577 11.0847 10.174C10.865 10.1814 10.6937 10.2077 10.5914 10.2382C10.4133 10.2915 10.3255 10.4136 10.3058 10.5664C10.2658 10.8757 10.3565 11.5292 10.6597 11.6722C10.9733 11.82 11.4482 11.609 11.7285 11.2907C11.9184 11.0751 12.0392 10.8242 12.1324 10.6471Z" fill="#191919"/>
</svg>
