<svg width="40" height="40" viewBox="0 0 40 40" fill="none" xmlns="http://www.w3.org/2000/svg">
<path d="M33.5429 7.48613C33.5429 4.85735 27.9424 2 19.9418 2C11.9413 2 6.34085 4.85735 6.34085 7.48613C6.34085 10.1149 11.9413 12.9723 19.9418 12.9723C27.9424 12.9723 33.5429 10.1149 33.5429 7.48613Z" fill="#FF3D00"/>
<path d="M8.62797 35.3729C11.4853 33.5443 15.9428 32.4012 20.286 31.3726C26.8008 29.8868 33.5441 28.2865 33.6586 24.0578V20.286C30.8423 22.6515 25.8057 23.7959 20.8466 24.9226L20.6289 24.9721L20.3812 25.0289C13.4875 26.6106 6.45637 28.2237 6.45637 32.5154C6.45637 33.4298 7.25642 34.4584 8.62797 35.3729Z" fill="#FF3D00"/>
<path d="M20.0552 22.7998C14.7976 23.9428 9.3115 25.2 6.33984 27.8289V26.9144C6.33984 19.371 14.5691 17.428 22.5697 15.5994C28.3986 14.2278 31.1416 13.542 33.5419 11.599V15.8279C33.5419 19.7139 26.6841 21.3141 20.0552 22.7998Z" fill="#FF3D00"/>
<path d="M33.4286 28.9507C33.467 28.9195 33.505 28.8881 33.5427 28.8564H33.4286V28.9507Z" fill="#FF3D00"/>
<path d="M33.4286 28.9507C30.767 31.1129 26.3189 32.2412 21.826 33.3809C21.4646 33.4726 21.1029 33.5643 20.7419 33.6567C17.1988 34.4569 13.6556 35.3714 11.0269 36.6286C13.3127 37.4286 16.3987 38 19.8275 38C27.7138 38 33.4286 35.1425 33.4286 32.5139V28.9507Z" fill="#FF3D00"/>
</svg>
