<svg width="16" height="16" viewBox="0 0 16 16" fill="none" xmlns="http://www.w3.org/2000/svg">
<path d="M7.97852 1C11.0897 1 13.2676 2.11115 13.2676 3.13341C13.2676 4.15567 11.0897 5.26682 7.97852 5.26682C4.86731 5.26682 2.68945 4.15567 2.68945 3.13341C2.68945 2.11115 4.86731 1 7.97852 1Z" fill="#6C707E"/>
<path d="M8.11236 12.4226C6.42341 12.8226 4.69001 13.2671 3.57886 13.9782C3.0455 13.6226 2.73438 13.2226 2.73438 12.867C2.73438 11.1781 5.53448 10.5559 8.2457 9.93364C10.2013 9.48917 12.2014 9.0447 13.3126 8.11133V9.57808C13.2681 11.2225 10.6458 11.8448 8.11236 12.4226Z" fill="#6C707E"/>
<path d="M8.02105 9.08811C5.97651 9.53258 3.8431 10.0215 2.6875 11.0438V10.6882C2.6875 7.75474 5.88763 6.99915 8.99885 6.28804C11.2656 5.75467 12.3323 5.488 13.2657 4.73242V6.3769C13.2657 7.88809 10.5989 8.51034 8.02105 9.08811Z" fill="#6C707E"/>
<path d="M13.2675 11.4434C12.1564 12.3768 10.2008 12.8212 8.28963 13.3101C6.91181 13.6213 5.53398 13.9769 4.51172 14.4658C5.40064 14.7769 6.60068 14.9991 7.93407 14.9991C11.0008 14.9991 13.2231 13.8879 13.2231 12.8657V11.4434H13.2675Z" fill="#6C707E"/>
</svg>
