<svg width="16" height="16" viewBox="0 0 16 16" fill="none" xmlns="http://www.w3.org/2000/svg">
<path fill-rule="evenodd" clip-rule="evenodd" d="M2.08296 6C2.55904 3.16229 5.027 1 8 1C10.973 1 13.441 3.16229 13.917 6H13C12.4477 6 12 6.44772 12 7V9C12 9.55228 12.4477 10 13 10H14C14.5523 10 15 9.55228 15 9V7C15 3.13401 11.866 0 8 0C4.13401 0 1 3.13401 1 7V9C1 9.55228 1.44772 10 2 10H3C3.55228 10 4 9.55228 4 9V7C4 6.44772 3.55228 6 3 6H2.08296ZM2 7V9H3V7H2ZM14 7H13V9H14V7Z" fill="#6C707E"/>
<path d="M4.23086 10.5775C4.69976 10.2115 5.00126 9.64094 5.00126 9V7C5.00126 6.11034 4.42037 5.35636 3.61719 5.09664C3.7927 4.81423 4.00771 4.54259 4.26474 4.28556C6.28891 2.26143 9.11263 2.77022 11.1592 4.81673C11.3651 5.0226 11.5559 5.23599 11.7306 5.45541C11.2852 5.82223 11.0013 6.37795 11.0013 7V9C11.0013 9.88312 11.5736 10.6326 12.3677 10.8976C12.187 11.1822 11.9657 11.4581 11.7016 11.7223C9.63269 13.7911 6.73573 13.1532 4.77917 11.1967C4.58203 10.9995 4.39883 10.7925 4.23086 10.5775Z" fill="#FFF4EB"/>
<path d="M11.7306 5.45541C11.5559 5.23599 11.3651 5.0226 11.1592 4.81673C9.11263 2.77022 6.28891 2.26143 4.26474 4.28556C4.00771 4.54259 3.7927 4.81423 3.61719 5.09664C3.94316 5.20205 4.23251 5.38886 4.46128 5.63312C4.51887 5.53978 4.58221 5.44778 4.65149 5.3573L10.6307 11.3365C9.91072 11.8937 9.11348 12.0704 8.31592 11.9759C7.3516 11.8617 6.33688 11.3401 5.48627 10.4895C5.25023 10.2535 5.04023 10.0037 4.85781 9.7452C4.72519 10.0753 4.50707 10.3619 4.23086 10.5775C4.39883 10.7925 4.58203 10.9995 4.77917 11.1967C6.73573 13.1532 9.63269 13.7911 11.7016 11.7223C11.9657 11.4581 12.187 11.1822 12.3677 10.8976C12.0429 10.7892 11.7553 10.5998 11.5287 10.3534C11.4705 10.4457 11.4064 10.5373 11.3364 10.628L5.36009 4.65169C6.05955 4.11729 6.82764 3.93663 7.59716 4.01898C8.53971 4.11984 9.55509 4.62687 10.4521 5.52384C10.7068 5.77856 10.9309 6.04177 11.1237 6.30944C11.2474 5.97305 11.459 5.67911 11.7306 5.45541Z" fill="#E66D17"/>
<rect x="13" y="7" width="1" height="2" fill="#EBECF0"/>
<rect x="2" y="7" width="1" height="2" fill="#EBECF0"/>
</svg>
