<svg width="16" height="16" viewBox="0 0 16 16" fill="none" xmlns="http://www.w3.org/2000/svg">
<path d="M16 13.5C16 14.8807 14.8807 16 13.5 16C12.1193 16 11 14.8807 11 13.5C11 12.1193 12.1193 11 13.5 11C14.8807 11 16 12.1193 16 13.5Z" fill="#4682FA"/>
<path d="M4 2C2.89543 2 2 2.89543 2 4V12C2 13.1046 2.89543 14 4 14H10.0354C10.0121 13.8367 10 13.6698 10 13.5C10 13.3302 10.0121 13.1633 10.0354 13H4C3.44772 13 3 12.5523 3 12V4C3 3.44772 3.44772 3 4 3H12C12.5523 3 13 3.44772 13 4V10.0354C13.1633 10.0121 13.3302 10 13.5 10C13.6698 10 13.8367 10.0121 14 10.0354V4C14 2.89543 13.1046 2 12 2H4Z" fill="#6C707E"/>
<path d="M5 5.5C5 5.22386 5.22386 5 5.5 5H10.5C10.7761 5 11 5.22386 11 5.5C11 5.77614 10.7761 6 10.5 6H5.5C5.22386 6 5 5.77614 5 5.5Z" fill="#6C707E"/>
<path d="M5.5 7.5C5.22386 7.5 5 7.72386 5 8C5 8.27614 5.22386 8.5 5.5 8.5H10.5C10.7761 8.5 11 8.27614 11 8C11 7.72386 10.7761 7.5 10.5 7.5H5.5Z" fill="#6C707E"/>
<path d="M5.5 10C5.22386 10 5 10.2239 5 10.5C5 10.7761 5.22386 11 5.5 11H10.5C10.7761 11 11 10.7761 11 10.5C11 10.2239 10.7761 10 10.5 10H5.5Z" fill="#6C707E"/>
</svg>
