<svg width="16" height="16" viewBox="0 0 16 16" fill="none" xmlns="http://www.w3.org/2000/svg">
<path d="M7 14.9285V1.07031C3.60771 1.55554 1 4.47295 1 7.99942C1 11.5259 3.60771 14.4433 7 14.9285Z" fill="#FFFAEB"/>
<path d="M7 2.08238C4.16229 2.55846 2 5.02643 2 7.99942C2 10.9724 4.16229 13.4404 7 13.9165V14.9285C3.60771 14.4433 1 11.5259 1 7.99942C1 4.47295 3.60771 1.55554 7 1.07031V2.08238Z" fill="#C27D04"/>
<path fill-rule="evenodd" clip-rule="evenodd" d="M16 2.5C16 3.88071 14.8807 5 13.5 5C12.1193 5 11 3.88071 11 2.5C11 1.11929 12.1193 0 13.5 0C14.8807 0 16 1.11929 16 2.5ZM15 2.5C15 3.32843 14.3284 4 13.5 4C12.6716 4 12 3.32843 12 2.5C12 1.67157 12.6716 1 13.5 1C14.3284 1 15 1.67157 15 2.5Z" fill="#6C707E"/>
<path d="M14.6496 5.80634C14.2895 5.9315 13.9027 5.99951 13.5 5.99951C11.567 5.99951 10 4.43251 10 2.49951C10 2.09679 10.068 1.70996 10.1932 1.34988C9.80908 1.22326 9.41028 1.129 9 1.07031V14.9285C12.3923 14.4433 15 11.5259 15 7.99942C15 7.23343 14.877 6.49618 14.6496 5.80634Z" fill="#FFF7F7"/>
<path d="M13.6574 5.99652C13.8793 6.62303 14 7.29737 14 7.9999C14 10.9729 11.8377 13.4409 9 13.9169V14.929C12.3923 14.4438 15 11.5264 15 7.9999C15 7.23391 14.877 6.49666 14.6496 5.80682C14.3367 5.91559 14.0036 5.9812 13.6574 5.99652Z" fill="#DB3B4B"/>
<path d="M4.72848 5.05078H6.07573L7.89898 9.34753L8.00098 9.67903L8.09873 9.34753L9.88373 5.05078H11.248V11.0008H10.2067V6.76778L10.2195 6.54253L8.37073 11.0008H7.59298L5.75273 6.57228L5.76548 6.76778V11.0008H4.72848V5.05078Z" fill="#6C707E"/>
</svg>
