<svg width="64" height="64" viewBox="0 0 64 64" fill="none" xmlns="http://www.w3.org/2000/svg">
<path d="M32.2221 4C14.8696 13.9032 4.09877 32.4583 4 52.6116C22.1556 62.6164 43.4728 62.2738 59.9941 52.7156C59.9962 52.6673 59.9985 52.621 60 52.573C59.9772 32.5279 49.3897 14.0122 32.2221 4ZM41.5677 25.4575C44.1406 27.2246 43.7589 31.4787 43.3444 34.3919C42.8171 37.6009 39.7745 42.8775 35.8197 46.3203C36.3312 47.0617 36.6269 47.9746 36.6228 48.9486C34.1721 50.2006 31.742 48.7885 28.801 46.243C25.86 43.6974 22.6878 38.5963 21.6351 33.3543C20.7015 33.4542 19.7459 33.2438 18.9259 32.721C19.1401 29.7816 22.2266 28.0342 24.9621 27.0035C27.6977 25.9729 34.7456 25.6255 39.7145 27.4109C40.1019 26.5887 40.7431 25.8954 41.5677 25.4575Z" fill="#39207C"/>
</svg>
