<svg width="16" height="16" viewBox="0 0 16 16" fill="none" xmlns="http://www.w3.org/2000/svg">
<path fill-rule="evenodd" clip-rule="evenodd" d="M14.6398 11H9.36023L12 12.8855L14.6398 11ZM9 11.9716L11.7094 13.9069C11.8832 14.031 12.1168 14.031 12.2906 13.9069L15 11.9716V15H9V11.9716ZM8 15V11C8 10.4477 8.44772 10 9 10H15C15.5523 10 16 10.4477 16 11V15C16 15.5523 15.5523 16 15 16H9C8.44772 16 8 15.5523 8 15Z" fill="#548AF7"/>
<path d="M14.9999 9C14.9875 7.09506 14.0323 5.15462 12.4211 3.54342C9.55592 0.678305 5.60271 -0.0339965 2.76887 2.79978C-0.0649633 5.63356 0.749897 9.73619 3.48908 12.4753C4.51749 13.5037 5.73147 14.2719 7 14.677V11C7 9.89543 7.89543 9 9 9H14.9999Z" fill="#45322B"/>
<path d="M14.9999 9C14.9875 7.09506 14.0323 5.15462 12.4211 3.54342C9.55592 0.678305 5.60271 -0.0339965 2.76887 2.79978C-0.0649632 5.63356 0.749897 9.73619 3.48908 12.4753C4.51749 13.5037 5.73147 14.2719 7 14.677V13.6165C6.00996 13.2452 5.04386 12.613 4.19761 11.7668C2.96238 10.5316 2.1978 9.02377 2.03495 7.5621C1.89119 6.27175 2.20946 4.98843 3.13864 3.87802L8.36398 9.10325C8.56378 9.03628 8.77765 9 9 9H9.67779L3.84627 3.1686C4.96097 2.22632 6.21752 1.89609 7.47661 2.03083C8.90451 2.18363 10.4065 2.94592 11.7126 4.25194C13.025 5.56439 13.8035 7.05797 13.9658 8.47924C13.9857 8.65278 13.9965 8.82648 13.9978 9H14.9999Z" fill="#C77D55"/>
</svg>
