<svg width="16" height="16" viewBox="0 0 16 16" fill="none" xmlns="http://www.w3.org/2000/svg">
<path fill-rule="evenodd" clip-rule="evenodd" d="M13.5994 10.7452C13.0877 11.2096 12.9028 11.4016 12.3359 11.7969C11.6601 12.2681 10.6697 12.3326 10.0078 12.0361C9.4649 11.7928 8.96094 11.25 9.01562 10.4319C8.19936 11.4319 7.13431 12.2026 6.09786 12.2026C5.10496 12.2026 4.87421 11.3093 4.87421 11.3093L4.74071 12.4781C4.74071 12.4781 4.28705 14.7407 4.2771 14.8179C4.25216 15.156 4.07309 15.2481 3.75336 15.3665C2.99219 15.6484 2.14453 15.9531 2 16C3.00026 11.3126 4.0187 6.64597 5 2H7.03046C6.8686 2.75742 5.46798 9.42161 5.45925 9.51214C5.3782 10.3125 6.02056 10.5625 6.67849 10.5625C7.21544 10.5625 8.93655 9.96239 9.13313 9.03629C9.68892 6.4179 10.615 2.05481 10.6406 2.00025H12.6367C12.4748 2.76715 11.4553 7.67357 11.1029 9.3837C11.075 9.52001 11.0638 9.65919 11.0695 9.7982C11.0451 10.1612 11.3213 10.4648 11.6406 10.5625C11.96 10.6602 12.3579 10.6004 12.6651 10.4319C12.9938 10.2466 13.3119 10.043 13.6178 9.82214C13.9404 9.58344 14.2446 9.32075 14.5276 9.03629C14.8102 8.7809 15.2037 8.68751 15.5709 8.78863C14.8903 9.46376 14.2663 10.1306 13.5994 10.7452Z" fill="#6C707E"/>
</svg>
