<svg width="16" height="16" viewBox="0 0 16 16" fill="none" xmlns="http://www.w3.org/2000/svg">
<g clip-path="url(#clip0_13260_12466)">
<path d="M12 14C12.5523 14 13 13.5523 13 13C13 12.4477 12.5523 12 12 12C11.4477 12 11 12.4477 11 13C11 13.5523 11.4477 14 12 14Z" fill="#548AF7"/>
<path fill-rule="evenodd" clip-rule="evenodd" d="M12 16C9 16 8 13 8 13C8 13 9 10 12 10C15 10 16 13 16 13C16 13 15 16 12 16ZM14.9024 12.9785L14.9131 13L14.9024 13.0215C14.787 13.2525 14.6081 13.5582 14.3568 13.8598C13.8602 14.4557 13.1189 15 12 15C10.8811 15 10.1398 14.4557 9.64322 13.8598C9.39186 13.5582 9.21302 13.2525 9.09755 13.0215L9.08686 13L9.09755 12.9785C9.21302 12.7475 9.39186 12.4418 9.64322 12.1402C10.1398 11.5443 10.8811 11 12 11C13.1189 11 13.8602 11.5443 14.3568 12.1402C14.6081 12.4418 14.787 12.7475 14.9024 12.9785Z" fill="#548AF7"/>
<path d="M1 4C1 2.89543 1.89543 2 3 2H13C14.1046 2 15 2.89543 15 4V10.0669C14.2547 9.45946 13.2709 9 12 9C8.25 9 7 13 7 13C7 13 7.13313 13.426 7.44284 14H3C1.89543 14 1 13.1046 1 12V4Z" fill="#43454A"/>
<path d="M3 3H13C13.5523 3 14 3.44772 14 4V9.43452C14.3727 9.60927 14.705 9.82651 15 10.0669V4C15 2.89543 14.1046 2 13 2H3C1.89543 2 1 2.89543 1 4V12C1 13.1046 1.89543 14 3 14H7.44284C7.13313 13.426 7 13 7 13H3C2.44772 13 2 12.5523 2 12V4C2 3.44772 2.44772 3 3 3Z" fill="#CED0D6"/>
<path d="M3.5 5.5C3.5 5.22386 3.72386 5 4 5H5C5.27614 5 5.5 5.22386 5.5 5.5C5.5 5.77614 5.27614 6 5 6H4C3.72386 6 3.5 5.77614 3.5 5.5Z" fill="#CED0D6"/>
<path d="M6.5 5.5C6.5 5.22386 6.72386 5 7 5H8C8.27614 5 8.5 5.22386 8.5 5.5C8.5 5.77614 8.27614 6 8 6H7C6.72386 6 6.5 5.77614 6.5 5.5Z" fill="#CED0D6"/>
</g>
<defs>
<clipPath id="clip0_13260_12466">
<rect width="16" height="16" fill="white"/>
</clipPath>
</defs>
</svg>
