<svg width="14" height="14" viewBox="0 0 14 14" fill="none" xmlns="http://www.w3.org/2000/svg">
<path fill-rule="evenodd" clip-rule="evenodd" d="M8 7C7.44772 7 7 7.44772 7 8L7 13C7 13.5523 7.44772 14 8 14L13 14C13.5523 14 14 13.5523 14 13L14 8.00001C14 7.44772 13.5523 7.00001 13 7.00001L8 7ZM8 9.00002L8 8.00001H10L10 9.00002H8ZM8 10L8 13H10L10 10H8ZM11 13H13L13 10H11L11 13ZM13 9.00001L13 8H11L11 9.00001H13Z" fill="#6C707E"/>
<path d="M6 13.9291V8C6 6.89543 6.89543 6 8 6H13.9291C13.4439 2.60771 10.5265 0 7 0C3.13401 0 0 3.13401 0 7C0 10.5265 2.60771 13.4439 6 13.9291Z" fill="#EDF3FF"/>
<path d="M6 12.917C3.16229 12.441 1 9.973 1 7C1 3.68629 3.68629 1 7 1C9.973 1 12.441 3.16229 12.917 6H13.9291C13.4439 2.60771 10.5265 0 7 0C3.13401 0 0 3.13401 0 7C0 10.5265 2.60771 13.4439 6 13.9291V12.917Z" fill="#3574F0"/>
<path d="M4.82647 7C4.82647 8.03161 5.28168 8.86065 6 9.27941V10.3124C4.6784 9.8518 3.78711 8.58603 3.78711 7C3.78711 4.99378 5.21321 3.5 7.13241 3.5C8.21399 3.5 9.18333 3.97446 9.75323 4.72326L9.00846 5.33823C8.62507 4.78993 7.94663 4.42334 7.13241 4.42334C5.79332 4.42334 4.82647 5.49655 4.82647 7Z" fill="#3574F0"/>
</svg>
