<svg width="16" height="16" viewBox="0 0 16 16" fill="none" xmlns="http://www.w3.org/2000/svg">
<g clip-path="url(#clip0_13312_15364)">
<path d="M13 15.9999C12.9999 15.9999 13.0001 15.9999 13 15.9999L13.0003 10.353C13.3678 10.3549 13.7338 10.4001 14.0906 10.4879L14.2979 9.76781C14.236 9.73261 14.1844 9.68176 14.1484 9.62036C14.1124 9.55896 14.0932 9.48917 14.0926 9.41799C14.0953 9.30774 14.141 9.20291 14.22 9.12588C14.299 9.04885 14.4049 9.00574 14.5153 9.00574C14.6256 9.00574 14.7316 9.04885 14.8106 9.12588C14.8895 9.20291 14.9352 9.30774 14.9379 9.41799C14.9364 9.5216 14.896 9.62085 14.8247 9.69612C14.7535 9.7714 14.6566 9.81722 14.5532 9.82453L14.3424 10.5584C15.1422 10.8108 16.0032 11.3727 16.0032 12.6246C15.9972 14.3719 13.5575 15.9999 13 15.9999Z" fill="#C77D55"/>
<path d="M13.7522 14.1509C13.2772 13.4163 13.4772 11.7064 14.7205 11.4621C14.9213 11.4404 15.1229 11.4945 15.2859 11.6137C15.4489 11.7329 15.5614 11.9087 15.6015 12.1065C15.9118 13.1264 14.0855 14.5539 13.7522 14.1509Z" fill="white"/>
<path d="M14.5006 12.5771C14.4275 12.5795 14.3568 12.6034 14.2972 12.6459C14.2376 12.6883 14.1918 12.7473 14.1655 12.8155C14.1392 12.8838 14.1336 12.9583 14.1494 13.0297C14.1652 13.1011 14.2016 13.1663 14.2542 13.2172C14.3068 13.268 14.3732 13.3022 14.4451 13.3156C14.517 13.329 14.5913 13.3209 14.6586 13.2923C14.7259 13.2637 14.7834 13.216 14.8237 13.155C14.8641 13.094 14.8856 13.0225 14.8856 12.9493C14.8838 12.849 14.8422 12.7534 14.7701 12.6836C14.6979 12.6139 14.601 12.5755 14.5006 12.5771Z" fill="#C77D55"/>
<path d="M11.9025 10.5049L11.6968 9.75657C11.7563 9.72083 11.8056 9.67037 11.8399 9.61007C11.8742 9.54976 11.8924 9.48164 11.8928 9.41225C11.8901 9.302 11.8444 9.19717 11.7654 9.12014C11.6865 9.04312 11.5805 9 11.4701 9C11.3598 9 11.2538 9.04312 11.1749 9.12014C11.0959 9.19717 11.0502 9.302 11.0475 9.41225C11.0494 9.52205 11.0946 9.62664 11.1734 9.70315C11.2522 9.77967 11.3582 9.82187 11.468 9.82054L11.6743 10.5701C10.8713 10.8278 10 11.392 10 12.6246C10.0178 14.4064 12.4398 16 12.9973 16V10.353C12.6277 10.361 12.2603 10.412 11.9025 10.5049Z" fill="#C77D55"/>
<path d="M12.3306 14.1511C11.9973 14.5548 10.1708 13.1266 10.4805 12.1066C10.5206 11.9085 10.6334 11.7326 10.7967 11.6133C10.96 11.4941 11.162 11.4402 11.363 11.4622C12.6061 11.7066 12.8071 13.4164 12.3313 14.1518L12.3306 14.1511Z" fill="white"/>
<path d="M11.5592 12.5883C11.4861 12.5908 11.4154 12.6147 11.3558 12.6571C11.2962 12.6995 11.2504 12.7585 11.2241 12.8268C11.1978 12.895 11.1922 12.9695 11.208 13.0409C11.2238 13.1124 11.2602 13.1776 11.3128 13.2284C11.3654 13.2792 11.4318 13.3135 11.5037 13.3268C11.5756 13.3402 11.6499 13.3321 11.7172 13.3035C11.7845 13.275 11.842 13.2272 11.8823 13.1662C11.9227 13.1052 11.9442 13.0337 11.9442 12.9606C11.9424 12.8602 11.9008 12.7646 11.8287 12.6949C11.7565 12.6251 11.6596 12.5868 11.5592 12.5883Z" fill="#C77D55"/>
</g>
<defs>
<clipPath id="clip0_13312_15364">
<rect width="16" height="16" fill="white"/>
</clipPath>
</defs>
</svg>
