<svg width="16" height="16" viewBox="0 0 16 16" fill="none" xmlns="http://www.w3.org/2000/svg">
<g clip-path="url(#clip0_13636_9351)">
<path d="M14.5352 10.5136C14.8354 9.73343 15 8.88593 15 8C15 4.13401 11.866 1 8 1C4.13401 1 1 4.13401 1 8C1 11.8522 4.11163 14.9776 7.95856 14.9999L6.92897 14.0086C6.35679 13.4577 6.35704 12.5417 6.92953 11.9911L9.6284 9.39548C9.90905 9.12557 10.2487 9.00356 10.5821 9.00179C10.9361 8.99992 11.216 9.00066 11.4962 9.0014C11.7738 9.00213 12.0517 9.00287 12.4024 9.00106C12.7402 8.99932 13.0854 9.12076 13.37 9.39422L14.5352 10.5136Z" fill="#43454A"/>
<path d="M14.5352 10.5136C14.8354 9.73343 15 8.88593 15 8C15 4.13401 11.866 1 8 1C4.13401 1 1 4.13401 1 8C1 11.8522 4.11163 14.9776 7.95856 14.9999L6.92897 14.0086C6.88727 13.9684 6.8486 13.9263 6.81298 13.8826C4.06783 13.3317 2 10.9073 2 8C2 4.68629 4.68629 2 8 2C11.3137 2 14 4.68629 14 8C14 8.60888 13.9093 9.19658 13.7407 9.75032L14.5352 10.5136Z" fill="#CED0D6"/>
<path d="M10.4836 9.00583C10.1825 9.02898 9.88146 9.1521 9.6284 9.39548L8.85465 10.1396L6.4918 6.60102V11H5.5L5.50002 5H6.55595L9.49182 9.39898V5H10.4836V9.00583Z" fill="#CED0D6"/>
<path fill-rule="evenodd" clip-rule="evenodd" d="M15.3798 12.7117C15.5435 12.8691 15.5436 13.131 15.3799 13.2884L12.6774 15.8876C12.4232 16.132 12 15.9519 12 15.5993L12 10.4038C12 10.0513 12.423 9.87118 12.6772 10.1154L15.3798 12.7117Z" fill="#57965C"/>
<path fill-rule="evenodd" clip-rule="evenodd" d="M7.62255 13.2883C7.45909 13.1309 7.45916 12.8692 7.62271 12.7119L10.3216 10.1163C10.5757 9.87185 10.9989 10.0519 10.9989 10.4045V15.5986C10.9989 15.9514 10.5755 16.1314 10.3214 15.8868L7.62255 13.2883Z" fill="#DB5C5C"/>
</g>
<defs>
<clipPath id="clip0_13636_9351">
<rect width="16" height="16" fill="white"/>
</clipPath>
</defs>
</svg>
