<svg width="16" height="16" viewBox="0 0 16 16" fill="none" xmlns="http://www.w3.org/2000/svg">
<circle cx="8" cy="8" r="6.5" fill="#402929" stroke="#DB5C5C"/>
<path d="M8.50016 4.5C8.50016 4.22386 8.2763 4 8.00016 4C7.72401 4 7.50016 4.22386 7.50016 4.5V7.13369C7.64721 7.04866 7.81792 7 8 7C8.55228 7 9 7.44772 9 8C9 8.36998 8.79907 8.69303 8.50039 8.86599L10.7815 10.183C11.0206 10.3211 11.3264 10.2391 11.4645 9.99997C11.6026 9.76082 11.5206 9.45503 11.2815 9.31696L9 8L11.281 6.68304C11.5202 6.54497 11.6021 6.23918 11.464 6.00003C11.326 5.76088 11.0202 5.67895 10.781 5.81702L8.50016 7.13387V4.5Z" fill="#DB5C5C"/>
<path d="M8.50039 8.86599C8.35327 8.95113 8.18221 9 8 9C7.81792 9 7.64721 8.95134 7.50016 8.86631V11.5C7.50016 11.7761 7.72401 12 8.00016 12C8.2763 12 8.50016 11.7761 8.50016 11.5L8.50039 8.86599Z" fill="#DB5C5C"/>
<path d="M7.50016 8.86631C7.20135 8.69338 7 8.37007 7 8C7 7.99999 7 8.00001 7 8L4.71883 9.31702C4.47969 9.45509 4.39775 9.76088 4.53582 10C4.67389 10.2392 4.97969 10.3211 5.21883 10.183L7.50016 8.86631Z" fill="#DB5C5C"/>
<path d="M7 8C7.00009 7.62994 7.20129 7.30655 7.50016 7.13369L5.2193 5.81696C4.98016 5.67889 4.67436 5.76082 4.53629 5.99997C4.39822 6.23912 4.48016 6.54491 4.7193 6.68298L7 8Z" fill="#DB5C5C"/>
</svg>
