<svg width="16" height="16" viewBox="0 0 16 16" fill="none" xmlns="http://www.w3.org/2000/svg">
<path fill-rule="evenodd" clip-rule="evenodd" d="M9 15.0764C9.01235 12.5573 10.3587 10.2379 12.5278 9C14.6737 10.2515 15.9972 12.566 16 15.0716L15.9993 15.0895C13.9341 16.2842 11.2695 16.327 9 15.0764ZM13.9995 11.8955C13.9942 12.9751 13.4172 13.9691 12.4876 14.4997C11.5679 13.9633 11.0007 12.9714 10.9995 11.8976L10.9998 11.8899C11.8849 11.3779 13.0269 11.3595 13.9995 11.8955Z" fill="#39207C"/>
<path d="M14.8244 9.56495C14.9393 9.06179 15 8.53798 15 8C15 4.13401 11.866 1 8 1C4.13401 1 1 4.13401 1 8C1 11.866 4.13401 15 8 15C7.99978 15 8.00022 15 8 15C8.03905 12.1552 9.56995 9.53682 12.0321 8.13167L12.5331 7.8457L13.0315 8.13636C13.704 8.52853 14.3054 9.01157 14.8244 9.56495Z" fill="#FAF5FF"/>
<path d="M14.8244 9.56495C14.9393 9.06179 15 8.53798 15 8C15 4.13401 11.866 1 8 1C4.13401 1 1 4.13401 1 8C1 11.866 4.13401 15 8 15C7.99978 15 8.00022 15 8 15C8.00463 14.6628 8.03086 14.3287 8.07647 13.9995C8.05102 13.9998 8.02553 14 8 14C4.68629 14 2 11.3137 2 8C2 4.68629 4.68629 2 8 2C11.3137 2 14 4.68629 14 8C14 8.25865 13.9836 8.51348 13.9519 8.76351C14.2638 9.00982 14.5552 9.27793 14.8244 9.56495Z" fill="#834DF0"/>
<path fill-rule="evenodd" clip-rule="evenodd" d="M11.3526 8.56662C11.3785 8.38311 11.3915 8.19379 11.3915 7.99865C11.3915 7.33565 11.242 6.73982 10.943 6.21115C10.6483 5.68248 10.2431 5.26865 9.72747 4.96965C9.2118 4.66632 8.63764 4.51465 8.00497 4.51465C7.3723 4.51465 6.79597 4.66632 6.27597 4.96965C5.75597 5.26865 5.34647 5.68465 5.04747 6.21765C4.7528 6.74632 4.60547 7.33998 4.60547 7.99865C4.60547 8.65732 4.7528 9.25315 5.04747 9.78615C5.34647 10.3148 5.7538 10.7308 6.26947 11.0341C6.78947 11.3331 7.3658 11.4826 7.99847 11.4826C8.32056 11.4826 8.62713 11.4444 8.9182 11.368C9.49405 10.2664 10.3227 9.30225 11.3526 8.56662ZM8.01147 10.5336C8.4448 10.5336 8.8348 10.4275 9.18147 10.2151C9.52814 10.0028 9.80114 9.70598 10.0005 9.32465C10.1998 8.93898 10.2995 8.49698 10.2995 7.99865C10.2995 7.50032 10.1998 7.05832 10.0005 6.67265C9.80114 6.28698 9.52597 5.98798 9.17497 5.77565C8.8283 5.56332 8.4383 5.45715 8.00497 5.45715C7.57164 5.45715 7.17947 5.56332 6.82847 5.77565C6.47747 5.98798 6.20014 6.28698 5.99647 6.67265C5.79714 7.05832 5.69747 7.50032 5.69747 7.99865C5.69747 8.49698 5.79714 8.93898 5.99647 9.32465C6.20014 9.70598 6.47747 10.0028 6.82847 10.2151C7.1838 10.4275 7.57814 10.5336 8.01147 10.5336Z" fill="#834DF0"/>
</svg>
