<svg width="16" height="16" viewBox="0 0 16 16" fill="none" xmlns="http://www.w3.org/2000/svg">
<path fill-rule="evenodd" clip-rule="evenodd" d="M13 8C13 9.65685 11.6569 11 10 11C8.34315 11 7 9.65685 7 8C7 6.34315 8.34315 5 10 5C11.6569 5 13 6.34315 13 8ZM12 8C12 9.10457 11.1046 10 10 10C8.89543 10 8 9.10457 8 8C8 6.89543 8.89543 6 10 6C11.1046 6 12 6.89543 12 8Z" fill="url(#paint0_linear_15348_11712)"/>
<path fill-rule="evenodd" clip-rule="evenodd" d="M8 13.5C11.5 13.5 15 11 16 8C15 5 11.5 2.5 8 2.5C4.5 2.5 1 5 0 8C1 11 4.5 13.5 8 13.5ZM3.63356 11.0541C2.44503 10.2273 1.53283 9.14177 1.06602 8C1.53283 6.85823 2.44503 5.77271 3.63356 4.94591C4.92792 4.04548 6.48208 3.5 8 3.5C9.51792 3.5 11.0721 4.04548 12.3664 4.94591C13.555 5.77271 14.4672 6.85823 14.934 8C14.4672 9.14177 13.555 10.2273 12.3664 11.0541C11.0721 11.9545 9.51792 12.5 8 12.5C6.48208 12.5 4.92792 11.9545 3.63356 11.0541Z" fill="url(#paint1_linear_15348_11712)"/>
<defs>
<linearGradient id="paint0_linear_15348_11712" x1="12.4444" y1="12.1341" x2="8.72281" y2="3.22585" gradientUnits="userSpaceOnUse">
<stop stop-color="#FDB60D"/>
<stop offset="0.9292" stop-color="#DD1265"/>
</linearGradient>
<linearGradient id="paint1_linear_15348_11712" x1="12.4444" y1="12.1341" x2="8.72281" y2="3.22585" gradientUnits="userSpaceOnUse">
<stop stop-color="#FDB60D"/>
<stop offset="0.9292" stop-color="#DD1265"/>
</linearGradient>
</defs>
</svg>
