<svg width="16" height="16" viewBox="0 0 16 16" fill="none" xmlns="http://www.w3.org/2000/svg">
<circle cx="8" cy="8" r="6.5" fill="#FAF5FF" stroke="#834DF0"/>
<path fill-rule="evenodd" clip-rule="evenodd" d="M7.681 7.53L8.648 5.88L7 5.185L7.252 4.438L8.977 4.91L9.143 3L9.915 3.004L10.042 4.884L11.774 4.463L12 5.212L10.361 5.888L11.308 7.549L10.688 8.008L9.508 6.488L8.296 7.995L7.681 7.53Z" fill="#834DF0"/>
<path fill-rule="evenodd" clip-rule="evenodd" d="M6.5 7C6.77614 7 7 7.22386 7 7.5V9H8.5C8.77614 9 9 9.22386 9 9.5C9 9.77614 8.77614 10 8.5 10H7V11.5C7 11.7761 6.77614 12 6.5 12C6.22386 12 6 11.7761 6 11.5V10H4.5C4.22386 10 4 9.77614 4 9.5C4 9.22386 4.22386 9 4.5 9H6V7.5C6 7.22386 6.22386 7 6.5 7Z" fill="#834DF0"/>
</svg>
