<svg width="14" height="14" viewBox="0 0 14 14" fill="none" xmlns="http://www.w3.org/2000/svg">
<path d="M10 7C10 9.48528 7.98528 11.5 5.5 11.5C3.01472 11.5 1 9.48528 1 7C1 4.51472 3.01472 2.5 5.5 2.5C7.98528 2.5 10 4.51472 10 7Z" fill="#253627"/>
<path fill-rule="evenodd" clip-rule="evenodd" d="M11.5 8C11.2239 8 11 7.77614 11 7.5L11 1.70711L9.85355 2.85355C9.65829 3.04882 9.34171 3.04882 9.14645 2.85355C8.95118 2.65829 8.95118 2.34171 9.14645 2.14645L11.1464 0.146447C11.3417 -0.0488155 11.6583 -0.0488155 11.8536 0.146447L13.8536 2.14645C14.0488 2.34171 14.0488 2.65829 13.8536 2.85355C13.6583 3.04882 13.3417 3.04882 13.1464 2.85355L12 1.70711L12 7.5C12 7.77614 11.7761 8 11.5 8Z" fill="#DB5C5C"/>
<path d="M10 7C10 9.48528 7.98528 11.5 5.5 11.5C3.01472 11.5 1 9.48528 1 7C1 4.51472 3.01472 2.5 5.5 2.5C6.61537 2.5 7.63597 2.90579 8.4222 3.5778L8.43934 3.56066C8.05008 3.1714 7.91948 2.62142 8.04756 2.12432C7.28593 1.72554 6.41931 1.5 5.5 1.5C2.46243 1.5 0 3.96243 0 7C0 10.0376 2.46243 12.5 5.5 12.5C7.91689 12.5 9.96967 10.9411 10.7077 8.7739C10.2828 8.50906 10 8.03755 10 7.5V7Z" fill="#57965C"/>
<path fill-rule="evenodd" clip-rule="evenodd" d="M4.49969 4.63486C4.83725 4.23203 5.34241 4 5.96022 4C7.21022 4 8.08303 4.95614 8.08303 6.35088C8.08303 7.74561 7.21022 8.70175 5.96022 8.70175C5.34234 8.70175 4.83723 8.46958 4.49969 8.06696V10H3.49969V4H4.49969V4.63486ZM4.49969 7.08477V5.61698C4.72076 5.09577 5.18669 4.77193 5.7804 4.77193C6.61373 4.77193 7.18829 5.41667 7.18829 6.35088C7.18829 7.28509 6.61373 7.92982 5.7804 7.92982C5.18669 7.92982 4.72076 7.60599 4.49969 7.08477Z" fill="#57965C"/>
</svg>
