<svg width="16" height="16" viewBox="0 0 16 16" fill="none" xmlns="http://www.w3.org/2000/svg">
<path fill-rule="evenodd" clip-rule="evenodd" d="M11 6H14V8H15V4C15 2.89543 14.1046 2 13 2H3C1.89543 2 1 2.89543 1 4V8H2V6H5V8H6V6H10V8H11V6ZM3 3H5V5H2V4C2 3.44772 2.44772 3 3 3ZM10 5H6V3H10V5ZM14 5H11V3H13C13.5523 3 14 3.44772 14 4V5Z" fill="#6C707E"/>
<path d="M5 9H6V13H10V9H11V13H13C13.5523 13 14 12.5523 14 12V9H15V12C15 13.1046 14.1046 14 13 14H3C1.89543 14 1 13.1046 1 12V9H2V12C2 12.5523 2.44772 13 3 13H5V9Z" fill="#3574F0"/>
</svg>
