<svg width="14" height="14" viewBox="0 0 14 14" fill="none" xmlns="http://www.w3.org/2000/svg">
<g clip-path="url(#clip0_8012_11514)">
<path fill-rule="evenodd" clip-rule="evenodd" d="M8 7C7.44772 7 7 7.44772 7 8L7 13C7 13.5523 7.44772 14 8 14L13 14C13.5523 14 14 13.5523 14 13L14 8.00001C14 7.44772 13.5523 7.00001 13 7.00001L8 7ZM8 9.00002L8 8.00001H10L10 9.00002H8ZM8 10L8 13H10L10 10H8ZM11 13H13L13 10H11L11 13ZM13 9.00001L13 8H11L11 9.00001H13Z" fill="#548AF7"/>
<path fill-rule="evenodd" clip-rule="evenodd" d="M1 2.39246H1.01664C1.07865 2.00405 1.30765 1.67483 1.59694 1.41334C1.9371 1.10586 2.40129 0.851887 2.93236 0.648849C3.99792 0.241467 5.43619 0 7 0C8.56381 0 10.0021 0.241467 11.0676 0.648849C11.5987 0.851887 12.0629 1.10586 12.4031 1.41334C12.6924 1.67483 12.9213 2.00405 12.9834 2.39246H13L13 6.00001L11.726 6.00001C11.7282 5.99807 11.7304 5.99613 11.7325 5.99419C11.949 5.79851 12 5.64645 12 5.54663V4.09723C11.7276 4.27221 11.4117 4.42512 11.0676 4.55665C10.0021 4.96403 8.56381 5.2055 7 5.2055C5.43619 5.2055 3.99792 4.96403 2.93236 4.55665C2.58833 4.42512 2.27236 4.27221 2 4.09723V5.54663C2 5.64645 2.05102 5.79851 2.2675 5.99419C2.48396 6.18985 2.82523 6.38898 3.28947 6.56647C4.04342 6.85472 5.05426 7.06032 6.20032 7.12652C6.07199 7.39043 6 7.68681 6 8V8.11589C4.82819 8.0365 3.76617 7.81931 2.93236 7.50053C2.58833 7.369 2.27236 7.21609 2 7.04112V8.49048C2 8.59029 2.05102 8.74236 2.2675 8.93804C2.48396 9.1337 2.82523 9.33283 3.28947 9.51031C3.99918 9.78165 4.93651 9.97976 6 10.0573V11.0597C4.82819 10.9803 3.76617 10.7632 2.93236 10.4444C2.58833 10.3128 2.27236 10.1599 2 9.98496V11.4343C2 11.5341 2.05102 11.6862 2.2675 11.8819C2.48396 12.0775 2.82523 12.2767 3.28947 12.4542C3.99919 12.7255 4.93652 12.9236 6 13.0011C6.0002 13.3732 6.102 13.7215 6.27915 14.0198C4.99707 13.9578 3.8319 13.7321 2.93236 13.3882C2.40129 13.1852 1.9371 12.9312 1.59694 12.6237C1.2768 12.3344 1.03051 11.9621 1.00263 11.5184H1V2.39246ZM2 2.60275C2 2.50293 2.05102 2.35087 2.2675 2.15519C2.48396 1.95953 2.82523 1.7604 3.28947 1.58291C4.21452 1.22925 5.52624 1 7 1C8.47376 1 9.78548 1.22925 10.7105 1.58291C11.1748 1.7604 11.516 1.95953 11.7325 2.15519C11.949 2.35087 12 2.50293 12 2.60275C12 2.70256 11.949 2.85463 11.7325 3.05031C11.516 3.24597 11.1748 3.4451 10.7105 3.62258C9.78548 3.97625 8.47376 4.2055 7 4.2055C5.52624 4.2055 4.21452 3.97625 3.28947 3.62258C2.82523 3.4451 2.48396 3.24597 2.2675 3.05031C2.05102 2.85463 2 2.70256 2 2.60275Z" fill="#CED0D6"/>
</g>
<defs>
<clipPath id="clip0_8012_11514">
<rect width="14" height="14" fill="white"/>
</clipPath>
</defs>
</svg>
