<svg width="14" height="14" viewBox="0 0 14 14" fill="none" xmlns="http://www.w3.org/2000/svg">
<path fill-rule="evenodd" clip-rule="evenodd" d="M12 9.94999C13.1411 9.71836 14 8.70948 14 7.5C14 6.11929 12.8807 5 11.5 5C10.1193 5 9 6.11929 9 7.5C9 8.70948 9.85888 9.71836 11 9.94999V14H12V13H14V12H12V9.94999ZM13 7.5C13 8.32843 12.3284 9 11.5 9C10.6716 9 10 8.32843 10 7.5C10 6.67157 10.6716 6 11.5 6C12.3284 6 13 6.67157 13 7.5Z" fill="#6C707E"/>
<path d="M7.3317 2.01083C7.22206 2.00365 7.11145 2 7 2C4.23858 2 2 4.23858 2 7C2 7.11145 2.00365 7.22206 2.01083 7.3317C2.3187 7.18674 2.65112 7.08533 3.00015 7.03542L3 7C3 4.79086 4.79086 3 7 3L7.03542 3.00016C7.08533 2.65112 7.18674 2.3187 7.3317 2.01083Z" fill="#6C707E"/>
<path d="M6.66831 11.9892C6.81326 11.6813 6.91467 11.3489 6.96458 10.9998L7 11C7.87097 11 8.67692 10.7216 9.33374 10.249C9.53856 10.4106 9.76188 10.5497 10 10.6629V11.0004C9.16434 11.6281 8.12561 12 7 12C6.88855 12 6.77794 11.9964 6.66831 11.9892Z" fill="#6C707E"/>
<path d="M13.7448 4.81455C13.9093 4.40868 14 3.96493 14 3.5C14 1.567 12.433 0 10.5 0C8.567 0 7 1.567 7 3.5C7 4.5787 7.48799 5.54342 8.25524 6.18545C8.77497 4.90386 10.0319 4 11.5 4C12.3543 4 13.1371 4.30608 13.7448 4.81455Z" fill="#FFF4EB"/>
<path d="M7 10.5C7 12.433 5.433 14 3.5 14C1.567 14 0 12.433 0 10.5C0 8.567 1.567 7 3.5 7C5.433 7 7 8.567 7 10.5Z" fill="#FFF4EB"/>
<path d="M12.8757 4.28072C12.9564 4.03508 13 3.77263 13 3.5C13 2.11929 11.8807 1 10.5 1C9.11929 1 8 2.11929 8 3.5C8 4.21046 8.29636 4.8517 8.77219 5.30685C8.55962 5.57091 8.3846 5.86648 8.25524 6.18545C7.48799 5.54342 7 4.5787 7 3.5C7 1.567 8.567 0 10.5 0C12.433 0 14 1.567 14 3.5C14 3.96493 13.9093 4.40868 13.7448 4.81455C13.4845 4.59676 13.1921 4.4161 12.8757 4.28072Z" fill="#E66D17"/>
<path fill-rule="evenodd" clip-rule="evenodd" d="M3.5 14C5.433 14 7 12.433 7 10.5C7 8.567 5.433 7 3.5 7C1.567 7 0 8.567 0 10.5C0 12.433 1.567 14 3.5 14ZM3.5 13C4.88071 13 6 11.8807 6 10.5C6 9.11929 4.88071 8 3.5 8C2.11929 8 1 9.11929 1 10.5C1 11.8807 2.11929 13 3.5 13Z" fill="#E66D17"/>
</svg>
