<svg width="14" height="14" viewBox="0 0 14 14" fill="none" xmlns="http://www.w3.org/2000/svg">
<path d="M3.38955 0.741961L3.74902 0.384802C4.29982 -0.156699 5.19848 -0.122134 5.7029 0.459691L10.6775 6.22034C11.1123 6.72152 11.1065 7.46464 10.6659 7.96006L5.7087 13.5421C5.19849 14.1124 4.31142 14.1412 3.76642 13.5997L3.40695 13.2426C2.91993 12.7587 2.88514 11.9867 3.32578 11.4568L6.29429 7.91972C6.70013 7.43583 6.70593 6.7388 6.31169 6.24338L3.2968 2.49896C2.86775 1.9805 2.90833 1.22009 3.38955 0.741961Z" fill="#92D13D"/>
<path d="M6.28887 7.93138L3.32036 11.4684C2.87973 11.9926 2.91451 12.7703 3.40153 13.2542L3.76101 13.6114C4.306 14.1529 5.19307 14.1241 5.70328 13.5538L6.77588 12.344C7.18173 11.5491 7.40785 10.6504 7.40785 9.69991C7.40785 8.52473 7.05998 7.43596 6.4686 6.52002C6.68892 6.96935 6.63094 7.52814 6.28887 7.93138Z" fill="#49691F"/>
</svg>
