<svg width="16" height="16" viewBox="0 0 16 16" fill="none" xmlns="http://www.w3.org/2000/svg">
<rect x="11" y="12" width="4" height="3" fill="#25324D"/>
<path fill-rule="evenodd" clip-rule="evenodd" d="M15 11V10C15 8.89543 14.1046 8 13 8C11.8954 8 11 8.89543 11 10V11C10.4477 11 10 11.4477 10 12V15C10 15.5523 10.4477 16 11 16H15C15.5523 16 16 15.5523 16 15V12C16 11.4477 15.5523 11 15 11ZM12 10C12 9.44772 12.4477 9 13 9C13.5523 9 14 9.44772 14 10V11H12V10ZM11 15L11 12H15V15H11Z" fill="#548AF7"/>
<path d="M9 14.0415V12C9 11.2597 9.4022 10.6134 10 10.2676V10C10 8.34315 11.3431 7 13 7C13.5464 7 14.0587 7.14609 14.5 7.40135V4.5L7.99998 1.5L1.5 4.5V11.5199L8 14.5L9 14.0415Z" fill="#43454A"/>
<path d="M8.2095 1.04602C8.07656 0.98466 7.92339 0.98466 7.79045 1.04602L1.29047 4.04602C1.1134 4.12775 1 4.30497 1 4.5V11.5199C1 11.7154 1.11392 11.8929 1.29162 11.9744L7.79162 14.9545C7.92392 15.0152 8.07608 15.0152 8.20838 14.9545L9 14.5916V13.4915L8 13.95L2 11.1991V4.81992L7.99998 2.05069L14 4.81992V7.17071C14.3726 7.30241 14.7115 7.50564 15 7.76389V4.5C15 4.30497 14.8866 4.12775 14.7095 4.04602L8.2095 1.04602Z" fill="#CED0D6"/>
<path d="M8 7.50002L12.5 5.50024M8 7.50002L3.5 5.50024M8 7.50002V12.5" stroke="#CED0D6" stroke-linecap="round"/>
</svg>
