<svg width="16" height="16" viewBox="0 0 16 16" fill="none" xmlns="http://www.w3.org/2000/svg">
<path d="M2.09975 3.37454C2.03502 3.57131 2 3.78157 2 4V12C2 13.1046 2.89543 14 4 14H12C12.3111 14 12.6057 13.929 12.8683 13.8022L6.05279 10.3944C5.8673 10.3017 5.71524 10.1536 5.61765 9.9706L2.09975 3.37454Z" fill="#4682FA"/>
<path d="M13.9958 12.1299C13.9986 12.087 14 12.0436 14 12V4C14 2.89543 13.1046 2 12 2H4C3.88047 2 3.7634 2.01049 3.64964 2.03059L7.23234 8.74815L13.9958 12.1299Z" fill="#4682FA"/>
</svg>
