<svg width="16" height="16" viewBox="0 0 16 16" fill="none" xmlns="http://www.w3.org/2000/svg">
<path d="M7.99934 12.4014L9.06508 14H6.93359L7.99934 12.4014Z" fill="#43454A"/>
<path fill-rule="evenodd" clip-rule="evenodd" d="M10.5263 3.45338C12.1636 5.09059 12.6154 7.32272 10.9603 8.97781C9.30514 10.6329 6.98758 10.1225 5.42233 8.55732C3.85708 6.99211 3.39145 4.64775 5.01078 3.02845C6.63012 1.40914 8.8891 1.81617 10.5263 3.45338Z" fill="#45322B"/>
<path fill-rule="evenodd" clip-rule="evenodd" d="M10.5263 3.45338C12.1636 5.09059 12.6154 7.32272 10.9603 8.97781C9.30514 10.6329 6.98758 10.1225 5.42233 8.55732C3.85708 6.99211 3.39145 4.64775 5.01078 3.02845C6.63012 1.40914 8.8891 1.81617 10.5263 3.45338ZM9.81924 4.1605C10.518 4.85924 10.9051 5.62771 10.9844 6.32235C11.0442 6.84606 10.9368 7.37522 10.5851 7.87791L6.11213 3.40499C6.602 3.06741 7.12827 2.95763 7.65544 3.01405C8.35503 3.08891 9.12691 3.46818 9.81924 4.1605ZM5.40383 4.11091L9.87908 8.58615C9.37355 8.93927 8.82544 9.04732 8.27527 8.98213C7.55643 8.89695 6.78438 8.50514 6.12943 7.85021C5.4809 7.20169 5.09686 6.42651 5.01619 5.70244C4.9545 5.14872 5.06497 4.60362 5.40383 4.11091Z" fill="#C77D55"/>
<path d="M1 1.5C1 1.22386 1.22386 1 1.5 1H2.5C2.77614 1 3 1.22386 3 1.5C3 1.77614 2.77614 2 2.5 2H2V9H2.5C2.77614 9 3 9.22386 3 9.5C3 9.77614 2.77614 10 2.5 10H1.5C1.22386 10 1 9.77614 1 9.5V1.5Z" fill="#CED0D6"/>
<path d="M15 9.5C15 9.77614 14.7761 10 14.5 10H13.5C13.2239 10 13 9.77614 13 9.5C13 9.22386 13.2239 9 13.5 9H14L14 2H13.5C13.2239 2 13 1.77614 13 1.5C13 1.22386 13.2239 1 13.5 1H14.5C14.7761 1 15 1.22386 15 1.5L15 9.5Z" fill="#CED0D6"/>
<path fill-rule="evenodd" clip-rule="evenodd" d="M8.41603 11.2226C8.32329 11.0836 8.16718 11 8 11C7.83282 11 7.67671 11.0836 7.58398 11.2226L5.58398 14.2226C5.48169 14.3761 5.47215 14.5733 5.55916 14.7359C5.64617 14.8985 5.8156 15 6 15H10C10.1844 15 10.3538 14.8985 10.4408 14.7359C10.5278 14.5733 10.5183 14.3761 10.416 14.2226L8.41603 11.2226ZM8 12.4014L9.06574 14H6.93426L8 12.4014Z" fill="#CED0D6"/>
</svg>
