<svg width="16" height="16" viewBox="0 0 16 16" fill="none" xmlns="http://www.w3.org/2000/svg">
<path fill-rule="evenodd" clip-rule="evenodd" d="M14 11.5V11H15C15.5523 11 16 11.4477 16 12V13C16 13.5523 15.5523 14 15 14H14V15C14 15.5523 13.5523 16 13 16H12C11.4477 16 11 15.5523 11 15V13.5C11 12.9477 11.4477 12.5 12 12.5H13C13.5523 12.5 14 12.0523 14 11.5ZM12.5 15C12.7761 15 13 14.7761 13 14.5C13 14.2239 12.7761 14 12.5 14C12.2239 14 12 14.2239 12 14.5C12 14.7761 12.2239 15 12.5 15Z" fill="#FFAF0F"/>
<path fill-rule="evenodd" clip-rule="evenodd" d="M11 13.5V14H10C9.44772 14 9 13.5523 9 13V12C9 11.4477 9.44772 11 10 11H11V10C11 9.44772 11.4477 9 12 9H13C13.5523 9 14 9.44772 14 10V11.5C14 12.0523 13.5523 12.5 13 12.5H12C11.4477 12.5 11 12.9477 11 13.5ZM12.5 11C12.7761 11 13 10.7761 13 10.5C13 10.2239 12.7761 10 12.5 10C12.2239 10 12 10.2239 12 10.5C12 10.7761 12.2239 11 12.5 11Z" fill="#4682FA"/>
<path d="M1.45037 8.8394L5.24456 10.447L6.05786 14.4576C6.17246 15.0227 6.88289 15.2146 7.26651 14.7841L8 13.961V11.4779L7.3171 12.27L6.65529 9.23677L3.73606 8.0685L6.46866 6.49465L6.71316 3.39634L9.06382 5.45691L12.1342 4.71032L10.8543 7.55768L11.1316 8H12.9257L12.694 7.63395L14.4211 3.93942C14.667 3.41326 14.2022 2.83371 13.6352 2.95964L9.58822 3.85845L6.52043 1.17999C6.09106 0.805111 5.4176 1.07314 5.36324 1.64054L4.98419 5.59702L1.38539 7.58192C0.873921 7.86402 0.912546 8.61152 1.45037 8.8394Z" fill="#E25A1C"/>
</svg>
