<svg width="16" height="16" viewBox="0 0 16 16" fill="none" xmlns="http://www.w3.org/2000/svg">
<path d="M11.3226 5.49698L12.4116 4.40795C14.8489 6.79344 14.8489 10.7347 12.3597 13.172C11.7864 13.7512 11.1039 14.211 10.3518 14.5248C9.5996 14.8386 8.7927 15.0001 7.97772 15.0001C7.16274 15.0001 6.35584 14.8386 5.60369 14.5248C4.85153 14.211 4.16905 13.7512 3.59569 13.172C3.0165 12.5987 2.55672 11.9162 2.24293 11.164C1.92914 10.4119 1.76758 9.60496 1.76758 8.78998C1.76758 7.975 1.92914 7.1681 2.24293 6.41594C2.55672 5.66379 3.0165 4.98131 3.59569 4.40795L8.00365 0V2.17805L7.64064 2.59291L4.73658 5.49698C2.92154 7.31202 2.92154 10.2679 4.73658 12.083C6.55162 13.898 9.50754 13.898 11.3226 12.083C13.1376 10.2679 13.1376 7.31202 11.3226 5.49698Z" fill="#EE4C2C"/>
<path d="M11.0628 3.26723C11.0628 3.72548 10.6913 4.09696 10.2331 4.09696C9.7748 4.09696 9.40332 3.72548 9.40332 3.26723C9.40332 2.80898 9.7748 2.4375 10.2331 2.4375C10.6913 2.4375 11.0628 2.80898 11.0628 3.26723Z" fill="#EE4C2C"/>
</svg>
