<svg width="16" height="16" viewBox="0 0 16 16" fill="none" xmlns="http://www.w3.org/2000/svg">
<path d="M4.5 7C4.22386 7 4 7.22386 4 7.5C4 7.77614 4.22386 8 4.5 8H5.5C5.77614 8 6 7.77614 6 7.5C6 7.22386 5.77614 7 5.5 7H4.5Z" fill="#6C707E"/>
<path d="M4.5 9C4.22386 9 4 9.22386 4 9.5C4 9.77614 4.22386 10 4.5 10H7C7.27614 10 7.5 9.77614 7.5 9.5C7.5 9.22386 7.27614 9 7 9H4.5Z" fill="#6C707E"/>
<path d="M4.5 11C4.22386 11 4 11.2239 4 11.5C4 11.7761 4.22386 12 4.5 12H8.5C8.77614 12 9 11.7761 9 11.5C9 11.2239 8.77614 11 8.5 11H4.5Z" fill="#6C707E"/>
<path fill-rule="evenodd" clip-rule="evenodd" d="M14 6.5C14 8.3365 12.8999 9.91604 11.3227 10.6156L12.6415 11.9344C13.4038 12.6967 12.8639 14 11.7859 14H4C2.89543 14 2 13.1046 2 12V4C2 2.89543 2.89543 2 4 2H9.5C11.9853 2 14 4.01472 14 6.5ZM13 6.5C13 8.06805 11.9688 9.39526 10.5476 9.84052L5.85355 5.14645C5.75979 5.05268 5.63261 5 5.5 5H4C3.44772 5 3 4.55228 3 4C3 3.44772 3.44772 3 4 3H9.5C11.433 3 13 4.567 13 6.5ZM4 6H5.29289L11.9344 12.6415C12.0667 12.7738 11.973 13 11.7859 13H4C3.44772 13 3 12.5523 3 12V5.73244C3.29417 5.90261 3.63571 6 4 6Z" fill="#6C707E"/>
</svg>
