<svg width="16" height="16" viewBox="0 0 16 16" fill="none" xmlns="http://www.w3.org/2000/svg">
<path d="M14.8991 9.19085C14.9654 8.80382 15 8.40595 15 8C15 4.13401 11.866 1 8 1C4.13401 1 1 4.13401 1 8C1 11.866 4.13401 15 8 15C8.69497 15 9.36629 14.8987 10 14.7101V9H13.622C14.0586 9 14.4927 9.06151 14.8991 9.19085Z" fill="#253627"/>
<path d="M10 4.5V5.5L8.5 5.5V10.5H10V11.5H6V10.5H7.5V5.5L6 5.5V4.5H10Z" fill="#57965C"/>
<path fill-rule="evenodd" clip-rule="evenodd" d="M12 13.0004V11.0004H13.537C14.303 11.0004 15 11.313 15 11.954C15 12.595 14.285 13.0004 13.547 13.0004H12ZM14.36 13.828C15.175 13.59 16 13.1099 16 11.913C16 10.7161 14.9489 10 13.622 10H11V16H12V14.0004H13.328L14.773 16H16L14.36 13.828Z" fill="#CED0D6"/>
<path d="M10 13.6586C9.37444 13.8797 8.70127 14 8 14C4.68629 14 2 11.3137 2 8C2 4.68629 4.68629 2 8 2C11.3137 2 14 4.68629 14 8C14 8.34399 13.9711 8.68121 13.9155 9.00938C14.2522 9.03104 14.584 9.09055 14.8991 9.19085C14.9654 8.80382 15 8.40595 15 8C15 4.13401 11.866 1 8 1C4.13401 1 1 4.13401 1 8C1 11.866 4.13401 15 8 15C8.69497 15 9.36629 14.8987 10 14.7101V13.6586Z" fill="#57965C"/>
</svg>
