<svg width="16" height="16" viewBox="0 0 16 16" fill="none" xmlns="http://www.w3.org/2000/svg">
<path d="M8.5 13V15.5M8.5 15.5H12.5M8.5 15.5H3.5" stroke="#CED0D6" stroke-linecap="round"/>
<path d="M6.41421 1.58579L3.58579 4.41421C3.21071 4.78929 3 5.29799 3 5.82843V11C3 12.1046 3.89543 13 5 13H11C12.1046 13 13 12.1046 13 11V3C13 1.89543 12.1046 1 11 1H7.82843C7.29799 1 6.78929 1.21071 6.41421 1.58579Z" fill="#43454A"/>
<path d="M3.93934 4.76777L6.76777 1.93934C7.04907 1.65803 7.4306 1.5 7.82843 1.5H11C11.8284 1.5 12.5 2.17157 12.5 3V11C12.5 11.8284 11.8284 12.5 11 12.5H5C4.17157 12.5 3.5 11.8284 3.5 11V5.82843C3.5 5.4306 3.65804 5.04907 3.93934 4.76777Z" stroke="#CED0D6"/>
</svg>
