<svg width="16" height="16" viewBox="0 0 16 16" fill="none" xmlns="http://www.w3.org/2000/svg">
<path fill-rule="evenodd" clip-rule="evenodd" d="M14.4122 8.29491C14.0217 7.90438 13.3885 7.90438 12.998 8.29491L11.6466 9.64627L8 13.2929V16H10.7071L15.7051 11.002C16.0956 10.6115 16.0956 9.97832 15.7051 9.5878L14.4122 8.29491ZM14 11.2929L14.998 10.2949L13.7051 9.00201L12.7071 9.99999L14 11.2929ZM12 10.7071L13.2929 12L10.2929 15H9V13.7071L12 10.7071Z" fill="#3574F0"/>
<path d="M1 2.5C1 2.22386 1.22386 2 1.5 2H14.5C14.7761 2 15 2.22386 15 2.5C15 2.77614 14.7761 3 14.5 3H1.5C1.22386 3 1 2.77614 1 2.5Z" fill="#6C707E"/>
<path d="M5.27461 10.2938L7.70136 8.06252C7.93369 7.84718 8.10227 7.64035 8.20711 7.44202C8.31477 7.24085 8.36861 7.02835 8.36861 6.80452C8.36861 6.59202 8.32044 6.4036 8.22411 6.23927C8.12777 6.07493 7.99177 5.94743 7.81611 5.85677C7.64327 5.7661 7.44352 5.72077 7.21686 5.72077C6.97602 5.72077 6.76069 5.77318 6.57086 5.87802C6.38386 5.98002 6.23652 6.1231 6.12886 6.30727C6.02402 6.49143 5.97161 6.70252 5.97161 6.94052H5.10886C5.10886 6.56085 5.20094 6.22085 5.38511 5.92052C5.56927 5.61735 5.82286 5.37935 6.14586 5.20652C6.46886 5.03368 6.83152 4.94727 7.23386 4.94727C7.61352 4.94727 7.95636 5.02518 8.26236 5.18102C8.57119 5.33685 8.81202 5.55077 8.98486 5.82277C9.16052 6.09477 9.24836 6.40076 9.24836 6.74077C9.24836 7.0666 9.16336 7.3811 8.99336 7.68427C8.82336 7.9846 8.55561 8.30052 8.19011 8.63202L6.48161 10.2173H9.41411V10.4645L8.87934 10.9993H5.27461V10.2938Z" fill="#6C707E"/>
<path d="M7 13H1.5C1.22386 13 1 13.2239 1 13.5C1 13.7761 1.22386 14 1.5 14H7V13Z" fill="#6C707E"/>
<path d="M12.8194 7.20816L14.3971 5.72927V5.04927H10.5976V5.79302H13.3473L11.7366 7.31452V7.98177H11.8968L12.2909 7.58774C12.4497 7.42892 12.6286 7.30239 12.8194 7.20816Z" fill="#6C707E"/>
<path d="M1.29297 6.67702H2.70822V10.9993H3.56672V5.04927H2.94197C2.94197 5.23627 2.90655 5.39918 2.83572 5.53802C2.76489 5.67402 2.66289 5.78027 2.52972 5.85677C2.39655 5.93043 2.24072 5.96727 2.06222 5.96727H1.29297V6.67702Z" fill="#6C707E"/>
</svg>
