<svg width="16" height="16" viewBox="0 0 16 16" fill="none" xmlns="http://www.w3.org/2000/svg">
<path fill-rule="evenodd" clip-rule="evenodd" d="M5 15V12L11.7031 5.29692C12.0937 4.9064 12.7268 4.9064 13.1173 5.29692L14.7031 6.88271C15.0937 7.27323 15.0937 7.9064 14.7031 8.29692L8 15H5ZM6 14V12.4143L10.3536 8.06071L11.9393 9.64649L7.58579 14H6ZM12.6464 8.93939L13.996 7.58981L12.4102 6.00403L11.0607 7.35361L12.6464 8.93939Z" fill="#6C707E"/>
<path fill-rule="evenodd" clip-rule="evenodd" d="M1 11V8.00005L7.70313 1.29692C8.09365 0.906397 8.72682 0.906398 9.11734 1.29692L10.7031 2.88271C11.0937 3.27323 11.0937 3.9064 10.7031 4.29692L4 11H1ZM2 10V8.41426L6.35355 4.06071L7.93934 5.64649L3.58579 10H2ZM8.64645 4.93939L9.99602 3.58981L8.41023 2.00403L7.06066 3.35361L8.64645 4.93939Z" fill="#208A3C"/>
</svg>
