<svg width="16" height="16" viewBox="0 0 16 16" fill="none" xmlns="http://www.w3.org/2000/svg">
<path d="M8 3.5L4 5V8C4 9.85576 5.5306 11.3289 6.69818 12.1826L12 6.88063V5L8 3.5Z" fill="#43454A"/>
<path d="M4 3C3.44772 3 3 3.44772 3 4V5.5C3 5.77614 2.77614 6 2.5 6C2.22386 6 2 5.77614 2 5.5V4C2 2.89543 2.89543 2 4 2H5.5C5.77614 2 6 2.22386 6 2.5C6 2.77614 5.77614 3 5.5 3H4Z" fill="#CED0D6"/>
<path d="M13 5.5V4C13 3.44772 12.5523 3 12 3L10.5 3C10.2239 3 10 2.77614 10 2.5C10 2.22386 10.2239 2 10.5 2H12C13.1046 2 14 2.89543 14 4V5.5C14 5.77614 13.7761 6 13.5 6C13.2239 6 13 5.77614 13 5.5Z" fill="#CED0D6"/>
<path d="M3 12C3 12.5523 3.44772 13 4 13H5.5C5.77614 13 6 13.2239 6 13.5C6 13.7761 5.77614 14 5.5 14H4C2.89543 14 2 13.1046 2 12V10.5C2 10.2239 2.22386 10 2.5 10C2.77614 10 3 10.2239 3 10.5L3 12Z" fill="#CED0D6"/>
<path d="M12 6.88063L11 7.88064V5.693L8 4.568L5 5.693V8C5 9.05356 5.71825 10.0497 6.6585 10.8724C6.91623 11.0979 7.1755 11.2969 7.4146 11.4662L6.69818 12.1826C5.5306 11.3289 4 9.85576 4 8V5L8 3.5L12 5V6.88063Z" fill="#CED0D6"/>
<path d="M11.5618 10.1475C11.3665 10.3428 11.0499 10.3428 10.8547 10.1475C10.6594 9.95229 10.6594 9.6357 10.8547 9.44044L11.5322 8.76291C12.5519 7.74327 14.2078 7.74606 15.2309 8.76913C16.2539 9.7922 16.2567 11.4481 15.2371 12.4678L14.5596 13.1453C14.3643 13.3406 14.0477 13.3406 13.8525 13.1453C13.6572 12.9501 13.6572 12.6335 13.8525 12.4382L14.53 11.7607C15.1569 11.1338 15.1586 10.111 14.5238 9.47624C13.889 8.84144 12.8662 8.84315 12.2393 9.47001L11.5618 10.1475Z" fill="#548AF7"/>
<path d="M10.1476 10.8547C10.3428 11.0499 10.3428 11.3665 10.1476 11.5618L9.47001 12.2393C8.84315 12.8662 8.84144 13.889 9.47624 14.5238C10.111 15.1586 11.1338 15.1569 11.7607 14.53L12.4382 13.8524C12.6335 13.6572 12.9501 13.6572 13.1453 13.8524C13.3406 14.0477 13.3406 14.3643 13.1453 14.5595L12.4678 15.2371C11.4481 16.2567 9.7922 16.2539 8.76913 15.2309C7.74606 14.2078 7.74327 12.5519 8.76291 11.5322L9.44047 10.8547C9.63573 10.6594 9.95232 10.6594 10.1476 10.8547Z" fill="#548AF7"/>
<path d="M13.8536 10.8536C14.0488 10.6583 14.0488 10.3417 13.8536 10.1464C13.6583 9.95118 13.3417 9.95118 13.1464 10.1464L10.1464 13.1464C9.95118 13.3417 9.95118 13.6583 10.1464 13.8536C10.3417 14.0488 10.6583 14.0488 10.8536 13.8536L13.8536 10.8536Z" fill="#548AF7"/>
</svg>
