<svg width="16" height="16" viewBox="0 0 16 16" fill="none" xmlns="http://www.w3.org/2000/svg">
<path d="M3.82832 8.84H5.04382L6.20732 13H4.93982L3.82832 8.84ZM2.37232 3.9H3.93232C4.43065 3.9 4.83582 3.9975 5.14782 4.1925C5.46415 4.38317 5.69599 4.6735 5.84332 5.0635C5.99499 5.4535 6.07082 5.9475 6.07082 6.5455C6.07082 7.15217 5.99282 7.65267 5.83682 8.047C5.68515 8.437 5.44899 8.7295 5.12832 8.9245C4.80765 9.11517 4.39165 9.2105 3.88032 9.2105H3.56182V13H2.37232V3.9ZM3.93232 8.073C4.17065 8.073 4.35482 8.02317 4.48482 7.9235C4.61915 7.82383 4.71232 7.66567 4.76432 7.449C4.82065 7.23233 4.84882 6.93117 4.84882 6.5455C4.84882 6.1685 4.82065 5.87167 4.76432 5.655C4.71232 5.43833 4.61915 5.28233 4.48482 5.187C4.35482 5.08733 4.17065 5.0375 3.93232 5.0375H3.56182V8.073H3.93232ZM8.62034 13.156C8.20434 13.156 7.85768 13.0607 7.58034 12.87C7.30734 12.675 7.10151 12.376 6.96284 11.973C6.82418 11.57 6.75484 11.0565 6.75484 10.4325H7.97684C7.97684 10.8355 7.99851 11.1583 8.04184 11.401C8.08951 11.6437 8.16101 11.8213 8.25634 11.934C8.35601 12.0423 8.48168 12.0965 8.63334 12.0965C8.78501 12.0965 8.90634 12.0445 8.99734 11.9405C9.09268 11.8365 9.16201 11.674 9.20534 11.453C9.25301 11.232 9.27684 10.9482 9.27684 10.6015C9.27684 10.1855 9.22918 9.85833 9.13384 9.62C9.04284 9.37733 8.89334 9.191 8.68534 9.061L8.08084 8.684C7.81218 8.51067 7.58901 8.31133 7.41134 8.086C7.23801 7.85633 7.10801 7.58983 7.02134 7.2865C6.93901 6.98317 6.89784 6.6365 6.89784 6.2465C6.89784 5.6875 6.96068 5.22167 7.08634 4.849C7.21634 4.47633 7.40918 4.199 7.66484 4.017C7.92051 3.835 8.23251 3.744 8.60084 3.744C8.98651 3.744 9.30718 3.83717 9.56284 4.0235C9.81851 4.2055 10.0092 4.48283 10.1348 4.8555C10.2648 5.22817 10.3298 5.69833 10.3298 6.266H9.11434C9.11434 5.902 9.09484 5.61383 9.05584 5.4015C9.02118 5.18917 8.96918 5.0375 8.89984 4.9465C8.83051 4.85117 8.73518 4.8035 8.61384 4.8035C8.44484 4.8035 8.31918 4.90967 8.23684 5.122C8.15884 5.33 8.11984 5.681 8.11984 6.175C8.11984 6.539 8.16534 6.82717 8.25634 7.0395C8.35168 7.2475 8.50551 7.4165 8.71784 7.5465L9.26384 7.8845C9.55418 8.0665 9.78818 8.27883 9.96584 8.5215C10.1478 8.76417 10.28 9.05017 10.3623 9.3795C10.449 9.7045 10.4923 10.0858 10.4923 10.5235C10.4923 11.1128 10.423 11.6047 10.2843 11.999C10.15 12.389 9.94418 12.6793 9.66684 12.87C9.38951 13.0607 9.04068 13.156 8.62034 13.156ZM10.6645 3.9H14.3435V5.0505H13.0955V13H11.8995V5.0505H10.6645V3.9Z" fill="#3574F0"/>
</svg>
