<svg width="16" height="16" viewBox="0 0 16 16" fill="none" xmlns="http://www.w3.org/2000/svg">
<path fill-rule="evenodd" clip-rule="evenodd" d="M16 13.9959C16 15.0997 14.2091 16 12 16C9.79086 16 8 15.0997 8 13.9959V9.99864C8 8.89482 9.79086 8 12 8C14.2091 8 16 8.89482 16 9.99864V13.9959ZM15 9.99864C15 9.9997 14.9999 10.0012 14.9994 10.0041C14.9988 10.007 14.9972 10.0132 14.9932 10.0229C14.9852 10.0427 14.9658 10.0796 14.9222 10.1312C14.831 10.2389 14.6598 10.3789 14.3812 10.5181C13.8235 10.7968 12.983 10.998 12 10.998C11.017 10.998 10.1765 10.7968 9.61879 10.5181C9.3402 10.3789 9.16902 10.2389 9.07781 10.1312C9.03417 10.0796 9.01484 10.0427 9.00676 10.0229C9.00277 10.0132 9.00124 10.007 9.00064 10.0041C9.00007 10.0012 9 9.9997 9 9.99864C9 9.99758 9.00007 9.99603 9.00064 9.9932C9.00124 9.99025 9.00277 9.98408 9.00676 9.97435C9.01484 9.95462 9.03417 9.91764 9.07781 9.86608C9.16902 9.75833 9.3402 9.61841 9.61879 9.47921C10.1765 9.20053 11.017 8.99932 12 8.99932C12.983 8.99932 13.8235 9.20053 14.3812 9.47921C14.6598 9.61841 14.831 9.75833 14.9222 9.86608C14.9658 9.91764 14.9852 9.95462 14.9932 9.97435C14.9972 9.98408 14.9988 9.99025 14.9994 9.9932C14.9999 9.99603 15 9.99758 15 9.99864ZM15 11.3207C14.2671 11.7356 13.1947 11.9973 12 11.9973C10.8053 11.9973 9.73294 11.7356 9 11.3207V11.9919C8.99942 11.9947 9 11.9973 9 11.9973C9 11.9973 9.00007 11.9999 9.00064 12.0027C9.00124 12.0057 9.00277 12.0118 9.00676 12.0216C9.01484 12.0413 9.03417 12.0783 9.07781 12.1298C9.16902 12.2376 9.3402 12.3775 9.61879 12.5167C10.1765 12.7954 11.017 12.9966 12 12.9966C12.983 12.9966 13.8235 12.7954 14.3812 12.5167C14.6598 12.3775 14.831 12.2376 14.9222 12.1298C14.9658 12.0783 14.9852 12.0413 14.9932 12.0216C14.9972 12.0118 14.9988 12.0057 14.9994 12.0027C14.9999 11.9999 15 11.9973 15 11.9973C15 11.9973 14.9999 11.9947 14.9994 11.9919L15 11.3207ZM15 13.3193C14.2671 13.7342 13.1947 13.9959 12 13.9959C10.8053 13.9959 9.73294 13.7342 9 13.3193V13.9959C8.99942 13.9988 9 14.0014 9 14.0014C9 14.0014 9.00007 14.004 9.00064 14.0068C9.00124 14.0097 9.00277 14.0159 9.00676 14.0256C9.01484 14.0454 9.03417 14.0824 9.07781 14.1339C9.16902 14.2417 9.3402 14.3816 9.61879 14.5208C10.1765 14.7995 11.017 15.0007 12 15.0007C12.983 15.0007 13.8235 14.7995 14.3812 14.5208C14.6598 14.3816 14.831 14.2417 14.9222 14.1339C14.9658 14.0824 14.9852 14.0454 14.9932 14.0256C14.9972 14.0159 14.9988 14.0097 14.9994 14.0068C14.9999 14.004 15 14.0014 15 14.0014C15 14.0014 15 14.0005 14.9999 13.9993C14.9998 13.9983 14.9996 13.9971 14.9994 13.9959L15 13.3193Z" fill="#6C707E"/>
<path d="M13.8735 7.20272C13.2884 7.06999 12.6537 7 12 7C10.7739 7 9.61452 7.24618 8.7246 7.69084C7.89469 8.10551 7 8.86355 7 9.99864V12.1125C5.64438 12.5623 3.56189 12.9808 3.31088 13.0313C3.29444 13.0346 3.28585 13.0363 3.28585 13.0363L3.18238 12.9821C1.44444 12.1519 1.39622 8.45651 4.55116 7.26548C5.32861 6.97177 6.08696 6.93389 6.86743 6.8949C7.47602 6.86451 8.09806 6.83344 8.75308 6.67987C10.3481 6.30783 12.1948 5.12972 12.9454 3.59766C13.2987 4.62602 13.6816 5.89768 13.8735 7.20272Z" fill="#F2FCF3"/>
<path d="M7 13.9417V13.0763C6.70095 13.179 6.38855 13.2721 6.03387 13.3777C5.59304 13.5089 5.0869 13.6597 4.45997 13.8726C4.24952 13.944 4.08467 14.0129 4.08467 14.0129C4.52047 13.9423 4.95277 13.9182 4.95277 13.9182C5.48404 13.8946 6.07993 13.9132 6.70554 13.9327C6.80301 13.9357 6.90121 13.9388 7 13.9417Z" fill="#F2FCF3"/>
<path d="M6.55611 5.92719C5.85274 5.96513 5.04122 6.0281 4.19306 6.34848C2.25367 7.08072 1.25338 8.61754 1.04186 10.1251C0.845643 11.5236 1.33026 13.1485 2.68495 13.836C2.69455 13.8582 2.70621 13.8868 2.72278 13.9275L2.76153 14.0223C2.80274 14.1231 2.90264 14.3675 3.08492 14.572C3.19454 14.695 3.35522 14.8302 3.57859 14.9162C3.80724 15.0043 4.03864 15.0165 4.24795 14.9825C4.43448 14.9523 4.62629 14.9312 4.77532 14.9176C4.84878 14.9109 4.90953 14.9062 4.95111 14.9032L4.9978 14.9001L5.00581 14.8996C5.49374 14.8783 6.04412 14.8954 6.67179 14.9149L6.95762 14.9236C7.04492 14.9262 7.13333 14.9287 7.22271 14.9311C7.08332 14.6537 7 14.3423 7 13.9959V13.9419C6.90138 13.9389 6.80334 13.9359 6.70602 13.9328C6.08041 13.9133 5.48453 13.8948 4.95325 13.9184C4.95325 13.9184 4.52096 13.9425 4.08516 14.0131C4.08516 14.0131 4.25001 13.9442 4.46046 13.8727C5.08736 13.6598 5.59348 13.5091 6.03431 13.3779C6.38879 13.2723 6.7011 13.1793 7 13.0767V12.1128C5.55553 12.5922 3.28634 13.0365 3.28634 13.0365L3.18287 12.9822C1.44493 12.1521 1.3967 8.45667 4.55165 7.26564C5.3291 6.97193 6.08745 6.93405 6.86791 6.89507C7.4765 6.86467 8.09855 6.8336 8.75357 6.68003C10.3486 6.308 12.1953 5.12988 12.9458 3.59782C13.2992 4.62617 13.6821 5.89781 13.874 7.20283C14.2471 7.28749 14.6 7.39769 14.9247 7.53152C14.7495 5.96905 14.2933 4.44749 13.8934 3.28357L13.1088 1L12.0449 3.17167C11.4581 4.36933 9.90789 5.40096 8.52266 5.72407L8.52154 5.72433C7.96186 5.85554 7.43529 5.88228 6.82056 5.91348L6.81914 5.91355C6.73331 5.91791 6.64574 5.92236 6.55611 5.92719Z" fill="#208A3C"/>
</svg>
