<svg width="16" height="16" viewBox="0 0 16 16" fill="none" xmlns="http://www.w3.org/2000/svg">
<path fill-rule="evenodd" clip-rule="evenodd" d="M13 9.54191V2.10496C13 1.51333 12.4892 1.05105 11.9005 1.10992L3.9005 1.90992C3.38929 1.96104 3 2.3912 3 2.90496V13.895C3 14.4866 3.51082 14.9489 4.09951 14.89L12.0995 14.09C12.6107 14.0389 13 13.6087 13 13.095V9.55921C13.0001 9.55346 13.0001 9.5477 13 9.54191ZM4 2.90496L4 5.89747L12 5.09747V2.10496L4 2.90496ZM12 6.10246L4 6.90246L4 9.89747L12 9.09747V6.10246ZM12 10.1025L4 10.9025L4 13.895L12 13.095V10.1025Z" fill="#DB5C5C"/>
<path d="M4 5.8975L4 2.90498L12 2.10498V5.0975L4 5.8975Z" fill="#402929"/>
<path d="M4 6.90249L12 6.10249V9.0975L4 9.8975L4 6.90249Z" fill="#402929"/>
<path d="M4 10.9025L12 10.1025V13.095L4 13.895L4 10.9025Z" fill="#402929"/>
</svg>
