<svg width="20" height="20" viewBox="0 0 20 20" fill="none" xmlns="http://www.w3.org/2000/svg">
<path d="M12.75 13L19.25 12.25M12.75 16.125L19.25 15.375M12.75 19.25L19.25 18.5" stroke="#6C707E" stroke-width="1.5" stroke-linecap="round"/>
<path d="M10 4C5.58172 4 2 7.58172 2 12C2 13.1896 2.25763 14.4539 2.69917 15.5H10.5V17H2.05933C1.88084 17 1.71482 16.9055 1.63141 16.7477C0.909613 15.3821 0.5 13.6282 0.5 12C0.5 6.75329 4.75329 2.5 10 2.5C14.5607 2.5 18.3708 5.71381 19.2892 10.0003C19.1913 9.99872 19.0922 10.0035 18.9923 10.015L17.786 10.1542C16.9527 6.62579 13.783 4 10 4Z" fill="#6C707E"/>
<path d="M12.2379 10.8091L14.8711 8.62269C15.2323 8.3228 15.282 7.78691 14.9821 7.42574C14.6822 7.06457 14.1463 7.01489 13.7851 7.31478L10.9993 9.62788C10.6971 9.48187 10.3581 9.40002 10 9.40002C8.72976 9.40002 7.70001 10.4298 7.70001 11.7C7.70001 12.9703 8.72976 14 10 14C10.1717 14 10.339 13.9812 10.5 13.9455V13C10.4997 12.6939 10.5616 12.3992 10.6751 12.1295C10.5331 12.3523 10.2838 12.5 10 12.5C9.55818 12.5 9.20001 12.1419 9.20001 11.7C9.20001 11.2582 9.55818 10.9 10 10.9C10.4418 10.9 10.8 11.2582 10.8 11.7C10.8 11.7872 10.7861 11.8711 10.7603 11.9496C11.0575 11.3879 11.5877 10.9603 12.2379 10.8091Z" fill="#6C707E"/>
</svg>
