<svg width="16" height="16" viewBox="0 0 16 16" fill="none" xmlns="http://www.w3.org/2000/svg">
<path d="M15.5 9.5L10.5 10M15.5 12.25L10.5 12.75M15.5 15L10.5 15.5" stroke="#DB3B4B" stroke-linecap="round" stroke-linejoin="round"/>
<path d="M6.47434 4.13157C6.67778 4.39313 6.63066 4.7701 6.36909 4.97354L2.47802 7.99993L6.36909 11.0263C6.63066 11.2298 6.67778 11.6067 6.47434 11.8683C6.2709 12.1299 5.89393 12.177 5.63237 11.9735L0.523438 7.99993L5.63237 4.02632C5.89393 3.82288 6.2709 3.87 6.47434 4.13157Z" fill="#369650"/>
<path d="M9.52712 4.13157C9.32368 4.39313 9.3708 4.7701 9.63237 4.97354L13.5234 7.99993L15.474 8C15.4753 7.99997 15.4767 7.99995 15.478 7.99993L10.3691 4.02632C10.1075 3.82288 9.73056 3.87 9.52712 4.13157Z" fill="#369650"/>
</svg>
