<svg width="16" height="16" viewBox="0 0 16 16" fill="none" xmlns="http://www.w3.org/2000/svg">
<path d="M9.14632 3.14706C8.95106 3.34232 8.95106 3.6589 9.14632 3.85416L12.2925 7.00037L2.49902 7.00037C2.22288 7.00037 1.99902 7.22423 1.99902 7.50037C1.99902 7.77652 2.22288 8.00037 2.49902 8.00037L12.293 8.00037L9.14632 11.1471C8.95106 11.3423 8.95106 11.6589 9.14632 11.8542C9.34159 12.0494 9.65817 12.0494 9.85343 11.8542L13.8534 7.85416C13.9472 7.7604 13.9999 7.63322 13.9999 7.50061C13.9999 7.368 13.9472 7.24083 13.8534 7.14706L9.85343 3.14706C9.65817 2.95179 9.34159 2.95179 9.14632 3.14706Z" fill="#CED0D6"/>
</svg>
