<svg width="16" height="16" viewBox="0 0 16 16" fill="none" xmlns="http://www.w3.org/2000/svg">
<path d="M6.85258 3.14706C7.04784 3.34232 7.04784 3.6589 6.85258 3.85416L3.70637 7.00037L13.4999 7.00037C13.776 7.00037 13.9999 7.22423 13.9999 7.50037C13.9999 7.77652 13.776 8.00037 13.4999 8.00037L3.70589 8.00037L6.85258 11.1471C7.04784 11.3423 7.04784 11.6589 6.85258 11.8542C6.65732 12.0494 6.34073 12.0494 6.14547 11.8542L2.14547 7.85416C2.0517 7.7604 1.99902 7.63322 1.99902 7.50061C1.99902 7.368 2.0517 7.24083 2.14547 7.14706L6.14547 3.14706C6.34073 2.95179 6.65732 2.95179 6.85258 3.14706Z" fill="#CED0D6"/>
</svg>
