<svg width="16" height="16" viewBox="0 0 16 16" fill="none" xmlns="http://www.w3.org/2000/svg">
<path d="M8.85453 3.14706C9.04979 3.34232 9.04979 3.6589 8.85453 3.85416L5.70832 7.00037L13.5018 7.00037C13.778 7.00037 14.0018 7.22423 14.0018 7.50037C14.0018 7.77652 13.778 8.00037 13.5018 8.00037L5.70784 8.00037L8.85453 11.1471C9.04979 11.3423 9.04979 11.6589 8.85453 11.8542C8.65927 12.0494 8.34269 12.0494 8.14743 11.8542L4.14742 7.85416C4.05366 7.7604 4.00098 7.63322 4.00098 7.50061C4.00098 7.368 4.05365 7.24083 4.14742 7.14706L8.14742 3.14706C8.34269 2.95179 8.65927 2.95179 8.85453 3.14706Z" fill="#3574F0"/>
<path d="M2.49902 11.5V3.5" stroke="#6C707E" stroke-linecap="round" stroke-linejoin="round"/>
</svg>
