<svg width="16" height="16" viewBox="0 0 16 16" fill="none" xmlns="http://www.w3.org/2000/svg">
<path d="M2.5 3C2.22386 3 2 3.22386 2 3.5C2 3.77614 2.22386 4 2.5 4H12.5C12.7761 4 13 3.77614 13 3.5C13 3.22386 12.7761 3 12.5 3H2.5Z" fill="#6C707E"/>
<path d="M2.5 6C2.22386 6 2 6.22386 2 6.5C2 6.77614 2.22386 7 2.5 7H7.5C7.77614 7 8 6.77614 8 6.5C8 6.22386 7.77614 6 7.5 6H2.5Z" fill="#6C707E"/>
<path d="M2 9.5C2 9.22386 2.22386 9 2.5 9H5.5C5.77614 9 6 9.22386 6 9.5C6 9.77614 5.77614 10 5.5 10H2.5C2.22386 10 2 9.77614 2 9.5Z" fill="#6C707E"/>
<path d="M2.5 12C2.22386 12 2 12.2239 2 12.5C2 12.7761 2.22386 13 2.5 13H7.5C7.77614 13 8 12.7761 8 12.5C8 12.2239 7.77614 12 7.5 12H2.5Z" fill="#6C707E"/>
<path d="M10.8536 7.85355C11.0488 7.65829 11.0488 7.34171 10.8536 7.14645C10.6583 6.95118 10.3417 6.95118 10.1464 7.14645L8.14645 9.14645C7.95118 9.34171 7.95118 9.65829 8.14645 9.85355L10.1464 11.8536C10.3417 12.0488 10.6583 12.0488 10.8536 11.8536C11.0488 11.6583 11.0488 11.3417 10.8536 11.1464L9.70711 10H14.5C14.7761 10 15 9.77614 15 9.5C15 9.22386 14.7761 9 14.5 9H9.70711L10.8536 7.85355Z" fill="#3574F0"/>
</svg>
