<svg width="16" height="16" viewBox="0 0 16 16" fill="none" xmlns="http://www.w3.org/2000/svg">
<path d="M7.5 1C7.77614 1 8 1.22386 8 1.5V7H13.5C13.7761 7 14 7.22386 14 7.5C14 7.77614 13.7761 8 13.5 8H8V13.5C8 13.7761 7.77614 14 7.5 14C7.22386 14 7 13.7761 7 13.5V8H1.5C1.22386 8 1 7.77614 1 7.5C1 7.22386 1.22386 7 1.5 7H7V1.5C7 1.22386 7.22386 1 7.5 1Z" fill="#D6AE58"/>
<circle cx="3.5" cy="3.5" r="2" fill="#3D3223" stroke="#D6AE58"/>
<rect x="9.5" y="1.5" width="4" height="4" rx="0.5" fill="#3D3223" stroke="#D6AE58"/>
<path d="M1.5 13.5H5.5L3.5 9.5L1.5 13.5Z" fill="#3D3223" stroke="#D6AE58" stroke-linecap="round" stroke-linejoin="round"/>
<path d="M12.5 13.5L10.5 11.5L12.5 9.5" stroke="#D6AE58" stroke-linecap="round" stroke-linejoin="round"/>
</svg>
