<svg width="16" height="16" viewBox="0 0 16 16" fill="none" xmlns="http://www.w3.org/2000/svg">
<path fill-rule="evenodd" clip-rule="evenodd" d="M11.1464 8.14645C11.3417 7.95118 11.6583 7.95118 11.8536 8.14645L14.8536 11.1464C15.0488 11.3417 15.0488 11.6583 14.8536 11.8536L11.8536 14.8536C11.6583 15.0488 11.3417 15.0488 11.1464 14.8536C10.9512 14.6583 10.9512 14.3417 11.1464 14.1464L13.2929 12H7.5C7.22386 12 7 11.7761 7 11.5C7 11.2238 7.22386 11 7.5 11H13.2929L11.1464 8.85355C10.9512 8.65829 10.9512 8.34171 11.1464 8.14645Z" fill="#CED0D6"/>
<path d="M14.9451 9.82381C15.2503 7.66366 14.2655 5.38782 12.4211 3.54342C9.55592 0.678305 5.60271 -0.0339965 2.76887 2.79978C-0.0649635 5.63356 0.749897 9.73619 3.48908 12.4753C5.33298 14.3192 7.77346 15.3265 10.0553 14.9046C9.91451 14.4 10.0425 13.8362 10.4393 13.4393L10.8787 13H7.5C6.67157 13 6 12.3284 6 11.5C6 10.6716 6.67157 9.99998 7.5 9.99998H10.8787L10.4393 9.56066C9.85355 8.97487 9.85355 8.02513 10.4393 7.43934C11.0251 6.85355 11.9749 6.85355 12.5607 7.43934L14.9451 9.82381Z" fill="#45322B"/>
<path d="M14.9451 9.82381C15.2503 7.66366 14.2655 5.38782 12.4211 3.54342C9.55592 0.678305 5.60271 -0.0339965 2.76887 2.79978C-0.0649632 5.63356 0.749897 9.73619 3.48908 12.4753C5.33298 14.3192 7.77346 15.3265 10.0553 14.9046C9.95927 14.5604 9.9883 14.1887 10.1424 13.8612C9.5685 14.0033 8.98066 14.0311 8.3937 13.9615C6.93895 13.7891 5.43927 13.0084 4.19761 11.7668C2.96238 10.5316 2.1978 9.02377 2.03495 7.5621C1.89119 6.27175 2.20946 4.98843 3.13864 3.87802L9.26072 9.99998H10.6778L3.84627 3.1686C4.96097 2.22632 6.21752 1.89609 7.47661 2.03083C8.90451 2.18363 10.4065 2.94592 11.7126 4.25194C13.025 5.56439 13.8035 7.05797 13.9658 8.47924C13.9809 8.61074 13.9907 8.74233 13.9952 8.87387L14.9451 9.82381Z" fill="#C77D55"/>
</svg>
