<svg width="14" height="14" viewBox="0 0 14 14" fill="none" xmlns="http://www.w3.org/2000/svg">
<path d="M6.95 8.3268C7.08333 8.40377 7.08333 8.59622 6.95 8.67321L3.8 10.4919C3.66667 10.5688 3.5 10.4726 3.5 10.3187L3.5 6.68135C3.5 6.52739 3.66667 6.43116 3.8 6.50814L6.95 8.3268Z" stroke="#6C707E"/>
<path d="M13.4629 9C13.4629 12.125 11.3301 12.75 11.3301 12.75C11.3301 12.75 11.002 12.4375 11.002 11.5V4C11.002 4 13.4629 5.875 13.4629 9Z" fill="#12924F"/>
<path d="M8.54102 9C8.54102 12.125 10.6738 12.75 10.6738 12.75C10.6738 12.75 11.002 12.4375 11.002 11.5V4C11.002 4 8.54102 5.875 8.54102 9Z" fill="#10AA50"/>
<path d="M10.6738 12.75L10.8379 14H11.166L11.3301 12.75C11.3301 12.75 11.002 12.4375 11.002 11.5C11.002 12.4375 10.6738 12.75 10.6738 12.75Z" fill="#B8C4C2"/>
<path d="M0 3C0 1.89543 0.895431 1 2 1H12C13.1046 1 14 1.89543 14 3V6.51077C13.7343 5.8146 13.3865 5.22266 13.0455 4.74636C13.0304 4.72515 13.0152 4.70416 13 4.68338V3C13 2.44772 12.5523 2 12 2H2C1.44772 2 1 2.44772 1 3V4H9.55954C9.37077 4.20895 9.16457 4.45834 8.95838 4.74636C8.90024 4.82756 8.84191 4.91213 8.78382 5H1V11C1 11.5523 1.44772 12 2 12H8.31026C8.48838 12.2878 8.68627 12.5349 8.89142 12.7453C8.98216 12.8384 9.07313 12.9231 9.16286 13H2C0.89543 13 0 12.1046 0 11V3Z" fill="#6C707E"/>
</svg>
