<svg width="16" height="16" viewBox="0 0 16 16" fill="none" xmlns="http://www.w3.org/2000/svg">
<circle cx="12.5" cy="12.5" r="3.5" fill="#EBECF0"/>
<path fill-rule="evenodd" clip-rule="evenodd" d="M11.4328 9.65098C11.5711 9.89001 11.4894 10.1959 11.2504 10.3341C10.9158 10.5277 10.6299 10.7968 10.4164 11.1179C10.1533 11.5136 10 11.9881 10 12.5C10 13.8807 11.1193 15 12.5 15C13.8807 15 15 13.8807 15 12.5C15 11.9881 14.8467 11.5136 14.5836 11.1179C14.3701 10.7968 14.0842 10.5277 13.7496 10.3341C13.5106 10.1959 13.4289 9.89001 13.5672 9.65098C13.7055 9.41195 14.0113 9.33027 14.2504 9.46854C14.7185 9.73937 15.1179 10.1153 15.4164 10.5643C15.7851 11.1189 16 11.7851 16 12.5C16 14.433 14.433 16 12.5 16C10.567 16 9 14.433 9 12.5C9 11.7851 9.21486 11.1189 9.58363 10.5643C9.88212 10.1153 10.2815 9.73937 10.7496 9.46854C10.9887 9.33027 11.2945 9.41195 11.4328 9.65098Z" fill="#CED0D6"/>
<path fill-rule="evenodd" clip-rule="evenodd" d="M12.5 8C12.7761 8 13 8.22386 13 8.5V11.5C13 11.7761 12.7761 12 12.5 12C12.2239 12 12 11.7761 12 11.5V8.5C12 8.22386 12.2239 8 12.5 8Z" fill="#CED0D6"/>
<path d="M14.9621 8.73288C14.9872 8.49201 15 8.2475 15 8C15 4.13401 11.866 1 8 1C4.13401 1 1 4.13401 1 8C1 11.866 4.13401 15 8 15C8.24744 15 8.49188 14.9872 8.73269 14.9621C8.2694 14.2547 8 13.4088 8 12.5C8 11.5821 8.27645 10.7242 8.7509 10.0106C9.13432 9.43392 9.64713 8.95105 10.2489 8.60294C10.4868 8.46531 10.7468 8.40032 11.0032 8.4011C11.0541 7.61878 11.7048 7 12.5 7C13.2952 7 13.9459 7.61878 13.9968 8.4011C14.2532 8.40032 14.5132 8.46531 14.7511 8.60294C14.8227 8.64437 14.8931 8.68771 14.9621 8.73288Z" fill="#25324D"/>
<path d="M8.25419 13.9947C8.1699 13.9982 8.08516 14 8 14C4.68629 14 2 11.3137 2 8C2 4.68629 4.68629 2 8 2C11.3137 2 14 4.68629 14 8C14 8.11196 13.9969 8.2232 13.9909 8.33365C13.9933 8.35599 13.9953 8.37848 13.9968 8.4011C14.2532 8.40032 14.5132 8.46531 14.7511 8.60294C14.8227 8.64437 14.8931 8.68771 14.9621 8.73288C14.9872 8.49201 15 8.2475 15 8C15 4.13401 11.866 1 8 1C4.13401 1 1 4.13401 1 8C1 11.866 4.13401 15 8 15C8.24744 15 8.49188 14.9872 8.73269 14.9621C8.53652 14.6626 8.37511 14.3382 8.25419 13.9947Z" fill="#548AF7"/>
<path d="M8.13241 10.5767C8.23712 10.5767 8.33957 10.5706 8.43944 10.5589C8.29718 10.8561 8.18653 11.1714 8.11184 11.4999C7.73433 11.4978 7.3761 11.4379 7.04429 11.3275C6.95666 11.2984 6.87088 11.2657 6.78708 11.2297C5.58357 10.7124 4.78711 9.49928 4.78711 8C4.78711 5.99378 6.21321 4.5 8.13241 4.5C9.21399 4.5 10.1833 4.97446 10.7532 5.72326L10.0085 6.33823C9.62507 5.78993 8.94663 5.42334 8.13241 5.42334C6.79332 5.42334 5.82647 6.49655 5.82647 8C5.82647 9.15044 6.39259 10.049 7.25841 10.4075C7.52409 10.5175 7.81799 10.5767 8.13241 10.5767Z" fill="#548AF7"/>
</svg>
