<svg width="16" height="16" viewBox="0 0 16 16" fill="none" xmlns="http://www.w3.org/2000/svg">
<path fill-rule="evenodd" clip-rule="evenodd" d="M10.077 2.44037C10.1651 2.12093 9.97761 1.79054 9.65817 1.70242C9.33873 1.6143 9.00834 1.80182 8.92021 2.12126L5.7648 13.5596C5.67668 13.8791 5.8642 14.2095 6.18364 14.2976C6.50308 14.3857 6.83347 14.1982 6.92159 13.8788L10.077 2.44037ZM5.41232 4.66699C5.61933 4.92575 5.57738 5.30332 5.31862 5.51033L1.96 8.19723L5.31862 10.8841C5.57738 11.0911 5.61933 11.4687 5.41232 11.7275C5.20532 11.9862 4.82774 12.0282 4.56898 11.8212L0.0390625 8.19723L4.56898 4.57329C4.82774 4.36628 5.20532 4.40823 5.41232 4.66699Z" fill="#C77D55"/>
<path fill-rule="evenodd" clip-rule="evenodd" d="M15.0012 8.96487L10.6822 5.51038C10.4235 5.30337 10.3815 4.9258 10.5885 4.66704C10.7955 4.40828 11.1731 4.36633 11.4319 4.57333L15.9618 8.19727L15.0012 8.96487Z" fill="#C77D55"/>
<path fill-rule="evenodd" clip-rule="evenodd" d="M8.14645 12.1464C7.95118 12.3417 7.95118 12.6583 8.14645 12.8536C8.34171 13.0488 8.65829 13.0488 8.85355 12.8536L12 9.70711V11C12 11.2761 12.2239 11.5 12.5 11.5C12.7761 11.5 13 11.2761 13 11V8.5C13 8.22386 12.7761 8 12.5 8H10C9.72386 8 9.5 8.22386 9.5 8.5C9.5 8.77614 9.72386 9 10 9H11.2929L8.14645 12.1464ZM12.7071 15L15.8536 11.8536C16.0488 11.6583 16.0488 11.3417 15.8536 11.1464C15.6583 10.9512 15.3417 10.9512 15.1464 11.1464L12 14.2929V13C12 12.7239 11.7761 12.5 11.5 12.5C11.2239 12.5 11 12.7239 11 13V15.5C11 15.7761 11.2239 16 11.5 16H14C14.2761 16 14.5 15.7761 14.5 15.5C14.5 15.2239 14.2761 15 14 15H12.7071Z" fill="#548AF7"/>
</svg>
