<svg width="16" height="16" viewBox="0 0 16 16" fill="none" xmlns="http://www.w3.org/2000/svg">
<g clip-path="url(#clip0_16280_10190)">
<path d="M12.9257 16C12.2973 16 11.7297 15.8476 11.2227 15.5429C10.7157 15.2382 10.317 14.8203 10.0267 14.2892C9.74066 13.7537 9.59766 13.1573 9.59766 12.5C9.59766 11.8427 9.74066 11.2484 10.0267 10.7174C10.317 10.1819 10.7157 9.76182 11.2227 9.45709C11.7297 9.15236 12.2973 9 12.9257 9C13.4587 9 13.9375 9.09142 14.3622 9.27425C14.7868 9.45274 15.14 9.72264 15.4217 10.084C15.7033 10.4409 15.8962 10.8806 16.0002 11.403H14.9602C14.8648 11.0808 14.7153 10.8109 14.5117 10.5933C14.308 10.3756 14.0697 10.2146 13.7967 10.1101C13.5237 10.0012 13.2333 9.94683 12.9257 9.94683C12.4967 9.94683 12.111 10.0557 11.7687 10.2733C11.4307 10.491 11.1663 10.7935 10.9757 11.181C10.785 11.5684 10.6897 12.0081 10.6897 12.5C10.6897 12.9876 10.785 13.4251 10.9757 13.8125C11.1663 14.1999 11.4307 14.5047 11.7687 14.7267C12.111 14.9443 12.4967 15.0532 12.9257 15.0532C13.2333 15.0532 13.5237 15.0009 13.7967 14.8965C14.0697 14.7876 14.308 14.6244 14.5117 14.4067C14.7153 14.1891 14.8648 13.9192 14.9602 13.597H16.0002C15.9005 14.102 15.7055 14.5351 15.4152 14.8965C15.1248 15.2578 14.7652 15.532 14.3362 15.7192C13.9072 15.9064 13.437 16 12.9257 16Z" fill="#3574F0"/>
<path d="M3 3.60275C3 3.50293 3.05102 3.35087 3.2675 3.15519C3.48396 2.95953 3.82523 2.7604 4.28947 2.58291C5.21452 2.22925 6.52624 2 8 2C9.47376 2 10.7855 2.22925 11.7105 2.58291C12.1748 2.7604 12.516 2.95953 12.7325 3.15519C12.949 3.35087 13 3.50293 13 3.60275C13 3.70256 12.949 3.85463 12.7325 4.05031C12.516 4.24597 12.1748 4.4451 11.7105 4.62258C10.7855 4.97625 9.47376 5.2055 8 5.2055C6.52624 5.2055 5.21452 4.97625 4.28947 4.62258C3.82523 4.4451 3.48396 4.24597 3.2675 4.05031C3.05102 3.85463 3 3.70256 3 3.60275Z" fill="#EBECF0"/>
<path d="M3 6.54663V5.09723C3.27236 5.27221 3.58833 5.42512 3.93236 5.55665C4.99792 5.96403 6.43619 6.2055 8 6.2055C9.56381 6.2055 11.0021 5.96403 12.0676 5.55665C12.4117 5.42512 12.7276 5.27221 13 5.09723V6.54663C13 6.64645 12.949 6.79851 12.7325 6.99419C12.516 7.18985 12.1748 7.38898 11.7105 7.56647C10.7855 7.92013 9.47376 8.14938 8 8.14938C6.52624 8.14938 5.21452 7.92013 4.28947 7.56647C3.82523 7.38898 3.48396 7.18985 3.2675 6.99419C3.05102 6.79851 3 6.64645 3 6.54663Z" fill="#EBECF0"/>
<path d="M3 9.49048V8.04112C3.27236 8.21609 3.58833 8.369 3.93236 8.50053C4.99792 8.90791 6.43619 9.14938 8 9.14938C8.76065 9.14938 9.4916 9.09225 10.1644 8.98669C9.75187 9.33246 9.4121 9.75282 9.14757 10.2407L9.1462 10.2432C9.00312 10.5089 8.88886 10.785 8.80246 11.0702C8.54152 11.0853 8.27355 11.0932 8 11.0932C6.52624 11.0932 5.21452 10.864 4.28947 10.5103C3.82523 10.3328 3.48396 10.1337 3.2675 9.93804C3.05102 9.74236 3 9.59029 3 9.49048Z" fill="#EBECF0"/>
<path d="M8.61401 12.0807C8.41193 12.089 8.20706 12.0932 8 12.0932C6.43619 12.0932 4.99792 11.8518 3.93236 11.4444C3.58833 11.3128 3.27236 11.1599 3 10.985V12.4343C3 12.5341 3.05102 12.6862 3.2675 12.8819C3.48396 13.0775 3.82523 13.2767 4.28947 13.4542C5.21452 13.8078 6.52624 14.0371 8 14.0371C8.28231 14.0371 8.55867 14.0287 8.82751 14.0126C8.67286 13.5323 8.59766 13.0262 8.59766 12.5C8.59766 12.3587 8.60308 12.2189 8.61401 12.0807Z" fill="#EBECF0"/>
<path fill-rule="evenodd" clip-rule="evenodd" d="M2.01664 3.39246H2V12.5184H2.00263C2.03051 12.9621 2.2768 13.3344 2.59694 13.6237C2.9371 13.9312 3.40129 14.1852 3.93236 14.3882C4.99792 14.7956 6.43619 15.0371 8 15.0371C8.43604 15.0371 8.86232 15.0183 9.27348 14.9824C9.23038 14.9127 9.18895 14.8415 9.14921 14.7689L9.1446 14.7603C9.01573 14.519 8.91025 14.2695 8.82751 14.0126C8.55867 14.0287 8.28231 14.0371 8 14.0371C6.52624 14.0371 5.21452 13.8078 4.28947 13.4542C3.82523 13.2767 3.48396 13.0775 3.2675 12.8819C3.05102 12.6862 3 12.5341 3 12.4343V10.985C3.27236 11.1599 3.58833 11.3128 3.93236 11.4444C4.99792 11.8518 6.43619 12.0932 8 12.0932C8.20706 12.0932 8.41193 12.089 8.61401 12.0807C8.6415 11.7332 8.70384 11.3958 8.80246 11.0702C8.54152 11.0853 8.27355 11.0932 8 11.0932C6.52624 11.0932 5.21452 10.864 4.28947 10.5103C3.82523 10.3328 3.48396 10.1337 3.2675 9.93804C3.05102 9.74236 3 9.59029 3 9.49048V8.04112C3.27236 8.21609 3.58833 8.369 3.93236 8.50053C4.99792 8.90791 6.43619 9.14938 8 9.14938C8.76065 9.14938 9.4916 9.09225 10.1644 8.98668C10.3333 8.84512 10.5144 8.71606 10.7075 8.59999C11.3798 8.19589 12.1276 8 12.9257 8C13.2952 8 13.6544 8.03624 14 8.11264V3.39246H13.9834C13.9213 3.00405 13.6924 2.67483 13.4031 2.41334C13.0629 2.10586 12.5987 1.85189 12.0676 1.64885C11.0021 1.24147 9.56381 1 8 1C6.43619 1 4.99792 1.24147 3.93236 1.64885C3.40129 1.85189 2.9371 2.10586 2.59694 2.41334C2.30765 2.67483 2.07865 3.00405 2.01664 3.39246ZM3.2675 3.15519C3.05102 3.35087 3 3.50293 3 3.60275C3 3.70256 3.05102 3.85463 3.2675 4.05031C3.48396 4.24597 3.82523 4.4451 4.28947 4.62258C5.21452 4.97625 6.52624 5.2055 8 5.2055C9.47376 5.2055 10.7855 4.97625 11.7105 4.62258C12.1748 4.4451 12.516 4.24597 12.7325 4.05031C12.949 3.85463 13 3.70256 13 3.60275C13 3.50293 12.949 3.35087 12.7325 3.15519C12.516 2.95953 12.1748 2.7604 11.7105 2.58291C10.7855 2.22925 9.47376 2 8 2C6.52624 2 5.21452 2.22925 4.28947 2.58291C3.82523 2.7604 3.48396 2.95953 3.2675 3.15519ZM3 5.09723V6.54663C3 6.64645 3.05102 6.79851 3.2675 6.99419C3.48396 7.18985 3.82523 7.38898 4.28947 7.56647C5.21452 7.92013 6.52624 8.14938 8 8.14938C9.47376 8.14938 10.7855 7.92013 11.7105 7.56647C12.1748 7.38898 12.516 7.18985 12.7325 6.99419C12.949 6.79851 13 6.64645 13 6.54663V5.09723C12.7276 5.27221 12.4117 5.42512 12.0676 5.55665C11.0021 5.96403 9.56381 6.2055 8 6.2055C6.43619 6.2055 4.99792 5.96403 3.93236 5.55665C3.58833 5.42512 3.27236 5.27221 3 5.09723Z" fill="#6C707E"/>
</g>
<defs>
<clipPath id="clip0_16280_10190">
<rect width="16" height="16" fill="white"/>
</clipPath>
</defs>
</svg>
