<svg width="16" height="16" viewBox="0 0 16 16" fill="none" xmlns="http://www.w3.org/2000/svg">
<g clip-path="url(#clip0_9855_15628)">
<path d="M13.0814 2.85258C11.7815 0.992062 9.21344 0.440629 7.35748 1.62325L4.09674 3.70137C3.65561 3.97789 3.27708 4.34346 2.98535 4.77468C2.69362 5.2059 2.49512 5.69327 2.40256 6.2056C2.36122 6.4365 2.34025 6.67058 2.3399 6.90515C2.34196 7.5429 2.49832 8.17068 2.79563 8.7349C2.51681 9.15839 2.32652 9.63391 2.23622 10.1328C2.14379 10.6555 2.15664 11.1914 2.27402 11.7091C2.39141 12.2268 2.61096 12.7158 2.91982 13.1475C4.21978 15.008 6.79351 15.5594 8.64378 14.3768L11.9011 12.2987C12.342 12.0218 12.72 11.6558 13.011 11.2241C13.302 10.7925 13.4995 10.3047 13.5907 9.79219C13.6326 9.56176 13.6536 9.328 13.6534 9.09379C13.6526 8.45729 13.4982 7.83039 13.2033 7.26631C13.482 6.84316 13.6723 6.36804 13.7628 5.8695C13.8032 5.63888 13.8237 5.40523 13.8243 5.1711C13.8245 4.34041 13.5647 3.53049 13.0814 2.85485V2.85258Z" fill="#DB5C5C"/>
<path d="M7.03841 13.3229C6.82554 13.3779 6.60658 13.4059 6.38672 13.4061C5.96849 13.4062 5.55648 13.3049 5.186 13.1108C4.81553 12.9167 4.49764 12.6357 4.2596 12.2918C3.96887 11.8854 3.8127 11.3981 3.81299 10.8984C3.81315 10.7579 3.82534 10.6176 3.84945 10.4792C3.8688 10.3761 3.89506 10.2745 3.92806 10.175L3.98958 9.98811L4.15592 10.1146C4.54208 10.398 4.97357 10.6137 5.43197 10.7526L5.55273 10.7891L5.54134 10.9098C5.54134 10.9303 5.54134 10.952 5.54134 10.9725C5.54111 11.1236 5.58811 11.271 5.67578 11.394C5.74663 11.4988 5.84199 11.5847 5.95357 11.6443C6.06516 11.7039 6.18959 11.7353 6.31608 11.7358C6.38222 11.7361 6.4481 11.7276 6.51204 11.7108C6.58299 11.692 6.65062 11.6624 6.71257 11.623L9.96989 9.53466C10.0676 9.47278 10.148 9.38712 10.2036 9.2857C10.2592 9.18427 10.2882 9.0704 10.2878 8.95474C10.2868 8.80365 10.2386 8.65663 10.1499 8.53433C10.078 8.43086 9.98206 8.34635 9.87035 8.28801C9.75865 8.22968 9.63448 8.19927 9.50846 8.19937C9.44233 8.19914 9.37645 8.20756 9.3125 8.22444C9.24178 8.24283 9.17446 8.27245 9.11312 8.31216L7.87126 9.10513C7.66655 9.23485 7.44337 9.3328 7.20931 9.39566C6.99641 9.45054 6.77747 9.47848 6.55762 9.47883C6.13954 9.47877 5.7277 9.37749 5.35728 9.18365C4.98686 8.98981 4.66888 8.70917 4.4305 8.36571C4.14012 7.95911 3.98398 7.47197 3.98389 6.97232C3.98405 6.83178 3.99624 6.69151 4.02035 6.55305C4.07605 6.2451 4.19515 5.95208 4.3701 5.6926C4.54505 5.43312 4.77202 5.21283 5.03662 5.04572L8.29736 2.96874C8.50196 2.83853 8.72515 2.74018 8.95931 2.67707C9.17224 2.6225 9.39119 2.59494 9.611 2.59504C10.0301 2.59396 10.4432 2.69458 10.8149 2.88826C11.1866 3.08193 11.5057 3.36289 11.745 3.70702C12.0335 4.11462 12.1877 4.60214 12.1859 5.10155C12.1857 5.24247 12.1735 5.38312 12.1494 5.52196C12.1301 5.62501 12.1038 5.72664 12.0708 5.82616L12.0093 6.01301L11.8429 5.8911C11.457 5.60728 11.0255 5.3915 10.5669 5.25308L10.4461 5.21548L10.4575 5.09471C10.4575 5.07421 10.4575 5.05256 10.4575 5.03205C10.4575 4.88064 10.4106 4.73295 10.3231 4.60936C10.2513 4.50605 10.1555 4.42164 10.044 4.36331C9.93254 4.30499 9.8086 4.27448 9.68278 4.2744C9.61721 4.27585 9.5521 4.28581 9.4891 4.30402C9.4179 4.3221 9.35016 4.35173 9.28857 4.39175L6.02783 6.46874C5.94801 6.51938 5.87957 6.58603 5.82681 6.66447C5.77406 6.74291 5.73815 6.83144 5.72135 6.92447C5.71331 6.96428 5.70836 7.00466 5.70654 7.04524C5.70647 7.19596 5.75347 7.34293 5.84098 7.46565C5.91274 7.56903 6.00846 7.6535 6.11996 7.71183C6.23147 7.77016 6.35544 7.80062 6.48128 7.80061C6.54742 7.80084 6.6133 7.79241 6.67725 7.77554C6.74836 7.75726 6.81607 7.72764 6.87777 7.68781L8.12191 6.89029C8.32651 6.76037 8.54972 6.6624 8.78385 6.59976C8.99674 6.54481 9.21569 6.51686 9.43555 6.51659C9.8538 6.51656 10.2658 6.61779 10.6365 6.81164C11.0071 7.00548 11.3253 7.28616 11.5638 7.62971C11.8542 8.03631 12.0103 8.52345 12.0104 9.0231C12.0107 9.16522 11.9981 9.30708 11.9728 9.44693C11.9174 9.75497 11.7984 10.0481 11.6234 10.3076C11.4484 10.5671 11.2213 10.7874 10.9565 10.9543L7.7015 13.0312C7.49655 13.1616 7.27296 13.2599 7.03841 13.3229Z" fill="white"/>
</g>
<defs>
<clipPath id="clip0_9855_15628">
<rect width="11.6496" height="14" fill="white" transform="translate(2.1748 1)"/>
</clipPath>
</defs>
</svg>
