<svg width="16" height="16" viewBox="0 0 16 16" fill="none" xmlns="http://www.w3.org/2000/svg">
<path d="M15 10.5C15 10.3393 14.9227 10.1884 14.7924 10.0944C14.662 10.0004 14.4944 9.97484 14.3419 10.0257L12.8419 10.5257C12.5799 10.613 12.4383 10.8961 12.5257 11.1581C12.613 11.4201 12.8961 11.5617 13.1581 11.4743L14 11.1937V15H13.5C13.2239 15 13 15.2239 13 15.5C13 15.7761 13.2239 16 13.5 16H15.5C15.7761 16 16 15.7761 16 15.5C16 15.2239 15.7761 15 15.5 15H15V10.5Z" fill="#3574F0"/>
<path fill-rule="evenodd" clip-rule="evenodd" d="M10 10C9.25097 10 8.73553 10.4803 8.43382 11.046C8.13474 11.6068 8 12.3185 8 13C8 13.6815 8.13474 14.3933 8.43382 14.9541C8.73553 15.5198 9.25097 16 10 16C10.749 16 11.2645 15.5198 11.5662 14.9541C11.8653 14.3933 12 13.6815 12 13C12 12.3185 11.8653 11.6068 11.5662 11.046C11.2645 10.4803 10.749 10 10 10ZM10 15C9.74903 15 9.51447 14.8553 9.31618 14.4835C9.11526 14.1068 9 13.5685 9 13C9 12.4315 9.11526 11.8933 9.31618 11.5166C9.51447 11.1448 9.74903 11 10 11C10.251 11 10.4855 11.1448 10.6838 11.5166C10.8847 11.8933 11 12.4315 11 13C11 13.5685 10.8847 14.1068 10.6838 14.4835C10.4855 14.8553 10.251 15 10 15Z" fill="#3574F0"/>
<path fill-rule="evenodd" clip-rule="evenodd" d="M14 0.500015C14 0.297783 13.8782 0.115465 13.6914 0.0380748C13.5045 -0.0393156 13.2895 0.00346223 13.1465 0.146461L11.1465 2.14646C11.0527 2.24023 11 2.36741 11 2.50001V4.29291L9.01602 6.27693C8.71825 6.10097 8.37092 6 8 6C6.89543 6 6 6.89543 6 8C6 9.10457 6.89543 10 8 10C9.10457 10 10 9.10457 10 8C10 7.62911 9.89904 7.2818 9.72311 6.98405L11.7071 5.00001H13.5C13.6326 5.00001 13.7598 4.94734 13.8536 4.85357L15.8536 2.85357C15.9966 2.71057 16.0394 2.49551 15.962 2.30867C15.8846 2.12184 15.7023 2.00001 15.5 2.00001H14V0.500015ZM13.2929 4.00001H12V2.70712L13 1.70712V2.50001C13 2.77616 13.2239 3.00001 13.5 3.00001H14.2929L13.2929 4.00001ZM9 8C9 8.55228 8.55228 9 8 9C7.44772 9 7 8.55228 7 8C7 7.44772 7.44772 7 8 7C8.55228 7 9 7.44772 9 8Z" fill="#6C707E"/>
<path d="M8 2C8.70432 2 9.38028 2.12136 10.0081 2.3443C10.0437 2.00371 10.195 1.68373 10.4394 1.43938L10.4413 1.43748C9.68118 1.1546 8.85864 1 8 1C7.51675 1 7.04494 1.04897 6.58926 1.14222C4.46036 1.57785 2.6835 2.9799 1.73706 4.86999C1.26542 5.81187 1 6.87494 1 8C1 11.5633 3.66246 14.5047 7.10653 14.9435C7.18537 14.9536 7.26462 14.9623 7.34425 14.9697C7.21481 14.6338 7.12602 14.2809 7.07108 13.9285C4.19847 13.4821 2 10.9978 2 8C2 7.58579 2.04197 7.18138 2.1219 6.79079C2.52315 4.82991 3.88095 3.21747 5.68646 2.46228C6.39843 2.16449 7.18 2 8 2Z" fill="#6C707E"/>
<path d="M13.8956 9.12034L14.0257 9.07699C14.319 8.97921 14.631 8.97568 14.9203 9.06008C14.9728 8.71437 15 8.36037 15 8C15 7.1414 14.8454 6.31891 14.5626 5.55883L14.5607 5.5607C14.3163 5.80507 13.9963 5.95641 13.6557 5.99195C13.8787 6.61978 14 7.29572 14 8C14 8.35152 13.9698 8.69599 13.9118 9.03093C13.9066 9.06081 13.9012 9.09062 13.8956 9.12034Z" fill="#6C707E"/>
</svg>
