<svg width="16" height="16" viewBox="0 0 16 16" fill="none" xmlns="http://www.w3.org/2000/svg">
<path fill-rule="evenodd" clip-rule="evenodd" d="M15.3798 12.7117C15.5435 12.8691 15.5436 13.131 15.3799 13.2884L12.6774 15.8876C12.4232 16.132 12 15.9519 12 15.5993L12 10.4038C12 10.0513 12.423 9.87118 12.6772 10.1154L15.3798 12.7117Z" fill="#57965C"/>
<path fill-rule="evenodd" clip-rule="evenodd" d="M7.62255 13.2883C7.45909 13.1309 7.45916 12.8692 7.62271 12.7119L10.3216 10.1163C10.5757 9.87185 10.9989 10.0519 10.9989 10.4045V15.5986C10.9989 15.9514 10.5755 16.1314 10.3214 15.8868L7.62255 13.2883Z" fill="#DB5C5C"/>
<path d="M7.00553 11.9182C4.7396 11.5483 2.65492 9.96477 2 8C2.75 5.75 5.375 4 8 4C10.625 4 13.25 5.75 14 8C13.8434 8.46981 13.605 8.91782 13.302 9.33266C12.9973 9.07351 12.6332 8.97553 12.2855 9.00651C12.5525 8.69137 12.771 8.35241 12.9282 8C12.1936 6.35319 10.1217 5 8 5C5.8783 5 3.80637 6.35319 3.07185 8C3.8018 9.63656 5.85257 10.9831 7.9604 10.9998L7.00553 11.9182Z" fill="#CED0D6"/>
<path fill-rule="evenodd" clip-rule="evenodd" d="M8 10C9.10457 10 10 9.10457 10 8C10 6.89543 9.10457 6 8 6C6.89543 6 6 6.89543 6 8C6 9.10457 6.89543 10 8 10ZM8 9C8.55228 9 9 8.55228 9 8C9 7.44772 8.55228 7 8 7C7.44772 7 7 7.44772 7 8C7 8.55228 7.44772 9 8 9Z" fill="#CED0D6"/>
</svg>
