<svg width="16" height="16" viewBox="0 0 16 16" fill="none" xmlns="http://www.w3.org/2000/svg">
<path fill-rule="evenodd" clip-rule="evenodd" d="M16 2.5C16 3.88071 14.8807 5 13.5 5C12.1193 5 11 3.88071 11 2.5C11 1.11929 12.1193 0 13.5 0C14.8807 0 16 1.11929 16 2.5ZM15 2.5C15 3.32843 14.3284 4 13.5 4C12.6716 4 12 3.32843 12 2.5C12 1.67157 12.6716 1 13.5 1C14.3284 1 15 1.67157 15 2.5Z" fill="#6C707E"/>
<path d="M14.6496 5.80684C14.2895 5.93199 13.9027 6 13.5 6C11.567 6 10 4.433 10 2.5C10 2.09731 10.068 1.71051 10.1932 1.35044C9.5033 1.12304 8.76602 1 8 1C4.13401 1 1 4.13401 1 8C1 11.866 4.13401 15 8 15C11.866 15 15 11.866 15 8C15 7.23398 14.877 6.4967 14.6496 5.80684Z" fill="#F2FCF3"/>
<path d="M10.6273 4.5C10.739 4.66012 10.8638 4.81046 11 4.94949V5.5H8.5V11.5H7.5V5.5H5V4.5H10.6273Z" fill="#208A3C"/>
<path d="M13.6574 5.99653C13.8792 6.62307 14 7.29743 14 8C14 11.3137 11.3137 14 8 14C4.68629 14 2 11.3137 2 8C2 4.68629 4.68629 2 8 2C8.70257 2 9.37694 2.12075 10.0035 2.34264C10.0188 1.99646 10.0844 1.66336 10.1932 1.35044C9.5033 1.12304 8.76602 1 8 1C4.13401 1 1 4.13401 1 8C1 11.866 4.13401 15 8 15C11.866 15 15 11.866 15 8C15 7.23398 14.877 6.4967 14.6496 5.80684C14.3366 5.91561 14.0035 5.98121 13.6574 5.99653Z" fill="#208A3C"/>
</svg>
