<svg width="16" height="16" viewBox="0 0 16 16" fill="none" xmlns="http://www.w3.org/2000/svg">
<path fill-rule="evenodd" clip-rule="evenodd" d="M14.4122 8.29497C14.0217 7.90444 13.3885 7.90444 12.998 8.29497L11.6466 9.64633L8 13.2929V16H10.7071L15.7051 11.0021C16.0956 10.6116 16.0956 9.97839 15.7051 9.58786L14.4122 8.29497ZM14 11.2929L14.998 10.295L13.7051 9.00208L12.7071 10L14 11.2929ZM12 10.7072L13.2929 12L10.2929 15H9V13.7072L12 10.7072Z" fill="#CED0D6"/>
<path d="M4 2C2.89543 2 2 2.89543 2 4V12C2 13.1046 2.89543 14 4 14H7V12.8786L12.2909 7.58774C12.7566 7.12199 13.3949 6.93397 14 7.02369V4C14 2.89543 13.1046 2 12 2H4Z" fill="#2F2936"/>
<path d="M4 2C2.89543 2 2 2.89543 2 4V12C2 13.1046 2.89543 14 4 14H7V13H4C3.44772 13 3 12.5523 3 12V4C3 3.44772 3.44772 3 4 3H12C12.5523 3 13 3.44772 13 4V7.12983C13.3203 7.00943 13.6652 6.97405 14 7.02369V4C14 2.89543 13.1046 2 12 2H4Z" fill="#A571E6"/>
<path d="M8.5 11.3786V5.5H11V4.5H5V5.5H7.5V11.5H8.3786L8.5 11.3786Z" fill="#A571E6"/>
</svg>
