<svg width="16" height="16" viewBox="0 0 16 16" fill="none" xmlns="http://www.w3.org/2000/svg">
<path fill-rule="evenodd" clip-rule="evenodd" d="M2 4V12C2 13.1046 2.89543 14 4 14H12C13.1046 14 14 13.1046 14 12V4C14 2.89543 13.1046 2 12 2H4C2.89543 2 2 2.89543 2 4ZM3 10.5989V4C3 3.44772 3.44772 3 4 3H12C12.4968 3 12.9091 3.36234 12.9868 3.83719L9.04133 8.65945L7.41629 6.22189C7.32834 6.08997 7.18304 6.00758 7.02468 5.99983C6.86632 5.99209 6.71368 6.05991 6.61328 6.18262L3 10.5989ZM3.01307 12.1621C3.09051 12.6373 3.5029 13 4 13H12C12.5523 13 13 12.5523 13 12V5.40026L9.38724 9.81586C9.28684 9.93856 9.1342 10.0064 8.97584 9.99864C8.81748 9.9909 8.67218 9.9085 8.58423 9.77659L6.95919 7.33902L3.01307 12.1621Z" fill="#6C707E"/>
</svg>
