<svg width="16" height="16" viewBox="0 0 16 16" fill="none" xmlns="http://www.w3.org/2000/svg">
<path d="M13 14C13.5523 14 14 13.5523 14 13C14 12.4477 13.5523 12 13 12C12.4477 12 12 12.4477 12 13C12 13.5523 12.4477 14 13 14Z" fill="#CED0D6"/>
<path fill-rule="evenodd" clip-rule="evenodd" d="M16 13C16 14.6569 14.6569 16 13 16C11.3431 16 10 14.6569 10 13C10 11.3431 11.3431 10 13 10C14.6569 10 16 11.3431 16 13ZM15 13C15 14.1046 14.1046 15 13 15C11.8954 15 11 14.1046 11 13C11 11.8954 11.8954 11 13 11C14.1046 11 15 11.8954 15 13Z" fill="#CED0D6"/>
<path fill-rule="evenodd" clip-rule="evenodd" d="M10.6897 4.4347C10.6964 4.35727 10.6998 4.27899 10.6998 4.2C10.6998 2.70883 9.49097 1.5 7.9998 1.5C6.50864 1.5 5.2998 2.70883 5.2998 4.2C5.2998 4.2787 5.30319 4.35671 5.30982 4.43387C4.83797 4.69438 4.43266 5.06065 4.12587 5.50071L2.01731 4.36102C1.77438 4.22971 1.47101 4.3202 1.3397 4.56313C1.2084 4.80606 1.29889 5.10943 1.54181 5.24074L3.67708 6.39486C3.56157 6.74225 3.49902 7.11382 3.49902 7.5V8.50082H1.09961C0.823467 8.50082 0.599609 8.72467 0.599609 9.00082C0.599609 9.27696 0.823467 9.50082 1.09961 9.50082H3.49902V10C3.49902 10.4895 3.57718 10.9607 3.72169 11.4019L1.52989 12.6674C1.29075 12.8054 1.20881 13.1112 1.34688 13.3504C1.48495 13.5895 1.79075 13.6715 2.02989 13.5334L4.13959 12.3154C4.92653 13.6243 6.36051 14.5 7.99902 14.5C8.4246 14.5 8.83639 14.4409 9.22662 14.3305C9.11698 14.0196 9.04469 13.691 9.01513 13.3502C8.69355 13.4476 8.3524 13.5 7.99902 13.5C6.06603 13.5 4.49902 11.933 4.49902 10V7.5C4.49902 6.11929 5.61831 5 6.99902 5H8.99902C10.3797 5 11.499 6.11929 11.499 7.5V9.29115C11.9625 9.1034 12.4692 9 13 9C13.702 9 14.3617 9.18082 14.9352 9.49844C15.1946 9.4801 15.3994 9.26381 15.3994 8.99969C15.3994 8.72355 15.1756 8.49969 14.8994 8.49969H12.499V7.5C12.499 7.11362 12.4364 6.74186 12.3208 6.39432L14.4542 5.23962C14.697 5.10818 14.7873 4.80475 14.6559 4.5619C14.5244 4.31905 14.221 4.22873 13.9782 4.36018L11.8718 5.50024C11.5654 5.06085 11.1608 4.69507 10.6897 4.4347ZM6.30479 4.06885C6.52918 4.02369 6.76133 4 6.99902 4H8.99902C9.23727 4 9.46996 4.02381 9.69485 4.06917C9.62804 3.19142 8.89467 2.5 7.9998 2.5C7.10505 2.5 6.37175 3.19125 6.30479 4.06885Z" fill="#CED0D6"/>
</svg>
