<svg width="16" height="16" viewBox="0 0 16 16" fill="none" xmlns="http://www.w3.org/2000/svg">
<path d="M4 11H8V12H4V11Z" fill="#CED0D6"/>
<path d="M9.99965 5H8.19922V3.99707L12.8023 4V5H10.9997V9H9.99965V5Z" fill="#CED0D6"/>
<path d="M4.99953 7.1436L3.03516 4H4.21434L5.49963 6.05686L6.78553 4H7.96487L5.99953 7.14365V9.00022H4.99953V7.1436Z" fill="#CED0D6"/>
<path fill-rule="evenodd" clip-rule="evenodd" d="M13 1H3C1.89543 1 1 1.89543 1 3V13C1 14.1046 1.89543 15 3 15H13C14.1046 15 15 14.1046 15 13V3C15 1.89543 14.1046 1 13 1ZM13 2H3C2.44772 2 2 2.44772 2 3V13C2 13.5523 2.44772 14 3 14H13C13.5523 14 14 13.5523 14 13V3C14 2.44772 13.5523 2 13 2Z" fill="#CED0D6"/>
</svg>
