<svg width="16" height="16" viewBox="0 0 16 16" fill="none" xmlns="http://www.w3.org/2000/svg">
<path d="M4 11H8V12H4V11Z" fill="#6C707E"/>
<path d="M5.00063 5H3.2002V3.99707L7.80324 4V5H6.00063V9H5.00063V5Z" fill="#6C707E"/>
<path d="M10.5661 3.99706C9.06101 3.99706 8.0083 5.14024 8.0083 6.53015V6.5466L8.00007 6.53837C8.00007 7.94473 9.06924 9.05502 10.5167 9.05502C11.4625 9.05502 12.03 8.71782 12.5317 8.18324L11.8408 7.49239C11.4543 7.84604 11.1089 8.0681 10.5496 8.0681C9.71073 8.0681 9.12681 7.36903 9.12681 6.53015V6.5137C9.12681 5.67482 9.71896 4.9922 10.5496 4.9922C11.0431 4.9922 11.4296 5.19781 11.8079 5.54323L12.4988 4.7537C12.0464 4.30136 11.4954 3.99706 10.5661 3.99706Z" fill="#6C707E"/>
<path fill-rule="evenodd" clip-rule="evenodd" d="M13 1H3C1.89543 1 1 1.89543 1 3V13C1 14.1046 1.89543 15 3 15H13C14.1046 15 15 14.1046 15 13V3C15 1.89543 14.1046 1 13 1ZM13 2H3C2.44772 2 2 2.44772 2 3V13C2 13.5523 2.44772 14 3 14H13C13.5523 14 14 13.5523 14 13V3C14 2.44772 13.5523 2 13 2Z" fill="#6C707E"/>
</svg>
