<svg width="20" height="20" viewBox="0 0 20 20" fill="none" xmlns="http://www.w3.org/2000/svg">
<path fill-rule="evenodd" clip-rule="evenodd" d="M2 4V16C2 17.1046 2.89543 18 4 18H16C17.1046 18 18 17.1046 18 16V4C18 2.89543 17.1046 2 16 2H4C2.89543 2 2 2.89543 2 4ZM3.5 13.8994V4C3.5 3.72386 3.72386 3.5 4 3.5H16C16.1325 3.5 16.253 3.55156 16.3425 3.6357L11.501 10.8979L9.12503 7.33398C8.98593 7.12534 8.75176 7.00001 8.50099 7.00001C8.25023 7.00001 8.01605 7.12534 7.87695 7.33398L3.5 13.8994ZM3.65875 16.3654C3.7481 16.4489 3.86808 16.5 4 16.5H16C16.2761 16.5 16.5 16.2761 16.5 16V6.10358L12.125 12.666C11.9859 12.8747 11.7518 13 11.501 13C11.2502 13 11.0161 12.8747 10.877 12.666L8.50099 9.10209L3.65875 16.3654Z" fill="#CED0D6"/>
</svg>
