<svg width="16" height="16" viewBox="0 0 16 16" fill="none" xmlns="http://www.w3.org/2000/svg">
<g clip-path="url(#clip0_8216_14026)">
<path fill-rule="evenodd" clip-rule="evenodd" d="M6.95697 11.622C7.00214 11.3747 7.13767 11.1273 7.04732 10.9293C7.0071 11.083 6.77627 11.3252 6.68591 11.4241C6.59556 11.5231 6.59556 11.5231 6.41486 11.622C5.81489 11.7563 5.29834 11.7393 4.69821 11.622C4.4163 11.5726 3.74345 11.1111 3.70436 10.9293C3.6925 11.1329 3.70436 11.3252 3.88506 11.622C4.06576 11.9189 4.06576 12.2158 4.06576 12.4137C4.06576 12.6116 3.94536 12.7779 3.79471 13.1064C3.80722 13.3137 3.845 13.4044 3.79471 13.6012C3.71106 13.9282 3.38482 13.7669 3.16226 13.7001C2.8882 13.618 2.47767 13.6055 2.62016 13.2054C2.74557 12.8532 2.73958 12.3128 2.80086 11.82C2.29876 11.0278 1.89658 10.11 1.807 9.14812C1.73743 8.40119 1.84013 7.92272 1.9877 7.46585C2.22153 6.74198 2.45664 6.28815 2.98156 5.78358C3.68957 5.10315 4.02332 4.96675 5.05961 4.79401C4.81042 5.09953 4.80503 5.1343 4.53629 5.48073C4.26425 5.83149 4.10256 6.18573 3.92986 6.56933C3.69122 7.09918 3.69633 7.30079 4.01269 7.76592C4.2853 8.16677 4.43246 8.34726 4.55148 8.73944C4.45318 8.96137 4.41745 9.1489 4.38439 9.45196C4.71818 9.85155 4.96621 10.1254 5.29029 10.2098C5.60818 10.2925 5.87367 10.2765 6.15805 10.1173C6.78973 9.76352 7.50933 9.26597 8.22187 9.24708C8.55151 8.35943 8.38304 7.65866 8.22476 6.79985C8.11669 6.21335 7.98445 5.58987 7.95082 4.99193C7.69207 5.46806 7.4903 6.45666 7.58942 7.07002C7.70897 7.80924 7.67977 8.05959 7.58942 8.45542C7.13767 8.55438 7.08594 8.71976 6.50521 9.04916C6.27182 9.18162 5.69206 9.34604 5.42101 9.24708C5.14996 9.14812 5.28364 8.85109 5.42101 8.55438C5.64174 8.07785 6.23788 5.90616 6.50521 5.43723C6.17783 5.87008 5.13658 7.52551 4.87891 7.96064C4.78042 7.65328 4.69821 7.46585 4.51751 7.26794C4.33681 7.07002 4.86924 6.07893 5.16083 5.7341C5.66464 5.13821 5.77355 4.78711 6.32451 4.20027C6.62365 3.88163 6.77626 3.80444 7.13767 3.60653C7.49907 3.40861 8.0368 3.50169 8.40257 3.40861C8.22187 3.2107 8.04117 3.11174 7.77012 3.11174C8.04117 2.61696 8.21368 2.58196 8.76397 2.32008C9.45098 1.99328 9.60077 1.96023 10.0289 1.97374C10.445 1.98686 10.6788 2.08447 11.2034 2.56748C11.4792 2.82143 11.7369 2.94212 12.0166 3.16122C11.9152 3.17072 12.1106 3.26592 11.9951 3.31565C12.1357 3.28629 12.1417 3.32991 12.2876 3.35913C12.3286 3.38825 12.3662 3.38721 12.4683 3.45809C12.6605 3.59151 12.7866 3.65014 12.9201 3.85392C13.0612 4.06926 13.1221 4.40248 13.079 4.39793C12.9936 4.38894 12.9119 4.41194 12.8438 4.45783C12.8411 4.45923 12.8384 4.46059 12.8356 4.46206C12.7264 4.52029 12.5572 4.58668 12.444 4.60682C12.5017 4.62865 12.6294 4.63682 12.6897 4.61071C12.6978 4.60719 12.706 4.60453 12.7144 4.60231C12.6872 4.65295 12.6695 4.71049 12.664 4.77262C12.6568 4.855 12.6721 4.93406 12.7044 5.00271C12.715 5.02978 12.7292 5.0541 12.7448 5.07161C12.693 5.09245 12.6402 5.11633 12.5858 5.14223C12.8382 5.1001 12.9447 5.10479 13.1911 5.14036C13.2074 5.22544 13.345 5.30366 13.3601 5.39537C13.3296 5.39803 13.2991 5.40056 13.2686 5.40319C13.2662 5.40343 13.2637 5.40367 13.2612 5.40392C13.1446 5.30185 13.0147 5.319 12.8372 5.36336C12.2976 5.49816 12.4244 5.82985 12.1761 6.3296C12.4339 5.98444 12.4148 5.62333 12.8349 5.51436C12.9328 5.48897 12.9994 5.45722 13.0657 5.46813C12.9464 5.53384 12.8432 5.64274 12.8023 5.76921C12.687 6.12584 12.7586 6.42634 12.632 6.75943C12.7889 6.46167 12.7983 6.17105 12.9386 5.85777C12.989 5.74522 13.1761 5.56507 13.2909 5.5623C13.3224 5.56158 13.3538 5.56083 13.3854 5.56008C13.413 5.75833 13.3826 6.06562 13.3718 6.22889C13.3523 6.52678 13.2334 6.85137 13.1911 7.02054C13.3718 7.07002 13.6429 6.87211 13.8236 6.37732C14.0043 5.88254 13.9708 5.52358 13.9139 5.18984C13.8358 4.73188 14.0253 5.0593 14.2753 4.84349C14.4591 4.6848 14.6489 4.42922 14.8174 4.24975C14.9846 4.07178 15.124 4.47158 15.1897 4.64558C15.4748 5.40081 15.4348 6.01183 15.3595 6.77315C15.2751 7.62745 14.9742 8.38116 14.2862 8.80177C13.4092 9.33788 12.447 9.02432 11.5757 8.70281C11.3897 8.6342 11.1067 8.51874 10.9432 8.40594C10.9878 8.62546 10.9494 9.07131 10.9432 9.29656C10.9324 9.69238 10.9822 9.86846 11.0928 9.97834C11.2034 10.0882 11.2654 10.0882 11.3841 10.0882C11.5648 10.0882 11.8359 9.98926 11.9262 9.79134C12.0166 9.59343 12.0166 9.54395 12.0166 9.44499C12.0827 9.4673 12.2175 9.52538 12.2876 9.54395C12.2876 9.54395 12.2256 9.66584 12.186 9.80721C12.0833 10.1743 11.7455 10.484 11.3841 10.484C11.0227 10.484 10.7958 10.2329 10.5702 10.0132C10.4148 9.86174 10.2653 9.71686 10.1171 9.57337C9.71046 9.43287 9.5931 9.15724 9.21572 8.85125C9.12537 9.44499 9.21572 9.64291 9.57712 9.93978C9.52262 10.5483 9.38556 10.8304 9.21572 11.2262C9.10675 11.4802 8.56558 12.4098 8.40257 12.5127C8.28632 12.586 7.72641 13.2157 7.58942 13.3043C7.48742 13.4527 7.38135 13.7103 7.22802 13.7991C6.76072 14.0697 6.62272 13.8586 6.41486 13.4033C6.32451 13.2054 6.23416 13.0074 6.41486 12.9085C6.59556 12.8095 6.78713 12.5127 6.86662 12.4137C6.9461 12.3147 6.91179 11.8694 6.95697 11.622ZM9.75782 11.622C9.7143 11.8064 9.57712 12.0179 9.48677 12.2158C9.39642 12.4137 9.1876 12.7756 9.03502 12.9085C9.06472 12.9347 9.15857 13.0207 9.25567 13.0307C9.32437 13.0377 9.5952 13.0392 9.66321 13.0406C9.81292 13.0437 9.86974 13.0303 9.88488 12.8282C9.89227 12.7292 9.88575 12.7107 9.844 12.6239C9.8403 12.4692 9.83661 12.3144 9.83293 12.1597C9.82945 12.013 9.77785 11.6991 9.75782 11.622ZM1.96608 11.9759L1.96602 11.983C1.95067 12.0535 1.93289 12.1221 1.89563 12.1772C1.72039 12.4361 1.27461 12.0561 1.14558 11.9106C1.00453 11.7516 0.910118 11.5632 0.887641 11.3866C0.871297 11.2578 0.887157 11.2546 0.968566 11.1635C1.07828 11.0409 1.1881 10.9181 1.29777 10.7955C1.32178 10.7246 1.34587 10.6538 1.36988 10.583C1.49975 11.0789 1.7209 11.5662 1.96608 11.9759ZM7.73908 14.0915C7.59299 14.3304 7.57495 14.4782 7.34091 14.6169C6.64421 15.0298 6.27444 14.551 5.86203 13.8548C5.66552 13.5231 5.23585 12.7659 5.6918 12.5091C5.88391 12.401 6.02951 12.3199 6.17475 12.2273C5.69643 12.2923 5.22698 12.293 4.73885 12.2126C4.74749 12.2771 4.75502 12.3385 4.76112 12.3948C4.79285 12.6869 4.78856 12.8095 4.69821 13.0074C4.60786 13.2054 4.51751 13.3043 4.42716 13.4033C4.45038 13.6568 4.49247 13.9789 4.42716 14.2444C4.28198 14.8345 3.18108 14.4734 2.77115 14.3519C2.27789 14.2059 1.57306 14.0698 1.86227 13.3753C1.93004 13.2125 1.98326 13.0461 2.02331 12.8874C1.59201 13.0964 0.99264 12.6529 0.70718 12.3395C0.435663 12.0413 0.28817 11.6951 0.236782 11.3591C0.193021 11.0732 0.233089 11.0746 0.419397 10.8724C0.58984 10.6876 0.760225 10.5026 0.930622 10.3179C0.999428 10.1128 1.06836 9.90778 1.13713 9.70277C1.11033 9.54962 1.0904 9.39685 1.07853 9.24557C1.02903 8.61478 1.04566 8.16558 1.12794 7.75263C0.827834 7.88089 0.483474 7.82081 0.33031 7.47197C0.272065 7.33936 0.237369 7.20428 0.193378 7.00816C-0.476074 6.3017 0.778459 5.37554 1.14444 5.30589C1.1026 5.43611 1.05675 5.55523 1.01641 5.67334C1.26461 5.81407 1.23418 6.21505 1.18148 6.47321C1.0922 6.3498 1.04286 6.18844 0.911537 6.18151C0.892303 6.47346 0.895627 6.79608 0.687451 6.96749C0.749078 7.14792 0.745845 7.14807 0.920994 7.07431C1.16974 6.96941 1.35705 6.73575 1.54548 6.5077C1.74841 6.07476 2.00853 5.68963 2.36639 5.34214C3.24578 4.48821 4.077 4.20883 5.41543 3.97522C5.59358 3.77159 5.77769 3.57512 5.97531 3.38408C6.24304 3.12532 6.41688 3.07159 6.67009 3.05713C7.0891 2.44328 7.41878 2.01579 8.10192 1.70084C9.53385 1.04071 10.5208 1.00888 11.6701 2.04679C12.05 2.38974 12.3739 2.75115 12.7913 3.03745C13.0025 3.18232 13.1535 3.28646 13.3136 3.49534C13.515 3.7582 13.6795 4.02107 13.794 4.35941C13.9419 4.29274 14.1106 4.22991 14.2468 4.1024C14.4227 3.93782 14.5346 3.66234 14.6974 3.4815C14.9136 3.24154 15.4068 3.53122 15.516 3.76016C15.8875 4.53871 16.0379 5.52233 15.992 6.37732C15.9016 8.05959 15.4659 8.87872 14.6174 9.37468C14.0405 9.7118 13.402 9.87905 12.7394 9.74186C12.649 10.3356 12.1069 11.1273 11.4745 11.1273C10.842 11.1273 10.842 11.0283 10.571 10.8304C10.3953 10.7021 10.198 10.4961 10.1868 10.5215C10.1635 10.5742 10.1298 10.6165 10.1192 10.682C10.2335 10.9291 10.1737 10.7335 10.2715 10.9883C10.3791 11.2689 10.4315 11.453 10.4389 11.7533C10.4454 12.0198 10.4519 12.2864 10.4584 12.553C10.567 12.7642 10.5764 12.8156 10.5606 13.0573C10.5272 13.5668 10.271 13.6154 9.84406 13.6125C9.70182 13.6115 9.1649 13.6151 9.02804 13.6043C8.75597 13.5828 8.57662 13.56 8.48287 13.4369C8.23559 13.6557 7.81975 14.043 7.73908 14.0915ZM10.0897 5.74026C10.0499 5.6491 10.0308 5.55293 10.0301 5.45793C9.88356 5.58574 9.72421 5.7069 9.55886 5.77691C9.78716 5.55435 10.0973 5.02948 10.322 4.8638C10.577 4.6757 10.923 4.71232 11.2204 4.56218C11.1189 4.66286 10.9888 4.74399 10.8563 4.82121C11.0022 4.8795 11.1283 4.99746 11.2003 5.16208C11.2306 5.23151 11.2487 5.304 11.2561 5.37654C11.4558 5.30493 11.6519 5.27103 11.8176 5.27363C11.225 5.45523 10.5946 5.87994 10.16 6.44236C10.2088 6.29569 10.277 6.16332 10.3592 6.04512C10.2453 5.98012 10.1491 5.87619 10.0897 5.74026Z" fill="#CED0D6"/>
</g>
<defs>
<clipPath id="clip0_8216_14026">
<rect width="16" height="16" fill="white"/>
</clipPath>
</defs>
</svg>
