<svg width="20" height="20" viewBox="0 0 20 20" fill="none" xmlns="http://www.w3.org/2000/svg">
<path d="M2.0125 15.8687C1.90934 15.7914 1.82265 15.7225 1.75243 15.6645C1.80872 11.7998 2.89355 5.57836 10 2.08198C17.1065 5.57836 18.1913 11.7998 18.2476 15.6645C18.1774 15.7225 18.0907 15.7914 17.9875 15.8687C17.6443 16.1261 17.12 16.4765 16.4146 16.8292C15.0063 17.5333 12.8704 18.25 10 18.25C7.12957 18.25 4.99369 17.5333 3.58541 16.8292C2.88004 16.4765 2.35565 16.1261 2.0125 15.8687Z" stroke="#CED0D6" stroke-width="1.5"/>
<path d="M13.1851 9.20643C13.2063 9.22859 13.226 9.24963 13.2443 9.26938C13.1864 10.6305 12.6539 12.8986 10 14.1764C7.34611 12.8986 6.81363 10.6305 6.75574 9.26938C6.77395 9.24963 6.79369 9.22859 6.81493 9.20643C6.97032 9.04428 7.20274 8.82538 7.50363 8.60655C8.1083 8.16679 8.95665 7.75 10 7.75C11.0434 7.75 11.8917 8.16679 12.4964 8.60655C12.7973 8.82538 13.0297 9.04428 13.1851 9.20643ZM6.59824 9.45233C6.598 9.45264 6.59812 9.45249 6.59858 9.45189L6.59824 9.45233Z" stroke="#CED0D6" stroke-width="1.5"/>
</svg>
