<svg width="20" height="20" viewBox="0 0 20 20" fill="none" xmlns="http://www.w3.org/2000/svg">
<path fill-rule="evenodd" clip-rule="evenodd" d="M19.7837 13.9697C20.0766 14.2626 20.0766 14.7374 19.7837 15.0303L15.0377 19.7764C14.7448 20.0693 14.2699 20.0693 13.977 19.7764L11.4697 17.2691C11.1768 16.9762 11.1768 16.5013 11.4697 16.2084C11.7626 15.9155 12.2374 15.9155 12.5303 16.2084L14.5073 18.1854L18.7231 13.9697C19.016 13.6768 19.4909 13.6768 19.7837 13.9697Z" fill="#CED0D6"/>
<path d="M18.9394 12.2719C19.2995 9.51635 18.0349 6.62071 15.6843 4.27011C12.0005 0.586392 6.91777 -0.329424 3.27427 3.31401C-0.369239 6.95744 0.678439 12.2322 4.20025 15.754C6.15279 17.7065 8.62562 18.9294 11.0763 18.997L10.409 18.3298C10.1227 18.0434 9.92962 17.6991 9.82991 17.3345C8.23763 16.9791 6.62893 16.0613 5.2609 14.6933C3.70113 13.1336 2.74428 11.2378 2.54104 9.41354C2.36553 7.83821 2.74208 6.27494 3.85034 4.911L14.7554 15.816L15.816 14.7554L4.91349 3.85283C6.27261 2.75333 7.7871 2.37348 9.30455 2.53586C11.0828 2.72616 12.9711 3.67835 14.6236 5.33078C16.2857 6.99284 17.258 8.87105 17.46 10.6402C17.5699 11.6019 17.458 12.5682 17.0684 13.5031L17.6624 12.909C18.0217 12.5498 18.4722 12.3374 18.9394 12.2719Z" fill="#CED0D6"/>
</svg>
