<svg width="16" height="16" viewBox="0 0 16 16" fill="none" xmlns="http://www.w3.org/2000/svg">
<g clip-path="url(#clip0_14171_11087)">
<path d="M15 5C15 5.55228 14.5523 6 14 6C13.4477 6 13 5.55228 13 5C13 4.44772 13.4477 4 14 4C14.5523 4 15 4.44772 15 5Z" fill="#6C707E"/>
<path d="M5.05722 6.23226C5.18544 6.47683 5.48764 6.57116 5.73221 6.44294C5.97679 6.31472 6.07111 6.01252 5.94289 5.76794L5.05722 6.23226ZM5.80678 0.994873L6.27541 0.820553C6.20788 0.63901 6.04157 0.512803 5.84855 0.496621C5.65553 0.480439 5.47053 0.577195 5.37372 0.74496L5.80678 0.994873ZM6.5338 4.38347C6.63007 4.64229 6.91793 4.77406 7.17675 4.67778C7.43556 4.58151 7.56733 4.29365 7.47106 4.03483L6.5338 4.38347ZM5.10453 3.46072L5.60186 3.51234L5.10453 3.46072ZM5.33815 1.16919L6.5338 4.38347L7.47106 4.03483L6.27541 0.820553L5.33815 1.16919ZM5.50006 6.0001C5.94289 5.76794 5.94297 5.76809 5.94304 5.76824C5.94307 5.76828 5.94314 5.76842 5.94318 5.7685C5.94327 5.76867 5.94335 5.76883 5.94343 5.76897C5.94357 5.76925 5.94368 5.76946 5.94376 5.76962C5.94392 5.76993 5.94396 5.76999 5.94386 5.76981C5.94368 5.76945 5.943 5.76812 5.94187 5.76583C5.93959 5.76124 5.93549 5.75283 5.92985 5.74074C5.91857 5.71656 5.9012 5.67777 5.88009 5.62552C5.83781 5.5209 5.78089 5.36321 5.72779 5.16173C5.62141 4.75804 5.53205 4.18486 5.60186 3.51234L4.60721 3.40909C4.52235 4.2265 4.63075 4.92302 4.7608 5.41654C4.82592 5.66366 4.89687 5.86146 4.95292 6.00017C4.98097 6.06959 5.00538 6.12442 5.02358 6.16345C5.03269 6.18298 5.04026 6.19857 5.04596 6.21008C5.04882 6.21584 5.05121 6.22058 5.0531 6.22428C5.05404 6.22613 5.05486 6.22772 5.05555 6.22905C5.0559 6.22972 5.05621 6.23032 5.05649 6.23085C5.05663 6.23112 5.05676 6.23137 5.05688 6.23161C5.05694 6.23172 5.05703 6.23189 5.05706 6.23195C5.05714 6.23211 5.05722 6.23226 5.50006 6.0001ZM5.60186 3.51234C5.67595 2.79865 5.84036 2.22271 5.98453 1.82842C6.05655 1.63145 6.12327 1.4805 6.17062 1.38116C6.19429 1.33152 6.21308 1.29485 6.22522 1.27187C6.23128 1.26038 6.23569 1.25231 6.2382 1.24777C6.23946 1.2455 6.24024 1.2441 6.24052 1.2436C6.24066 1.24335 6.24068 1.24333 6.24057 1.24352C6.24051 1.24362 6.24042 1.24377 6.2403 1.24399C6.24024 1.24409 6.24017 1.24421 6.2401 1.24434C6.24006 1.24441 6.24 1.24452 6.23998 1.24455C6.23991 1.24467 6.23984 1.24479 5.80678 0.994873C5.37372 0.74496 5.37364 0.745085 5.37357 0.745214C5.37354 0.745261 5.37347 0.745394 5.37341 0.745489C5.3733 0.74568 5.37318 0.745886 5.37306 0.746106C5.3728 0.746546 5.37252 0.747045 5.3722 0.747603C5.37156 0.748717 5.3708 0.750066 5.3699 0.751646C5.36812 0.754806 5.36583 0.758894 5.36306 0.7639C5.35752 0.773911 5.35008 0.787595 5.34096 0.804863C5.32272 0.839394 5.29776 0.888293 5.26794 0.950848C5.20833 1.0759 5.12913 1.25587 5.04534 1.48501C4.87791 1.94291 4.6912 2.59989 4.60721 3.40909L5.60186 3.51234Z" fill="#6C707E"/>
<path d="M6.7832 2.4982C6.50705 2.4982 6.2832 2.72206 6.2832 2.9982C6.28321 3.27435 6.50707 3.4982 6.78321 3.4982L6.7832 2.4982ZM11.0547 4.2583L10.6887 4.599L10.8262 4.74665L11.0276 4.75757L11.0547 4.2583ZM14.0234 4.45361L13.9766 4.95141C13.983 4.95201 13.9894 4.95249 13.9958 4.95285L14.0234 4.45361ZM9.43847 8.49728C9.16271 8.51184 8.95097 8.7472 8.96554 9.02295C8.9801 9.29871 9.21546 9.51045 9.49122 9.49589L9.43847 8.49728ZM10.1094 3.39871L9.8711 3.83828L10.1094 3.39871ZM11.0547 4.2583C11.0276 4.75757 11.0276 4.75757 11.0277 4.75757C11.0277 4.75757 11.0277 4.75757 11.0277 4.75757C11.0278 4.75758 11.0279 4.75758 11.028 4.75759C11.0282 4.7576 11.0286 4.75762 11.0291 4.75765C11.0301 4.7577 11.0316 4.75778 11.0336 4.75789C11.0375 4.75811 11.0435 4.75843 11.0512 4.75886C11.0668 4.75971 11.0897 4.76097 11.1193 4.7626C11.1784 4.76587 11.2638 4.77063 11.369 4.7766C11.5795 4.78855 11.869 4.80531 12.1854 4.8246C12.8211 4.86336 13.5551 4.91173 13.9766 4.95141L14.0703 3.95581C13.6298 3.91434 12.8794 3.86506 12.2462 3.82645C11.9281 3.80705 11.6371 3.79021 11.4257 3.77821C11.3199 3.77221 11.234 3.76742 11.1745 3.76413C11.1448 3.76248 11.1216 3.76121 11.1059 3.76035C11.098 3.75992 11.092 3.75959 11.0879 3.75937C11.0859 3.75926 11.0844 3.75918 11.0833 3.75912C11.0828 3.75909 11.0824 3.75907 11.0822 3.75906C11.082 3.75905 11.0819 3.75904 11.0819 3.75904C11.0818 3.75904 11.0818 3.75904 11.0818 3.75903C11.0818 3.75903 11.0817 3.75903 11.0547 4.2583ZM6.78321 3.4982C7.89691 3.49818 8.47483 3.48386 8.89712 3.52351C9.27056 3.55856 9.49314 3.6334 9.8711 3.83828L10.3477 2.95913C9.8758 2.70336 9.52362 2.57792 8.99059 2.52788C8.5064 2.48243 7.84614 2.49818 6.7832 2.4982L6.78321 3.4982ZM9.8711 3.83828C10.0823 3.95279 10.2649 4.14372 10.6887 4.599L11.4206 3.9176C11.0413 3.5101 10.736 3.16962 10.3477 2.95913L9.8711 3.83828ZM14.0234 4.45361C13.9958 4.95285 13.9957 4.95284 13.9955 4.95283C13.9955 4.95283 13.9954 4.95282 13.9953 4.95282C13.9951 4.95281 13.995 4.9528 13.9948 4.95279C13.9946 4.95278 13.9943 4.95277 13.9942 4.95276C13.9939 4.95274 13.9938 4.95273 13.9939 4.95274C13.9941 4.95275 13.9952 4.95283 13.9971 4.95297C14.0009 4.95325 14.0077 4.95381 14.0173 4.95474C14.0365 4.95662 14.0658 4.95995 14.1017 4.96548C14.1757 4.97688 14.2668 4.99601 14.3517 5.02587C14.4413 5.05739 14.4922 5.08989 14.5139 5.11041C14.5223 5.11829 14.5203 5.11883 14.5166 5.11094C14.5122 5.1015 14.5117 5.09385 14.5117 5.09424H15.5117C15.5117 4.45117 14.9583 4.1792 14.6835 4.08253C14.5213 4.02548 14.3653 3.99431 14.254 3.97715C14.1973 3.9684 14.1494 3.96288 14.1145 3.95948C14.097 3.95777 14.0827 3.95658 14.072 3.95577C14.0666 3.95537 14.0622 3.95507 14.0587 3.95484C14.0569 3.95472 14.0554 3.95463 14.0541 3.95455C14.0535 3.95452 14.0529 3.95448 14.0524 3.95445C14.0521 3.95444 14.0519 3.95442 14.0517 3.95441C14.0516 3.95441 14.0514 3.9544 14.0514 3.95439C14.0512 3.95439 14.0511 3.95438 14.0234 4.45361ZM14.5117 5.09424C14.5117 6.57291 13.3945 7.42712 12.0614 7.93125C11.4096 8.17775 10.7514 8.32024 10.2519 8.40079C10.0034 8.44087 9.79688 8.46518 9.65378 8.47939C9.58229 8.48649 9.5268 8.49105 9.48999 8.49379C9.47158 8.49516 9.45786 8.49608 9.44916 8.49663C9.44481 8.49691 9.44172 8.49709 9.43992 8.49719C9.43902 8.49725 9.43845 8.49728 9.43821 8.49729C9.43809 8.4973 9.43805 8.4973 9.43809 8.4973C9.43811 8.4973 9.43821 8.49729 9.43822 8.49729C9.43833 8.49729 9.43847 8.49728 9.46484 8.99658C9.49122 9.49589 9.49139 9.49588 9.4916 9.49587C9.49169 9.49586 9.49191 9.49585 9.4921 9.49584C9.49249 9.49582 9.49295 9.49579 9.4935 9.49576C9.4946 9.4957 9.49604 9.49562 9.49781 9.49552C9.50134 9.49531 9.5062 9.49502 9.51235 9.49463C9.52464 9.49385 9.54206 9.49268 9.56429 9.49103C9.60873 9.48772 9.67241 9.48246 9.75259 9.4745C9.91284 9.45859 10.1397 9.43181 10.4111 9.38803C10.9517 9.30085 11.6803 9.14451 12.4151 8.8666C13.8555 8.3219 15.5117 7.22494 15.5117 5.09424H14.5117Z" fill="#6C707E"/>
<path d="M9.50005 13C9.50005 13 9.49199 11.6404 9.68725 10.8594C9.88251 10.0783 10.5 9 10.5 9" stroke="#6C707E" stroke-linecap="round"/>
<path d="M5.50048 6C5.50048 6 5.32322 6.14306 4.98535 6.55078" stroke="#6C707E" stroke-linecap="round"/>
<circle cx="9.5" cy="5.5" r="0.5" fill="#6C707E"/>
<path fill-rule="evenodd" clip-rule="evenodd" d="M8 13.9959C8 15.0997 6.20914 16 4 16C1.79086 16 0 15.0997 0 13.9959V9.99864C0 8.89482 1.79086 8 4 8C6.20914 8 8 8.89482 8 9.99864V13.9959ZM7 9.99864C7 9.9997 6.99993 10.0012 6.99936 10.0041C6.99876 10.007 6.99723 10.0132 6.99324 10.0229C6.98516 10.0427 6.96583 10.0796 6.92219 10.1312C6.83098 10.2389 6.6598 10.3789 6.38121 10.5181C5.82347 10.7968 4.98299 10.998 4 10.998C3.01701 10.998 2.17653 10.7968 1.61879 10.5181C1.3402 10.3789 1.16902 10.2389 1.07781 10.1312C1.03417 10.0796 1.01484 10.0427 1.00676 10.0229C1.00277 10.0132 1.00124 10.007 1.00064 10.0041C1.00007 10.0012 1 9.9997 1 9.99864C1 9.99758 1.00007 9.99603 1.00064 9.9932C1.00124 9.99025 1.00277 9.98408 1.00676 9.97435C1.01484 9.95462 1.03417 9.91764 1.07781 9.86608C1.16902 9.75833 1.3402 9.61841 1.61879 9.47921C2.17653 9.20053 3.01701 8.99932 4 8.99932C4.98299 8.99932 5.82347 9.20053 6.38121 9.47921C6.6598 9.61841 6.83098 9.75833 6.92219 9.86608C6.96583 9.91764 6.98516 9.95462 6.99324 9.97435C6.99723 9.98408 6.99876 9.99025 6.99936 9.9932C6.99993 9.99603 7 9.99758 7 9.99864ZM7 11.3207C6.26706 11.7356 5.19469 11.9973 4 11.9973C2.80531 11.9973 1.73294 11.7356 1 11.3207V11.9919C0.999425 11.9947 1 11.9973 1 11.9973C1 11.9973 1.00007 11.9999 1.00064 12.0027C1.00124 12.0057 1.00277 12.0118 1.00676 12.0216C1.01484 12.0413 1.03417 12.0783 1.07781 12.1298C1.16902 12.2376 1.3402 12.3775 1.61879 12.5167C2.17653 12.7954 3.01701 12.9966 4 12.9966C4.98299 12.9966 5.82347 12.7954 6.38121 12.5167C6.6598 12.3775 6.83098 12.2376 6.92219 12.1298C6.96583 12.0783 6.98516 12.0413 6.99324 12.0216C6.99723 12.0118 6.99876 12.0057 6.99936 12.0027C6.99993 11.9999 7 11.9973 7 11.9973C7 11.9973 6.99993 11.9947 6.99936 11.9919L7 11.3207ZM7 13.3193C6.26706 13.7342 5.19469 13.9959 4 13.9959C2.80531 13.9959 1.73294 13.7342 1 13.3193V13.9959C0.999425 13.9988 1 14.0014 1 14.0014C1 14.0014 1.00007 14.004 1.00064 14.0068C1.00124 14.0097 1.00277 14.0159 1.00676 14.0256C1.01484 14.0454 1.03417 14.0824 1.07781 14.1339C1.16902 14.2417 1.3402 14.3816 1.61879 14.5208C2.17653 14.7995 3.01701 15.0007 4 15.0007C4.98299 15.0007 5.82347 14.7995 6.38121 14.5208C6.6598 14.3816 6.83098 14.2417 6.92219 14.1339C6.96583 14.0824 6.98516 14.0454 6.99324 14.0256C6.99723 14.0159 6.99876 14.0097 6.99936 14.0068C6.99993 14.004 7 14.0014 7 14.0014C7 14.0014 6.99998 14.0005 6.99985 13.9993C6.99976 13.9983 6.99961 13.9971 6.99936 13.9959L7 13.3193Z" fill="#6C707E"/>
</g>
<defs>
<clipPath id="clip0_14171_11087">
<rect width="16" height="16" fill="white"/>
</clipPath>
</defs>
</svg>
