<svg width="20" height="20" viewBox="0 0 20 20" fill="none" xmlns="http://www.w3.org/2000/svg">
<path d="M13 10.5V12H16V10.5H13Z" fill="#CED0D6"/>
<path fill-rule="evenodd" clip-rule="evenodd" d="M13 5.5H14.5V7H16V8.5H17.5V10H19V13H17.5V14.5H16V16H14.5V14.5H13V16H14.5V17.5H16V19H4V17.5H2.5V16H1V10H2.5V8.5H4V7H5.5V5.5H7V4H5.5V2.5H7V1H11.5V2.5H13V5.5ZM10 11.5V10H11.5V8.5H13V7H14.5V8.5H16V10H17.5V13H16V14.5H14.5V13H13V14.5H11.5V13H8.5V11.5H10ZM8.5 11.5H7V13H8.5V14.5H11.5V16H13V17.5H4V16H2.5V10H4V8.5H5.5V7H7V5.5H8.5V4H7V2.5H11.5V5.5H13V7H11.5V8.5H10V10H8.5V11.5Z" fill="#CED0D6"/>
<path d="M16 17.5V16H17.5V17.5H16Z" fill="#CED0D6"/>
</svg>
