<svg width="20" height="20" viewBox="0 0 20 20" fill="none" xmlns="http://www.w3.org/2000/svg">
<path fill-rule="evenodd" clip-rule="evenodd" d="M1 5.64979C1 5.25461 1.23273 4.89648 1.59386 4.73598L9.59386 1.18043C9.85243 1.06551 10.1476 1.06551 10.4061 1.18043L18.4061 4.73598C18.7673 4.89648 19 5.25461 19 5.64979V14.35C19 14.7452 18.7673 15.1034 18.4061 15.2639L10.4061 18.8194C10.1476 18.9343 9.85243 18.9343 9.59386 18.8194L1.59386 15.2639C1.23273 15.1034 1 14.7452 1 14.35V5.64979ZM9.24998 17.0251V9.48732L2.5 6.48733V14.0251L9.24998 17.0251ZM3.76998 5.41029L10 2.6414L16.23 5.41028L9.99998 8.17918L3.76998 5.41029ZM17.5 6.48731L10.75 9.48732V17.0251L17.5 14.0251V6.48731Z" fill="#CED0D6"/>
</svg>
