<svg width="16" height="16" viewBox="0 0 16 16" fill="none" xmlns="http://www.w3.org/2000/svg">
<path d="M6 1.5C6 1.22386 5.77614 1 5.5 1C5.22386 1 5 1.22386 5 1.5V2H1.5C1.22386 2 1 2.22386 1 2.5C1 2.77614 1.22386 3 1.5 3H6.96455C6.82664 4.00455 6.2916 5.17617 5.42401 6.2479C5.29508 6.40717 5.1595 6.56333 5.01768 6.71557C4.51791 6.03749 4.15989 5.2508 3.99013 4.40202C3.93597 4.13124 3.67256 3.95563 3.40178 4.00978C3.131 4.06394 2.95539 4.32735 3.00955 4.59813C3.21738 5.6373 3.66483 6.59587 4.29065 7.41261C3.44949 8.13197 2.45466 8.70727 1.36277 9.01924C1.09725 9.0951 0.943505 9.37184 1.01937 9.63736C1.09523 9.90288 1.37197 10.0566 1.63749 9.98076C2.88878 9.62325 4.01296 8.96885 4.95418 8.16085C5.88906 9.07423 7.08025 9.72606 8.40178 9.99036C8.67256 10.0445 8.93597 9.86891 8.99013 9.59813C9.04428 9.32735 8.86867 9.06394 8.59789 9.00978C7.48276 8.78676 6.47482 8.23878 5.67954 7.47133C5.86316 7.27826 6.03726 7.07968 6.20125 6.8771C7.18013 5.66789 7.83262 4.27323 7.97213 3H9.5C9.77614 3 10 2.77614 10 2.5C10 2.22386 9.77614 2 9.5 2H6V1.5Z" fill="#208A3C"/>
<path fill-rule="evenodd" clip-rule="evenodd" d="M11.9597 7.30304C11.8809 7.1192 11.7001 7 11.5001 7C11.3001 7 11.1193 7.1192 11.0406 7.30304L8.04056 14.303C7.93178 14.5569 8.04935 14.8508 8.30317 14.9596C8.55698 15.0683 8.85092 14.9508 8.9597 14.697L9.68697 13H13.3133L14.0406 14.697C14.1493 14.9508 14.4433 15.0683 14.6971 14.9596C14.9509 14.8508 15.0685 14.5569 14.9597 14.303L11.9597 7.30304ZM11.5001 8.7693L12.8847 12H10.1155L11.5001 8.7693Z" fill="#208A3C"/>
</svg>
