<svg width="16" height="16" viewBox="0 0 16 16" fill="none" xmlns="http://www.w3.org/2000/svg">
<rect x="2" y="2" width="12" height="12" rx="2" fill="#27282E"/>
<path fill-rule="evenodd" clip-rule="evenodd" d="M12 2C13.1046 2 14 2.89543 14 4V12C14 13.1046 13.1046 14 12 14H4C2.89543 14 2 13.1046 2 12V4C2 2.89543 2.89543 2 4 2H12ZM9.5545 11.8597C9.88225 12.0136 10.2585 12.0906 10.6831 12.0906C11.1049 12.0906 11.4797 12.0122 11.8074 11.8555C12.1352 11.6987 12.3903 11.4835 12.5727 11.2099C12.7551 10.9335 12.8463 10.6243 12.8463 10.2823C12.8463 10.0001 12.7836 9.73364 12.6582 9.48284C12.5328 9.23204 12.3546 9.02257 12.1238 8.85442C11.8958 8.68627 11.635 8.57654 11.3415 8.52524L10.3454 8.36279C10.143 8.32859 9.97915 8.24167 9.85375 8.10202C9.72835 7.95952 9.66565 7.79137 9.66565 7.59757C9.66565 7.43227 9.7084 7.28692 9.7939 7.16152C9.8794 7.03612 9.9991 6.93922 10.153 6.87082C10.3069 6.80242 10.485 6.76822 10.6874 6.76822C10.8897 6.76822 11.0679 6.80384 11.2218 6.87509C11.3757 6.94634 11.4954 7.04752 11.5809 7.17862C11.6664 7.30687 11.7091 7.45222 11.7091 7.61467H12.7223C12.7194 7.28122 12.6311 6.98482 12.4572 6.72547C12.2834 6.46612 12.0411 6.26377 11.7305 6.11842C11.4227 5.97307 11.0707 5.90039 10.6746 5.90039C10.287 5.90039 9.93925 5.97592 9.63145 6.12697C9.32365 6.27517 9.08283 6.48179 8.90898 6.74684C8.73798 7.00904 8.65248 7.30544 8.65248 7.63604C8.65248 7.91249 8.70948 8.16757 8.82348 8.40127C8.94033 8.63212 9.10563 8.82449 9.31938 8.97839C9.53313 9.13229 9.78535 9.23489 10.0761 9.28619L11.0892 9.45719C11.3115 9.49424 11.4897 9.59399 11.6236 9.75644C11.7576 9.91604 11.8245 10.107 11.8245 10.3293C11.8245 10.506 11.7775 10.6627 11.6835 10.7995C11.5923 10.9335 11.4612 11.0375 11.2902 11.1116C11.1192 11.1857 10.9211 11.2228 10.6959 11.2228C10.4651 11.2228 10.2599 11.1829 10.0803 11.1031C9.90363 11.0204 9.7654 10.905 9.66565 10.7568C9.5659 10.6086 9.51603 10.4404 9.51603 10.2523H8.50285C8.5057 10.6114 8.59975 10.9306 8.785 11.2099C8.97025 11.4864 9.22675 11.703 9.5545 11.8597ZM7.87147 6.00035H3.13477V7.00035H4.99976V12.0004H5.99976V7.00035H7.87147V6.00035Z" fill="#9DA0A8"/>
</svg>
