<svg width="24" height="24" viewBox="0 0 24 24" fill="none" xmlns="http://www.w3.org/2000/svg">
<path fill-rule="evenodd" clip-rule="evenodd" d="M21 4.81818L12 1L3 4.81818V12.7681C3 15.4169 4.33867 17.354 6.04856 18.8864C7.30624 20.0135 8.8377 20.9801 10.2429 21.8669C10.7097 22.1615 11.1627 22.4474 11.5869 22.7274L12 23L12.4131 22.7274C12.8374 22.4474 13.2903 22.1616 13.7571 21.8669C15.1623 20.9801 16.6938 20.0135 17.9514 18.8864C19.6613 17.354 21 15.4169 21 12.7681V4.81818ZM11.4125 12.7514C11.31 12.9808 11.2587 13.2453 11.2587 13.5449V13.882H12.6992V13.6152C12.6992 13.4279 12.7388 13.257 12.8181 13.1025C12.8974 12.9434 12.9976 12.8006 13.1188 12.6742C13.2447 12.5431 13.4125 12.3839 13.6223 12.1966C13.916 11.9485 14.1537 11.7238 14.3355 11.5225C14.5174 11.3165 14.6735 11.0613 14.8041 10.757C14.9346 10.448 14.9999 10.0875 14.9999 9.67556C15.0045 9.14653 14.8857 8.68071 14.6432 8.27809C14.4055 7.87079 14.0652 7.55712 13.6223 7.33708C13.1794 7.11236 12.6643 7 12.0769 7C11.4615 7 10.9207 7.12172 10.4545 7.36517C9.99299 7.60393 9.63402 7.94569 9.37761 8.39045C9.12587 8.83521 9 9.35253 9 9.94242H10.5174C10.5174 9.62875 10.5804 9.35253 10.7063 9.11376C10.8321 8.87032 11.0116 8.68305 11.2447 8.55197C11.4778 8.4162 11.7482 8.34831 12.0559 8.34831C12.3309 8.34831 12.5733 8.40918 12.7831 8.5309C12.9976 8.64794 13.1631 8.81414 13.2796 9.02949C13.4008 9.24485 13.4614 9.49064 13.4614 9.76685C13.4614 10.0243 13.4125 10.2561 13.3146 10.4621C13.2214 10.6681 13.1048 10.846 12.9649 10.9958C12.8298 11.1456 12.6433 11.3305 12.4055 11.5506C12.1538 11.78 11.951 11.9789 11.7971 12.1475C11.648 12.316 11.5198 12.5173 11.4125 12.7514ZM12.902 15.2022H11.1118V17H12.902V15.2022Z" fill="#4682FA"/>
</svg>
