<svg width="16" height="16" viewBox="0 0 16 16" fill="none" xmlns="http://www.w3.org/2000/svg">
<circle cx="8" cy="8" r="6.5" fill="#43454A" stroke="#CED0D6"/>
<path d="M7.48309 9.08146C7.48309 8.87172 7.51902 8.68656 7.59089 8.52598C7.66602 8.36213 7.75586 8.22121 7.86039 8.10323C7.96819 7.98525 8.11029 7.84597 8.28669 7.68539C8.45329 7.53137 8.58396 7.40192 8.67869 7.29705C8.77669 7.19218 8.85836 7.06765 8.92369 6.92345C8.99229 6.77926 9.02659 6.61704 9.02659 6.4368C9.02659 6.24345 8.98412 6.07139 8.89919 5.92065C8.81752 5.7699 8.70156 5.65356 8.55129 5.57163C8.40429 5.48642 8.23442 5.44382 8.04169 5.44382C7.82609 5.44382 7.63662 5.49134 7.47329 5.58638C7.30996 5.67814 7.18419 5.80922 7.09599 5.97963C7.00779 6.14677 6.96369 6.34012 6.96369 6.55969H5.90039C5.90039 6.14677 5.98859 5.78464 6.16499 5.47331C6.34466 5.16198 6.59619 4.92275 6.91959 4.75562C7.24626 4.58521 7.62519 4.5 8.05639 4.5C8.46799 4.5 8.82896 4.57865 9.13929 4.73595C9.44962 4.88998 9.68809 5.10955 9.85469 5.39466C10.0246 5.6765 10.1079 6.00257 10.1046 6.37289C10.1046 6.66128 10.0589 6.91362 9.96739 7.12992C9.87592 7.34293 9.76649 7.52154 9.63909 7.66573C9.51169 7.80665 9.34509 7.96395 9.13929 8.13764C8.99229 8.26873 8.87469 8.38015 8.78649 8.47191C8.70156 8.56039 8.63132 8.66035 8.57579 8.77177C8.52026 8.87992 8.49249 8.99953 8.49249 9.13062V9.31742H7.48309V9.08146ZM7.38019 10.2416H8.63459V11.5H7.38019V10.2416Z" fill="#CED0D6"/>
</svg>
