<svg width="16" height="16" viewBox="0 0 16 16" fill="none" xmlns="http://www.w3.org/2000/svg">
<path d="M2 4C2 2.89543 2.89543 2 4 2H12C13.1046 2 14 2.89543 14 4V8.25273C13.4059 7.45078 12.5143 7.03401 11.611 7.00243C11.5367 6.99918 11.4623 6.99919 11.388 7.00246C10.3911 7.03756 9.40859 7.54183 8.82453 8.51526L6.42346 12.517C6.1371 12.9943 6.00318 13.503 5.99727 14H4C2.89543 14 2 13.1046 2 12V4Z" fill="#FFF7F7"/>
<path d="M7.25628 11.129L8.27343 9.43377V7.32741H9.82771V6.43027H8.27343V5.48C8.27343 5.12 8.51914 4.87429 8.87343 4.87429H9.87914V4H8.77628C7.87343 4 7.25628 4.57143 7.25628 5.40571V6.43027H6.11914V7.32741H7.25628V11.129Z" fill="#DB3B4B"/>
<path d="M9 3H12C12.5523 3 13 3.44772 13 4V7H14V4C14 2.89543 13.1046 2 12 2H9V3Z" fill="#DB3B4B"/>
<path d="M7 3V2H4C2.89543 2 2 2.89543 2 4V7H3V4C3 3.44772 3.44772 3 4 3H7Z" fill="#DB3B4B"/>
<path d="M3 9H2V12C2 13.1046 2.89543 14 4 14H7V13H4C3.44772 13 3 12.5523 3 12V9Z" fill="#DB3B4B"/>
<g clip-path="url(#clip0_10764_10281)">
<path fill-rule="evenodd" clip-rule="evenodd" d="M14.8608 13.546L12.4597 9.54425C12.0247 8.81923 10.974 8.81923 10.5389 9.54425L8.13788 13.546C7.75396 14.1859 8.21487 14.9999 8.96107 14.9999H14.0376C14.7838 14.9999 15.2447 14.1859 14.8608 13.546ZM15.7183 13.0315L13.3172 9.02976C12.4938 7.6574 10.5049 7.6574 9.68146 9.02976L7.28039 13.0315C6.49656 14.3379 7.43758 15.9999 8.96107 15.9999H14.0376C15.5611 15.9999 16.5021 14.3379 15.7183 13.0315Z" fill="#6C707E"/>
<path d="M12 10H11V12H12V10Z" fill="#6C707E"/>
<path d="M12.0001 14L12.0002 13H11.0002L11 14H12.0001Z" fill="#6C707E"/>
</g>
<defs>
<clipPath id="clip0_10764_10281">
<rect width="9" height="8" fill="white" transform="translate(7 8)"/>
</clipPath>
</defs>
</svg>
