<svg width="16" height="16" viewBox="0 0 16 16" fill="none" xmlns="http://www.w3.org/2000/svg">
<path d="M2 4C2 2.89543 2.89543 2 4 2H12C13.1046 2 14 2.89543 14 4V8.25273C13.4059 7.45078 12.5143 7.03401 11.611 7.00243C11.5367 6.99918 11.4623 6.99919 11.388 7.00246C10.3911 7.03756 9.40859 7.54183 8.82453 8.51526L6.42346 12.517C6.1371 12.9943 6.00318 13.503 5.99727 14H4C2.89543 14 2 13.1046 2 12V4Z" fill="#FFF7F7"/>
<g clip-path="url(#clip0_10621_10976)">
<path fill-rule="evenodd" clip-rule="evenodd" d="M14.8608 13.546L12.4597 9.54425C12.0247 8.81923 10.974 8.81923 10.5389 9.54425L8.13788 13.546C7.75396 14.1859 8.21487 14.9999 8.96107 14.9999H14.0376C14.7838 14.9999 15.2447 14.1859 14.8608 13.546ZM15.7183 13.0315L13.3172 9.02976C12.4938 7.6574 10.5049 7.6574 9.68146 9.02976L7.28039 13.0315C6.49656 14.3379 7.43758 15.9999 8.96107 15.9999H14.0376C15.5611 15.9999 16.5021 14.3379 15.7183 13.0315Z" fill="#6C707E"/>
<path d="M12 10H11V12H12V10Z" fill="#6C707E"/>
<path d="M12.0001 14L12.0002 13H11.0002L11 14H12.0001Z" fill="#6C707E"/>
</g>
<path d="M10.0657 5.25C9.25361 5.25 8.636 5.65158 8.29593 6.31965C8.00368 5.64685 7.40552 5.25 6.6071 5.25C5.84915 5.25 5.28147 5.61373 4.96189 6.25289V5.37615H4V10.7585H4.99869V7.59428C4.99869 6.68495 5.5138 6.11202 6.32852 6.11202C7.0749 6.11202 7.50591 6.62188 7.50591 7.44185V10.713L8.49409 9.066V7.59428C8.49409 6.68495 9.01971 6.11202 9.82392 6.11202C10.4458 6.11202 10.8447 6.46108 10.9638 7.04605C11.1041 7.02199 11.2459 7.00746 11.388 7.00246C11.4623 6.99919 11.5367 6.99918 11.6111 7.00243C11.7353 7.00678 11.8594 7.01842 11.9825 7.03734C11.8608 5.93776 11.1166 5.25 10.0657 5.25Z" fill="#DB3B4B"/>
<path d="M12 3H4C3.44772 3 3 3.44772 3 4V12C3 12.5523 3.44772 13 4 13H6.18822C6.06244 13.33 6.00122 13.6676 5.99727 14H4C2.89543 14 2 13.1046 2 12V4C2 2.89543 2.89543 2 4 2H12C13.1046 2 14 2.89543 14 4V8.25273C13.722 7.87752 13.3789 7.58662 13 7.38005V4C13 3.44772 12.5523 3 12 3Z" fill="#DB3B4B"/>
<defs>
<clipPath id="clip0_10621_10976">
<rect width="9" height="8" fill="white" transform="translate(7 8)"/>
</clipPath>
</defs>
</svg>
