<svg width="16" height="16" viewBox="0 0 16 16" fill="none" xmlns="http://www.w3.org/2000/svg">
<path d="M2.43133 12.8899L0.611328 4.01089H1.68383L2.97083 11.0049L3.07483 11.6094L3.17883 11.0894L4.44633 3.99139L5.58383 3.98489L3.85483 12.8899H2.43133Z" fill="#E66D17"/>
<path d="M6.47951 13.0004V3.90039H7.56501V7.82639H9.09901V3.90039H10.191V13.0004H9.09901V8.84689H7.56501V13.0004H6.47951Z" fill="#E66D17"/>
<path d="M11.5069 13.0004V3.90039H13.3009C13.7689 3.90039 14.1502 4.03256 14.4449 4.29689C14.7395 4.56122 14.9562 4.97072 15.0949 5.52539C15.2335 6.07572 15.3029 6.79289 15.3029 7.67689V9.22389C15.3029 10.1079 15.2335 10.8272 15.0949 11.3819C14.9562 11.9322 14.7395 12.3396 14.4449 12.6039C14.1502 12.8682 13.7689 13.0004 13.3009 13.0004H11.5069ZM13.3009 11.9864C13.5045 11.9864 13.6692 11.8889 13.7949 11.6939C13.9249 11.4989 14.0202 11.1999 14.0809 10.7969C14.1415 10.3939 14.1719 9.86956 14.1719 9.22389V7.67689C14.1719 7.03122 14.1415 6.50689 14.0809 6.10389C14.0202 5.70089 13.9249 5.40189 13.7949 5.20689C13.6692 5.01189 13.5045 4.91439 13.3009 4.91439H12.5924V11.9864H13.3009Z" fill="#E66D17"/>
</svg>
