<svg width="16" height="16" viewBox="0 0 16 16" fill="none" xmlns="http://www.w3.org/2000/svg">
<path fill-rule="evenodd" clip-rule="evenodd" d="M15 10V6C15 4.34315 11.866 3 8 3C4.13401 3 1 4.34315 1 6V10C1 11.6569 4.13401 13 8 13C11.866 13 15 11.6569 15 10ZM13.7382 6.4653C13.9683 6.23213 14 6.07605 14 6C14 5.92395 13.9683 5.76787 13.7382 5.5347C13.5038 5.29723 13.1151 5.03751 12.5558 4.79782C11.4409 4.31998 9.83081 4 8 4C6.16919 4 4.55915 4.31998 3.44417 4.79782C2.8849 5.03751 2.4962 5.29723 2.26184 5.5347C2.03173 5.76787 2 5.92395 2 6C2 6.07605 2.03173 6.23213 2.26184 6.4653C2.4962 6.70277 2.8849 6.96249 3.44417 7.20218C4.55915 7.68002 6.16919 8 8 8C9.83081 8 11.4409 7.68002 12.5558 7.20218C13.1151 6.96249 13.5038 6.70277 13.7382 6.4653ZM14 7.54611C12.7751 8.41732 10.5463 9 8 9C5.45367 9 3.2249 8.41732 2 7.54611V10C2 10.076 2.03173 10.2321 2.26184 10.4653C2.4962 10.7028 2.8849 10.9625 3.44417 11.2022C4.55915 11.68 6.16919 12 8 12C9.83081 12 11.4409 11.68 12.5558 11.2022C13.1151 10.9625 13.5038 10.7028 13.7382 10.4653C13.9683 10.2321 14 10.076 14 10V7.54611Z" fill="#6C707E"/>
<path d="M14 6C14 6.07605 13.9683 6.23213 13.7382 6.4653C13.5038 6.70277 13.1151 6.96249 12.5558 7.20218C11.4409 7.68002 9.83081 8 8 8C6.16919 8 4.55915 7.68002 3.44417 7.20218C2.8849 6.96249 2.4962 6.70277 2.26184 6.4653C2.03173 6.23213 2 6.07605 2 6C2 5.92395 2.03173 5.76787 2.26184 5.5347C2.4962 5.29723 2.8849 5.03751 3.44417 4.79782C4.55915 4.31998 6.16919 4 8 4C9.83081 4 11.4409 4.31998 12.5558 4.79782C13.1151 5.03751 13.5038 5.29723 13.7382 5.5347C13.9683 5.76787 14 5.92395 14 6Z" fill="#EBECF0"/>
<path d="M8 9C10.5463 9 12.7751 8.41732 14 7.54611V10C14 10.076 13.9683 10.2321 13.7382 10.4653C13.5038 10.7028 13.1151 10.9625 12.5558 11.2022C11.4409 11.68 9.83081 12 8 12C6.16919 12 4.55915 11.68 3.44417 11.2022C2.8849 10.9625 2.4962 10.7028 2.26184 10.4653C2.03173 10.2321 2 10.076 2 10V7.54611C3.2249 8.41732 5.45367 9 8 9Z" fill="#EBECF0"/>
</svg>
