<svg width="20" height="20" viewBox="0 0 20 20" fill="none" xmlns="http://www.w3.org/2000/svg">
<g clip-path="url(#clip0_9576_13452)">
<path fill-rule="evenodd" clip-rule="evenodd" d="M17.2481 18.3089C16.6075 18.7451 15.8335 19 15 19C12.7909 19 11 17.2091 11 15C11 12.7909 12.7909 11 15 11C17.2091 11 19 12.7909 19 15C19 15.8336 18.745 16.6076 18.3088 17.2483L19.7803 18.7198C20.0732 19.0127 20.0732 19.4875 19.7803 19.7804C19.4874 20.0733 19.0126 20.0733 18.7197 19.7804L17.2481 18.3089ZM17.5 15C17.5 16.3807 16.3807 17.5 15 17.5C13.6193 17.5 12.5 16.3807 12.5 15C12.5 13.6193 13.6193 12.5 15 12.5C16.3807 12.5 17.5 13.6193 17.5 15Z" fill="#CED0D6"/>
<path fill-rule="evenodd" clip-rule="evenodd" d="M18.75 10C18.75 5.16751 14.8325 1.25 10 1.25C5.16751 1.25 1.25 5.16751 1.25 10C1.25 14.8325 5.16751 18.75 10 18.75C10.3146 18.75 10.6254 18.7334 10.9315 18.701C10.5419 18.273 10.219 17.7833 9.97902 17.2483C9.92403 17.2405 9.77209 17.1978 9.52742 16.9683C9.235 16.694 8.89943 16.2297 8.58191 15.5513C8.31036 14.9711 8.07269 14.2784 7.8898 13.5H9.70703C9.85921 12.9619 10.0912 12.4574 10.3895 12H7.62276C7.54359 11.3665 7.5 10.6964 7.5 10C7.5 9.30361 7.54359 8.6335 7.62276 8H12.3772C12.4564 8.6335 12.5 9.30361 12.5 10C12.5 10.0333 12.4999 10.0666 12.4997 10.0999C12.964 9.8625 13.4664 9.68917 13.9954 9.59154C13.9831 9.04653 13.9464 8.51453 13.8878 8H16.9706C17.1508 8.62911 17.2481 9.29323 17.25 9.97978C17.7843 10.2196 18.2735 10.5423 18.701 10.9315C18.7334 10.6254 18.75 10.3146 18.75 10ZM3.02937 12H6.11217C6.03911 11.3577 6 10.6881 6 10C6 9.31189 6.03911 8.64234 6.11217 8H3.02937C2.84744 8.63528 2.75 9.30626 2.75 10C2.75 10.6937 2.84744 11.3647 3.02937 12ZM6.35323 13.5H3.64926C4.49688 15.0347 5.88467 16.2295 7.55623 16.8278C7.04733 15.9468 6.62791 14.8066 6.35323 13.5ZM11.4181 4.44868C11.6896 5.02885 11.9273 5.7216 12.1102 6.5H7.8898C8.07269 5.7216 8.31036 5.02885 8.58191 4.44868C8.89943 3.77026 9.235 3.30596 9.52742 3.0317C9.8193 2.75794 9.97921 2.75 10 2.75C10.0208 2.75 10.1807 2.75794 10.4726 3.0317C10.765 3.30596 11.1006 3.77026 11.4181 4.44868ZM16.3507 6.5H13.6468C13.3721 5.19339 12.9527 4.05316 12.4438 3.17218C14.1153 3.77052 15.5031 4.96526 16.3507 6.5ZM6.35323 6.5C6.6279 5.19339 7.04733 4.05316 7.55622 3.17218C5.88467 3.77052 4.49688 4.96526 3.64926 6.5H6.35323Z" fill="#CED0D6"/>
</g>
<defs>
<clipPath id="clip0_9576_13452">
<rect width="20" height="20" fill="white"/>
</clipPath>
</defs>
</svg>
