<svg width="20" height="20" viewBox="0 0 20 20" fill="none" xmlns="http://www.w3.org/2000/svg">
<path fill-rule="evenodd" clip-rule="evenodd" d="M18.0008 11.674C18.0008 12.1534 17.6604 12.5654 17.1896 12.656L5 15L7.38133 2.8083C7.47304 2.3388 7.88441 2 8.36279 2H17.0008C17.553 2 18.0008 2.44772 18.0008 3V11.674ZM15.4395 3.5H10.6378L13.4223 5.51715L15.4395 3.5ZM7.15676 11.7827L8.6886 3.94015L12.3482 6.59127L7.15676 11.7827ZM8.20446 12.8563L13.4089 7.65188L16.0817 11.3415L8.20446 12.8563ZM16.5008 4.56002V9.36312L14.483 6.57775L16.5008 4.56002Z" fill="#6C707E"/>
<path d="M5 15L3.97943 18.5172C3.83793 19.0049 3.22824 19.1631 2.86899 18.8054L1.19767 17.1412C0.836432 16.7815 0.993205 16.1646 1.48196 16.0226L5 15Z" fill="#6C707E"/>
</svg>
