<svg width="16" height="16" viewBox="0 0 16 16" fill="none" xmlns="http://www.w3.org/2000/svg">
<path fill-rule="evenodd" clip-rule="evenodd" d="M14 9.1802C14 9.65688 13.6635 10.0673 13.1961 10.1608L4 12L5.83922 2.80388C5.93271 2.33646 6.34312 2 6.8198 2H13C13.5523 2 14 2.44772 14 3V9.1802ZM13 3.70718V8.00065L11.1599 5.54724L13 3.70718ZM10.4457 6.26153L12.6823 9.24373L6.15873 10.5484L10.4457 6.26153ZM12.293 3L10.453 4.83996L7.99974 3L12.293 3ZM5.45151 9.84146L6.75632 3.31743L9.73873 5.55424L5.45151 9.84146Z" fill="#CED0D6"/>
<path d="M1.36119 12.7669L3.99771 12L3.23287 14.6379C3.12683 15.0037 2.6699 15.1223 2.40067 14.854L1.14814 13.6059C0.877418 13.3361 0.994908 12.8735 1.36119 12.7669Z" fill="#CED0D6"/>
</svg>
