<svg width="16" height="16" viewBox="0 0 16 16" fill="none" xmlns="http://www.w3.org/2000/svg">
<circle cx="8" cy="8" r="6.5" fill="#FFF7F7" stroke="#DB3B4B"/>
<path d="M6.85355 5.85355C7.04882 5.65829 7.04882 5.34171 6.85355 5.14645C6.65829 4.95118 6.34171 4.95118 6.14645 5.14645L3.64645 7.64645C3.45118 7.84171 3.45118 8.15829 3.64645 8.35355L6.14645 10.8536C6.34171 11.0488 6.65829 11.0488 6.85355 10.8536C7.04882 10.6583 7.04882 10.3417 6.85355 10.1464L4.70711 8L6.85355 5.85355Z" fill="#6C707E"/>
<path d="M9.85355 5.14645C9.65829 4.95118 9.34171 4.95118 9.14645 5.14645C8.95118 5.34171 8.95118 5.65829 9.14645 5.85355L11.2929 8L9.14645 10.1464C8.95118 10.3417 8.95118 10.6583 9.14645 10.8536C9.34171 11.0488 9.65829 11.0488 9.85355 10.8536L12.3536 8.35355C12.5488 8.15829 12.5488 7.84171 12.3536 7.64645L9.85355 5.14645Z" fill="#6C707E"/>
</svg>
