<svg width="16" height="16" viewBox="0 0 16 16" fill="none" xmlns="http://www.w3.org/2000/svg">
<path fill-rule="evenodd" clip-rule="evenodd" d="M11.4768 3.0186C10.083 3.0132 8.5379 3.44876 7.70523 3.96236C7.39399 4.15434 7.07462 4.36928 6.75456 4.59614C6.75456 4.59614 3.86652 6.8199 2.96917 7.93904C2.84898 8.08893 2.73956 8.2505 2.64421 8.42071C2.63779 8.43293 2.63093 8.44527 2.62462 8.45758C2.61571 8.47397 2.60676 8.4906 2.59812 8.50713C2.59607 8.51128 2.59439 8.51565 2.59236 8.51981C2.45058 8.80965 2.34253 9.12352 2.2893 9.44052C2.28885 9.44318 2.28859 9.44591 2.28815 9.44858C2.28655 9.45972 2.28501 9.47082 2.28354 9.482C2.2353 9.84959 2.25517 10.2418 2.40568 10.5744C2.58866 10.9787 2.89323 11.2805 3.33446 11.5285C3.75997 11.7677 4.53864 11.971 4.53864 11.971L4.52596 11.9768C5.17493 12.0919 5.8472 12.0532 6.50336 11.9895C6.8251 11.9582 7.14697 11.9228 7.46901 11.8823C7.46923 11.8823 7.46994 11.8823 7.47016 11.8823C7.47235 11.8823 7.47934 11.8823 7.48168 11.8823C7.46045 11.7742 7.42618 11.5673 7.46785 11.5562C7.90896 11.4388 8.17157 11.368 8.51531 11.2485C8.844 11.1343 9.08455 11.0302 9.35075 10.8832C9.41727 10.8465 9.46992 10.7853 9.53973 10.7553C9.76014 10.6606 10.0055 10.6384 10.2427 10.6021C10.4321 10.573 10.6237 10.554 10.8154 10.5502C10.9397 10.5478 11.0655 10.545 11.1876 10.5686C11.281 10.5867 11.3756 10.6129 11.4572 10.662C11.5118 10.6948 11.5624 10.7392 11.5978 10.7922C11.6167 10.8324 11.6323 10.8748 11.6473 10.9166C12.3442 10.6555 13.0521 10.3407 13.5902 9.83C14.3861 9.07462 15.0185 8.08739 15.3313 7.03561C15.5013 6.46424 15.5308 5.82219 15.3693 5.24835C15.2695 4.89359 15.1157 4.66527 14.7724 4.31728C14.0703 3.6054 13.0474 3.16516 12.0541 3.05087C11.8702 3.02971 11.6759 3.01938 11.4768 3.0186ZM6.75456 4.59614C6.61197 4.69721 6.46892 4.80071 6.32705 4.90611L6.75456 4.59614ZM9.76098 5.26794C10.2125 5.26661 10.4627 5.33593 10.4627 5.33593C10.4627 5.33593 9.71984 5.40526 9.30696 5.47882C8.97994 5.53708 8.45391 5.63837 8.04401 5.77727C7.24476 6.04812 6.48444 6.42682 5.7336 6.81206C5.15649 7.10817 4.60351 7.45024 4.0512 7.79039C3.67372 8.02286 2.93691 8.51635 2.93691 8.51635C2.93691 8.51635 3.56482 7.70495 5.23464 6.76712C5.71209 6.49897 6.19936 6.24743 6.69925 6.02387C7.08987 5.84918 7.48593 5.68268 7.89536 5.55833C8.20643 5.46386 8.52744 5.39841 8.84834 5.3463C9.08214 5.30834 9.33068 5.28442 9.55471 5.27371C9.62727 5.27024 9.69647 5.26814 9.76098 5.26794ZM4.03277 6.04231C3.88487 6.04318 3.75805 6.21677 3.68016 6.34767C3.58034 6.51542 3.53599 6.80329 3.51537 7.03331C3.83585 6.75921 4.15565 6.50424 4.37731 6.33154C4.29167 6.18767 4.18439 6.06328 4.06273 6.04461C4.05269 6.04307 4.04263 6.04225 4.03277 6.04231ZM10.4892 6.77519C10.4892 6.77519 9.09502 7.30426 8.40239 7.58066C7.60449 7.89907 6.80911 8.22544 6.01938 8.5636C5.46695 8.80014 4.9177 9.04463 4.37155 9.29532C3.86945 9.5258 2.87353 10.0052 2.87353 10.0052C2.87353 10.0052 3.7216 9.3099 5.29456 8.62237C6.21251 8.22114 6.83149 7.86961 7.81931 7.54725C8.28056 7.39672 8.73578 7.22722 9.2021 7.09323C9.62677 6.9712 10.4892 6.77519 10.4892 6.77519ZM10.9732 8.19024C10.9732 8.19024 10.7775 8.42328 10.3406 8.71225C10.1221 8.85673 9.93059 9.00821 9.71604 9.14091C9.43834 9.31267 9.1533 9.47246 8.85986 9.61567C8.49613 9.79318 8.11847 9.94156 7.7421 10.0904C7.37318 10.2364 7.00211 10.3783 6.62435 10.4995C6.15826 10.6491 5.68765 10.7874 5.20929 10.8913C4.8622 10.9666 4.15722 11.0584 4.15722 11.0584C4.15722 11.0584 5.02712 10.7637 5.4605 10.6113C5.91808 10.4504 6.35199 10.2985 6.82946 10.1181C7.32304 9.93158 7.67596 9.79569 8.09587 9.62604C8.43921 9.48733 8.78492 9.35324 9.12029 9.19622C9.37678 9.07613 9.62572 8.93991 9.87506 8.80558C10.2445 8.60653 10.9732 8.19024 10.9732 8.19024ZM11.9861 9.10404C11.9861 9.10404 11.9745 9.24858 11.607 9.62489C11.4586 9.77682 11.1973 9.97289 11.0308 10.0754C10.3858 10.4729 10.0421 10.5744 10.0421 10.5744C10.0421 10.5744 10.6789 10.1579 10.9871 9.93486C11.1685 9.80351 11.3474 9.66697 11.5194 9.52348C11.6801 9.3895 11.9861 9.10404 11.9861 9.10404ZM2.0934 10.4811C1.87675 10.5785 1.61571 10.6994 1.44464 10.791C1.12746 10.9609 0.503343 11.2581 0.523935 11.3545C0.555411 11.502 1.26199 11.2168 1.63017 11.1437C1.86442 11.0971 2.09735 11.0483 2.33078 10.9985C2.2366 10.8338 2.15473 10.6603 2.0934 10.4811ZM10.7301 10.7173C10.6363 10.7179 10.536 10.7234 10.4143 10.7369C10.0415 10.7782 9.9406 10.8116 9.64229 10.9086C9.53601 10.9431 9.4733 10.9987 9.38993 11.0446C9.24012 11.1269 9.09902 11.2263 8.94283 11.2958C8.71839 11.3956 8.47961 11.4596 8.24452 11.5308C8.05067 11.5896 8.02385 11.601 7.65798 11.6887C7.59448 11.7039 7.6542 11.8077 7.71099 11.8869C8.57899 11.9045 11.2044 11.9465 11.2394 11.8005L11.433 10.9962C11.4503 10.99 11.4676 10.984 11.4849 10.9777C11.4776 10.9501 11.4682 10.9224 11.4572 10.904C11.4252 10.8502 11.3785 10.8014 11.3224 10.7738C11.2281 10.7273 11.1162 10.7346 11.0113 10.7277C10.9121 10.7211 10.8239 10.7167 10.7301 10.7173ZM11.2048 10.9339C11.3089 10.9357 11.3932 10.9515 11.3927 11.0031C11.3915 11.1141 11.1529 11.1086 11.0435 11.1195C10.3378 11.1892 10.0904 11.1774 9.61348 11.1794C9.52186 11.1798 9.33923 11.1702 9.33923 11.1702C9.33923 11.1702 9.79747 11.0614 10.2046 11.0123C10.4414 10.9837 10.6723 10.9542 10.8995 10.9466C10.9774 10.944 11.1008 10.9322 11.2048 10.9339ZM10.6644 11.3764C10.7492 11.3748 10.8341 11.3775 10.9179 11.3891C10.9842 11.3983 11.0589 11.4016 11.1104 11.4444C11.1333 11.4635 11.16 11.5044 11.1507 11.5239C11.1319 11.5636 11.0609 11.5655 10.9098 11.5758C10.7287 11.5881 10.552 11.6027 10.3729 11.608C9.92865 11.6213 9.03962 11.6057 9.03962 11.6057C9.03962 11.6057 9.31689 11.5321 9.45792 11.5066C9.77252 11.4498 10.0906 11.4086 10.4097 11.3891C10.4942 11.3839 10.5796 11.378 10.6644 11.3764Z" fill="#548AF7"/>
<path fill-rule="evenodd" clip-rule="evenodd" d="M11.4768 3.0186C10.083 3.0132 8.5379 3.44876 7.70523 3.96236C7.39399 4.15434 7.07462 4.36928 6.75456 4.59614C6.75456 4.59614 3.86652 6.8199 2.96917 7.93904C2.84898 8.08893 2.73956 8.2505 2.64421 8.42071C2.63779 8.43293 2.63093 8.44527 2.62462 8.45758C2.61571 8.47397 2.60676 8.4906 2.59812 8.50713C2.59607 8.51128 2.59439 8.51565 2.59236 8.51981C2.45058 8.80965 2.34253 9.12352 2.2893 9.44052C2.28885 9.44318 2.28859 9.44591 2.28815 9.44858C2.28655 9.45972 2.28501 9.47082 2.28354 9.482C2.2353 9.84959 2.25517 10.2418 2.40568 10.5744C2.58866 10.9787 2.89323 11.2805 3.33446 11.5285C3.75997 11.7677 4.53864 11.971 4.53864 11.971L4.52596 11.9768C5.17493 12.0919 5.8472 12.0532 6.50336 11.9895C6.8251 11.9582 7.14697 11.9228 7.46901 11.8823C7.46923 11.8823 7.46994 11.8823 7.47016 11.8823C7.47235 11.8823 7.47934 11.8823 7.48168 11.8823C7.46045 11.7742 7.42618 11.5673 7.46785 11.5562C7.90896 11.4388 8.17157 11.368 8.51531 11.2485C8.844 11.1343 9.08455 11.0302 9.35075 10.8832C9.41727 10.8465 9.46992 10.7853 9.53973 10.7553C9.76014 10.6606 10.0055 10.6384 10.2427 10.6021C10.4321 10.573 10.6237 10.554 10.8154 10.5502C10.9397 10.5478 11.0655 10.545 11.1876 10.5686C11.281 10.5867 11.3756 10.6129 11.4572 10.662C11.5118 10.6948 11.5624 10.7392 11.5978 10.7922C11.6167 10.8324 11.6323 10.8748 11.6473 10.9166C12.3442 10.6555 13.0521 10.3407 13.5902 9.83C14.3861 9.07462 15.0185 8.08739 15.3313 7.03561C15.5013 6.46424 15.5308 5.82219 15.3693 5.24835C15.2695 4.89359 15.1157 4.66527 14.7724 4.31728C14.0703 3.6054 13.0474 3.16516 12.0541 3.05087C11.8702 3.02971 11.6759 3.01938 11.4768 3.0186ZM6.75456 4.59614C6.61197 4.69721 6.46892 4.80071 6.32705 4.90611L6.75456 4.59614ZM9.76098 5.26794C10.2125 5.26661 10.4627 5.33593 10.4627 5.33593C10.4627 5.33593 9.71984 5.40526 9.30696 5.47882C8.97994 5.53708 8.45391 5.63837 8.04401 5.77727C7.24476 6.04812 6.48444 6.42682 5.7336 6.81206C5.15649 7.10817 4.60351 7.45024 4.0512 7.79039C3.67372 8.02286 2.93691 8.51635 2.93691 8.51635C2.93691 8.51635 3.56482 7.70495 5.23464 6.76712C5.71209 6.49897 6.19936 6.24743 6.69925 6.02387C7.08987 5.84918 7.48593 5.68268 7.89536 5.55833C8.20643 5.46386 8.52744 5.39841 8.84834 5.3463C9.08214 5.30834 9.33068 5.28442 9.55471 5.27371C9.62727 5.27024 9.69647 5.26814 9.76098 5.26794ZM4.03277 6.04231C3.88487 6.04318 3.75805 6.21677 3.68016 6.34767C3.58034 6.51542 3.53599 6.80329 3.51537 7.03331C3.83585 6.75921 4.15565 6.50424 4.37731 6.33154C4.29167 6.18767 4.18439 6.06328 4.06273 6.04461C4.05269 6.04307 4.04263 6.04225 4.03277 6.04231ZM10.4892 6.77519C10.4892 6.77519 9.09502 7.30426 8.40239 7.58066C7.60449 7.89907 6.80911 8.22544 6.01938 8.5636C5.46695 8.80014 4.9177 9.04463 4.37155 9.29532C3.86945 9.5258 2.87353 10.0052 2.87353 10.0052C2.87353 10.0052 3.7216 9.3099 5.29456 8.62237C6.21251 8.22114 6.83149 7.86961 7.81931 7.54725C8.28056 7.39672 8.73578 7.22722 9.2021 7.09323C9.62677 6.9712 10.4892 6.77519 10.4892 6.77519ZM10.9732 8.19024C10.9732 8.19024 10.7775 8.42328 10.3406 8.71225C10.1221 8.85673 9.93059 9.00821 9.71604 9.14091C9.43834 9.31267 9.1533 9.47246 8.85986 9.61567C8.49613 9.79318 8.11847 9.94156 7.7421 10.0904C7.37318 10.2364 7.00211 10.3783 6.62435 10.4995C6.15826 10.6491 5.68765 10.7874 5.20929 10.8913C4.8622 10.9666 4.15722 11.0584 4.15722 11.0584C4.15722 11.0584 5.02712 10.7637 5.4605 10.6113C5.91808 10.4504 6.35199 10.2985 6.82946 10.1181C7.32304 9.93158 7.67596 9.79569 8.09587 9.62604C8.43921 9.48733 8.78492 9.35324 9.12029 9.19622C9.37678 9.07613 9.62572 8.93991 9.87506 8.80558C10.2445 8.60653 10.9732 8.19024 10.9732 8.19024ZM11.9861 9.10404C11.9861 9.10404 11.9745 9.24858 11.607 9.62489C11.4586 9.77682 11.1973 9.97289 11.0308 10.0754C10.3858 10.4729 10.0421 10.5744 10.0421 10.5744C10.0421 10.5744 10.6789 10.1579 10.9871 9.93486C11.1685 9.80351 11.3474 9.66697 11.5194 9.52348C11.6801 9.3895 11.9861 9.10404 11.9861 9.10404ZM2.0934 10.4811C1.87675 10.5785 1.61571 10.6994 1.44464 10.791C1.12746 10.9609 0.503343 11.2581 0.523935 11.3545C0.555411 11.502 1.26199 11.2168 1.63017 11.1437C1.86442 11.0971 2.09735 11.0483 2.33078 10.9985C2.2366 10.8338 2.15473 10.6603 2.0934 10.4811ZM10.7301 10.7173C10.6363 10.7179 10.536 10.7234 10.4143 10.7369C10.0415 10.7782 9.9406 10.8116 9.64229 10.9086C9.53601 10.9431 9.4733 10.9987 9.38993 11.0446C9.24012 11.1269 9.09902 11.2263 8.94283 11.2958C8.71839 11.3956 8.47961 11.4596 8.24452 11.5308C8.05067 11.5896 8.02385 11.601 7.65798 11.6887C7.59448 11.7039 7.6542 11.8077 7.71099 11.8869C8.57899 11.9045 11.2044 11.9465 11.2394 11.8005L11.433 10.9962C11.4503 10.99 11.4676 10.984 11.4849 10.9777C11.4776 10.9501 11.4682 10.9224 11.4572 10.904C11.4252 10.8502 11.3785 10.8014 11.3224 10.7738C11.2281 10.7273 11.1162 10.7346 11.0113 10.7277C10.9121 10.7211 10.8239 10.7167 10.7301 10.7173ZM11.2048 10.9339C11.3089 10.9357 11.3932 10.9515 11.3927 11.0031C11.3915 11.1141 11.1529 11.1086 11.0435 11.1195C10.3378 11.1892 10.0904 11.1774 9.61348 11.1794C9.52186 11.1798 9.33923 11.1702 9.33923 11.1702C9.33923 11.1702 9.79747 11.0614 10.2046 11.0123C10.4414 10.9837 10.6723 10.9542 10.8995 10.9466C10.9774 10.944 11.1008 10.9322 11.2048 10.9339ZM10.6644 11.3764C10.7492 11.3748 10.8341 11.3775 10.9179 11.3891C10.9842 11.3983 11.0589 11.4016 11.1104 11.4444C11.1333 11.4635 11.16 11.5044 11.1507 11.5239C11.1319 11.5636 11.0609 11.5655 10.9098 11.5758C10.7287 11.5881 10.552 11.6027 10.3729 11.608C9.92865 11.6213 9.03962 11.6057 9.03962 11.6057C9.03962 11.6057 9.31689 11.5321 9.45792 11.5066C9.77252 11.4498 10.0906 11.4086 10.4097 11.3891C10.4942 11.3839 10.5796 11.378 10.6644 11.3764Z" fill="#548AF7"/>
</svg>
