<svg width="16" height="16" viewBox="0 0 16 16" fill="none" xmlns="http://www.w3.org/2000/svg">
<path fill-rule="evenodd" clip-rule="evenodd" d="M9 9.50215C9 8.32441 10.2951 7.60608 11.2942 8.22967L15.2962 10.7275C16.2372 11.3149 16.2372 12.6851 15.2962 13.2725L11.2942 15.7703C10.2951 16.3939 9 15.6756 9 14.4978V9.50215ZM10.7647 9.07799C10.4317 8.87013 10 9.10957 10 9.50215V14.4978C10 14.8904 10.4317 15.1298 10.7647 14.922L14.7667 12.4241C15.0804 12.2284 15.0804 11.7716 14.7667 11.5758L10.7647 9.07799Z" fill="#57965C"/>
<path d="M10 9.50214C10 9.10956 10.4317 8.87012 10.7647 9.07798L14.7667 11.5758C15.0804 11.7716 15.0804 12.2284 14.7667 12.4241L10.7647 14.922C10.4317 15.1298 10 14.8904 10 14.4978V9.50214Z" fill="#253627"/>
<path d="M15 9.36421V5.16085C15 4.44314 14.6154 3.78045 13.9923 3.42437L8.99228 0.567225C8.37741 0.215873 7.62259 0.215873 7.00772 0.567225L2.00772 3.42437C1.38457 3.78045 1 4.44314 1 5.16085V10.8396C1 11.5573 1.38457 12.22 2.00772 12.576L7.00772 15.4332C7.31516 15.6089 7.65758 15.6967 8 15.6967V9.50253C8 7.53963 10.1585 6.3424 11.8237 7.38172L15 9.36421Z" fill="#2F2936"/>
<path d="M2.00772 3.42437C1.38457 3.78045 1 4.44314 1 5.16085V10.8396C1 11.5573 1.38457 12.22 2.00772 12.576L7.00772 15.4332C7.31516 15.6089 7.65758 15.6967 8 15.6967V14.6967C7.82879 14.6967 7.65758 14.6528 7.50386 14.5649L2.50386 11.7078C2.19229 11.5298 2 11.1984 2 10.8396V5.16085C2 4.802 2.19229 4.47065 2.50386 4.29261L7.50386 1.43547C7.81129 1.25979 8.18871 1.25979 8.49614 1.43547L13.4961 4.29261C13.8077 4.47065 14 4.802 14 5.16085V8.74006L15 9.36421V5.16085C15 4.44314 14.6154 3.78045 13.9923 3.42437L8.99228 0.567225C8.37741 0.215873 7.62259 0.215873 7.00772 0.567225L2.00772 3.42437Z" fill="#A571E6"/>
<path d="M8 10.573C6.73108 10.5037 5.82843 9.45268 5.82843 8C5.82843 6.49655 6.79528 5.42334 8.13437 5.42334C8.66064 5.42334 9.13018 5.57649 9.5 5.83287C9.70385 5.97419 9.87739 6.14688 10.0134 6.34256L10.7563 5.72474C10.6157 5.53967 10.4506 5.37133 10.2655 5.22274C9.70082 4.76947 8.94947 4.5 8.13437 4.5C6.21517 4.5 4.78906 5.99378 4.78906 8C4.78906 9.95911 6.14898 11.4296 8 11.4975V10.573Z" fill="#A571E6"/>
</svg>
