<svg width="16" height="16" viewBox="0 0 16 16" fill="none" xmlns="http://www.w3.org/2000/svg">
<rect x="2" y="14" width="12" height="1" rx="0.5" fill="#6C707E"/>
<path fill-rule="evenodd" clip-rule="evenodd" d="M12.3536 5.85329C12.5488 6.04856 12.5488 6.36514 12.3536 6.5604C12.1583 6.75566 11.8417 6.75566 11.6465 6.5604L8.50003 3.41395L8.50003 11.5068C8.50003 11.783 8.27617 12.0068 8.00003 12.0068C7.72389 12.0068 7.50003 11.783 7.50003 11.5068L7.50003 3.41395L4.35358 6.5604C4.15832 6.75566 3.84174 6.75566 3.64648 6.5604C3.45121 6.36514 3.45121 6.04856 3.64648 5.8533L7.64648 1.8533L8.00003 1.49974L8.35358 1.8533L12.3536 5.85329Z" fill="#6C707E"/>
</svg>
