<svg width="16" height="16" viewBox="0 0 16 16" fill="none" xmlns="http://www.w3.org/2000/svg">
<path fill-rule="evenodd" clip-rule="evenodd" d="M4.00006 3L12.0001 3C12.5523 3 13.0001 3.44772 13.0001 4L13.0001 6L3.00006 6L3.00006 4C3.00006 3.44772 3.44778 3 4.00006 3ZM2.00006 7L2.00006 12C2.00006 13.1046 2.89549 14 4.00006 14L12.0001 14C13.1046 14 14.0001 13.1046 14.0001 12L14.0001 4C14.0001 2.89543 13.1046 2 12.0001 2L4.00006 2C2.89549 2 2.00006 2.89543 2.00006 4L2.00006 6L2 6L2 7L2.00006 7ZM3.00006 7L13.0001 7L13.0001 12C13.0001 12.5523 12.5523 13 12.0001 13L4.00006 13C3.44778 13 3.00006 12.5523 3.00006 12L3.00006 7Z" fill="#6C707E"/>
<rect x="5" y="8.5" width="6" height="1" rx="0.5" fill="#6C707E"/>
<rect x="5" y="10.5" width="6" height="1" rx="0.5" fill="#6C707E"/>
</svg>
