<svg width="16" height="16" viewBox="0 0 16 16" fill="none" xmlns="http://www.w3.org/2000/svg">
<path fill-rule="evenodd" clip-rule="evenodd" d="M10.8537 4.6463C11.049 4.84156 11.049 5.15814 10.8538 5.35341C10.6585 5.54868 10.3419 5.54868 10.1467 5.35343L8.49993 3.70677L8.49993 10.5142C8.49993 10.7903 8.27607 11.0142 7.99993 11.0142C7.72378 11.0142 7.49993 10.7903 7.49993 10.5142L7.49993 3.70729L5.85363 5.35356C5.65837 5.54882 5.34179 5.54881 5.14653 5.35355C4.95127 5.15829 4.95127 4.8417 5.14653 4.64644L7.64662 2.1464C7.84188 1.95114 8.15845 1.95114 8.35372 2.14639L10.8537 4.6463Z" fill="#6C707E"/>
<rect width="12" height="1" rx="0.5" transform="matrix(1 0 0 -1 2 14)" fill="#6C707E"/>
<rect x="2" y="10" width="1" height="4" rx="0.5" fill="#6C707E"/>
<rect x="13" y="10" width="1" height="4" rx="0.5" fill="#6C707E"/>
</svg>
