<svg width="16" height="16" viewBox="0 0 16 16" fill="none" xmlns="http://www.w3.org/2000/svg">
<path fill-rule="evenodd" clip-rule="evenodd" d="M7 3L4.00006 3C3.44778 3 3.00006 3.44772 3.00006 4L3.00006 12C3.00006 12.5523 3.44778 13 4.00006 13L7 13L7 8L7 7L7 3ZM8 3L8 7L13.0001 7L13.0001 4C13.0001 3.44772 12.5523 3 12.0001 3L8 3ZM8 8L8 13L12.0001 13C12.5523 13 13.0001 12.5523 13.0001 12L13.0001 8L8 8ZM4.00006 2C2.89549 2 2.00006 2.89543 2.00006 4L2.00006 12C2.00006 13.1046 2.89549 14 4.00006 14L12.0001 14C13.1046 14 14.0001 13.1046 14.0001 12L14.0001 4C14.0001 2.89543 13.1046 2 12.0001 2L4.00006 2Z" fill="#6C707E"/>
</svg>
