<svg width="20" height="20" viewBox="0 0 20 20" fill="none" xmlns="http://www.w3.org/2000/svg">
<g clip-path="url(#clip0_8410_13198)">
<path d="M10.7974 17.1889C10.7264 17.3613 10.5656 17.4813 10.3794 17.4906C10.2537 17.4968 10.1272 17.5 10 17.5C5.85786 17.5 2.5 14.1421 2.5 10C2.5 5.85786 5.85786 2.5 10 2.5C14.1421 2.5 17.5 5.85786 17.5 10C17.5 12.0711 16.6605 13.9461 15.3033 15.3033L16.364 16.364C17.9926 14.7353 19 12.4853 19 10C19 5.02944 14.9706 1 10 1C5.02944 1 1 5.02944 1 10C1 14.9706 5.02944 19 10 19C10.124 19 10.2483 18.9978 10.3723 18.9921C11.0145 18.9656 11.5886 18.5613 11.8349 17.9636L12.191 17.0963L12.1899 17.0961L16.3192 7.0274H14.9665L13.2292 11.4376L11.4787 7.0274H10.0464L12.5017 13.0469L10.7974 17.1889Z" fill="#CED0D6"/>
<path d="M8.94762 9.2077C8.64449 8.53212 8.05339 8.14309 7.32589 8.14309C6.82005 8.14309 6.39378 8.31958 6.05466 8.66875C5.70796 9.0388 5.53934 9.47527 5.53934 10.0009C5.53934 10.5228 5.71174 10.9688 6.05466 11.3217C6.39188 11.6709 6.82005 11.8474 7.32589 11.8474C8.06855 11.8474 8.6748 11.4508 8.94762 10.7847L8.96846 10.7296L10.1904 11.1452L10.1658 11.2079C9.69217 12.3598 8.6047 13.0771 7.32589 13.0771C6.42599 13.0771 5.69469 12.7886 5.09034 12.1947C4.49166 11.6064 4.18664 10.8682 4.18664 10.0009C4.18664 9.12799 4.48977 8.38599 5.09034 7.79581C5.69469 7.20184 6.42599 6.91339 7.32589 6.91339C8.6047 6.91339 9.69406 7.62882 10.1658 8.78261L10.1904 8.84524L8.97035 9.26083L8.94762 9.2077Z" fill="#CED0D6"/>
</g>
<defs>
<clipPath id="clip0_8410_13198">
<rect width="20" height="20" fill="white"/>
</clipPath>
</defs>
</svg>
