<svg width="20" height="20" viewBox="0 0 20 20" fill="none" xmlns="http://www.w3.org/2000/svg">
<path fill-rule="evenodd" clip-rule="evenodd" d="M7.5 6.61047L6.73691 6H5.67705L4.83541 6.42083C4.73127 6.4729 4.61643 6.5 4.5 6.5H2C1.58579 6.5 1.25 6.16422 1.25 5.75V1.75C1.25 1.33579 1.58579 1 2 1H4.5C4.61643 1 4.73127 1.02711 4.83541 1.07918L5.67705 1.5H6.85556L7.97146 1.05365C8.06005 1.01821 8.15459 1 8.25 1L12.027 1C12.7795 0.999901 14.0603 0.999729 15.3501 1.68047C16.6843 2.38466 17.9188 3.75212 18.7152 6.27416C18.812 6.58059 18.7028 6.91462 18.4437 7.10471C18.1846 7.2948 17.8332 7.29871 17.5699 7.11443C16.3537 6.26307 15.555 5.87543 14.915 5.68876C14.3527 5.52476 13.8766 5.50319 13.2495 5.50041L11.75 6.625V8.73388C11.4488 8.58418 11.1092 8.5 10.75 8.5C10.5782 8.5 10.4108 8.51927 10.25 8.55575V7L9 7V9C9 9.11643 8.97289 9.23127 8.92082 9.33541L8.69868 9.77968C8.40362 10.3698 8.25 11.0205 8.25 11.6803V17.5H8.99899C9.22457 18.0409 9.52102 18.5448 9.87677 19H7.5C7.08579 19 6.75 18.6642 6.75 18.25V11.6803C6.75 10.7877 6.95783 9.90728 7.35704 9.10886L7.5 8.82295V6.61047ZM12 2.5C12.7514 2.5 13.7053 2.50851 14.6499 3.00704C15.2087 3.30194 15.8046 3.79202 16.3442 4.63544C15.9869 4.46789 15.6546 4.34198 15.335 4.24875C14.4818 3.9999 13.7648 3.99995 13.0318 4L13 4.00001C12.8377 4.00001 12.6798 4.05264 12.55 4.15001L10.75 5.5H8.51308L7.46852 4.66435C7.33554 4.55797 7.1703 4.50001 7 4.50001H5.5C5.38357 4.50001 5.26873 4.52711 5.16459 4.57918L4.32295 5H2.75V2.5H4.32295L5.16459 2.92083C5.26873 2.9729 5.38357 3.00001 5.5 3.00001H7C7.09541 3.00001 7.18995 2.9818 7.27854 2.94636L8.39444 2.5H12Z" fill="#CED0D6"/>
<path d="M11.5 10.75C11.5 10.3358 11.1642 10 10.75 10C10.3358 10 10 10.3358 10 10.75V13.25C10 13.6642 10.3358 14 10.75 14H13.25C13.6642 14 14 13.6642 14 13.25C14 12.8358 13.6642 12.5 13.25 12.5H12.5505C13.1824 11.8807 14.0469 11.5 15.0001 11.5C16.7192 11.5 18.1501 12.7401 18.4445 14.3746C18.518 14.7823 18.908 15.0532 19.3156 14.9798C19.7233 14.9064 19.9942 14.5164 19.9208 14.1087C19.5 11.7725 17.4578 10 15.0001 10C13.6369 10 12.4013 10.546 11.5 11.4295V10.75Z" fill="#CED0D6"/>
<path d="M11.5548 15.6205C11.482 15.2128 11.0924 14.9413 10.6846 15.0141C10.2769 15.087 10.0054 15.4766 10.0782 15.8843C10.4962 18.224 12.54 20 15.0001 20C16.3634 20 17.5986 19.4542 18.5 18.5707V19.25C18.5 19.6642 18.8358 20 19.25 20C19.6642 20 20 19.6642 20 19.25V16.75C20 16.3358 19.6642 16 19.25 16H16.75C16.3358 16 16 16.3358 16 16.75C16 17.1642 16.3358 17.5 16.75 17.5H17.4498C16.818 18.1192 15.9533 18.5 15.0001 18.5C13.2794 18.5 11.8473 17.2575 11.5548 15.6205Z" fill="#CED0D6"/>
</svg>
