<svg width="20" height="20" viewBox="0 0 20 20" fill="none" xmlns="http://www.w3.org/2000/svg">
<rect x="3" y="11" width="6" height="1.5" rx="0.75" fill="#CED0D6"/>
<path fill-rule="evenodd" clip-rule="evenodd" d="M15.0388 9.04036C15.2927 8.78652 15.7042 8.78652 15.9581 9.04036C16.2119 9.2942 16.2119 9.70575 15.9581 9.95959L14.8177 11.1H19.2484C19.6074 11.1 19.8984 11.391 19.8984 11.75C19.8984 12.109 19.6074 12.4 19.2484 12.4H14.8177L15.9581 13.5404C16.2119 13.7942 16.2119 14.2058 15.9581 14.4596C15.7042 14.7134 15.2927 14.7134 15.0388 14.4596L12.7888 12.2096L12.3292 11.75L12.7888 11.2904L15.0388 9.04036Z" fill="#CED0D6"/>
<path fill-rule="evenodd" clip-rule="evenodd" d="M11.1702 13.9904C10.9163 13.7366 10.5048 13.7366 10.2509 13.9904C9.99709 14.2443 9.99709 14.6558 10.2509 14.9097L11.3913 16.05H6.96055C6.60156 16.05 6.31055 16.3411 6.31055 16.7C6.31055 17.059 6.60156 17.35 6.96055 17.35H11.3913L10.2509 18.4904C9.99709 18.7443 9.99709 19.1558 10.2509 19.4097C10.5048 19.6635 10.9163 19.6635 11.1702 19.4097L13.4202 17.1597L13.8798 16.7L13.4202 16.2404L11.1702 13.9904Z" fill="#CED0D6"/>
<rect x="3" y="7" width="9" height="1.5" rx="0.75" fill="#CED0D6"/>
<rect x="3" y="3" width="14" height="1.5" rx="0.75" fill="#CED0D6"/>
</svg>
