<svg width="16" height="16" viewBox="0 0 16 16" fill="none" xmlns="http://www.w3.org/2000/svg">
<path d="M8.00033 14.9997C8.09673 14.9996 8.19314 14.9982 8.28955 14.9938C8.78907 14.9731 9.23555 14.6587 9.42711 14.1938L12.9149 5.68774H11.8628L10.5116 9.11793L9.15006 5.68774H8.03607L9.94577 10.3696L8.55475 13.7496L8.52531 13.8218C8.47816 13.9355 8.36912 13.9897 8.24829 13.9941L8.24409 13.9942C8.16275 13.9971 8.08273 13.9999 8 14C4.68629 14 2 11.3137 2 8C2 4.68629 4.68629 2 8 2C11.3137 2 14 4.68629 14 8C14 10.013 13.0087 11.7944 11.4877 12.8828L12.069 13.6966C13.8435 12.4268 15 10.3485 15 8C15 4.13401 11.866 1 8 1C4.13401 1 1 4.13401 1 8C1 11.866 4.13433 14.9997 8.00033 14.9997Z" fill="#6C707E"/>
<path d="M5.92012 6.55556C6.48596 6.55556 6.9457 6.85813 7.18146 7.38358L7.19915 7.42491L8.1481 7.10167L8.12894 7.05296C7.76203 6.15557 6.91475 5.59912 5.92012 5.59912C5.2202 5.59912 4.65141 5.82347 4.18136 6.28545C3.71425 6.74448 3.47849 7.32159 3.47849 8.00054C3.47849 8.67507 3.71572 9.24922 4.18136 9.70678C4.65141 10.1688 5.2202 10.3931 5.92012 10.3931C6.91475 10.3931 7.76056 9.83519 8.12894 8.93927L8.1481 8.89056L7.19767 8.56732L7.18146 8.61012C6.96928 9.12819 6.49775 9.43667 5.92012 9.43667C5.52669 9.43667 5.19367 9.29941 4.93138 9.02783C4.66468 8.75329 4.53059 8.40644 4.53059 8.00054C4.53059 7.5917 4.66173 7.25222 4.93138 6.9644C5.19515 6.69282 5.52669 6.55556 5.92012 6.55556Z" fill="#6C707E"/>
</svg>
