<svg width="20" height="20" viewBox="0 0 20 20" fill="none" xmlns="http://www.w3.org/2000/svg">
<path d="M8.34173 3.61011H11.0025V15.8051C9.63958 16.0629 8.63628 16.1643 7.55073 16.1643C4.30101 16.1609 2.60938 14.7091 2.60938 11.9208C2.60938 9.23424 4.40373 7.49067 7.18431 7.49067C7.6158 7.49067 7.94451 7.52463 8.34173 7.62636V3.61011ZM8.43497 9.82404C8.12334 9.72226 7.86655 9.68835 7.53779 9.68835C6.19205 9.68835 5.41473 10.5092 5.41473 11.9478C5.41473 13.3484 6.15784 14.1218 7.52071 14.1218C7.81516 14.1218 8.05487 14.1052 8.43497 14.0543V9.82404Z" fill="#6C707E"/>
<path d="M15.6617 7.81808V13.9239C15.6617 16.0267 15.5041 17.0379 15.0418 17.9097C14.6104 18.7478 14.0419 19.2764 12.8674 19.8601L10.3984 18.6966C11.573 18.1508 12.1414 17.6685 12.5044 16.9324C12.8845 16.1797 13.0043 15.3079 13.0043 13.0148V7.81813L15.6617 7.81808ZM13.0043 3.61011H15.6651V6.31363H13.0043V3.61011Z" fill="#6C707E"/>
</svg>
