<svg width="16" height="16" viewBox="0 0 16 16" fill="none" xmlns="http://www.w3.org/2000/svg">
<path fill-rule="evenodd" clip-rule="evenodd" d="M8.00003 0.999966C11.866 0.999966 15 4.13399 15 8C15 11.866 11.866 15 8.00003 15C4.13403 15 1 11.866 1 8C1 4.13399 4.13403 0.999966 8.00003 0.999966Z" fill="#4682FA"/>
<path d="M6.60891 10.3317C6.71075 10.7084 6.69958 11.0597 6.59439 11.3779C6.5827 11.4132 6.56982 11.4482 6.55585 11.4827C6.54188 11.5172 6.52675 11.5513 6.51053 11.585C6.4294 11.7533 6.32054 11.9109 6.18721 12.0563C5.7805 12.5 5.21225 12.6678 4.96858 12.5264C4.70546 12.3739 4.83726 11.7483 5.30881 11.2499C5.81611 10.7136 6.54601 10.3688 6.54601 10.3688L6.54488 10.3666C6.56591 10.3553 6.58727 10.3436 6.60891 10.3317ZM12.3909 3.99605C12.0739 2.75283 10.0125 2.34414 8.06152 3.03728C6.90044 3.44974 5.64349 4.09715 4.73971 4.94253C3.66512 5.94764 3.49375 6.82246 3.56439 7.18801C3.81353 8.47785 5.58086 9.32094 6.30739 9.94647V9.95025C6.09316 10.0557 4.52518 10.8492 4.15824 11.6605C3.77106 12.5163 4.21986 13.1304 4.517 13.2131C5.43765 13.4693 6.38238 13.0085 6.89009 12.2512C7.38004 11.5204 7.33925 10.5767 7.12632 10.1073C7.42004 10.0298 7.76245 9.99506 8.19761 10.0459C9.42553 10.1893 9.66647 10.956 9.6204 11.2769C9.57437 11.5978 9.3168 11.7742 9.2307 11.8275C9.14456 11.8808 9.11829 11.8992 9.12555 11.9388C9.13597 11.9964 9.17584 11.9942 9.24927 11.9818C9.35033 11.9647 9.89405 11.7208 9.91729 11.1285C9.9469 10.3765 9.22623 9.53523 7.9502 9.55721C7.42467 9.56627 7.09422 9.61626 6.85553 9.70509C6.83788 9.68499 6.81993 9.66498 6.80136 9.64519C6.01247 8.80352 4.55414 8.20815 4.61598 7.07665C4.63847 6.66531 4.78145 5.58213 7.4182 4.26824C9.57815 3.19197 11.3073 3.48814 11.6061 4.14455C12.0329 5.0823 10.682 6.82525 8.43885 7.07665C7.58424 7.17247 7.13426 6.84123 7.02233 6.71789C6.90446 6.58803 6.88692 6.58217 6.84293 6.60653C6.77124 6.64623 6.81666 6.76089 6.84293 6.82924C6.90988 7.00353 7.18472 7.31261 7.65328 7.46636C8.06543 7.60163 9.06885 7.67595 10.2823 7.20658C11.6414 6.68085 12.7026 5.21846 12.3909 3.99605Z" fill="white"/>
</svg>
