<svg width="14" height="14" viewBox="0 0 14 14" fill="none" xmlns="http://www.w3.org/2000/svg">
<circle cx="7" cy="7" r="6.5" fill="#402929" stroke="#CED0D6"/>
<path d="M9.0657 4.24573C8.25361 4.24573 7.636 4.6473 7.29593 5.31537C7.00368 4.64257 6.40552 4.24573 5.6071 4.24573C4.84915 4.24573 4.28147 4.60946 3.96189 5.24862V4.37188H3V9.75427H3.99869V6.59001C3.99869 5.68068 4.5138 5.10775 5.32852 5.10775C6.0749 5.10775 6.50591 5.61761 6.50591 6.43758V9.75427H7.49409V6.59001C7.49409 5.68068 8.01971 5.10775 8.82392 5.10775C9.57556 5.10775 10.0013 5.61761 10.0013 6.43758V9.75427H11V6.35874C11 5.07096 10.2168 4.24573 9.0657 4.24573Z" fill="#DB5C5C"/>
</svg>
