<svg width="16" height="16" viewBox="0 0 16 16" fill="none" xmlns="http://www.w3.org/2000/svg">
<circle cx="8" cy="8" r="7" fill="#FFF7F7"/>
<mask id="path-2-inside-1_2417_33959" fill="white">
<path fill-rule="evenodd" clip-rule="evenodd" d="M14.9134 6.90481L13.9256 7.06045C13.7351 5.85124 13.1747 4.69027 12.2417 3.75736C11.3088 2.82445 10.1479 2.26404 8.93866 2.07352L9.09429 1.0857C10.5054 1.30802 11.8615 1.96287 12.9489 3.05025C14.0362 4.13763 14.6911 5.49375 14.9134 6.90481ZM6.90392 1.0857L7.05955 2.07352C5.85035 2.26404 4.68937 2.82445 3.75646 3.75736C2.82356 4.69027 2.26314 5.85124 2.07262 7.06045L1.08481 6.90481C1.30713 5.49375 1.96198 4.13763 3.04936 3.05025C4.13674 1.96287 5.49285 1.30802 6.90392 1.0857ZM1.08481 9.09519C1.30713 10.5063 1.96198 11.8624 3.04936 12.9497C4.13674 14.0371 5.49285 14.692 6.90392 14.9143L7.05955 13.9265C5.85035 13.736 4.68937 13.1755 3.75646 12.2426C2.82356 11.3097 2.26314 10.1488 2.07262 8.93955L1.08481 9.09519ZM9.09429 14.9143L8.93866 13.9265C10.1479 13.736 11.3088 13.1755 12.2417 12.2426C13.1747 11.3097 13.7351 10.1488 13.9256 8.93955L14.9134 9.09519C14.6911 10.5063 14.0362 11.8624 12.9489 12.9497C11.8615 14.0371 10.5054 14.692 9.09429 14.9143Z"/>
</mask>
<path fill-rule="evenodd" clip-rule="evenodd" d="M14.9134 6.90481L13.9256 7.06045C13.7351 5.85124 13.1747 4.69027 12.2417 3.75736C11.3088 2.82445 10.1479 2.26404 8.93866 2.07352L9.09429 1.0857C10.5054 1.30802 11.8615 1.96287 12.9489 3.05025C14.0362 4.13763 14.6911 5.49375 14.9134 6.90481ZM6.90392 1.0857L7.05955 2.07352C5.85035 2.26404 4.68937 2.82445 3.75646 3.75736C2.82356 4.69027 2.26314 5.85124 2.07262 7.06045L1.08481 6.90481C1.30713 5.49375 1.96198 4.13763 3.04936 3.05025C4.13674 1.96287 5.49285 1.30802 6.90392 1.0857ZM1.08481 9.09519C1.30713 10.5063 1.96198 11.8624 3.04936 12.9497C4.13674 14.0371 5.49285 14.692 6.90392 14.9143L7.05955 13.9265C5.85035 13.736 4.68937 13.1755 3.75646 12.2426C2.82356 11.3097 2.26314 10.1488 2.07262 8.93955L1.08481 9.09519ZM9.09429 14.9143L8.93866 13.9265C10.1479 13.736 11.3088 13.1755 12.2417 12.2426C13.1747 11.3097 13.7351 10.1488 13.9256 8.93955L14.9134 9.09519C14.6911 10.5063 14.0362 11.8624 12.9489 12.9497C11.8615 14.0371 10.5054 14.692 9.09429 14.9143Z" fill="#FFF7F7"/>
<path d="M14.9134 6.90481L15.069 7.89263L16.0568 7.73699L15.9012 6.74918L14.9134 6.90481ZM13.9256 7.06045L12.9378 7.21608L13.0934 8.2039L14.0812 8.04826L13.9256 7.06045ZM8.93866 2.07352L7.95084 1.91788L7.79521 2.9057L8.78302 3.06133L8.93866 2.07352ZM9.09429 1.0857L9.24993 0.0978899L8.26211 -0.0577454L8.10648 0.930069L9.09429 1.0857ZM6.90392 1.0857L7.89173 0.930069L7.73609 -0.0577448L6.74828 0.0978901L6.90392 1.0857ZM7.05955 2.07352L7.21519 3.06133L8.203 2.9057L8.04737 1.91788L7.05955 2.07352ZM2.07262 7.06045L1.91699 8.04826L2.9048 8.2039L3.06044 7.21608L2.07262 7.06045ZM1.08481 6.90481L0.0969943 6.74918L-0.058641 7.73699L0.929173 7.89263L1.08481 6.90481ZM1.08481 9.09519L0.929173 8.10737L-0.0586409 8.26301L0.0969942 9.25082L1.08481 9.09519ZM6.90392 14.9143L6.74828 15.9021L7.7361 16.0577L7.89173 15.0699L6.90392 14.9143ZM7.05955 13.9265L8.04737 14.0821L8.203 13.0943L7.21519 12.9387L7.05955 13.9265ZM2.07262 8.93955L3.06044 8.78392L2.9048 7.7961L1.91699 7.95174L2.07262 8.93955ZM9.09429 14.9143L8.10648 15.0699L8.26211 16.0577L9.24993 15.9021L9.09429 14.9143ZM8.93866 13.9265L8.78302 12.9387L7.79521 13.0943L7.95084 14.0821L8.93866 13.9265ZM13.9256 8.93955L14.0812 7.95174L13.0934 7.7961L12.9378 8.78392L13.9256 8.93955ZM14.9134 9.09519L15.9012 9.25082L16.0568 8.26301L15.069 8.10737L14.9134 9.09519ZM11.5346 4.46447C12.3131 5.24294 12.7791 6.20878 12.9378 7.21608L14.9134 6.90481C14.6911 5.4937 14.0362 4.1376 12.9489 3.05025L11.5346 4.46447ZM8.78302 3.06133C9.79032 3.22004 10.7562 3.686 11.5346 4.46447L12.9489 3.05025C11.8615 1.96291 10.5054 1.30803 9.09429 1.0857L8.78302 3.06133ZM8.93866 2.07352C10.1479 2.26404 11.3088 2.82445 12.2417 3.75736L13.656 2.34315C12.4141 1.1013 10.8628 0.352014 9.24993 0.0978899L8.93866 2.07352ZM12.2417 3.75736C13.1747 4.69027 13.7351 5.85124 13.9256 7.06045L15.9012 6.74918C15.6471 5.13626 14.8978 3.585 13.656 2.34315L12.2417 3.75736ZM4.46357 4.46447C5.24204 3.686 6.20788 3.22004 7.21519 3.06133L6.90392 1.0857C5.49281 1.30803 4.1367 1.96291 3.04936 3.05025L4.46357 4.46447ZM3.06044 7.21608C3.21914 6.20878 3.6851 5.24293 4.46357 4.46447L3.04936 3.05025C1.96201 4.1376 1.30714 5.4937 1.08481 6.90481L3.06044 7.21608ZM2.07262 7.06045C2.26314 5.85124 2.82356 4.69027 3.75646 3.75736L2.34225 2.34315C1.1004 3.585 0.351118 5.13626 0.0969943 6.74918L2.07262 7.06045ZM3.75646 3.75736C4.68937 2.82445 5.85035 2.26404 7.05955 2.07352L6.74828 0.0978901C5.13536 0.352014 3.5841 1.1013 2.34225 2.34315L3.75646 3.75736ZM3.75646 12.2426C2.82356 11.3097 2.26314 10.1488 2.07262 8.93955L0.0969942 9.25082C0.351118 10.8637 1.1004 12.415 2.34225 13.6569L3.75646 12.2426ZM7.05955 13.9265C5.85035 13.736 4.68937 13.1755 3.75646 12.2426L2.34225 13.6569C3.5841 14.8987 5.13536 15.648 6.74828 15.9021L7.05955 13.9265ZM7.21519 12.9387C6.20788 12.78 5.24204 12.314 4.46357 11.5355L3.04936 12.9497C4.1367 14.0371 5.49281 14.692 6.90392 14.9143L7.21519 12.9387ZM4.46357 11.5355C3.6851 10.7571 3.21914 9.79122 3.06044 8.78392L1.08481 9.09519C1.30714 10.5063 1.96201 11.8624 3.04936 12.9497L4.46357 11.5355ZM11.5346 11.5355C10.7562 12.314 9.79032 12.78 8.78302 12.9387L9.09429 14.9143C10.5054 14.692 11.8615 14.0371 12.9489 12.9497L11.5346 11.5355ZM12.9378 8.78392C12.7791 9.79122 12.3131 10.7571 11.5346 11.5355L12.9489 12.9497C14.0362 11.8624 14.6911 10.5063 14.9134 9.09519L12.9378 8.78392ZM13.9256 8.93955C13.7351 10.1488 13.1747 11.3097 12.2417 12.2426L13.656 13.6569C14.8978 12.415 15.6471 10.8637 15.9012 9.25082L13.9256 8.93955ZM12.2417 12.2426C11.3088 13.1755 10.1479 13.736 8.93866 13.9265L9.24993 15.9021C10.8628 15.648 12.4141 14.8987 13.656 13.6569L12.2417 12.2426ZM14.0812 8.04826L15.069 7.89263L14.7578 5.917L13.77 6.07263L14.0812 8.04826ZM8.10648 0.930069L7.95084 1.91788L9.92647 2.22915L10.0821 1.24134L8.10648 0.930069ZM8.04737 1.91788L7.89173 0.930069L5.9161 1.24134L6.07174 2.22915L8.04737 1.91788ZM0.929173 7.89263L1.91699 8.04826L2.22826 6.07263L1.24044 5.917L0.929173 7.89263ZM7.89173 15.0699L8.04737 14.0821L6.07174 13.7708L5.9161 14.7587L7.89173 15.0699ZM1.91699 7.95174L0.929173 8.10737L1.24044 10.083L2.22826 9.92737L1.91699 7.95174ZM7.95084 14.0821L8.10648 15.0699L10.0821 14.7587L9.92647 13.7708L7.95084 14.0821ZM15.069 8.10737L14.0812 7.95174L13.7699 9.92737L14.7578 10.083L15.069 8.10737Z" fill="#DB3B4B" mask="url(#path-2-inside-1_2417_33959)"/>
<path d="M5.63644 4H6.45787C7.43406 4 7.92215 4.57738 8.23168 5.3631L10.8448 12H9.71533L8.05908 7.53125L6.27334 12H5.1543L7.55311 6.20833L7.18406 5.44048C7.04715 5.14286 6.77334 4.91667 6.41025 4.91667H5.63644V4Z" fill="#DB3B4B"/>
<path fill-rule="evenodd" clip-rule="evenodd" d="M14.9134 6.90481L13.9256 7.06045C13.7351 5.85124 13.1747 4.69027 12.2417 3.75736C11.3088 2.82445 10.1479 2.26404 8.93866 2.07352L9.09429 1.0857C10.5054 1.30802 11.8615 1.96287 12.9489 3.05025C14.0362 4.13763 14.6911 5.49375 14.9134 6.90481ZM6.90392 1.0857L7.05955 2.07352C5.85035 2.26404 4.68937 2.82445 3.75646 3.75736C2.82356 4.69027 2.26314 5.85124 2.07262 7.06045L1.08481 6.90481C1.30713 5.49375 1.96198 4.13763 3.04936 3.05025C4.13674 1.96287 5.49285 1.30802 6.90392 1.0857ZM1.08481 9.09519C1.30713 10.5063 1.96198 11.8624 3.04936 12.9497C4.13674 14.0371 5.49285 14.692 6.90392 14.9143L7.05955 13.9265C5.85035 13.736 4.68937 13.1755 3.75646 12.2426C2.82356 11.3097 2.26314 10.1488 2.07262 8.93955L1.08481 9.09519ZM9.09429 14.9143L8.93866 13.9265C10.1479 13.736 11.3088 13.1755 12.2417 12.2426C13.1747 11.3097 13.7351 10.1488 13.9256 8.93955L14.9134 9.09519C14.6911 10.5063 14.0362 11.8624 12.9489 12.9497C11.8615 14.0371 10.5054 14.692 9.09429 14.9143Z" fill="#DB3B4B"/>
</svg>
