<svg width="16" height="16" viewBox="0 0 16 16" fill="none" xmlns="http://www.w3.org/2000/svg">
<path d="M7 14.9285V1.07031C3.60771 1.55554 1 4.47295 1 7.99942C1 11.5259 3.60771 14.4433 7 14.9285Z" fill="#FFFAEB"/>
<path d="M9 14.9285C12.3923 14.4433 15 11.5259 15 7.99942C15 4.47295 12.3923 1.55554 9 1.07031V14.9285Z" fill="#FFF7F7"/>
<path d="M7 2.08238C4.16229 2.55846 2 5.02643 2 7.99942C2 10.9724 4.16229 13.4404 7 13.9165V14.9285C3.60771 14.4433 1 11.5259 1 7.99942C1 4.47295 3.60771 1.55554 7 1.07031V2.08238Z" fill="#C27D04"/>
<path d="M9 14.9285C12.3923 14.4433 15 11.5259 15 7.99942C15 4.47295 12.3923 1.55554 9 1.07031V2.08238C11.8377 2.55846 14 5.02643 14 7.99942C14 10.9724 11.8377 13.4404 9 13.9165V14.9285Z" fill="#DB3B4B"/>
<path d="M7.47034 4.98047H8.53244L10.7985 11.0005H9.79664L9.26774 9.51697H6.79094L6.30074 11.0005H5.27734L7.47034 4.98047ZM8.99254 8.73007L8.08954 6.22317L7.99494 5.84907L7.90034 6.22317L7.04464 8.73007H8.99254Z" fill="#6C707E"/>
</svg>
