<svg width="16" height="16" viewBox="0 0 16 16" fill="none" xmlns="http://www.w3.org/2000/svg">
<path d="M14.9321 8.97896C14.9769 8.65906 15 8.33223 15 8C15 4.13401 11.866 1 8 1C4.13401 1 1 4.13401 1 8C1 10.3787 2.18652 12.4804 4 13.7453C4.02859 13.7653 4.05733 13.785 4.08623 13.8045C4.49566 14.0811 4.93593 14.3155 5.4008 14.5016L7.03013 9H14.9291C14.9301 8.99299 14.9311 8.98598 14.9321 8.97896Z" fill="#F2FCF3"/>
<path d="M13.917 9C13.9716 8.67479 14 8.34071 14 8C14 4.68629 11.3137 2 8 2C4.68629 2 2 4.68629 2 8C2 10.4936 3.52122 12.632 5.68628 13.5376L5.4008 14.5016C5.35876 14.4847 5.31692 14.4675 5.27528 14.4499C4.82406 14.2591 4.397 14.0222 4 13.7453C2.18652 12.4804 1 10.3787 1 8C1 4.13401 4.13401 1 8 1C11.866 1 15 4.13401 15 8C15 8.33952 14.9758 8.6734 14.9291 9H13.917Z" fill="#208A3C"/>
<path fill-rule="evenodd" clip-rule="evenodd" d="M9.224 10H7.77694L6 16H7.04293L7.48717 14.5H9.50029V14.4656L9.95349 16H10.9962L9.224 10ZM9.21507 13.5L8.50016 11.0796L7.78332 13.5H9.21507Z" fill="#DB3B4B"/>
<path d="M12.0005 11.75C12.0005 10.7835 12.784 10 13.7505 10H14.5005C15.3289 10 16.0005 10.6716 16.0005 11.5H15.0005C15.0005 11.2239 14.7766 11 14.5005 11H13.7505C13.3363 11 13.0005 11.3358 13.0005 11.75C13.0005 12.1642 13.3363 12.5 13.7505 12.5H14.2505C15.217 12.5 16.0005 13.2835 16.0005 14.25C16.0005 15.2165 15.217 16 14.2505 16H13.5005C12.6721 16 12.0005 15.3284 12.0005 14.5H13.0005C13.0005 14.7761 13.2243 15 13.5005 15H14.2505C14.6647 15 15.0005 14.6642 15.0005 14.25C15.0005 13.8358 14.6647 13.5 14.2505 13.5H13.7505C12.784 13.5 12.0005 12.7165 12.0005 11.75Z" fill="#DB3B4B"/>
<path d="M7.47034 4.98047H8.53244L10.0455 9H9.08695L8.99254 8.73007L8.08954 6.22317L7.99494 5.84907L7.90034 6.22317L7.04464 8.73007L6.79094 9.51697L6.30074 11.0005H5.27734L7.47034 4.98047Z" fill="#208A3C"/>
</svg>
