<svg width="16" height="16" viewBox="0 0 16 16" fill="none" xmlns="http://www.w3.org/2000/svg">
<path d="M11.9644 11C11.7218 12.6961 10.2631 14 8.49988 14L7.49988 14C5.73665 14 4.27794 12.6961 4.03532 11H3.02734C3.27607 13.25 5.1836 15 7.49988 15L8.49988 15C10.8162 15 12.7237 13.25 12.9724 11H11.9644Z" fill="#548AF7"/>
<path d="M4.03532 5C4.27794 3.30385 5.73665 2 7.49988 2L8.49989 2C10.2631 2 11.7218 3.30385 11.9644 5H12.9724C12.7237 2.75003 10.8162 1 8.49989 1H7.49988C5.18361 1 3.27607 2.75002 3.02734 5H4.03532Z" fill="#548AF7"/>
<path fill-rule="evenodd" clip-rule="evenodd" d="M8.6875 10.3904L3.6875 6.39043L4.3122 5.60956L9.31219 9.60956L8.6875 10.3904ZM11.6875 10.3904L6.6875 6.39043L7.31219 5.60956L12.3122 9.60956L11.6875 10.3904Z" fill="#57965C"/>
</svg>
