<svg width="16" height="16" viewBox="0 0 16 16" fill="none" xmlns="http://www.w3.org/2000/svg">
<path fill-rule="evenodd" clip-rule="evenodd" d="M14.4122 8.29491C14.0217 7.90438 13.3885 7.90438 12.998 8.29491L11.6466 9.64627L8 13.2929V16H10.7071L15.7051 11.002C16.0956 10.6115 16.0956 9.97832 15.7051 9.5878L14.4122 8.29491ZM14 11.2929L14.998 10.2949L13.7051 9.00201L12.7071 9.99999L14 11.2929ZM12 10.7071L13.2929 12L10.2929 15H9V13.7071L12 10.7071Z" fill="#3574F0"/>
<path d="M3 13V5.41421C3 5.149 3.10536 4.89464 3.29289 4.70711L6.70711 1.29289C6.89464 1.10536 7.149 1 7.41421 1H11C12.1046 1 13 1.89543 13 3V7.12991C12.7414 7.22712 12.4989 7.37976 12.2909 7.58781L7 12.8787V15H5C3.89543 15 3 14.1046 3 13Z" fill="#EBECF0"/>
<path fill-rule="evenodd" clip-rule="evenodd" d="M3 13V5.41421C3 5.149 3.10536 4.89464 3.29289 4.70711L6.70711 1.29289C6.89464 1.10536 7.149 1 7.41421 1H11C12.1046 1 13 1.89543 13 3V7.12991C12.7414 7.22712 12.4989 7.37976 12.2909 7.58781L12 7.87868V3C12 2.44772 11.5523 2 11 2L8 2V4C8 5.10457 7.10457 6 6 6H4L4 13C4 13.5523 4.44772 14 5 14H7V15H5C3.89543 15 3 14.1046 3 13ZM4.41421 5L7 2.41421V4C7 4.55228 6.55228 5 6 5H4.41421Z" fill="#6C707E"/>
</svg>
