<svg width="16" height="16" viewBox="0 0 16 16" fill="none" xmlns="http://www.w3.org/2000/svg">
<path d="M12.9497 3.05025C13.7104 3.81086 14.2593 4.70295 14.5967 5.65336L7.91938 14H8V15C6.20854 15 4.41709 14.3166 3.05025 12.9497C0.316582 10.2161 0.316582 5.78392 3.05025 3.05025C5.78392 0.316582 10.2161 0.316582 12.9497 3.05025Z" fill="#FFF7F7"/>
<path d="M10 13L14 8L13.5 11H16L12 16L12.5 13H10Z" fill="#6C707E"/>
<path d="M11.0013 10.1476V7.43758C11.0013 6.61761 10.5756 6.10775 9.82392 6.10775C9.01971 6.10775 8.49409 6.68068 8.49409 7.59001V10.7543H7.50591V7.43758C7.50591 6.61761 7.0749 6.10775 6.32852 6.10775C5.5138 6.10775 4.99869 6.68068 4.99869 7.59001V10.7543H4V5.37188H4.96189V6.24862C5.28147 5.60946 5.84915 5.24573 6.6071 5.24573C7.40552 5.24573 8.00368 5.64257 8.29593 6.31537C8.636 5.6473 9.25361 5.24573 10.0657 5.24573C11.2168 5.24573 12 6.07096 12 7.35874V8.89921L11.0013 10.1476Z" fill="#DB3B4B"/>
<path d="M1.07031 9C1.55554 12.3923 4.47295 15 7.99942 15V14L7.99105 14L7.91921 13.9995C4.98213 13.961 2.55417 11.8122 2.08238 9H1.07031Z" fill="#6C707E"/>
<path d="M14.5963 5.65311L13.836 6.60344C13.2066 3.96328 10.8323 2 7.99942 2C5.02643 2 2.55846 4.16229 2.08238 7H1.07031C1.55554 3.60771 4.47295 1 7.99942 1C11.0422 1 13.6315 2.94141 14.5963 5.65311Z" fill="#DB3B4B"/>
</svg>
