<svg width="16" height="16" viewBox="0 0 16 16" fill="none" xmlns="http://www.w3.org/2000/svg">
<path d="M14.9431 7.10678C14.7534 5.62354 14.0889 4.18942 12.9497 3.05025C10.2161 0.316582 5.78392 0.316582 3.05025 3.05025C0.316582 5.78392 0.316582 10.2161 3.05025 12.9497C4.62849 14.528 6.77284 15.1951 8.82964 14.951L7.43934 13.5607C6.85356 12.9749 6.85356 12.0251 7.43934 11.4393L10.4393 8.43934C11.0251 7.85355 11.9749 7.85355 12.5607 8.43934C13.1465 9.02513 13.1465 9.97487 12.5607 10.5607L12.1213 11H14V8.5C14 7.86835 14.3904 7.3279 14.9431 7.10678Z" fill="#FFF7F7"/>
<path d="M16 8.5C16 8.22386 15.7761 8 15.5 8C15.2239 8 15 8.22386 15 8.5V11C15 11.5523 14.5523 12 14 12H9.70711L11.8536 9.85355C12.0488 9.65829 12.0488 9.34171 11.8536 9.14645C11.6583 8.95118 11.3417 8.95118 11.1464 9.14645L8.14645 12.1464C7.95118 12.3417 7.95118 12.6583 8.14645 12.8536L11.1464 15.8536C11.3417 16.0488 11.6583 16.0488 11.8536 15.8536C12.0488 15.6583 12.0488 15.3417 11.8536 15.1464L9.70711 13H14C15.1046 13 16 12.1046 16 11V8.5Z" fill="#6C707E"/>
<path d="M8.29593 6.31537C8.636 5.6473 9.25361 5.24573 10.0657 5.24573C11.2168 5.24573 12 6.07096 12 7.35874V8.08542C11.6775 7.97168 11.3239 7.97153 11.0013 8.08495V7.43758C11.0013 6.61761 10.5756 6.10775 9.82392 6.10775C9.01971 6.10775 8.49409 6.68068 8.49409 7.59001V10.3846L8.12441 10.7543H7.50591V7.43758C7.50591 6.61761 7.0749 6.10775 6.32852 6.10775C5.5138 6.10775 4.99869 6.68068 4.99869 7.59001V10.7543H4V5.37188H4.96189V6.24862C5.28147 5.60946 5.84915 5.24573 6.6071 5.24573C7.40552 5.24573 8.00368 5.64257 8.29593 6.31537Z" fill="#DB3B4B"/>
<path d="M1.07031 9C1.55554 12.3923 4.47295 15 7.99942 15C8.28026 15 8.55722 14.9835 8.82941 14.9513L7.87688 13.9988C4.95882 13.9403 2.5519 11.7986 2.08238 9H1.07031Z" fill="#6C707E"/>
<path d="M13.9994 8H14.0848C14.2287 7.5928 14.5435 7.2663 14.943 7.10662C14.5042 3.6625 11.5628 1 7.99942 1C4.47295 1 1.55554 3.60771 1.07031 7H2.08238C2.55846 4.16229 5.02643 2 7.99942 2C11.3131 2 13.9994 4.68629 13.9994 8Z" fill="#DB3B4B"/>
</svg>
