<svg width="28" height="28" viewBox="0 0 28 28" fill="none" xmlns="http://www.w3.org/2000/svg">
<path d="M16.4839 24C9.25806 24 4 20.4516 4 15.5484C4 11.871 7.35484 9.09677 11.8387 9.09677C15.4839 9.09677 18 10.6129 18 12.4516C18 14.129 16.3548 14.7742 14.0323 14L14.5484 12.4516C10.9355 11.1935 8 12.6452 8 15.4839C8 18.6452 11.4516 20.7742 16.2581 20.7742C21.9032 20.7742 26 17.2903 26 12.4516C26 6.41935 19.9032 2 11.5161 2C8.74194 2 5.51613 2.70968 2.93548 4.12903L3.87097 5.80645C6.03226 4.58065 9 4 11.5161 4C18.7419 4 24 7.54839 24 12.4516C24 16.1935 20.4839 18.9032 16.1613 18.9032C12.5161 18.9032 10 17.3871 10 15.4839C10 13.9032 11.6452 13.2903 13.9677 14L13.4516 15.5161C17.0645 16.871 20 15.3548 20 12.4516C20 9.35484 16.5484 7.22581 11.7419 7.22581C6.09677 7.22581 2 10.7097 2 15.5484C2 21.5806 8.09677 26 16.4839 26C19.2903 26 22.4839 25.2903 25.129 23.871L24.1935 22.1613C22.0323 23.4194 19.0645 24 16.4839 24Z" fill="url(#paint0_linear_12746_18227)"/>
<defs>
<linearGradient id="paint0_linear_12746_18227" x1="4.37313" y1="6.31811" x2="37.3034" y2="31.874" gradientUnits="userSpaceOnUse">
<stop stop-color="#955AE0"/>
<stop offset="1" stop-color="#4D67F0"/>
</linearGradient>
</defs>
</svg>
