<svg width="16" height="16" viewBox="0 0 16 16" fill="none" xmlns="http://www.w3.org/2000/svg">
<path fill-rule="evenodd" clip-rule="evenodd" d="M13.6464 1.64645C13.8417 1.45118 14.1583 1.45118 14.3536 1.64645C14.5488 1.84171 14.5488 2.15829 14.3536 2.35355L2.35355 14.3536C2.15829 14.5488 1.84171 14.5488 1.64645 14.3536C1.45118 14.1583 1.45118 13.8417 1.64645 13.6464L3.35883 11.9341C2.49437 11.0727 2 9.98882 2 8.77419C2 6.35484 4.04839 4.6129 6.87097 4.6129C8.11219 4.6129 9.17272 4.89687 9.90809 5.3848L11.153 4.13991C10.0497 3.42245 8.52102 3 6.75806 3C5.87097 3 4.67742 3.20968 3.90323 3.54839C3.35484 3.77419 3 3.54839 3 3.19355C3 2.91935 3.19355 2.72581 3.58065 2.56452C4.35484 2.22581 5.67742 2 6.75806 2C8.81056 2 10.5887 2.52933 11.8694 3.42347L13.6464 1.64645ZM9.2111 6.0818C8.66606 5.75437 7.8694 5.54839 6.91935 5.54839C4.67742 5.54839 3 6.93548 3 8.77419C3 9.71247 3.38508 10.5515 4.06302 11.2299L5.37207 9.92082C5.13136 9.57482 5 9.17802 5 8.74194C5 7.36364 6.38405 6.63935 8.11829 7.1746L9.2111 6.0818ZM7.41809 7.87481C6.56435 7.76466 6 8.08731 6 8.74194C6 8.89861 6.0341 9.05003 6.09921 9.19369L7.41809 7.87481Z" fill="#CED0D6"/>
<path d="M9.24194 14C7.61278 14 6.15646 13.6665 4.98456 13.0818L5.73325 12.3331C6.71466 12.7594 7.9116 13 9.24194 13C10.129 13 11.3226 12.7903 12.0968 12.4516C12.6452 12.2258 13 12.4516 13 12.8065C13 13.0806 12.8065 13.2742 12.4194 13.4355C11.6452 13.7742 10.3226 14 9.24194 14Z" fill="#CED0D6"/>
<path d="M7.00771 11.0586L7.76385 10.3025C8.15457 10.3984 8.59779 10.4516 9.08065 10.4516C11.2419 10.4516 13 9.09677 13 7.22581C13 6.61349 12.836 6.04343 12.5336 5.53271L13.2571 4.80922C13.7362 5.52116 14 6.33859 14 7.22581C14 9.64516 11.9516 11.3871 9.12903 11.3871C8.33548 11.3871 7.61579 11.271 7.00771 11.0586Z" fill="#CED0D6"/>
<path d="M10.9942 7.0721C10.9981 7.12278 11 7.17402 11 7.22581C11 8.29631 10.2018 8.98963 9.05814 9.00821L10.9942 7.0721Z" fill="#CED0D6"/>
</svg>
