<svg width="16" height="16" viewBox="0 0 16 16" fill="none" xmlns="http://www.w3.org/2000/svg">
<path fill-rule="evenodd" clip-rule="evenodd" d="M13 7V9H12.5C11.1193 9 10 10.1193 10 11.5C10 12.8807 11.1193 14 12.5 14L14 14V7H13ZM12.5 13C11.6716 13 11 12.3284 11 11.5C11 10.6716 11.6716 10 12.5 10H13V13L12.5 13Z" fill="#3574F0"/>
<path d="M15 7H16V8H15V7Z" fill="#3574F0"/>
<path d="M15 9H16V14C16 15.1046 15.1046 16 14 16V15C14.5523 15 15 14.5523 15 14V9Z" fill="#3574F0"/>
<path d="M3 2C1.89543 2 1 2.89543 1 4V12C1 13.1046 1.89543 14 3 14H10.0505C9.40223 13.3647 9 12.4793 9 11.5C9 9.73676 10.3039 8.27806 12 8.03544V6H15V4C15 2.89543 14.1046 2 13 2H3Z" fill="#EBECF0"/>
<path d="M3 2C1.89543 2 1 2.89543 1 4V12C1 13.1046 1.89543 14 3 14H10.0505C9.75757 13.7129 9.51486 13.3748 9.33682 13H3C2.44772 13 2 12.5523 2 12V4C2 3.44772 2.44772 3 3 3H13C13.5523 3 14 3.44772 14 4V6H15V4C15 2.89543 14.1046 2 13 2H3Z" fill="#6C707E"/>
<path d="M3.5 5.5C3.5 5.22386 3.72386 5 4 5H5C5.27614 5 5.5 5.22386 5.5 5.5C5.5 5.77614 5.27614 6 5 6H4C3.72386 6 3.5 5.77614 3.5 5.5Z" fill="#6C707E"/>
<path d="M6.5 5.5C6.5 5.22386 6.72386 5 7 5H8C8.27614 5 8.5 5.22386 8.5 5.5C8.5 5.77614 8.27614 6 8 6H7C6.72386 6 6.5 5.77614 6.5 5.5Z" fill="#6C707E"/>
</svg>
