<svg width="16" height="16" viewBox="0 0 16 16" fill="none" xmlns="http://www.w3.org/2000/svg">
<path d="M4.99011 14.7076L5.45582 13.901C5.53072 13.7712 5.48627 13.6054 5.35655 13.5305L4.70721 13.1556C4.54531 13.0621 4.33829 13.1176 4.24481 13.2795L3.81274 14.0278C3.62503 14.353 3.73643 14.7687 4.06155 14.9564C4.38667 15.1441 4.8024 15.0327 4.99011 14.7076Z" fill="#CCA18A"/>
<path d="M4.41406 12.9863L3.81274 14.0278C3.62503 14.353 3.73643 14.7687 4.06155 14.9564V14.9564C4.38667 15.1441 4.8024 15.0327 4.99011 14.7076L5.59143 13.6661" stroke="black" stroke-width="0.2"/>
<path d="M12.3713 14.0651L11.8638 13.186C11.7889 13.0563 11.623 13.0118 11.4933 13.0867L10.8439 13.4616C10.682 13.5551 10.6266 13.7621 10.72 13.924L11.1939 14.7448C11.3816 15.07 11.7974 15.1813 12.1225 14.9936C12.4476 14.8059 12.559 14.3902 12.3713 14.0651Z" fill="#CCA18A"/>
<path d="M10.5508 13.6309L11.1939 14.7448C11.3816 15.07 11.7974 15.1813 12.1225 14.9936V14.9936C12.4476 14.8059 12.559 14.3902 12.3713 14.0651L11.7281 12.9511" stroke="black" stroke-width="0.2"/>
<path d="M3.51896 2.34551L4.13287 2.58753C4.35452 2.67491 4.42858 2.9517 4.28018 3.13809L3.96642 3.54794C3.80865 3.74954 3.5029 3.74759 3.34772 3.54398L2.97871 3.05981C2.85512 2.89766 2.85161 2.6739 2.97005 2.50795C3.09403 2.33422 3.32039 2.26723 3.51896 2.34551Z" fill="#99D6FA"/>
<path d="M3.62375 3.86269L2.96614 3.01728C2.8407 2.85601 2.84302 2.62955 2.97173 2.47089V2.47089C3.09307 2.32132 3.29769 2.26824 3.47643 2.33998L4.56769 2.77795" stroke="black" stroke-width="0.2"/>
<path d="M12.4572 2.34555L11.8451 2.59217C11.6242 2.68122 11.5522 2.95856 11.702 3.14383L12.0188 3.55131C12.1781 3.75172 12.4838 3.74746 12.6375 3.5427L13.0028 3.05577C13.1252 2.89269 13.127 2.66891 13.0073 2.50386C12.882 2.33106 12.6552 2.26578 12.4572 2.34555Z" fill="#99D6FA"/>
<path d="M12.3661 3.8635L13.0173 3.01316C13.1415 2.85096 13.1375 2.62452 13.0076 2.46683V2.46683C12.8851 2.31818 12.6801 2.26664 12.5019 2.33972L11.414 2.78588" stroke="black" stroke-width="0.2"/>
<path fill-rule="evenodd" clip-rule="evenodd" d="M7.4249 1.41113C5.25974 1.41113 3.11664 3.31166 3.04023 5.78436C2.9918 7.35163 2.9918 8.94238 3.04023 10.5097C3.11454 12.9144 4.87781 14.3798 6.96623 14.4585C6.66799 13.7994 6.50195 13.0676 6.50195 12.297C6.50195 9.39798 8.85208 7.04785 11.7511 7.04785C12.1753 7.04785 12.5876 7.09816 12.9826 7.19312C12.9773 6.72504 12.9681 6.25594 12.955 5.78436C12.8872 3.33395 10.7441 1.41113 8.59871 1.41113H7.4249Z" fill="#99D6FA"/>
<path fill-rule="evenodd" clip-rule="evenodd" d="M7.4249 1.61113H8.59871C10.6366 1.61113 12.6903 3.44851 12.7551 5.78989C12.7677 6.24483 12.7767 6.69745 12.7821 7.14907C12.8494 7.16247 12.9163 7.17717 12.9826 7.19312C12.9773 6.72504 12.9681 6.25594 12.955 5.78436C12.8872 3.33395 10.7441 1.41113 8.59871 1.41113H7.4249C5.25974 1.41113 3.11664 3.31166 3.04023 5.78436C2.9918 7.35163 2.9918 8.94238 3.04023 10.5097C3.11454 12.9144 4.87781 14.3798 6.96623 14.4585C6.93574 14.3911 6.90663 14.323 6.87894 14.2541C4.92661 14.1393 3.30972 12.7556 3.24013 10.5035C3.19183 8.94032 3.19183 7.35369 3.24013 5.79053C3.31315 3.42747 5.36615 1.61113 7.4249 1.61113Z" fill="black"/>
<path fill-rule="evenodd" clip-rule="evenodd" d="M7.30156 4.83828C7.30156 5.76247 6.56724 6.51152 5.66152 6.51152C4.75581 6.51152 4.02148 5.76247 4.02148 4.83828C4.02148 3.91409 4.75581 3.16504 5.66152 3.16504C6.56724 3.16504 7.30156 3.91409 7.30156 4.83828Z" fill="white"/>
<path fill-rule="evenodd" clip-rule="evenodd" d="M5.92915 4.83735C5.92915 5.26451 5.58948 5.61122 5.17042 5.61122C4.75178 5.61122 4.41211 5.26451 4.41211 4.83735C4.41211 4.41019 4.75178 4.06348 5.17042 4.06348C5.58948 4.06348 5.92915 4.41019 5.92915 4.83735Z" fill="black"/>
<path fill-rule="evenodd" clip-rule="evenodd" d="M11.9715 4.83828C11.9715 5.76247 11.2372 6.51152 10.3314 6.51152C9.42532 6.51152 8.69141 5.76247 8.69141 4.83828C8.69141 3.91409 9.42532 3.16504 10.3314 3.16504C11.2372 3.16504 11.9715 3.91409 11.9715 4.83828Z" fill="white"/>
<path fill-rule="evenodd" clip-rule="evenodd" d="M11.5854 4.83735C11.5854 5.26451 11.2457 5.61122 10.8271 5.61122C10.408 5.61122 10.0684 5.26451 10.0684 4.83735C10.0684 4.41019 10.408 4.06348 10.8271 4.06348C11.2457 4.06348 11.5854 4.41019 11.5854 4.83735Z" fill="black"/>
<path fill-rule="evenodd" clip-rule="evenodd" d="M7.63281 7.58374H8.61011V6.7793H7.63281V7.58374Z" fill="white"/>
<path fill-rule="evenodd" clip-rule="evenodd" d="M9.0972 6.51175C9.0972 6.80778 8.65999 7.04791 8.12067 7.04791C7.58174 7.04791 7.14453 6.80778 7.14453 6.51175C7.14453 6.21571 7.58174 5.97559 8.12067 5.97559C8.65999 5.97559 9.0972 6.21571 9.0972 6.51175Z" fill="#CCA18A"/>
<path fill-rule="evenodd" clip-rule="evenodd" d="M8.60871 6.23446C8.60871 6.53573 8.38658 6.51159 8.11197 6.51159C7.83776 6.51159 7.61523 6.53573 7.61523 6.23446C7.61523 5.9332 7.83776 5.68945 8.11197 5.68945C8.38658 5.68945 8.60871 5.9332 8.60871 6.23446Z" fill="black"/>
<path d="M13.7107 9.68248L13.0226 8.99436C12.933 8.90474 12.7876 8.90474 12.698 8.99436L12.2494 9.44297C12.1376 9.55483 12.1376 9.73618 12.2494 9.84804L12.8973 10.4959C13.1219 10.7205 13.4861 10.7205 13.7107 10.4959C13.9353 10.2713 13.9353 9.9071 13.7107 9.68248Z" fill="#CCA18A"/>
<path d="M12.0469 9.64551L12.8973 10.4959C13.1219 10.7205 13.4861 10.7205 13.7107 10.4959V10.4959C13.9353 10.2713 13.9353 9.9071 13.7107 9.68248L12.8603 8.83209" stroke="black" stroke-width="0.2"/>
<path d="M3.09584 10.4958L3.78396 9.80773C3.87358 9.71811 3.87358 9.5728 3.78396 9.48318L3.33535 9.03456C3.22349 8.92271 3.04214 8.92271 2.93028 9.03456L2.28242 9.68243C2.0578 9.90705 2.0578 10.2712 2.28242 10.4958C2.50704 10.7205 2.87122 10.7205 3.09584 10.4958Z" fill="#CCA18A"/>
<path d="M3.13281 8.83203L2.28242 9.68243C2.0578 9.90705 2.0578 10.2712 2.28242 10.4958V10.4958C2.50704 10.7205 2.87122 10.7205 3.09584 10.4958L3.94623 9.64545" stroke="black" stroke-width="0.2"/>
<path fill-rule="evenodd" clip-rule="evenodd" d="M15.651 11.5311L13.8519 8.40222C13.7142 8.1581 13.4576 8.00508 13.1774 8H9.57864C9.29838 8.00494 9.04172 8.158 8.90416 8.40222L7.10442 11.5229C6.96519 11.7651 6.96519 12.0631 7.10442 12.3054L8.90348 15.4521C9.03963 15.6997 9.2956 15.8578 9.57795 15.8686H13.1767C13.4591 15.859 13.7155 15.7015 13.8519 15.4541L15.651 12.3253C15.7912 12.0791 15.7912 11.7772 15.651 11.5311Z" fill="#4285F4"/>
<path opacity="0.07" fill-rule="evenodd" clip-rule="evenodd" d="M13.9266 11.7969L13.8794 11.7826L11.492 9.39453L11.0022 10.1107L11.4127 10.5212L10.3681 10.9015L9.95768 11.9399L9.55683 11.539L8.83789 12.1738L12.5318 15.8677H13.1761C13.4585 15.858 13.7149 15.7006 13.8513 15.4532L15.2133 13.0829L13.9266 11.7969Z" fill="black"/>
<path fill-rule="evenodd" clip-rule="evenodd" d="M9.80469 11.9335C9.80469 11.0646 10.5091 10.3602 11.378 10.3602C11.7953 10.3602 12.1955 10.526 12.4905 10.821C12.7856 11.1161 12.9513 11.5163 12.9513 11.9335C12.9513 12.8025 12.2469 13.5069 11.378 13.5069C10.5091 13.5069 9.80469 12.8025 9.80469 11.9335ZM10.1797 11.9376C10.1804 12.5981 10.7163 13.1331 11.3768 13.1327V13.1299C11.694 13.1299 11.9983 13.0039 12.2225 12.7795C12.4468 12.5551 12.5727 12.2508 12.5725 11.9335C12.571 11.2731 12.0345 10.7387 11.374 10.7399C10.7136 10.741 10.1789 11.2772 10.1797 11.9376Z" fill="white"/>
<path fill-rule="evenodd" clip-rule="evenodd" d="M13.8488 11.7472L13.1914 11.542C13.2194 11.6708 13.2336 11.8022 13.2338 11.934C13.2338 12.0267 13.2269 12.1193 13.2133 12.211H13.8495C13.9033 12.2027 13.944 12.158 13.9473 12.1036V11.8553C13.944 11.8009 13.9033 11.7562 13.8495 11.7479" fill="white"/>
<path fill-rule="evenodd" clip-rule="evenodd" d="M11.3786 10.0764C11.508 10.0765 11.6371 10.09 11.7637 10.1167L11.5277 9.46208C11.5194 9.408 11.4742 9.36718 11.4196 9.36426H11.3211C11.2664 9.36692 11.2211 9.40787 11.213 9.46208L11.0078 10.114C11.1294 10.0894 11.2531 10.077 11.3772 10.077" fill="white"/>
<path fill-rule="evenodd" clip-rule="evenodd" d="M9.52011 11.9336C9.51997 11.8014 9.53396 11.6695 9.56183 11.5403L8.90446 11.7455C8.85039 11.7538 8.80956 11.7989 8.80664 11.8536V12.1019C8.80987 12.1563 8.85062 12.201 8.90446 12.2093H9.54063C9.52689 12.1176 9.52003 12.025 9.52011 11.9322" fill="white"/>
<path fill-rule="evenodd" clip-rule="evenodd" d="M11.7886 11.5683L11.9412 11.4192C12.1379 11.6159 12.2147 11.9027 12.1427 12.1714C12.0707 12.4401 11.8608 12.6501 11.5921 12.7221C11.3233 12.7941 11.0366 12.7172 10.8398 12.5205L10.989 12.3714C10.7902 12.147 10.8001 11.8067 11.0116 11.5943C11.2231 11.3818 11.5634 11.3705 11.7886 11.5683ZM11.2387 12.2673C11.3738 12.3232 11.5292 12.2922 11.6324 12.1887C11.7007 12.1214 11.7391 12.0295 11.7391 11.9336C11.7391 11.8377 11.7007 11.7458 11.6324 11.6784C11.5292 11.575 11.3738 11.544 11.2387 11.5998C11.1037 11.6557 11.0156 11.7874 11.0156 11.9336C11.0156 12.0797 11.1037 12.2115 11.2387 12.2673Z" fill="white"/>
</svg>
