<svg width="16" height="16" viewBox="0 0 16 16" fill="none" xmlns="http://www.w3.org/2000/svg">
<path d="M3 2C1.89543 2 1 2.89543 1 4V12C1 13.1046 1.89543 14 3 14H8.78356L11.4086 8H15V4C15 2.89543 14.1046 2 13 2H3Z" fill="#EBECF0"/>
<path d="M3 3H13C13.5523 3 14 3.44772 14 4V8H15V4C15 2.89543 14.1046 2 13 2H3C1.89543 2 1 2.89543 1 4V12C1 13.1046 1.89543 14 3 14H8.78356L9.22106 13H3C2.44772 13 2 12.5523 2 12V4C2 3.44772 2.44772 3 3 3Z" fill="#6C707E"/>
<path d="M4 5C3.72386 5 3.5 5.22386 3.5 5.5C3.5 5.77614 3.72386 6 4 6H5C5.27614 6 5.5 5.77614 5.5 5.5C5.5 5.22386 5.27614 5 5 5H4Z" fill="#6C707E"/>
<path d="M7 5C6.72386 5 6.5 5.22386 6.5 5.5C6.5 5.77614 6.72386 6 7 6H8C8.27614 6 8.5 5.77614 8.5 5.5C8.5 5.22386 8.27614 5 8 5H7Z" fill="#6C707E"/>
<path d="M12.0625 9L9 16L15 12H12.5L16 9H12.0625Z" fill="#019486"/>
</svg>
