<svg width="16" height="16" viewBox="0 0 16 16" fill="none" xmlns="http://www.w3.org/2000/svg">
<path d="M12.5005 15.5V9.5M9.90242 14L15.0986 11M15.0986 14L9.9024 11" stroke="#548AF7" stroke-linecap="round"/>
<path d="M3 2C1.89543 2 1 2.89543 1 4V12C1 13.1046 1.89543 14 3 14H8.25606C8.09023 13.5308 8 13.026 8 12.5C8 10.0147 10.0147 8 12.5 8C13.4251 8 14.285 8.27914 15 8.75777V4C15 2.89543 14.1046 2 13 2H3Z" fill="#43454A"/>
<path d="M3 2C1.89543 2 1 2.89543 1 4V12C1 13.1046 1.89543 14 3 14H8.25606C8.14352 13.6816 8.06579 13.3467 8.02746 13H3C2.44772 13 2 12.5523 2 12V4C2 3.44772 2.44772 3 3 3H13C13.5523 3 14 3.44772 14 4V8.25606C14.356 8.3819 14.6915 8.55127 15 8.75777V4C15 2.89543 14.1046 2 13 2H3Z" fill="#CED0D6"/>
<path d="M3.5 5.5C3.5 5.22386 3.72386 5 4 5H5C5.27614 5 5.5 5.22386 5.5 5.5C5.5 5.77614 5.27614 6 5 6H4C3.72386 6 3.5 5.77614 3.5 5.5Z" fill="#CED0D6"/>
<path d="M6.5 5.5C6.5 5.22386 6.72386 5 7 5H8C8.27614 5 8.5 5.22386 8.5 5.5C8.5 5.77614 8.27614 6 8 6H7C6.72386 6 6.5 5.77614 6.5 5.5Z" fill="#CED0D6"/>
</svg>
