<svg width="16" height="16" viewBox="0 0 16 16" fill="none" xmlns="http://www.w3.org/2000/svg">
<g clip-path="url(#clip0_16099_14146)">
<path d="M9.50002 5.49998L3.91402 11.086C3.63802 11.362 3.50002 11.724 3.50002 12.086C3.50002 12.448 3.63802 12.81 3.91402 13.086C4.19002 13.362 4.55202 13.5 4.91402 13.5C5.27602 13.5 5.63802 13.362 5.91402 13.086L11.671 7.32898C12.223 6.77698 12.499 6.05298 12.499 5.32898C12.499 4.60498 12.223 3.88098 11.671 3.32898C11.119 2.77698 10.395 2.50098 9.67102 2.50098C8.94702 2.50098 8.22302 2.77698 7.67102 3.32898L2.99902 8.00098" stroke="#CED0D6" stroke-miterlimit="10" stroke-linecap="round"/>
</g>
<defs>
<clipPath id="clip0_16099_14146">
<rect width="16" height="16" fill="white"/>
</clipPath>
</defs>
</svg>
