<svg width="16" height="16" viewBox="0 0 16 16" fill="none" xmlns="http://www.w3.org/2000/svg">
<path fill-rule="evenodd" clip-rule="evenodd" d="M11 8.5C11 7.67157 11.6716 7 12.5 7C13.3284 7 14 7.67157 14 8.5V11.5C14 12.3284 13.3284 13 12.5 13C11.6716 13 11 12.3284 11 11.5V8.5ZM13 8.5V11.5C13 11.7761 12.7761 12 12.5 12C12.2239 12 12 11.7761 12 11.5V8.5C12 8.22386 12.2239 8 12.5 8C12.7761 8 13 8.22386 13 8.5Z" fill="#CED0D6"/>
<path d="M9.5 11C9.77614 11 10 11.2239 10 11.5C10 12.8807 11.1193 14 12.5 14C13.8807 14 15 12.8807 15 11.5C15 11.2239 15.2239 11 15.5 11C15.7761 11 16 11.2239 16 11.5C16 13.2632 14.6961 14.7219 13 14.9646V15.5C13 15.7761 12.7761 16 12.5 16C12.2239 16 12 15.7761 12 15.5V14.9646C10.3039 14.7219 9 13.2632 9 11.5C9 11.2239 9.22386 11 9.5 11Z" fill="#CED0D6"/>
<path d="M10.9995 4C10.9995 5.65685 9.65637 7 7.99951 7C6.34266 7 4.99951 5.65685 4.99951 4C4.99951 2.34315 6.34266 1 7.99951 1C9.65637 1 10.9995 2.34315 10.9995 4Z" fill="#3D3223"/>
<path d="M7.99969 8C3.54766 8 2.39906 11.3034 2.10272 13.008C2.00813 13.5521 2.4474 14 2.99969 14H8.75772C8.2791 13.2851 8 12.4253 8 11.5C8 10.6716 8.67157 10 9.5 10C9.67532 10 9.84361 10.0301 10 10.0854V8.5C10 8.42131 10.0036 8.34347 10.0107 8.26664C9.42928 8.09712 8.76304 8 7.99969 8Z" fill="#3D3223"/>
<path fill-rule="evenodd" clip-rule="evenodd" d="M7.99951 7C9.65637 7 10.9995 5.65685 10.9995 4C10.9995 2.34315 9.65637 1 7.99951 1C6.34266 1 4.99951 2.34315 4.99951 4C4.99951 5.65685 6.34266 7 7.99951 7ZM7.99951 6C9.10408 6 9.99951 5.10457 9.99951 4C9.99951 2.89543 9.10408 2 7.99951 2C6.89494 2 5.99951 2.89543 5.99951 4C5.99951 5.10457 6.89494 6 7.99951 6Z" fill="#D6AE58"/>
<path d="M2.10272 13.008C2.39906 11.3034 3.54766 8 7.99969 8C8.76304 8 9.42928 8.09712 10.0107 8.26664C10.0036 8.34347 10 8.42131 10 8.5V9.31379C9.45386 9.11839 8.79607 9 7.99969 9C6.05804 9 4.94028 9.70375 4.25563 10.5114C3.59131 11.2951 3.27126 12.2552 3.12154 13H8.25599C8.38183 13.3561 8.5512 13.6915 8.75772 14H2.99969C2.4474 14 2.00813 13.5521 2.10272 13.008Z" fill="#D6AE58"/>
</svg>
