<svg width="14" height="14" viewBox="0 0 14 14" fill="none" xmlns="http://www.w3.org/2000/svg">
<g clip-path="url(#clip0_15873_14250)">
<path fill-rule="evenodd" clip-rule="evenodd" d="M13.827 0.175736C14.0613 0.410051 14.0613 0.78995 13.827 1.02426L10.0301 4.82114C9.79581 5.05545 9.41591 5.05545 9.1816 4.82114L7.17574 2.81528C6.94142 2.58097 6.94142 2.20107 7.17574 1.96675C7.41005 1.73244 7.78995 1.73244 8.02426 1.96675L9.60586 3.54835L12.9785 0.175736C13.2128 -0.0585787 13.5927 -0.0585787 13.827 0.175736Z" fill="#CED0D6"/>
<path fill-rule="evenodd" clip-rule="evenodd" d="M3.85355 7.14645C3.65829 6.95118 3.34171 6.95118 3.14645 7.14645L0.146446 10.1464C-0.0488155 10.3417 -0.0488155 10.6583 0.146446 10.8536L3.14645 13.8536C3.34171 14.0488 3.65829 14.0488 3.85355 13.8536C4.04882 13.6583 4.04882 13.3417 3.85355 13.1464L1.70709 11H7.5C7.77614 11 8 10.7761 8 10.5C8 10.2238 7.77614 9.99998 7.5 9.99998H1.70713L3.85355 7.85355C4.04882 7.65829 4.04882 7.34171 3.85355 7.14645Z" fill="#CED0D6"/>
<path d="M6.47254 1.26123C5.8477 1.88607 5.8477 2.89913 6.47254 3.52397L8.47839 5.52983C9.10323 6.15467 10.1163 6.15467 10.7411 5.52983L12.4857 3.78528C14.4344 6.46873 14.6767 9.71497 12.1805 12.2112C10.0764 14.3151 7.36069 14.4195 4.98223 13.2692C4.93518 12.9654 4.79466 12.6733 4.56066 12.4393L4.1213 12H7.5C8.32843 12 9 11.3284 9 10.5C9 9.67155 8.32843 8.99998 7.5 8.99998H4.12134L4.56066 8.56066C5.14645 7.97487 5.14645 7.02513 4.56066 6.43934C3.97487 5.85355 3.02513 5.85355 2.43934 6.43934L0.467387 8.41129C-0.390457 6.16558 -0.129394 3.69801 1.76887 1.79978C4.22623 -0.657522 7.52529 -0.448369 10.2267 1.51877L9.60977 2.13572L8.73528 1.26123C8.11044 0.636393 7.09737 0.636393 6.47254 1.26123Z" fill="#253627"/>
<path d="M6.47661 1.03083C6.55586 1.03931 6.63533 1.04966 6.71499 1.06189C7.33682 0.645539 8.18603 0.711987 8.73528 1.26123L9.60977 2.13572L10.2267 1.51877C7.52529 -0.448369 4.22623 -0.657522 1.76887 1.79978C-0.129394 3.69801 -0.390457 6.16558 0.467387 8.41129L1.25582 7.62286C1.14845 7.26957 1.07421 6.91449 1.03495 6.5621C0.891189 5.27175 1.20946 3.98843 2.13864 2.87802L11.1028 11.842C9.96566 12.8003 8.67759 13.1137 7.3937 12.9615C6.50604 12.8563 5.60165 12.5247 4.74936 12H4.1213L4.56066 12.4393C4.79466 12.6733 4.93518 12.9654 4.98223 13.2692C7.36069 14.4195 10.0764 14.3151 12.1805 12.2112C14.6767 9.71497 14.4344 6.46873 12.4857 3.78528L11.7673 4.50364C12.4447 5.47397 12.8533 6.49398 12.9658 7.47924C13.1089 8.73177 12.7837 9.99274 11.8122 11.1344L2.84627 2.1686C3.96097 1.22632 5.21752 0.896088 6.47661 1.03083Z" fill="#57965C"/>
</g>
<defs>
<clipPath id="clip0_15873_14250">
<rect width="14" height="14" fill="white"/>
</clipPath>
</defs>
</svg>
