<svg width="14" height="14" viewBox="0 0 14 14" fill="none" xmlns="http://www.w3.org/2000/svg">
<g clip-path="url(#clip0_8037_13597)">
<path d="M6 8.06201L6.00083 8.00085H5V14.0009H6.00083L6 10.4615C6 10.1106 6.06323 9.80444 6.18803 9.54309C6.31673 9.28174 6.49808 9.08093 6.73208 8.94055C6.96998 8.80017 7.3129 8.72998 7.6249 8.72998C7.9135 8.72998 8.1592 8.79236 8.362 8.91711C8.5687 9.04199 8.72665 9.22131 8.83585 9.45532C8.94505 9.68933 8.99965 9.96436 8.99965 10.2802V14.0009H10V10.4615C10 10.1106 10.0644 9.8064 10.1931 9.54895C10.3217 9.2876 10.5719 9.08679 10.8059 8.94641C11.0399 8.80212 11.3129 8.72998 11.6249 8.72998C11.9135 8.72998 12.1592 8.79236 12.362 8.91711C12.5687 9.04199 12.7247 9.22131 12.83 9.45532C12.9392 9.68933 13 9.96436 13 10.2802V14.0009H14V10.2217C14 9.74976 13.9083 9.33643 13.7251 8.98145C13.5456 8.62659 13.2922 8.35364 12.9646 8.16248C12.6369 7.96753 12.2606 7.87 11.8355 7.87C11.3714 7.87 10.9658 7.98315 10.6187 8.20935C10.2941 8.4209 9.97925 8.71423 9.78669 9.08948C9.77092 9.05286 9.75426 9.01685 9.73675 8.98145C9.56515 8.62659 9.31945 8.35364 8.99965 8.16248C8.68375 7.96753 8.31325 7.87 7.88815 7.87C7.43575 7.87 6.97778 7.97925 6.65018 8.19763C6.38295 8.37793 6.16622 8.62329 6 8.93384V8.06201Z" fill="#6C707E"/>
<path d="M13.9894 7.68581C13.8806 5.88286 12.9438 4.06611 11.4211 2.54342C8.55592 -0.321695 4.60271 -1.034 1.76887 1.79978C-1.06496 4.63356 -0.250103 8.73619 2.48908 11.4753C2.95824 11.9445 3.46603 12.3595 4 12.7105V7.00085H6.90827C7.23636 6.90939 7.5738 6.87 7.88815 6.87C8.46898 6.87 9.02474 7.00457 9.51877 7.30776C9.63305 7.37644 9.74087 7.45188 9.84221 7.53367C9.91953 7.47504 9.99677 7.42105 10.0727 7.37156C10.6012 7.02714 11.2015 6.87 11.8355 6.87C12.418 6.87 12.9737 7.00521 13.4722 7.30093C13.6614 7.41169 13.8339 7.5405 13.9894 7.68581Z" fill="#FFF4EB"/>
<path d="M13.9894 7.68581C13.8806 5.88286 12.9438 4.06611 11.4211 2.54342C8.55592 -0.321695 4.60271 -1.034 1.76887 1.79978C-1.06496 4.63356 -0.250103 8.73619 2.48908 11.4753C2.95824 11.9445 3.46603 12.3595 4 12.7105V11.4779C3.72326 11.2616 3.4549 11.0241 3.19761 10.7668C1.96238 9.53159 1.1978 8.02377 1.03495 6.5621C0.891189 5.27175 1.20946 3.98843 2.13864 2.87802L6.26155 7.00085H6.90827C7.12516 6.94039 7.34614 6.90268 7.56183 6.88406L2.84627 2.1686C3.96097 1.22632 5.21752 0.896088 6.47661 1.03083C7.90451 1.18363 9.40651 1.94592 10.7126 3.25194C11.8895 4.42889 12.6371 5.75149 12.896 7.03699C13.0949 7.10379 13.2875 7.19133 13.4722 7.30093C13.6614 7.41169 13.8339 7.5405 13.9894 7.68581Z" fill="#E66D17"/>
</g>
<defs>
<clipPath id="clip0_8037_13597">
<rect width="14" height="14" fill="white"/>
</clipPath>
</defs>
</svg>
