<svg width="14" height="14" viewBox="0 0 14 14" fill="none" xmlns="http://www.w3.org/2000/svg">
<g clip-path="url(#clip0_8037_13387)">
<path d="M7.87873 10.9851L8.5 11.1404V10.5V9.64039L9.87873 9.98507L10.5 10.1404V9.5L10.5 8.64039L13.1213 9.29571C13.3439 9.35135 13.5 9.55134 13.5 9.78078V13C13.5 13.2761 13.2761 13.5 13 13.5H7C6.72386 13.5 6.5 13.2761 6.5 13V10.6404L7.87873 10.9851Z" fill="#EBECF0" stroke="#6C707E"/>
<path d="M14 8.04849C14.0037 6.12802 13.046 4.16829 11.4211 2.54342C8.55592 -0.321695 4.60271 -1.034 1.76887 1.79978C-1.06496 4.63356 -0.250103 8.73619 2.48908 11.4753C3.24916 12.2354 4.1106 12.8533 5.02052 13.2876C5.007 13.1937 5 13.0976 5 13V10.6404C5 9.78651 5.70214 9.13156 6.51191 9.13973C6.62759 9.14089 6.74546 9.15559 6.8638 9.18517L7.0555 9.2331C7.18033 8.78747 7.50467 8.43316 7.91547 8.25844C8.19241 8.14042 8.50904 8.10416 8.83129 8.17741C8.83786 8.17891 8.84444 8.18045 8.85102 8.18204C8.85528 8.18306 8.85954 8.18411 8.8638 8.18517L9.0555 8.2331C9.18033 7.78747 9.50467 7.43316 9.91547 7.25844C10.1924 7.14042 10.509 7.10416 10.8313 7.17741C10.8421 7.17988 10.853 7.18246 10.8638 7.18517L13.4851 7.84049C13.6691 7.88651 13.8418 7.95719 14 8.04849Z" fill="#FFF4EB"/>
<path d="M11.4211 2.54342C13.046 4.16829 14.0037 6.12802 14 8.04849C13.8418 7.95719 13.6691 7.88651 13.4851 7.84049L12.9872 7.71604C12.982 7.63709 12.9748 7.55815 12.9658 7.47924C12.8035 6.05797 12.025 4.56439 10.7126 3.25194C9.40651 1.94592 7.90451 1.18363 6.47661 1.03083C5.21752 0.896088 3.96097 1.22632 2.84627 2.1686L8.86269 8.1849L8.85102 8.18204L8.83129 8.17741C8.50904 8.10416 8.19241 8.14042 7.91547 8.25844C7.82543 8.29674 7.73954 8.34366 7.659 8.39828L2.13864 2.87802C1.20946 3.98843 0.891189 5.27175 1.03495 6.5621C1.1978 8.02377 1.96238 9.53159 3.19761 10.7668C3.75548 11.3247 4.36544 11.7895 5 12.1479V13.2777C4.09765 12.844 3.24344 12.2297 2.48908 11.4753C-0.250103 8.73619 -1.06496 4.63356 1.76887 1.79978C4.60271 -1.034 8.55592 -0.321695 11.4211 2.54342Z" fill="#E66D17"/>
</g>
<defs>
<clipPath id="clip0_8037_13387">
<rect width="14" height="14" fill="white"/>
</clipPath>
</defs>
</svg>
