<svg width="16" height="16" viewBox="0 0 16 16" fill="none" xmlns="http://www.w3.org/2000/svg">
<path d="M12.9349 9C13.3582 9 13.7349 9.07833 14.0649 9.235C14.3982 9.39167 14.6565 9.61 14.8399 9.89C15.0265 10.1667 15.1199 10.4817 15.1199 10.835C15.1199 11.1483 15.0482 11.425 14.9049 11.665C14.7615 11.905 14.5599 12.0917 14.2999 12.225C14.0399 12.3583 13.7399 12.425 13.3999 12.425V12.265C13.7699 12.265 14.0982 12.3417 14.3849 12.495C14.6749 12.6483 14.8999 12.8617 15.0599 13.135C15.2199 13.4083 15.2999 13.7167 15.2999 14.06C15.2999 14.4333 15.2015 14.7683 15.0049 15.065C14.8115 15.3583 14.5399 15.5883 14.1899 15.755C13.8432 15.9183 13.4449 16 12.9949 16H10.0049V9H12.9349ZM10.9998 15.095H12.9099C13.1599 15.095 13.3799 15.05 13.5699 14.96C13.7632 14.8667 13.9115 14.7383 14.0149 14.575C14.1216 14.4083 14.1749 14.215 14.1749 13.995C14.1749 13.7783 14.1216 13.585 14.0149 13.415C13.9082 13.2417 13.7599 13.1083 13.5699 13.015C13.3799 12.9183 13.1599 12.87 12.9099 12.87H10.9998V15.095ZM12.8499 11.99C13.0799 11.99 13.2815 11.9483 13.4549 11.865C13.6282 11.7783 13.7632 11.6567 13.8599 11.5C13.9565 11.34 14.0049 11.155 14.0049 10.945C14.0049 10.7383 13.9565 10.5567 13.8599 10.4C13.7632 10.2433 13.6265 10.1217 13.4499 10.035C13.2765 9.94833 13.0765 9.905 12.8499 9.905H10.9998V11.99H12.8499Z" fill="#3574F0"/>
<path d="M1 3.86667C1 2.83574 1.73127 2 2.63333 2H6.1217C6.39413 2 6.65477 2.11115 6.84336 2.30775L8.46667 4L13 4C14.1046 4 15 4.89543 15 6V8.63118C14.8425 8.51576 14.6725 8.41576 14.492 8.33079C14.0087 8.10173 13.4824 8 12.9349 8H9.00488V14H2.63333C1.73127 14 1 13.1643 1 12.1333V3.86667Z" fill="#EBECF0"/>
<path d="M2.63333 3L6.1217 3L8.04022 5H13C13.5523 5 14 5.44771 14 6V8.14462C14.1682 8.19341 14.3324 8.25516 14.492 8.33079C14.6725 8.41576 14.8425 8.51576 15 8.63118V6C15 4.89543 14.1046 4 13 4L8.46667 4L6.84336 2.30775C6.65477 2.11115 6.39413 2 6.1217 2H2.63333C1.73127 2 1 2.83574 1 3.86667V12.1333C1 13.1643 1.73127 14 2.63333 14H9.00488V13H2.63333C2.40481 13 2 12.7416 2 12.1333V3.86667C2 3.25841 2.40481 3 2.63333 3Z" fill="#6C707E"/>
</svg>
