<svg width="16" height="16" viewBox="0 0 16 16" fill="none" xmlns="http://www.w3.org/2000/svg">
<circle cx="8" cy="8" r="6.5" fill="#43454A" stroke="#CED0D6"/>
<path d="M8.43 4.5C8.85333 4.5 9.23 4.57833 9.56 4.735C9.89333 4.89167 10.1517 5.11 10.335 5.39C10.5217 5.66667 10.615 5.98167 10.615 6.335C10.615 6.64833 10.5433 6.925 10.4 7.165C10.2567 7.405 10.055 7.59167 9.795 7.725C9.535 7.85833 9.235 7.925 8.895 7.925V7.765C9.265 7.765 9.59333 7.84167 9.88 7.995C10.17 8.14833 10.395 8.36167 10.555 8.635C10.715 8.90833 10.795 9.21667 10.795 9.56C10.795 9.93333 10.6967 10.2683 10.5 10.565C10.3067 10.8583 10.035 11.0883 9.685 11.255C9.33833 11.4183 8.94 11.5 8.49 11.5H5.5V4.5H8.43ZM6.49487 10.595H8.405C8.655 10.595 8.875 10.55 9.065 10.46C9.25833 10.3667 9.40667 10.2383 9.51 10.075C9.61667 9.90833 9.67 9.715 9.67 9.495C9.67 9.27833 9.61667 9.085 9.51 8.915C9.40333 8.74167 9.255 8.60833 9.065 8.515C8.875 8.41833 8.655 8.37 8.405 8.37H6.49487V10.595ZM8.345 7.49C8.575 7.49 8.77667 7.44833 8.95 7.365C9.12333 7.27833 9.25833 7.15667 9.355 7C9.45167 6.84 9.5 6.655 9.5 6.445C9.5 6.23833 9.45167 6.05667 9.355 5.9C9.25833 5.74333 9.12167 5.62167 8.945 5.535C8.77167 5.44833 8.57167 5.405 8.345 5.405H6.49487V7.49H8.345Z" fill="#CED0D6"/>
</svg>
