<svg width="16" height="16" viewBox="0 0 16 16" fill="none" xmlns="http://www.w3.org/2000/svg">
<circle cx="8" cy="8" r="6.5" fill="#25324D" stroke="#548AF7"/>
<path d="M6.00195 4.5H7V11.5H6.00195V4.5ZM8.79195 11.62C8.35862 11.62 7.97695 11.525 7.64695 11.335C7.32029 11.1417 7.06362 10.8733 6.87695 10.53C6.69362 10.1833 6.59862 9.78167 6.59195 9.325H6.93695V8.555H6.59195C6.59862 8.09833 6.69362 7.69833 6.87695 7.355C7.06362 7.00833 7.32029 6.74 7.64695 6.55C7.97695 6.35667 8.35862 6.26 8.79195 6.26C9.26195 6.26 9.68029 6.37333 10.047 6.6C10.4136 6.82333 10.6986 7.13833 10.902 7.545C11.1086 7.95167 11.212 8.41667 11.212 8.94C11.212 9.46333 11.1086 9.92833 10.902 10.335C10.6986 10.7417 10.4136 11.0583 10.047 11.285C9.68029 11.5083 9.26195 11.62 8.79195 11.62ZM8.58695 10.74C8.90029 10.74 9.17862 10.665 9.42195 10.515C9.66529 10.3617 9.85362 10.15 9.98695 9.88C10.1236 9.60667 10.192 9.29333 10.192 8.94C10.192 8.58667 10.1236 8.275 9.98695 8.005C9.85362 7.73167 9.66529 7.52 9.42195 7.37C9.17862 7.21667 8.90029 7.14 8.58695 7.14C8.27029 7.14 7.98862 7.21667 7.74195 7.37C7.49862 7.52 7.30862 7.73167 7.17195 8.005C7.03529 8.275 6.96695 8.58667 6.96695 8.94C6.96695 9.29333 7.03529 9.60667 7.17195 9.88C7.30862 10.15 7.49862 10.3617 7.74195 10.515C7.98862 10.665 8.27029 10.74 8.58695 10.74Z" fill="#548AF7"/>
</svg>
