<svg width="16" height="16" viewBox="0 0 16 16" fill="none" xmlns="http://www.w3.org/2000/svg">
<path d="M5.5 1C5.22386 1 5 1.22386 5 1.5C5 1.77614 5.22386 2 5.5 2H12C12.5523 2 13 2.44772 13 3V12.5C13 12.7761 13.2239 13 13.5 13C13.7761 13 14 12.7761 14 12.5V3C14 1.89543 13.1046 1 12 1H5.5Z" fill="#CED0D6"/>
<path fill-rule="evenodd" clip-rule="evenodd" d="M10.3631 14.7699L7 12L3.63567 14.7703C2.98328 15.3075 2 14.8434 2 13.9984V5C2 3.89543 2.89543 3 4 3H9.99886C11.1034 3 11.9989 3.89543 11.9989 5V13.998C11.9989 14.8432 11.0155 15.3072 10.3631 14.7699ZM7.63575 11.2281C7.26651 10.924 6.73361 10.924 6.36434 11.228L3 13.9984V5C3 4.44772 3.44772 4 4 4H9.99886C10.5511 4 10.9989 4.44771 10.9989 5V13.998L7.63575 11.2281Z" fill="#CED0D6"/>
</svg>
