<svg width="14" height="14" viewBox="0 0 14 14" fill="none" xmlns="http://www.w3.org/2000/svg">
<path d="M8.71266 12.7107C8.4717 12.1134 8.30933 11.3479 8.26308 10.5H7.04102C7.2053 11.4792 7.84398 12.2976 8.71266 12.7107Z" fill="#EBECF0"/>
<path d="M9.67826 12.4276C9.47151 11.955 9.31294 11.285 9.26473 10.5H10.7343C10.6861 11.285 10.5276 11.955 10.3208 12.4276C10.202 12.6991 10.085 12.8652 9.99954 12.9529C9.91411 12.8652 9.79704 12.6991 9.67826 12.4276Z" fill="#EBECF0"/>
<path d="M9.67826 7.57238C9.47151 8.04494 9.31294 8.71499 9.26473 9.49999H10.7343C10.6861 8.71499 10.5276 8.04494 10.3208 7.57238C10.202 7.30087 10.085 7.13482 9.99954 7.04712C9.91411 7.13482 9.79704 7.30087 9.67826 7.57238Z" fill="#EBECF0"/>
<path d="M11.2864 12.7107C11.5274 12.1134 11.6897 11.3479 11.736 10.5H12.9581C12.7938 11.4792 12.1551 12.2976 11.2864 12.7107Z" fill="#EBECF0"/>
<path d="M11.736 9.49999H12.9581C12.7938 8.52074 12.1551 7.70236 11.2864 7.28924C11.5274 7.88657 11.6897 8.65207 11.736 9.49999Z" fill="#EBECF0"/>
<path d="M7.04102 9.49999H8.26308C8.30933 8.65207 8.4717 7.88657 8.71266 7.28924C7.84398 7.70236 7.2053 8.52074 7.04102 9.49999Z" fill="#EBECF0"/>
<path fill-rule="evenodd" clip-rule="evenodd" d="M14 10C14 7.79086 12.2091 6 10 6C7.79086 6 6 7.79086 6 10C6 12.2091 7.79086 14 10 14C12.2091 14 14 12.2091 14 10ZM8.26354 10.5C8.3098 11.3479 8.47216 12.1134 8.71313 12.7107C7.84445 12.2976 7.20577 11.4792 7.04148 10.5H8.26354ZM9.2652 10.5C9.3134 11.285 9.47198 11.955 9.67872 12.4276C9.7975 12.6991 9.91458 12.8652 10 12.9529C10.0854 12.8652 10.2025 12.6991 10.3213 12.4276C10.528 11.955 10.6866 11.285 10.7348 10.5H9.2652ZM10.7348 9.5H9.2652C9.3134 8.715 9.47198 8.04495 9.67872 7.57239C9.7975 7.30089 9.91458 7.13483 10 7.04713C10.0854 7.13483 10.2025 7.30089 10.3213 7.57239C10.528 8.04495 10.6866 8.715 10.7348 9.5ZM11.7365 10.5C11.6902 11.3479 11.5278 12.1134 11.2869 12.7107C12.1556 12.2976 12.7942 11.4792 12.9585 10.5H11.7365ZM12.9585 9.5H11.7365C11.6902 8.65208 11.5278 7.88659 11.2869 7.28925C12.1556 7.70237 12.7942 8.52076 12.9585 9.5ZM8.26354 9.5H7.04148C7.20577 8.52076 7.84445 7.70237 8.71313 7.28925C8.47216 7.88659 8.3098 8.65208 8.26354 9.5Z" fill="#6C707E"/>
<path d="M6.9593 6.03053C7.80182 5.38417 8.85605 5 10 5C11.3384 5 12.554 5.52587 13.4514 6.38226C14.495 4.81441 13.9742 2.90126 12.5263 1.45338C10.8891 -0.183826 8.63012 -0.590855 7.01078 1.02845C5.56454 2.47466 5.78136 4.49921 6.9593 6.03053Z" fill="#FFF4EB"/>
<path d="M6.00643 6.99097C4.43421 5.75416 2.46469 5.57457 1.01078 7.02845C-0.60855 8.64775 -0.142916 10.9921 1.42233 12.5573C2.81291 13.9479 4.79726 14.5059 6.38337 13.4525C5.52632 12.555 5 11.339 5 10C5 8.87034 5.37463 7.82818 6.00643 6.99097Z" fill="#FFF4EB"/>
<path d="M6.9593 6.03054C5.78136 4.49921 5.56454 2.47466 7.01078 1.02845C8.63012 -0.590855 10.8891 -0.183826 12.5263 1.45338C13.9742 2.90126 14.495 4.81441 13.4514 6.38226C13.2093 6.15126 12.9441 5.9443 12.6596 5.76524C12.9519 5.29647 13.0397 4.80708 12.9844 4.32235C12.9051 3.62771 12.518 2.85924 11.8192 2.1605C11.1269 1.46818 10.355 1.08891 9.65544 1.01405C9.12827 0.957633 8.60199 1.06741 8.11212 1.405L12.2314 5.52433C11.6446 5.23119 10.9921 5.05006 10.3019 5.00896L7.40382 2.11092C7.06497 2.60363 6.9545 3.14872 7.01619 3.70244C7.08283 4.30058 7.3565 4.93361 7.81527 5.5013C7.51146 5.64911 7.22486 5.8268 6.9593 6.03054Z" fill="#E66D17"/>
<path d="M6.00643 6.99097C4.43421 5.75416 2.46469 5.57457 1.01078 7.02845C-0.608551 8.64775 -0.142916 10.9921 1.42233 12.5573C2.81291 13.9479 4.79726 14.5059 6.38337 13.4525C6.15223 13.2105 5.94514 12.9453 5.76594 12.6607C5.29225 12.9543 4.78464 13.0425 4.27527 12.9821C3.55643 12.8969 2.78438 12.5051 2.12943 11.8502C1.4809 11.2017 1.09686 10.4265 1.01619 9.70244C0.954499 9.14872 1.06497 8.60363 1.40382 8.11092L5.52431 12.2314C5.23118 11.6446 5.05006 10.9921 5.00896 10.3018L2.11212 7.405C2.60199 7.06741 3.12827 6.95763 3.65544 7.01405C4.24359 7.07698 4.88282 7.35507 5.48293 7.85343C5.62855 7.54754 5.80434 7.25877 6.00643 6.99097Z" fill="#E66D17"/>
</svg>
