<svg width="16" height="16" viewBox="0 0 16 16" fill="none" xmlns="http://www.w3.org/2000/svg">
<path d="M12 14C12.5523 14 13 13.5523 13 13C13 12.4477 12.5523 12 12 12C11.4477 12 11 12.4477 11 13C11 13.5523 11.4477 14 12 14Z" fill="#6C707E"/>
<path fill-rule="evenodd" clip-rule="evenodd" d="M12 16C9 16 8 13 8 13C8 13 9 10 12 10C15 10 16 13 16 13C16 13 15 16 12 16ZM14.9024 12.9785L14.9131 13L14.9024 13.0215C14.787 13.2525 14.6081 13.5582 14.3568 13.8598C13.8602 14.4557 13.1189 15 12 15C10.8811 15 10.1398 14.4557 9.64322 13.8598C9.39186 13.5582 9.21302 13.2525 9.09755 13.0215L9.08686 13L9.09755 12.9785C9.21302 12.7475 9.39186 12.4418 9.64322 12.1402C10.1398 11.5443 10.8811 11 12 11C13.1189 11 13.8602 11.5443 14.3568 12.1402C14.6081 12.4418 14.787 12.7475 14.9024 12.9785Z" fill="#6C707E"/>
<path d="M14.759 9.82767C14.9162 9.24503 15 8.63231 15 8C15 4.13401 11.866 1 8 1C4.13401 1 1 4.13401 1 8C1 11.8639 4.13069 14.9967 7.99386 15C7.68052 14.6003 7.45755 14.2129 7.30908 13.916C7.21202 13.7219 7.12241 13.5226 7.05199 13.3171L6.94629 13L7.05199 12.6829C7.12241 12.4774 7.21202 12.2781 7.30908 12.084C7.47486 11.7525 7.73352 11.3082 8.10716 10.8598C8.86061 9.95567 10.1193 9 12.0004 9C13.1395 9 14.0503 9.35044 14.759 9.82767Z" fill="#EDF3FF"/>
<path d="M14.759 9.82767C14.9162 9.24503 15 8.63231 15 8C15 4.13401 11.866 1 8 1C4.13401 1 1 4.13401 1 8C1 11.8639 4.13069 14.9967 7.99386 15C7.69693 14.6212 7.48115 14.2535 7.33302 13.9633C4.3332 13.6316 2 11.0883 2 8C2 4.68629 4.68629 2 8 2C11.3137 2 14 4.68629 14 8C14 8.46256 13.9477 8.91289 13.8486 9.3454C14.183 9.47882 14.486 9.64384 14.759 9.82767Z" fill="#3574F0"/>
<path d="M10.2053 9.32459H10.1966L10.1949 9.3286C10.1984 9.32726 10.2018 9.32592 10.2053 9.32459Z" fill="#3574F0"/>
<path d="M8.36931 10.5661C8.29177 10.5731 8.21275 10.5767 8.13241 10.5767C6.79332 10.5767 5.82647 9.50345 5.82647 8C5.82647 6.49655 6.79332 5.42334 8.13241 5.42334C9.1041 5.42334 9.88241 5.94544 10.1966 6.67541H11.2118C10.8976 5.39917 9.62136 4.5 8.13241 4.5C6.21321 4.5 4.78711 5.99378 4.78711 8C4.78711 9.8378 5.98383 11.2456 7.66005 11.469C7.78592 11.274 7.93422 11.0673 8.10716 10.8598C8.18859 10.7621 8.27593 10.6638 8.36931 10.5661Z" fill="#3574F0"/>
</svg>
