<svg width="16" height="16" viewBox="0 0 16 16" fill="none" xmlns="http://www.w3.org/2000/svg">
<path fill-rule="evenodd" clip-rule="evenodd" d="M11.1464 8.14645C11.3417 7.95118 11.6583 7.95118 11.8536 8.14645L14.8536 11.1464C15.0488 11.3417 15.0488 11.6583 14.8536 11.8536L11.8536 14.8536C11.6583 15.0488 11.3417 15.0488 11.1464 14.8536C10.9512 14.6583 10.9512 14.3417 11.1464 14.1464L13.2929 12H7.5C7.22386 12 7 11.7761 7 11.5C7 11.2238 7.22386 11 7.5 11H13.2929L11.1464 8.85355C10.9512 8.65829 10.9512 8.34171 11.1464 8.14645Z" fill="#CED0D6"/>
<path d="M2 4C2 2.89543 2.89543 2 4 2H12C13.1046 2 14 2.89543 14 4V8.87868L12.5607 7.43934C11.9749 6.85355 11.0251 6.85355 10.4393 7.43934C9.85355 8.02513 9.85355 8.97487 10.4393 9.56066L10.8787 9.99998H7.5C6.67157 9.99998 6 10.6716 6 11.5C6 11.5 6 11.5 6 11.5V14H4C2.89543 14 2 13.1046 2 12V4Z" fill="#402929"/>
<path d="M2 4C2 2.89543 2.89543 2 4 2H12C13.1046 2 14 2.89543 14 4V8.87868L13 7.87868V4C13 3.44772 12.5523 3 12 3H4C3.44772 3 3 3.44772 3 4V12C3 12.5523 3.44772 13 4 13H6V14H4C2.89543 14 2 13.1046 2 12V4Z" fill="#DB5C5C"/>
<path d="M8.27538 7.32741V9.99998H7.5C7.4177 9.99998 7.33694 10.0066 7.25824 10.0194V7.32741H6.12109V6.43027H7.25824V5.40571C7.25824 4.57143 7.87538 4 8.77824 4H9.88109V4.87429H8.87538C8.52109 4.87429 8.27538 5.12 8.27538 5.48V6.43027H9.82967V7.32741H8.27538Z" fill="#DB5C5C"/>
</svg>
