<svg width="16" height="16" viewBox="0 0 16 16" fill="none" xmlns="http://www.w3.org/2000/svg">
<path d="M11 16H16V15H12V13H15.5V12H11.99V10H16V9H11V16Z" fill="#B589EC"/>
<path d="M4 2C2.89543 2 2 2.89543 2 4V12C2 13.1046 2.89543 14 4 14H10V8H14V4C14 2.89543 13.1046 2 12 2H4Z" fill="#2F2936"/>
<path d="M4 3H12C12.5523 3 13 3.44772 13 4V8H14V4C14 2.89543 13.1046 2 12 2H4C2.89543 2 2 2.89543 2 4V12C2 13.1046 2.89543 14 4 14H10V13H4C3.44772 13 3 12.5523 3 12V4C3 3.44772 3.44772 3 4 3Z" fill="#B589EC"/>
</svg>
