<svg width="16" height="16" viewBox="0 0 16 16" fill="none" xmlns="http://www.w3.org/2000/svg">
<circle cx="8" cy="8" r="6.5" fill="#2F2936" stroke="#A571E6"/>
<path fill-rule="evenodd" clip-rule="evenodd" d="M11.8536 8.14645C12.0488 8.34171 12.0488 8.65829 11.8536 8.85355C11.6583 9.04882 11.3417 9.04882 11.1464 8.85355L8 5.70711V7C8 7.27614 7.77614 7.5 7.5 7.5C7.22386 7.5 7 7.27614 7 7V4.5C7 4.22386 7.22386 4 7.5 4H10C10.2761 4 10.5 4.22386 10.5 4.5C10.5 4.77614 10.2761 5 10 5H8.70711L11.8536 8.14645ZM7.29289 11L4.14645 7.85355C3.95118 7.65829 3.95118 7.34171 4.14645 7.14645C4.34171 6.95118 4.65829 6.95118 4.85355 7.14645L8 10.2929V9C8 8.72386 8.22386 8.5 8.5 8.5C8.77614 8.5 9 8.72386 9 9V11.5C9 11.7761 8.77614 12 8.5 12H6C5.72386 12 5.5 11.7761 5.5 11.5C5.5 11.2239 5.72386 11 6 11H7.29289Z" fill="#A571E6"/>
</svg>
