<svg width="16" height="16" viewBox="0 0 16 16" fill="none" xmlns="http://www.w3.org/2000/svg">
<g clip-path="url(#clip0_4661_49562)">
<path d="M2.5 2C2.22386 2 2 2.22386 2 2.5C2 2.77614 2.22386 3 2.5 3H13.5C13.7761 3 14 2.77614 14 2.5C14 2.22386 13.7761 2 13.5 2H2.5Z" fill="#6C707E"/>
<path d="M2 5.5C2 5.22386 2.22386 5 2.5 5H13.5C13.7761 5 14 5.22386 14 5.5C14 5.77614 13.7761 6 13.5 6H2.5C2.22386 6 2 5.77614 2 5.5Z" fill="#6C707E"/>
<path d="M2 8.5C2 8.22386 2.22386 8 2.5 8H6.5C6.77614 8 7 8.22386 7 8.5C7 8.77614 6.77614 9 6.5 9H2.5C2.22386 9 2 8.77614 2 8.5Z" fill="#6C707E"/>
<path fill-rule="evenodd" clip-rule="evenodd" d="M9 9.50217C9 8.32443 10.2951 7.60609 11.2942 8.22968L15.2962 10.7275C16.2372 11.3149 16.2372 12.6851 15.2962 13.2725L11.2942 15.7703C10.2951 16.3939 9 15.6756 9 14.4978V9.50217ZM10.7647 9.07801C10.4317 8.87014 10 9.10959 10 9.50217V14.4978C10 14.8904 10.4317 15.1299 10.7647 14.922L14.7667 12.4242C15.0804 12.2284 15.0804 11.7716 14.7667 11.5758L10.7647 9.07801Z" fill="#208A3C"/>
<path d="M10 9.50217C10 9.10959 10.4317 8.87015 10.7647 9.07801L14.7667 11.5758C15.0804 11.7716 15.0804 12.2284 14.7667 12.4242L10.7647 14.922C10.4317 15.1299 10 14.8904 10 14.4978V9.50217Z" fill="#F2FCF3"/>
</g>
<defs>
<clipPath id="clip0_4661_49562">
<rect width="16" height="16" fill="white"/>
</clipPath>
</defs>
</svg>
