<svg width="16" height="16" viewBox="0 0 16 16" fill="none" xmlns="http://www.w3.org/2000/svg">
<path d="M2.14645 15.8536C2.34171 16.0488 2.65829 16.0488 2.85355 15.8536C3.04882 15.6583 3.04882 15.3417 2.85355 15.1464L1.70711 14L6.5 14C6.77614 14 7 13.7761 7 13.5C7 13.2239 6.77614 13 6.5 13L1.70711 13L2.85355 11.8536C3.04882 11.6583 3.04882 11.3417 2.85355 11.1464C2.65829 10.9512 2.34171 10.9512 2.14645 11.1464L0.146447 13.1464C0.0526788 13.2402 0 13.3674 0 13.5C0 13.6326 0.0526788 13.7598 0.146447 13.8536L2.14645 15.8536Z" fill="#548AF7"/>
<path d="M13.1464 11.1464C13.3417 10.9512 13.6583 10.9512 13.8536 11.1464L15.8536 13.1464C15.9015 13.1944 15.9377 13.2496 15.9621 13.3086C15.9865 13.3676 16 13.4322 16 13.5C16 13.5678 15.9865 13.6324 15.9621 13.6914C15.9377 13.7504 15.9015 13.8056 15.8536 13.8536L13.8536 15.8536C13.6583 16.0488 13.3417 16.0488 13.1464 15.8536C12.9512 15.6583 12.9512 15.3417 13.1464 15.1464L14.2929 14H9.5C9.22386 14 9 13.7761 9 13.5C9 13.2239 9.22386 13 9.5 13H14.2929L13.1464 11.8536C12.9512 11.6583 12.9512 11.3417 13.1464 11.1464Z" fill="#548AF7"/>
<path fill-rule="evenodd" clip-rule="evenodd" d="M2.01664 3.39246H2V10.0854C2.52766 9.89933 3.13862 10.0173 3.56066 10.4393C3.84585 10.7245 3.9922 11.096 3.9997 11.4697C5.05813 11.8618 6.46889 12.0932 8 12.0932C9.53111 12.0932 10.9419 11.8618 12.0003 11.4697C12.0078 11.096 12.1542 10.7245 12.4393 10.4393C12.8614 10.0173 13.4723 9.89933 14 10.0854V3.39246H13.9834C13.9213 3.00405 13.6924 2.67483 13.4031 2.41334C13.0629 2.10586 12.5987 1.85189 12.0676 1.64885C11.0021 1.24147 9.56381 1 8 1C6.43619 1 4.99792 1.24147 3.93236 1.64885C3.40129 1.85189 2.9371 2.10586 2.59694 2.41334C2.30765 2.67483 2.07865 3.00405 2.01664 3.39246ZM3.2675 3.15519C3.05102 3.35087 3 3.50293 3 3.60275C3 3.70256 3.05102 3.85463 3.2675 4.05031C3.48396 4.24597 3.82523 4.4451 4.28947 4.62258C5.21452 4.97625 6.52624 5.2055 8 5.2055C9.47376 5.2055 10.7855 4.97625 11.7105 4.62258C12.1748 4.4451 12.516 4.24597 12.7325 4.05031C12.949 3.85463 13 3.70256 13 3.60275C13 3.50293 12.949 3.35087 12.7325 3.15519C12.516 2.95953 12.1748 2.7604 11.7105 2.58291C10.7855 2.22925 9.47376 2 8 2C6.52624 2 5.21452 2.22925 4.28947 2.58291C3.82523 2.7604 3.48396 2.95953 3.2675 3.15519ZM3 5.09723V6.54663C3 6.64645 3.05102 6.79851 3.2675 6.99419C3.48396 7.18985 3.82523 7.38898 4.28947 7.56647C5.21452 7.92013 6.52624 8.14938 8 8.14938C9.47376 8.14938 10.7855 7.92013 11.7105 7.56647C12.1748 7.38898 12.516 7.18985 12.7325 6.99419C12.949 6.79851 13 6.64645 13 6.54663V5.09723C12.7276 5.27221 12.4117 5.42512 12.0676 5.55665C11.0021 5.96403 9.56381 6.2055 8 6.2055C6.43619 6.2055 4.99792 5.96403 3.93236 5.55665C3.58833 5.42512 3.27236 5.27221 3 5.09723ZM3 9.49048V8.04112C3.27236 8.21609 3.58833 8.369 3.93236 8.50053C4.99792 8.90791 6.43619 9.14938 8 9.14938C9.56381 9.14938 11.0021 8.90791 12.0676 8.50053C12.4117 8.369 12.7276 8.21609 13 8.04112V9.49048C13 9.59029 12.949 9.74236 12.7325 9.93804C12.516 10.1337 12.1748 10.3328 11.7105 10.5103C10.7855 10.864 9.47376 11.0932 8 11.0932C6.52624 11.0932 5.21452 10.864 4.28947 10.5103C3.82523 10.3328 3.48396 10.1337 3.2675 9.93804C3.05102 9.74236 3 9.59029 3 9.49048Z" fill="#CED0D6"/>
</svg>
