<svg width="16" height="16" viewBox="0 0 16 16" fill="none" xmlns="http://www.w3.org/2000/svg">
<path d="M10.0523 13.8264C8.96902 14.0033 7.79242 13.9666 6.70554 13.9327C6.07993 13.9132 5.48404 13.8946 4.95277 13.9182C4.95277 13.9182 4.52047 13.9423 4.08467 14.0129C4.08467 14.0129 4.24952 13.944 4.45997 13.8726C5.08689 13.6597 5.59303 13.5089 6.03386 13.3777C6.79844 13.15 7.36662 12.9808 8.02792 12.6471C8.73146 12.2929 9.43397 11.7889 10.0637 11.1849L11.3787 12.5L10.0523 13.8264Z" fill="#F2FCF3"/>
<path d="M13.9649 8C13.8383 6.4241 13.3704 4.83482 12.9454 3.59766C12.1948 5.12972 10.3481 6.30783 8.75308 6.67987C8.09806 6.83344 7.47602 6.86451 6.86743 6.8949C6.08696 6.93389 5.32861 6.97177 4.55116 7.26548C1.39622 8.45651 1.44444 12.1519 3.18238 12.9821L3.28585 13.0363L3.31088 13.0313C3.57821 12.9775 5.92295 12.5063 7.25453 12.0244C8.04244 11.739 8.86001 11.2935 9.6112 10.7325L9.43938 10.5607C9.01039 10.1317 8.88205 9.48649 9.11422 8.92597C9.3464 8.36546 9.89335 8 10.5 8H13.9649Z" fill="#F2FCF3"/>
<path d="M6.55611 5.92719C5.85274 5.96513 5.04122 6.0281 4.19306 6.34848C2.25367 7.08072 1.25338 8.61754 1.04186 10.1251C0.845643 11.5236 1.33026 13.1485 2.68495 13.836C2.69455 13.8582 2.70621 13.8868 2.72278 13.9275L2.76153 14.0223C2.80274 14.1231 2.90264 14.3675 3.08492 14.572C3.19454 14.695 3.35522 14.8302 3.57859 14.9162C3.80724 15.0043 4.03864 15.0165 4.24795 14.9825C4.43448 14.9523 4.62629 14.9312 4.77532 14.9176C4.84878 14.9109 4.90953 14.9062 4.95111 14.9032L4.9978 14.9001L5.00581 14.8996C5.49374 14.8783 6.04412 14.8954 6.67179 14.9149L6.95762 14.9236C7.63429 14.9437 8.37801 14.9596 9.11894 14.9146C9.19278 14.7403 9.30027 14.5784 9.43938 14.4393L10.0521 13.8267C8.96894 14.0034 7.79265 13.9667 6.70602 13.9328C6.08041 13.9133 5.48453 13.8948 4.95325 13.9184C4.95325 13.9184 4.52096 13.9425 4.08516 14.0131C4.08516 14.0131 4.25001 13.9442 4.46046 13.8727C5.08736 13.6598 5.59348 13.5091 6.03431 13.3779C6.79889 13.1502 7.36711 12.981 8.02841 12.6472C8.73188 12.2931 9.43434 11.7891 10.064 11.1853L9.6115 10.7328C8.86036 11.2938 8.04286 11.7392 7.25502 12.0246C5.84152 12.5361 3.28634 13.0365 3.28634 13.0365L3.18287 12.9822C1.44493 12.1521 1.3967 8.45667 4.55165 7.26564C5.3291 6.97193 6.08745 6.93405 6.86791 6.89507C7.4765 6.86467 8.09855 6.8336 8.75357 6.68003C10.3486 6.308 12.1953 5.12988 12.9458 3.59782C13.3709 4.83494 13.8388 6.42416 13.9654 8H14.9683C14.9653 7.9592 14.9621 7.91848 14.9587 7.87787C14.8172 6.1955 14.3228 4.53336 13.8934 3.28357L13.1088 1L12.0449 3.17167C11.4581 4.36933 9.90789 5.40096 8.52266 5.72407L8.52154 5.72433C7.96186 5.85554 7.43529 5.88228 6.82056 5.91348L6.81914 5.91355C6.73331 5.91791 6.64574 5.92236 6.55611 5.92719Z" fill="#208A3C"/>
<path fill-rule="evenodd" clip-rule="evenodd" d="M10.0381 9.30866C10.1155 9.12182 10.2978 9 10.5 9L15.5 9C15.7761 9 16 9.22386 16 9.5C16 9.77614 15.7761 10 15.5 10H11.7071L13.8536 12.1464C14.0488 12.3417 14.0488 12.6583 13.8536 12.8536L11.7071 15H15.5C15.7761 15 16 15.2239 16 15.5C16 15.7761 15.7761 16 15.5 16H10.5C10.2978 16 10.1155 15.8782 10.0381 15.6913C9.96068 15.5045 10.0035 15.2894 10.1465 15.1464L12.7929 12.5L10.1465 9.85355C10.0035 9.71055 9.96068 9.4955 10.0381 9.30866Z" fill="#6C707E"/>
</svg>
