<svg width="16" height="16" viewBox="0 0 16 16" fill="none" xmlns="http://www.w3.org/2000/svg">
<path fill-rule="evenodd" clip-rule="evenodd" d="M12.5 9C12.7761 9 13 9.22386 13 9.5V12H15.5C15.7761 12 16 12.2239 16 12.5C16 12.7761 15.7761 13 15.5 13H13V15.5C13 15.7761 12.7761 16 12.5 16C12.2239 16 12 15.7761 12 15.5V13H9.5C9.22386 13 9 12.7761 9 12.5C9 12.2239 9.22386 12 9.5 12H12V9.5C12 9.22386 12.2239 9 12.5 9Z" fill="#548AF7"/>
<path d="M15 8C15 4.13401 11.866 1 8 1C4.13401 1 1 4.13401 1 8C1 11.866 4.13401 15 8 15V14C4.68629 14 2 11.3137 2 8C2 4.68629 4.68629 2 8 2C11.3137 2 14 4.68629 14 8H15Z" fill="#CED0D6"/>
<path fill-rule="evenodd" clip-rule="evenodd" d="M11 11H10V8H6V11H9.5C8.84689 11 8.29127 11.4174 8.08535 12H6C5.44772 12 5 11.5523 5 11V8C5 7.44772 5.44772 7 6 7V6C6 4.89543 6.89543 4 8 4C9.10457 4 10 4.89543 10 6V7C10.5523 7 11 7.44772 11 8V11ZM7 6C7 5.44772 7.44772 5 8 5C8.55228 5 9 5.44772 9 6V7H7V6Z" fill="#CED0D6"/>
</svg>
