<svg width="16" height="16" viewBox="0 0 16 16" fill="none" xmlns="http://www.w3.org/2000/svg">
<path fill-rule="evenodd" clip-rule="evenodd" d="M7 8.96905C5.02684 8.723 3.5 7.03981 3.5 5C3.5 2.79086 5.29086 1 7.5 1C9.70914 1 11.5 2.79086 11.5 5C11.5 7.03981 9.97316 8.723 8 8.96905V14.5C8 14.7761 7.77614 15 7.5 15C7.22386 15 7 14.7761 7 14.5V14H5.5C5.22386 14 5 13.7761 5 13.5C5 13.2239 5.22386 13 5.5 13H7V12H5.5C5.22386 12 5 11.7761 5 11.5C5 11.2239 5.22386 11 5.5 11H7V8.96905ZM4.5 5C4.5 6.65685 5.84315 8 7.5 8C9.15685 8 10.5 6.65685 10.5 5C10.5 3.34315 9.15685 2 7.5 2C5.84315 2 4.5 3.34315 4.5 5Z" fill="#E66D17"/>
<path fill-rule="evenodd" clip-rule="evenodd" d="M12.5 9C12.7761 9 13 9.22386 13 9.5V12H15.5C15.7761 12 16 12.2239 16 12.5C16 12.7761 15.7761 13 15.5 13H13V15.5C13 15.7761 12.7761 16 12.5 16C12.2239 16 12 15.7761 12 15.5V13H9.5C9.22386 13 9 12.7761 9 12.5C9 12.2239 9.22386 12 9.5 12H12V9.5C12 9.22386 12.2239 9 12.5 9Z" fill="#3574F0"/>
</svg>
