<svg width="16" height="16" viewBox="0 0 16 16" fill="none" xmlns="http://www.w3.org/2000/svg">
<path d="M2.63333 2C1.73127 2 1 2.83574 1 3.86667V12.1333C1 13.1643 1.73127 14 2.63333 14H7.12602C7.47991 12.625 8.5465 11.5362 9.90851 11.1507C9.34811 10.6057 9 9.84349 9 9C9 7.34315 10.3431 6 12 6C13.6569 6 15 7.34315 15 9V6C15 4.89543 14.1046 4 13 4L8.46667 4L6.84336 2.30775C6.65477 2.11115 6.39413 2 6.1217 2H2.63333Z" fill="#EBECF0"/>
<path fill-rule="evenodd" clip-rule="evenodd" d="M14 9C14 10.1046 13.1046 11 12 11C10.8954 11 10 10.1046 10 9C10 7.89543 10.8954 7 12 7C13.1046 7 14 7.89543 14 9ZM13 9C13 9.55228 12.5523 10 12 10C11.4477 10 11 9.55228 11 9C11 8.44772 11.4477 8 12 8C12.5523 8 13 8.44772 13 9Z" fill="#3574F0"/>
<path fill-rule="evenodd" clip-rule="evenodd" d="M13 12H11C9.34315 12 8 13.3431 8 15C8 15.5523 8.44772 16 9 16H15C15.5523 16 16 15.5523 16 15C16 13.3431 14.6569 12 13 12ZM9 15C9 13.8954 9.89543 13 11 13H13C14.1046 13 15 13.8954 15 15H9Z" fill="#3574F0"/>
<path d="M12 10C12.5523 10 13 9.55228 13 9C13 8.44772 12.5523 8 12 8C11.4477 8 11 8.44772 11 9C11 9.55228 11.4477 10 12 10Z" fill="#EDF3FF"/>
<path d="M11 13C9.89543 13 9 13.8954 9 15H15C15 13.8954 14.1046 13 13 13H11Z" fill="#EDF3FF"/>
<path d="M6.1217 3L2.63333 3C2.40481 3 2 3.25841 2 3.86667V12.1333C2 12.7416 2.40481 13 2.63333 13H7.53513C7.35609 13.3095 7.21733 13.6452 7.12602 14H2.63333C1.73127 14 1 13.1643 1 12.1333V3.86667C1 2.83574 1.73127 2 2.63333 2H6.1217C6.39413 2 6.65477 2.11115 6.84336 2.30775L8.46667 4L13 4C14.1046 4 15 4.89543 15 6V9C15 8.1115 14.6137 7.31321 14 6.76389V6C14 5.44771 13.5523 5 13 5H8.04022L6.1217 3Z" fill="#6C707E"/>
</svg>
