<svg width="16" height="16" viewBox="0 0 16 16" fill="none" xmlns="http://www.w3.org/2000/svg">
<path d="M12 12H14V11H12V12Z" fill="#CED0D6"/>
<path d="M12 14H14V13H12V14Z" fill="#CED0D6"/>
<path fill-rule="evenodd" clip-rule="evenodd" d="M11 9C10.4477 9 10 9.44772 10 10V15C10 15.5523 10.4477 16 11 16H15C15.5523 16 16 15.5523 16 15V10C16 9.44772 15.5523 9 15 9H11ZM15 10H11V15H15V10Z" fill="#CED0D6"/>
<path d="M5.5 2.5C5.5 1.39543 6.39543 0.5 7.5 0.5C8.60457 0.5 9.5 1.39543 9.5 2.5V3.5H12.5V6.5H13.5C14.4319 6.5 15.215 7.13739 15.437 8H11C9.89543 8 9 8.89543 9 10V13.5H2.5V10.5H3.5C4.60457 10.5 5.5 9.60457 5.5 8.5C5.5 7.39543 4.60457 6.5 3.5 6.5H2.5V3.5H5.5V2.5Z" fill="#25324D"/>
<path d="M5 2.5C5 1.11929 6.11929 0 7.5 0C8.88071 0 10 1.11929 10 2.5V3H12.5C12.7761 3 13 3.22386 13 3.5V6H13.5C14.7095 6 15.7184 6.85888 15.95 8H14.9146C14.7087 7.4174 14.1531 7 13.5 7H12.5C12.2239 7 12 6.77614 12 6.5V4H9.5C9.22386 4 9 3.77614 9 3.5V2.5C9 1.67157 8.32843 1 7.5 1C6.67157 1 6 1.67157 6 2.5V3.5C6 3.77614 5.77614 4 5.5 4H3V6H3.5C4.88071 6 6 7.11929 6 8.5C6 9.88071 4.88071 11 3.5 11H3V13H9V14H2.5C2.22386 14 2 13.7761 2 13.5V10.5C2 10.2239 2.22386 10 2.5 10H3.5C4.32843 10 5 9.32843 5 8.5C5 7.67157 4.32843 7 3.5 7H2.5C2.22386 7 2 6.77614 2 6.5V3.5C2 3.22386 2.22386 3 2.5 3H5V2.5Z" fill="#548AF7"/>
</svg>
