<svg width="16" height="16" viewBox="0 0 16 16" fill="none" xmlns="http://www.w3.org/2000/svg">
<path d="M11.7077 9.58615C11.5124 9.39089 11.5124 9.0743 11.7077 8.87904L13.0512 7.53553C14.3175 6.2692 14.3175 4.21608 13.0512 2.94975C11.7848 1.68342 9.7317 1.68342 8.46537 2.94975L7.12187 4.29326C6.9266 4.48852 6.61002 4.48852 6.41476 4.29326C6.2195 4.09799 6.2195 3.78141 6.41476 3.58615L7.75827 2.24264C9.41512 0.585786 12.1014 0.585787 13.7583 2.24264C15.4151 3.89949 15.4151 6.58579 13.7583 8.24264L12.4148 9.58615C12.2195 9.78141 11.9029 9.78141 11.7077 9.58615Z" fill="#6C707E"/>
<path d="M10.6469 4.64687C10.8422 4.45161 11.1588 4.45161 11.354 4.64687C11.5493 4.84214 11.5493 5.15872 11.354 5.35398L5.35404 11.354C5.15878 11.5492 4.8422 11.5492 4.64693 11.354C4.45167 11.1587 4.45167 10.8421 4.64693 10.6469L10.6469 4.64687Z" fill="#6C707E"/>
<path d="M4.29338 6.41464C4.48864 6.6099 4.48864 6.92648 4.29338 7.12174L2.95365 8.46147C1.68732 9.7278 1.68732 11.7809 2.95365 13.0473C4.21998 14.3136 6.27311 14.3136 7.53944 13.0473L8.87919 11.7075C9.07444 11.5122 9.391 11.5122 9.58627 11.7075C9.78156 11.9027 9.78158 12.2193 9.5863 12.4146L8.24655 13.7544C6.58969 15.4112 3.9034 15.4112 2.24655 13.7544C0.589693 12.0975 0.589692 9.41121 2.24655 7.75436L3.58627 6.41464C3.78153 6.21937 4.09811 6.21937 4.29338 6.41464Z" fill="#6C707E"/>
</svg>
