<svg width="13" height="13" viewBox="0 0 13 13" fill="none" xmlns="http://www.w3.org/2000/svg">
<circle cx="6.5" cy="6.5" r="6.5" fill="#F7F8FA"/>
<path fill-rule="evenodd" clip-rule="evenodd" d="M5 3.5C5 2.67157 5.67157 2 6.5 2C7.32843 2 8 2.67157 8 3.5V6.5C8 7.32843 7.32843 8 6.5 8C5.67157 8 5 7.32843 5 6.5V3.5ZM7 3.5V6.5C7 6.77614 6.77614 7 6.5 7C6.22386 7 6 6.77614 6 6.5V3.5C6 3.22386 6.22386 3 6.5 3C6.77614 3 7 3.22386 7 3.5Z" fill="#6C707E"/>
<path d="M3.5 6C3.77614 6 4 6.22386 4 6.5C4 7.88071 5.11929 9 6.5 9C7.88071 9 9 7.88071 9 6.5C9 6.22386 9.22386 6 9.5 6C9.77614 6 10 6.22386 10 6.5C10 8.26324 8.69615 9.72194 7 9.96456V10.5C7 10.7761 6.77614 11 6.5 11C6.22386 11 6 10.7761 6 10.5V9.96456C4.30385 9.72194 3 8.26324 3 6.5C3 6.22386 3.22386 6 3.5 6Z" fill="#6C707E"/>
<path d="M7 6.5V3.5C7 3.22386 6.77614 3 6.5 3C6.22386 3 6 3.22386 6 3.5V6.5C6 6.77614 6.22386 7 6.5 7C6.77614 7 7 6.77614 7 6.5Z" fill="#EBECF0"/>
</svg>
