<svg width="14" height="14" viewBox="0 0 14 14" fill="none" xmlns="http://www.w3.org/2000/svg">
<path d="M6.29287 1.41411C6.6834 1.02362 7.31653 1.02364 7.70704 1.41415L8.20711 1.91421C8.58218 2.28929 9.09089 2.5 9.62132 2.5H10.4998C11.052 2.5 11.4998 2.94772 11.4998 3.5V4.37863C11.4998 4.9091 11.7105 5.41785 12.0856 5.79293L12.697 6.40418C13.0573 6.7645 13.0891 7.33817 12.7707 7.73607L11.9381 8.77674C11.6543 9.13138 11.4998 9.57204 11.4998 10.0262V10.5C11.4998 11.0523 11.052 11.5 10.4998 11.5H9.62113C9.09065 11.5 8.58191 11.7107 8.20683 12.0859L7.70702 12.5857C7.31652 12.9763 6.68335 12.9763 6.29281 12.5858L5.79262 12.0857C5.41755 11.7107 4.90888 11.5 4.37849 11.5H3.49985C2.94761 11.5 2.49991 11.0523 2.49985 10.5001L2.49981 10.026C2.49976 9.57195 2.34523 9.13145 2.06162 8.77689L1.68463 9.07844L2.06162 8.77689L1.22903 7.73603C0.910759 7.33814 0.942543 6.76456 1.30283 6.40427L1.91416 5.79294C2.28928 5.41783 2.49999 4.90906 2.49995 4.37857L2.49988 3.50008C2.49983 2.94776 2.94756 2.5 3.49988 2.5H4.37849C4.90888 2.5 5.41755 2.28932 5.79262 1.9143L6.29287 1.41411Z" fill="#F2FCF3" stroke="#208A3C"/>
<path d="M9.5 5.5L6.5 8.5L5 7" stroke="#208A3C" stroke-linecap="round" stroke-linejoin="round"/>
</svg>
