<svg width="16" height="16" viewBox="0 0 16 16" fill="none" xmlns="http://www.w3.org/2000/svg">
<path d="M7.95244 4.00007C7.62256 4.00158 7.30753 4.02941 7.03034 4.07792C6.21376 4.22061 6.06551 4.51926 6.06551 5.07002V5.79741H7.99517V6.03988H6.06551H5.34132C4.78051 6.03988 4.28944 6.37327 4.13584 7.00751C3.95867 7.73449 3.95081 8.18813 4.13584 8.94722C4.27301 9.51225 4.60059 9.91485 5.1614 9.91485H5.82486V9.04287C5.82486 8.41291 6.37594 7.85724 7.03034 7.85724H8.95775C9.49428 7.85724 9.92258 7.42031 9.92258 6.88739V5.07002C9.92258 4.55279 9.48142 4.16424 8.95775 4.07792C8.62626 4.02334 8.28232 3.99855 7.95244 4.00007ZM6.90889 4.58509C7.10821 4.58509 7.27098 4.74871 7.27098 4.9499C7.27098 5.15037 7.10821 5.31248 6.90889 5.31248C6.70885 5.31248 6.5468 5.15037 6.5468 4.9499C6.5468 4.74871 6.70885 4.58509 6.90889 4.58509Z" fill="url(#paint0_linear_8437_12609)"/>
<path d="M10.1632 6.03979V6.88731C10.1632 7.54437 9.59993 8.0974 8.95767 8.0974H7.03026C6.50231 8.0974 6.06543 8.54432 6.06543 9.06726V10.8846C6.06543 11.4019 6.52017 11.7061 7.03026 11.8545C7.64108 12.0321 8.22683 12.0642 8.95767 11.8545C9.44348 11.7154 9.92251 11.4354 9.92251 10.8846V10.1572H7.99509V9.91477H9.92251H10.8873C11.4482 9.91477 11.6571 9.52786 11.8522 8.94714C12.0536 8.34929 12.0451 7.77436 11.8522 7.00743C11.7136 6.45524 11.4489 6.03979 10.8873 6.03979H10.1632ZM9.07912 10.6422C9.27916 10.6422 9.44121 10.8043 9.44121 11.0047C9.44121 11.2059 9.27916 11.3695 9.07912 11.3695C8.8798 11.3695 8.71703 11.2059 8.71703 11.0047C8.71703 10.8043 8.8798 10.6422 9.07912 10.6422Z" fill="url(#paint1_linear_8437_12609)"/>
<path fill-rule="evenodd" clip-rule="evenodd" d="M12.2426 3.75736C9.89949 1.41421 6.1005 1.41421 3.75736 3.75736C1.41421 6.10051 1.41421 9.89949 3.75736 12.2426C6.10051 14.5858 9.89949 14.5858 12.2426 12.2426C12.4379 12.0474 12.7545 12.0474 12.9497 12.2426C13.145 12.4379 13.145 12.7545 12.9497 12.9497C10.2161 15.6834 5.78392 15.6834 3.05025 12.9497C0.316583 10.2161 0.316582 5.78392 3.05025 3.05025C5.78392 0.316582 10.2161 0.316582 12.9497 3.05025C13.145 3.24551 13.145 3.5621 12.9497 3.75736C12.7545 3.95262 12.4379 3.95262 12.2426 3.75736Z" fill="#6C707E"/>
<defs>
<linearGradient id="paint0_linear_8437_12609" x1="4" y1="4" x2="8.40837" y2="7.79806" gradientUnits="userSpaceOnUse">
<stop stop-color="#5A9FD4"/>
<stop offset="1" stop-color="#306998"/>
</linearGradient>
<linearGradient id="paint1_linear_8437_12609" x1="9.03275" y1="10.9436" x2="7.45957" y2="8.71473" gradientUnits="userSpaceOnUse">
<stop stop-color="#F4C20E"/>
<stop offset="1" stop-color="#FBDC3E"/>
</linearGradient>
</defs>
</svg>
