<svg width="16" height="16" viewBox="0 0 16 16" fill="none" xmlns="http://www.w3.org/2000/svg">
<path fill-rule="evenodd" clip-rule="evenodd" d="M3.37928 10.2715L3.37328 3.37354L1.19128 7.92554C0.936284 8.46854 0.828284 9.13254 1.57328 9.87654L3.71128 12.0145C3.33228 11.6355 3.38428 11.0175 3.37928 10.2715ZM12.5258 4.22274L12.0148 3.71074C11.6358 3.33174 11.0178 3.38374 10.2718 3.37874L3.37328 3.37354L12 12H15L15.0008 6.69674L12.5258 4.22274Z" fill="#01579B"/>
<path d="M3.375 3.37297L10.272 3.37897C10.3596 3.37956 10.4455 3.37936 10.5295 3.37916C11.1601 3.3777 11.6815 3.37649 12.016 3.71097L9.878 1.57297C9.134 0.82897 8.47 0.935969 7.926 1.19097L3.375 3.37297Z" fill="#29B6F6"/>
<path d="M12.001 12L3.375 3.37297L3.381 10.271C3.38159 10.3587 3.38139 10.4446 3.38119 10.5285C3.37973 11.1591 3.37852 11.6805 3.713 12.014L4.22266 12.5259L6.69666 14.9999L12.001 15V12Z" fill="#29B6F6"/>
</svg>
