<svg width="16" height="16" viewBox="0 0 16 16" fill="none" xmlns="http://www.w3.org/2000/svg">
<circle cx="8" cy="8" r="6.5" fill="#25324D" stroke="#548AF7"/>
<path d="M9.931 6.264L11.149 5.561C10.417 4.618 9.285 4 7.999 4C6.728 4 5.609 4.605 4.875 5.53C4.875 5.53 7.382 3.088 9.931 6.264Z" fill="#548AF7"/>
<path d="M8.53955 10.55V11.946C10.4906 11.68 11.9996 10.025 11.9996 8.00004C11.9996 7.43966 11.8817 6.90701 11.6725 6.42183C11.6706 6.41734 11.6696 6.41504 11.6696 6.41504C11.6705 6.4173 11.6715 6.41957 11.6725 6.42183C11.7365 6.5733 12.7855 9.21953 8.53955 10.55Z" fill="#548AF7"/>
<path d="M4.348 6.38037L5.567 7.08337C4.147 11.3234 7.54 11.9544 7.54 11.9544C5.549 11.7234 4 10.0524 4 8.00037C4 7.42237 4.128 6.87637 4.348 6.38037Z" fill="#548AF7"/>
</svg>
