<svg width="14" height="14" viewBox="0 0 14 14" fill="none" xmlns="http://www.w3.org/2000/svg">
<g clip-path="url(#clip0_11632_9730)">
<path fill-rule="evenodd" clip-rule="evenodd" d="M1.59694 1.41334C1.30765 1.67483 1.07865 2.00405 1.01664 2.39246H1V11.5184H1.00263C1.03051 11.9621 1.2768 12.3344 1.59694 12.6237C1.9371 12.9312 2.40129 13.1852 2.93236 13.3882C3.53236 13.6176 4.25053 13.7944 5.04275 13.9051C5.08589 13.9111 5.12926 13.917 5.17283 13.9226C5.75012 13.9972 6.3647 14.0371 7 14.0371C7.68325 14.0371 8.34254 13.991 8.95725 13.9051C9.74947 13.7944 10.4676 13.6176 11.0676 13.3882C11.5987 13.1852 12.0629 12.9312 12.4031 12.6237C12.7232 12.3344 12.9695 11.9621 12.9974 11.5184H13V2.39246H12.9834C12.9213 2.00405 12.6924 1.67483 12.4031 1.41334C12.0629 1.10586 11.5987 0.851887 11.0676 0.648849C10.0021 0.241467 8.56381 0 7 0C5.43619 0 3.99792 0.241467 2.93236 0.648849C2.40129 0.851887 1.9371 1.10586 1.59694 1.41334ZM8.32432 12.9734C9.25406 12.882 10.0739 12.6976 10.7105 12.4542C11.1748 12.2767 11.516 12.0775 11.7325 11.8819C11.949 11.6862 12 11.5341 12 11.4343V9.98496C11.7276 10.1599 11.4117 10.3128 11.0676 10.4444C10.2404 10.7606 9.18853 10.9769 8.02767 11.0578C7.69323 11.0811 7.34976 11.0932 7 11.0932C6.65792 11.0932 6.32184 11.0817 5.99436 11.0594C5.98701 11.0589 5.97967 11.0583 5.97233 11.0578C4.81147 10.9769 3.7596 10.7606 2.93236 10.4444C2.58833 10.3128 2.27236 10.1599 2 9.98496V11.4343C2 11.5341 2.05102 11.6862 2.2675 11.8819C2.48396 12.0775 2.82523 12.2767 3.28947 12.4542C3.92612 12.6976 4.74594 12.882 5.67568 12.9734C6.09683 13.0148 6.54054 13.0371 7 13.0371C7.45946 13.0371 7.90317 13.0148 8.32432 12.9734ZM5.67712 10.0297C6.09785 10.071 6.54107 10.0932 7 10.0932C7.45893 10.0932 7.90215 10.071 8.32288 10.0297C9.25321 9.93838 10.0735 9.75384 10.7105 9.51031C11.1748 9.33283 11.516 9.1337 11.7325 8.93804C11.949 8.74236 12 8.59029 12 8.49048V7.04112C11.7447 7.20516 11.451 7.3498 11.1318 7.47562C11.1105 7.484 11.0891 7.49231 11.0676 7.50053C10.0021 7.90791 8.56381 8.14938 7 8.14938C5.63167 8.14938 4.35945 7.96451 3.34893 7.64537C3.20457 7.59978 3.06555 7.55145 2.93236 7.50053C2.58833 7.369 2.27236 7.21609 2 7.04112V8.49048C2 8.59029 2.05102 8.74236 2.2675 8.93804C2.48396 9.1337 2.82523 9.33283 3.28947 9.51031C3.92645 9.75385 4.74679 9.93838 5.67712 10.0297ZM2.22882 2.19137C2.04484 2.36967 2 2.50917 2 2.60275C2 2.70256 2.05102 2.85463 2.2675 3.05031C2.48396 3.24597 2.82523 3.4451 3.28947 3.62258C4.21452 3.97625 5.52624 4.2055 7 4.2055C8.47376 4.2055 9.78548 3.97625 10.7105 3.62258C11.1748 3.4451 11.516 3.24597 11.7325 3.05031C11.949 2.85463 12 2.70256 12 2.60275C12 2.50293 11.949 2.35087 11.7325 2.15519C11.516 1.95953 11.1748 1.7604 10.7105 1.58291C9.78548 1.22925 8.47376 1 7 1C5.52624 1 4.21452 1.22925 3.28947 1.58291C3.26045 1.594 3.23192 1.60518 3.20386 1.61644C2.78306 1.78527 2.47043 1.97176 2.2675 2.15519C2.25397 2.16742 2.24108 2.17948 2.22882 2.19137ZM2.93236 4.55665C2.58833 4.42512 2.27236 4.27221 2 4.09723V5.54663C2 5.64645 2.05102 5.79851 2.2675 5.99419C2.48396 6.18985 2.82523 6.38898 3.28947 6.56647C4.21452 6.92013 5.52624 7.14938 7 7.14938C8.47376 7.14938 9.78548 6.92013 10.7105 6.56647C11.1748 6.38898 11.516 6.18985 11.7325 5.99419C11.949 5.79851 12 5.64645 12 5.54663V4.09723C11.7276 4.27221 11.4117 4.42512 11.0676 4.55665C10.0021 4.96403 8.56381 5.2055 7 5.2055C5.43619 5.2055 3.99792 4.96403 2.93236 4.55665Z" fill="#CED0D6"/>
</g>
<defs>
<clipPath id="clip0_11632_9730">
<rect width="14" height="14" fill="white"/>
</clipPath>
</defs>
</svg>
