<svg width="16" height="16" viewBox="0 0 16 16" fill="none" xmlns="http://www.w3.org/2000/svg">
<path d="M0 10C0 9.44772 0.447715 9 1 9H15C15.5523 9 16 9.44772 16 10V15C16 15.5523 15.5523 16 15 16H1C0.447715 16 0 15.5523 0 15V10Z" fill="#6C707E"/>
<path d="M2.5 10.5V14.5H4C4.82843 14.5 5.5 13.8284 5.5 13V12C5.5 11.1716 4.82843 10.5 4 10.5H2.5Z" stroke="#F7F8FA"/>
<path d="M7.5 10.5V14.5H9C9.82843 14.5 10.5 13.8284 10.5 13V12C10.5 11.1716 9.82843 10.5 9 10.5H7.5Z" stroke="#F7F8FA"/>
<path d="M12.5 10V14.5H15" stroke="#F7F8FA"/>
<path fill-rule="evenodd" clip-rule="evenodd" d="M4.73244 3H10.5C11.3284 3 12 3.67157 12 4.5V8H13V4.5C13 3.11929 11.8807 2 10.5 2H3C1.89543 2 1 2.89543 1 4V4.5C1 4.77614 1.22386 5 1.5 5H4V8H5V4C5 3.63571 4.90261 3.29417 4.73244 3ZM3 3C2.44772 3 2 3.44772 2 4H4C4 3.44772 3.55228 3 3 3Z" fill="#3574F0"/>
<path d="M12 8V4.5C12 3.67157 11.3284 3 10.5 3H4.73244C4.90261 3.29417 5 3.63571 5 4V8H12Z" fill="#EDF3FF"/>
<path d="M2 4C2 3.44772 2.44772 3 3 3C3.55228 3 4 3.44772 4 4H2Z" fill="#EDF3FF"/>
</svg>
