<svg width="16" height="16" viewBox="0 0 16 16" fill="none" xmlns="http://www.w3.org/2000/svg">
<path fill-rule="evenodd" clip-rule="evenodd" d="M8.26205 2.07417C8.10135 1.97528 7.89865 1.97528 7.73795 2.07417L1.23795 6.07417C1.09008 6.16517 1 6.32637 1 6.5C1 6.67363 1.09008 6.83483 1.23795 6.92583L2.98348 8L1.23795 9.07417C1.09008 9.16517 1 9.32637 1 9.5C1 9.67363 1.09008 9.83483 1.23795 9.92583L7.73795 13.9258C7.89865 14.0247 8.10135 14.0247 8.26205 13.9258L14.762 9.92583C14.9099 9.83483 15 9.67363 15 9.5C15 9.32637 14.9099 9.16517 14.762 9.07417L13.0165 8L14.762 6.92583C14.9099 6.83483 15 6.67363 15 6.5C15 6.32637 14.9099 6.16517 14.762 6.07417L8.26205 2.07417ZM12.0625 8.58709L8.26205 10.9258C8.10135 11.0247 7.89865 11.0247 7.73795 10.9258L3.9375 8.58709L2.45402 9.5L8 12.9129L13.546 9.5L12.0625 8.58709ZM8 9.91291L2.45402 6.5L8 3.08709L13.546 6.5L8 9.91291Z" fill="#D6AE58"/>
<path d="M8.26115 10.9266L12.0616 8.58789L13.5451 9.5008L7.9991 12.9137L2.45312 9.5008L3.9366 8.58789L7.73706 10.9266C7.89776 11.0255 8.10045 11.0255 8.26115 10.9266Z" fill="#3D3223"/>
<path d="M2.45312 6.5008L7.9991 9.91371L13.5451 6.5008L7.9991 3.08789L2.45312 6.5008Z" fill="#3D3223"/>
</svg>
