<svg width="16" height="16" viewBox="0 0 16 16" fill="none" xmlns="http://www.w3.org/2000/svg">
<path fill-rule="evenodd" clip-rule="evenodd" d="M15 8C15 11.866 11.866 15 8 15C4.13401 15 1 11.866 1 8C1 4.13401 4.13401 1 8 1C11.866 1 15 4.13401 15 8ZM7.67159 13.9912C7.67552 13.8731 7.68198 13.7278 7.68844 13.604C7.74011 12.645 7.72978 11.4347 7.66262 10.7633C7.62474 10.3777 7.55071 9.90939 7.50937 9.80606C7.50079 9.7837 7.54039 9.76476 7.71084 9.70622C8.02247 9.59777 8.29275 9.46176 8.3341 9.3946C8.40812 9.26721 8.27552 9.08469 8.10682 9.08469C8.07755 9.08469 7.98974 9.11571 7.90881 9.15184C7.52315 9.3292 6.75013 9.53748 6.30419 9.58399C5.99601 9.61671 5.51739 9.59777 5.1851 9.53749C5.00433 9.5048 4.68062 9.38257 4.41034 9.2431C4.0987 9.08128 3.9076 8.86608 3.85077 8.61125C3.8198 8.47353 3.82837 8.19809 3.86797 8.04313C3.91102 7.87269 4.03155 7.62477 4.14176 7.48014C4.63241 6.83455 5.64479 6.27501 6.68297 6.07875C7.01355 6.01676 7.48185 6.00989 7.83649 6.06327C8.2256 6.1218 8.56479 6.23025 8.90053 6.4024C9.11744 6.51431 9.22074 6.59179 9.4618 6.82247C9.81989 7.16511 10.0403 7.46465 10.2469 7.88818C10.5482 8.5045 10.6653 9.05026 10.8133 10.5137C10.8805 11.1696 10.9683 12.3592 10.9872 12.8465C10.9907 12.9401 10.9971 13.0738 11.0041 13.195C12.7952 12.157 14 10.2192 14 8C14 4.68629 11.3137 2 8 2C4.68629 2 2 4.68629 2 8C2 11.2035 4.51061 13.8207 7.67159 13.9912ZM5.07884 6.98384C4.91516 7.05468 4.90256 7.2766 5.0568 7.35532C5.16856 7.412 5.28192 7.38524 5.34016 7.28764C5.45036 7.1082 5.27088 6.9004 5.07884 6.98384ZM6.14612 7.13496C5.995 7.2278 5.995 7.45136 6.14612 7.5442C6.29564 7.63392 6.48928 7.51588 6.48928 7.33644C6.48928 7.16328 6.29092 7.0468 6.14612 7.13496Z" fill="#CED0D6"/>
<path d="M7.68844 13.604C7.68198 13.7278 7.67552 13.8731 7.67159 13.9912C4.51061 13.8207 2 11.2035 2 8C2 4.68629 4.68629 2 8 2C11.3137 2 14 4.68629 14 8C14 10.2192 12.7952 12.157 11.0041 13.195C10.9971 13.0738 10.9907 12.9401 10.9872 12.8465C10.9683 12.3592 10.8805 11.1696 10.8133 10.5137C10.6653 9.05026 10.5482 8.5045 10.2469 7.88818C10.0403 7.46465 9.81989 7.16511 9.4618 6.82247C9.22074 6.59179 9.11744 6.51431 8.90053 6.4024C8.56479 6.23025 8.2256 6.1218 7.83649 6.06327C7.48185 6.00989 7.01355 6.01676 6.68297 6.07875C5.64479 6.27501 4.63241 6.83455 4.14176 7.48014C4.03155 7.62477 3.91102 7.87269 3.86797 8.04313C3.82837 8.19809 3.8198 8.47353 3.85077 8.61125C3.9076 8.86608 4.0987 9.08128 4.41034 9.2431C4.68062 9.38257 5.00433 9.5048 5.1851 9.53749C5.51739 9.59777 5.99601 9.61671 6.30419 9.58399C6.75013 9.53748 7.52315 9.3292 7.90881 9.15184C7.98974 9.11571 8.07755 9.08469 8.10682 9.08469C8.27552 9.08469 8.40812 9.26721 8.3341 9.3946C8.29275 9.46176 8.02247 9.59777 7.71084 9.70622C7.54039 9.76476 7.50079 9.7837 7.50937 9.80606C7.55071 9.90939 7.62474 10.3777 7.66262 10.7633C7.72978 11.4347 7.74011 12.645 7.68844 13.604Z" fill="#43454A"/>
<path d="M5.0568 7.35532C4.90256 7.2766 4.91516 7.05468 5.07884 6.98384C5.27088 6.9004 5.45036 7.1082 5.34016 7.28764C5.28192 7.38524 5.16856 7.412 5.0568 7.35532Z" fill="#43454A"/>
<path d="M6.14612 7.5442C5.995 7.45136 5.995 7.2278 6.14612 7.13496C6.29092 7.0468 6.48928 7.16328 6.48928 7.33644C6.48928 7.51588 6.29564 7.63392 6.14612 7.5442Z" fill="#43454A"/>
</svg>
