<svg width="16" height="16" viewBox="0 0 16 16" fill="none" xmlns="http://www.w3.org/2000/svg">
<path fill-rule="evenodd" clip-rule="evenodd" d="M9 15.0764C9.01235 12.5573 10.3587 10.2379 12.5278 9C14.6737 10.2515 15.9972 12.566 16 15.0716L15.9993 15.0895C13.9341 16.2842 11.2695 16.327 9 15.0764ZM13.9995 11.8955C13.9942 12.9751 13.4172 13.9691 12.4876 14.4997C11.5679 13.9633 11.0007 12.9714 10.9995 11.8976L10.9998 11.8899C11.8849 11.3779 13.0269 11.3595 13.9995 11.8955Z" fill="#39207C"/>
<path d="M14.8244 9.56495C14.9393 9.06179 15 8.53798 15 8C15 4.13401 11.866 1 8 1C4.13401 1 1 4.13401 1 8C1 11.866 4.13401 15 8 15C7.99978 15 8.00022 15 8 15C8.03905 12.1552 9.56995 9.53682 12.0321 8.13167L12.5331 7.8457L13.0315 8.13636C13.704 8.52853 14.3054 9.01157 14.8244 9.56495Z" fill="#FAF5FF"/>
<path d="M14.8244 9.56495C14.9393 9.06179 15 8.53798 15 8C15 4.13401 11.866 1 8 1C4.13401 1 1 4.13401 1 8C1 11.866 4.13401 15 8 15C7.99978 15 8.00022 15 8 15C8.00463 14.6628 8.03086 14.3287 8.07647 13.9995C8.05102 13.9998 8.02553 14 8 14C4.68629 14 2 11.3137 2 8C2 4.68629 4.68629 2 8 2C11.3137 2 14 4.68629 14 8C14 8.25865 13.9836 8.51348 13.9519 8.76351C14.2638 9.00982 14.5552 9.27793 14.8244 9.56495Z" fill="#834DF0"/>
<path fill-rule="evenodd" clip-rule="evenodd" d="M9.20054 10.8716C9.07648 10.993 8.93699 11.0986 8.78207 11.1885C8.43557 11.388 8.03482 11.4877 7.57982 11.4877C7.08632 11.4877 6.64532 11.3687 6.25682 11.1307C5.87182 10.8927 5.57082 10.5602 5.35382 10.1332C5.13682 9.70622 5.02832 9.21972 5.02832 8.67372C5.02832 8.12772 5.13682 7.64122 5.35382 7.21422C5.57082 6.78722 5.87182 6.45472 6.25682 6.21672C6.64532 5.97872 7.08632 5.85972 7.57982 5.85972C8.03482 5.85972 8.43557 5.96122 8.78207 6.16422C9.07819 6.33301 9.31794 6.56192 9.50132 6.85097V4.01172H10.4621V9.3065C9.97565 9.77457 9.55244 10.301 9.20054 10.8716ZM9.29132 9.68697C9.40624 9.45713 9.47624 9.20054 9.50132 8.91722V8.43022C9.47624 8.1469 9.40624 7.89031 9.29132 7.66047C9.14432 7.36647 8.93782 7.13722 8.67182 6.97272C8.40582 6.80822 8.10307 6.72597 7.76357 6.72597C7.42407 6.72597 7.12307 6.80822 6.86057 6.97272C6.59807 7.13722 6.39332 7.36647 6.24632 7.66047C6.10282 7.95447 6.03107 8.29222 6.03107 8.67372C6.03107 9.05522 6.10282 9.39297 6.24632 9.68697C6.39332 9.98097 6.59807 10.2102 6.86057 10.3747C7.12307 10.5392 7.42407 10.6215 7.76357 10.6215C8.10307 10.6215 8.40582 10.5392 8.67182 10.3747C8.93782 10.2102 9.14432 9.98097 9.29132 9.68697Z" fill="#834DF0"/>
</svg>
