<svg width="16" height="16" viewBox="0 0 16 16" fill="none" xmlns="http://www.w3.org/2000/svg">
<path d="M9.5 10.5L12.5 13.5M12.5 13.5V11M12.5 13.5H10" stroke="#57965C" stroke-linecap="round" stroke-linejoin="round"/>
<path d="M9.5 7.5H15.5M15.5 7.5L13.5 9.5M15.5 7.5L13.5 5.5" stroke="#57965C" stroke-linecap="round" stroke-linejoin="round"/>
<path d="M9.5 4.5L12.5 1.5M12.5 1.5V4M12.5 1.5H10" stroke="#57965C" stroke-linecap="round" stroke-linejoin="round"/>
<path d="M8 1.09329C6.16167 0.771778 4.30155 1.26713 2.76887 2.79978C-0.0649633 5.63356 0.749897 9.73619 3.48908 12.4753C4.78535 13.7716 6.37645 14.6544 8 14.9178V1.09329Z" fill="#45322B"/>
<path d="M8 1.09329C6.16167 0.771778 4.30155 1.26713 2.76887 2.79978C-0.0649632 5.63356 0.749897 9.73619 3.48908 12.4753C4.78534 13.7716 6.37645 14.6544 8 14.9178V13.9003C6.67106 13.6449 5.32751 12.8967 4.19761 11.7668C2.96238 10.5316 2.1978 9.02377 2.03495 7.5621C1.89119 6.27175 2.20946 4.98843 3.13864 3.87802L8 8.73929V7.32225L3.84627 3.1686C4.96097 2.22632 6.21752 1.89609 7.47661 2.03083C7.65014 2.0494 7.82477 2.07697 8 2.11342V1.09329Z" fill="#C77D55"/>
</svg>
