<svg width="16" height="16" viewBox="0 0 16 16" fill="none" xmlns="http://www.w3.org/2000/svg">
<rect x="7" y="4" width="3" height="3" rx="1" fill="#3574F0"/>
<rect x="7" width="3" height="3" rx="1" fill="#3574F0"/>
<rect x="3" y="4" width="3" height="3" rx="1" fill="#3574F0"/>
<path fill-rule="evenodd" clip-rule="evenodd" d="M15.2512 7.03904C15.2124 7.00829 14.851 6.73537 14.0887 6.73537C13.8874 6.73624 13.6866 6.75351 13.4881 6.78699C13.3406 5.77629 12.5053 5.28322 12.467 5.26063L12.2623 5.14258L12.1277 5.33684C12.0056 5.5259 11.9073 5.72897 11.835 5.94141C11.8075 6.02221 11.7837 6.10437 11.7638 6.18763C11.6273 6.76488 11.7103 7.30705 12.0035 7.77057C11.6494 7.96789 11.0814 8.01646 10.9665 8.02076H1.96555C1.42737 8.02076 0.987002 8.44692 1.0128 8.98449C1.04585 9.67345 1.14318 10.5834 1.41361 11.196C1.90114 12.3003 2.44392 13.0098 3.34656 13.4401C4.2492 13.8704 4.80504 14.0163 6.09905 14.0163C6.68362 14.0181 7.2671 13.9652 7.84182 13.8583C8.64075 13.7116 9.40952 13.4323 10.1163 13.0321C10.6987 12.6948 11.2229 12.2658 11.6685 11.7614C12.2622 11.0893 12.6647 9.97522 12.9708 9.12794C13.0487 8.91217 13.1205 8.71333 13.1875 8.5439H13.3191C14.1348 8.5439 14.6364 8.21746 14.9131 7.94392C15.0969 7.76945 15.2404 7.55692 15.3336 7.3212L15.392 7.15031L15.2512 7.03904ZM5.00098 12C5.55326 12 6.00098 11.5523 6.00098 11C6.00098 10.4477 5.55326 10 5.00098 10C4.44869 10 4.00098 10.4477 4.00098 11C4.00098 11.5523 4.44869 12 5.00098 12Z" fill="#3574F0"/>
</svg>
