<svg width="14" height="14" viewBox="0 0 14 14" fill="none" xmlns="http://www.w3.org/2000/svg">
<g clip-path="url(#clip0_11900_11433)">
<path fill-rule="evenodd" clip-rule="evenodd" d="M7.19696 0.540427C7.07119 0.486524 6.92881 0.486524 6.80304 0.540427L3.30304 2.04043C3.1192 2.11922 3 2.29999 3 2.5V5.79547L0.290471 7.04602C0.113396 7.12775 0 7.30497 0 7.5V11C0 11.195 0.113396 11.3723 0.290471 11.454L3.54047 12.954C3.67342 13.0153 3.82658 13.0153 3.95953 12.954L7 11.5507L10.0405 12.954C10.1734 13.0153 10.3266 13.0153 10.4595 12.954L13.7095 11.454C13.8866 11.3723 14 11.195 14 11L14 7.5C14 7.30497 13.8866 7.12775 13.7095 7.04602L11 5.79547V2.5C11 2.29999 10.8808 2.11922 10.697 2.04043L7.19696 0.540427ZM4 5.56047V3.25827L6.5 4.3297V6.71761L4 5.56047ZM7.5 6.71818V4.3297L10 3.25827V5.56305L7.5 6.71818ZM7 3.45602L9.23071 2.5L7 1.54398L4.7693 2.5L7 3.45602ZM7.5 10.6801V8.28145L9.75 9.31992V11.7185L7.5 10.6801ZM4.25 9.31992L6.5 8.28145L6.5 10.6801L4.25 11.7185V9.31992ZM1 8.28145V10.6801L3.25 11.7185V9.31992L1 8.28145ZM5.80685 7.5L3.75 8.44931L1.69315 7.5L3.75 6.55069L5.80685 7.5ZM10.75 9.31992V11.7185L13 10.6801L13 8.28145L10.75 9.31992ZM12.3068 7.5L10.25 8.44931L8.19315 7.5L10.25 6.55069L12.3068 7.5Z" fill="#CED0D6"/>
<path d="M4 3.25824V5.56044L6.5 6.71758V4.32967L4 3.25824Z" fill="#43454A"/>
<path d="M7.5 8.28142V10.6801L9.75 11.7185V9.31989L7.5 8.28142Z" fill="#43454A"/>
<path d="M1 10.6801V8.28142L3.25 9.31989V11.7185L1 10.6801Z" fill="#43454A"/>
</g>
<defs>
<clipPath id="clip0_11900_11433">
<rect width="14" height="14" fill="white"/>
</clipPath>
</defs>
</svg>
