<svg width="16" height="16" viewBox="0 0 16 16" fill="none" xmlns="http://www.w3.org/2000/svg">
<path fill-rule="evenodd" clip-rule="evenodd" d="M8.19696 1.04043C8.07119 0.986524 7.92881 0.986524 7.80304 1.04043L4.30304 2.54043C4.1192 2.61922 4 2.79999 4 3V6.56148L0.314305 8.03576C0.124475 8.11169 0 8.29555 0 8.5V12.5C0 12.7045 0.124475 12.8883 0.314305 12.9642L4.0643 14.4642C4.18351 14.5119 4.31649 14.5119 4.4357 14.4642L8 13.0385L11.5643 14.4642C11.6835 14.5119 11.8165 14.5119 11.9357 14.4642L15.6857 12.9642C15.8755 12.8883 16 12.7045 16 12.5V8.5C16 8.29555 15.8755 8.11169 15.6857 8.03576L12 6.56148V3C12 2.79999 11.8808 2.61922 11.697 2.54043L8.19696 1.04043ZM6.65371 8.5L4.25 7.53852L1.84629 8.5L4.25 9.46148L6.65371 8.5ZM7.5 7.76148V4.8297L5 3.75827V6.76148L7.5 7.76148ZM8.5 7.76126V4.8297L11 3.75827V6.76045L8.5 7.76126ZM8 3.95602L10.2307 3L8 2.04398L5.7693 3L8 3.95602ZM8.5 12.1615V9.23852L11.25 10.3385V13.2615L8.5 12.1615ZM4.75 10.3385L7.5 9.23852V12.1615L4.75 13.2615V10.3385ZM1 9.23852V12.1615L3.75 13.2615V10.3385L1 9.23852ZM12.25 10.3385V13.2615L15 12.1615V9.23852L12.25 10.3385ZM14.1537 8.5L11.75 9.46148L9.34629 8.5L11.75 7.53852L14.1537 8.5Z" fill="#CED0D6"/>
<path d="M7.5 4.82967V7.76145L5 6.76145V3.75824L7.5 4.82967Z" fill="#43454A"/>
<path d="M8.5 9.23849V12.1615L11.25 13.2615V10.3385L8.5 9.23849Z" fill="#43454A"/>
<path d="M1 12.1615V9.23849L3.75 10.3385V13.2615L1 12.1615Z" fill="#43454A"/>
</svg>
