<svg width="16" height="16" viewBox="0 0 16 16" fill="none" xmlns="http://www.w3.org/2000/svg">
<circle cx="13" cy="13" r="2.5" stroke="#6C707E"/>
<path d="M3 13V5.41421C3 5.149 3.10536 4.89464 3.29289 4.70711L6.70711 1.29289C6.89464 1.10536 7.149 1 7.41421 1H11C12.1046 1 13 1.89543 13 3V9C10.7909 9 9 10.7909 9 13C9 13.7286 9.19479 14.4117 9.53513 15H5C3.89543 15 3 14.1046 3 13Z" fill="#EDF3FF"/>
<path fill-rule="evenodd" clip-rule="evenodd" d="M3 5.41421V13C3 14.1046 3.89543 15 5 15H9.53513C9.35609 14.6905 9.21733 14.3548 9.12602 14H5C4.44772 14 4 13.5523 4 13L4 6H6C7.10457 6 8 5.10457 8 4V2L11 2C11.5523 2 12 2.44772 12 3V9.12602C12.3196 9.04375 12.6547 9 13 9V3C13 1.89543 12.1046 1 11 1H7.41421C7.149 1 6.89464 1.10536 6.70711 1.29289L3.29289 4.70711C3.10536 4.89464 3 5.149 3 5.41421ZM7 2.41421L4.41421 5H6C6.55228 5 7 4.55228 7 4V2.41421Z" fill="#3574F0"/>
<path d="M6.5 8C6.22386 8 6 8.22386 6 8.5C6 8.77614 6.22386 9 6.5 9H9.5C9.77614 9 10 8.77614 10 8.5C10 8.22386 9.77614 8 9.5 8L6.5 8Z" fill="#3574F0"/>
<path d="M6.5 11C6.22386 11 6 11.2239 6 11.5C6 11.7761 6.22386 12 6.5 12H9.12602C9.21733 11.6452 9.35609 11.3095 9.53513 11H6.5Z" fill="#3574F0"/>
</svg>
