<svg width="20" height="20" viewBox="0 0 20 20" fill="none" xmlns="http://www.w3.org/2000/svg">
<path d="M14.7193 18.8667H16.3004V20H14.7193V18.8667ZM14.7193 8.5H16.3004V10.2434H14.7193V8.5ZM15.3035 19.1524C14.6473 19.1524 14.0652 19.036 13.5572 18.8032C13.0535 18.5661 12.6577 18.2359 12.3698 17.8126C12.0862 17.3892 11.9401 16.9024 11.9316 16.3521H13.8303C13.8345 16.5849 13.898 16.7923 14.0208 16.9744C14.1478 17.1522 14.3235 17.2919 14.5478 17.3935C14.7764 17.4951 15.0347 17.5459 15.3225 17.5459C15.6019 17.5459 15.8454 17.5014 16.0528 17.4125C16.2645 17.3236 16.4274 17.1987 16.5417 17.0379C16.656 16.877 16.7132 16.6907 16.7132 16.4791C16.7132 16.2166 16.6328 15.9901 16.4719 15.7996C16.311 15.6091 16.0972 15.4906 15.8305 15.444L14.2557 15.1837C13.8324 15.1117 13.4599 14.9593 13.1381 14.7265C12.8206 14.4936 12.5751 14.1994 12.4015 13.8438C12.228 13.484 12.1412 13.0924 12.1412 12.6691C12.1412 12.1484 12.2745 11.6827 12.5412 11.2721C12.8079 10.8572 13.1805 10.5355 13.6588 10.3069C14.1414 10.074 14.6875 9.9576 15.2971 9.9576C15.9152 9.9576 16.4655 10.0698 16.9481 10.2942C17.4307 10.5143 17.8075 10.8233 18.0784 11.2213C18.3494 11.6192 18.4891 12.0743 18.4975 12.5865H16.5925C16.5925 12.3918 16.5396 12.2161 16.4338 12.0595C16.328 11.9028 16.1777 11.7822 15.9829 11.6975C15.7924 11.6086 15.5702 11.5642 15.3162 11.5642C15.0707 11.5642 14.8526 11.6065 14.6621 11.6912C14.4716 11.7716 14.3235 11.8859 14.2176 12.0341C14.1118 12.1822 14.0589 12.3558 14.0589 12.5548C14.0589 12.7791 14.133 12.976 14.2811 13.1453C14.4293 13.3104 14.624 13.4141 14.8653 13.4565L16.3576 13.6914C16.8063 13.7634 17.2043 13.9264 17.5514 14.1804C17.9028 14.4301 18.1737 14.7455 18.3642 15.1265C18.5589 15.5075 18.6563 15.9181 18.6563 16.3584C18.6563 16.8918 18.5145 17.3723 18.2308 17.7999C17.9514 18.2232 17.5556 18.5555 17.0434 18.7968C16.5354 19.0339 15.9554 19.1524 15.3035 19.1524Z" fill="#CED0D6"/>
<path d="M2.24861 3.75008C4.31968 1.67901 7.67755 1.67901 9.74861 3.75008L9.99861 4.00008L10.2486 3.75008C12.3197 1.67901 15.6775 1.67901 17.7486 3.75008C19.5036 5.50504 19.7714 8.18397 18.5522 10.221C18.2206 9.87107 17.8206 9.59377 17.366 9.38595C17.3492 9.37817 17.3324 9.37051 17.3156 9.36296C18.1305 7.91374 17.9213 6.04408 16.688 4.81074C15.2027 3.32546 12.7946 3.32546 11.3093 4.81074L9.99861 6.1214L8.68795 4.81074C7.20267 3.32546 4.79455 3.32546 3.30927 4.81074C1.82399 6.29602 1.82399 8.70414 3.30927 10.1894L9.99861 16.8788L10.9249 15.9524L10.9313 16.3676C10.939 16.8645 11.0331 17.3385 11.2195 17.7792L9.99861 19.0001L2.24861 11.2501C0.177546 9.17901 0.177545 5.82115 2.24861 3.75008Z" fill="#CED0D6"/>
</svg>
