<svg width="16" height="16" viewBox="0 0 16 16" fill="none" xmlns="http://www.w3.org/2000/svg">
<path fill-rule="evenodd" clip-rule="evenodd" d="M10.1464 10.1464C10.3417 9.95118 10.6583 9.95118 10.8536 10.1464L13 12.2929L15.1464 10.1464C15.3417 9.95118 15.6583 9.95118 15.8536 10.1464C16.0488 10.3417 16.0488 10.6583 15.8536 10.8536L13.7071 13L15.8536 15.1464C16.0488 15.3417 16.0488 15.6583 15.8536 15.8536C15.6583 16.0488 15.3417 16.0488 15.1464 15.8536L13 13.7071L10.8536 15.8536C10.6583 16.0488 10.3417 16.0488 10.1464 15.8536C9.95118 15.6583 9.95118 15.3417 10.1464 15.1464L12.2929 13L10.1464 10.8536C9.95118 10.6583 9.95118 10.3417 10.1464 10.1464Z" fill="#DB5C5C"/>
<path d="M14.9109 9.12011C14.9695 8.75539 15 8.38126 15 8C15 4.13401 11.866 1 8 1C4.13401 1 1 4.13401 1 8C1 11.866 4.13401 15 8 15C8.38126 15 8.75539 14.9695 9.1201 14.9109C9.19318 14.7396 9.29959 14.5791 9.43934 14.4393L10.3611 13.5176C9.63644 13.8281 8.8383 14 8 14C4.68629 14 2 11.3137 2 8C2 4.68629 4.68629 2 8 2C11.3137 2 14 4.68629 14 8C14 8.8383 13.8281 9.63644 13.5176 10.3611L14.4393 9.43934C14.5791 9.29959 14.7396 9.19318 14.9109 9.12011Z" fill="#CED0D6"/>
<path fill-rule="evenodd" clip-rule="evenodd" d="M11 9.08542V8C11 7.44772 10.5523 7 10 7V6C10 4.89543 9.10457 4 8 4C6.89543 4 6 4.89543 6 6V7C5.44772 7 5 7.44772 5 8V11C5 11.5523 5.44772 12 6 12H9.87868L9.43934 11.5607C9.27559 11.3969 9.15762 11.2047 9.08542 11H6V8H10V9.08542C10.3229 8.97153 10.6771 8.97153 11 9.08542ZM7 6C7 5.44772 7.44772 5 8 5C8.55228 5 9 5.44772 9 6V7H7V6Z" fill="#CED0D6"/>
</svg>
