<svg width="14" height="14" viewBox="0 0 14 14" fill="none" xmlns="http://www.w3.org/2000/svg">
<g clip-path="url(#clip0_10541_11131)">
<path fill-rule="evenodd" clip-rule="evenodd" d="M1 2.39246H1.01664C1.07865 2.00405 1.30765 1.67483 1.59694 1.41334C1.9371 1.10586 2.40129 0.851887 2.93236 0.648849C3.99792 0.241467 5.43619 0 7 0C8.56381 0 10.0021 0.241467 11.0676 0.648849C11.5987 0.851887 12.0629 1.10586 12.4031 1.41334C12.6924 1.67483 12.9213 2.00405 12.9834 2.39246H13V6.98574H12V4.09723C11.7276 4.27221 11.4117 4.42512 11.0676 4.55665C10.0021 4.96403 8.56381 5.2055 7 5.2055C5.43619 5.2055 3.99792 4.96403 2.93236 4.55665C2.58833 4.42512 2.27236 4.27221 2 4.09723V5.54663C2 5.64645 2.05102 5.79851 2.2675 5.99419C2.48396 6.18985 2.82523 6.38898 3.28947 6.56647C4.21452 6.92013 5.52624 7.14938 7 7.14938C7.74842 7.14938 8.45505 7.09026 9.09048 6.98574C9.03194 7.14614 9 7.31934 9 7.5V8.01135C8.37315 8.10112 7.69912 8.14938 7 8.14938C5.43619 8.14938 3.99792 7.90791 2.93236 7.50053C2.58833 7.369 2.27236 7.21609 2 7.04112V8.49048C2 8.59029 2.05102 8.74236 2.2675 8.93804C2.48396 9.1337 2.82523 9.33283 3.28947 9.51031C4.01361 9.78717 4.97471 9.98778 6.065 10.0619C6.02274 10.2005 6 10.3476 6 10.5C6 10.7006 6.03936 10.8919 6.11079 11.0668C4.89516 10.9939 3.79237 10.7732 2.93236 10.4444C2.58833 10.3128 2.27236 10.1599 2 9.98496V11.4343C2 11.5341 2.05102 11.6862 2.2675 11.8819C2.48396 12.0775 2.82523 12.2767 3.28947 12.4542C4.21452 12.8078 5.52624 13.0371 7 13.0371C7.71308 13.0371 8.38823 12.9834 9 12.8879V13.5C9 13.6355 9.01796 13.7667 9.05162 13.8915C8.41021 13.9861 7.71835 14.0371 7 14.0371C5.43619 14.0371 3.99792 13.7956 2.93236 13.3882C2.40129 13.1852 1.9371 12.9312 1.59694 12.6237C1.2768 12.3344 1.03051 11.9621 1.00263 11.5184H1V2.39246ZM2 2.60275C2 2.50293 2.05102 2.35087 2.2675 2.15519C2.48396 1.95953 2.82523 1.7604 3.28947 1.58291C4.21452 1.22925 5.52624 1 7 1C8.47376 1 9.78548 1.22925 10.7105 1.58291C11.1748 1.7604 11.516 1.95953 11.7325 2.15519C11.949 2.35087 12 2.50293 12 2.60275C12 2.70256 11.949 2.85463 11.7325 3.05031C11.516 3.24597 11.1748 3.4451 10.7105 3.62258C9.78548 3.97625 8.47376 4.2055 7 4.2055C5.52624 4.2055 4.21452 3.97625 3.28947 3.62258C2.82523 3.4451 2.48396 3.24597 2.2675 3.05031C2.05102 2.85463 2 2.70256 2 2.60275Z" fill="#6C707E"/>
<path fill-rule="evenodd" clip-rule="evenodd" d="M10.5 7C10.7761 7 11 7.22386 11 7.5V10H13.5C13.7761 10 14 10.2239 14 10.5C14 10.7761 13.7761 11 13.5 11H11V13.5C11 13.7761 10.7761 14 10.5 14C10.2239 14 10 13.7761 10 13.5V11H7.5C7.22386 11 7 10.7761 7 10.5C7 10.2239 7.22386 10 7.5 10H10V7.5C10 7.22386 10.2239 7 10.5 7Z" fill="#3574F0"/>
</g>
<defs>
<clipPath id="clip0_10541_11131">
<rect width="14" height="14" fill="white"/>
</clipPath>
</defs>
</svg>
