<svg width="16" height="16" viewBox="0 0 16 16" fill="none" xmlns="http://www.w3.org/2000/svg">
<circle cx="8" cy="8" r="6.5" fill="#45322B" stroke="#C77D55"/>
<path d="M5.5 4.5H8.05281C8.71615 4.5 9.30281 4.64833 9.81281 4.945C10.3261 5.23833 10.7245 5.65 11.0078 6.18C11.2945 6.71 11.4378 7.31667 11.4378 8C11.4378 8.68333 11.2945 9.29 11.0078 9.82C10.7245 10.35 10.3261 10.7633 9.81281 11.06C9.30281 11.3533 8.71615 11.5 8.05281 11.5H5.5V4.5ZM8.04781 10.585C8.51115 10.585 8.92115 10.4783 9.27781 10.265C9.63448 10.0483 9.91115 9.745 10.1078 9.355C10.3045 8.965 10.4028 8.51333 10.4028 8C10.4028 7.48667 10.3045 7.035 10.1078 6.645C9.91115 6.255 9.63448 5.95333 9.27781 5.74C8.92115 5.52333 8.51115 5.415 8.04781 5.415H6.5V10.585H8.04781Z" fill="#C77D55"/>
</svg>
