<svg width="16" height="16" viewBox="0 0 16 16" fill="none" xmlns="http://www.w3.org/2000/svg">
<path d="M14.5 12.5C14.5 13.6046 13.6046 14.5 12.5 14.5C11.3954 14.5 10.5 13.6046 10.5 12.5C10.5 11.3954 11.3954 10.5 12.5 10.5C13.6046 10.5 14.5 11.3954 14.5 12.5Z" stroke="#CED0D6"/>
<path d="M4.5 3.5C4.5 4.60457 3.60457 5.5 2.5 5.5C1.39543 5.5 0.5 4.60457 0.5 3.5C0.5 2.39543 1.39543 1.5 2.5 1.5C3.60457 1.5 4.5 2.39543 4.5 3.5Z" stroke="#CED0D6"/>
<path d="M11 12.5H9.5C8.39543 12.5 7.5 11.6046 7.5 10.5V5.5C7.5 4.39543 6.60457 3.5 5.5 3.5H4" stroke="#CED0D6"/>
</svg>
