<svg width="16" height="16" viewBox="0 0 16 16" fill="none" xmlns="http://www.w3.org/2000/svg">
<path d="M13.0037 14.982C12.6611 14.9493 12.3491 14.8679 12.0677 14.738C11.6946 14.5611 11.4018 14.3151 11.1895 13.9998C10.9805 13.6814 10.8743 13.3163 10.8711 12.9045H12.0966C12.0966 13.1104 12.1497 13.2922 12.2559 13.4498C12.3652 13.6074 12.5164 13.7312 12.7094 13.8213C12.9024 13.9081 13.1244 13.9516 13.3753 13.9516C13.6165 13.9516 13.8288 13.913 14.0122 13.8358C14.1955 13.7553 14.3371 13.6428 14.4368 13.498C14.5365 13.3533 14.5863 13.186 14.5863 12.9962C14.5863 12.7614 14.514 12.5587 14.3692 12.3883C14.2277 12.2146 14.0379 12.1084 13.7999 12.0698L12.6419 11.8768C12.317 11.8221 12.0323 11.7063 11.7878 11.5294C11.5466 11.3525 11.36 11.1322 11.2281 10.8684C11.0995 10.6046 11.0351 10.3151 11.0351 9.99989C11.0351 9.62032 11.1333 9.27936 11.3295 8.97699C11.5257 8.67462 11.7991 8.4382 12.1497 8.26772C12.4093 8.14265 12.694 8.06346 13.0037 8.03014V7H14.0025V8.07648C14.2012 8.11829 14.3878 8.18043 14.5622 8.26289C14.9161 8.42694 15.1911 8.65693 15.3873 8.95287C15.5867 9.2488 15.6881 9.58655 15.6913 9.96612H14.4657C14.4657 9.79242 14.4191 9.63641 14.3258 9.49809C14.2357 9.35977 14.1071 9.25202 13.9398 9.17482C13.7725 9.09762 13.5811 9.05902 13.3656 9.05902C13.1501 9.05902 12.9587 9.09601 12.7914 9.16999C12.6242 9.24398 12.4939 9.34691 12.4006 9.47879C12.3106 9.61068 12.2655 9.76507 12.2655 9.94199C12.2655 10.1479 12.3315 10.3264 12.4633 10.4776C12.5984 10.6255 12.7738 10.7188 12.9893 10.7574L14.1183 10.9408C14.4529 10.9954 14.7504 11.1193 15.0109 11.3123C15.2715 11.5021 15.4725 11.7401 15.6141 12.0264C15.7588 12.3095 15.8312 12.6118 15.8312 12.9335C15.8312 13.3259 15.7267 13.6798 15.5176 13.995C15.3117 14.307 15.0206 14.5531 14.6442 14.7332C14.4448 14.827 14.2309 14.8959 14.0025 14.94V16H13.0037V14.982Z" fill="#CED0D6"/>
<path d="M14.7101 6H12.0039V7.24403C11.9063 7.28046 11.8102 7.32135 11.7158 7.36683L11.7126 7.36839C11.2121 7.61173 10.7941 7.9652 10.4908 8.43263C10.1837 8.90588 10.0353 9.43788 10.0353 9.99989C10.0353 10.4556 10.1293 10.8965 10.3295 11.3068L10.3339 11.3156C10.4413 11.5304 10.5729 11.7271 10.727 11.9045H9.8634L9.87128 12.9124C9.87587 13.5002 10.0305 14.0564 10.3537 14.5487L10.3603 14.5584C10.3664 14.5675 10.3725 14.5765 10.3787 14.5855C9.6361 14.8538 8.83513 15 8 15C4.13401 15 1 11.866 1 8C1 4.13401 4.13401 1 8 1C11.171 1 13.8496 3.10851 14.7101 6Z" fill="#402929"/>
<path d="M10.3787 14.5855C9.6361 14.8538 8.83513 15 8 15C4.13401 15 1 11.866 1 8C1 4.13401 4.13401 1 8 1C11.171 1 13.8496 3.10851 14.7101 6H13.6586C12.8349 3.66962 10.6124 2 8 2C4.68629 2 2 4.68629 2 8C2 11.3137 4.68629 14 8 14C8.68889 14 9.35066 13.8839 9.96682 13.6702C10.0454 13.9792 10.1733 14.2739 10.3537 14.5487L10.3603 14.5584C10.3664 14.5675 10.3725 14.5765 10.3787 14.5855Z" fill="#DB5C5C"/>
</svg>
