<svg width="16" height="16" viewBox="0 0 16 16" fill="none" xmlns="http://www.w3.org/2000/svg">
<path d="M8 14.413C7.47608 13.6639 7.12724 12.8103 7.02848 11.9239C6.88703 10.6542 7.26763 9.35736 8.30368 8.32133C9.3276 7.29744 10.5964 6.8893 11.8682 7.0254C13.0042 7.14696 14.0836 7.69349 14.9819 8.50689C14.9939 8.33948 15 8.17045 15 8C15 4.13401 11.866 1 8 1C4.13401 1 1 4.13401 1 8C1 11.866 4.13401 15 8 15V14.413Z" fill="#45322B"/>
<path d="M9.14645 3.14645C9.34171 2.95118 9.65829 2.95118 9.85355 3.14645L11.8536 5.14645C12.0488 5.34171 12.0488 5.65829 11.8536 5.85355L10.6399 7.06717C10.0856 7.16716 9.54735 7.37976 9.04669 7.71131C8.96044 7.52622 8.99369 7.29921 9.14645 7.14645L10.2929 6H5.5C5.22386 6 5 5.77614 5 5.5C5 5.22386 5.22386 5 5.5 5H10.2929L9.14645 3.85355C8.95118 3.65829 8.95118 3.34171 9.14645 3.14645Z" fill="#C77D55"/>
<path d="M7.23652 10H5.70711L6.85355 8.85355C7.04882 8.65829 7.04882 8.34171 6.85355 8.14645C6.65829 7.95118 6.34171 7.95118 6.14645 8.14645L4.14645 10.1464C4.05268 10.2402 4 10.3674 4 10.5C4 10.6326 4.05268 10.7598 4.14645 10.8536L6.14645 12.8536C6.34171 13.0488 6.65829 13.0488 6.85355 12.8536C7.04882 12.6583 7.04882 12.3417 6.85355 12.1464L5.70711 11H7.01953C7.05145 10.6618 7.12293 10.3266 7.23652 10Z" fill="#C77D55"/>
<path d="M8.45249 14.9862C5.03709 15.212 1.88497 12.9016 1.15245 9.45535C0.348665 5.67384 2.76259 1.95672 6.5441 1.15294C10.3256 0.349154 14.0427 2.76308 14.8465 6.54459C14.9871 7.20616 15.0293 7.86575 14.9828 8.50812C14.6737 8.22804 14.343 7.97956 13.996 7.76915C13.9827 7.43276 13.9407 7.09294 13.8684 6.7525C13.1794 3.51121 9.99331 1.44213 6.75201 2.13109C3.51072 2.82005 1.44164 6.00615 2.1306 9.24744C2.71127 11.9793 5.0658 13.8784 7.73218 13.9955C7.93683 14.3461 8.17917 14.6785 8.45249 14.9862Z" fill="#C77D55"/>
<path fill-rule="evenodd" clip-rule="evenodd" d="M14.5263 9.45338C16.1636 11.0906 16.6154 13.3227 14.9603 14.9778C13.3051 16.6329 10.9876 16.1225 9.42233 14.5573C7.85708 12.9921 7.39145 10.6478 9.01078 9.02845C10.6301 7.40914 12.8891 7.81617 14.5263 9.45338Z" fill="#43454A"/>
<path fill-rule="evenodd" clip-rule="evenodd" d="M14.5263 9.45338C16.1636 11.0906 16.6154 13.3227 14.9603 14.9778C13.3051 16.6329 10.9876 16.1225 9.42233 14.5573C7.85708 12.9921 7.39145 10.6478 9.01078 9.02845C10.6301 7.40914 12.8891 7.81617 14.5263 9.45338ZM13.8192 10.1605C14.518 10.8592 14.9051 11.6277 14.9844 12.3223C15.0442 12.8461 14.9368 13.3752 14.5851 13.8779L10.1121 9.40499C10.602 9.06741 11.1283 8.95763 11.6554 9.01405C12.355 9.08891 13.1269 9.46818 13.8192 10.1605ZM9.40383 10.1109L13.8791 14.5862C13.3735 14.9393 12.8254 15.0473 12.2753 14.9821C11.5564 14.8969 10.7844 14.5051 10.1294 13.8502C9.4809 13.2017 9.09686 12.4265 9.01619 11.7024C8.9545 11.1487 9.06497 10.6036 9.40383 10.1109Z" fill="#CED0D6"/>
</svg>
