<svg width="16" height="16" viewBox="0 0 16 16" fill="none" xmlns="http://www.w3.org/2000/svg">
<path d="M12 8L13.1125 10.8123L16 11.0557L13.8 13.0372L14.4721 16L12 14.4123L9.52786 16L10.2 13.0372L8 11.0557L10.8875 10.8123L12 8Z" fill="#CED0D6"/>
<path d="M14.7263 9.94482C14.9045 9.32736 15 8.67483 15 8C15 4.13401 11.866 1 8 1C4.13401 1 1 4.13401 1 8C1 11.866 4.13401 15 8 15C8.24926 15 8.49548 14.987 8.73801 14.9616L9.09503 13.3879L7.33073 11.7988C7.03451 11.532 6.92506 11.1147 7.05218 10.7368C7.17931 10.359 7.51872 10.0927 7.91598 10.0593L10.1857 9.86794L11.0701 7.63217C11.221 7.25063 11.5897 7 12 7C12.4103 7 12.7789 7.25063 12.9299 7.63217L13.8143 9.86794L14.7263 9.94482Z" fill="#402929"/>
<path d="M8.974 13.9213C8.65699 13.9731 8.33164 14 8 14C4.68629 14 2 11.3137 2 8C2 4.68629 4.68629 2 8 2C11.3137 2 14 4.68629 14 8C14 8.59466 13.9135 9.16912 13.7524 9.71147L13.8143 9.86794L14.7263 9.94482C14.9045 9.32736 15 8.67483 15 8C15 4.13401 11.866 1 8 1C4.13401 1 1 4.13401 1 8C1 11.866 4.13401 15 8 15C8.24926 15 8.49548 14.987 8.73801 14.9616L8.974 13.9213Z" fill="#DB5C5C"/>
</svg>
