<svg width="14" height="14" viewBox="0 0 14 14" fill="none" xmlns="http://www.w3.org/2000/svg">
<path d="M10.874 6C10.4299 4.27477 8.86384 3 7 3C4.79086 3 3 4.79086 3 7C3 8.86384 4.27477 10.4299 6 10.874V11.9C3.71776 11.4367 2 9.41896 2 7C2 4.23858 4.23858 2 7 2C9.41896 2 11.4367 3.71776 11.9 6H10.874Z" fill="#CED0D6"/>
<path fill-rule="evenodd" clip-rule="evenodd" d="M7 8C7 7.44772 7.44772 7 8 7L13 7.00001C13.5523 7.00001 14 7.44772 14 8.00001L14 13C14 13.5523 13.5523 14 13 14L8 14C7.44772 14 7 13.5523 7 13V8ZM8 13V8L13 8V13L8 13Z" fill="#CED0D6"/>
<rect x="9" y="9" width="3" height="3" fill="#57965C"/>
<path d="M12.9495 6C13.5978 5.36474 14 4.47934 14 3.5C14 1.567 12.433 0 10.5 0C8.567 0 7 1.567 7 3.5C7 4.47934 7.40223 5.36474 8.05051 6H12.9495Z" fill="#45322B"/>
<path fill-rule="evenodd" clip-rule="evenodd" d="M12.9495 6C13.5978 5.36474 14 4.47934 14 3.5C14 1.567 12.433 0 10.5 0C8.567 0 7 1.567 7 3.5C7 4.47934 7.40223 5.36474 8.05051 6H10.5H12.9495ZM13 3.5C13 4.88071 11.8807 6 10.5 6C9.11929 6 8 4.88071 8 3.5C8 2.11929 9.11929 1 10.5 1C11.8807 1 13 2.11929 13 3.5Z" fill="#C77D55"/>
<path d="M6 8.05051C5.36474 7.40223 4.47934 7 3.5 7C1.567 7 0 8.567 0 10.5C0 12.433 1.567 14 3.5 14C4.47934 14 5.36474 13.5978 6 12.9495V8.05051Z" fill="#45322B"/>
<path fill-rule="evenodd" clip-rule="evenodd" d="M6 8.05051C5.36474 7.40223 4.47934 7 3.5 7C1.567 7 0 8.567 0 10.5C0 12.433 1.567 14 3.5 14C4.47934 14 5.36474 13.5978 6 12.9495V10.5V8.05051ZM6 10.5C6 9.11929 4.88071 8 3.5 8C2.11929 8 1 9.11929 1 10.5C1 11.8807 2.11929 13 3.5 13C4.88071 13 6 11.8807 6 10.5Z" fill="#C77D55"/>
</svg>
