<svg width="16" height="16" viewBox="0 0 16 16" fill="none" xmlns="http://www.w3.org/2000/svg">
<path d="M7.6683 12.9892C5.06152 12.8184 3 10.65 3 8C3 5.23858 5.23858 3 8 3C10.65 3 12.8184 5.06152 12.9892 7.6683C12.6813 7.81326 12.3489 7.91466 11.9998 7.96457C11.9808 5.77175 10.1973 4 8 4C5.79086 4 4 5.79086 4 8C4 10.1973 5.77175 11.9808 7.96457 11.9998C7.91466 12.3489 7.81326 12.6813 7.6683 12.9892Z" fill="#CED0D6"/>
<circle cx="11.5" cy="4.5" r="3" fill="#45322B" stroke="#C77D55"/>
<circle cx="4.5" cy="11.5" r="3" fill="#45322B" stroke="#C77D55"/>
<path fill-rule="evenodd" clip-rule="evenodd" d="M9 10C9 9.44772 9.44772 9 10 9L15 9.00001C15.5523 9.00001 16 9.44772 16 10L16 15C16 15.5523 15.5523 16 15 16L10 16C9.44772 16 9 15.5523 9 15V10ZM10 15V10L15 10V15L10 15Z" fill="#CED0D6"/>
<rect x="11" y="11" width="3" height="3" fill="#57965C"/>
</svg>
