<svg width="16" height="16" viewBox="0 0 16 16" fill="none" xmlns="http://www.w3.org/2000/svg">
<path d="M5 2C5 1.44772 5.44772 1 6 1H10C10.5523 1 11 1.44772 11 2V5C11 5.55228 10.5523 6 10 6H6C5.44772 6 5 5.55228 5 5V2Z" fill="#EBECF0"/>
<path fill-rule="evenodd" clip-rule="evenodd" d="M6 2H10V5H8H6V2ZM8.5 6H10C10.5523 6 11 5.55228 11 5V2C11 1.44772 10.5523 1 10 1H6C5.44772 1 5 1.44772 5 2V5C5 5.55228 5.44772 6 6 6H7.5V8H3.5C3.22386 8 3 8.22386 3 8.5V12.2929L1.85355 11.1464C1.65829 10.9512 1.34171 10.9512 1.14645 11.1464C0.951184 11.3417 0.951184 11.6583 1.14645 11.8536L3.14645 13.8536C3.34171 14.0488 3.65829 14.0488 3.85355 13.8536L5.85355 11.8536C6.04882 11.6583 6.04882 11.3417 5.85355 11.1464C5.65829 10.9512 5.34171 10.9512 5.14645 11.1464L4 12.2929V9H8H12V12.2929L10.8536 11.1464C10.6583 10.9512 10.3417 10.9512 10.1464 11.1464C9.95118 11.3417 9.95118 11.6583 10.1464 11.8536L12.1464 13.8536C12.3417 14.0488 12.6583 14.0488 12.8536 13.8536L14.8536 11.8536C15.0488 11.6583 15.0488 11.3417 14.8536 11.1464C14.6583 10.9512 14.3417 10.9512 14.1464 11.1464L13 12.2929V8.5C13 8.22386 12.7761 8 12.5 8H8.5V6Z" fill="#6C707E"/>
</svg>
