<svg width="16" height="16" viewBox="0 0 16 16" fill="none" xmlns="http://www.w3.org/2000/svg">
<path d="M5.23263 6.32679L7.89153 4.79161C7.9242 4.77267 7.96129 4.7627 7.99905 4.7627C8.03681 4.7627 8.0739 4.77267 8.10656 4.79161L10.7657 6.32679C10.8322 6.36529 10.8733 6.43617 10.8733 6.51317V9.58398C10.8733 9.66054 10.8322 9.73186 10.7657 9.77036L8.10634 11.3034C8.07368 11.3223 8.03659 11.3323 7.99883 11.3323C7.96107 11.3323 7.92398 11.3223 7.89131 11.3034L5.23263 9.77211C5.16613 9.73361 5.125 9.66273 5.125 9.58573V6.51339C5.125 6.43682 5.16613 6.36529 5.23263 6.32679Z" fill="#9DA0A8"/>
<path d="M14.9134 7.72564L11.7363 2.1987C11.621 1.99877 11.4082 1.85352 11.1772 1.85352H4.82313C4.59235 1.85352 4.37907 2.00095 4.26379 2.20067L1.08666 7.71602C1.02987 7.81526 1 7.92761 1 8.04195C1 8.15629 1.02987 8.26865 1.08666 8.36789L4.26379 13.8476C4.37929 14.0475 4.59235 14.1495 4.82313 14.1495H11.1772C11.4079 14.1495 11.6212 14.0504 11.7365 13.8504L14.9134 8.3598C14.9701 8.26378 15 8.15433 15 8.04283C15 7.93133 14.9701 7.82187 14.9134 7.72586M12.2827 10.3837C12.2827 10.4646 12.2337 10.5401 12.1633 10.5805L8.11641 12.9153C8.08157 12.9353 8.04209 12.9458 8.0019 12.9458C7.96171 12.9458 7.92222 12.9353 7.88738 12.9153L3.83766 10.5805C3.76723 10.5399 3.71801 10.4646 3.71801 10.3837V5.7138C3.719 5.67346 3.7305 5.63409 3.75137 5.59956C3.77224 5.56503 3.80176 5.53655 3.83701 5.51692L7.88388 3.1822C7.91869 3.16221 7.95814 3.15168 7.99829 3.15168C8.03844 3.15168 8.07788 3.16221 8.11269 3.1822L12.1629 5.5167C12.2333 5.55739 12.2832 5.63264 12.2832 5.71358L12.2827 10.3837Z" fill="white"/>
</svg>
