<svg width="16" height="16" viewBox="0 0 16 16" fill="none" xmlns="http://www.w3.org/2000/svg">
<path fill-rule="evenodd" clip-rule="evenodd" d="M9.74691 0.775195C9.8185 0.274069 9.18551 -0.00392066 8.86496 0.387867L1.66866 9.18334C1.40155 9.50981 1.63382 9.99996 2.05564 9.99996H7.00051L6.25412 15.2247C6.18253 15.7259 6.81552 16.0038 7.13607 15.6121L14.3324 6.81658C14.5995 6.49012 14.3672 5.99996 13.9454 5.99996H9.00051L9.74691 0.775195Z" fill="#EDF3FF"/>
<path fill-rule="evenodd" clip-rule="evenodd" d="M8.24506 6.65516C8.05512 6.43616 7.96957 6.14552 8.01056 5.85854L8.50335 2.40901L3.11076 8.99996H7.00051C7.29041 8.99996 7.56603 9.12576 7.75597 9.34476C7.94591 9.56376 8.03146 9.85441 7.99046 10.1414L7.49767 13.5909L12.8903 6.99996H9.00051C8.71062 6.99996 8.435 6.87416 8.24506 6.65516ZM9.74691 0.775195C9.8185 0.274069 9.18551 -0.00392066 8.86496 0.387867L1.66866 9.18334C1.40155 9.50981 1.63382 9.99996 2.05564 9.99996H7.00051L6.25412 15.2247C6.18253 15.7259 6.81552 16.0038 7.13607 15.6121L14.3324 6.81658C14.5995 6.49012 14.3672 5.99996 13.9454 5.99996H9.00051L9.74691 0.775195Z" fill="#3574F0"/>
</svg>
