<svg width="16" height="16" viewBox="0 0 16 16" fill="none" xmlns="http://www.w3.org/2000/svg">
<g clip-path="url(#clip0_14562_20274)">
<path d="M7.03888 9.29872C8.88939 9.29872 10.3895 8.48469 10.3895 7.48054C10.3895 6.47638 8.88939 5.66235 7.03888 5.66235C5.18837 5.66235 3.68823 6.47638 3.68823 7.48054C3.68823 8.48469 5.18837 9.29872 7.03888 9.29872Z" fill="url(#paint0_radial_14562_20274)"/>
<path fill-rule="evenodd" clip-rule="evenodd" d="M4.7193 6.28622C4.12687 6.60769 3.79226 7.03459 3.79226 7.48055C3.79226 7.92651 4.12687 8.35341 4.7193 8.67488C5.30768 8.99416 6.12764 9.19484 7.03902 9.19484C7.9504 9.19484 8.77035 8.99416 9.35873 8.67488C9.95116 8.35341 10.2858 7.92651 10.2858 7.48055C10.2858 7.03459 9.95116 6.60769 9.35873 6.28622C8.77035 5.96694 7.9504 5.76626 7.03902 5.76626C6.12764 5.76626 5.30768 5.96694 4.7193 6.28622ZM4.6202 6.10358C5.24451 5.76481 6.09989 5.55847 7.03902 5.55847C7.97815 5.55847 8.83352 5.76481 9.45784 6.10358C10.0781 6.44016 10.4936 6.92235 10.4936 7.48055C10.4936 8.03875 10.0781 8.52094 9.45784 8.85752C8.83352 9.19629 7.97815 9.40263 7.03902 9.40263C6.09989 9.40263 5.24451 9.19629 4.6202 8.85752C3.99993 8.52094 3.58447 8.03875 3.58447 7.48055C3.58447 6.92235 3.99993 6.44016 4.6202 6.10358Z" fill="#DD507B"/>
<path d="M4.90138 9.22959C4.5419 9.22959 3.68891 8.98336 3.34449 8.84933C3.22346 8.80258 3.01566 8.69505 2.79592 8.58128C2.238 8.29297 1.82242 8.08777 1.56943 8.07011C1.30969 7.99998 0.311768 6.72985 0.311768 6.00206C0.311768 5.41712 0.575664 4.96985 1.0967 4.67219C1.16787 4.63167 1.21359 4.62284 1.23904 4.62284C1.3019 4.62284 1.33774 4.69764 1.35021 4.72985C1.3819 4.81193 1.46034 4.86284 1.54398 4.86284C1.56631 4.86284 1.58865 4.8592 1.61047 4.85193C1.6832 4.82751 1.73359 4.76621 1.74761 4.69556C1.75333 4.69453 1.75852 4.69349 1.76372 4.69245C1.79696 4.68569 1.83281 4.67842 1.86813 4.66647C1.94346 4.70959 2.06813 4.76725 2.27436 4.76725C2.31436 4.76725 2.35696 4.76518 2.40008 4.7605C2.73774 4.72673 2.89618 4.51323 2.99073 4.38595C3.00735 4.36362 3.02865 4.33505 3.04423 4.31738C3.06969 4.33245 3.11021 4.36518 3.13878 4.38803C3.26242 4.48777 3.44943 4.63842 3.74553 4.63842C3.80735 4.63842 3.87177 4.63167 3.93722 4.61868C3.95125 4.61608 3.9632 4.61401 3.97359 4.61245C3.97359 4.61349 3.97359 4.61401 3.97359 4.61453C3.96735 4.8805 4.07644 5.02284 4.29826 5.0379C4.30709 5.03842 4.31592 5.03894 4.32579 5.03894C4.41514 5.03894 4.54294 5.01193 4.7367 4.97037C5.12527 4.88777 5.77566 4.74907 6.56839 4.74907C7.36112 4.74907 8.06605 4.87738 8.76112 5.12985C8.95385 5.19998 9.04995 5.35063 9.10398 5.47427C9.0141 5.5231 8.87852 5.59063 8.75385 5.65297C7.60216 6.22751 6.3632 6.90751 6.23748 7.70751C6.08735 8.66595 5.20995 9.21297 4.93411 9.22803C4.92424 9.22855 4.91333 9.22907 4.90242 9.22907L4.90138 9.22959Z" fill="url(#paint1_radial_14562_20274)"/>
<path d="M3.0816 4.60827C3.2229 4.7158 3.43485 4.84671 3.74498 4.84671C3.75953 4.84671 3.77407 4.84671 3.78914 4.84567C3.87693 5.18801 4.17927 5.2384 4.28368 5.24567C4.29667 5.24671 4.31018 5.24723 4.32524 5.24723C4.43641 5.24723 4.56576 5.2197 4.77927 5.17398C5.16005 5.09294 5.79641 4.95736 6.56732 4.95736C7.30342 4.95736 8.01719 5.081 8.68888 5.32567C8.73459 5.34229 8.77199 5.36619 8.80368 5.3958C8.75641 5.4197 8.70706 5.44411 8.65979 5.46801C7.46186 6.06541 6.17199 6.77866 6.03121 7.67632C5.89667 8.53242 5.10134 9.00515 4.9216 9.02178C4.91537 9.02178 4.90862 9.02178 4.90134 9.02178C4.59277 9.02178 3.78966 8.79996 3.41979 8.65606C3.30914 8.61294 3.10602 8.50801 2.89147 8.39736C2.32264 8.10385 1.91901 7.90437 1.62862 7.86801C1.52784 7.80515 1.26082 7.54281 0.978227 7.10749C0.696149 6.67268 0.520565 6.24931 0.520565 6.00255C0.520565 5.50489 0.742903 5.12255 1.18134 4.86437C1.25251 5.00723 1.39849 5.09398 1.55329 5.09398C1.59797 5.09398 1.64316 5.08671 1.68784 5.07165C1.77719 5.041 1.8494 4.98333 1.89823 4.91009C1.99018 4.94541 2.11381 4.97502 2.27537 4.97502C2.32212 4.97502 2.37147 4.97242 2.42186 4.96723C2.76628 4.93294 2.96316 4.75268 3.08316 4.60775M3.03485 4.10229C3.0281 4.10229 3.02134 4.10229 3.01459 4.10333C2.82134 4.12567 2.79485 4.51217 2.38082 4.55372C2.3429 4.55736 2.30758 4.55944 2.27537 4.55944C2.00524 4.55944 1.93563 4.43892 1.87433 4.43892C1.86394 4.43892 1.85355 4.44255 1.84264 4.45087C1.76316 4.51061 1.49251 4.47476 1.54498 4.65554C1.55018 4.66957 1.55277 4.6784 1.55277 4.6784C1.54966 4.67061 1.54706 4.66281 1.54498 4.65554C1.52057 4.59165 1.43485 4.41554 1.24005 4.41554C1.17199 4.41554 1.09095 4.43684 0.994331 4.49191C0.560045 4.74022 0.10498 5.19528 0.10498 6.00204C0.10498 6.80879 1.20108 8.25658 1.55277 8.27736C1.90446 8.29814 2.89719 8.89814 3.26966 9.04255C3.62862 9.18229 4.5055 9.43684 4.90186 9.43684C4.91693 9.43684 4.93147 9.43684 4.94498 9.4358C5.31745 9.41502 6.27693 8.79476 6.44212 7.74022C6.60732 6.68567 9.39225 5.67113 9.35121 5.54697C9.30966 5.42281 9.20576 5.07061 8.83173 4.93502C8.01147 4.63684 7.23745 4.54178 6.56836 4.54178C5.39901 4.54178 4.54862 4.83165 4.32628 4.83165C4.3216 4.83165 4.31693 4.83165 4.31277 4.83165C4.03173 4.81294 4.34342 4.40204 4.01979 4.40204C3.98602 4.40204 3.94602 4.40619 3.89719 4.41606C3.84264 4.42697 3.79277 4.43165 3.74654 4.43165C3.3642 4.43165 3.23121 4.10333 3.03485 4.10281V4.10229Z" fill="#FFE83E"/>
<path fill-rule="evenodd" clip-rule="evenodd" d="M3.40935 4.20538C3.52195 4.28887 3.65506 4.3582 3.87521 4.31417C4.00881 4.28745 4.12339 4.28951 4.20151 4.35466C4.28079 4.42077 4.28455 4.52123 4.2848 4.57681C4.28488 4.5926 4.28451 4.60839 4.28417 4.62251L4.28416 4.62302C4.28382 4.63779 4.28352 4.6508 4.28357 4.66331C4.28368 4.6892 4.28542 4.70545 4.28831 4.71601C4.28925 4.71947 4.29007 4.72144 4.29058 4.72245C4.29297 4.72368 4.30066 4.7268 4.31811 4.72797C4.34098 4.7295 4.3913 4.72337 4.48085 4.70598C4.53502 4.69547 4.59755 4.68214 4.66941 4.66684C4.71151 4.65787 4.75681 4.64822 4.80551 4.63805C5.0667 4.58351 5.41174 4.5171 5.81973 4.47631C6.63581 4.39472 7.70468 4.41554 8.86616 4.83789C9.27668 4.98676 9.39999 5.36521 9.44401 5.50029C9.44571 5.50552 9.4473 5.51039 9.44878 5.51487C9.46642 5.56824 9.43922 5.60999 9.42987 5.62284C9.4177 5.63955 9.40261 5.6528 9.39084 5.6622C9.3662 5.68185 9.33263 5.70283 9.29545 5.7242C9.21983 5.76764 9.11098 5.82294 8.98262 5.88717C8.95327 5.90186 8.92278 5.91707 8.89129 5.93278C8.64506 6.05564 8.337 6.20935 8.02392 6.38573C7.67031 6.58493 7.31496 6.81052 7.03901 7.04919C6.75944 7.29098 6.57901 7.53132 6.54368 7.7568C6.45672 8.31193 6.16101 8.75055 5.84127 9.05197C5.68126 9.20281 5.5138 9.32072 5.36053 9.40273C5.20959 9.48349 5.06426 9.5338 4.94955 9.54005C4.74547 9.55117 4.40502 9.48452 4.08084 9.40213C3.75214 9.3186 3.42212 9.21403 3.23101 9.13993C3.09408 9.08684 2.87671 8.97466 2.64326 8.85418C2.54859 8.80532 2.45127 8.75509 2.35559 8.70689C2.18682 8.62185 2.02088 8.54179 1.87619 8.48188C1.72778 8.42042 1.61425 8.38564 1.54556 8.38158C1.4727 8.37728 1.39776 8.33904 1.33019 8.29321C1.2594 8.2452 1.18268 8.17904 1.10387 8.10073C0.945988 7.94384 0.771911 7.73034 0.610125 7.49356C0.448241 7.25663 0.296746 6.9936 0.185346 6.73684C0.0747174 6.48187 0 6.22488 0 6.00254C0 5.14739 0.486012 4.66276 0.941677 4.40222C1.06323 4.33272 1.1732 4.30528 1.27197 4.31315C1.37165 4.32109 1.44878 4.36413 1.5052 4.41539C1.51493 4.42424 1.52407 4.43334 1.53263 4.44257C1.55711 4.4279 1.58201 4.41845 1.60238 4.41189C1.63606 4.40105 1.6749 4.39314 1.70513 4.38698C1.71327 4.38532 1.72079 4.38379 1.72741 4.38237C1.76381 4.37453 1.77633 4.36922 1.77846 4.36832C1.77874 4.36819 1.77878 4.3682 1.77878 4.3682L1.84104 4.45138L1.77845 4.36845C1.80237 4.35039 1.832 4.33715 1.86687 4.33581C1.89949 4.33455 1.92651 4.3442 1.94483 4.35257C1.96206 4.36043 1.97901 4.37078 1.99149 4.3784L1.99437 4.38016C2.00781 4.38836 2.02031 4.39599 2.03472 4.40373C2.08887 4.4328 2.18192 4.47009 2.36832 4.45138C2.53575 4.43457 2.62292 4.35165 2.69681 4.258C2.71154 4.23933 2.72506 4.22111 2.7391 4.20218C2.74363 4.19606 2.74822 4.18988 2.75293 4.18357C2.77137 4.15888 2.79146 4.13258 2.81301 4.1087C2.85578 4.06132 2.9152 4.01103 3.00049 4.00116M1.55616 4.67711C1.65158 4.64983 1.65155 4.64972 1.65155 4.64972L1.65152 4.6496L1.65144 4.64933L1.65124 4.64866L1.6507 4.64686C1.65027 4.64544 1.6497 4.64362 1.64898 4.64142C1.64755 4.63703 1.64553 4.6311 1.64287 4.62394C1.64255 4.6231 1.64222 4.62223 1.64189 4.62135C1.64175 4.62074 1.64163 4.62017 1.64152 4.61963C1.64589 4.61725 1.65351 4.61373 1.66606 4.60969C1.68776 4.6027 1.71055 4.59803 1.73836 4.59234C1.74856 4.59025 1.75943 4.58803 1.77117 4.5855C1.79797 4.57972 1.83933 4.57068 1.87615 4.55147C1.87852 4.5529 1.88117 4.55451 1.88417 4.55633C1.88504 4.55687 1.88594 4.55742 1.88686 4.55798C1.89981 4.56589 1.91678 4.57626 1.93644 4.58681C2.02698 4.63541 2.16146 4.68098 2.38908 4.65813C2.63568 4.63338 2.76877 4.50227 2.85994 4.3867C2.87678 4.36536 2.89283 4.34372 2.90722 4.32432C2.91144 4.31862 2.91552 4.31312 2.91944 4.30788C2.93753 4.28364 2.95269 4.26407 2.96726 4.24793C2.99674 4.21527 3.01309 4.20888 3.0244 4.20757C3.04597 4.20507 3.07222 4.21151 3.11778 4.24229C3.1404 4.25758 3.16431 4.27641 3.19271 4.29929C3.19624 4.30213 3.19984 4.30504 3.20351 4.30799C3.22832 4.32802 3.25608 4.35042 3.28559 4.3723C3.42714 4.47726 3.61923 4.57728 3.91596 4.51793C3.97495 4.50613 4.01407 4.50436 4.03908 4.50678C4.05122 4.50796 4.05879 4.51002 4.06311 4.51162C4.06523 4.51241 4.06657 4.51309 4.06733 4.51352C4.06807 4.51395 4.06843 4.51424 4.06843 4.51424L4.06854 4.51439C4.06861 4.51449 4.06872 4.51465 4.06886 4.5149C4.06945 4.5159 4.07074 4.51847 4.07211 4.52359C4.07516 4.53494 4.0769 4.55179 4.07701 4.57776C4.07707 4.59034 4.07677 4.6034 4.07643 4.61815L4.07641 4.61895C4.07608 4.63297 4.07571 4.64861 4.07578 4.6642C4.07591 4.69508 4.07763 4.73333 4.08786 4.77078C4.09857 4.80997 4.11973 4.85233 4.16093 4.88499C4.20149 4.91714 4.25122 4.93175 4.30422 4.9353C4.35889 4.93896 4.43652 4.92626 4.52046 4.90997C4.57629 4.89912 4.64208 4.88511 4.71556 4.86946C4.75735 4.86056 4.80163 4.85113 4.84798 4.84145C5.10612 4.78755 5.443 4.7228 5.8404 4.68307C6.6351 4.60362 7.6709 4.62436 8.79514 5.03317L8.79524 5.03321C9.07391 5.13422 9.18038 5.37453 9.23143 5.52035C9.22069 5.52715 9.2076 5.53502 9.19193 5.54403C9.12245 5.58395 9.01917 5.63652 8.88964 5.70134C8.86049 5.71593 8.83013 5.73108 8.79866 5.74677C8.55272 5.86948 8.23987 6.02557 7.92193 6.20469C7.56378 6.40645 7.19449 6.63999 6.90308 6.89202C6.6153 7.14092 6.38567 7.42286 6.33839 7.72465C6.26016 8.22407 5.99328 8.62311 5.69873 8.90078C5.55159 9.03948 5.399 9.14648 5.26249 9.21952C5.12366 9.2938 5.00951 9.32869 4.93825 9.33257C4.77037 9.34171 4.4594 9.28394 4.13202 9.20074C3.80916 9.11869 3.48749 9.01651 3.30613 8.94619C3.18013 8.89734 2.98001 8.79406 2.75267 8.67673C2.65525 8.62644 2.55282 8.57358 2.44909 8.52132C2.27916 8.4357 2.10769 8.35284 1.95569 8.2899C1.80741 8.22849 1.66498 8.18048 1.55782 8.17415C1.54275 8.17326 1.50651 8.16172 1.44682 8.12124C1.39036 8.08294 1.32375 8.02628 1.25034 7.95334C1.10378 7.80771 0.937894 7.60494 0.781693 7.37633C0.62559 7.14787 0.481078 6.89639 0.375969 6.65414C0.270088 6.4101 0.207792 6.18358 0.207792 6.00254C0.207792 5.24419 0.63191 4.8187 1.04482 4.58261C1.14041 4.52795 1.20881 4.51657 1.25546 4.52028C1.3012 4.52393 1.33654 4.54291 1.36545 4.56918C1.39549 4.59647 1.41764 4.63101 1.43258 4.66089C1.43773 4.67118 1.44179 4.68045 1.44485 4.688C1.44785 4.69797 1.45135 4.70787 1.45529 4.71766C1.47385 4.76384 1.52256 4.79037 1.57142 4.78091C1.62029 4.77146 1.65558 4.72868 1.65558 4.67891V4.67839C1.65558 4.66873 1.65424 4.65912 1.65158 4.64983L1.55616 4.67711ZM1.64088 4.61244C1.64088 4.61244 1.64095 4.613 1.64076 4.61393C1.64073 4.61287 1.64088 4.61244 1.64088 4.61244ZM4.29085 4.72294C4.29105 4.72317 4.29114 4.72335 4.29114 4.72335C4.29114 4.72335 4.29103 4.72324 4.29085 4.72294ZM3.40935 4.20538C3.38352 4.18623 3.35931 4.1667 3.33428 4.14651L3.40935 4.20538ZM3.33428 4.14651C3.33055 4.1435 3.32681 4.14048 3.32304 4.13745L3.33428 4.14651ZM3.32304 4.13745C3.2949 4.11479 3.26482 4.09086 3.23412 4.07012L3.32304 4.13745ZM3.23412 4.07012C3.17305 4.02885 3.09526 3.99018 3.00049 4.00116L3.23412 4.07012Z" fill="#DD507B"/>
<path d="M6.49607 6.75738C8.41084 6.75738 9.96308 6.19617 9.96308 5.50387C9.96308 4.81158 8.41084 4.25037 6.49607 4.25037C4.58129 4.25037 3.02905 4.81158 3.02905 5.50387C3.02905 6.19617 4.58129 6.75738 6.49607 6.75738Z" fill="url(#paint2_radial_14562_20274)"/>
<path d="M6.59737 5.71434C6.50854 6.22291 5.92205 8.25979 5.61036 8.62343C5.33036 8.95018 4.29244 8.13928 3.79218 8.052C3.15893 7.94187 2.47737 7.51226 2.02594 7.27278C1.3262 6.90135 1.2488 5.71434 1.19737 6.16629C1.14282 6.64941 1.82127 4.71746 3.42854 5.03902C4.20776 5.19486 6.72568 4.9772 6.59737 5.71434Z" fill="url(#paint3_radial_14562_20274)"/>
<path d="M14.1819 12.0519C14.4255 9.42182 12.1652 6.36052 11.7403 5.76623C11.6899 5.69558 11.6935 5.2 11.6883 5.1948C11.6728 5.14649 10.6494 4.25974 9.87016 5.14286C9.77926 5.02234 9.05094 5.49662 9.09094 5.50649C9.29874 5.55844 7.6364 4.31169 7.22081 5.71429C7.08471 6.17351 6.89354 6.46649 6.85718 6.96104C7.01302 13.6104 11.1169 11.6883 11.1169 11.6883C11.1169 11.6883 12.6302 14.3174 12.7273 14.1818C13.5065 13.0909 12.052 11.6883 12.052 11.6883C12.6317 12.5029 14.2312 14.401 14.8572 14.4935C14.8572 14.4935 13.8702 13.039 13.3507 12.0519C14.0068 12.2842 15.265 14.1927 16 13.5065C16 13.5065 14.1632 12.2561 14.1819 12.0519Z" fill="url(#paint4_radial_14562_20274)"/>
<path fill-rule="evenodd" clip-rule="evenodd" d="M8.50553 8.62436C8.56239 8.61668 8.61471 8.65655 8.6224 8.71341C8.67457 9.09957 8.7191 9.20115 8.80195 9.27651C8.84709 9.31757 8.90598 9.35296 9.00068 9.40986C9.00595 9.41303 9.01134 9.41627 9.01684 9.41957C9.11809 9.48046 9.24753 9.55974 9.41274 9.68301L9.41281 9.68307C9.43359 9.69861 9.46786 9.72244 9.51268 9.75362C9.68382 9.87267 10.0089 10.0988 10.3252 10.379C10.5258 10.5567 10.727 10.7594 10.8888 10.976C11.0499 11.1919 11.1763 11.4274 11.2192 11.6703C11.2291 11.7268 11.1914 11.7807 11.1349 11.7907C11.0784 11.8006 11.0245 11.7629 11.0145 11.7064C10.9795 11.5077 10.8731 11.3024 10.7223 11.1003C10.572 10.899 10.3819 10.7067 10.1874 10.5345C9.88278 10.2647 9.57749 10.0521 9.40264 9.93036C9.35309 9.89585 9.31401 9.86864 9.28839 9.8495C9.1313 9.73228 9.00862 9.6571 8.90976 9.59765C8.90181 9.59287 8.89394 9.58815 8.88615 9.58348C8.7999 9.53177 8.72322 9.4858 8.66212 9.43022C8.51639 9.29765 8.46768 9.12027 8.41647 8.74123C8.40879 8.68437 8.44866 8.63204 8.50553 8.62436Z" fill="#DD507B"/>
<path fill-rule="evenodd" clip-rule="evenodd" d="M9.2194 8.36734C9.27475 8.35223 9.33187 8.38487 9.34698 8.44022C9.35067 8.45375 9.36211 8.47946 9.38738 8.51962C9.41172 8.55831 9.44535 8.60492 9.48804 8.6592C9.57339 8.76772 9.69065 8.90144 9.83182 9.05519C10.029 9.26993 10.2693 9.51993 10.5289 9.79006C10.6413 9.90697 10.7572 10.0277 10.8749 10.1509C11.2635 10.5577 11.6692 10.9909 12.0171 11.401C12.3637 11.8096 12.6584 12.2014 12.8202 12.525C12.8459 12.5763 12.8251 12.6387 12.7737 12.6644C12.7224 12.6901 12.66 12.6693 12.6343 12.6179C12.4844 12.3181 12.2037 11.9422 11.8587 11.5355C11.515 11.1303 11.1128 10.7008 10.7247 10.2944C10.6083 10.1726 10.4931 10.0527 10.3811 9.93614C10.1206 9.66508 9.87761 9.41229 9.67876 9.19573C9.53651 9.04081 9.41502 8.90247 9.32471 8.78766C9.27957 8.73027 9.24115 8.67739 9.21151 8.63028C9.1828 8.58466 9.15834 8.53828 9.14651 8.49492C9.13141 8.43956 9.16404 8.38244 9.2194 8.36734Z" fill="#DD507B"/>
<path fill-rule="evenodd" clip-rule="evenodd" d="M11.6441 7.28504C11.666 7.23199 11.7267 7.2067 11.7797 7.22857C11.9961 7.31775 12.1052 7.51549 12.1872 7.69671C12.207 7.74054 12.2242 7.78081 12.2409 7.82001C12.2622 7.86978 12.2827 7.91784 12.307 7.96929C12.3478 8.05567 12.3905 8.1312 12.4426 8.19229C13.0561 8.91246 13.3985 9.90583 13.588 10.7099C13.6832 11.1134 13.7406 11.4725 13.7742 11.7309C13.791 11.8601 13.8019 11.9642 13.8086 12.0363C13.812 12.0723 13.8143 12.1003 13.8157 12.1195C13.8165 12.129 13.817 12.1364 13.8173 12.1414L13.8177 12.1471L13.8178 12.1487L13.8179 12.1492C13.8179 12.1493 13.8179 12.1493 13.7142 12.1558L13.8179 12.1493C13.8215 12.2066 13.7779 12.2559 13.7207 12.2595C13.6634 12.2631 13.6141 12.2196 13.6105 12.1623M13.6105 12.1623L13.6105 12.162L13.6104 12.1608L13.6101 12.1558C13.6097 12.1513 13.6092 12.1445 13.6085 12.1354C13.6072 12.1173 13.6049 12.0904 13.6017 12.0555C13.5952 11.9857 13.5846 11.8841 13.5681 11.7577C13.5352 11.5047 13.479 11.1527 13.3858 10.7576C13.1987 9.96421 12.8658 9.00952 12.2845 8.32709M11.6441 7.28504C11.6222 7.33809 11.6475 7.39882 11.7006 7.42069L11.6441 7.28504ZM11.7006 7.42069C11.8358 7.47644 11.917 7.60363 11.9979 7.78241L11.7006 7.42069ZM11.9979 7.78241C12.0131 7.81595 12.0295 7.85419 12.0464 7.89372L11.9979 7.78241ZM12.0464 7.89372C12.0702 7.9491 12.095 8.00699 12.1191 8.05802L12.0464 7.89372ZM12.1191 8.05802C12.163 8.15104 12.215 8.24559 12.2845 8.32709L12.1191 8.05802Z" fill="#DD507B"/>
<path d="M9.62793 8.42595C10.2264 8.62907 12.7755 10.8098 12.9349 12.0519C13.0944 13.294 11.6882 14.1298 11.6882 14.1298C11.6882 14.1298 13.2399 13.7319 13.6103 12.6234C13.9697 11.548 12.8981 10.173 12.2077 9.35062C11.5173 8.52829 10.6492 7.74023 10.6492 7.74023" fill="url(#paint5_radial_14562_20274)"/>
<path fill-rule="evenodd" clip-rule="evenodd" d="M10.5725 7.67041C10.611 7.62793 10.6767 7.62476 10.7192 7.66332L10.6494 7.74025L10.5796 7.81717C10.5371 7.77861 10.5339 7.7129 10.5725 7.67041ZM13.709 12.6563C13.5114 13.2478 13.0028 13.6409 12.5604 13.8834C12.3375 14.0057 12.1268 14.0921 11.9719 14.1481C11.8943 14.1761 11.8305 14.1965 11.7858 14.21C11.7635 14.2168 11.7459 14.2218 11.7337 14.2252C11.7276 14.2269 11.7229 14.2282 11.7196 14.2291L11.7158 14.2301L11.7147 14.2304L11.7142 14.2305C11.7142 14.2305 11.7142 14.2305 11.6884 14.1299L11.7142 14.2305C11.6641 14.2433 11.6122 14.2174 11.5924 14.1697C11.5726 14.122 11.5908 14.067 11.6352 14.0406M11.6353 14.0405L11.6358 14.0402L11.6383 14.0387C11.6406 14.0373 11.6442 14.0351 11.649 14.0321C11.6585 14.0261 11.6728 14.017 11.6911 14.0049C11.7276 13.9807 11.7802 13.9444 11.8429 13.897C11.9687 13.8019 12.1343 13.6629 12.2947 13.4867C12.6175 13.1322 12.9061 12.6422 12.8321 12.0652C12.7955 11.7807 12.6187 11.4287 12.3505 11.05C12.0843 10.6742 11.7364 10.2834 11.3731 9.92312C11.0099 9.56306 10.6334 9.2354 10.3112 8.98566C10.1501 8.86077 10.0034 8.756 9.87945 8.67664C9.7537 8.59613 9.6571 8.54552 9.5947 8.52435C9.54037 8.50591 9.51127 8.44691 9.52971 8.39257C9.54815 8.33824 9.60715 8.30914 9.66149 8.32758C9.7487 8.35718 9.86267 8.41916 9.99149 8.50164C10.1221 8.58527 10.274 8.6939 10.4385 8.82143C10.7676 9.07653 11.1505 9.40978 11.5194 9.77556C11.888 10.1411 12.2447 10.5412 12.52 10.9299C12.7933 11.3157 12.9949 11.7021 13.0382 12.0387C13.1236 12.7038 12.7888 13.2527 12.4484 13.6266C12.3954 13.6848 12.342 13.7391 12.2896 13.7893C12.3452 13.7624 12.4024 13.7331 12.4606 13.7012C12.8866 13.4676 13.3391 13.1075 13.5119 12.5904C13.6776 12.0946 13.5168 11.5151 13.2111 10.941C12.9074 10.3703 12.473 9.82809 12.1283 9.41744C11.786 9.00973 11.3989 8.60965 11.0967 8.31096C10.9457 8.16175 10.8163 8.03815 10.7246 7.9519C10.6788 7.90878 10.6424 7.87501 10.6176 7.85206C10.6051 7.84059 10.5956 7.83182 10.5892 7.82595L10.5819 7.81932L10.5796 7.81717L10.6494 7.74025C10.7192 7.66332 10.7192 7.66331 10.7192 7.66332L10.7193 7.66338L10.7219 7.66575L10.7295 7.67266C10.7361 7.67872 10.7459 7.68769 10.7585 7.69937C10.7838 7.72274 10.8207 7.75696 10.867 7.80057C10.9597 7.88778 11.0904 8.01258 11.2428 8.16318C11.5472 8.46409 11.9393 8.86921 12.2874 9.28384C12.633 9.69553 13.0797 10.252 13.3945 10.8433C13.7075 11.4311 13.9027 12.0768 13.709 12.6563" fill="#DD507B"/>
<path d="M9.76626 8C9.64158 8.61974 10.0712 11.3423 11.065 12.1039C12.0587 12.8655 13.6104 14.1818 13.6104 14.1818C13.6104 14.1818 12.6234 13.8701 11.1169 13.2468C10.0691 12.813 9.50652 11.7403 9.09093 11.1169L8.25977 8.41558" fill="url(#paint6_radial_14562_20274)"/>
<path fill-rule="evenodd" clip-rule="evenodd" d="M9.78667 7.89818C9.84292 7.9095 9.87935 7.96427 9.86803 8.02053C9.84027 8.15854 9.84187 8.43105 9.88005 8.78447C9.9178 9.1339 9.99 9.55133 10.0968 9.9733C10.2037 10.3955 10.3446 10.8197 10.5189 11.1837C10.694 11.5495 10.8985 11.8455 11.1281 12.0215C11.6266 12.4035 12.2643 12.9241 12.7766 13.3485C13.0329 13.5608 13.2581 13.7493 13.4192 13.8847C13.4998 13.9525 13.5643 14.0069 13.6088 14.0444C13.631 14.0632 13.6482 14.0777 13.6598 14.0876L13.6775 14.1026L13.6775 14.1026C13.6775 14.1026 13.6775 14.1026 13.6103 14.1819C13.579 14.2809 13.579 14.2809 13.579 14.2809L13.5782 14.2807L13.576 14.2799L13.5672 14.2771C13.5594 14.2747 13.5479 14.271 13.5328 14.266C13.5026 14.2562 13.4579 14.2415 13.3995 14.2219C13.2828 14.1827 13.1117 14.1241 12.8935 14.0459C12.457 13.8896 11.8321 13.6552 11.0771 13.3428C10.5312 13.1168 10.1155 12.7259 9.78596 12.3183C9.54564 12.0209 9.34641 11.708 9.17721 11.4422C9.11583 11.3458 9.05841 11.2555 9.00441 11.1745C8.99884 11.1662 8.99451 11.1571 8.99155 11.1475L8.16038 8.44617C8.14351 8.39133 8.17429 8.33319 8.22913 8.31632C8.28397 8.29944 8.34211 8.33022 8.35899 8.38506L9.18572 11.0719C9.24122 11.1556 9.29847 11.2455 9.35848 11.3398C9.52614 11.6032 9.71526 11.9002 9.94757 12.1876C10.2652 12.5806 10.6547 12.943 11.1566 13.1508C11.9081 13.4618 12.5299 13.6949 12.9636 13.8503C13.0195 13.8703 13.0723 13.889 13.1218 13.9065C12.985 13.7919 12.822 13.6559 12.644 13.5085C12.132 13.0843 11.4969 12.5659 11.0017 12.1864C10.7344 11.9816 10.5125 11.6517 10.3315 11.2734C10.1496 10.8934 10.0045 10.4554 9.8954 10.0243C9.78619 9.59296 9.71226 9.16594 9.67346 8.80678C9.63509 8.45161 9.62975 8.1514 9.66432 7.97954C9.67564 7.92329 9.73042 7.88686 9.78667 7.89818ZM13.6103 14.1819L13.579 14.2809C13.6262 14.2958 13.6774 14.2754 13.7013 14.2321C13.7252 14.1888 13.7153 14.1346 13.6775 14.1026L13.6103 14.1819Z" fill="#DD507B"/>
<path fill-rule="evenodd" clip-rule="evenodd" d="M9.15198 5.42249C9.152 5.42251 9.15203 5.42252 9.09092 5.50655C9.16081 5.42967 9.16082 5.42968 9.16083 5.4297L9.16088 5.42973L9.161 5.42985L9.1614 5.43021L9.16281 5.4315C9.16401 5.43261 9.16574 5.4342 9.16796 5.43625C9.17239 5.44036 9.17878 5.44633 9.18684 5.45397C9.20294 5.46923 9.22573 5.49119 9.25286 5.51831C9.30696 5.57241 9.37898 5.64775 9.44969 5.73193C9.51991 5.81552 9.59143 5.91088 9.64245 6.00487C9.69085 6.09402 9.73284 6.20331 9.71228 6.30614C9.70102 6.36241 9.64629 6.3989 9.59002 6.38765C9.53376 6.37639 9.49727 6.32166 9.50852 6.26539C9.51393 6.23836 9.50397 6.18531 9.45984 6.10401C9.41833 6.02754 9.35673 5.94433 9.29058 5.86558C9.22493 5.78743 9.15734 5.71666 9.10593 5.66524C9.08029 5.6396 9.05885 5.61895 9.0439 5.60479C9.03643 5.59771 9.0306 5.59226 9.02669 5.58864C9.02617 5.58815 9.02568 5.5877 9.02523 5.58729C9.0234 5.58598 9.02103 5.5843 9.01815 5.58227C9.01014 5.57663 8.99817 5.56829 8.98272 5.55779C8.95178 5.53677 8.90697 5.50716 8.852 5.47315C8.74169 5.4049 8.59218 5.32001 8.43288 5.2513C8.27202 5.18191 8.10914 5.13253 7.97003 5.12825C7.83384 5.12406 7.73393 5.16246 7.66954 5.25444C7.58368 5.37709 7.48415 5.48845 7.38871 5.59522C7.37829 5.60688 7.36791 5.61849 7.35761 5.63005C7.25133 5.74932 7.15109 5.86536 7.06852 5.99686C6.90756 6.2532 6.80813 6.57705 6.90726 7.0975C6.918 7.15386 6.88101 7.20826 6.82464 7.219C6.76828 7.22974 6.71388 7.19274 6.70314 7.13638C6.59448 6.56592 6.70285 6.18847 6.89254 5.88636C6.98529 5.73864 7.09609 5.61118 7.20248 5.49181C7.21274 5.48028 7.22296 5.46885 7.23312 5.45748C7.3298 5.34925 7.42096 5.24721 7.49931 5.13528C7.61674 4.96752 7.79605 4.91501 7.97642 4.92056C8.15387 4.92602 8.34488 4.98703 8.51519 5.0605C8.68706 5.13464 8.84599 5.22508 8.96133 5.29644C9.01918 5.33224 9.06649 5.3635 9.09948 5.38591C9.11599 5.39712 9.12893 5.40613 9.13784 5.41241C9.14229 5.41555 9.14574 5.41801 9.14813 5.41971L9.1509 5.42171L9.15167 5.42226L9.1519 5.42243L9.15198 5.42249ZM9.09092 5.50655L9.16081 5.42967C9.15801 5.42713 9.15508 5.42474 9.15203 5.42252L9.09092 5.50655Z" fill="#DD507B"/>
<path d="M9.50491 6.62963C9.42855 7.15742 9.00101 7.5969 8.37867 7.5969C7.75634 7.5969 7.25244 7.16365 7.25244 6.62963C7.25244 6.0956 7.36673 5.66235 8.37867 5.66235C9.00049 5.66235 9.53764 6.40105 9.50491 6.62963Z" fill="#DD507B"/>
<path d="M9.20266 6.58541C9.14656 6.98905 8.83435 7.32463 8.37929 7.32463C7.92422 7.32463 7.55591 6.99372 7.55591 6.58541C7.55591 6.1771 7.63954 5.84619 8.37929 5.84619C8.83383 5.84619 9.22656 6.41087 9.20266 6.58541Z" fill="url(#paint7_radial_14562_20274)"/>
<path d="M8.92559 6.6509C8.87052 7.00467 8.53234 7.11791 8.30585 6.827C8.1126 6.57869 7.91 7.1496 7.91312 6.49402C7.91468 6.13869 8.23936 5.8883 8.51884 5.93194C8.79832 5.97558 8.98065 6.29713 8.92559 6.65142V6.6509Z" fill="#030107"/>
<path fill-rule="evenodd" clip-rule="evenodd" d="M8.50686 6.00888C8.27639 5.97289 7.99244 6.18474 7.99108 6.49431L7.99108 6.49434C7.9907 6.5747 7.9935 6.63398 7.9986 6.67718C8.00216 6.70735 8.00657 6.72703 8.01047 6.7394C8.01883 6.73591 8.0265 6.73218 8.03605 6.72753C8.04354 6.72388 8.0522 6.71967 8.06324 6.71458C8.08621 6.70398 8.11574 6.69166 8.14866 6.68569C8.18276 6.67951 8.22165 6.67991 8.26188 6.69571C8.30176 6.71137 8.33672 6.73969 8.36737 6.77908M7.83524 6.4936C7.83702 6.09253 8.20241 5.80361 8.5309 5.8549C8.86869 5.90764 9.06154 6.28431 9.00263 6.66334L9.00255 6.66333C8.97147 6.86199 8.85755 7.00844 8.70258 7.05525C8.54519 7.10279 8.37268 7.03957 8.24441 6.87482L8.2444 6.87481C8.22674 6.85213 8.2131 6.84398 8.20493 6.84077C8.1971 6.8377 8.18849 6.83685 8.17646 6.83903C8.16326 6.84142 8.14806 6.84708 8.12852 6.85609C8.12381 6.85826 8.11797 6.86108 8.11155 6.86418C8.09689 6.87125 8.07918 6.8798 8.06481 6.88554C8.04341 6.8941 8.00854 6.90585 7.9703 6.89846C7.92534 6.88976 7.89498 6.85926 7.87654 6.82289C7.85956 6.78941 7.84982 6.7462 7.84383 6.69545C7.83769 6.64342 7.83485 6.57714 7.83524 6.49362M8.50686 6.00888C8.72791 6.04339 8.89967 6.30957 8.84872 6.63887L8.50686 6.00888ZM8.84872 6.63887L8.84864 6.63887C8.82453 6.79372 8.7419 6.88057 8.65751 6.90606C8.57543 6.93086 8.46561 6.90524 8.36738 6.7791" fill="white"/>
<path d="M7.78594 5.87947C8.07529 6.20519 7.74958 6.45817 8.11165 6.31324C8.29243 6.24103 8.07685 6.49402 8.29243 6.49402C8.50802 6.49402 8.65503 6.13246 8.87113 6.13246C9.08724 6.13246 9.42802 6.6883 9.41347 6.747C9.47425 6.64311 9.44984 6.72571 9.44984 6.60259C9.44984 6.17298 9.08828 5.69869 8.29243 5.62596C7.81867 5.58285 7.31581 5.77038 7.27997 6.13246C7.27581 6.1735 7.3449 6.78025 7.35217 6.81973C7.19633 6.2109 7.68412 5.76467 7.78594 5.87947Z" fill="url(#paint8_radial_14562_20274)"/>
<g opacity="0.8">
<path d="M11.5932 5.8998C11.5901 5.91382 11.5719 5.91123 11.575 5.92629C11.562 5.93097 11.5423 5.92785 11.5371 5.91538L11.5413 5.89876C11.5584 5.8998 11.5828 5.88941 11.5932 5.8998Z" fill="#F4EC4F"/>
<path d="M10.8811 6.04836C10.8811 6.05408 10.8722 6.05927 10.867 6.06239C10.8629 6.05979 10.8629 6.05408 10.866 6.04836C10.8722 6.04213 10.8774 6.04577 10.8816 6.04836H10.8811Z" fill="#F4EC4F"/>
<path d="M11.1013 6.1626C11.0987 6.17403 11.1044 6.18234 11.1013 6.19533C11.079 6.21715 11.0463 6.2187 11.0234 6.21091C11.0161 6.20883 11.0172 6.19844 11.0213 6.19273C11.04 6.17403 11.0551 6.15377 11.0821 6.15325C11.105 6.1413 11.0821 6.17922 11.1013 6.16312V6.1626Z" fill="#F4EC4F"/>
<path d="M10.7316 6.23122L10.7419 6.22602C10.7419 6.23174 10.7243 6.24161 10.7253 6.25044L10.7492 6.24836C10.7503 6.25667 10.7409 6.25771 10.7352 6.26083C10.7575 6.27901 10.7466 6.29875 10.7679 6.32005L10.7445 6.32628C10.7419 6.33771 10.7523 6.3455 10.7482 6.35589C10.7217 6.35122 10.7264 6.38238 10.7097 6.39537C10.6999 6.39745 10.6775 6.4068 10.663 6.40213C10.6635 6.412 10.6567 6.42862 10.6505 6.44212L10.6448 6.43225C10.6329 6.43745 10.6292 6.4468 10.6339 6.45355C10.6282 6.44524 10.6147 6.46238 10.6084 6.4629C10.6136 6.48109 10.6396 6.48316 10.6344 6.51122C10.6292 6.52628 10.6162 6.53563 10.6032 6.55122C10.5918 6.53927 10.5638 6.54706 10.5575 6.53927C10.5664 6.52109 10.5466 6.50394 10.5695 6.48628C10.5643 6.48213 10.5518 6.48213 10.5404 6.4842C10.531 6.49667 10.5487 6.50238 10.5399 6.51485C10.5186 6.50498 10.5144 6.49667 10.4973 6.48368L10.4884 6.49459C10.4921 6.4655 10.4443 6.45459 10.4469 6.43745C10.4547 6.40368 10.4734 6.36316 10.4999 6.33823C10.5212 6.34654 10.5321 6.31381 10.5445 6.30758C10.5518 6.30966 10.5487 6.32472 10.5606 6.31329C10.5716 6.292 10.5409 6.30342 10.5669 6.27953C10.5975 6.28109 10.6297 6.2442 10.6557 6.23329C10.6838 6.21927 10.6744 6.25875 10.7019 6.23537C10.6921 6.22498 10.7097 6.22914 10.7144 6.22135C10.7258 6.21875 10.7279 6.2229 10.7305 6.23174L10.7316 6.23122Z" fill="#F4EC4F"/>
<path d="M10.9306 6.49771C10.9332 6.50602 10.9212 6.51174 10.9165 6.51745C10.902 6.53304 10.89 6.51745 10.8838 6.51018C10.8833 6.49875 10.8947 6.48888 10.9056 6.48213C10.9233 6.47174 10.9274 6.48888 10.93 6.49719L10.9306 6.49771Z" fill="#F4EC4F"/>
<path d="M10.6385 6.56579C10.6395 6.57463 10.6437 6.58242 10.6369 6.59177C10.6239 6.60164 10.611 6.61151 10.5985 6.60943C10.5881 6.60008 10.5746 6.59852 10.5834 6.57878C10.5928 6.55748 10.6297 6.54761 10.638 6.56527L10.6385 6.56579Z" fill="#F4EC4F"/>
<path d="M11.308 6.56261C11.3241 6.58131 11.2966 6.59222 11.2836 6.60936C11.2519 6.59793 11.2623 6.64313 11.2332 6.63429C11.228 6.63066 11.2213 6.62546 11.2265 6.61507C11.2613 6.60468 11.2286 6.56468 11.2644 6.55689C11.2805 6.54806 11.295 6.55793 11.308 6.56261Z" fill="#F4EC4F"/>
<path d="M11.0411 6.59123C11.0422 6.6011 11.0313 6.61513 11.0214 6.61773C11.0095 6.62344 11.0027 6.61253 10.9996 6.60526C10.9985 6.59539 11.0094 6.58136 11.0209 6.58032C11.0339 6.57773 11.0349 6.58604 11.0417 6.59123H11.0411Z" fill="#F4EC4F"/>
<path d="M10.895 6.62661C10.8935 6.63388 10.8872 6.6344 10.8826 6.64063C10.8706 6.64479 10.8701 6.63336 10.8665 6.6292L10.8779 6.61206C10.8888 6.61206 10.8904 6.61829 10.895 6.62609V6.62661Z" fill="#F4EC4F"/>
<path d="M11.0187 6.64218C11.0135 6.65153 11.0072 6.65932 10.9963 6.66451C10.9865 6.65984 10.9714 6.65828 10.9797 6.64166C10.9818 6.63127 10.9917 6.63023 11.001 6.62244C11.0114 6.62451 11.0171 6.63231 11.0181 6.64218H11.0187Z" fill="#F4EC4F"/>
<path d="M10.8732 6.67591C10.8722 6.68734 10.8789 6.69253 10.8852 6.69773C10.8717 6.70916 10.8753 6.72734 10.8701 6.73825C10.8587 6.72786 10.8441 6.75072 10.8285 6.75643C10.8062 6.75279 10.787 6.72682 10.8031 6.69669C10.8223 6.6863 10.8384 6.65046 10.8561 6.66864C10.8613 6.67227 10.8644 6.67955 10.8732 6.67591Z" fill="#F4EC4F"/>
<path d="M10.5896 6.72732L10.601 6.75953C10.5865 6.78238 10.5501 6.79277 10.5423 6.80524C10.5299 6.79901 10.5257 6.76732 10.5013 6.7855C10.4852 6.77979 10.4779 6.76264 10.4842 6.74342C10.5106 6.7081 10.5532 6.74758 10.5714 6.70862C10.5673 6.72057 10.5735 6.72732 10.5891 6.72732H10.5896Z" fill="#F4EC4F"/>
<path d="M11.0093 6.68478C11.0088 6.69517 11.0047 6.7066 10.9995 6.71595C10.9906 6.71387 10.9787 6.71803 10.9678 6.71751C10.9688 6.70608 10.9662 6.69049 10.9797 6.67907C10.9906 6.67075 11.0073 6.67335 11.0093 6.68478Z" fill="#F4EC4F"/>
<path d="M11.0379 6.75121C11.0203 6.76887 11.013 6.75069 10.9974 6.75121C10.9938 6.74549 10.9943 6.73874 10.9974 6.72939C11.0057 6.72004 11.0146 6.71484 11.027 6.71484C11.041 6.72212 11.0291 6.74082 11.0374 6.75121H11.0379Z" fill="#F4EC4F"/>
<path d="M11.264 6.76685C11.2677 6.77932 11.2531 6.78243 11.2453 6.78867C11.236 6.78815 11.2297 6.78295 11.2303 6.77308C11.2344 6.75386 11.2604 6.74867 11.264 6.76685Z" fill="#F4EC4F"/>
<path d="M10.9492 6.92833C10.9492 6.93716 10.9299 6.94599 10.9258 6.93612L10.9362 6.91638C10.9414 6.92002 10.9497 6.9195 10.9492 6.92833Z" fill="#F4EC4F"/>
<path d="M12.5668 6.94501C12.5668 6.94501 12.5663 6.94813 12.5642 6.94968V6.94397C12.5642 6.94397 12.5652 6.94553 12.5668 6.94501Z" fill="#F4EC4F"/>
<path d="M11.5308 7.11438C11.5189 7.13308 11.4779 7.15854 11.5017 7.16945C11.5402 7.17152 11.5225 7.21048 11.5454 7.22555C11.5334 7.23126 11.5256 7.24633 11.5355 7.25672C11.5376 7.26087 11.5454 7.26139 11.5506 7.25931C11.5423 7.26867 11.5085 7.28789 11.5023 7.31022C11.4753 7.32165 11.4368 7.33412 11.4223 7.34399C11.4176 7.35178 11.4311 7.34607 11.4243 7.35542C11.4181 7.34035 11.3916 7.33568 11.375 7.32581L11.3703 7.3336C11.3475 7.33308 11.3443 7.31022 11.3412 7.2962C11.3366 7.28944 11.3246 7.30087 11.3204 7.29983C11.3199 7.29568 11.3485 7.27126 11.334 7.25983L11.3101 7.26243C11.321 7.25412 11.3371 7.25983 11.3423 7.24321C11.3412 7.23438 11.3381 7.22763 11.3386 7.22347C11.3636 7.21516 11.3625 7.17776 11.3906 7.17048C11.4067 7.18191 11.4197 7.15906 11.428 7.14815L11.4243 7.16581C11.442 7.14815 11.4591 7.14815 11.4784 7.14451L11.4763 7.1549C11.5012 7.1549 11.5127 7.12217 11.5314 7.1149L11.5308 7.11438Z" fill="#F4EC4F"/>
<path d="M11.4915 7.13146H11.49L11.5009 7.11743C11.503 7.12159 11.4941 7.12678 11.4915 7.13146Z" fill="#F4EC4F"/>
<path d="M11.3782 7.1673C11.3782 7.1673 11.3756 7.17353 11.3704 7.17405C11.3714 7.16938 11.3724 7.16522 11.3782 7.1673Z" fill="#F4EC4F"/>
<path d="M10.4151 7.07328C10.398 7.08055 10.4078 7.06393 10.4058 7.05821C10.4151 7.05717 10.4234 7.06393 10.4151 7.07328Z" fill="#F4EC4F"/>
<path d="M11.3496 7.20629V7.20941L11.345 7.20525C11.347 7.20369 11.3481 7.20525 11.3496 7.20629Z" fill="#F4EC4F"/>
<path d="M11.5699 7.22915C11.5668 7.22811 11.5579 7.2333 11.5626 7.22707C11.5678 7.22343 11.5689 7.22811 11.5699 7.22915Z" fill="#F4EC4F"/>
<path d="M11.6178 7.26605C11.6178 7.26605 11.6168 7.27073 11.6152 7.27073V7.26501C11.6152 7.26501 11.6163 7.26501 11.6178 7.26605Z" fill="#F4EC4F"/>
<path d="M11.5211 7.3263V7.32941L11.5154 7.32422C11.5185 7.32422 11.5201 7.32422 11.5211 7.3263Z" fill="#F4EC4F"/>
<path d="M11.5335 7.43168C11.5558 7.42233 11.5454 7.45506 11.5652 7.45765C11.5641 7.45506 11.5387 7.46441 11.546 7.47532C11.5496 7.48675 11.5626 7.47064 11.5579 7.48415C11.5506 7.4748 11.5283 7.48415 11.5226 7.49038L11.5283 7.49973C11.507 7.49194 11.4784 7.48571 11.4826 7.45973C11.4873 7.43739 11.506 7.44467 11.5148 7.42493C11.5112 7.44103 11.534 7.42181 11.5335 7.43168Z" fill="#F4EC4F"/>
<path d="M11.1979 7.47223C11.2015 7.47742 11.1932 7.48729 11.1854 7.48625C11.1745 7.48002 11.1854 7.46444 11.1979 7.47223Z" fill="#F4EC4F"/>
<path d="M11.6646 7.43741C11.6651 7.44156 11.6682 7.44832 11.6584 7.45247C11.6475 7.45247 11.6495 7.44312 11.6558 7.43689C11.6589 7.43793 11.6615 7.43949 11.6651 7.43741H11.6646Z" fill="#F4EC4F"/>
<path d="M11.6033 7.78813C11.6246 7.77618 11.6433 7.8032 11.6739 7.7845C11.663 7.78553 11.6495 7.80268 11.6459 7.79281C11.6641 7.79541 11.6376 7.83125 11.6584 7.84216C11.6376 7.85826 11.6246 7.86709 11.6038 7.89047C11.5945 7.88424 11.5794 7.88268 11.5654 7.88995V7.89566C11.5513 7.88268 11.5508 7.87125 11.5243 7.87956L11.5217 7.88424C11.5243 7.87229 11.5311 7.87748 11.5394 7.86657C11.5316 7.86605 11.5368 7.85099 11.5264 7.85618C11.5321 7.83852 11.5456 7.81982 11.5399 7.8032C11.5602 7.82294 11.5955 7.7632 11.6038 7.78865L11.6033 7.78813Z" fill="#F4EC4F"/>
<path d="M11.491 7.81719C11.4859 7.82082 11.4775 7.8229 11.4775 7.81563C11.4791 7.80991 11.4848 7.80472 11.491 7.8042C11.4936 7.8068 11.4936 7.81251 11.491 7.81719Z" fill="#F4EC4F"/>
<path d="M11.6665 7.84418L11.666 7.83951L11.6722 7.83899L11.6665 7.84418Z" fill="#F4EC4F"/>
<path d="M11.5746 7.91285L11.5725 7.90869L11.5756 7.91025L11.5746 7.91285Z" fill="#F4EC4F"/>
<path d="M11.6534 7.94861C11.6545 7.95692 11.6379 7.95588 11.6353 7.96004C11.6394 7.95536 11.6477 7.95328 11.6534 7.94861Z" fill="#F4EC4F"/>
<path d="M11.5783 7.97875C11.5845 7.97823 11.5897 7.97044 11.5923 7.96473C11.5902 7.98655 11.6183 7.96681 11.6307 7.96525C11.6328 7.9907 11.6619 7.99849 11.6754 8.02031C11.679 8.01875 11.678 8.01564 11.6785 8.0146C11.6614 8.03642 11.6759 8.052 11.6744 8.07226C11.6609 8.06343 11.6603 8.08473 11.6588 8.092C11.6749 8.0894 11.6842 8.10239 11.6889 8.10914L11.6718 8.10187C11.6609 8.10862 11.6468 8.1081 11.6411 8.12057C11.6453 8.12161 11.6494 8.12577 11.6463 8.13148C11.6416 8.13148 11.639 8.1294 11.6364 8.12681C11.6214 8.13823 11.6203 8.14966 11.624 8.15953C11.6011 8.15174 11.5736 8.16421 11.5466 8.172L11.544 8.18343C11.5512 8.17304 11.5331 8.17044 11.532 8.16317C11.5034 8.17875 11.5029 8.13616 11.4759 8.14551C11.4884 8.12005 11.4692 8.11486 11.4645 8.09512L11.4624 8.09668C11.4536 8.06187 11.4951 8.02914 11.4998 7.9959C11.5206 7.99953 11.5325 7.97408 11.5564 7.97927L11.5699 7.96057C11.5783 7.96421 11.5611 7.97875 11.5783 7.97823V7.97875Z" fill="#F4EC4F"/>
<path d="M10.8036 8.14392H10.8052L10.8026 8.15691H10.801L10.8036 8.14392Z" fill="#F4EC4F"/>
<path d="M10.921 8.13933C10.9189 8.14244 10.9121 8.14452 10.9075 8.14348C10.9075 8.13621 10.9184 8.13673 10.921 8.13933Z" fill="#F4EC4F"/>
<path d="M11.7158 8.13253C11.7065 8.13305 11.7086 8.11746 11.6992 8.11694C11.7039 8.1237 11.7184 8.1211 11.7158 8.13253Z" fill="#F4EC4F"/>
<path d="M11.6711 8.1377L11.6675 8.13354H11.6722L11.6711 8.1377Z" fill="#F4EC4F"/>
<path d="M11.8272 8.13614C11.8225 8.14808 11.8163 8.14289 11.8147 8.13717C11.8189 8.13406 11.8277 8.12886 11.8272 8.13614Z" fill="#F4EC4F"/>
<path d="M11.7454 8.15284L11.7361 8.14661L11.7402 8.14765L11.7454 8.15284Z" fill="#F4EC4F"/>
<path d="M11.587 8.35584C11.5959 8.36363 11.587 8.37558 11.5792 8.38648C11.5709 8.39428 11.5553 8.38856 11.5538 8.40155C11.5491 8.3948 11.5278 8.38285 11.5424 8.36155C11.5548 8.34181 11.5792 8.34285 11.587 8.35635V8.35584Z" fill="#F4EC4F"/>
<path d="M11.679 8.37672C11.6889 8.36166 11.6941 8.384 11.7003 8.36633C11.7221 8.36633 11.7195 8.38919 11.7491 8.38815C11.7335 8.3949 11.7439 8.41413 11.7554 8.40633C11.7372 8.42919 11.7361 8.44477 11.7159 8.46348C11.7013 8.46451 11.6826 8.45464 11.6728 8.47542C11.6676 8.46607 11.6535 8.45309 11.6416 8.464C11.6416 8.4401 11.6385 8.42763 11.6452 8.40166C11.6504 8.39283 11.6831 8.38555 11.6748 8.36945C11.6774 8.37205 11.6748 8.37672 11.679 8.37776V8.37672Z" fill="#F4EC4F"/>
<path d="M10.8505 8.52893C10.8458 8.54035 10.8417 8.54503 10.8365 8.56009C10.8214 8.57152 10.8172 8.55802 10.8022 8.56945C10.7908 8.55542 10.783 8.54919 10.7954 8.52789C10.8017 8.52009 10.8115 8.51906 10.8188 8.51438C10.8391 8.50659 10.8385 8.52633 10.85 8.52945L10.8505 8.52893Z" fill="#F4EC4F"/>
<path d="M11.7714 8.42704L11.7642 8.42496L11.7725 8.42444L11.7714 8.42704Z" fill="#F4EC4F"/>
<path d="M11.189 8.55803C11.187 8.5653 11.1828 8.56997 11.1813 8.57569C11.1652 8.584 11.1511 8.59283 11.1392 8.57829C11.1392 8.57101 11.1303 8.5653 11.1392 8.55439C11.1465 8.54971 11.1553 8.53881 11.1631 8.53932C11.1745 8.544 11.1896 8.54504 11.189 8.55803Z" fill="#F4EC4F"/>
<path d="M11.3555 8.56424C11.3705 8.55853 11.3789 8.56892 11.3903 8.571C11.3877 8.58658 11.3924 8.59178 11.3809 8.60684C11.3617 8.63385 11.3492 8.60009 11.3269 8.60892C11.3342 8.59281 11.3456 8.57359 11.356 8.56165V8.56476L11.3555 8.56424Z" fill="#F4EC4F"/>
<path d="M12.1659 8.50757C12.1659 8.50757 12.1617 8.51069 12.1602 8.51069L12.1638 8.50342C12.1664 8.50498 12.1664 8.50602 12.1659 8.50757Z" fill="#F4EC4F"/>
<path d="M10.9414 8.66344C10.9429 8.67435 10.9341 8.69201 10.9185 8.69253C10.905 8.69668 10.9014 8.68733 10.8951 8.68214C10.8936 8.66967 10.9076 8.6572 10.9196 8.65149C10.9284 8.65357 10.9424 8.65149 10.9409 8.66344H10.9414Z" fill="#F4EC4F"/>
<path d="M11.7543 8.65147C11.7465 8.65198 11.7293 8.6577 11.7298 8.64471C11.7267 8.6338 11.7449 8.62965 11.7511 8.62341C11.7511 8.63328 11.7667 8.639 11.7543 8.65147Z" fill="#F4EC4F"/>
<path d="M10.9568 7.12261C10.9693 7.12158 10.9797 7.12469 10.9958 7.11586C10.9943 7.12313 10.9818 7.13041 10.9906 7.13352C11.0119 7.14287 11.0275 7.16469 11.0607 7.15274C11.0504 7.15794 11.0353 7.15534 11.0249 7.16781C11.0254 7.17924 11.0296 7.18911 11.0405 7.19638C11.0291 7.19171 11.0311 7.21041 11.0275 7.21352C11.028 7.2395 11.0659 7.24313 11.0696 7.26287C11.0556 7.25716 11.0441 7.23067 11.0213 7.24158C11.0036 7.25924 11.015 7.27846 11.0104 7.29197C11.0083 7.29352 11.0072 7.28521 11.0046 7.28261C10.9906 7.29716 10.961 7.30391 10.9678 7.32521C10.9345 7.34287 10.8784 7.3356 10.8368 7.33352C10.8239 7.31482 10.8166 7.29093 10.8057 7.27015C10.802 7.27171 10.7974 7.27378 10.7932 7.2769C10.8098 7.24937 10.8109 7.21041 10.8 7.19534C10.8067 7.17872 10.8145 7.1995 10.8244 7.18287C10.8368 7.17456 10.8353 7.16158 10.8405 7.15067C10.8753 7.13456 10.893 7.12417 10.9236 7.10339C10.9065 7.13248 10.9605 7.10391 10.9568 7.12158V7.12261Z" fill="#F4EC4F"/>
<path d="M12.2109 8.62134C12.2072 8.6229 12.2083 8.62445 12.2077 8.62601L12.2597 8.62134L12.2519 8.62757C12.2727 8.63796 12.2841 8.64627 12.3054 8.6603C12.3179 8.69303 12.2877 8.73407 12.294 8.76523C12.2789 8.78394 12.2862 8.75952 12.2722 8.76004C12.2675 8.76575 12.2467 8.77043 12.2607 8.77614C12.2451 8.7751 12.2337 8.78238 12.2192 8.7829L12.2166 8.79588C12.2005 8.79225 12.1953 8.78394 12.1735 8.79277C12.1714 8.8042 12.1864 8.80108 12.1807 8.81355C12.1792 8.78809 12.1444 8.79069 12.1397 8.76523L12.1283 8.77718C12.1241 8.76627 12.1407 8.74705 12.1215 8.74342L12.1148 8.74913C12.1142 8.72523 12.1277 8.70082 12.1303 8.67484C12.1439 8.639 12.1792 8.63588 12.2103 8.62186L12.2109 8.62134Z" fill="#F4EC4F"/>
<path d="M11.6271 8.68582C11.6271 8.69153 11.6229 8.69569 11.6187 8.6988C11.6068 8.70244 11.6026 8.69569 11.6052 8.68737C11.613 8.67698 11.6239 8.6801 11.6271 8.68582Z" fill="#F4EC4F"/>
<path d="M11.7035 8.68315C11.7056 8.6873 11.6993 8.68782 11.6973 8.68938C11.691 8.68938 11.69 8.68159 11.6988 8.67795C11.704 8.67639 11.703 8.68055 11.7035 8.68315Z" fill="#F4EC4F"/>
<path d="M12.0043 8.7439C11.9954 8.75274 11.9902 8.74442 11.9908 8.73767C11.997 8.73767 12.0032 8.73871 12.0043 8.7439Z" fill="#F4EC4F"/>
<path d="M12.2878 8.74756H12.2893L12.2862 8.75743H12.2847L12.2878 8.74756Z" fill="white"/>
<path d="M12.1018 8.77716L12.1132 8.75586L12.108 8.77144L12.1018 8.77716Z" fill="#F4EC4F"/>
<path d="M12.3227 8.76841C12.3216 8.77152 12.3159 8.77412 12.3118 8.77308C12.3133 8.76893 12.3201 8.76581 12.3227 8.76841Z" fill="#F4EC4F"/>
<path d="M12.2386 8.81975C12.2277 8.82442 12.2412 8.8265 12.2417 8.82962C12.2204 8.83273 12.2391 8.81299 12.2214 8.80884C12.2287 8.80988 12.2396 8.81144 12.2386 8.81975Z" fill="#F4EC4F"/>
<path d="M12.7683 9.11542C12.7616 9.14243 12.7979 9.15438 12.7907 9.17672C12.7881 9.17672 12.786 9.17152 12.7818 9.17568C12.8021 9.19801 12.7496 9.20529 12.7715 9.22659L12.7579 9.22035C12.747 9.22711 12.7491 9.23438 12.7486 9.24269C12.7455 9.24009 12.7486 9.23334 12.7424 9.23126C12.7283 9.24269 12.7096 9.24477 12.6956 9.24685C12.6972 9.24581 12.6977 9.24477 12.6987 9.24269C12.68 9.24269 12.6717 9.24321 12.6577 9.23282C12.6509 9.23542 12.6515 9.24165 12.6525 9.24477C12.6681 9.21724 12.6151 9.20113 12.6416 9.16477C12.625 9.1575 12.6478 9.14295 12.6515 9.13152C12.654 9.11801 12.6639 9.11282 12.6779 9.10711C12.7112 9.10035 12.745 9.09724 12.7683 9.11542Z" fill="#F4EC4F"/>
<path d="M11.6109 8.86864C11.6109 8.87695 11.6021 8.88162 11.5953 8.88474C11.5854 8.88266 11.5886 8.87279 11.5938 8.86552C11.6015 8.86084 11.6073 8.86552 11.6109 8.86812V8.86864Z" fill="#F4EC4F"/>
<path d="M11.9009 8.88992L11.8998 8.89252L11.8972 8.88732C11.9009 8.88576 11.8998 8.88836 11.9009 8.88992Z" fill="#F4EC4F"/>
<path d="M11.9012 8.91593L11.8992 8.91749L11.9018 8.90918C11.9044 8.91022 11.9018 8.91489 11.9007 8.91593H11.9012Z" fill="#F4EC4F"/>
<path d="M11.8504 8.93923L11.854 8.95533C11.8338 8.95222 11.8307 8.96053 11.8094 8.96209C11.8125 8.95222 11.7974 8.94806 11.8094 8.93092C11.8125 8.9252 11.8281 8.91637 11.8369 8.91689C11.8442 8.92313 11.8733 8.92728 11.8509 8.93923H11.8504Z" fill="#F4EC4F"/>
<path d="M12.8343 9.18921L12.8296 9.18713L12.8332 9.18765L12.8343 9.18921Z" fill="#F4EC4F"/>
<path d="M11.8577 8.93613L11.8582 8.93457H11.8629L11.8577 8.93613Z" fill="#F4EC4F"/>
<path d="M13.656 9.11024L13.6472 9.104L13.655 9.10816L13.656 9.11024Z" fill="#F4EC4F"/>
<path d="M12.8245 9.22605L12.8198 9.22034L12.8219 9.2219L12.8245 9.22605Z" fill="#F4EC4F"/>
<path d="M12.8422 9.24267C12.8422 9.2463 12.8385 9.24475 12.8359 9.24423C12.838 9.24215 12.8391 9.24007 12.8422 9.24267Z" fill="#F4EC4F"/>
<path d="M12.718 9.25047C12.7108 9.25202 12.718 9.24683 12.7191 9.24475C12.7212 9.24631 12.7175 9.24787 12.718 9.25047Z" fill="#F4EC4F"/>
<path d="M12.6738 9.2593C12.6758 9.2515 12.6623 9.24891 12.667 9.24475C12.6722 9.24891 12.6883 9.25047 12.6738 9.2593Z" fill="#F4EC4F"/>
<path d="M12.7257 9.25724H12.7153L12.7169 9.25256L12.7273 9.25412L12.7257 9.25724Z" fill="#F4EC4F"/>
<path d="M11.8181 9.03896C11.8083 9.05455 11.7953 9.03896 11.8067 9.03273C11.8135 9.03117 11.8187 9.03325 11.8181 9.03896Z" fill="#F4EC4F"/>
<path d="M11.8474 9.04268C11.837 9.04995 11.8339 9.038 11.8432 9.03333C11.8469 9.03592 11.851 9.03696 11.8474 9.04268Z" fill="#F4EC4F"/>
<path d="M11.7897 9.06751C11.7799 9.07323 11.7846 9.06492 11.7846 9.06128C11.7866 9.06388 11.7944 9.0592 11.7897 9.06751Z" fill="#F4EC4F"/>
<path d="M11.6743 9.13568C11.6644 9.12945 11.6431 9.14295 11.6457 9.12685C11.6603 9.12477 11.6681 9.12789 11.6743 9.13568Z" fill="#F4EC4F"/>
<path d="M11.6509 9.14502C11.6535 9.14242 11.64 9.1497 11.6457 9.14294L11.6509 9.14502Z" fill="#F4EC4F"/>
<path d="M11.6656 9.14713L11.6604 9.14453L11.6646 9.14557L11.6656 9.14713Z" fill="#F4EC4F"/>
<path d="M11.6577 9.15698L11.6494 9.15491L11.6582 9.15543L11.6577 9.15698Z" fill="#F4EC4F"/>
<path d="M11.7039 9.20007C11.6987 9.20579 11.692 9.20319 11.6972 9.198C11.7008 9.19644 11.7013 9.19903 11.7039 9.20007Z" fill="#F4EC4F"/>
<path d="M12.748 9.4728L12.7371 9.48682C12.7174 9.48786 12.7163 9.4676 12.7205 9.45981C12.7361 9.44942 12.7449 9.46552 12.748 9.47332V9.4728Z" fill="#F4EC4F"/>
<path d="M12.3025 9.46856C12.2962 9.47063 12.2962 9.46544 12.2947 9.4618C12.2994 9.45297 12.3175 9.46076 12.3025 9.46856Z" fill="#F4EC4F"/>
<path d="M12.4717 9.52272L12.4743 9.51233L12.4774 9.52064L12.4717 9.52272Z" fill="#F4EC4F"/>
</g>
<path d="M10.0997 7.83479C10.0899 7.84674 10.0753 7.83323 10.0712 7.85037C10.0572 7.84726 10.0416 7.83167 10.0436 7.81713L10.0556 7.8031C10.0701 7.81453 10.0961 7.81817 10.0997 7.83479Z" fill="#F4EC4F"/>
<path d="M9.41394 7.53555C9.41082 7.54126 9.40095 7.54022 9.3942 7.5397C9.39212 7.53451 9.39524 7.52879 9.40095 7.52464C9.40979 7.52256 9.41186 7.53035 9.41394 7.53503V7.53555Z" fill="#F4EC4F"/>
<path d="M9.54132 7.79687C9.533 7.80726 9.53404 7.81921 9.52521 7.83116C9.49508 7.83999 9.46547 7.82025 9.44937 7.79635C9.44417 7.78908 9.44937 7.77921 9.45664 7.77558C9.4821 7.76778 9.50547 7.75739 9.52937 7.77402C9.55534 7.77661 9.5169 7.80103 9.54132 7.79687Z" fill="#F4EC4F"/>
<path d="M9.18855 7.61874L9.19998 7.62082C9.19686 7.62705 9.1766 7.62497 9.17297 7.63484L9.19375 7.64939C9.19011 7.65926 9.1818 7.65354 9.17504 7.65303C9.18491 7.68835 9.16517 7.70186 9.17297 7.73978L9.14959 7.73043C9.14128 7.74134 9.14647 7.75692 9.13764 7.76575C9.11738 7.74186 9.10543 7.77926 9.08414 7.78186C9.07427 7.7777 9.05089 7.77147 9.0405 7.7564C9.03582 7.76835 9.0218 7.78134 9.00933 7.79225V7.7777C8.99634 7.7751 8.98855 7.78238 8.98907 7.79329C8.98803 7.77978 8.96829 7.78965 8.96258 7.78549C8.95738 7.80991 8.97972 7.83069 8.96154 7.85874C8.95011 7.87173 8.93349 7.8738 8.91479 7.88212C8.91063 7.8603 8.88206 7.84939 8.8805 7.83588C8.8966 7.82186 8.88829 7.78809 8.91738 7.78445C8.91479 7.77614 8.9044 7.76679 8.89349 7.76108C8.87946 7.76835 8.89141 7.78757 8.87738 7.79536C8.8644 7.76887 8.86492 7.75588 8.8566 7.72835L8.84362 7.73406C8.86128 7.70393 8.82595 7.65614 8.83842 7.63744C8.86336 7.60471 8.90128 7.57354 8.93712 7.56575C8.95063 7.59121 8.97712 7.56367 8.99167 7.56575C8.99634 7.57354 8.98543 7.58705 9.00154 7.58393C9.02232 7.56939 8.99063 7.55848 9.02543 7.55225C9.05037 7.57718 9.09712 7.56108 9.12517 7.56835C9.15634 7.57406 9.12673 7.60939 9.1631 7.60367C9.1605 7.58549 9.17297 7.60264 9.18128 7.59796C9.19219 7.60367 9.19167 7.60939 9.18959 7.6203L9.18855 7.61874Z" fill="#F4EC4F"/>
<path d="M9.22965 8.04518C9.22809 8.05609 9.2151 8.05401 9.20783 8.05817C9.18757 8.06596 9.18445 8.03998 9.18237 8.02856C9.18705 8.01557 9.20211 8.01245 9.21458 8.01245C9.23536 8.01297 9.23069 8.03427 9.22913 8.0457L9.22965 8.04518Z" fill="#F4EC4F"/>
<path d="M8.9386 7.92106C8.93549 7.93145 8.93497 7.94391 8.92458 7.94963C8.90847 7.9517 8.89237 7.95326 8.8825 7.94287C8.87782 7.92521 8.86692 7.91326 8.88406 7.89768C8.90276 7.88054 8.93964 7.89508 8.9386 7.92106Z" fill="#F4EC4F"/>
<path d="M9.54185 8.36007C9.54861 8.39072 9.519 8.38604 9.49978 8.39695C9.47536 8.36474 9.46601 8.42085 9.44263 8.39332C9.43952 8.38552 9.43536 8.37565 9.44471 8.36734C9.48107 8.37773 9.46861 8.3128 9.50445 8.32682C9.52263 8.32682 9.53146 8.3476 9.54133 8.36059L9.54185 8.36007Z" fill="#F4EC4F"/>
<path d="M9.28732 8.22179C9.28368 8.23374 9.26758 8.24205 9.25771 8.23842C9.2442 8.23686 9.24316 8.22024 9.24316 8.21037C9.2468 8.19842 9.2629 8.19011 9.27329 8.19634C9.28628 8.20205 9.28316 8.21192 9.2868 8.22231L9.28732 8.22179Z" fill="#F4EC4F"/>
<path d="M9.13981 8.16523C9.13513 8.1725 9.1289 8.16886 9.12214 8.17302C9.10968 8.16938 9.11435 8.1564 9.11279 8.14912L9.13098 8.1377C9.14033 8.14549 9.13981 8.15276 9.13981 8.16523Z" fill="#F4EC4F"/>
<path d="M9.24478 8.26399C9.23595 8.27074 9.22712 8.27542 9.21517 8.27438C9.20842 8.26243 9.19491 8.251 9.20997 8.23802C9.21673 8.22815 9.22556 8.23334 9.23803 8.23022C9.24686 8.23906 9.24842 8.25204 9.2453 8.26399H9.24478Z" fill="#F4EC4F"/>
<path d="M9.09767 8.2063C9.09144 8.21877 9.09507 8.22916 9.09871 8.23903C9.08157 8.24318 9.07689 8.26656 9.06754 8.27487C9.06131 8.25513 9.03845 8.27176 9.02183 8.26812C9.00312 8.2489 8.99741 8.20682 9.02546 8.18292C9.0478 8.18396 9.07793 8.15383 9.08572 8.18656C9.08884 8.19435 9.08832 8.20422 9.09819 8.20578L9.09767 8.2063Z" fill="#F4EC4F"/>
<path d="M8.81927 8.07119L8.81459 8.11639C8.79122 8.13301 8.75381 8.1195 8.74135 8.12833C8.73304 8.11223 8.74394 8.07275 8.71381 8.07639C8.70239 8.0582 8.70343 8.03379 8.71797 8.01561C8.75797 7.99379 8.77771 8.06963 8.812 8.03742C8.80265 8.04833 8.80524 8.06028 8.81927 8.07119Z" fill="#F4EC4F"/>
<path d="M9.21772 8.30596C9.21252 8.31687 9.20369 8.32778 9.19486 8.33454C9.18759 8.32622 9.17512 8.32311 9.16577 8.31584C9.17149 8.30337 9.17616 8.28415 9.1933 8.27999C9.20681 8.27791 9.22084 8.29194 9.21772 8.30596Z" fill="#F4EC4F"/>
<path d="M9.21513 8.39945C9.19123 8.40777 9.19279 8.38283 9.17877 8.37296C9.17825 8.36465 9.18136 8.35634 9.18812 8.34855C9.20006 8.34335 9.20994 8.34335 9.22136 8.35166C9.23071 8.3688 9.21201 8.38179 9.21513 8.39945Z" fill="#F4EC4F"/>
<path d="M9.41667 8.55998C9.4146 8.57608 9.40005 8.57036 9.39018 8.57296C9.38187 8.56673 9.37771 8.55686 9.38291 8.54595C9.39485 8.52725 9.42083 8.53712 9.41667 8.55998Z" fill="#F4EC4F"/>
<path d="M9.05986 8.54391C9.0557 8.55378 9.0344 8.5517 9.03492 8.53768L9.05258 8.52209C9.0557 8.52989 9.06349 8.53404 9.05986 8.54391Z" fill="#F4EC4F"/>
<path d="M10.5767 9.49039C10.5767 9.49039 10.5751 9.49351 10.5725 9.49403L10.5741 9.48779C10.5741 9.48779 10.5751 9.48987 10.5767 9.49039Z" fill="#F4EC4F"/>
<path d="M9.53096 9.11581C9.5133 9.12984 9.46447 9.13503 9.48369 9.16153C9.51953 9.18646 9.48836 9.22075 9.50499 9.2514C9.49148 9.25088 9.47849 9.26334 9.48421 9.28153C9.48473 9.28776 9.492 9.29296 9.49719 9.29347C9.48577 9.29971 9.4468 9.30179 9.4333 9.32412C9.40317 9.32153 9.36213 9.31321 9.34499 9.31633C9.33771 9.32257 9.35278 9.32412 9.34291 9.33088C9.34291 9.30958 9.31849 9.28828 9.30654 9.26698L9.29927 9.27322C9.27745 9.25867 9.28317 9.23062 9.28473 9.21244C9.28265 9.20205 9.26758 9.20776 9.26343 9.20412C9.26447 9.19893 9.30031 9.1875 9.29044 9.16568L9.26706 9.15425C9.28057 9.15114 9.29356 9.16724 9.30447 9.15166C9.30654 9.14127 9.30602 9.1314 9.30862 9.12672C9.33512 9.13244 9.3481 9.08828 9.37719 9.09711C9.3881 9.11997 9.40888 9.10127 9.42083 9.09399L9.41044 9.11218C9.43382 9.10283 9.44992 9.11218 9.46966 9.11997L9.46395 9.13036C9.48732 9.14542 9.51018 9.11477 9.53096 9.11737V9.11581Z" fill="#F4EC4F"/>
<path d="M9.48764 9.1122L9.48608 9.11116L9.50115 9.10181C9.50167 9.10804 9.49128 9.10856 9.48712 9.1122H9.48764Z" fill="#F4EC4F"/>
<path d="M9.36729 9.08566C9.36729 9.08566 9.36262 9.09085 9.35742 9.08878C9.36002 9.0841 9.36262 9.07995 9.36729 9.08566Z" fill="#F4EC4F"/>
<path d="M8.50804 8.35327C8.48934 8.35016 8.50544 8.33717 8.50596 8.32886C8.51479 8.33457 8.51947 8.34808 8.50804 8.35327Z" fill="#F4EC4F"/>
<path d="M9.32615 9.11326L9.32459 9.11637L9.32251 9.10962C9.32251 9.10962 9.32563 9.11118 9.32615 9.11326Z" fill="#F4EC4F"/>
<path d="M9.52676 9.26961C9.52468 9.26649 9.51429 9.26753 9.52052 9.26285C9.52676 9.26233 9.52572 9.26753 9.52676 9.26961Z" fill="#F4EC4F"/>
<path d="M9.55933 9.33979C9.55933 9.33979 9.55673 9.34446 9.55518 9.34342L9.55673 9.33667C9.55673 9.33667 9.55829 9.33719 9.55881 9.33979H9.55933Z" fill="#F4EC4F"/>
<path d="M9.44584 9.35276L9.44428 9.35588L9.44116 9.34705C9.44428 9.3486 9.44584 9.34912 9.44584 9.35328V9.35276Z" fill="#F4EC4F"/>
<path d="M9.42184 9.48208C9.44626 9.48416 9.42496 9.51585 9.44366 9.53039C9.44366 9.52676 9.41613 9.52312 9.41925 9.53974C9.41925 9.55481 9.43691 9.5439 9.42808 9.55689C9.42444 9.54182 9.39951 9.53974 9.39171 9.5439L9.39379 9.55844C9.37561 9.53663 9.35016 9.51377 9.36366 9.4852C9.37561 9.46234 9.3912 9.48104 9.40678 9.46338C9.39795 9.48 9.42652 9.47065 9.42236 9.48208H9.42184Z" fill="#F4EC4F"/>
<path d="M9.08559 9.32988C9.08714 9.33819 9.07572 9.34443 9.06896 9.33923C9.06065 9.32521 9.07675 9.31378 9.08559 9.32988Z" fill="#F4EC4F"/>
<path d="M9.54547 9.5637C9.54444 9.56889 9.54547 9.57876 9.53405 9.57772C9.52366 9.57097 9.52833 9.56214 9.53664 9.55798C9.53924 9.5611 9.54132 9.5637 9.54547 9.5637Z" fill="#F4EC4F"/>
<path d="M9.37444 9.93817C9.39886 9.93557 9.40925 9.97817 9.44509 9.97245C9.43418 9.96778 9.416 9.98076 9.41496 9.96674C9.4321 9.97972 9.39522 10.0073 9.41236 10.0317C9.38691 10.0395 9.37236 10.0426 9.34483 10.0592C9.33756 10.0467 9.32301 10.0363 9.30691 10.0369L9.30535 10.0436C9.29548 10.0202 9.29808 10.0062 9.26951 10.001L9.26587 10.0052C9.2721 9.99271 9.27678 10.0026 9.28873 9.99427C9.28145 9.98908 9.2908 9.97401 9.27886 9.97453C9.28925 9.95635 9.30847 9.9418 9.30795 9.91895C9.32197 9.95375 9.37392 9.90284 9.37496 9.93713L9.37444 9.93817Z" fill="#F4EC4F"/>
<path d="M9.25597 9.91018C9.24974 9.91122 9.24091 9.90915 9.24299 9.90083C9.2461 9.8946 9.25338 9.892 9.25961 9.89512C9.26117 9.89979 9.25961 9.90655 9.25597 9.9107V9.91018Z" fill="#F4EC4F"/>
<path d="M9.42017 10.0395L9.42069 10.0343L9.42744 10.0369L9.42017 10.0395Z" fill="#F4EC4F"/>
<path d="M9.31012 10.0712L9.30908 10.0649L9.31168 10.0681L9.31012 10.0712Z" fill="#F4EC4F"/>
<path d="M9.37774 10.1569C9.37671 10.1678 9.36008 10.1569 9.35645 10.161C9.36164 10.1579 9.37099 10.1595 9.37774 10.1569Z" fill="#F4EC4F"/>
<path d="M9.29447 10.1517C9.30071 10.1543 9.30798 10.1481 9.31266 10.1424C9.30486 10.1673 9.33759 10.159 9.35058 10.1642C9.34538 10.1959 9.3724 10.2208 9.38019 10.254C9.38434 10.254 9.38382 10.2499 9.38486 10.2483C9.36201 10.265 9.3724 10.292 9.36512 10.3153C9.35421 10.2977 9.34798 10.3231 9.34434 10.3314C9.36097 10.3366 9.36668 10.3579 9.3698 10.3683L9.35473 10.3507C9.34227 10.3527 9.32824 10.3455 9.31941 10.3569C9.32356 10.3605 9.32616 10.3673 9.32149 10.373C9.31681 10.3709 9.31473 10.3663 9.31318 10.3621C9.29499 10.3678 9.29084 10.3813 9.2924 10.3948C9.2711 10.373 9.24045 10.373 9.21188 10.3683L9.20616 10.3808C9.21603 10.372 9.19889 10.3585 9.19941 10.3491C9.1672 10.3522 9.17759 10.2998 9.14798 10.2966C9.16668 10.2722 9.14954 10.2556 9.15006 10.2291L9.14746 10.2301C9.14746 10.1829 9.19889 10.1663 9.2124 10.1288C9.23214 10.145 9.25084 10.1211 9.27318 10.1403L9.29188 10.1257C9.29915 10.1346 9.27785 10.1424 9.29499 10.1517H9.29447Z" fill="#F4EC4F"/>
<path d="M8.48261 9.89771L8.48417 9.89874L8.4769 9.91277L8.47534 9.91225L8.48261 9.89771Z" fill="#F4EC4F"/>
<path d="M8.59902 9.96418C8.5959 9.96678 8.58863 9.96522 8.58447 9.96107C8.58655 9.95224 8.59694 9.95951 8.59902 9.96418Z" fill="#F4EC4F"/>
<path d="M9.39113 10.4114C9.38126 10.4073 9.38749 10.3891 9.37866 10.3839C9.38178 10.3948 9.39684 10.399 9.39113 10.4114Z" fill="#F4EC4F"/>
<path d="M9.34488 10.3943L9.34229 10.3876L9.34696 10.3897L9.34488 10.3943Z" fill="#F4EC4F"/>
<path d="M9.50176 10.4732C9.49448 10.4852 9.48929 10.4758 9.48877 10.468C9.49344 10.466 9.50383 10.4644 9.50176 10.4732Z" fill="#F4EC4F"/>
<path d="M9.41551 10.4514L9.40771 10.439L9.41187 10.4426L9.41551 10.4514Z" fill="#F4EC4F"/>
<path d="M9.20825 10.6187C9.21552 10.6333 9.20357 10.6431 9.1937 10.6525C9.18383 10.6582 9.16929 10.6426 9.16461 10.6577C9.16149 10.6468 9.14175 10.6198 9.16149 10.6011C9.17864 10.5834 9.20305 10.5974 9.20773 10.6182L9.20825 10.6187Z" fill="#F4EC4F"/>
<path d="M9.29759 10.6925C9.3111 10.679 9.31162 10.7091 9.32149 10.6904C9.34382 10.7014 9.33603 10.7284 9.36616 10.7424C9.3485 10.7429 9.35525 10.772 9.36876 10.7678C9.3459 10.7871 9.34175 10.8063 9.31733 10.8193C9.30227 10.8136 9.2846 10.7912 9.27058 10.8125C9.26694 10.798 9.25551 10.7746 9.24097 10.7819C9.24564 10.7512 9.24564 10.7341 9.25759 10.705C9.26486 10.6967 9.29967 10.705 9.29499 10.6801C9.29707 10.6847 9.29343 10.6889 9.29759 10.6925Z" fill="#F4EC4F"/>
<path d="M8.42025 10.414C8.41298 10.4265 8.40726 10.4301 8.39895 10.4457C8.38077 10.4514 8.37973 10.4306 8.36207 10.4363C8.35376 10.4103 8.34753 10.3979 8.36623 10.3781C8.37454 10.3724 8.38441 10.3766 8.39324 10.375C8.41558 10.3776 8.41038 10.4031 8.42129 10.414H8.42025Z" fill="#F4EC4F"/>
<path d="M9.38126 10.8026L9.37451 10.7964L9.38282 10.7995L9.38126 10.8026Z" fill="#F4EC4F"/>
<path d="M8.75796 10.6541C8.75433 10.6624 8.74913 10.666 8.74653 10.6728C8.72835 10.6749 8.71173 10.6775 8.7029 10.652C8.70498 10.6432 8.69666 10.6297 8.70809 10.6209C8.71692 10.6188 8.72835 10.6099 8.73563 10.6151C8.74601 10.6276 8.76108 10.638 8.75796 10.6541Z" fill="#F4EC4F"/>
<path d="M8.92733 10.7574C8.94395 10.7584 8.95018 10.7766 8.96213 10.7854C8.95642 10.8041 8.96005 10.8135 8.94551 10.827C8.92005 10.8514 8.91382 10.8005 8.8894 10.8C8.90031 10.7833 8.91538 10.7641 8.92889 10.7548L8.92785 10.7579L8.92733 10.7574Z" fill="#F4EC4F"/>
<path d="M9.77454 11.0816C9.77454 11.0816 9.76987 11.0836 9.76831 11.0831L9.77299 11.0753C9.77558 11.0779 9.77506 11.0795 9.77454 11.0816Z" fill="#F4EC4F"/>
<path d="M8.4816 10.6458C8.48109 10.6613 8.46758 10.679 8.45199 10.6702C8.43745 10.6676 8.43589 10.653 8.43018 10.6426C8.43121 10.6255 8.44836 10.6172 8.46186 10.6172C8.47018 10.625 8.48524 10.6317 8.4816 10.6458Z" fill="#F4EC4F"/>
<path d="M9.32569 11.079C9.31737 11.0759 9.29867 11.0749 9.30127 11.0588C9.29971 11.0432 9.31893 11.0468 9.32672 11.0416C9.32569 11.0546 9.34075 11.0697 9.32569 11.079Z" fill="#F4EC4F"/>
<path d="M8.98865 8.77246C9.00112 8.77921 9.00891 8.7896 9.02709 8.7896C9.02294 8.79687 9.00839 8.79739 9.01515 8.80674C9.03125 8.83116 9.03748 8.86596 9.07385 8.87323C9.0619 8.87323 9.04891 8.86025 9.03437 8.86804C9.03073 8.88155 9.03073 8.89557 9.038 8.91116C9.02917 8.89869 9.02398 8.92155 9.0193 8.9231C9.00995 8.95375 9.04424 8.98181 9.04008 9.00674C9.02865 8.99116 9.02813 8.95323 9.00268 8.95168C8.9793 8.96103 8.98242 8.99064 8.97307 9.0031C8.97099 9.00362 8.97307 8.99323 8.97151 8.98856C8.95281 8.99635 8.92268 8.98648 8.9206 9.01505C8.88268 9.01505 8.83281 8.97038 8.79437 8.94181C8.78917 8.91116 8.79177 8.87843 8.78917 8.84726C8.78502 8.84726 8.77982 8.84622 8.77515 8.84726C8.80164 8.82544 8.81774 8.78025 8.81359 8.75583C8.82658 8.74077 8.82554 8.77038 8.84112 8.75739C8.85619 8.75583 8.85982 8.73973 8.86917 8.7309C8.90813 8.73453 8.92839 8.73349 8.96528 8.72986C8.93774 8.75272 8.99956 8.75479 8.98917 8.77246H8.98865Z" fill="#F4EC4F"/>
<path d="M9.80724 11.24C9.80309 11.2405 9.80413 11.2426 9.80361 11.2441L9.85815 11.2577L9.84932 11.2623C9.86958 11.2831 9.88153 11.2977 9.90231 11.3221C9.91218 11.3667 9.87945 11.4067 9.88413 11.4483C9.86699 11.467 9.87634 11.439 9.86075 11.4343C9.85504 11.44 9.83322 11.439 9.84828 11.4504C9.83218 11.4436 9.81919 11.4493 9.80413 11.4447L9.80101 11.4603C9.78387 11.4499 9.77867 11.4374 9.7553 11.441C9.7527 11.4551 9.7688 11.4561 9.76257 11.4706C9.76205 11.4374 9.72361 11.428 9.72049 11.3938L9.7075 11.4047C9.70387 11.3886 9.72257 11.3709 9.70283 11.359L9.69556 11.3641C9.6966 11.333 9.71322 11.307 9.71841 11.2758C9.73608 11.2358 9.77348 11.2462 9.80724 11.24Z" fill="#F4EC4F"/>
<path d="M9.18804 11.0613C9.18752 11.0686 9.18181 11.0722 9.17765 11.0743C9.16466 11.0732 9.16103 11.0623 9.16466 11.0525C9.17401 11.0426 9.18544 11.0525 9.18804 11.0613Z" fill="#F4EC4F"/>
<path d="M9.26867 11.0955C9.27022 11.1018 9.26347 11.0992 9.26139 11.1002C9.25464 11.0976 9.25516 11.0867 9.26451 11.0862C9.27022 11.0862 9.26815 11.0914 9.26867 11.0955Z" fill="#F4EC4F"/>
<path d="M9.57812 11.3127C9.56825 11.3205 9.56306 11.3075 9.5641 11.2987C9.57085 11.3008 9.57708 11.3049 9.57812 11.3127Z" fill="#F4EC4F"/>
<path d="M9.87839 11.4244L9.87995 11.425L9.87631 11.4369L9.87476 11.4364L9.87839 11.4244Z" fill="white"/>
<path d="M9.67896 11.3953L9.69246 11.3719L9.68623 11.3906L9.67896 11.3953Z" fill="#F4EC4F"/>
<path d="M9.91429 11.4618C9.91325 11.4649 9.90702 11.467 9.90234 11.4639C9.9039 11.4587 9.91169 11.4576 9.91429 11.4618Z" fill="#F4EC4F"/>
<path d="M9.82333 11.4997C9.81138 11.5018 9.82592 11.5096 9.82644 11.5132C9.80359 11.5101 9.82437 11.4909 9.80566 11.48C9.81346 11.4841 9.82489 11.4893 9.82333 11.4997Z" fill="#F4EC4F"/>
<path d="M10.4118 11.9512C10.4113 11.9808 10.4502 11.9928 10.4487 12.0156C10.4461 12.0156 10.4424 12.011 10.4393 12.0156C10.4663 12.0359 10.4149 12.052 10.444 12.0723L10.4284 12.0676C10.4196 12.0769 10.4243 12.0847 10.4258 12.0941C10.4222 12.0915 10.4227 12.0837 10.4159 12.0826C10.405 12.0977 10.3874 12.1034 10.3728 12.1076C10.3744 12.106 10.3744 12.105 10.3744 12.1024C10.3546 12.105 10.3463 12.1065 10.3276 12.0951C10.3219 12.0993 10.324 12.106 10.3266 12.1102C10.3323 12.0774 10.2726 12.0582 10.2902 12.0141C10.2705 12.0058 10.2913 11.9881 10.2918 11.9751C10.2918 11.9585 10.3011 11.9528 10.3152 11.946C10.3484 11.9387 10.3843 11.9336 10.4123 11.9517L10.4118 11.9512Z" fill="#F4EC4F"/>
<path d="M9.14867 11.2972C9.14867 11.3086 9.13828 11.3107 9.13049 11.3117C9.11958 11.304 9.12374 11.292 9.13049 11.2847C9.1388 11.2821 9.14504 11.292 9.14919 11.2972H9.14867Z" fill="#F4EC4F"/>
<path d="M9.45753 11.4618L9.45649 11.4654L9.45337 11.4571C9.45752 11.4566 9.45597 11.4597 9.45753 11.4623V11.4618Z" fill="#F4EC4F"/>
<path d="M9.45764 11.4976L9.45557 11.4987L9.45868 11.4883C9.46128 11.4909 9.45868 11.4956 9.45764 11.4971V11.4976Z" fill="#F4EC4F"/>
<path d="M9.40212 11.5076L9.40576 11.5315C9.38394 11.5185 9.3803 11.5289 9.35693 11.5206C9.36056 11.5086 9.34446 11.4951 9.35745 11.4769C9.36108 11.4707 9.37823 11.465 9.38758 11.4702C9.39485 11.4821 9.42654 11.5003 9.40212 11.5076Z" fill="#F4EC4F"/>
<path d="M10.4962 12.0203L10.491 12.0193H10.4946L10.4962 12.0203Z" fill="#F4EC4F"/>
<path d="M9.40991 11.5065L9.41043 11.5044L9.41563 11.5065H9.40991Z" fill="#F4EC4F"/>
<path d="M10.7341 11.9845L10.7445 11.9668L10.7367 11.9798L10.7341 11.9845Z" fill="#F4EC4F"/>
<path d="M10.4962 12.0613L10.4905 12.0566L10.4931 12.0577L10.4962 12.0613Z" fill="#F4EC4F"/>
<path d="M10.5184 12.0733C10.5194 12.0769 10.5158 12.0764 10.5132 12.0764C10.5147 12.0738 10.5147 12.0712 10.5184 12.0733Z" fill="#F4EC4F"/>
<path d="M10.3978 12.1081C10.3911 12.1107 10.3968 12.1039 10.3968 12.1013C10.3994 12.1024 10.3968 12.1055 10.3978 12.1081Z" fill="#F4EC4F"/>
<path d="M10.3555 12.1247C10.3544 12.1153 10.3393 12.1137 10.3425 12.108C10.3492 12.1122 10.3674 12.1122 10.3555 12.1247Z" fill="#F4EC4F"/>
<path d="M10.4084 12.1149L10.3975 12.1164V12.1107H10.4084V12.1149Z" fill="#F4EC4F"/>
<path d="M9.36633 11.6327C9.35594 11.6503 9.34088 11.6223 9.35334 11.6187C9.36062 11.6192 9.36633 11.6249 9.36633 11.6327Z" fill="#F4EC4F"/>
<path d="M9.39847 11.6509C9.38756 11.6566 9.3834 11.6385 9.39327 11.6359C9.39743 11.6411 9.40211 11.6447 9.39847 11.6509Z" fill="#F4EC4F"/>
<path d="M9.33546 11.6613C9.32507 11.6655 9.32974 11.6556 9.32922 11.6499C9.33182 11.6546 9.34013 11.6515 9.33546 11.6613Z" fill="#F4EC4F"/>
<path d="M9.20986 11.7076C9.19843 11.694 9.17505 11.7034 9.17713 11.6805C9.19324 11.6842 9.20207 11.693 9.20986 11.7076Z" fill="#F4EC4F"/>
<path d="M9.18428 11.7107C9.18688 11.7076 9.17234 11.7122 9.17857 11.705L9.18428 11.7107Z" fill="#F4EC4F"/>
<path d="M9.20054 11.7199L9.19482 11.7142L9.1995 11.7179L9.20054 11.7199Z" fill="#F4EC4F"/>
<path d="M9.19221 11.7309L9.18286 11.7236L9.19273 11.7288L9.19221 11.7309Z" fill="#F4EC4F"/>
<path d="M9.24632 11.8177C9.24113 11.8239 9.23333 11.8177 9.23853 11.8114C9.24269 11.8109 9.24321 11.8151 9.24632 11.8177Z" fill="#F4EC4F"/>
<path d="M10.56 12.3335L10.5642 12.3538C10.5491 12.3663 10.5273 12.346 10.5242 12.3361C10.5294 12.318 10.5512 12.3278 10.56 12.3335Z" fill="#F4EC4F"/>
<path d="M10.0588 12.4358C10.0536 12.4395 10.0489 12.4306 10.0442 12.4239C10.0432 12.4093 10.0707 12.4229 10.0588 12.4358Z" fill="#F4EC4F"/>
<path d="M10.3314 12.5127L10.3215 12.4961L10.3361 12.508L10.3314 12.5127Z" fill="#F4EC4F"/>
<path d="M3.27277 6.44155C4.27693 6.44155 5.09095 6.10431 5.09095 5.68831C5.09095 5.2723 4.27693 4.93506 3.27277 4.93506C2.26862 4.93506 1.45459 5.2723 1.45459 5.68831C1.45459 6.10431 2.26862 6.44155 3.27277 6.44155Z" fill="#DE6F68"/>
<path d="M2.44894 5.29866C3.06377 5.29866 3.56219 5.18237 3.56219 5.03892C3.56219 4.89546 3.06377 4.77917 2.44894 4.77917C1.83411 4.77917 1.33569 4.89546 1.33569 5.03892C1.33569 5.18237 1.83411 5.29866 2.44894 5.29866Z" fill="#FFE83D"/>
</g>
<defs>
<radialGradient id="paint0_radial_14562_20274" cx="0" cy="0" r="1" gradientUnits="userSpaceOnUse" gradientTransform="translate(7.03888 7.48054) scale(2.69558)">
<stop stop-color="#C700D4"/>
<stop offset="0.04" stop-color="#CD13C0"/>
<stop offset="0.14" stop-color="#DA3A98"/>
<stop offset="0.25" stop-color="#E55C76"/>
<stop offset="0.36" stop-color="#EF775A"/>
<stop offset="0.48" stop-color="#F68C44"/>
<stop offset="0.61" stop-color="#FB9B35"/>
<stop offset="0.77" stop-color="#FEA42C"/>
<stop offset="1" stop-color="#FFA72A"/>
</radialGradient>
<radialGradient id="paint1_radial_14562_20274" cx="0" cy="0" r="1" gradientUnits="userSpaceOnUse" gradientTransform="translate(-2.48667 3.91998) scale(8.33247)">
<stop stop-color="#C700D4"/>
<stop offset="0.12" stop-color="#CF19B9"/>
<stop offset="0.42" stop-color="#E3557C"/>
<stop offset="0.68" stop-color="#F2814F"/>
<stop offset="0.88" stop-color="#FB9C34"/>
<stop offset="1" stop-color="#FFA72A"/>
</radialGradient>
<radialGradient id="paint2_radial_14562_20274" cx="0" cy="0" r="1" gradientUnits="userSpaceOnUse" gradientTransform="translate(4.98957 3.89296) scale(8.12104)">
<stop offset="0.21" stop-color="#FFA72A"/>
<stop offset="0.3" stop-color="#FF9937"/>
<stop offset="0.46" stop-color="#FF775A"/>
<stop offset="0.67" stop-color="#FF3F95"/>
</radialGradient>
<radialGradient id="paint3_radial_14562_20274" cx="0" cy="0" r="1" gradientUnits="userSpaceOnUse" gradientTransform="translate(3.92876 5.46699) rotate(9.88) scale(7.5758 3.75807)">
<stop offset="0.23" stop-color="#FF9E15"/>
<stop offset="0.44" stop-color="#009DFF"/>
<stop offset="0.46" stop-color="#0498FF"/>
<stop offset="0.73" stop-color="#5258FF"/>
</radialGradient>
<radialGradient id="paint4_radial_14562_20274" cx="0" cy="0" r="1" gradientUnits="userSpaceOnUse" gradientTransform="translate(10.4935 13.1039) scale(4.72312)">
<stop stop-color="#F229FF"/>
<stop offset="0.26" stop-color="#F651BA"/>
<stop offset="0.52" stop-color="#F9767C"/>
<stop offset="0.73" stop-color="#FC904F"/>
<stop offset="0.9" stop-color="#FEA034"/>
<stop offset="1" stop-color="#FFA72A"/>
</radialGradient>
<radialGradient id="paint5_radial_14562_20274" cx="0" cy="0" r="1" gradientUnits="userSpaceOnUse" gradientTransform="translate(11.6549 10.935) scale(2.67532)">
<stop stop-color="#FFB700"/>
<stop offset="0.08" stop-color="#FFB504"/>
<stop offset="0.66" stop-color="#FFAA1F"/>
<stop offset="1" stop-color="#FFA72A"/>
</radialGradient>
<radialGradient id="paint6_radial_14562_20274" cx="0" cy="0" r="1" gradientUnits="userSpaceOnUse" gradientTransform="translate(9.37665 9.94805) scale(6.75636)">
<stop stop-color="#EF00FF"/>
<stop offset="0.02" stop-color="#F00CEE"/>
<stop offset="0.09" stop-color="#F330C1"/>
<stop offset="0.16" stop-color="#F65098"/>
<stop offset="0.24" stop-color="#F96B76"/>
<stop offset="0.32" stop-color="#FB815A"/>
<stop offset="0.41" stop-color="#FC9144"/>
<stop offset="0.51" stop-color="#FE9D35"/>
<stop offset="0.62" stop-color="#FEA42C"/>
<stop offset="0.78" stop-color="#FFA72A"/>
</radialGradient>
<radialGradient id="paint7_radial_14562_20274" cx="0" cy="0" r="1" gradientUnits="userSpaceOnUse" gradientTransform="translate(8.3798 6.58541) scale(0.782857)">
<stop stop-color="#00B2E9"/>
<stop offset="0.31" stop-color="#01AFE9"/>
<stop offset="0.49" stop-color="#06A7EB"/>
<stop offset="0.64" stop-color="#0F99EE"/>
<stop offset="0.77" stop-color="#1B85F2"/>
<stop offset="0.88" stop-color="#2C6BF7"/>
<stop offset="0.99" stop-color="#3F4CFE"/>
<stop offset="1" stop-color="#4249FF"/>
</radialGradient>
<radialGradient id="paint8_radial_14562_20274" cx="0" cy="0" r="1" gradientUnits="userSpaceOnUse" gradientTransform="translate(8.36724 6.22025) scale(0.877922)">
<stop stop-color="#FFF915"/>
<stop offset="1" stop-color="#FFA72A"/>
</radialGradient>
<clipPath id="clip0_14562_20274">
<rect width="16" height="10.4935" fill="white" transform="translate(0 4)"/>
</clipPath>
</defs>
</svg>
