<svg width="16" height="16" viewBox="0 0 16 16" fill="none" xmlns="http://www.w3.org/2000/svg">
<mask id="path-1-inside-1_9859_15005" fill="white">
<path fill-rule="evenodd" clip-rule="evenodd" d="M6.50379 6.54014C6.81106 6.36094 7 6.03202 7 5.67632V3.32522C7 2.96977 6.81132 2.64103 6.50439 2.46174L4.50562 1.29418C4.19441 1.11239 3.80944 1.11213 3.49799 1.29351L1.49676 2.45894C1.18919 2.63806 1 2.96716 1 3.32309V5.67477C1 6.03022 1.18868 6.35895 1.49561 6.53824L3.49452 7.70589C3.80566 7.88764 4.19052 7.88794 4.50194 7.70668L5.327 7.22646L6.50379 6.54014Z"/>
</mask>
<path fill-rule="evenodd" clip-rule="evenodd" d="M6.50379 6.54014C6.81106 6.36094 7 6.03202 7 5.67632V3.32522C7 2.96977 6.81132 2.64103 6.50439 2.46174L4.50562 1.29418C4.19441 1.11239 3.80944 1.11213 3.49799 1.29351L1.49676 2.45894C1.18919 2.63806 1 2.96716 1 3.32309V5.67477C1 6.03022 1.18868 6.35895 1.49561 6.53824L3.49452 7.70589C3.80566 7.88764 4.19052 7.88794 4.50194 7.70668L5.327 7.22646L6.50379 6.54014Z" fill="#FFFAEB"/>
<path d="M5.327 7.22646L5.83004 8.09073L5.83079 8.09029L5.327 7.22646ZM3.49452 7.70589L3.99891 6.84241L3.49452 7.70589ZM4.50194 7.70668L3.99891 6.84241L4.50194 7.70668ZM8 5.67632V3.32522H6V5.67632H8ZM7.00878 1.59827L5.01001 0.430704L4.00123 2.15765L6 3.32522L7.00878 1.59827ZM2.99475 0.429363L0.993515 1.5948L2 3.32309L4.00123 2.15765L2.99475 0.429363ZM0 3.32309V5.67477H2V3.32309H0ZM0.991216 7.40172L2.99012 8.56936L3.99891 6.84241L2 5.67477L0.991216 7.40172ZM5.00498 8.57094L5.83004 8.09073L4.82396 6.3622L3.99891 6.84241L5.00498 8.57094ZM5.83079 8.09029L7.00759 7.40396L6 5.67632L4.82321 6.36264L5.83079 8.09029ZM2.99012 8.56936C3.61241 8.93286 4.38213 8.93347 5.00498 8.57094L3.99891 6.84241L3.99891 6.84241L2.99012 8.56936ZM0 5.67477C0 6.38567 0.377369 7.04314 0.991216 7.40172L2 5.67477H0ZM0.993515 1.5948C0.37837 1.95303 0 2.61123 0 3.32309H2H2L0.993515 1.5948ZM5.01001 0.430704C4.38759 0.0671177 3.61766 0.0666046 2.99475 0.429363L4.00123 2.15765L4.00123 2.15765L5.01001 0.430704ZM8 3.32522C8 2.61432 7.62263 1.95684 7.00878 1.59827L6 3.32522H8ZM6 5.67632L7.00759 7.40396C7.62211 7.04557 8 6.38771 8 5.67632H6Z" fill="#C27D04" mask="url(#path-1-inside-1_9859_15005)"/>
<mask id="path-3-inside-2_9859_15005" fill="white">
<path fill-rule="evenodd" clip-rule="evenodd" d="M5.49681 9.45871C5.18921 9.63782 5 9.96694 5 10.3229V12.6741C5 13.0295 5.18861 13.3582 5.49545 13.5375L7.49417 14.7056C7.80549 14.8875 8.19065 14.8877 8.5022 14.7062L9.327 14.2256L10.5037 13.5394C10.811 13.3602 11 13.0313 11 12.6755V10.325C11 9.96955 10.8113 9.64079 10.5043 9.46151L8.50557 8.29412C8.19438 8.11237 7.80947 8.11211 7.49804 8.29345L5.49681 9.45871Z"/>
</mask>
<path fill-rule="evenodd" clip-rule="evenodd" d="M5.49681 9.45871C5.18921 9.63782 5 9.96694 5 10.3229V12.6741C5 13.0295 5.18861 13.3582 5.49545 13.5375L7.49417 14.7056C7.80549 14.8875 8.19065 14.8877 8.5022 14.7062L9.327 14.2256L10.5037 13.5394C10.811 13.3602 11 13.0313 11 12.6755V10.325C11 9.96955 10.8113 9.64079 10.5043 9.46151L8.50557 8.29412C8.19438 8.11237 7.80947 8.11211 7.49804 8.29345L5.49681 9.45871Z" fill="#FFFAEB"/>
<path d="M9.327 14.2256L9.83047 15.0896L9.83074 15.0894L9.327 14.2256ZM10.5037 13.5394L10 12.6755L10.5037 13.5394ZM8.5022 14.7062L7.99873 13.8422L8.5022 14.7062ZM5.49545 13.5375L6 12.6741L5.49545 13.5375ZM4 10.3229V12.6741H6V10.3229H4ZM4.99089 14.4009L6.98962 15.569L7.99873 13.8422L6 12.6741L4.99089 14.4009ZM9.00567 15.5702L9.83047 15.0896L8.82353 13.3616L7.99873 13.8422L9.00567 15.5702ZM9.83074 15.0894L11.0075 14.4032L10 12.6755L8.82326 13.3617L9.83074 15.0894ZM12 12.6755V10.325H10V12.6755H12ZM11.0087 8.59801L9.0099 7.43061L8.00123 9.15762L10 10.325L11.0087 8.59801ZM6.99485 7.42927L4.99362 8.59453L6 10.3229L8.00123 9.15762L6.99485 7.42927ZM9.0099 7.43061C8.38753 7.06711 7.61771 7.0666 6.99485 7.42927L8.00123 9.15762L8.00123 9.15762L9.0099 7.43061ZM11.0075 14.4032C11.6221 14.0449 12 13.387 12 12.6755H10H10L11.0075 14.4032ZM6.98962 15.569C7.61226 15.9328 8.38257 15.9333 9.00567 15.5702L7.99873 13.8422L7.99873 13.8422L6.98962 15.569ZM4 12.6741C4 13.3849 4.37723 14.0423 4.99089 14.4009L6 12.6741V12.6741H4ZM12 10.325C12 9.61407 11.6226 8.95657 11.0087 8.59801L10 10.325V10.325H12ZM6 10.3229L6 10.3229L4.99362 8.59453C4.37842 8.95275 4 9.61099 4 10.3229H6Z" fill="#C27D04" mask="url(#path-3-inside-2_9859_15005)"/>
<mask id="path-5-inside-3_9859_15005" fill="white">
<path fill-rule="evenodd" clip-rule="evenodd" d="M12.5056 1.29412C12.1944 1.11237 11.8095 1.11211 11.498 1.29345L9.49681 2.45871C9.18921 2.63782 9 2.96694 9 3.32289V5.67415C9 6.02953 9.18861 6.35822 9.49545 6.53753L11.4942 7.70557C11.8055 7.8875 12.1906 7.88774 12.5022 7.7062L13.327 7.22558L14.5037 6.53939C14.811 6.3602 15 6.03125 15 5.67553V3.32502C15 2.96955 14.8113 2.64079 14.5043 2.46151L12.5056 1.29412Z"/>
</mask>
<path fill-rule="evenodd" clip-rule="evenodd" d="M12.5056 1.29412C12.1944 1.11237 11.8095 1.11211 11.498 1.29345L9.49681 2.45871C9.18921 2.63782 9 2.96694 9 3.32289V5.67415C9 6.02953 9.18861 6.35822 9.49545 6.53753L11.4942 7.70557C11.8055 7.8875 12.1906 7.88774 12.5022 7.7062L13.327 7.22558L14.5037 6.53939C14.811 6.3602 15 6.03125 15 5.67553V3.32502C15 2.96955 14.8113 2.64079 14.5043 2.46151L12.5056 1.29412Z" fill="#FFFAEB"/>
<path d="M13.327 7.22558L13.8305 8.08959L13.8307 8.08943L13.327 7.22558ZM12.5022 7.7062L11.9987 6.84219L12.5022 7.7062ZM9.49545 6.53753L10 5.67415L9.49545 6.53753ZM14.5037 6.53939L14 5.67553L14.5037 6.53939ZM10.9949 0.42927L8.99362 1.59453L10 3.32289L12.0012 2.15762L10.9949 0.42927ZM8 3.32289V5.67415H10V3.32289H8ZM8.99089 7.40091L10.9896 8.56895L11.9987 6.84219L10 5.67415L8.99089 7.40091ZM13.0057 8.57021L13.8305 8.08959L12.8235 6.36157L11.9987 6.84219L13.0057 8.57021ZM13.8307 8.08943L15.0075 7.40324L14 5.67553L12.8233 6.36172L13.8307 8.08943ZM16 5.67553V3.32502H14V5.67553H16ZM15.0087 1.59801L13.0099 0.43061L12.0012 2.15762L14 3.32502L15.0087 1.59801ZM16 3.32502C16 2.61407 15.6226 1.95657 15.0087 1.59801L14 3.32502V3.32502H16ZM10.9896 8.56895C11.6123 8.93282 12.3826 8.9333 13.0057 8.57021L11.9987 6.84219L11.9987 6.84219L10.9896 8.56895ZM8 5.67415C8 6.38492 8.37723 7.04229 8.99089 7.40091L10 5.67415V5.67415H8ZM8.99362 1.59453C8.37842 1.95275 8 2.61099 8 3.32289H10L10 3.32289L8.99362 1.59453ZM15.0075 7.40324C15.6221 7.04486 16 6.38698 16 5.67553H14H14L15.0075 7.40324ZM12.0012 2.15762L12.0012 2.15762L13.0099 0.43061C12.3875 0.0671073 11.6177 0.066596 10.9949 0.42927L12.0012 2.15762Z" fill="#C27D04" mask="url(#path-5-inside-3_9859_15005)"/>
</svg>
