<svg width="14" height="14" viewBox="0 0 14 14" fill="none" xmlns="http://www.w3.org/2000/svg">
<g clip-path="url(#clip0_3380_47670)">
<path fill-rule="evenodd" clip-rule="evenodd" d="M5 2.5C5 3.88071 3.88071 5 2.5 5C1.11929 5 0 3.88071 0 2.5C0 1.11929 1.11929 0 2.5 0C3.88071 0 5 1.11929 5 2.5ZM4 2.5C4 3.32843 3.32843 4 2.5 4C1.67157 4 1 3.32843 1 2.5C1 1.67157 1.67157 1 2.5 1C3.32843 1 4 1.67157 4 2.5Z" fill="#DB5C5C"/>
<path d="M9.99854 11C10.5508 11 10.9985 10.5523 10.9985 10C10.9985 9.44771 10.5508 9 9.99854 9C9.44625 9 8.99854 9.44771 8.99854 10C8.99854 10.5523 9.44625 11 9.99854 11Z" fill="#CED0D6"/>
<path fill-rule="evenodd" clip-rule="evenodd" d="M11.1201 13.6756C11.047 13.8707 10.8604 14 10.652 14H9.34498C9.13655 14 8.95 13.8707 8.87681 13.6756L8.62732 13.0102C8.5434 12.7865 8.31286 12.6534 8.07711 12.6926L7.37619 12.8092C7.17059 12.8434 6.96535 12.7464 6.86114 12.5659L6.20764 11.4341C6.10342 11.2536 6.12211 11.0273 6.25453 10.8664L6.70595 10.3177C6.85779 10.1331 6.85779 9.86691 6.70595 9.68235L6.25451 9.13361C6.12209 8.97266 6.10341 8.74645 6.20762 8.56595L6.86112 7.43405C6.96533 7.25355 7.17057 7.15663 7.37617 7.19083L8.07711 7.30742C8.31286 7.34664 8.5434 7.21353 8.62732 6.98976L8.87681 6.32444C8.95 6.12929 9.13655 6 9.34498 6H10.652C10.8604 6 11.047 6.12929 11.1201 6.32444L11.3696 6.98976C11.4536 7.21353 11.6841 7.34664 11.9198 7.30742L12.6208 7.19083C12.8264 7.15663 13.0316 7.25355 13.1358 7.43405L13.7893 8.56595C13.8935 8.74645 13.8749 8.97266 13.7424 9.13361L13.291 9.68235C13.1392 9.86691 13.1392 10.1331 13.291 10.3177L13.7424 10.8664C13.8748 11.0273 13.8935 11.2536 13.7893 11.4341L13.1358 12.5659C13.0316 12.7464 12.8264 12.8434 12.6208 12.8092L11.9198 12.6926C11.6841 12.6534 11.4536 12.7865 11.3696 13.0102L11.1201 13.6756ZM9.69148 13H10.3055L10.4333 12.6591C10.6851 11.9878 11.3767 11.5885 12.0839 11.7061L12.443 11.7659L12.75 11.2341L12.5188 10.953C12.0632 10.3993 12.0632 9.6007 12.5188 9.04703L12.7501 8.76587L12.4431 8.23413L12.0839 8.29387C11.3767 8.41151 10.6851 8.0122 10.4333 7.34088L10.3055 7H9.69148L9.56365 7.34088C9.3119 8.0122 8.62028 8.41151 7.91303 8.29387L7.55389 8.23413L7.24689 8.76587L7.4782 9.04703C7.93371 9.6007 7.93371 10.3993 7.4782 10.953L7.24691 11.2341L7.55391 11.7659L7.91303 11.7061C8.62028 11.5885 9.3119 11.9878 9.56365 12.6591L9.69148 13Z" fill="#CED0D6"/>
<path fill-rule="evenodd" clip-rule="evenodd" d="M10.3086 13H9.69459L9.56676 12.6591C9.31501 11.9878 8.62339 11.5885 7.91614 11.7061L7.55702 11.7659L7.25002 11.2341L7.48131 10.953C7.93681 10.3993 7.93681 9.6007 7.48131 9.04703L7.25 8.76587L7.557 8.23413L7.91614 8.29387C8.62339 8.41151 9.31501 8.0122 9.56676 7.34088L9.69459 7H10.3086L10.4364 7.34088C10.6882 8.0122 11.3798 8.41151 12.087 8.29387L12.4462 8.23413L12.7532 8.76587L12.5219 9.04703C12.0664 9.6007 12.0664 10.3993 12.5219 10.953L12.7532 11.2341L12.4462 11.7659L12.087 11.7061C11.3798 11.5885 10.6882 11.9878 10.4364 12.6591L10.3086 13ZM11.0016 10C11.0016 10.5523 10.5539 11 10.0016 11C9.44936 11 9.00164 10.5523 9.00164 10C9.00164 9.44771 9.44936 9 10.0016 9C10.5539 9 11.0016 9.44771 11.0016 10Z" fill="#43454A"/>
<path d="M2.49969 6C4.43269 6 5.99969 4.433 5.99969 2.5C5.99969 1.56764 5.63513 0.720431 5.04078 0.0931426C7.22833 -0.271407 9.57008 0.679761 11.445 2.55466C12.7363 3.84597 13.6054 5.34918 13.904 6.87578C12.9877 5.73225 11.5793 5 10 5C7.23858 5 5 7.23858 5 10C5 11.5607 5.71505 12.9544 6.83542 13.8713C5.28392 13.5712 3.77203 12.7098 2.53095 11.4688C0.735141 9.67295 -0.231904 7.28991 0.117673 5.06439C0.7424 5.64495 1.57958 6 2.49969 6Z" fill="#253627"/>
<path d="M12.4466 5.63847C13.0086 5.95439 13.5033 6.37577 13.904 6.87578C13.6054 5.34918 12.7363 3.84596 11.445 2.55465C9.57015 0.679818 7.22851 -0.271349 5.04103 0.0930852C5.29965 0.36603 5.51477 0.680615 5.67528 1.02574C5.95253 1.00823 6.23143 1.01521 6.51045 1.04507C7.93547 1.19756 9.43445 1.95834 10.7379 3.26175C11.4868 4.01066 12.0615 4.81866 12.4466 5.63847Z" fill="#57965C"/>
<path d="M6.8354 13.8713C5.28391 13.5712 3.77202 12.7098 2.53095 11.4687C0.735077 9.67287 -0.231972 7.28972 0.11771 5.06414C0.392712 5.31975 0.708893 5.53166 1.0552 5.68882C1.03831 5.97932 1.04708 6.27213 1.07974 6.56531C1.24226 8.02407 2.00531 9.52888 3.23805 10.7616C3.96878 11.4924 4.78905 12.0631 5.63686 12.4438C5.94442 12.9917 6.35222 13.4758 6.8354 13.8713Z" fill="#57965C"/>
<path d="M4.59594 5.3033C4.864 5.10256 5.10231 4.86427 5.30308 4.59623L6.83549 6.12864C6.57694 6.34024 6.33998 6.57722 6.12841 6.83578L4.59594 5.3033Z" fill="#57965C"/>
</g>
<defs>
<clipPath id="clip0_3380_47670">
<rect width="14" height="14" fill="white"/>
</clipPath>
</defs>
</svg>
