<svg width="16" height="16" viewBox="0 0 16 16" fill="none" xmlns="http://www.w3.org/2000/svg">
<path d="M11 8C11 9.65685 9.65685 11 8 11C6.34315 11 5 9.65685 5 8C5 6.34315 6.34315 5 8 5C9.65685 5 11 6.34315 11 8Z" fill="#25324D"/>
<path fill-rule="evenodd" clip-rule="evenodd" d="M5.04148 8.5C5.27952 9.91886 6.5135 11 8 11C9.4865 11 10.7205 9.91886 10.9585 8.5H15.5C15.7761 8.5 16 8.27614 16 8C16 7.72386 15.7761 7.5 15.5 7.5H10.9585C10.7205 6.08114 9.4865 5 8 5C6.5135 5 5.27952 6.08114 5.04148 7.5H0.5C0.223858 7.5 0 7.72386 0 8C0 8.27614 0.223858 8.5 0.5 8.5H5.04148ZM8 10C9.10457 10 10 9.10457 10 8C10 6.89543 9.10457 6 8 6C6.89543 6 6 6.89543 6 8C6 9.10457 6.89543 10 8 10Z" fill="#548AF7"/>
</svg>
