<svg width="16" height="16" viewBox="0 0 16 16" fill="none" xmlns="http://www.w3.org/2000/svg">
<path d="M11.5016 4.54313C11.4082 4.20954 11.3084 3.88907 11.2089 3.58789C10.854 4.17237 10.3368 4.66879 9.79162 5.05397C9.1536 5.50478 8.40739 5.85314 7.67597 6.02381C7.10799 6.15696 6.57857 6.18384 6.07535 6.20933L6.03999 6.21112C5.96593 6.21489 5.89191 6.21865 5.81663 6.2227C5.22691 6.25451 4.66353 6.30436 4.09053 6.5208C2.78649 7.01315 2.15956 8.01355 2.02658 8.9613C1.96447 9.40399 2.00949 9.82953 2.1401 10.1909C2.0998 10.3539 2.0682 10.5178 2.0452 10.6817C1.99897 11.0112 1.98765 11.3649 2.01758 11.7248C1.18232 11.0436 0.890211 9.85976 1.03588 8.8215C1.21718 7.52932 2.07457 6.21204 3.73691 5.58441C4.46391 5.3098 5.15949 5.25582 5.76238 5.22331C5.839 5.21918 5.91451 5.21534 5.9879 5.21162L5.98905 5.21156C6.51596 5.18481 6.96827 5.16167 7.448 5.0492C8.63534 4.77226 9.9641 3.888 10.467 2.86143L11.379 1L12.0515 2.95735C12.083 3.04907 12.1149 3.14338 12.147 3.24007L11.5686 4.42063C11.5489 4.46084 11.5266 4.50173 11.5016 4.54313Z" fill="#57965C"/>
<circle cx="12" cy="12" r="2" fill="#43454A"/>
<path fill-rule="evenodd" clip-rule="evenodd" d="M13.7383 14.4454C13.2479 14.7946 12.6479 15 12 15C10.3431 15 9 13.6569 9 12C9 10.3431 10.3431 9 12 9C13.6569 9 15 10.3431 15 12C15 12.6479 14.7946 13.2479 14.4454 13.7383L15.8536 15.1464C16.0488 15.3417 16.0488 15.6583 15.8536 15.8536C15.6583 16.0488 15.3417 16.0488 15.1464 15.8536L13.7383 14.4454ZM14 12C14 13.1046 13.1046 14 12 14C10.8954 14 10 13.1046 10 12C10 10.8954 10.8954 10 12 10C13.1046 10 14 10.8954 14 12Z" fill="#CED0D6"/>
<path d="M11.7926 7.05396C12.3377 6.66878 12.855 6.17236 13.2099 5.58789C13.4932 6.44539 13.778 7.45914 13.9153 8.48696C13.3467 8.17648 12.6944 8 12.001 8C9.79184 8 8.00098 9.79086 8.00098 12C8.00098 12.1902 8.01425 12.3772 8.03991 12.5603C7.07626 12.8693 5.75115 13.1555 5.20831 13.2678L4.89775 13.1102C4.54569 12.9315 4.27801 12.5889 4.12987 12.1591C4.00793 11.8047 3.96726 11.3911 4.02756 10.9613C4.16053 10.0135 4.78746 9.01314 6.09151 8.52079C6.6645 8.30434 7.22789 8.25449 7.81761 8.22269C7.89288 8.21863 7.96691 8.21487 8.04097 8.21111L8.07633 8.20932C8.57955 8.18383 9.10897 8.15694 9.67695 8.02379C10.4084 7.85312 11.1546 7.50476 11.7926 7.05396Z" fill="#253627"/>
<path d="M8.22537 13.3242C7.9445 13.4236 7.65281 13.5105 7.31692 13.6105C7.02385 13.6977 6.69711 13.795 6.31451 13.9194L6.32043 13.919L6.36639 13.9159L6.38211 13.9149L6.39098 13.9145C6.84671 13.8947 7.34998 13.9103 7.86836 13.9264L8.13726 13.9346C8.25894 13.9382 8.38147 13.9416 8.50454 13.9444C8.3947 13.7473 8.30104 13.54 8.22537 13.3242Z" fill="#253627"/>
<path d="M14.0514 4.9571L13.379 3L12.467 4.86143C11.9641 5.888 10.6353 6.77226 9.448 7.0492C8.96827 7.16167 8.51596 7.18481 7.98905 7.21156L7.9879 7.21162C7.91451 7.21534 7.839 7.21918 7.76238 7.22331C7.15949 7.25582 6.46391 7.3098 5.73691 7.58441C4.07471 8.21199 3.21732 9.5291 3.03593 10.8212C3.01214 10.9907 2.99999 11.1641 3 11.3385C2.99999 12.2327 3.3186 13.1547 4.01758 13.7248C4.1467 13.8301 4.28878 13.9231 4.44424 14.002C4.45247 14.021 4.46246 14.0455 4.47667 14.0804L4.50988 14.1616C4.54521 14.2481 4.63084 14.4576 4.78708 14.6329C4.88103 14.7383 5.01876 14.8542 5.21022 14.9279C5.4062 15.0034 5.60455 15.0138 5.78396 14.9847C5.94384 14.9588 6.10825 14.9407 6.23598 14.929C6.29896 14.9233 6.35103 14.9193 6.38666 14.9167L6.42669 14.914L6.43355 14.9136C6.43355 14.9136 7.4814 14.9156 8.10653 14.9342C8.48489 14.9455 8.88772 14.9551 9.29838 14.9498C8.98267 14.6605 8.71355 14.3212 8.50357 13.9444C8.3805 13.9416 8.25797 13.9383 8.13628 13.9346L7.86738 13.9264C7.34901 13.9103 6.84573 13.8947 6.39 13.9146L6.38114 13.915L6.36541 13.9159L6.31945 13.919L6.31354 13.9194C6.69613 13.795 7.02287 13.6977 7.31594 13.6105C7.65184 13.5105 7.94353 13.4236 8.2244 13.3242C8.13861 13.0796 8.07591 12.8241 8.03894 12.5603C7.07529 12.8693 5.75017 13.1555 5.20733 13.2678L4.89678 13.1102C4.54471 12.9315 4.27703 12.5889 4.1289 12.1592C4.00695 11.8047 3.96628 11.3911 4.02658 10.9613C4.15956 10.0135 4.78649 9.01315 6.09053 8.5208C6.66353 8.30436 7.22691 8.25451 7.81663 8.2227C7.89191 8.21865 7.96593 8.21489 8.03999 8.21112L8.07535 8.20933C8.57857 8.18384 9.10799 8.15696 9.67597 8.02381C10.4074 7.85314 11.1536 7.50478 11.7916 7.05397C12.3368 6.6688 12.854 6.17238 13.2089 5.58791C13.4922 6.4454 13.777 7.45914 13.9143 8.48696C14.3218 8.70948 14.6863 9.00085 14.9922 9.34542C14.9865 9.19405 14.9771 9.04374 14.9646 8.895C14.8433 7.45297 14.4194 6.02834 14.0514 4.9571Z" fill="#57965C"/>
</svg>
