<svg width="16" height="16" viewBox="0 0 16 16" fill="none" xmlns="http://www.w3.org/2000/svg">
<path d="M7.33384 5.76156L2.20566 8.12808C1.63202 6.96229 1.28008 5.93241 1.11423 5.3952C1.04382 5.16713 1.15509 4.92686 1.37031 4.82364L6.84802 2.19655C7.02636 2.11102 7.23382 2.25701 7.22022 2.45433C7.17584 3.09873 7.13512 4.35544 7.33384 5.76156Z" fill="#59A5BA"/>
<path d="M3.68196 10.5658L7.95444 8.23569C7.76983 7.75718 7.6274 7.26565 7.51823 6.77862L2.67348 9.01433C2.96659 9.5321 3.30182 10.0585 3.68196 10.5658Z" fill="#59A5BA"/>
<path d="M14.8533 11.99C14.7818 11.7231 14.5074 11.5647 14.2404 11.6362L13.2737 11.8952C13.0933 11.9435 12.9625 12.0844 12.9187 12.2531C10.6007 11.9737 9.20425 10.7043 8.37086 9.14847L4.32653 11.3542C6.25488 13.509 9.12187 14.9758 13.1807 13.2176C13.303 13.3383 13.4843 13.3928 13.6622 13.3451L14.629 13.0861C14.8959 13.0146 15.0544 12.7403 14.9828 12.4733C14.9352 12.2955 14.9037 12.1782 14.8533 11.99Z" fill="#59A5BA"/>
</svg>
