<svg width="40" height="40" viewBox="0 0 40 40" fill="none" xmlns="http://www.w3.org/2000/svg">
<path d="M6.40039 5.2202C8.80258 3.49755 13.9772 2.2998 19.8987 2.2998C25.8202 2.2998 30.9948 3.49755 33.397 5.2202V35.3727C30.9948 37.1021 25.8202 38.2998 19.8987 38.2998C13.9772 38.2998 8.80258 37.1021 6.40039 35.3727V33.8385L12.5776 32.5735C14.3161 32.2111 15.8676 31.2384 16.9513 29.8314C18.0349 28.4243 18.5792 26.6759 18.4856 24.9024L18.8423 24.8284C20.76 24.4314 22.4692 23.3345 23.566 21.7062C24.4817 20.37 24.929 18.768 24.8378 17.1507L25.2079 17.0766C27.166 16.6729 28.8348 15.3877 29.9114 13.4497C30.9006 11.6665 31.237 9.55362 30.8468 7.64934L30.692 6.88898C30.6418 6.65313 30.5006 6.4466 30.299 6.31425C30.0974 6.18197 29.8516 6.1346 29.6153 6.18243L6.40039 10.9465V5.2202Z" fill="#CC0000"/>
<path d="M15.1144 25.5955C15.0704 26.2772 14.8501 26.9357 14.4752 27.5066C13.8673 28.4219 12.9211 29.0584 11.8442 29.2763L6.40709 30.3933V14.3918L27.5764 10.0449C27.4788 10.6655 27.2737 11.2643 26.9708 11.8146C26.6277 12.427 25.8605 13.5036 24.5484 13.7728L17.8194 15.1522C16.9043 15.3406 16.2853 16.2221 16.4669 17.1373C16.542 17.5208 16.7483 17.8663 17.0503 18.1143C17.3523 18.3624 17.7313 18.4975 18.1222 18.4965C18.2351 18.4953 18.3477 18.484 18.4587 18.4628L21.4733 17.8438C21.419 18.5327 21.1922 19.1968 20.8138 19.775C20.2228 20.6704 19.3008 21.2947 18.2501 21.5111L11.4404 22.9107C11.0367 23.0003 10.6799 23.2349 10.4375 23.57C10.1953 23.9051 10.0844 24.3175 10.1259 24.729C10.1673 25.1404 10.3583 25.5223 10.6626 25.8024C10.9669 26.0824 11.3634 26.241 11.7769 26.2482C11.8898 26.2471 12.0024 26.2358 12.1133 26.2146L15.1144 25.5955Z" fill="#CC0000"/>
</svg>
