<svg width="16" height="16" viewBox="0 0 16 16" fill="none" xmlns="http://www.w3.org/2000/svg">
<path d="M8.00076 1.5C8.00076 1.22386 7.77691 1 7.50076 1C7.22462 1 7.00076 1.22386 7.00076 1.5V2.56574L6.27811 2.08397C6.04835 1.9308 5.73792 1.99289 5.58474 2.22265C5.43156 2.45241 5.49365 2.76285 5.72341 2.91603L7.00076 3.76759V7.1342L4.08504 5.4508L3.98624 3.9188C3.96847 3.64323 3.73067 3.43425 3.4551 3.45202C3.17953 3.46979 2.97054 3.70759 2.98831 3.98316L3.04421 4.84988L2.12125 4.31701C1.8821 4.17894 1.57631 4.26087 1.43824 4.50002C1.30017 4.73917 1.3821 5.04496 1.62125 5.18303L2.54421 5.7159L1.76566 6.10085C1.51813 6.22325 1.41668 6.52313 1.53907 6.77067C1.66146 7.01821 1.96135 7.11966 2.20889 6.99726L3.58504 6.31683L6.50034 7.99998L3.58497 9.68317L2.20882 9.00274C1.96128 8.88034 1.66139 8.98179 1.539 9.22933C1.4166 9.47687 1.51805 9.77675 1.76559 9.89915L2.54414 10.2841L1.62118 10.817C1.38203 10.955 1.30009 11.2608 1.43816 11.5C1.57624 11.7391 1.88203 11.8211 2.12118 11.683L3.04414 11.1501L2.98824 12.0168C2.97047 12.2924 3.17945 12.5302 3.45502 12.548C3.73059 12.5658 3.96839 12.3568 3.98617 12.0812L4.08497 10.5492L7.00076 8.86576V12.2324L5.72341 13.084C5.49365 13.2372 5.43156 13.5476 5.58474 13.7774C5.73792 14.0071 6.04835 14.0692 6.27811 13.916L7.00076 13.4343V14.5C7.00076 14.7761 7.22462 15 7.50076 15C7.77691 15 8.00076 14.7761 8.00076 14.5V1.5Z" fill="#3574F0"/>
<path d="M11.0007 1.5C11.0007 1.22386 10.7769 1 10.5007 1C10.2246 1 10.0007 1.22386 10.0007 1.5V14.5C10.0007 14.7761 10.2246 15 10.5007 15C10.7769 15 11.0007 14.7761 11.0007 14.5V1.5Z" fill="#3574F0"/>
<path d="M14.0007 1.5C14.0007 1.22386 13.7769 1 13.5007 1C13.2246 1 13.0007 1.22386 13.0007 1.5V14.5C13.0007 14.7761 13.2246 15 13.5007 15C13.7769 15 14.0007 14.7761 14.0007 14.5V1.5Z" fill="#3574F0"/>
</svg>
