<svg width="16" height="16" viewBox="0 0 16 16" fill="none" xmlns="http://www.w3.org/2000/svg">
<circle cx="8" cy="8" r="6.5" fill="#EBECF0" stroke="#6C707E"/>
<path d="M6.18477 11.1559C6.7081 11.4659 7.29644 11.6209 7.94977 11.6209C8.5731 11.6209 9.13309 11.4826 9.62977 11.2059C10.1297 10.9259 10.5197 10.5409 10.7997 10.0509C11.0831 9.55753 11.2247 9.0042 11.2247 8.39086V7.83086H8.34977V8.82586H10.0139C9.98788 9.13441 9.89316 9.41274 9.72977 9.66086C9.54977 9.9342 9.30477 10.1476 8.99477 10.3009C8.6881 10.4509 8.34477 10.5259 7.96477 10.5259C7.54144 10.5259 7.16144 10.4192 6.82477 10.2059C6.4881 9.9892 6.22477 9.69086 6.03477 9.31086C5.8481 8.92753 5.75477 8.49086 5.75477 8.00086C5.75477 7.51086 5.8481 7.07586 6.03477 6.69586C6.22477 6.31253 6.48644 6.0142 6.81977 5.80086C7.15644 5.5842 7.53477 5.47586 7.95477 5.47586C8.2881 5.47586 8.59809 5.54086 8.88477 5.67086C9.17477 5.80086 9.41477 5.97586 9.60477 6.19586C9.7981 6.41586 9.9231 6.66086 9.97977 6.93086H11.1847C11.1281 6.45753 10.9497 6.02753 10.6497 5.64086C10.3497 5.25086 9.9631 4.9442 9.48977 4.72086C9.01644 4.4942 8.5031 4.38086 7.94977 4.38086C7.29644 4.38086 6.7081 4.53753 6.18477 4.85086C5.66144 5.16086 5.25144 5.59253 4.95477 6.14586C4.6581 6.69586 4.50977 7.3142 4.50977 8.00086C4.50977 8.68753 4.6581 9.30753 4.95477 9.86086C5.25144 10.4109 5.66144 10.8426 6.18477 11.1559Z" fill="#6C707E"/>
</svg>
