<svg width="16" height="16" viewBox="0 0 16 16" fill="none" xmlns="http://www.w3.org/2000/svg">
<path fill-rule="evenodd" clip-rule="evenodd" d="M6 1C5.44772 1 5 1.44772 5 2V5C5 5.55228 5.44772 6 6 6H7.5V7.5H5C4.44772 7.5 4 7.94772 4 8.5V10H2C1.44772 10 1 10.4477 1 11V14C1 14.5523 1.44772 15 2 15H6C6.55228 15 7 14.5523 7 14V11C7 10.4477 6.55228 10 6 10H5V8.5H11V10H10C9.44772 10 9 10.4477 9 11V14C9 14.5523 9.44772 15 10 15H14C14.5523 15 15 14.5523 15 14V11C15 10.4477 14.5523 10 14 10H12V8.5C12 7.94772 11.5523 7.5 11 7.5H8.5V6H10C10.5523 6 11 5.55228 11 5V2C11 1.44772 10.5523 1 10 1H6ZM6 2H10V5H6V2ZM6 14V11H2V14H6ZM14 14V11H10V14H14Z" fill="#CED0D6"/>
</svg>
