<svg width="16" height="16" viewBox="0 0 16 16" fill="none" xmlns="http://www.w3.org/2000/svg">
<path fill-rule="evenodd" clip-rule="evenodd" d="M1 12C1 12.5523 1.44772 13 2 13C2 13.5523 2.44772 14 3 14C3 14.5523 3.44772 15 4 15H12C12.5523 15 13 14.5523 13 14C13.5523 14 14 13.5523 14 13C14.5523 13 15 12.5523 15 12V4C15 3.44771 14.5523 3 14 3C14 2.44772 13.5523 2 13 2C13 1.44772 12.5523 1 12 1H4C3.44772 1 3 1.44772 3 2C2.44772 2 2 2.44772 2 3C1.44772 3 1 3.44771 1 4V12ZM11.4098 14C10.404 14.5728 9.24022 14.9 8 14.9C6.75979 14.9 5.59599 14.5728 4.59024 14H11.4098ZM4.39241 14C5.12332 14.4404 5.94126 14.751 6.81433 14.9H4C3.50294 14.9 3.1 14.4971 3.1 14H4.39241ZM4.23142 13.9H3.1V13H3.10102C3.44511 13.3372 3.82386 13.6391 4.23142 13.9ZM3.24498 13C3.60249 13.3401 3.99643 13.6422 4.42035 13.9H11.5797C12.0036 13.6422 12.3975 13.3401 12.755 13L3.24498 13ZM3.14202 12.9H12.858C12.872 12.8861 12.8861 12.872 12.9 12.858V3.14202C12.8861 3.12795 12.872 3.11394 12.858 3.1L3.14202 3.1C3.12795 3.11395 3.11395 3.12795 3.1 3.14202V12.858C3.11395 12.872 3.12795 12.8861 3.14202 12.9ZM3 12.9V12.899C2.66282 12.5549 2.36087 12.1761 2.1 11.7686V12.9H3ZM2 12.9L2 11.6076C1.55959 10.8767 1.24895 10.0587 1.1 9.18567L1.1 12C1.1 12.4971 1.50294 12.9 2 12.9ZM1.1 6.81433C1.24895 5.94126 1.55959 5.12332 2 4.39241L2 3.1C1.50294 3.1 1.1 3.50294 1.1 4L1.1 6.81433ZM2.1 3.1V4.23142C2.36087 3.82386 2.66282 3.44511 3 3.10102V3.1H2.1ZM3.1 3V2.1H4.23142C3.82386 2.36087 3.44511 2.66282 3.10102 3H3.1ZM3.24498 3C3.60249 2.6599 3.99643 2.35775 4.42035 2.1H11.5797C12.0036 2.35775 12.3975 2.6599 12.755 3L3.24498 3ZM12.9 3H12.899C12.5549 2.66282 12.1761 2.36087 11.7686 2.1H12.9V3ZM13 3.1V3.10102C13.3372 3.44511 13.6391 3.82386 13.9 4.23142V3.1H13ZM13.9 3L13 3V2.1C13.4971 2.1 13.9 2.50294 13.9 3ZM14 3.1V4.39241C14.4404 5.12332 14.751 5.94126 14.9 6.81433V4C14.9 3.50294 14.4971 3.1 14 3.1ZM14.9 8C14.9 6.75978 14.5728 5.59599 14 4.59024V11.4098C14.5728 10.404 14.9 9.24022 14.9 8ZM3 3L2.1 3C2.1 2.50294 2.50294 2.1 3 2.1V3ZM14.9 9.18567C14.751 10.0587 14.4404 10.8767 14 11.6076V12.9C14.4971 12.9 14.9 12.4971 14.9 12V9.18567ZM13.9 12.9V11.7686C13.6391 12.1761 13.3372 12.5549 13 12.899V12.9H13.9ZM12.899 13H12.9V13.9H11.7686C12.1761 13.6391 12.5549 13.3372 12.899 13ZM13 13L13.9 13C13.9 13.4971 13.4971 13.9 13 13.9V13ZM2.1 13H3L3 13.9C2.50294 13.9 2.1 13.4971 2.1 13ZM2.1 11.5797C2.35775 12.0036 2.6599 12.3975 3 12.755V3.24498C2.6599 3.60249 2.35775 3.99643 2.1 4.42035V11.5797ZM4.39241 2L3.1 2C3.1 1.50294 3.50294 1.1 4 1.1H6.81433C5.94126 1.24895 5.12332 1.55959 4.39241 2ZM11.4098 2C10.404 1.42721 9.24022 1.1 8 1.1C6.75979 1.1 5.59599 1.42721 4.59024 2H11.4098ZM11.6076 2C10.8767 1.55959 10.0587 1.24895 9.18567 1.1H12C12.4971 1.1 12.9 1.50294 12.9 2H11.6076ZM13.9 11.5797C13.6422 12.0036 13.3401 12.3975 13 12.755V3.24498C13.3401 3.60249 13.6422 3.99643 13.9 4.42035V11.5797ZM11.6076 14H12.9C12.9 14.4971 12.4971 14.9 12 14.9H9.18567C10.0587 14.751 10.8767 14.4404 11.6076 14ZM2 4.59024C1.42721 5.59599 1.1 6.75978 1.1 8C1.1 9.24022 1.42721 10.404 2 11.4098V4.59024Z" fill="#5FB865"/>
</svg>
