<svg width="16" height="16" viewBox="0 0 16 16" fill="none" xmlns="http://www.w3.org/2000/svg">
<path fill-rule="evenodd" clip-rule="evenodd" d="M15 11V10C15 8.89543 14.1046 8 13 8C11.8954 8 11 8.89543 11 10V11C10.4477 11 10 11.4477 10 12V15C10 15.5523 10.4477 16 11 16H15C15.5523 16 16 15.5523 16 15V12C16 11.4477 15.5523 11 15 11ZM12 10C12 9.44772 12.4477 9 13 9C13.5523 9 14 9.44772 14 10V11H12V10ZM11 15L11 12H15V15H11Z" fill="#3574F0"/>
<path d="M14.4336 7.36372C15.3716 5.74117 15.1465 3.63034 13.7583 2.24215C12.1014 0.585299 9.41512 0.585298 7.75827 2.24215L6.41476 3.58566C6.2195 3.78092 6.2195 4.0975 6.41476 4.29277C6.61002 4.48803 6.9266 4.48803 7.12187 4.29277L8.46537 2.94926C9.7317 1.68293 11.7848 1.68293 13.0512 2.94926C14.1617 4.05985 14.2983 5.77561 13.4609 7.03505C13.8084 7.08858 14.1362 7.20172 14.4336 7.36372Z" fill="#6C707E"/>
<path d="M9.00049 11.6176C8.95685 11.6405 8.91588 11.6703 8.87919 11.707L7.53944 13.0468C6.27311 14.3131 4.21998 14.3131 2.95365 13.0468C1.68732 11.7804 1.68732 9.72731 2.95365 8.46098L4.29338 7.12125C4.48864 6.92599 4.48864 6.60941 4.29338 6.41415C4.09811 6.21889 3.78153 6.21889 3.58627 6.41415L2.24655 7.75387C0.589692 9.41073 0.589693 12.097 2.24655 13.7539C3.9034 15.4107 6.58969 15.4107 8.24655 13.7539L9.00049 12.9999V11.6176Z" fill="#6C707E"/>
<path d="M11.354 4.64639C11.1588 4.45112 10.8422 4.45112 10.6469 4.64639L4.64693 10.6464C4.45167 10.8416 4.45167 11.1582 4.64693 11.3535C4.8422 11.5488 5.15878 11.5488 5.35404 11.3535L11.354 5.35349C11.5493 5.15823 11.5493 4.84165 11.354 4.64639Z" fill="#6C707E"/>
</svg>
