<svg width="16" height="16" viewBox="0 0 16 16" fill="none" xmlns="http://www.w3.org/2000/svg">
<path fill-rule="evenodd" clip-rule="evenodd" d="M7.5 0C7.77614 0 8 0.223858 8 0.5V2.52469C9.00562 2.62453 9.92359 3.02233 10.6644 3.62855L12.0962 2.19674C12.2915 2.00148 12.608 2.00148 12.8033 2.19674C12.9986 2.392 12.9986 2.70858 12.8033 2.90385L11.3715 4.33566C11.9777 5.07645 12.3755 5.99442 12.4753 7.00004H14.5C14.7761 7.00004 15 7.2239 15 7.50004C15 7.77618 14.7761 8.00004 14.5 8.00004H12.4753C12.3755 9.00565 11.9777 9.9236 11.3715 10.6644L12.8033 12.0962C12.9986 12.2915 12.9986 12.6081 12.8033 12.8033C12.608 12.9986 12.2915 12.9986 12.0962 12.8033L10.6643 11.3715C9.92356 11.9777 9.0056 12.3755 8 12.4753V14.5C8 14.7762 7.77614 15 7.5 15C7.22386 15 7 14.7762 7 14.5V12.4753C5.9944 12.3755 5.07644 11.9777 4.33566 11.3715L2.90381 12.8033C2.70854 12.9986 2.39196 12.9986 2.1967 12.8033C2.00144 12.6081 2.00144 12.2915 2.1967 12.0962L3.62855 10.6644C3.02234 9.9236 2.62454 9.00565 2.52469 8.00004H0.5C0.223858 8.00004 0 7.77618 0 7.50004C0 7.2239 0.223858 7.00004 0.5 7.00004H2.52468C2.62452 5.99442 3.0223 5.07645 3.62851 4.33566L2.1967 2.90385C2.00144 2.70858 2.00144 2.392 2.1967 2.19674C2.39196 2.00148 2.70854 2.00148 2.90381 2.19674L4.33561 3.62855C5.07641 3.02233 5.99438 2.62453 7 2.52469V0.5C7 0.223858 7.22386 0 7.5 0ZM7.5 3.5C5.29086 3.5 3.5 5.29086 3.5 7.5C3.5 9.70914 5.29086 11.5 7.5 11.5C9.70914 11.5 11.5 9.70914 11.5 7.5C11.5 5.29086 9.70914 3.5 7.5 3.5Z" fill="#CED0D6"/>
</svg>
