<svg width="16" height="16" viewBox="0 0 16 16" fill="none" xmlns="http://www.w3.org/2000/svg">
<path fill-rule="evenodd" clip-rule="evenodd" d="M12 7.5C12 7.22386 11.7761 7 11.5 7C11.2239 7 11 7.22386 11 7.5V8.03544C10.407 8.12026 9.86204 8.3537 9.40391 8.69681L9.02513 8.31802C8.82986 8.12276 8.51328 8.12276 8.31802 8.31802C8.12276 8.51328 8.12276 8.82986 8.31802 9.02513L8.69681 9.40391C8.3537 9.86204 8.12026 10.407 8.03544 11H7.5C7.22386 11 7 11.2239 7 11.5C7 11.7761 7.22386 12 7.5 12H8.03544C8.12026 12.593 8.3537 13.138 8.69681 13.5961L8.31802 13.9749C8.12276 14.1701 8.12276 14.4867 8.31802 14.682C8.51328 14.8772 8.82986 14.8772 9.02513 14.682L9.40391 14.3032C9.86204 14.6463 10.407 14.8797 11 14.9646V15.5C11 15.7761 11.2239 16 11.5 16C11.7761 16 12 15.7761 12 15.5V14.9646C12.593 14.8797 13.138 14.6463 13.5961 14.3032L13.9749 14.682C14.1701 14.8772 14.4867 14.8772 14.682 14.682C14.8772 14.4867 14.8772 14.1701 14.682 13.9749L14.3032 13.5961C14.6463 13.138 14.8797 12.593 14.9646 12H15.5C15.7761 12 16 11.7761 16 11.5C16 11.2239 15.7761 11 15.5 11H14.9646C14.8797 10.407 14.6463 9.86204 14.3032 9.40391L14.682 9.02513C14.8772 8.82986 14.8772 8.51328 14.682 8.31802C14.4867 8.12276 14.1701 8.12276 13.9749 8.31802L13.5961 8.69681C13.138 8.3537 12.593 8.12026 12 8.03544V7.5ZM14 11.5C14 10.9905 13.8476 10.5165 13.5858 10.1213C13.4 9.84084 13.1592 9.59999 12.8787 9.41422C12.4835 9.15245 12.0096 9 11.5 9C10.1193 9 9 10.1193 9 11.5C9 12.0096 9.15245 12.4835 9.41422 12.8787C9.59999 13.1592 9.84084 13.4 10.1213 13.5858C10.5165 13.8476 10.9905 14 11.5 14C12.8807 14 14 12.8807 14 11.5Z" fill="#039BA1"/>
<path fill-rule="evenodd" clip-rule="evenodd" d="M5 11V10C5 8.89543 4.10457 8 3 8C1.89543 8 1 8.89543 1 10V11C0.447715 11 0 11.4477 0 12V15C0 15.5523 0.447715 16 1 16H5C5.55228 16 6 15.5523 6 15V12C6 11.4477 5.55228 11 5 11ZM2 10C2 9.44772 2.44772 9 3 9C3.55228 9 4 9.44772 4 10V11H2V10ZM1 15L1 12H5V15H1Z" fill="#3574F0"/>
<path d="M3 2C1.89543 2 1 2.89543 1 4V7.76389C1.53076 7.28885 2.23165 7 3 7C4.65685 7 6 8.34315 6 10V10.2676C6.04154 10.2916 6.08213 10.3171 6.12171 10.3439C6.65275 7.86146 8.85899 6 11.5 6C12.8296 6 14.0491 6.47182 15 7.25716V4C15 2.89543 14.1046 2 13 2H3Z" fill="#EBECF0"/>
<path fill-rule="evenodd" clip-rule="evenodd" d="M3 2C1.89543 2 1 2.89543 1 4V7.76389C1.28855 7.50564 1.62738 7.30241 2 7.17071V6H5V7.76389C5.61375 8.31321 6 9.1115 6 10V6H10V6.20703C10.3223 6.11588 10.6566 6.05337 11 6.02242V6H14V6.59971C14.3578 6.78261 14.6929 7.00353 15 7.25716V4C15 2.89543 14.1046 2 13 2H3ZM10 3H6V5H10V3ZM3 3H5V5H2V4C2 3.44772 2.44772 3 3 3ZM14 4V5H11V3H13C13.5523 3 14 3.44772 14 4Z" fill="#6C707E"/>
</svg>
