<svg width="16" height="16" viewBox="0 0 16 16" fill="none" xmlns="http://www.w3.org/2000/svg">
<path d="M2.14645 15.8536C2.34171 16.0488 2.65829 16.0488 2.85355 15.8536C3.04882 15.6583 3.04882 15.3417 2.85355 15.1464L1.70711 14L6.5 14C6.77614 14 7 13.7761 7 13.5C7 13.2239 6.77614 13 6.5 13L1.70711 13L2.85355 11.8536C3.04882 11.6583 3.04882 11.3417 2.85355 11.1464C2.65829 10.9512 2.34171 10.9512 2.14645 11.1464L0.146447 13.1464C0.0526788 13.2402 0 13.3674 0 13.5C0 13.6326 0.0526788 13.7598 0.146447 13.8536L2.14645 15.8536Z" fill="#548AF7"/>
<path d="M13.1464 11.1464C13.3417 10.9512 13.6583 10.9512 13.8536 11.1464L15.8536 13.1464C15.9015 13.1944 15.9377 13.2496 15.9621 13.3086C15.9865 13.3676 16 13.4322 16 13.5C16 13.5678 15.9865 13.6324 15.9621 13.6914C15.9377 13.7504 15.9015 13.8056 15.8536 13.8536L13.8536 15.8536C13.6583 16.0488 13.3417 16.0488 13.1464 15.8536C12.9512 15.6583 12.9512 15.3417 13.1464 15.1464L14.2929 14H9.5C9.22386 14 9 13.7761 9 13.5C9 13.2239 9.22386 13 9.5 13H14.2929L13.1464 11.8536C12.9512 11.6583 12.9512 11.3417 13.1464 11.1464Z" fill="#548AF7"/>
<path d="M14.5 10.3819C13.911 9.85423 13.0053 9.87337 12.4393 10.4393C12.0173 10.8614 11.8993 11.4723 12.0854 12L3.91458 12C4.10067 11.4723 3.9827 10.8614 3.56066 10.4393C2.99469 9.87337 2.08896 9.85422 1.5 10.3819V4.5L7.99998 1.5L14.5 4.5V10.3819Z" fill="#EBECF0"/>
<path d="M7.79045 1.04602C7.92339 0.98466 8.07656 0.98466 8.2095 1.04602L14.7095 4.04602C14.8866 4.12775 15 4.30497 15 4.5V10.8787L14.5607 10.4393C14.3969 10.2756 14.2047 10.1576 14 10.0854V4.81992L7.99998 2.05069L2 4.81992V10.0854C1.79527 10.1576 1.60309 10.2756 1.43934 10.4393L1 10.8787V4.5C1 4.30497 1.1134 4.12775 1.29047 4.04602L7.79045 1.04602Z" fill="#6C707E"/>
<path d="M8.50012 12H7.50012V7.82497L3.29707 5.95716C3.04473 5.84502 2.93107 5.54954 3.04321 5.2972C3.15535 5.04485 3.45083 4.93119 3.70318 5.04333L8.00012 6.95287L12.2971 5.04333C12.5494 4.93119 12.8449 5.04485 12.957 5.2972C13.0692 5.54954 12.9555 5.84502 12.7032 5.95716L8.50012 7.82497V12Z" fill="#6C707E"/>
</svg>
