<svg width="16" height="16" viewBox="0 0 16 16" fill="none" xmlns="http://www.w3.org/2000/svg">
<path fill-rule="evenodd" clip-rule="evenodd" d="M15.3798 12.7117C15.5435 12.8691 15.5436 13.131 15.3799 13.2884L12.6774 15.8876C12.4232 16.132 12 15.9519 12 15.5993L12 10.4038C12 10.0513 12.423 9.87118 12.6772 10.1154L15.3798 12.7117Z" fill="#55A76A"/>
<path fill-rule="evenodd" clip-rule="evenodd" d="M7.62255 13.2883C7.45909 13.1309 7.45916 12.8692 7.62271 12.7119L10.3216 10.1163C10.5757 9.87185 10.9989 10.0519 10.9989 10.4045V15.5986C10.9989 15.9514 10.5755 16.1314 10.3214 15.8868L7.62255 13.2883Z" fill="#E55765"/>
<path fill-rule="evenodd" clip-rule="evenodd" d="M8 10.9617V4H9.77419C10.2817 4 10.6989 4.09638 11.0258 4.28913C11.357 4.48188 11.6022 4.77314 11.7613 5.16292C11.9204 5.55271 12 6.04315 12 6.63425C12 7.22963 11.9183 7.72222 11.7548 8.112C11.5957 8.50178 11.3462 8.79519 11.0065 8.99223C11.0016 8.99503 10.9967 8.99781 10.9918 9.00057C10.8644 9.00073 10.7296 9.00113 10.5821 9.00191C10.3001 9.0034 10.0137 9.0909 9.76222 9.28116C9.74907 9.28129 9.73585 9.28135 9.72258 9.28135H9.16774V9.83862L8 10.9617ZM9.76129 8.22123C10.1183 8.22123 10.3742 8.09487 10.529 7.84215C10.6882 7.58515 10.7677 7.18252 10.7677 6.63425C10.7677 6.09455 10.6882 5.69834 10.529 5.44563C10.3742 5.18863 10.1183 5.06013 9.76129 5.06013H9.16774V8.22123H9.76129Z" fill="#3574F0"/>
<path fill-rule="evenodd" clip-rule="evenodd" d="M6.78407 12.1545L5.34043 4.00488H3.81128L2.25 12.9999H3.47075L3.80973 10.6548H5.38491L5.7452 12.9999H6.5C6.50007 12.7017 6.59477 12.4035 6.78407 12.1545ZM4.65938 5.93238L5.23289 9.6653H3.95275L4.49233 5.93238L4.57585 5.33485L4.65938 5.93238Z" fill="#3574F0"/>
<path d="M14 9.99931V4.00488H13V9.13526C13.1302 9.19801 13.2551 9.28365 13.37 9.39408L14 9.99931Z" fill="#3574F0"/>
</svg>
