<svg width="16" height="16" viewBox="0 0 16 16" fill="none" xmlns="http://www.w3.org/2000/svg">
<path d="M3.47773 3.9H5.37573C5.89573 3.9 6.32473 3.99967 6.66273 4.199C7.00506 4.39833 7.25856 4.69517 7.42323 5.0895C7.58789 5.48383 7.67023 5.98 7.67023 6.578C7.67023 7.18033 7.58573 7.68083 7.41673 8.0795C7.24773 8.47817 6.98989 8.77717 6.64323 8.9765C6.29656 9.17583 5.85673 9.2755 5.32373 9.2755H4.78423V13H3.47773V3.9ZM5.35623 8.073C5.59889 8.073 5.79173 8.02317 5.93473 7.9235C6.07773 7.8195 6.17956 7.66133 6.24023 7.449C6.30523 7.23667 6.33773 6.9485 6.33773 6.5845C6.33773 6.2205 6.30523 5.93233 6.24023 5.72C6.17956 5.50767 6.07773 5.35383 5.93473 5.2585C5.79173 5.15883 5.59889 5.109 5.35623 5.109H4.78423V8.073H5.35623ZM10.5136 11.973C10.7389 11.973 10.9252 11.8863 11.0726 11.713C11.2199 11.5353 11.3304 11.2407 11.4041 10.829C11.4821 10.413 11.5211 9.841 11.5211 9.113V7.787C11.5211 7.059 11.4821 6.48917 11.4041 6.0775C11.3304 5.6615 11.2199 5.36683 11.0726 5.1935C10.9252 5.01583 10.7389 4.927 10.5136 4.927C10.2839 4.927 10.0954 5.01583 9.94807 5.1935C9.80074 5.36683 9.68807 5.6615 9.61007 6.0775C9.5364 6.48917 9.49957 7.059 9.49957 7.787V9.113C9.49957 9.841 9.5364 10.413 9.61007 10.829C9.68807 11.2407 9.80074 11.5353 9.94807 11.713C10.0954 11.8863 10.2839 11.973 10.5136 11.973ZM10.5136 13.156C10.0066 13.156 9.57757 13.0087 9.22657 12.714C8.8799 12.415 8.61557 11.9665 8.43357 11.3685C8.2559 10.7705 8.16707 10.0187 8.16707 9.113V7.787C8.16707 6.88133 8.2559 6.1295 8.43357 5.5315C8.61557 4.9335 8.8799 4.48717 9.22657 4.1925C9.57757 3.8935 10.0066 3.744 10.5136 3.744C11.0206 3.744 11.4474 3.89133 11.7941 4.186C12.1451 4.48067 12.4094 4.92917 12.5871 5.5315C12.7691 6.1295 12.8601 6.88133 12.8601 7.787V9.113C12.8601 10.0187 12.7691 10.7727 12.5871 11.375C12.4094 11.973 12.1451 12.4193 11.7941 12.714C11.4474 13.0087 11.0206 13.156 10.5136 13.156Z" fill="#3574F0"/>
</svg>
