<svg width="16" height="16" viewBox="0 0 16 16" fill="none" xmlns="http://www.w3.org/2000/svg">
<path d="M12 12H14V11H12V12Z" fill="#548AF7"/>
<path d="M12 14H14V13H12V14Z" fill="#548AF7"/>
<path fill-rule="evenodd" clip-rule="evenodd" d="M11 9C10.4477 9 10 9.44772 10 10V15C10 15.5523 10.4477 16 11 16H15C15.5523 16 16 15.5523 16 15V10C16 9.44772 15.5523 9 15 9H11ZM15 10H11V15H15V10Z" fill="#548AF7"/>
<path fill-rule="evenodd" clip-rule="evenodd" d="M12 4V5H15.5C15.7761 5 16 5.22386 16 5.5C16 5.77614 15.7761 6 15.5 6H12V8H11V4H7C5.34315 4 4 5.34315 4 7V9C4 10.6569 5.34315 12 7 12H9V13H7C5.13616 13 3.57006 11.7252 3.12602 10H1C0.447715 10 0 9.55228 0 9V7C0 6.44772 0.447715 6 1 6H3.12602C3.57006 4.27477 5.13616 3 7 3H11C11.5523 3 12 3.44772 12 4ZM3 9V7L1 7V9H3Z" fill="#CED0D6"/>
</svg>
