<svg width="16" height="16" viewBox="0 0 16 16" fill="none" xmlns="http://www.w3.org/2000/svg">
<path fill-rule="evenodd" clip-rule="evenodd" d="M11 10.5C11 10.2239 11.2239 10 11.5 10H15.5C15.7761 10 16 10.2239 16 10.5V14.5C16 14.7761 15.7761 15 15.5 15C15.2239 15 15 14.7761 15 14.5V11.7071L10.8536 15.8536C10.6583 16.0488 10.3417 16.0488 10.1464 15.8536C9.95118 15.6583 9.95118 15.3417 10.1464 15.1464L14.2929 11H11.5C11.2239 11 11 10.7761 11 10.5Z" fill="#6C707E"/>
<path fill-rule="evenodd" clip-rule="evenodd" d="M2 5.2C2 4.0799 2 3.51984 2.21799 3.09202C2.40973 2.71569 2.71569 2.40973 3.09202 2.21799C3.51984 2 4.0799 2 5.2 2H10.8C11.9201 2 12.4802 2 12.908 2.21799C13.2843 2.40973 13.5903 2.71569 13.782 3.09202C14 3.51984 14 4.0799 14 5.2V9H13V5.2C13 4.62345 12.9992 4.25117 12.9761 3.96784C12.9539 3.69617 12.9162 3.59545 12.891 3.54601C12.7951 3.35785 12.6422 3.20487 12.454 3.10899C12.4045 3.0838 12.3038 3.04612 12.0322 3.02393C11.7488 3.00078 11.3766 3 10.8 3H5.2C4.62345 3 4.25117 3.00078 3.96784 3.02393C3.69617 3.04612 3.59545 3.0838 3.54601 3.10899C3.35785 3.20487 3.20487 3.35785 3.10899 3.54601C3.0838 3.59545 3.04612 3.69617 3.02393 3.96784C3.00078 4.25117 3 4.62345 3 5.2V8.13631L3.83063 7.31334C4.39813 6.75109 5.30671 6.73225 5.89702 7.2705L11.4997 12.379L9.87868 14H5.2C4.0799 14 3.51984 14 3.09202 13.782C2.71569 13.5903 2.40973 13.2843 2.21799 12.908C2 12.4802 2 11.9201 2 10.8V5.2ZM3 9.54402V10.8C3 11.3766 3.00078 11.7488 3.02393 12.0322C3.04612 12.3038 3.0838 12.4045 3.10899 12.454C3.20487 12.6422 3.35785 12.7951 3.54601 12.891C3.59545 12.9162 3.69617 12.9539 3.96784 12.9761C4.25117 12.9992 4.62345 13 5.2 13H10.6965L5.22325 8.00944C5.02648 7.83002 4.72362 7.8363 4.53445 8.02372L3 9.54402Z" fill="#3574F0"/>
<path fill-rule="evenodd" clip-rule="evenodd" d="M8 6C8 4.89543 8.89543 4 10 4C11.1046 4 12 4.89543 12 6C12 7.10457 11.1046 8 10 8C8.89543 8 8 7.10457 8 6ZM10 5C9.44772 5 9 5.44772 9 6C9 6.55228 9.44772 7 10 7C10.5523 7 11 6.55228 11 6C11 5.44772 10.5523 5 10 5Z" fill="#3574F0"/>
<path d="M9 6C9 5.44772 9.44772 5 10 5C10.5523 5 11 5.44772 11 6C11 6.55228 10.5523 7 10 7C9.44772 7 9 6.55228 9 6Z" fill="#EDF3FF"/>
<path fill-rule="evenodd" clip-rule="evenodd" d="M13 9V5.2C13 4.62345 12.9992 4.25117 12.9761 3.96784C12.9539 3.69617 12.9162 3.59545 12.891 3.54601C12.7951 3.35785 12.6422 3.20487 12.454 3.10899C12.4045 3.0838 12.3038 3.04612 12.0322 3.02393C11.7488 3.00078 11.3766 3 10.8 3H5.2C4.62345 3 4.25117 3.00078 3.96784 3.02393C3.69617 3.04612 3.59545 3.0838 3.54601 3.10899C3.35785 3.20487 3.20487 3.35785 3.10899 3.54601C3.0838 3.59545 3.04612 3.69617 3.02393 3.96784C3.00078 4.25117 3 4.62345 3 5.2V8.13631L3.83063 7.31334C4.39813 6.75109 5.30671 6.73225 5.89702 7.2705L10.1447 11.1435C10.0519 10.9485 10 10.7303 10 10.5C10 9.67157 10.6716 9 11.5 9H13ZM10 4C8.89543 4 8 4.89543 8 6C8 7.10457 8.89543 8 10 8C11.1046 8 12 7.10457 12 6C12 4.89543 11.1046 4 10 4Z" fill="#EDF3FF"/>
<path d="M3 10.8V9.54402L4.53445 8.02372C4.72362 7.8363 5.02648 7.83002 5.22325 8.00944L10.6965 13H5.2C4.62345 13 4.25117 12.9992 3.96784 12.9761C3.69617 12.9539 3.59545 12.9162 3.54601 12.891C3.35785 12.7951 3.20487 12.6422 3.10899 12.454C3.0838 12.4045 3.04612 12.3038 3.02393 12.0322C3.00078 11.7488 3 11.3766 3 10.8Z" fill="#EDF3FF"/>
</svg>
