<svg width="16" height="16" viewBox="0 0 16 16" fill="none" xmlns="http://www.w3.org/2000/svg">
<path fill-rule="evenodd" clip-rule="evenodd" d="M14 15.0002C13.9999 15.5524 13.5522 16 13 16H10C9.44772 16 9 15.5523 9 15V12C9 11.4477 9.44772 11 10 11H13C13.5523 11 14 11.4477 14 12L15.2764 11.362C15.6088 11.1958 16 11.4375 16 11.8092V15.1912C16 15.5629 15.6088 15.8046 15.2764 15.6384L14 15.0002ZM10 12H13V15H10L10 12ZM14 13.8822L15 14.3822V12.6183L14 13.1183V13.8822Z" fill="#6C707E"/>
<path d="M2 5.2C2 4.0799 2 3.51984 2.21799 3.09202C2.40973 2.71569 2.71569 2.40973 3.09202 2.21799C3.51984 2 4.0799 2 5.2 2H10.8C11.9201 2 12.4802 2 12.908 2.21799C13.2843 2.40973 13.5903 2.71569 13.782 3.09202C14 3.51984 14 4.0799 14 5.2V10H10C8.89543 10 8 10.8954 8 12V14H5.2C4.0799 14 3.51984 14 3.09202 13.782C2.71569 13.5903 2.40973 13.2843 2.21799 12.908C2 12.4802 2 11.9201 2 10.8V5.2Z" fill="#FAF5FF"/>
<path d="M2.21799 3.09202C2 3.51984 2 4.0799 2 5.2V10.8C2 11.9201 2 12.4802 2.21799 12.908C2.40973 13.2843 2.71569 13.5903 3.09202 13.782C3.51984 14 4.0799 14 5.2 14H8V13H5.2C4.62345 13 4.25117 12.9992 3.96784 12.9761C3.69617 12.9539 3.59545 12.9162 3.54601 12.891C3.35785 12.7951 3.20487 12.6422 3.10899 12.454C3.0838 12.4045 3.04612 12.3038 3.02393 12.0322C3.00078 11.7488 3 11.3766 3 10.8V9.54402L4.53445 8.02372C4.72362 7.8363 5.02648 7.83002 5.22325 8.00944L8.3538 10.8639C8.54689 10.5846 8.8092 10.3569 9.11593 10.2055L5.89702 7.2705C5.30671 6.73225 4.39813 6.75109 3.83063 7.31334L3 8.13631V5.2C3 4.62345 3.00078 4.25117 3.02393 3.96784C3.04612 3.69617 3.0838 3.59545 3.10899 3.54601C3.20487 3.35785 3.35785 3.20487 3.54601 3.10899C3.59545 3.0838 3.69617 3.04612 3.96784 3.02393C4.25117 3.00078 4.62345 3 5.2 3H10.8C11.3766 3 11.7488 3.00078 12.0322 3.02393C12.3038 3.04612 12.4045 3.0838 12.454 3.10899C12.6422 3.20487 12.7951 3.35785 12.891 3.54601C12.9162 3.59545 12.9539 3.69617 12.9761 3.96784C12.9992 4.25117 13 4.62345 13 5.2V10H14V5.2C14 4.0799 14 3.51984 13.782 3.09202C13.5903 2.71569 13.2843 2.40973 12.908 2.21799C12.4802 2 11.9201 2 10.8 2H5.2C4.0799 2 3.51984 2 3.09202 2.21799C2.71569 2.40973 2.40973 2.71569 2.21799 3.09202Z" fill="#834DF0"/>
<path fill-rule="evenodd" clip-rule="evenodd" d="M10 4C8.89543 4 8 4.89543 8 6C8 7.10457 8.89543 8 10 8C11.1046 8 12 7.10457 12 6C12 4.89543 11.1046 4 10 4ZM9 6C9 5.44772 9.44772 5 10 5C10.5523 5 11 5.44772 11 6C11 6.55228 10.5523 7 10 7C9.44772 7 9 6.55228 9 6Z" fill="#834DF0"/>
</svg>
