<svg width="16" height="16" viewBox="0 0 16 16" fill="none" xmlns="http://www.w3.org/2000/svg">
<path d="M2.58579 13.4142C2.73329 13.5617 2.90386 13.6861 3.09202 13.782C3.51984 14 4.0799 14 5.2 14H10.8C11.9201 14 12.4802 14 12.908 13.782C13.2843 13.5903 13.5903 13.2843 13.782 12.908C14 12.4802 14 11.9201 14 10.8V5.2C14 4.0799 14 3.51984 13.782 3.09202C13.6861 2.90386 13.5617 2.73329 13.4142 2.58579L2.58579 13.4142Z" fill="#253627"/>
<path d="M11.8664 2.01232C11.5773 2 11.2299 2 10.8 2H5.2C4.0799 2 3.51984 2 3.09202 2.21799C2.71569 2.40973 2.40973 2.71569 2.21799 3.09202C2 3.51984 2 4.0799 2 5.2V10.8C2 11.2299 2 11.5773 2.01232 11.8664L11.8664 2.01232Z" fill="#253627"/>
<path fill-rule="evenodd" clip-rule="evenodd" d="M14.8536 1.85355C15.0488 1.65829 15.0488 1.34171 14.8536 1.14645C14.6583 0.951184 14.3417 0.951184 14.1464 1.14645L1.14645 14.1464C0.951184 14.3417 0.951184 14.6583 1.14645 14.8536C1.34171 15.0488 1.65829 15.0488 1.85355 14.8536L2.98425 13.7229C3.01948 13.7436 3.05542 13.7634 3.09202 13.782C3.51984 14 4.0799 14 5.2 14H10.8C11.9201 14 12.4802 14 12.908 13.782C13.2843 13.5903 13.5903 13.2843 13.782 12.908C14 12.4802 14 11.9201 14 10.8V5.2C14 4.0799 14 3.51984 13.782 3.09202C13.7634 3.05542 13.7436 3.01948 13.7229 2.98425L14.8536 1.85355ZM12.951 3.7561L11.7231 4.98402C11.899 5.28177 12 5.6291 12 6C12 7.10457 11.1046 8 10 8C9.6291 8 9.28177 7.89904 8.98402 7.72309L7.74846 8.95865L12.1426 12.9652C12.3327 12.9429 12.4119 12.9124 12.454 12.891C12.6422 12.7951 12.7951 12.6422 12.891 12.454C12.9162 12.4045 12.9539 12.3038 12.9761 12.0322C12.9992 11.7488 13 11.3766 13 10.8V5.2C13 4.62345 12.9992 4.25117 12.9761 3.96784C12.969 3.88115 12.9603 3.81187 12.951 3.7561ZM7.0406 9.66651L3.7561 12.951C3.81187 12.9603 3.88115 12.969 3.96784 12.9761C4.25117 12.9992 4.62345 13 5.2 13H10.6965L7.0406 9.66651ZM9.74098 6.96613C9.82359 6.98822 9.91042 7 10 7C10.5523 7 11 6.55228 11 6C11 5.91042 10.9882 5.82359 10.9661 5.74098L9.74098 6.96613ZM5.56115 8.31753L5.22325 8.00944C5.02648 7.83002 4.72362 7.8363 4.53445 8.02372L3 9.54402V10.8L3.00001 10.8787L2.01232 11.8664C2 11.5773 2 11.2299 2 10.8V5.2C2 4.0799 2 3.51984 2.21799 3.09202C2.40973 2.71569 2.71569 2.40973 3.09202 2.21799C3.51984 2 4.0799 2 5.2 2H10.8C11.2299 2 11.5773 2 11.8664 2.01232L10.8787 3.00001L10.8 3H5.2C4.62345 3 4.25117 3.00078 3.96784 3.02393C3.69617 3.04612 3.59545 3.0838 3.54601 3.10899C3.35785 3.20487 3.20487 3.35785 3.10899 3.54601C3.0838 3.59545 3.04612 3.69617 3.02393 3.96784C3.00078 4.25117 3 4.62345 3 5.2V8.13631L3.83063 7.31334C4.39813 6.75109 5.30671 6.73225 5.89702 7.2705L6.26901 7.60967L5.56115 8.31753Z" fill="#57965C"/>
</svg>
