<svg width="16" height="16" viewBox="0 0 16 16" fill="none" xmlns="http://www.w3.org/2000/svg">
<path fill-rule="evenodd" clip-rule="evenodd" d="M14.4122 8.29491C14.0217 7.90438 13.3885 7.90438 12.998 8.29491L11.6466 9.64627L8 13.2929V16H10.7071L15.7051 11.002C16.0956 10.6115 16.0956 9.97832 15.7051 9.5878L14.4122 8.29491ZM14 11.2929L14.998 10.2949L13.7051 9.00201L12.7071 9.99999L14 11.2929ZM12 10.7071L13.2929 12L10.2929 15H9V13.7071L12 10.7071Z" fill="#6C707E"/>
<path d="M5 1C3.89543 1 3 1.89543 3 3V13C3 14.1046 3.89543 15 5 15H7V12.8786L12.2909 7.58774C12.4989 7.37968 12.7414 7.22705 13 7.12983V3C13 1.89543 12.1046 1 11 1H5Z" fill="#FFF7F7"/>
<path d="M5 1C3.89543 1 3 1.89543 3 3V13C3 14.1046 3.89543 15 5 15H7V14H5C4.44772 14 4 13.5523 4 13V3C4 2.44772 4.44772 2 5 2H11C11.5523 2 12 2.44772 12 3V7.8786L12.2909 7.58774C12.4989 7.37968 12.7414 7.22705 13 7.12983V3C13 1.89543 12.1046 1 11 1H5Z" fill="#DB3B4B"/>
<path fill-rule="evenodd" clip-rule="evenodd" d="M8.5 3.5C8.5 3.22386 8.27614 3 8 3C7.72386 3 7.5 3.22386 7.5 3.5V4.06301C7.31651 4.11024 7.14321 4.18285 6.98406 4.27688L6.58605 3.87887C6.39079 3.68361 6.07421 3.68361 5.87894 3.87887C5.68368 4.07413 5.68368 4.39071 5.87894 4.58598L6.27694 4.98397C6.18288 5.14314 6.11025 5.31647 6.06301 5.5H5.5C5.22386 5.5 5 5.72386 5 6C5 6.27614 5.22386 6.5 5.5 6.5H6.06301C6.11025 6.68353 6.18288 6.85686 6.27694 7.01603L5.87849 7.41448C5.68323 7.60974 5.68323 7.92632 5.87849 8.12158C6.07375 8.31685 6.39034 8.31685 6.5856 8.12158L6.98406 7.72312C7.14321 7.81715 7.31651 7.88976 7.5 7.93699V8.5C7.5 8.77614 7.72386 9 8 9C8.27614 9 8.5 8.77614 8.5 8.5V7.93699C8.68353 7.88975 8.85686 7.81712 9.01603 7.72306L9.41448 8.12151C9.60974 8.31677 9.92632 8.31677 10.1216 8.12151C10.3168 7.92625 10.3168 7.60966 10.1216 7.4144L9.72312 7.01594C9.81715 6.85679 9.88976 6.68349 9.93699 6.5H10.5C10.7761 6.5 11 6.27614 11 6C11 5.72386 10.7761 5.5 10.5 5.5H9.93699C9.88976 5.31651 9.81715 5.14321 9.72312 4.98406L10.1211 4.58605C10.3164 4.39079 10.3164 4.07421 10.1211 3.87894C9.92587 3.68368 9.60929 3.68368 9.41402 3.87894L9.01603 4.27694C8.85686 4.18288 8.68353 4.11025 8.5 4.06301V3.5ZM8 7C8.55228 7 9 6.55228 9 6C9 5.44772 8.55228 5 8 5C7.44772 5 7 5.44772 7 6C7 6.55228 7.44772 7 8 7Z" fill="#DB3B4B"/>
</svg>
