<svg width="14" height="14" viewBox="0 0 14 14" fill="none" xmlns="http://www.w3.org/2000/svg">
<path d="M10 7C10 9.48528 7.98528 11.5 5.5 11.5C3.01472 11.5 1 9.48528 1 7C1 4.51472 3.01472 2.5 5.5 2.5C7.98528 2.5 10 4.51472 10 7Z" fill="#402929"/>
<path fill-rule="evenodd" clip-rule="evenodd" d="M11.5 8C11.2239 8 11 7.77614 11 7.5L11 1.70711L9.85355 2.85355C9.65829 3.04882 9.34171 3.04882 9.14645 2.85355C8.95118 2.65829 8.95118 2.34171 9.14645 2.14645L11.1464 0.146447C11.3417 -0.0488155 11.6583 -0.0488155 11.8536 0.146447L13.8536 2.14645C14.0488 2.34171 14.0488 2.65829 13.8536 2.85355C13.6583 3.04882 13.3417 3.04882 13.1464 2.85355L12 1.70711L12 7.5C12 7.77614 11.7761 8 11.5 8Z" fill="#DB5C5C"/>
<path d="M10 7C10 9.48528 7.98528 11.5 5.5 11.5C3.01472 11.5 1 9.48528 1 7C1 4.51472 3.01472 2.5 5.5 2.5C6.61537 2.5 7.63597 2.90579 8.4222 3.5778L8.43934 3.56066C8.05008 3.1714 7.91948 2.62142 8.04756 2.12432C7.28593 1.72554 6.41931 1.5 5.5 1.5C2.46243 1.5 0 3.96243 0 7C0 10.0376 2.46243 12.5 5.5 12.5C7.91689 12.5 9.96967 10.9411 10.7077 8.7739C10.2828 8.50906 10 8.03755 10 7.5V7Z" fill="#DB5C5C"/>
<path d="M7.46309 10.08C7.29242 10.08 7.14842 10.0507 7.03109 9.992C6.91909 9.93334 6.82575 9.85067 6.75109 9.74401C6.68175 9.63201 6.62042 9.49601 6.56709 9.33601L6.11909 8.00001C6.08709 7.89867 6.04975 7.79201 6.00709 7.68001C5.96442 7.56267 5.92175 7.44267 5.87909 7.32C5.84175 7.19734 5.80975 7.08001 5.78309 6.96801C5.75642 6.85067 5.73509 6.74134 5.71909 6.64001H5.68709C5.66575 6.85867 5.62575 7.07467 5.56709 7.28801C5.50842 7.50134 5.44442 7.72801 5.37509 7.96801L4.75909 10H3.66309L5.23909 5.68001L5.10309 5.31201C5.01775 5.06667 4.89509 4.90401 4.73509 4.82401C4.58042 4.73867 4.39109 4.696 4.16709 4.696C4.07642 4.696 3.99375 4.70134 3.91909 4.71201C3.84442 4.72267 3.78042 4.73334 3.72709 4.74401V3.94401C3.77509 3.93334 3.82842 3.92267 3.88709 3.912C3.95109 3.90134 4.02042 3.89334 4.09509 3.888C4.16975 3.88267 4.24709 3.88 4.32709 3.88C4.62042 3.88 4.87375 3.92 5.08709 4C5.30042 4.07467 5.48175 4.20267 5.63109 4.38401C5.78575 4.56534 5.92442 4.816 6.04709 5.136L7.35909 8.64001C7.42309 8.80534 7.47642 8.93067 7.51909 9.01601C7.56175 9.10134 7.60709 9.16001 7.65509 9.19201C7.70309 9.22401 7.75642 9.24001 7.81509 9.24001C7.86842 9.24001 7.91375 9.23734 7.95109 9.23201C7.98842 9.22134 8.02575 9.21067 8.06309 9.20001V9.96801C8.02575 9.98934 7.97242 10.008 7.90309 10.024C7.83375 10.04 7.75909 10.0533 7.67909 10.064C7.60442 10.0747 7.53242 10.08 7.46309 10.08Z" fill="#DB5C5C"/>
</svg>
