<svg width="16" height="16" viewBox="0 0 16 16" fill="none" xmlns="http://www.w3.org/2000/svg">
<path d="M11.1805 9.36064C11.0131 9.19324 11.0131 8.92183 11.1805 8.75442L12.3323 7.6026C13.418 6.51694 13.418 4.75674 12.3323 3.67108C11.2467 2.58542 9.48648 2.58542 8.40082 3.67108L7.249 4.82291C7.08159 4.99031 6.81018 4.99031 6.64277 4.82291C6.47537 4.6555 6.47537 4.38409 6.64277 4.21669L7.7946 3.06486C9.21506 1.6444 11.5181 1.6444 12.9386 3.06486C14.359 4.48533 14.359 6.78835 12.9386 8.20882L11.7867 9.36064C11.6193 9.52805 11.3479 9.52805 11.1805 9.36064Z" fill="#A8ADBD"/>
<path d="M10.2711 5.12607C10.4385 4.95867 10.7099 4.95867 10.8774 5.12607C11.0448 5.29348 11.0448 5.56489 10.8774 5.7323L5.73339 10.8763C5.56599 11.0437 5.29457 11.0437 5.12717 10.8763C4.95977 10.7089 4.95977 10.4374 5.12717 10.27L10.2711 5.12607Z" fill="#A8ADBD"/>
<path d="M4.82406 6.64162C4.99146 6.80903 4.99146 7.08044 4.82406 7.24784L3.67548 8.39643C2.58982 9.48208 2.58982 11.2423 3.67548 12.3279C4.76113 13.4136 6.52133 13.4136 7.60699 12.3279L8.7556 11.1793C8.92299 11.0119 9.19439 11.0119 9.3618 11.1793C9.52922 11.3467 9.52924 11.6181 9.36182 11.7856L8.21321 12.9342C6.79275 14.3546 4.48972 14.3546 3.06926 12.9342C1.64879 11.5137 1.64879 9.21067 3.06925 7.7902L4.21784 6.64162C4.38524 6.47422 4.65665 6.47422 4.82406 6.64162Z" fill="#A8ADBD"/>
</svg>
