<svg width="16" height="16" viewBox="0 0 16 16" fill="none" xmlns="http://www.w3.org/2000/svg">
<path d="M12.293 11L10.6465 9.35349C10.4513 9.15823 10.4513 8.84165 10.6465 8.64639C10.8418 8.45112 11.1584 8.45112 11.3536 8.64639L13.8536 11.1464C14.0489 11.3416 14.0489 11.6582 13.8536 11.8535L11.3536 14.3535C11.1584 14.5488 10.8418 14.5488 10.6465 14.3535C10.4513 14.1582 10.4513 13.8416 10.6465 13.6464L12.2929 12H9.5C9.34657 12 9.20163 11.9296 9.10684 11.8089L3.75698 5L2.5 5C2.22386 5 2 4.77614 2 4.5C2 4.22386 2.22386 4 2.5 4H4C4.15343 4 4.29837 4.07044 4.39316 4.19109L9.74302 11H12.293Z" fill="#CED0D6"/>
<path d="M10.6465 6.64645L12.293 4.99994H9.74302L8.02175 7.19064L7.38587 6.38135L9.10684 4.19103C9.20163 4.07038 9.34657 3.99994 9.5 3.99994H12.2929L10.6465 2.35355C10.4513 2.15829 10.4513 1.84171 10.6465 1.64645C10.8418 1.45118 11.1584 1.45118 11.3536 1.64645L13.8536 4.14645C14.0489 4.34171 14.0489 4.65829 13.8536 4.85355L11.3536 7.35355C11.1584 7.54882 10.8418 7.54882 10.6465 7.35355C10.4513 7.15829 10.4513 6.84171 10.6465 6.64645Z" fill="#548AF7"/>
<path d="M5.47825 8.80924L3.75698 10.9999H2.5C2.22386 10.9999 2 11.2238 2 11.4999C2 11.7761 2.22386 11.9999 2.5 11.9999H4C4.15343 11.9999 4.29837 11.9295 4.39316 11.8089L6.11413 9.61853L5.47825 8.80924Z" fill="#548AF7"/>
</svg>
