<svg width="12" height="12" viewBox="0 0 12 12" fill="none" xmlns="http://www.w3.org/2000/svg">
<g clip-path="url(#clip0_9582_13145)">
<path fill-rule="evenodd" clip-rule="evenodd" d="M9.73827 10.4454C9.24786 10.7946 8.64792 11 8 11C6.34315 11 5 9.65685 5 8C5 6.34315 6.34315 5 8 5C9.65685 5 11 6.34315 11 8C11 8.64792 10.7946 9.24786 10.4454 9.73827L11.8536 11.1464C12.0488 11.3417 12.0488 11.6583 11.8536 11.8536C11.6583 12.0488 11.3417 12.0488 11.1464 11.8536L9.73827 10.4454ZM10 8C10 9.10457 9.10457 10 8 10C6.89543 10 6 9.10457 6 8C6 6.89543 6.89543 6 8 6C9.10457 6 10 6.89543 10 8Z" fill="#9DA0A8"/>
<path fill-rule="evenodd" clip-rule="evenodd" d="M12 6C12 2.68629 9.31371 0 6 0C2.68629 0 0 2.68629 0 6C0 9.31371 2.68629 12 6 12C6.37662 12 6.74513 11.9653 7.10252 11.8989C5.32551 11.4916 4 9.90057 4 8C4 7.6547 4.04375 7.31962 4.12602 7H4.0453C4.01572 6.67814 4 6.34396 4 6C4 5.65604 4.01572 5.32186 4.0453 5H5.35418C6.05931 4.37764 6.98555 4 8 4C9.01445 4 9.94069 4.37764 10.6458 5H10.9C10.9201 5.09901 10.9373 5.19908 10.9514 5.30011C11.4095 5.80065 11.742 6.41809 11.8989 7.10252C11.9653 6.74513 12 6.37662 12 6ZM1.10002 7H3.04148C3.0142 6.67479 3 6.34071 3 6C3 5.65929 3.0142 5.32521 3.04148 5H1.10002C1.03443 5.32311 1 5.65753 1 6C1 6.34247 1.03443 6.67689 1.10002 7ZM3.17071 8H1.41604C1.93249 9.18201 2.89271 10.1258 4.08612 10.6206C3.67293 9.93529 3.35317 9.0325 3.17071 8ZM7.8121 4H4.1879C4.32447 3.30475 4.52796 2.69486 4.77311 2.20457C5.26285 1.22509 5.7544 1 6 1C6.2456 1 6.73715 1.22509 7.22689 2.20457C7.47204 2.69486 7.67553 3.30475 7.8121 4ZM10.584 4H8.82929C8.64683 2.9675 8.32707 2.06471 7.91388 1.37938C9.10729 1.87425 10.0675 2.81799 10.584 4ZM3.17071 4C3.35317 2.9675 3.67293 2.06471 4.08612 1.37938C2.89271 1.87425 1.93249 2.81799 1.41604 4H3.17071Z" fill="#9DA0A8"/>
</g>
<defs>
<clipPath id="clip0_9582_13145">
<rect width="12" height="12" fill="white"/>
</clipPath>
</defs>
</svg>
