<svg width="16" height="16" viewBox="0 0 16 16" fill="none" xmlns="http://www.w3.org/2000/svg">
<path d="M12 15H14V15.5C14 15.7761 13.7761 16 13.5 16H12.5C12.2239 16 12 15.7761 12 15.5V15Z" fill="#6C707E"/>
<path fill-rule="evenodd" clip-rule="evenodd" d="M14.2691 12.6544C15.0058 12.2194 15.5 11.4174 15.5 10.5C15.5 9.11929 14.3807 8 13 8C11.6193 8 10.5 9.11929 10.5 10.5C10.5 11.4174 10.9942 12.2194 11.7309 12.6544L12 14H14L14.2691 12.6544Z" fill="#FFAF0F"/>
<path d="M1 3.86667C1 2.83574 1.73127 2 2.63333 2H6.1217C6.39413 2 6.65477 2.11115 6.84336 2.30775L8.46667 4L13 4C14.1046 4 15 4.89543 15 6V7.62734C14.4331 7.23191 13.7436 7 13 7C11.067 7 9.5 8.567 9.5 10.5C9.5 11.614 10.0209 12.6056 10.8293 13.2456L10.9802 14H2.63333C1.73127 14 1 13.1643 1 12.1333V3.86667Z" fill="#EBECF0"/>
<path d="M2.63333 3L6.1217 3L8.04022 5H13C13.5523 5 14 5.44771 14 6V7.14494C14.3612 7.25244 14.698 7.41669 15 7.62734V6C15 4.89543 14.1046 4 13 4L8.46667 4L6.84336 2.30775C6.65477 2.11115 6.39413 2 6.1217 2H2.63333C1.73127 2 1 2.83574 1 3.86667V12.1333C1 13.1643 1.73127 14 2.63333 14H10.9802L10.8293 13.2456C10.7322 13.1687 10.6391 13.0867 10.5507 13H2.63333C2.40481 13 2 12.7416 2 12.1333V3.86667C2 3.25841 2.40481 3 2.63333 3Z" fill="#6C707E"/>
</svg>
