<svg width="16" height="16" viewBox="0 0 16 16" fill="none" xmlns="http://www.w3.org/2000/svg">
<path d="M14.6496 10.1932C14.877 9.5033 15 8.76602 15 8C15 4.13401 11.866 1 8 1C4.13401 1 1 4.13401 1 8C1 11.866 4.13401 15 8 15C8.76602 15 9.5033 14.877 10.1932 14.6496C10.068 14.2895 10 13.9027 10 13.5C10 11.567 11.567 10 13.5 10C13.9027 10 14.2895 10.068 14.6496 10.1932Z" fill="#EDF3FF"/>
<path d="M8.13241 11.5C9.62136 11.5 10.8976 10.6008 11.2118 9.32459H10.1966C9.88241 10.0546 9.1041 10.5767 8.13241 10.5767C6.79332 10.5767 5.82647 9.50345 5.82647 8C5.82647 6.49655 6.79332 5.42334 8.13241 5.42334C9.1041 5.42334 9.88241 5.94544 10.1966 6.67541H11.2118C10.8976 5.39917 9.62136 4.5 8.13241 4.5C6.21321 4.5 4.78711 5.99378 4.78711 8C4.78711 10.0062 6.21321 11.5 8.13241 11.5Z" fill="#3574F0"/>
<path d="M16 13.5C16 14.8807 14.8807 16 13.5 16C12.1193 16 11 14.8807 11 13.5C11 12.1193 12.1193 11 13.5 11C14.8807 11 16 12.1193 16 13.5Z" fill="#55A76A"/>
<path d="M10.0035 13.6574C9.37694 13.8792 8.70257 14 8 14C4.68629 14 2 11.3137 2 8C2 4.68629 4.68629 2 8 2C11.3137 2 14 4.68629 14 8C14 8.70257 13.8792 9.37694 13.6574 10.0035C14.0035 10.0188 14.3366 10.0844 14.6496 10.1932C14.877 9.5033 15 8.76602 15 8C15 4.13401 11.866 1 8 1C4.13401 1 1 4.13401 1 8C1 11.866 4.13401 15 8 15C8.76602 15 9.5033 14.877 10.1932 14.6496C10.0844 14.3366 10.0188 14.0035 10.0035 13.6574Z" fill="#3574F0"/>
</svg>
