<svg width="16" height="16" viewBox="0 0 16 16" fill="none" xmlns="http://www.w3.org/2000/svg">
<circle cx="8" cy="8" r="6.5" stroke="#6C707E"/>
<path d="M10.5263 5.45338C12.1636 7.09059 12.6154 9.32272 10.9603 10.9778C9.30514 12.6329 6.98758 12.1225 5.42233 10.5573C3.85708 8.99211 3.39145 6.64775 5.01078 5.02845C6.63012 3.40914 8.8891 3.81617 10.5263 5.45338Z" fill="#FFF4EB"/>
<path fill-rule="evenodd" clip-rule="evenodd" d="M10.5263 5.45338C12.1636 7.09059 12.6154 9.32272 10.9603 10.9778C9.30514 12.6329 6.98758 12.1225 5.42233 10.5573C3.85708 8.99211 3.39145 6.64775 5.01078 5.02845C6.63012 3.40914 8.8891 3.81617 10.5263 5.45338ZM9.81924 6.1605C10.518 6.85924 10.9051 7.62771 10.9844 8.32235C11.0442 8.84607 10.9368 9.37523 10.585 9.87793L6.11211 5.40501C6.60199 5.06741 7.12827 4.95763 7.65544 5.01405C8.35503 5.08891 9.12691 5.46818 9.81924 6.1605ZM5.40382 6.11093L9.87906 10.5862C9.37353 10.9393 8.82543 11.0473 8.27527 10.9821C7.55643 10.8969 6.78438 10.5051 6.12943 9.85021C5.4809 9.20169 5.09686 8.42651 5.01619 7.70244C4.9545 7.14873 5.06497 6.60363 5.40382 6.11093Z" fill="#E66D17"/>
</svg>
