<svg width="16" height="16" viewBox="0 0 16 16" fill="none" xmlns="http://www.w3.org/2000/svg">
<path d="M11.2344 14.1875L0 11.3438C0 11.3438 3.15625 13.1406 4.59375 15.9844C7.07812 13.7656 11.2344 14.1875 11.2344 14.1875Z" fill="#548AF7"/>
<path d="M11.5386 4.41626C11.4249 10.0116 8.63362 13.1546 8.63362 13.1546L4.64453 12.1347L11.5386 4.41626Z" fill="#C77D55"/>
<path d="M11.5382 4.41623L4.64417 12.1347L2.74219 11.6484L11.4062 1.86328C11.5159 2.76321 11.5545 3.61487 11.5382 4.41623Z" fill="#F2C55C"/>
<path d="M12.0621 14.0312C12.0621 14.0312 17.6402 9.32812 15.4683 0.015625L11.5378 4.41623C11.4241 10.0116 8.63281 13.1545 8.63281 13.1545L12.0621 14.0312Z" fill="#F2C55C"/>
</svg>
