<svg width="14" height="14" viewBox="0 0 14 14" fill="none" xmlns="http://www.w3.org/2000/svg">
<path d="M9 7H5V14H9V13H6V11H8.5V10H6V8H9V7Z" fill="#CED0D6"/>
<path d="M14 7H10V14H14V13H11V11H13.5V10H11V8H14V7Z" fill="#CED0D6"/>
<path d="M1 3C1 1.89543 1.89543 1 3 1H11C12.1046 1 13 1.89543 13 3V6H4V13H3C1.89543 13 1 12.1046 1 11V3Z" fill="#25324D"/>
<path d="M3 1C1.89543 1 1 1.89543 1 3V11C1 12.0355 1.787 12.8873 2.79551 12.9897C2.86275 12.9965 2.93096 13 3 13H4V12H3C2.44772 12 2 11.5523 2 11V3C2 2.44772 2.44772 2 3 2H11C11.5178 2 11.9436 2.3935 11.9948 2.89776C11.9983 2.93137 12 2.96548 12 3V6H13V3C13 2.0335 12.3144 1.22713 11.4031 1.04063C11.2729 1.01399 11.1381 1 11 1H3Z" fill="#548AF7"/>
</svg>
