<svg width="16" height="16" viewBox="0 0 16 16" fill="none" xmlns="http://www.w3.org/2000/svg">
<path d="M11 9H7V16H11V15H8V13H10.5V12H8V10H11V9Z" fill="#6C707E"/>
<path d="M16 9H12V16H16V15H13V13H15.5V12H13V10H16V9Z" fill="#6C707E"/>
<path d="M4 2C2.89543 2 2 2.89543 2 4V12C2 13.1046 2.89543 14 4 14H6V8H14V4C14 2.89543 13.1046 2 12 2H4Z" fill="#EDF3FF"/>
<path d="M2 4C2 2.89543 2.89543 2 4 2H12C12.1381 2 12.2729 2.01399 12.4031 2.04063C13.3144 2.22713 14 3.0335 14 4V8H13V4C13 3.96548 12.9983 3.93137 12.9948 3.89776C12.9436 3.3935 12.5178 3 12 3H4C3.44772 3 3 3.44772 3 4V12C3 12.5523 3.44772 13 4 13H6V14H4C3.93096 14 3.86275 13.9965 3.79551 13.9897C2.787 13.8873 2 13.0355 2 12V4Z" fill="#3574F0"/>
</svg>
