<svg width="16" height="16" viewBox="0 0 16 16" fill="none" xmlns="http://www.w3.org/2000/svg">
<path d="M3.29368 10.7087L1.29289 8.70789C0.902369 8.31737 0.902369 7.6842 1.29289 7.29368L3.29368 5.29289C3.6842 4.90237 4.31737 4.90237 4.70789 5.29289L6.70868 7.29368C7.09921 7.68421 7.0992 8.31737 6.70868 8.70789L4.70789 10.7087C4.31737 11.0992 3.6842 11.0992 3.29368 10.7087Z" fill="#EDF3FF"/>
<path d="M5.29289 4.70789L7.29368 6.70868C7.6842 7.0992 8.31737 7.09921 8.70789 6.70868L10.7087 4.70789C11.0992 4.31737 11.0992 3.6842 10.7087 3.29368L8.70789 1.29289C8.31737 0.902369 7.68421 0.902369 7.29368 1.29289L5.29289 3.29368C4.90237 3.6842 4.90237 4.31737 5.29289 4.70789Z" fill="#EBECF0"/>
<path fill-rule="evenodd" clip-rule="evenodd" d="M3.29368 10.7087L1.29289 8.70789C0.902369 8.31737 0.902369 7.6842 1.29289 7.29368L3.29368 5.29289C3.6842 4.90237 4.31737 4.90237 4.70789 5.29289L6.70868 7.29368C7.09921 7.68421 7.0992 8.31737 6.70868 8.70789L4.70789 10.7087C4.31737 11.0992 3.6842 11.0992 3.29368 10.7087ZM2 8.00079L4.00079 10.0016L6.00157 8.00079L4.00079 6L2 8.00079Z" fill="#3574F0"/>
<path d="M11 9H7V16H11V15H8V13H10.5V12H8V10H11V9Z" fill="#6C707E"/>
<path d="M16 9H12V16H16V15H13V13H15.5V12H13V10H16V9Z" fill="#6C707E"/>
<path d="M9 8C9.0002 7.74434 9.09783 7.48874 9.29289 7.29368L11.2937 5.29289C11.6842 4.90237 12.3174 4.90237 12.7079 5.29289L14.7087 7.29368C14.9037 7.48874 15.0014 7.74434 15.0016 8H9Z" fill="#EDF3FF"/>
<path d="M12.057 11C12.0196 11.0021 11.982 11.0021 11.9445 11H12.057Z" fill="#EDF3FF"/>
<path d="M9 8C9.0002 7.74434 9.09783 7.48874 9.29289 7.29368L11.2937 5.29289C11.6842 4.90237 12.3174 4.90237 12.7079 5.29289L14.7087 7.29368C14.9037 7.48874 15.0014 7.74434 15.0016 8H14.0008L12.0008 6L10.0008 8H9Z" fill="#3574F0"/>
<path d="M12.057 11C12.0196 11.0021 11.982 11.0021 11.9445 11H12.057Z" fill="#3574F0"/>
<path fill-rule="evenodd" clip-rule="evenodd" d="M7.29368 6.70868L5.29289 4.70789C4.90237 4.31737 4.90237 3.6842 5.29289 3.29368L7.29368 1.29289C7.68421 0.902369 8.31737 0.902369 8.70789 1.29289L10.7087 3.29368C11.0992 3.6842 11.0992 4.31737 10.7087 4.70789L8.70789 6.70868C8.31737 7.09921 7.6842 7.0992 7.29368 6.70868ZM6 4.00079L8.00079 6.00157L10.0016 4.00079L8.00079 2L6 4.00079Z" fill="#6C707E"/>
</svg>
