<svg width="16" height="16" viewBox="0 0 16 16" fill="none" xmlns="http://www.w3.org/2000/svg">
<path d="M14.9291 9C14.9758 8.6734 15 8.33952 15 8C15 4.13401 11.866 1 8 1C4.13401 1 1 4.13401 1 8C1 11.2042 3.1529 13.9056 6.09109 14.7366C6.0316 14.5009 6 14.2541 6 14V13H9V9H14.9291Z" fill="#F2FCF3"/>
<path d="M10 10V14C10 14.5523 9.55228 15 9 15C8.44772 15 8 14.5523 8 14H7C7 15.1046 7.89543 16 9 16C10.1046 16 11 15.1046 11 14V10H10Z" fill="#E66D17"/>
<path d="M13.75 10C12.7835 10 12 10.7835 12 11.75C12 12.7165 12.7835 13.5 13.75 13.5H14.25C14.6642 13.5 15 13.8358 15 14.25C15 14.6642 14.6642 15 14.25 15H13.5C13.2239 15 13 14.7761 13 14.5H12C12 15.3284 12.6716 16 13.5 16H14.25C15.2165 16 16 15.2165 16 14.25C16 13.2835 15.2165 12.5 14.25 12.5H13.75C13.3358 12.5 13 12.1642 13 11.75C13 11.3358 13.3358 11 13.75 11H14.5C14.7761 11 15 11.2239 15 11.5H16C16 10.6716 15.3284 10 14.5 10H13.75Z" fill="#E66D17"/>
<path fill-rule="evenodd" clip-rule="evenodd" d="M8.53244 4.98047H7.47034L5.27734 11.0005H6.30074L6.79094 9.51697H9V9H10.0455L8.53244 4.98047ZM8.08954 6.22317L8.99254 8.73007H7.04464L7.90034 6.22317L7.99494 5.84907L8.08954 6.22317Z" fill="#208A3C"/>
<path d="M13.917 9C13.9716 8.67479 14 8.34071 14 8C14 4.68629 11.3137 2 8 2C4.68629 2 2 4.68629 2 8C2 10.6124 3.66962 12.8349 6 13.6586V14C6 14.2541 6.0316 14.5009 6.09109 14.7366C3.1529 13.9056 1 11.2042 1 8C1 4.13401 4.13401 1 8 1C11.866 1 15 4.13401 15 8C15 8.33952 14.9758 8.6734 14.9291 9H13.917Z" fill="#208A3C"/>
</svg>
