<svg width="16" height="16" viewBox="0 0 16 16" fill="none" xmlns="http://www.w3.org/2000/svg">
<path d="M10 10V14C10 14.5523 9.55228 15 9 15C8.44772 15 8 14.5523 8 14H7C7 15.1046 7.89543 16 9 16C10.1046 16 11 15.1046 11 14V10H10Z" fill="#E66D17"/>
<path d="M13.75 10C12.7835 10 12 10.7835 12 11.75C12 12.7165 12.7835 13.5 13.75 13.5H14.25C14.6642 13.5 15 13.8358 15 14.25C15 14.6642 14.6642 15 14.25 15H13.5C13.2239 15 13 14.7761 13 14.5H12C12 15.3284 12.6716 16 13.5 16H14.25C15.2165 16 16 15.2165 16 14.25C16 13.2835 15.2165 12.5 14.25 12.5H13.75C13.3358 12.5 13 12.1642 13 11.75C13 11.3358 13.3358 11 13.75 11H14.5C14.7761 11 15 11.2239 15 11.5H16C16 10.6716 15.3284 10 14.5 10H13.75Z" fill="#E66D17"/>
<path d="M14.9291 9C14.9758 8.6734 15 8.33952 15 8C15 4.13401 11.866 1 8 1C4.13401 1 1 4.13401 1 8C1 11.171 3.10851 13.8496 6 14.7101V13H9V9H14.9291Z" fill="#FAF5FF"/>
<path d="M14.9291 9C14.9758 8.6734 15 8.33952 15 8C15 4.13401 11.866 1 8 1C4.13401 1 1 4.13401 1 8C1 11.171 3.10851 13.8496 6 14.7101V13.6586C3.66962 12.8349 2 10.6124 2 8C2 4.68629 4.68629 2 8 2C11.3137 2 14 4.68629 14 8C14 8.34071 13.9716 8.67479 13.917 9H14.9291Z" fill="#834DF0"/>
<path d="M9 10.5H6.5V8.5H10V7.5H6.5V5.5H10.4102V4.5H5.5V11.5H9V10.5Z" fill="#834DF0"/>
</svg>
