<svg width="16" height="16" viewBox="0 0 16 16" fill="none" xmlns="http://www.w3.org/2000/svg">
<path d="M12 1C11.4477 1 11 1.44772 11 2V4C11 4.55228 11.4477 5 12 5H14C14.5523 5 15 4.55228 15 4V2C15 1.44772 14.5523 1 14 1H12Z" fill="#F7F8FA"/>
<path d="M1 7C1 6.44772 1.44772 6 2 6H4C4.55228 6 5 6.44772 5 7V9C5 9.55228 4.55228 10 4 10H2C1.44772 10 1 9.55228 1 9V7Z" fill="#F7F8FA"/>
<path d="M1 12C1 11.4477 1.44772 11 2 11H4C4.55228 11 5 11.4477 5 12V14C5 14.5523 4.55228 15 4 15H2C1.44772 15 1 14.5523 1 14V12Z" fill="#F7F8FA"/>
<path d="M6 12C6 11.4477 6.44772 11 7 11H9C9.55228 11 10 11.4477 10 12V14C10 14.5523 9.55228 15 9 15H7C6.44772 15 6 14.5523 6 14V12Z" fill="#F7F8FA"/>
<path d="M7 6C6.44772 6 6 6.44772 6 7V9C6 9.55228 6.44772 10 7 10H9C9.55228 10 10 9.55228 10 9V7C10 6.44772 9.55228 6 9 6H7Z" fill="#F7F8FA"/>
<path d="M11 12C11 11.4477 11.4477 11 12 11H14C14.5523 11 15 11.4477 15 12V14C15 14.5523 14.5523 15 14 15H12C11.4477 15 11 14.5523 11 14V12Z" fill="#F7F8FA"/>
<path d="M12 6C11.4477 6 11 6.44772 11 7V9C11 9.55228 11.4477 10 12 10H14C14.5523 10 15 9.55228 15 9V7C15 6.44772 14.5523 6 14 6H12Z" fill="#F7F8FA"/>
<path fill-rule="evenodd" clip-rule="evenodd" d="M11 2C11 1.44772 11.4477 1 12 1H14C14.5523 1 15 1.44772 15 2V4C15 4.55228 14.5523 5 14 5H12C11.4477 5 11 4.55228 11 4V2ZM12 2H14V4H12V2Z" fill="#6C707E"/>
<path fill-rule="evenodd" clip-rule="evenodd" d="M2 6C1.44772 6 1 6.44772 1 7V9C1 9.55228 1.44772 10 2 10H4C4.55228 10 5 9.55228 5 9V7C5 6.44772 4.55228 6 4 6H2ZM4 7H2V9H4V7Z" fill="#6C707E"/>
<path fill-rule="evenodd" clip-rule="evenodd" d="M2 11C1.44772 11 1 11.4477 1 12V14C1 14.5523 1.44772 15 2 15H4C4.55228 15 5 14.5523 5 14V12C5 11.4477 4.55228 11 4 11H2ZM4 12H2V14H4V12Z" fill="#6C707E"/>
<path fill-rule="evenodd" clip-rule="evenodd" d="M7 11C6.44772 11 6 11.4477 6 12V14C6 14.5523 6.44772 15 7 15H9C9.55228 15 10 14.5523 10 14V12C10 11.4477 9.55228 11 9 11H7ZM9 12H7V14H9V12Z" fill="#6C707E"/>
<path fill-rule="evenodd" clip-rule="evenodd" d="M6 7C6 6.44772 6.44772 6 7 6H9C9.55228 6 10 6.44772 10 7V9C10 9.55228 9.55228 10 9 10H7C6.44772 10 6 9.55228 6 9V7ZM7 7H9V9H7V7Z" fill="#6C707E"/>
<path fill-rule="evenodd" clip-rule="evenodd" d="M12 11C11.4477 11 11 11.4477 11 12V14C11 14.5523 11.4477 15 12 15H14C14.5523 15 15 14.5523 15 14V12C15 11.4477 14.5523 11 14 11H12ZM14 12H12V14H14V12Z" fill="#6C707E"/>
<path fill-rule="evenodd" clip-rule="evenodd" d="M11 7C11 6.44772 11.4477 6 12 6H14C14.5523 6 15 6.44772 15 7V9C15 9.55228 14.5523 10 14 10H12C11.4477 10 11 9.55228 11 9V7ZM12 7H14V9H12V7Z" fill="#6C707E"/>
</svg>
