<svg width="20" height="20" viewBox="0 0 20 20" fill="none" xmlns="http://www.w3.org/2000/svg">
<path fill-rule="evenodd" clip-rule="evenodd" d="M14.9755 11.2199C15.2684 10.9267 15.7433 10.9267 16.0362 11.2199L19.7803 14.9681C20.0732 15.2613 20.0732 15.7367 19.7803 16.0299L16.0342 19.7801C15.7413 20.0733 15.2665 20.0733 14.9736 19.7801C14.6807 19.4869 14.6807 19.0115 14.9736 18.7183L18.1893 15.499L14.9755 12.2817C14.6826 11.9885 14.6826 11.5131 14.9755 11.2199Z" fill="#CED0D6"/>
<path d="M13.6317 18H4C2.89543 18 2 17.1046 2 16V4C2 2.89543 2.89543 2 4 2H16C17.1046 2 18 2.89543 18 4V11.0634L17.0974 10.1598C16.918 9.98018 16.7157 9.83722 16.5 9.73094V4C16.5 3.72386 16.2761 3.5 16 3.5H4C3.72386 3.5 3.5 3.72386 3.5 4V16C3.5 16.2761 3.72386 16.5 4 16.5H15.0693L13.9123 17.6582C13.8059 17.7648 13.7123 17.8793 13.6317 18Z" fill="#CED0D6"/>
</svg>
