<svg width="16" height="16" viewBox="0 0 16 16" fill="none" xmlns="http://www.w3.org/2000/svg">
<path d="M10 10V14C10 14.5523 9.55228 15 9 15C8.44772 15 8 14.5523 8 14H7C7 15.1046 7.89543 16 9 16C10.1046 16 11 15.1046 11 14V10H10Z" fill="#C77D55"/>
<path d="M13.75 10C12.7835 10 12 10.7835 12 11.75C12 12.7165 12.7835 13.5 13.75 13.5H14.25C14.6642 13.5 15 13.8358 15 14.25C15 14.6642 14.6642 15 14.25 15H13.5C13.2239 15 13 14.7761 13 14.5H12C12 15.3284 12.6716 16 13.5 16H14.25C15.2165 16 16 15.2165 16 14.25C16 13.2835 15.2165 12.5 14.25 12.5H13.75C13.3358 12.5 13 12.1642 13 11.75C13 11.3358 13.3358 11 13.75 11H14.5C14.7761 11 15 11.2239 15 11.5H16C16 10.6716 15.3284 10 14.5 10H13.75Z" fill="#C77D55"/>
<path fill-rule="evenodd" clip-rule="evenodd" d="M8.5 3.912C8.5 5.536 9.484 6.792 10.98 6.792C12.476 6.792 13.476 5.52 13.476 3.896V3.88C13.476 2.256 12.476 1 10.996 1C9.508 1 8.5 2.272 8.5 3.896V3.912ZM12.218 3.912C12.218 4.928 11.746 5.68 11.002 5.68C10.258 5.68 9.76999 4.92 9.76999 3.896V3.88C9.76999 2.856 10.25 2.112 10.986 2.112C11.722 2.112 12.218 2.88 12.218 3.896V3.912Z" fill="#CED0D6"/>
<path fill-rule="evenodd" clip-rule="evenodd" d="M2.5 11.712C2.5 13.336 3.484 14.592 4.98 14.592C5.35354 14.592 5.69615 14.5127 6 14.3684V12.7998H7.30756C7.41747 12.4612 7.476 12.0889 7.476 11.696V11.68C7.476 10.056 6.476 8.79999 4.996 8.79999C3.508 8.79999 2.5 10.072 2.5 11.696V11.712ZM6.21799 11.712C6.21799 12.728 5.74599 13.48 5.00199 13.48C4.25799 13.48 3.76999 12.72 3.76999 11.696V11.68C3.76999 10.656 4.24999 9.91199 4.98599 9.91199C5.72199 9.91199 6.21799 10.68 6.21799 11.696V11.712Z" fill="#CED0D6"/>
<path d="M5.85798 5.89199H6.90999V6.79199H3.40999V5.89199H4.64198V2.30482L3.33852 2.68586L3.08252 1.77242L5.01798 1.15137H5.85798V5.89199Z" fill="#CED0D6"/>
</svg>
