<svg width="16" height="16" viewBox="0 0 16 16" fill="none" xmlns="http://www.w3.org/2000/svg">
<path d="M12 2C13.1046 2 14 2.89543 14 4V9.99945L13.37 9.39422C13.0897 9.12497 12.7508 9.0031 12.418 9.00107L12.2126 9H11.2329L10.586 9.00203C10.2513 9.00286 9.91014 9.12476 9.6284 9.39573L6.92953 11.9913C6.36009 12.539 6.35681 13.4482 6.91987 14H4C2.89543 14 2 13.1046 2 12V4C2 2.89543 2.89543 2 4 2H12Z" fill="#FFAF0F"/>
<path d="M9.83597 9.22964C9.64406 9.17206 9.47177 9.08831 9.31911 8.97839C9.10535 8.82449 8.94005 8.63212 8.8232 8.40127C8.7092 8.16757 8.6522 7.91249 8.6522 7.63604C8.6522 7.30544 8.7377 7.00904 8.9087 6.74684C9.08255 6.48179 9.32338 6.27517 9.63118 6.12697C9.93898 5.97592 10.2867 5.90039 10.6743 5.90039C11.0704 5.90039 11.4224 5.97307 11.7302 6.11842C12.0409 6.26377 12.2831 6.46612 12.457 6.72547C12.6308 6.98482 12.7192 7.28122 12.722 7.61467H11.7088C11.7088 7.45222 11.6661 7.30687 11.5806 7.17862C11.4951 7.04752 11.3754 6.94634 11.2215 6.87509C11.0676 6.80384 10.8895 6.76822 10.6871 6.76822C10.4848 6.76822 10.3066 6.80242 10.1527 6.87082C9.99883 6.93922 9.87913 7.03612 9.79363 7.16152C9.70813 7.28692 9.66538 7.43227 9.66538 7.59757C9.66538 7.79137 9.72808 7.95952 9.85348 8.10202C9.97888 8.24167 10.1428 8.32859 10.3451 8.36279L11.3412 8.52524C11.6347 8.57654 11.8955 8.68627 12.1235 8.85442C12.1864 8.9002 12.2453 8.94904 12.3003 9.00095L12.2128 9.00049H11.233L10.5861 9.00251C10.33 9.00315 10.0701 9.07468 9.83597 9.22964Z" fill="black"/>
<path d="M4.21289 11.0005H5.22179C5.37569 11.0005 5.51107 10.9691 5.62792 10.9064C5.74762 10.8409 5.83882 10.7497 5.90152 10.6328C5.96707 10.5131 5.99984 10.3763 5.99984 10.2224L5.99989 6.00049H7.00024L7.00019 10.3589C7.00019 10.6809 6.92894 10.9659 6.78644 11.2139C6.64394 11.4618 6.44587 11.6556 6.19222 11.7953C5.93857 11.9321 5.64787 12.0005 5.32012 12.0005H4.21289V11.0005Z" fill="black"/>
<path fill-rule="evenodd" clip-rule="evenodd" d="M15.3798 12.7117C15.5435 12.8691 15.5436 13.131 15.3799 13.2884L12.6774 15.8876C12.4232 16.132 12 15.9519 12 15.5993L12 10.4038C12 10.0513 12.423 9.87118 12.6772 10.1154L15.3798 12.7117Z" fill="#55A76A"/>
<path fill-rule="evenodd" clip-rule="evenodd" d="M7.62255 13.2883C7.45909 13.1309 7.45916 12.8692 7.62271 12.7119L10.3216 10.1163C10.5757 9.87185 10.9989 10.0519 10.9989 10.4045V15.5986C10.9989 15.9514 10.5755 16.1314 10.3214 15.8868L7.62255 13.2883Z" fill="#E55765"/>
</svg>
