<svg width="16" height="16" viewBox="0 0 16 16" fill="none" xmlns="http://www.w3.org/2000/svg">
<path d="M8 9.00039C8.55229 9.00039 9 8.55267 9 8.00039C9 7.4481 8.55229 7.00039 8 7.00039C7.44772 7.00039 7 7.4481 7 8.00039C7 8.55267 7.44772 9.00039 8 9.00039Z" fill="#D6AE58"/>
<path fill-rule="evenodd" clip-rule="evenodd" d="M11.4999 1.93823C12.3545 2.43161 12.5569 3.83203 12.1725 5.59135C13.8883 6.13811 15 7.01361 15 8.00039C15 8.98714 13.8884 9.86262 12.1726 10.4094C12.557 12.1687 12.3546 13.5692 11.5001 14.0625C10.6455 14.5559 9.33146 14.031 8.00002 12.8184C6.66856 14.031 5.35451 14.556 4.49993 14.0626C3.64536 13.5692 3.44298 12.1687 3.8274 10.4094C2.1116 9.86263 1 8.98714 1 8.00039C1 7.01361 2.11166 6.13811 3.82753 5.59135C3.44312 3.83202 3.64551 2.43157 4.50007 1.93819C5.35462 1.44482 6.66861 1.96975 8.00002 3.18229C9.33141 1.96977 10.6454 1.44485 11.4999 1.93823ZM11.0001 13.1965C10.9342 13.2345 10.7832 13.2851 10.4662 13.2024C10.1434 13.1182 9.72408 12.9114 9.23687 12.5469C9.06346 12.4172 8.88653 12.2713 8.70764 12.1101C9.03843 11.7487 9.36541 11.348 9.68168 10.9133C10.2164 10.8567 10.727 10.7739 11.2054 10.6681C11.2556 10.9036 11.2935 11.1297 11.3191 11.3447C11.3912 11.9489 11.3606 12.4154 11.2721 12.7371C11.1852 13.053 11.0659 13.1585 11.0001 13.1965ZM8.35159 10.9967C8.23473 11.1375 8.1174 11.2727 8.00001 11.402C7.88263 11.2727 7.76529 11.1375 7.64843 10.9967C7.76489 10.9991 7.88211 11.0004 8 11.0004C8.1179 11.0004 8.23512 10.9991 8.35159 10.9967ZM10.946 9.70119C10.7753 9.73824 10.5995 9.77228 10.419 9.80307C10.4793 9.70343 10.5391 9.60252 10.598 9.5004C10.657 9.39823 10.7146 9.29601 10.7707 9.19384C10.8343 9.36555 10.8927 9.53483 10.946 9.70119ZM9.73198 9.0004C9.92585 8.66461 10.1023 8.33021 10.2615 8.00024C10.1024 7.67037 9.92593 7.33607 9.73212 7.00037C9.53829 6.66464 9.33698 6.34465 9.13083 6.0419C8.76552 6.01474 8.38771 6.00039 8 6.00039C7.6123 6.00039 7.2345 6.01474 6.8692 6.04189C6.66305 6.34466 6.46172 6.66466 6.26788 7.0004C6.07407 7.33609 5.89763 7.67038 5.73853 8.00025C5.89767 8.3302 6.07415 8.66459 6.26802 9.00037C6.46186 9.33612 6.66318 9.65612 6.86934 9.95889C7.23459 9.98604 7.61235 10.0004 8 10.0004C8.38766 10.0004 8.76542 9.98604 9.13068 9.95889C9.33683 9.65613 9.53815 9.33614 9.73198 9.0004ZM10.5981 6.50037C10.6571 6.60245 10.7146 6.70456 10.7707 6.80663C10.8342 6.63501 10.8926 6.46582 10.9459 6.29955C10.7752 6.26252 10.5995 6.2285 10.4191 6.19772C10.4795 6.29736 10.5392 6.39826 10.5981 6.50037ZM9.68183 5.08754C10.2165 5.14405 10.7269 5.22689 11.2053 5.33267C11.2554 5.09718 11.2933 4.87103 11.319 4.65603C11.391 4.05185 11.3604 3.58536 11.272 3.26366C11.1851 2.94779 11.0658 2.84228 10.9999 2.80425C10.9341 2.76623 10.783 2.71566 10.466 2.79836C10.1432 2.88259 9.72394 3.08936 9.23673 3.45385C9.06338 3.58355 8.88649 3.72941 8.70765 3.89056C9.03849 4.25198 9.36551 4.6527 9.68183 5.08754ZM11.3635 8.00023C11.5819 7.50895 11.7654 7.02546 11.9129 6.55831C12.142 6.63263 12.3568 6.71291 12.5558 6.79821C13.1151 7.0379 13.5038 7.29762 13.7382 7.53509C13.9683 7.76825 14 7.92434 14 8.00039C14 8.07644 13.9683 8.23252 13.7382 8.46569C13.5038 8.70315 13.1151 8.96288 12.5558 9.20256C12.3568 9.28785 12.142 9.36811 11.913 9.44242C11.7654 8.97518 11.5819 8.4916 11.3635 8.00023ZM6.31835 10.9133C5.78359 10.8567 5.27303 10.7739 4.7946 10.6681C4.74444 10.9036 4.70655 11.1298 4.6809 11.3448C4.60884 11.949 4.63942 12.4155 4.72789 12.7371C4.81476 13.053 4.93407 13.1585 4.99993 13.1966C5.06579 13.2346 5.21683 13.2851 5.53381 13.2024C5.85665 13.1182 6.27592 12.9115 6.76313 12.547C6.93655 12.4172 7.11349 12.2713 7.29239 12.1101C6.9616 11.7487 6.63462 11.348 6.31835 10.9133ZM5.22931 9.19384C5.16573 9.36555 5.1073 9.53484 5.05403 9.7012C5.22474 9.73825 5.40056 9.77229 5.58106 9.80308C5.52067 9.70342 5.46096 9.6025 5.40199 9.50037C5.34301 9.3982 5.28544 9.296 5.22931 9.19384ZM4.08697 9.44243C4.23456 8.97519 4.41809 8.4916 4.63653 8.00023C4.41814 7.50896 4.23466 7.02546 4.08709 6.55831C3.85805 6.63263 3.64322 6.7129 3.44417 6.79821C2.8849 7.0379 2.4962 7.29762 2.26184 7.53509C2.03173 7.76825 2 7.92434 2 8.00039C2 8.07644 2.03173 8.23252 2.26184 8.46569C2.4962 8.70315 2.8849 8.96288 3.44417 9.20256C3.64319 9.28785 3.85797 9.36812 4.08697 9.44243ZM5.40186 6.5004C5.34293 6.60247 5.28542 6.70458 5.22934 6.80664C5.16579 6.63502 5.1074 6.46582 5.05416 6.29955C5.22478 6.26252 5.4005 6.2285 5.58091 6.19772C5.52052 6.29737 5.46082 6.39828 5.40186 6.5004ZM8 5.00039C7.88206 5.00039 7.7648 5.00164 7.64829 5.00411C7.7652 4.86319 7.88259 4.72797 8.00002 4.59867C8.11745 4.72797 8.23483 4.8632 8.35174 5.00411C8.23522 5.00164 8.11795 5.00039 8 5.00039ZM6.3182 5.08753C6.63452 4.65269 6.96154 4.25198 7.29238 3.89055C7.11353 3.7294 6.93664 3.58352 6.76327 3.45382C6.27606 3.08932 5.85678 2.88256 5.53395 2.79833C5.21696 2.71563 5.06593 2.76619 5.00007 2.80422C4.93421 2.84224 4.8149 2.94776 4.72803 3.26363C4.63956 3.58532 4.60898 4.05181 4.68104 4.65599C4.70668 4.87101 4.74457 5.09717 4.79472 5.33266C5.27308 5.22689 5.78354 5.14404 6.3182 5.08753Z" fill="#D6AE58"/>
</svg>
