<svg width="16" height="16" viewBox="0 0 16 16" fill="none" xmlns="http://www.w3.org/2000/svg">
<path fill-rule="evenodd" clip-rule="evenodd" d="M8.25 2.75001C8.25 3.54277 7.72287 4.21241 7 4.42755V5.45856C7.63796 5.56863 8.19569 5.91309 8.58132 6.40006L9.77608 5.80268C9.75894 5.70437 9.75 5.60323 9.75 5.50001C9.75 4.53351 10.5335 3.75 11.5 3.75C12.4665 3.75 13.25 4.53351 13.25 5.50001C13.25 6.46651 12.4665 7.25002 11.5 7.25002C10.9965 7.25002 10.5427 7.0374 10.2234 6.69704L9.03831 7.2896C9.10281 7.51523 9.13735 7.7535 9.13735 7.99984C9.13735 8.24625 9.10279 8.48459 9.03826 8.71027L10.2235 9.30289C10.5428 8.96259 10.9966 8.75 11.5 8.75C12.4665 8.75 13.25 9.53351 13.25 10.5C13.25 11.4665 12.4665 12.25 11.5 12.25C10.5335 12.25 9.75 11.4665 9.75 10.5C9.75 10.3967 9.75894 10.2956 9.7761 10.1972L8.5812 9.59978C8.19558 10.0867 7.6379 10.4311 7 10.5411V11.5725C7.72287 11.7876 8.25 12.4573 8.25 13.25C8.25 14.2165 7.4665 15 6.5 15C5.5335 15 4.75 14.2165 4.75 13.25C4.75 12.4551 5.27998 11.784 6.00586 11.5707V10.5195C4.84708 10.2665 3.97949 9.23449 3.97949 7.99984C3.97949 6.7652 4.84708 5.73319 6.00586 5.48023V4.42928C5.27998 4.21603 4.75 3.54491 4.75 2.75001C4.75 1.78351 5.5335 1 6.5 1C7.4665 1 8.25 1.78351 8.25 2.75001ZM6.5 3.50002C6.91421 3.50002 7.25 3.16423 7.25 2.75001C7.25 2.33579 6.91421 2 6.5 2C6.08579 2 5.75 2.33579 5.75 2.75001C5.75 3.16423 6.08579 3.50002 6.5 3.50002ZM6.55842 9.51687C7.39625 9.51687 8.07544 8.83767 8.07544 7.99984C8.07544 7.16201 7.39625 6.48282 6.55842 6.48282C5.7206 6.48282 5.0414 7.16201 5.0414 7.99984C5.0414 8.83767 5.7206 9.51687 6.55842 9.51687ZM7.25 13.25C7.25 13.6642 6.91421 14 6.5 14C6.08579 14 5.75 13.6642 5.75 13.25C5.75 12.8358 6.08579 12.5 6.5 12.5C6.91421 12.5 7.25 12.8358 7.25 13.25ZM12.25 5.50001C12.25 5.91423 11.9142 6.25002 11.5 6.25002C11.0858 6.25002 10.75 5.91423 10.75 5.50001C10.75 5.08579 11.0858 4.75 11.5 4.75C11.9142 4.75 12.25 5.08579 12.25 5.50001ZM11.5 11.25C11.9142 11.25 12.25 10.9142 12.25 10.5C12.25 10.0858 11.9142 9.75 11.5 9.75C11.0858 9.75 10.75 10.0858 10.75 10.5C10.75 10.9142 11.0858 11.25 11.5 11.25Z" fill="#6C707E"/>
</svg>
