<svg width="20" height="20" viewBox="0 0 20 20" fill="none" xmlns="http://www.w3.org/2000/svg">
<path fill-rule="evenodd" clip-rule="evenodd" d="M10.25 3.00001C10.25 4.11512 9.51994 5.0597 8.51172 5.38187V6.58313C9.35565 6.77043 10.0849 7.26241 10.5782 7.93773L11.7968 7.23414C11.7661 7.07751 11.75 6.91564 11.75 6.75001C11.75 5.36929 12.8693 4.25 14.25 4.25C15.6307 4.25 16.75 5.36929 16.75 6.75001C16.75 8.13073 15.6307 9.25003 14.25 9.25003C13.5767 9.25003 12.9655 8.98384 12.516 8.55096L11.184 9.32002C11.2273 9.53999 11.25 9.76735 11.25 10C11.25 10.3098 11.2097 10.6102 11.1342 10.8963L12.4871 11.6774C12.9391 11.2278 13.5621 10.95 14.25 10.95C15.6307 10.95 16.75 12.0692 16.75 13.45C16.75 14.8307 15.6307 15.95 14.25 15.95C12.8693 15.95 11.75 14.8307 11.75 13.45C11.75 13.2986 11.7634 13.1505 11.7892 13.0065L10.4466 12.2314C9.95942 12.8195 9.28352 13.2456 8.51172 13.4169V14.6182C9.51994 14.9403 10.25 15.8849 10.25 17C10.25 18.3807 9.13071 19.5 7.75 19.5C6.36929 19.5 5.25 18.3807 5.25 17C5.25 15.8763 5.99139 14.9257 7.01172 14.6108V13.422C5.43326 13.0831 4.25 11.6797 4.25 10C4.25 8.32029 5.43326 6.91693 7.01172 6.57801V5.38923C5.99139 5.0743 5.25 4.12374 5.25 3.00001C5.25 1.61929 6.36929 0.5 7.75 0.5C9.13071 0.5 10.25 1.61929 10.25 3.00001ZM7.75 4C8.30228 4 8.75 3.55228 8.75 3C8.75 2.44772 8.30228 2 7.75 2C7.19772 2 6.75 2.44772 6.75 3C6.75 3.55228 7.19772 4 7.75 4ZM9.74977 10C9.74977 11.1046 8.85434 12 7.74977 12C6.6452 12 5.74977 11.1046 5.74977 10C5.74977 8.89545 6.6452 8.00002 7.74977 8.00002C8.85434 8.00002 9.74977 8.89545 9.74977 10ZM8.75 17C8.75 17.5523 8.30228 18 7.75 18C7.19772 18 6.75 17.5523 6.75 17C6.75 16.4477 7.19772 16 7.75 16C8.30228 16 8.75 16.4477 8.75 17ZM14.25 14.45C14.8023 14.45 15.25 14.0022 15.25 13.45C15.25 12.8977 14.8023 12.45 14.25 12.45C13.6977 12.45 13.25 12.8977 13.25 13.45C13.25 14.0022 13.6977 14.45 14.25 14.45ZM15.25 6.75C15.25 7.30228 14.8023 7.75 14.25 7.75C13.6977 7.75 13.25 7.30228 13.25 6.75C13.25 6.19772 13.6977 5.75 14.25 5.75C14.8023 5.75 15.25 6.19772 15.25 6.75Z" fill="#6C707E"/>
</svg>
