<svg width="14" height="14" viewBox="0 0 14 14" fill="none" xmlns="http://www.w3.org/2000/svg">
<path fill-rule="evenodd" clip-rule="evenodd" d="M10.4141 12.9998L12.9998 10.4141L9.58579 7L7 7V9.58579L10.4141 12.9998ZM11.1212 13.707L13.707 11.1212C14.0975 10.7306 14.0975 10.0975 13.707 9.70696L10.2929 6.29289C10.1054 6.10536 9.851 6 9.58579 6H7C6.44772 6 6 6.44772 6 7V9.58579C6 9.851 6.10536 10.1054 6.29289 10.2929L9.70696 13.707C10.0975 14.0975 10.7306 14.0975 11.1212 13.707Z" fill="#CED0D6"/>
<circle cx="9" cy="9" r="1" fill="#CED0D6"/>
<path d="M6.5963 0.303658C6.70872 0.248071 6.83117 0.215638 6.95636 0.208283H6.95199C7.10827 0.201968 7.26365 0.234909 7.40393 0.304095L12.272 2.62416C12.5257 2.74535 12.7117 2.97591 12.7751 3.25066L13.9765 8.47485C13.9853 8.51031 13.9918 8.54603 13.9961 8.58181L11.0001 5.58579C10.625 5.21071 10.1163 5 9.58591 5H7.00012C5.89555 5 5.00012 5.89543 5.00012 7V9.58579C5.00012 10.1162 5.21084 10.6249 5.58591 11L8.37857 13.7927H4.30336C4.02161 13.794 3.7543 13.6684 3.57624 13.4497L0.207488 9.26103C0.189113 9.23741 0.171613 9.21291 0.154988 9.18753C0.0128003 8.97753 -0.0331372 8.72072 0.0237378 8.47572L1.21724 3.25591C1.28068 2.98116 1.46574 2.7506 1.72036 2.62941L6.5963 0.303658Z" fill="#548AF7"/>
<path d="M7.02015 1.94037C7.20966 1.95963 7.351 2.12348 7.34177 2.31427V2.40497C7.33333 2.49957 7.31981 2.59295 7.30071 2.68644C7.27339 2.85607 7.26247 3.02794 7.2681 3.19967C7.27763 3.24411 7.30418 3.28348 7.34205 3.30961L7.36254 3.32376L7.3636 3.34864L7.36505 3.37169C7.36621 3.3888 7.36778 3.41218 7.36889 3.43514C8.27212 3.52701 9.11427 3.93386 9.74786 4.58313L9.84041 4.51728L9.8609 4.52079C9.90908 4.52905 9.95855 4.52424 10.0042 4.50694C10.138 4.4025 10.2614 4.286 10.3731 4.15826C10.4341 4.08553 10.4991 4.01635 10.5679 3.95105L10.571 3.94809L10.6337 3.89835C10.679 3.85353 10.7358 3.82216 10.7979 3.8078C10.861 3.79321 10.9269 3.79676 10.988 3.81804C11.0492 3.83935 11.1031 3.87755 11.1435 3.92822C11.1839 3.97888 11.2091 4.03995 11.2162 4.10435C11.2234 4.16875 11.2121 4.23385 11.1838 4.29212C11.1559 4.34942 11.1127 4.39782 11.0589 4.4319L10.9937 4.48458C10.9147 4.53712 10.8326 4.58491 10.7481 4.62809C10.5993 4.7128 10.4577 4.81179 10.327 4.92377C10.298 4.95944 10.2836 5.00484 10.2869 5.05031L10.2886 5.07433L10.2474 5.11246C10.0368 5.0387 9.81348 5 9.58615 5H8.9413C8.51137 4.62821 7.98363 4.3865 7.41949 4.30482L7.45895 5H7.00037C6.84199 5 6.68792 5.01841 6.54016 5.0532L6.58306 4.30392C6.50061 4.31456 6.41818 4.32856 6.3369 4.34592C5.81999 4.46213 5.34425 4.71525 4.95934 5.07827L5.62382 5.54909C5.3957 5.76559 5.21858 6.03533 5.11239 6.33841L4.43791 5.73653C4.12685 6.26667 3.98944 6.88044 4.04426 7.4927L5.00037 7.2177V8.17756L4.23205 8.30788C4.3981 8.73993 4.66174 9.12499 5.00037 9.43399V9.58579C5.00037 10.102 5.19994 10.5977 5.55637 10.9696C5.53934 10.9775 5.52351 10.988 5.50949 11.0008C5.46338 11.057 5.4293 11.1322 5.3967 11.2211C5.38473 11.2537 5.37269 11.289 5.36027 11.3254C5.34016 11.3844 5.31902 11.4465 5.2954 11.5051C5.27234 11.596 5.24405 11.686 5.21051 11.7742L5.20889 11.7785L5.17342 11.8506C5.15115 11.9091 5.11332 11.9604 5.06399 11.9989C5.01399 12.038 4.95415 12.0624 4.89111 12.0695C4.82821 12.0761 4.76432 12.0652 4.70725 12.0379C4.65018 12.0107 4.60176 11.9682 4.56732 11.9152C4.53288 11.8621 4.51376 11.8006 4.51209 11.7374C4.51043 11.6749 4.52589 11.6131 4.55677 11.5588L4.5951 11.4776C4.64356 11.3956 4.69687 11.3166 4.75439 11.2407C4.85415 11.0951 4.93976 10.9404 5.00998 10.779C5.01461 10.7345 5.0068 10.6898 4.98742 10.6493L4.97709 10.6277L5.02113 10.5356C4.24459 10.0645 3.6602 9.3329 3.37178 8.4712L3.26243 8.48942L3.24558 8.47739C3.20579 8.44896 3.15925 8.43186 3.11052 8.42796C2.9421 8.46013 2.77734 8.509 2.61832 8.57257C2.53161 8.6099 2.44243 8.64289 2.35169 8.66971L2.34313 8.67224L2.26025 8.68066C2.20219 8.69802 2.14051 8.69971 2.08149 8.68547C2.01963 8.67055 1.96314 8.63872 1.91833 8.59353C1.87394 8.54812 1.84276 8.49102 1.82876 8.42907C1.81475 8.36713 1.81822 8.30251 1.83876 8.24242C1.85931 8.18233 1.89613 8.12911 1.94512 8.08871C1.99412 8.0483 2.05336 8.02228 2.11627 8.01355L2.12314 8.0126L2.12632 8.01307L2.20254 7.99585C2.2969 7.98297 2.39195 7.97571 2.48716 7.97373C2.65745 7.96239 2.82625 7.93476 2.99126 7.89121C3.03267 7.86386 3.0677 7.82749 3.09451 7.78488L3.1047 7.76869L3.20387 7.74036C3.08454 6.8371 3.29158 5.92065 3.78828 5.15695L3.70928 5.08447L3.70816 5.06415C3.70544 5.01506 3.68956 4.96765 3.66223 4.92687C3.53101 4.81235 3.38968 4.71477 3.23974 4.63126C3.15516 4.58807 3.07314 4.54006 2.99407 4.48745L2.99049 4.48507L2.93117 4.43755C2.77156 4.32204 2.73423 4.0995 2.84893 3.93861L2.85073 3.93609C2.88353 3.89564 2.92551 3.86359 2.9731 3.84244C3.02065 3.8213 3.07252 3.81172 3.12448 3.81445C3.20882 3.81848 3.28975 3.84894 3.35574 3.9019L3.4238 3.95616C3.49251 4.02133 3.55731 4.09051 3.61812 4.16311C3.73388 4.29005 3.86163 4.40552 3.99957 4.50793C4.0403 4.52881 4.08745 4.5333 4.13121 4.52004L4.15463 4.51294L4.2443 4.57646C4.75926 4.04142 5.42016 3.66979 6.14457 3.5063C6.30592 3.46964 6.46949 3.44346 6.63427 3.42777L6.63964 3.32675L6.65533 3.31288C6.69233 3.28015 6.71967 3.23786 6.73414 3.1911C6.74112 3.01978 6.7316 2.84818 6.7057 2.67868C6.68713 2.58608 6.67291 2.49225 6.66488 2.39729L6.66453 2.39308L6.66471 2.31208C6.65529 2.11742 6.80303 1.95089 6.99776 1.9372L7.01257 1.93616L7.02015 1.94037Z" fill="#F7F8FA"/>
</svg>
