<svg width="16" height="16" viewBox="0 0 16 16" fill="none" xmlns="http://www.w3.org/2000/svg">
<path d="M3.83398 3.90039H5.04298V11.8694H7.40898V13.0004H3.83398V3.90039Z" fill="#369650"/>
<path d="M8.08691 13.0004V3.90039H10.1214C10.6501 3.90039 11.0899 4.04122 11.4409 4.32289C11.7962 4.60022 12.0606 5.02706 12.2339 5.60339C12.4116 6.17539 12.5004 6.90339 12.5004 7.78739V9.11339C12.5004 9.99739 12.4116 10.7276 12.2339 11.3039C12.0606 11.8759 11.7984 12.3027 11.4474 12.5844C11.0964 12.8617 10.6566 13.0004 10.1279 13.0004H8.08691ZM10.1214 11.8759C10.3684 11.8759 10.5742 11.7784 10.7389 11.5834C10.9079 11.3841 11.0336 11.0829 11.1159 10.6799C11.1982 10.2726 11.2394 9.75039 11.2394 9.11339V7.78739C11.2394 7.15039 11.1982 6.63039 11.1159 6.22739C11.0336 5.82006 10.9079 5.51889 10.7389 5.32389C10.5742 5.12456 10.3684 5.02489 10.1214 5.02489H9.30891V11.8759H10.1214Z" fill="#369650"/>
</svg>
