<svg width="16" height="16" viewBox="0 0 16 16" fill="none" xmlns="http://www.w3.org/2000/svg">
<path d="M8 4C8 3.44772 8.44772 3 9 3H11C11.5523 3 12 3.44772 12 4V12C12 12.5523 11.5523 13 11 13H9C8.44772 13 8 12.5523 8 12V4Z" fill="#43454A"/>
<circle cx="10" cy="11" r="1" fill="#CED0D6"/>
<circle cx="10" cy="5" r="1" fill="#CED0D6"/>
<path d="M11 8C11 8.55228 10.5523 9 10 9C9.44772 9 9 8.55228 9 8C9 7.44772 9.44772 7 10 7C10.5523 7 11 7.44772 11 8Z" fill="#CED0D6"/>
<path d="M7.5 4C7.5 3.17157 8.17157 2.5 9 2.5H11C11.8284 2.5 12.5 3.17157 12.5 4V12C12.5 12.8284 11.8284 13.5 11 13.5H9C8.17157 13.5 7.5 12.8284 7.5 12V4Z" stroke="#CED0D6"/>
</svg>
