<svg width="16" height="16" viewBox="0 0 16 16" fill="none" xmlns="http://www.w3.org/2000/svg">
<path d="M12 10H13V15H12V10Z" fill="#25324D"/>
<path d="M10 11H11V15H10V11Z" fill="#25324D"/>
<path d="M15 12H14V15H15V12Z" fill="#25324D"/>
<path fill-rule="evenodd" clip-rule="evenodd" d="M11 10C11 9.44772 11.4477 9 12 9H13C13.5523 9 14 9.44772 14 10V11H15C15.5523 11 16 11.4477 16 12V15C16 15.5523 15.5523 16 15 16H10C9.44772 16 9 15.5523 9 15V11C9 10.4477 9.44772 10 10 10L11 10ZM12 10H13V15H12V10ZM11 11H10L10 15H11V11ZM14 15H15V12H14V15Z" fill="#548AF7"/>
<path d="M14.8777 9.30972C14.958 8.88544 15 8.44763 15 8C15 4.13401 11.866 1 8 1C4.13401 1 1 4.13401 1 8C1 11.866 4.13401 15 8 15V11C8 9.89543 8.89543 9 10 9H10.2676C10.6134 8.4022 11.2597 8 12 8H13C13.862 8 14.5966 8.54528 14.8777 9.30972Z" fill="#253627"/>
<path d="M9.72989 6.35862V5.38506H10.6552V8.32184C10.6552 8.38596 10.6589 8.44859 10.6663 8.5096C10.5089 8.65052 10.374 8.81599 10.2676 9H10C9.77609 9 9.56077 9.0368 9.35977 9.10467C9.54392 8.80735 9.64943 8.44255 9.64943 8.04023C9.64943 6.98621 8.92529 6.18966 7.95977 6.18966C6.99425 6.18966 6.27011 6.98621 6.27011 8.04023C6.27011 9.09425 6.99425 9.8908 7.95977 9.8908C8.1024 9.8908 8.23976 9.87342 8.37029 9.8404C8.17863 10.1093 8.05185 10.4276 8.0128 10.7725C7.96605 10.7747 7.91887 10.7759 7.87126 10.7759C6.38276 10.7759 5.26437 9.60115 5.26437 8.04023C5.26437 6.47931 6.38276 5.3046 7.87126 5.3046C8.71609 5.3046 9.35494 5.69 9.70012 6.35862H9.72989Z" fill="#57965C"/>
<path d="M14.7915 9.10999C14.9275 8.7561 15 8.35568 15 7.91954C15 4.11379 11.854 1 8 1C4.14598 1 1 4.18621 1 8.08046C1 11.8862 4.14598 15 8 15V13.9943C4.70115 13.9943 2.00575 11.331 2.00575 8.08046C2.00575 4.74138 4.70115 2.00575 8 2.00575C11.2989 2.00575 13.9943 4.66897 13.9943 7.91954C13.9943 8.0344 13.9871 8.14547 13.9731 8.25231C14.325 8.44866 14.6115 8.7482 14.7915 9.10999Z" fill="#57965C"/>
</svg>
