<svg width="16" height="16" viewBox="0 0 16 16" fill="none" xmlns="http://www.w3.org/2000/svg">
<path fill-rule="evenodd" clip-rule="evenodd" d="M9 15.0764C9.01235 12.5573 10.3587 10.2379 12.5278 9C14.6737 10.2515 15.9972 12.566 16 15.0716L15.9993 15.0895C13.9341 16.2842 11.2695 16.327 9 15.0764ZM13.9995 11.8955C13.9942 12.9751 13.4172 13.9691 12.4876 14.4997C11.5679 13.9633 11.0007 12.9714 10.9995 11.8976L10.9998 11.8899C11.8849 11.3779 13.0269 11.3595 13.9995 11.8955Z" fill="white"/>
<path d="M14.8244 9.56495C14.9393 9.06179 15 8.53798 15 8C15 4.13401 11.866 1 8 1C4.13401 1 1 4.13401 1 8C1 11.866 4.13401 15 8 15C7.99978 15 8.00022 15 8 15C8.03905 12.1552 9.56995 9.53682 12.0321 8.13167L12.5331 7.8457L13.0315 8.13636C13.704 8.52853 14.3054 9.01157 14.8244 9.56495Z" fill="#2F2936"/>
<path d="M14.8244 9.56495C14.9393 9.06179 15 8.53798 15 8C15 4.13401 11.866 1 8 1C4.13401 1 1 4.13401 1 8C1 11.866 4.13401 15 8 15C7.99978 15 8.00022 15 8 15C8.00463 14.6628 8.03086 14.3287 8.07647 13.9995C8.05102 13.9998 8.02553 14 8 14C4.68629 14 2 11.3137 2 8C2 4.68629 4.68629 2 8 2C11.3137 2 14 4.68629 14 8C14 8.25865 13.9836 8.51348 13.9519 8.76351C14.2638 9.00982 14.5552 9.27793 14.8244 9.56495Z" fill="#A571E6"/>
<path d="M9.12299 11H8.69373C8.11776 11 7.62695 10.8612 7.37617 10.5835C7.12539 10.3059 7 9.84448 7 9.19923V5.99304L6 6V5H8V9.19923C8 10 8.5 10.0011 9.0327 10.0011H9.48714V10.4389C9.358 10.6208 9.23651 10.808 9.12299 11Z" fill="#A571E6"/>
</svg>
