<svg width="17" height="17" viewBox="0 0 17 17" fill="none" xmlns="http://www.w3.org/2000/svg">
<circle cx="8" cy="7" r="4.5" stroke="#6C707E"/>
<path d="M11.1992 10.2002L14.4992 13.4961" stroke="#6C707E" stroke-linecap="round"/>
<path d="M7.94535 9.66793L7.94531 9.66795L7.49975 9.96497C7.48101 8.60043 6.36906 7.5 4.99999 7.5C3.63092 7.5 2.51897 8.60043 2.50023 9.96497L2.05474 9.66799C2.05472 9.66798 2.0547 9.66796 2.05467 9.66795C1.59514 9.36156 0.9743 9.48579 0.667952 9.94531L0.667884 9.94541C0.361797 10.4048 0.485723 11.0256 0.945248 11.332L0.945299 11.332L1.5796 11.7549C1.52743 11.9953 1.49999 12.2447 1.49999 12.5V13C1.49999 13.4081 1.57005 13.8006 1.69891 14.1656L0.945325 14.6679C0.48566 14.9743 0.361831 15.5953 0.667884 16.0546L0.667987 16.0547C0.974291 16.5141 1.59509 16.6385 2.0547 16.332C2.05471 16.332 2.05472 16.332 2.05474 16.332L2.8777 15.7833C3.46628 16.2326 4.20228 16.5 4.99999 16.5C5.7977 16.5 6.53371 16.2326 7.12229 15.7833L7.94529 16.332L7.94535 16.3321C8.40497 16.6384 9.02576 16.5142 9.33212 16.0547L9.33222 16.0546C9.6383 15.5952 9.51443 14.9742 9.05456 14.6679L8.30108 14.1656C8.42994 13.8006 8.49999 13.4081 8.49999 13V12.5C8.49999 12.2447 8.47255 11.9953 8.42038 11.7549L9.05464 11.3321C9.05465 11.3321 9.05467 11.3321 9.05469 11.332C9.51437 11.0256 9.63832 10.4048 9.33222 9.94541L9.33216 9.94531C9.02574 9.48569 8.4049 9.36164 7.94535 9.66793ZM6.19613 13.9053L6.19611 13.9053C5.92131 14.2676 5.48791 14.5 4.99999 14.5C4.51351 14.5 4.08117 14.2689 3.80625 13.9085L3.79357 13.8915C3.79336 13.8912 3.79315 13.8909 3.79294 13.8907C3.60874 13.6415 3.49999 13.3341 3.49999 13V12.5C3.49999 11.6716 4.17153 11 4.99999 11C5.82846 11 6.49999 11.6716 6.49999 12.5V13C6.49999 13.3348 6.39088 13.6428 6.20614 13.892L6.19613 13.9053Z" fill="#208A3C" stroke="white"/>
<rect x="7" y="9" width="3" height="4" fill="white"/>
<path d="M7 10C7 10.0847 6.99475 10.1682 6.9845 10.2501C6.45569 9.78326 5.76086 9.5 5 9.5C4.23914 9.5 3.54431 9.78326 3.0155 10.2501C3.00525 10.1682 3 10.0847 3 10C3 8.89545 3.89539 8 5 8C6.10461 8 7 8.89545 7 10Z" fill="#FFF4EB"/>
<path d="M7 12.5C7 11.3954 6.10461 10.5 5 10.5C3.89539 10.5 3 11.3954 3 12.5V13C3 14.1046 3.89539 15 5 15C6.10461 15 7 14.1046 7 13V12.5Z" fill="#FFF4EB"/>
<path fill-rule="evenodd" clip-rule="evenodd" d="M6.99999 10C6.99999 10.0847 6.99474 10.1682 6.98449 10.2501C7.12365 10.373 7.25146 10.5086 7.36584 10.6552L8.22265 10.084C8.45251 9.93079 8.76293 9.99286 8.91613 10.2227C9.06921 10.4524 9.0072 10.7628 8.77734 10.916L7.84277 11.5391C7.9447 11.8408 7.99999 12.1639 7.99999 12.5V13C7.99999 13.4863 7.88427 13.9456 7.67895 14.3517L8.77734 15.084C9.0072 15.2371 9.06921 15.5476 8.91613 15.7773C8.76293 16.0071 8.45251 16.0692 8.22265 15.916L7.08471 15.1573C6.54492 15.679 5.80993 16 4.99999 16C4.19006 16 3.45507 15.679 2.91528 15.1573L1.77734 15.916C1.5476 16.0692 1.23718 16.0071 1.08398 15.7773C0.930901 15.5476 0.992913 15.2371 1.22265 15.084L2.32104 14.3517C2.11572 13.9456 1.99999 13.4863 1.99999 13V12.5C1.99999 12.1639 2.05529 11.8408 2.15722 11.5391L1.22265 10.916C0.992913 10.7628 0.930901 10.4524 1.08398 10.2227C1.23718 9.99286 1.5476 9.93079 1.77734 10.084L2.63415 10.6552C2.74853 10.5086 2.87634 10.373 3.0155 10.2501C3.00524 10.1682 2.99999 10.0847 2.99999 10C2.99999 8.89545 3.89538 8 4.99999 8C6.10461 8 6.99999 8.89545 6.99999 10ZM3.39172 14.189C3.39697 14.196 3.40222 14.2031 3.40746 14.2101C3.77282 14.6901 4.35021 15 4.99999 15C5.65099 15 6.22924 14.689 6.59448 14.2075C6.5985 14.2021 6.60253 14.1968 6.60656 14.1915C6.85375 13.8587 6.99999 13.4464 6.99999 13V12.5C6.99999 11.3954 6.10461 10.5 4.99999 10.5C3.89538 10.5 2.99999 11.3954 2.99999 12.5V13C2.99999 13.4453 3.14562 13.8566 3.39172 14.189ZM4.06323 9.64911C4.20532 9.2699 4.57116 9 4.99999 9C5.42883 9 5.79467 9.2699 5.93676 9.64911C5.64196 9.55231 5.32714 9.5 4.99999 9.5C4.67284 9.5 4.35803 9.55231 4.06323 9.64911Z" fill="#E66D17"/>
</svg>
