<svg width="16" height="16" viewBox="0 0 16 16" fill="none" xmlns="http://www.w3.org/2000/svg">
<path d="M12.4765 10.9937C12.8096 11.2772 12.6847 11.8517 13.0056 12.1119C13.1689 12.2443 13.25 12.4607 13.25 12.6882C13.25 13.0435 13.0522 13.425 12.6591 13.5562C11.5677 13.9214 11.3845 15 10.4331 15C9.9985 15 9.60767 14.7375 9.46358 14.3344C8.66092 14.1273 7.66925 14.1022 6.866 14.3C6.6945 14.6517 6.32583 14.9072 5.87667 14.9072C5.368 14.9072 4.58167 14.3035 3.72942 14.3793C3.09767 14.4359 2.75 14.0573 2.75 13.6198C2.75 13.4781 2.78617 13.3299 2.862 13.1882C3.12858 12.6894 2.42217 11.9865 3.38583 11.5665C3.73467 11.4189 3.92133 11.2404 4.05958 11.0794C3.76383 10.2172 3.95692 8.59208 5.26708 6.96283C6.38067 5.578 5.95658 5.08333 5.99625 3.1805C6.01258 2.38833 6.46875 1 8.133 1C9.68992 1 10.2038 2.32067 10.2038 3.5725C10.2038 4.35592 9.91217 5.26125 10.8169 6.19167C11.8949 7.30058 12.7991 9.03075 12.4765 10.9937Z" fill="#43454A"/>
<path d="M13.0056 12.1119C12.6847 11.8517 12.8096 11.2772 12.4765 10.9937C12.7991 9.03075 11.8949 7.30058 10.8169 6.19167C9.91217 5.26125 10.2038 4.35592 10.2038 3.5725C10.2038 2.32067 9.68992 1 8.133 1C6.46875 1 6.01258 2.38833 5.99625 3.1805C5.95658 5.08333 6.38067 5.578 5.26708 6.96283C3.95692 8.59208 3.76383 10.2172 4.05958 11.0794C3.92133 11.2404 3.73467 11.4189 3.38583 11.5665C2.42217 11.9865 3.12858 12.6894 2.862 13.1882C2.78617 13.3299 2.75 13.4781 2.75 13.6198C2.75 14.0573 3.09767 14.4359 3.72942 14.3793C4.58167 14.3035 5.368 14.9072 5.87667 14.9072C6.32583 14.9072 6.6945 14.6517 6.866 14.3C7.66925 14.1022 8.66092 14.1273 9.46358 14.3344C9.60767 14.7375 9.9985 15 10.4331 15C11.3845 15 11.5677 13.9214 12.6591 13.5562C13.0522 13.425 13.25 13.0435 13.25 12.6882C13.25 12.4607 13.1689 12.2443 13.0056 12.1119ZM7.66983 6.00733C7.48375 6.00733 7.32975 5.85683 7.0865 5.676C6.7785 5.44733 6.46525 5.3155 6.46875 5.07517C6.46875 4.91008 6.68983 4.85933 6.97567 4.67792C7.2825 4.48367 7.40208 4.2865 7.70425 4.2865C8.01342 4.2865 8.10675 4.44283 8.52675 4.62425C8.93975 4.80333 9.22733 4.87333 9.22733 5.07517C9.22733 5.28225 8.79508 5.43042 8.55183 5.5815C8.19425 5.802 8.0105 6.00733 7.66983 6.00733ZM8.64108 2.96525C9.15558 3.0475 9.21333 3.95167 8.96717 4.39675L8.76008 4.31217C8.86742 3.99542 8.86567 3.47392 8.50633 3.44067C8.27825 3.41967 8.13125 3.72067 8.09975 3.9785C8.0105 3.94117 7.91308 3.91433 7.79467 3.90442C7.83083 3.366 8.1785 2.89117 8.64108 2.96525ZM6.656 3.15833C7.05033 3.06033 7.28308 3.51883 7.28483 3.99542L7.104 4.10625C7.0795 3.90617 6.99025 3.583 6.76625 3.65183C6.5265 3.7265 6.56558 4.28358 6.69917 4.39792L6.52067 4.49708C6.27567 4.08467 6.27625 3.25283 6.656 3.15833ZM5.42225 14.3834C4.27717 13.8625 3.88808 13.9809 3.66933 13.9809C3.21608 13.9809 3.06792 13.6432 3.23825 13.3235C3.38292 13.0522 3.338 12.7682 3.30242 12.5401C3.24758 12.1907 3.23767 12.0769 3.58125 11.9264C4.05667 11.7246 4.26783 11.465 4.42533 11.2708C4.8675 10.7242 5.31375 11.584 5.6795 12.3499C5.91692 12.8463 6.38417 13.0977 6.52825 13.6478C6.66067 14.1559 6.11408 14.6984 5.42225 14.3834ZM9.498 13.2902C8.69067 13.6828 7.66225 13.8631 6.89283 13.4647C6.77908 13.1362 6.59708 12.9239 6.40108 12.7104C6.7155 12.6276 6.94883 12.2356 6.66942 11.8418C6.37133 11.4212 5.76233 11.1278 5.14692 10.6518C4.57117 10.2067 4.38917 9.1095 5.17317 7.88333C4.79108 8.9695 5.0145 9.9705 5.20642 10.2569C5.24608 9.68058 5.29158 8.71808 6.07908 7.56483C6.47633 6.98267 6.48217 6.21383 6.49092 5.73317L6.85258 5.9805C7.11858 6.17708 7.34142 6.3935 7.66108 6.3935C8.13358 6.3935 8.39492 6.12167 8.75892 5.89592C8.90125 5.80842 9.1165 5.71975 9.29733 5.59667C9.60067 7.041 10.8572 8.77817 10.9277 9.7675C11.22 9.1655 10.8449 7.71767 10.8449 7.71767C11.3361 8.46725 11.3752 9.092 11.3967 9.8585C11.7403 9.99908 12.109 10.3654 12.1428 10.8478L11.9999 10.8315C11.9264 10.2954 10.4792 9.50792 10.3491 10.5171C9.65492 10.6227 9.9075 11.7222 9.7675 12.4351C9.70333 12.7612 9.58433 13.019 9.498 13.2902ZM12.3248 13.2663C11.7502 13.488 11.3623 13.9587 11.0957 14.251C10.5824 14.8145 9.90342 14.5444 9.83108 14.0171C9.75467 13.4536 10.0411 13.1462 10.1648 12.5156C10.2773 11.9398 10.1513 11.0537 10.4162 10.9592C10.5882 11.9818 11.6213 11.5519 11.857 11.2731C12.2402 11.2731 12.2723 11.4026 12.3581 11.7613C12.4118 11.9859 12.4858 12.1749 12.6952 12.3972C12.9391 12.6579 12.8644 13.0581 12.3248 13.2663ZM7.65817 5.6795C7.27842 5.6795 6.99433 5.42692 6.76333 5.23092C6.64492 5.13117 6.7925 4.94683 6.91092 5.04717C7.13667 5.2385 7.36417 5.44092 7.65817 5.44092C8.01225 5.44092 8.32433 5.13817 8.74725 4.97133C8.89133 4.91475 8.97358 5.13758 8.83067 5.19417C8.42 5.35575 8.09042 5.6795 7.65817 5.6795Z" fill="#CED0D6"/>
</svg>
