<svg width="64" height="64" viewBox="0 0 64 64" fill="none" xmlns="http://www.w3.org/2000/svg">
<path d="M23.7805 23.4136L23.319 23.2212C23.661 22.4007 23.8579 21.8912 23.9858 21.4244C24.1115 20.9656 24.1742 20.5338 24.2297 19.8681C24.3445 18.4887 24.3161 18.0022 24.2672 17.168C24.2648 17.1274 24.2624 17.086 24.26 17.0436C24.2055 16.1044 24.136 14.7296 24.1975 11.4946C24.2276 9.9062 24.5748 8.59431 25.1132 7.51653C25.9808 5.74707 27.3418 4.64196 28.5821 3.97282C29.8149 3.30769 30.9553 3.05846 31.4371 3.01592L23.7805 23.4136ZM23.7805 23.4136L23.319 23.2212C22.687 24.7373 22.023 25.6677 21.1107 26.9458C20.9869 27.1193 20.8584 27.2992 20.7249 27.4879M23.7805 23.4136L16.8331 34.5014L16.3834 34.2827C16.3836 34.2824 16.3837 34.2821 16.3838 34.2818C17.4143 32.1635 19.2632 29.5523 20.6185 27.6381C20.6543 27.5875 20.6898 27.5374 20.7249 27.4879M20.7249 27.4879C20.7249 27.4879 20.7249 27.4879 20.7249 27.4878L21.133 27.7767L20.7249 27.4879ZM8.55816 45.8875C8.80055 45.4929 9.22692 45.2194 9.64632 45.0287C10.0795 44.8317 10.5771 44.6912 11.0475 44.6C11.0476 44.6 11.0476 44.6 11.0476 44.5999L11.1104 44.5877C11.6124 44.4893 12.0516 44.4033 12.4262 44.2842C12.8177 44.1598 13.0736 44.018 13.2282 43.8487C13.5402 43.5058 13.7821 43.1113 14.0447 42.683C14.0653 42.6493 14.0861 42.6155 14.107 42.5814C14.3431 42.1973 14.6062 41.7787 14.9476 41.429L42.525 60.3796L42.5007 60.879C42.0616 60.8577 41.6465 60.7906 41.261 60.6886L41.2608 60.6885C40.8388 60.5765 40.4511 60.4232 40.103 60.2385L40.1015 60.2377C39.7293 60.0386 39.3989 59.803 39.1205 59.5432L39.1199 59.5426C38.8657 59.3046 38.66 59.0575 38.4923 58.7928L38.4896 58.7885C38.3243 58.5217 38.2017 58.2458 38.1113 57.9488L38.4533 57.8447M8.55816 45.8875C8.55819 45.8874 8.55822 45.8874 8.55824 45.8873L8.98393 46.1496L8.55776 45.8881C8.5579 45.8879 8.55803 45.8877 8.55816 45.8875ZM8.55816 45.8875C8.51221 45.9621 8.47162 46.0378 8.43529 46.1136M8.43529 46.1136C8.20625 46.5631 8.11589 47.0683 8.08762 47.5711C8.05921 48.0764 8.09228 48.6136 8.13214 49.1342C8.13939 49.2288 8.1468 49.3228 8.15415 49.416C8.23061 50.3857 8.30091 51.2772 8.11816 52.0347L8.11806 52.0352C8.05849 52.283 7.98862 52.5137 7.91574 52.7542C7.87615 52.885 7.83566 53.0186 7.79546 53.1595C7.68801 53.5362 7.58947 53.9455 7.58599 54.3562L7.58598 54.3576C7.58348 54.7948 7.68432 55.253 7.96921 55.7519M8.43529 46.1136C8.43642 46.1114 8.43755 46.1091 8.43869 46.1069L8.88353 46.3352L8.43212 46.1202C8.43317 46.118 8.43423 46.1158 8.43529 46.1136ZM7.96921 55.7519C8.33142 56.3885 9.07303 56.7686 9.90575 57.06L9.90586 57.06C10.6849 57.3324 11.6819 57.5701 12.7986 57.8364L12.8825 57.8564L12.8836 57.8566L13.2831 57.9509L13.4001 57.4648M7.96921 55.7519C7.96904 55.7516 7.96887 55.7513 7.96869 55.751L8.40341 55.504M7.96921 55.7519L8.40341 55.504M13.4001 57.4648L13.2852 57.9514L13.3484 57.9667C13.8468 58.0866 14.3539 58.2086 14.8675 58.3126C15.1818 58.3783 15.379 58.4139 15.539 58.4428C15.5565 58.4459 15.5735 58.449 15.5902 58.452L15.5905 58.4521L15.6158 58.4566C16.2905 58.5784 16.5547 58.626 18.4901 59.391L18.4906 59.3912C18.9692 59.5798 19.5109 59.7865 20.0875 59.9646C21.2139 60.3181 22.5549 60.5992 23.8271 60.3663M13.4001 57.4648L13.4625 57.4798C13.9636 57.6004 14.4631 57.7206 14.9681 57.8228M13.4001 57.4648L12.9985 57.37L12.9342 57.3547C11.8009 57.0844 10.8254 56.8518 10.0709 56.588C9.24669 56.2996 8.66729 55.9684 8.40341 55.504M23.8271 60.3663C24.4801 60.2472 25.1091 59.9926 25.6709 59.5487L25.671 59.5486C26.2215 59.1132 26.7471 58.5313 27.1237 57.9356M23.8271 60.3663L23.7374 59.8744M23.8271 60.3663C23.8273 60.3663 23.8274 60.3662 23.8275 60.3662L23.7374 59.8744M27.1237 57.9356C27.2244 57.7767 27.3192 57.6097 27.4033 57.4353M27.1237 57.9356L26.7013 57.668L27.124 57.9352C27.1239 57.9353 27.1238 57.9355 27.1237 57.9356ZM27.4033 57.4353C27.4757 57.2899 27.5413 57.1389 27.597 56.9825M27.4033 57.4353C27.4028 57.4363 27.4023 57.4374 27.4018 57.4384L26.9543 57.2152L27.4049 57.432C27.4044 57.4331 27.4038 57.4342 27.4033 57.4353ZM27.597 56.9825C27.6206 56.9185 27.6426 56.8531 27.6627 56.7868M27.597 56.9825C27.5965 56.9836 27.5961 56.9847 27.5957 56.9858L27.1269 56.812L27.5982 56.9791C27.5978 56.9802 27.5974 56.9813 27.597 56.9825ZM27.6627 56.7868C28.1585 56.5972 29.2667 56.3344 31.5938 56.3116C33.5936 56.292 35.2588 56.6474 36.4217 57.0068C37.0028 57.1863 37.4574 57.3665 37.7641 57.5004C37.8682 57.5459 37.9552 57.586 38.0242 57.6188M27.6627 56.7868C27.5814 56.8179 27.5165 56.847 27.4655 56.8728L27.2401 56.4264L27.7289 56.532C27.7103 56.6179 27.688 56.7031 27.6627 56.7868ZM38.0242 57.6188C38.0496 57.7308 38.0784 57.8405 38.1113 57.9488L38.4533 57.8447M38.0242 57.6188C38.0029 57.5249 37.984 57.4294 37.967 57.3318L38.3303 57.2685L41.389 60.2052C41.003 60.1028 40.651 59.9632 40.3374 59.7968C40.0009 59.6168 39.7064 59.406 39.4616 59.1776C39.236 58.9664 39.0581 58.7516 38.9147 58.5252C38.7996 58.3394 38.7085 58.1485 38.6363 57.945L38.4533 57.8447M38.0242 57.6188C38.0569 57.6344 38.0855 57.6483 38.11 57.6604C38.1304 57.6705 38.1479 57.6793 38.1625 57.6867C38.1754 57.6933 38.1861 57.6988 38.1945 57.7032L38.2137 57.7133L38.2172 57.7152L38.2174 57.7154L38.2175 57.7154L38.2177 57.7155L38.2178 57.7156L38.4533 57.8447M45.6622 60.1338C45.1466 60.4566 44.5461 60.705 43.7784 60.8164L43.7066 60.3216L49.9519 56.6899M45.6622 60.1338C45.6621 60.1339 45.662 60.134 45.6618 60.1341L45.397 59.71L45.6622 60.1338ZM45.6622 60.1338C46.1531 59.8272 46.5502 59.4623 46.9185 59.1239L46.9206 59.122M46.9206 59.122L46.9252 59.118L46.9316 59.1125L46.9378 59.1069L46.9417 59.1033C47.19 58.8755 47.4226 58.6621 47.6772 58.4681M46.9206 59.122L46.914 59.1276L46.5886 58.748M46.9206 59.122L46.9251 59.1178L46.9269 59.1162L46.8785 59.0635L46.5886 58.748M47.6772 58.4681C47.864 58.326 48.036 58.1932 48.2003 58.0641M47.6772 58.4681C47.6771 58.4682 47.677 58.4683 47.6769 58.4683L47.3742 58.0704M47.6772 58.4681L47.3742 58.0704M48.2003 58.0641C48.442 57.8754 48.5774 57.7679 48.7141 57.6586M48.2003 58.0641L47.8926 57.67M48.2003 58.0641C48.2007 58.0638 48.2011 58.0635 48.2015 58.0632L47.8926 57.67M48.7141 57.6586C48.7744 57.6108 48.8348 57.5628 48.8953 57.5148C49.2459 57.2364 49.5987 56.9562 49.9519 56.6899M48.7141 57.6586C48.7139 57.6588 48.7138 57.6589 48.7136 57.659L48.403 57.2672M48.7141 57.6586C48.7144 57.6583 48.7148 57.6581 48.7152 57.6578L48.403 57.2672M49.9519 56.6899L49.6518 56.29C49.2929 56.5605 48.9343 56.8453 48.5836 57.1238C48.5232 57.1718 48.4629 57.2197 48.403 57.2672M49.9519 56.6899L47.8926 57.67M48.403 57.2672C48.2674 57.3756 48.1334 57.482 47.8926 57.67M47.8926 57.67C47.7302 57.7976 47.5598 57.9292 47.3742 58.0704M47.8926 57.67L47.3742 58.0704M53.8442 54.0459C53.4214 54.3391 52.975 54.6376 52.5502 54.92L52.5498 54.9203C52.1372 55.194 51.7079 55.4756 51.3259 55.724L51.3249 55.7246C50.8355 56.0412 50.3829 56.3665 49.9527 56.6893L53.8442 54.0459ZM53.8442 54.0459C53.9137 53.9981 53.9875 53.9481 54.0644 53.896C54.3837 53.6797 54.7565 53.4271 55.096 53.1498C55.5149 52.8078 55.9371 52.3869 56.1807 51.8755C56.3426 51.5552 56.4381 51.1939 56.4123 50.7972C56.3701 50.1451 55.9761 49.5867 55.5501 49.1283C55.1992 48.7508 54.7666 48.3808 54.3636 48.036C54.2717 47.9574 54.1813 47.8801 54.0938 47.8043C53.592 47.3678 53.1885 47.0161 52.9888 46.6812L52.9885 46.6805C52.7956 46.3581 52.5874 45.9081 52.535 45.625L52.5348 45.6237C52.4898 45.3844 52.4559 45.1591 52.4224 44.9371L52.419 44.9148C52.385 44.6891 52.3505 44.4621 52.3057 44.244C52.2151 43.8022 52.0767 43.365 51.7803 42.9463L51.3722 43.2352L51.7802 42.9463C51.5323 42.5962 51.2735 42.3333 50.9506 42.1526C50.7113 42.0187 50.4598 41.943 50.1934 41.8956C50.5367 40.5031 50.6498 39.4788 50.5284 38.1834C50.1239 33.8684 47.7045 30.5429 46.008 28.2113C45.7407 27.8438 45.4913 27.501 45.2706 27.1829L45.2705 27.1828C44.9457 26.7148 44.5998 26.2347 44.2656 25.7709C44.0427 25.4616 43.8251 25.1595 43.6223 24.873C43.1035 24.1399 42.6739 23.4974 42.4215 22.9987C41.9846 22.1358 41.6404 20.9816 41.379 20.105C41.3309 19.9438 41.2856 19.792 41.2431 19.6531C41.1311 19.2876 41.034 18.6198 40.9628 17.5993C40.8927 16.5931 40.8499 15.2811 40.8326 13.6493C40.8941 11.0892 40.5343 9.17911 39.8973 7.70802C39.2569 6.22909 38.349 5.22307 37.3642 4.45675L37.0571 4.85136L37.3642 4.45674C36.3426 3.66191 35.1033 3.28484 34.0188 3.11327C32.9308 2.94114 31.9597 2.96972 31.4372 3.01592L53.8442 54.0459ZM47.3742 58.0704C47.1013 58.2783 46.8544 58.5049 46.6113 58.7279L46.5998 58.7384M47.3742 58.0704L46.5998 58.7384M46.5998 58.7384L46.5886 58.748M46.5998 58.7384L46.5886 58.748M23.7374 59.8744C22.5863 60.0852 21.3395 59.8336 20.2361 59.4872L25.3609 59.1564C24.8714 59.5432 24.3207 59.768 23.7374 59.8744ZM14.9681 57.8228L8.38849 52.9187C8.23568 53.4238 8.08983 53.9059 8.08597 54.3604C8.08397 54.7104 8.16245 55.082 8.40341 55.504M14.9681 57.8228C15.2765 57.8873 15.4685 57.922 15.6279 57.9507C15.6454 57.9539 15.6625 57.957 15.6793 57.96C16.4194 58.0936 16.7005 58.146 18.6739 58.926L14.9681 57.8228Z" fill="#191919" stroke="white"/>
<path fill-rule="evenodd" clip-rule="evenodd" d="M13.1836 45.1196C12.2052 45.5956 9.9522 45.586 9.40564 46.5336C8.80564 47.576 9.19356 48.7308 9.19928 50.0616C9.20128 51.0036 9.18588 52.0516 8.7942 53.1676C8.47312 54.0864 8.3642 54.4116 8.82472 55.22C9.28524 56.0304 11.2841 56.4192 13.988 57.0728C16.694 57.7248 15.8321 57.2432 18.861 58.4404C20.7375 59.1828 23.386 60.094 25.102 58.738C25.7346 58.2372 26.7722 57.104 26.8353 55.9996C26.8716 55.3688 26.8142 54.6956 26.6652 54.2876C26.1703 52.926 25.1804 52.344 24.2403 50.9204C22.5185 48.2764 20.6897 45.7696 19.2278 43.5684C18.196 42.0116 17.3666 41.6344 16.6653 41.7584C14.5097 42.1432 15.2053 44.1372 13.1836 45.1196H13.1836Z" fill="#FCC624"/>
<path fill-rule="evenodd" clip-rule="evenodd" d="M40.6024 42.8688C39.653 43.5476 39.8586 45.5824 39.803 46.6544C39.7184 48.2944 39.7068 50.1228 39.6511 50.8504C39.5588 52.0544 38.6574 54.774 38.767 56.058C38.8747 57.34 38.9669 58.0908 39.7549 58.8264C40.5448 59.5616 41.9344 60.11 43.6508 59.8592C45.3672 59.6084 46.0168 58.5284 47.1296 57.6844C48.2404 56.84 49.384 55.8384 50.8524 54.8852C52.3208 53.93 54.6848 52.366 55.0252 51.9436C55.3652 51.5196 55.596 51.154 55.35 50.5976C55.1056 50.0412 54.2488 49.1812 53.3124 48.3992C50.8716 46.3568 51.9256 44.458 50.9064 43.4544C50.5952 43.1152 50.3644 42.9284 50.0032 42.854C48.0552 42.4524 47.52 43.2268 46.3764 43.1132C45.1428 42.9904 45.6064 43.2648 43.0748 42.9228C42.2032 42.8228 41.204 42.4732 40.6024 42.8688Z" fill="#FCC624"/>
<path fill-rule="evenodd" clip-rule="evenodd" d="M24.6867 27.2843C23.8164 29.2104 23.8591 28.5559 23.2743 30.5692C22.4621 31.3151 21.5717 33.3192 20.9855 35.0443C20.2369 37.5515 19.6744 40.1292 20.3735 43.128C20.6509 43.4328 20.876 43.7212 21.1285 43.9632C21.5297 44.348 21.9617 44.6596 22.4894 45.0656C24.3569 46.502 25.6657 47.2608 25.9233 48.1948C26.2661 49.4384 25.4977 50.2608 24.5395 50.7664C25.2401 51.476 27.4765 52.9296 31.5546 52.7476C35.1461 52.588 37.3983 51.212 39.3209 48.8384C39.3332 48.292 39.3923 47.378 39.419 46.3916C39.4445 45.4492 39.4499 44.5056 39.5924 43.7736C39.6259 43.6016 39.6901 43.4384 39.7476 43.2948C39.9821 42.7092 40.6134 42.3104 41.2174 42.2816C41.535 42.2664 41.8686 42.2432 42.1874 42.31C42.6746 38.456 42.2886 35.7948 40.3642 31.7129C40.215 31.4266 39.5021 30.2125 39.0764 29.8698C38.7438 28.2227 38.6999 28.3035 38.0345 26.7957C37.0252 24.5089 36.6595 21.8657 36.3518 20.3124C36.1415 20.4227 35.7746 20.5774 35.2146 21.0165C34.8076 21.3377 34.0546 22.005 33.4774 22.4093C33.1005 22.6733 32.6881 22.9017 32.2823 23.0805C31.6983 23.3379 31.1283 23.4927 30.6986 23.5041C29.1585 23.5865 28.4258 23.2005 27.7236 22.4598C27.4291 22.1491 27.2059 21.8087 26.8344 21.3934C26.6698 21.2094 26.442 20.965 26.2097 20.797C26.2034 21.0012 25.5569 25.3581 24.6867 27.2843ZM31.5987 15.7802C31.551 15.3507 31.5376 14.5654 31.8319 13.5769C32.2867 12.0604 33.9304 11.0449 35.3217 11.7606C36.713 12.4763 36.9701 14.3345 36.6365 15.3817C36.4316 16.0253 35.9451 16.7783 35.5777 17.2503C35.293 17.1323 34.9413 17.0027 34.5037 16.8499C34.756 16.7029 34.9815 16.4707 35.1478 16.1632C35.6083 15.314 35.444 14.2095 34.7847 13.6949C34.1234 13.1804 33.2156 13.4531 32.7569 14.3023C32.4359 14.8943 32.4186 15.6119 32.6613 16.1651C32.2695 16.0123 31.9275 15.8808 31.5987 15.7802V15.7802ZM26.496 12.1358C27.7994 11.6755 28.5791 12.78 28.8964 14.3603C28.992 14.8459 28.9996 15.3314 28.9423 15.7763C28.9059 15.7879 28.8697 15.8034 28.8314 15.8189C28.6785 15.8788 28.5141 15.9543 28.3326 16.0491C28.3613 15.9465 28.3823 15.8363 28.3957 15.7202C28.4989 14.8362 28.0861 13.9213 27.4726 13.6795C26.8591 13.4377 26.2781 13.9599 26.1749 14.8439C26.0755 15.6931 26.452 16.5694 27.0235 16.8518C26.9508 16.9021 26.8763 16.9543 26.8017 17.0085C26.7062 17.0743 26.6107 17.1458 26.517 17.2193C26.064 16.7763 25.7602 16.0625 25.5882 15.312C25.2767 13.9502 25.613 12.4472 26.4959 12.1358H26.496Z" fill="#F5F5F5"/>
<path fill-rule="evenodd" clip-rule="evenodd" d="M26.0706 20.2364C26.0927 20.26 26.0845 20.3017 26.109 20.3265C26.3973 20.6172 26.7309 20.9021 27.0216 21.2355C27.3559 21.6189 27.6624 22.0477 27.9469 22.3104C28.4701 22.7935 28.9673 23.0517 29.6934 23.1425C31.0959 23.3177 32.1445 22.9241 33.3271 22.1346C33.8836 21.7629 34.6542 21.0778 35.0998 20.7391C35.8417 20.1739 36.0539 20.2185 36.2739 19.934C36.5014 19.6379 36.6123 18.8637 36.5454 18.4979C36.4919 18.2153 36.3943 18.0276 36.0922 17.8341C35.7556 17.6192 35.1763 17.3928 34.1723 17.0483L34.1703 17.0464H34.1684L34.1664 17.0445H34.1625L34.1605 17.0425H34.1585H34.1565L34.1527 17.0406H34.1507L34.1487 17.0387H34.1449L34.1429 17.0368H34.1409H34.1389L34.1351 17.0349H34.1331L34.1311 17.0329H34.1273L34.1253 17.031H34.1233L34.1213 17.0291H34.1175H34.1155L34.1135 17.0272H34.1115L34.1078 17.0253H34.1058L34.1038 17.0233H34.1017H34.098L34.096 17.0214H34.0941L34.0903 17.0195H34.0883L34.0863 17.0176H34.0843L34.0804 17.0157H34.0784H34.0764L34.0744 17.0137H34.0706L34.0686 17.0118H34.0666L34.0646 17.0099H34.0626H34.0605H34.0585L34.0565 17.008H34.0545L34.0507 17.0061H34.0487L34.0467 17.0042H34.0447H34.041L34.039 17.0022H34.0369L34.0349 17.0003H34.0329H34.0309L34.0289 16.9984H34.0269H34.0249L34.0211 16.9965H34.0191L34.0171 16.9946H34.0151L34.0055 16.9907L33.9807 16.981H33.9769L33.9597 16.9752L33.954 16.9733L33.9406 16.9675L33.9272 16.9636L33.9234 16.9617L33.9043 16.9559L33.9005 16.954L33.8756 16.9443L33.8699 16.9424L33.8508 16.9366L33.8488 16.9347L33.8239 16.927L33.8163 16.9231L33.7971 16.9173L33.7723 16.9077L33.7475 16.8979H33.7455L33.7283 16.8922L33.7207 16.8903L33.7092 16.8845L33.6958 16.8806L33.692 16.8787L33.6747 16.8729L33.6709 16.8709L33.6461 16.8613L33.6404 16.8594L33.6232 16.8535H33.6212L33.6078 16.8478L33.5963 16.8439L33.5907 16.842L33.5734 16.8343L33.5486 16.8265L33.539 16.8226L33.5237 16.8168H33.5217L33.5064 16.8091L33.5008 16.8072L33.4759 16.7994L33.4721 16.7975L33.4567 16.7917L33.453 16.7897L33.4396 16.7859L33.4281 16.782L33.4243 16.7801L33.4071 16.7723H33.4051L33.3917 16.7665L33.3821 16.7627L33.3745 16.7607L33.3592 16.7549H33.3572L33.3343 16.7453L33.3113 16.7375L33.3093 16.7356L33.2941 16.7298L33.2883 16.7279L33.2787 16.724L33.2654 16.7201L33.2634 16.7182L33.2462 16.7124L33.2423 16.7105L33.2309 16.7066L33.2194 16.7027L33.2156 16.7008L33.2003 16.695L33.1966 16.6931L33.1851 16.6892L33.1756 16.6853L33.1679 16.6834L33.1526 16.6757L33.1373 16.6699L33.1297 16.6679L33.1086 16.6583H33.1066L33.0913 16.6525L33.0856 16.6506L33.076 16.6467L33.0645 16.6428L33.0625 16.6409L33.0473 16.6351L33.0416 16.6332L33.0205 16.6254L33.0167 16.6235L33.0014 16.6177H32.9994L32.9861 16.6119L32.9784 16.608L32.9727 16.6061L32.9575 16.6003H32.9555L32.9516 16.5984L32.9478 16.5965L32.9421 16.5946L32.9383 16.5927H32.9345V16.5907H32.9287L32.9249 16.5888L32.9193 16.5869L32.9154 16.585L32.9134 16.5831L32.9057 16.5811L32.9019 16.5792L32.8963 16.5773L32.8924 16.5754L32.8867 16.5735L32.8829 16.5715L32.8791 16.5696L32.8734 16.5677H32.8714L32.8694 16.5658H32.8637L32.8599 16.5639L32.8561 16.5619L32.8503 16.5601L32.8465 16.5581L32.8408 16.5562L32.837 16.5543L32.8293 16.5524L32.8273 16.5505L32.8235 16.5485L32.8177 16.5466L32.8139 16.5447L32.8101 16.5428H32.8082H32.8043L32.8005 16.5409L32.7967 16.5389L32.7909 16.537L32.7889 16.5351H32.7869L32.7831 16.5332L32.7773 16.5313L32.7736 16.5294L32.7679 16.5275L32.7641 16.5255L32.7603 16.5236H32.7546L32.7508 16.5217L32.747 16.5198L32.7412 16.5179L32.7374 16.5159L32.7336 16.5141L32.7278 16.5121L32.724 16.5102L32.7202 16.5083L32.7144 16.5063L32.7106 16.5044H32.7069L32.7011 16.5025L32.6973 16.5006L32.6934 16.4987L32.6896 16.4968H32.6876L32.6839 16.4949L32.68 16.4929L32.6762 16.4911L32.6705 16.4891H32.6667C31.6475 16.0885 30.9859 15.8291 30.0566 15.8601C29.7334 15.8697 29.4045 15.9065 28.9417 16.0923L28.9188 16.102L28.8958 16.1097V16.1117L28.8767 16.1194H28.8729V16.1213H28.8709L28.8498 16.1291V16.131L28.8326 16.1368L28.8211 16.1426L28.8078 16.1484L28.8039 16.1503H28.8019L28.7829 16.1581L28.779 16.16L28.7771 16.1619L28.7561 16.1715H28.7541L28.7349 16.1812H28.7312L28.7292 16.1831L28.7158 16.1889L28.7119 16.1909L28.7043 16.1947L28.6852 16.2044H28.6832L28.6793 16.2063L28.6659 16.2121L28.6584 16.216L28.6546 16.2179L28.6412 16.2237L28.6374 16.2256L28.6297 16.2295L28.6163 16.2353L28.6087 16.2392L28.6029 16.2431L28.5896 16.2489H28.5875L28.578 16.2547L28.5646 16.2605L28.5512 16.2682L28.5378 16.274L28.5244 16.2817L28.5111 16.2875L28.5091 16.2894L28.4995 16.2933L28.4975 16.2952L28.4841 16.301L28.4707 16.3087L28.4573 16.3145L28.4459 16.3223H28.4439L28.4305 16.3301H28.4285L28.4189 16.3359H28.4169L28.4016 16.3436L28.3901 16.3514H28.3881L28.3748 16.3591L28.3614 16.3669L28.3461 16.3746L28.3327 16.3804V16.3823L28.3174 16.3901L28.304 16.3959V16.3978L28.2887 16.4055L28.2773 16.4113L28.2753 16.4133L28.26 16.421L28.2466 16.4287L28.2313 16.4365L28.216 16.4461C28.1873 16.4616 28.1567 16.4791 28.1261 16.4965L28.1109 16.5061L28.0956 16.5139L28.086 16.5197L28.0688 16.5313L28.0592 16.5371H28.0572L28.0552 16.5391L28.0399 16.5468L28.0304 16.5526L28.0227 16.5584L28.0036 16.57L27.9941 16.5758L27.9749 16.5855L27.9653 16.5913L27.9367 16.6087L27.9271 16.6145L27.908 16.6261L27.8985 16.6339L27.8774 16.6454L27.8679 16.6512L27.843 16.6667L27.841 16.6686H27.839L27.8294 16.6744L27.8084 16.6879L27.7989 16.6938L27.7797 16.7053L27.7777 16.7073H27.7757V16.7092H27.7737L27.7717 16.7111H27.7697V16.7131H27.7677L27.7657 16.7149L27.7619 16.7169H27.7599L27.7503 16.7246H27.7483L27.7463 16.7265L27.7443 16.7284H27.7423H27.7403V16.7303H27.7383L27.7363 16.7322H27.7343V16.7341H27.7323L27.7094 16.7496H27.7074L27.7054 16.7515L27.6958 16.7573L27.6747 16.7709L27.6652 16.7767L27.6632 16.7786L27.6441 16.7902L27.6326 16.798L27.623 16.8038L27.6115 16.8115L27.6019 16.8173L27.5905 16.8251L27.5694 16.8386L27.558 16.8464L27.5369 16.8599L27.5274 16.8677L27.5159 16.8735L27.5045 16.8812L27.4949 16.889L27.4834 16.8947L27.472 16.9025L27.4605 16.9102L27.451 16.918L27.4433 16.9219L27.4299 16.9315L27.4223 16.9354L27.4147 16.9412L27.4071 16.9451L27.4013 16.9509L27.3937 16.9547L27.386 16.9605L27.3783 16.9644L27.3726 16.9702L27.3573 16.9799L27.3497 16.9838L27.3441 16.9895L27.3364 16.9935L27.3287 16.9992H27.3267L27.321 17.0031L27.3133 17.0089L27.3077 17.0128L27.3 17.0186L27.2924 17.0244L27.2847 17.0283L27.2771 17.0341L27.2694 17.0379L27.2617 17.0437L27.256 17.0495L27.2503 17.0514L27.2483 17.0533L27.2407 17.0591L27.2254 17.0688L27.2177 17.0746L27.2101 17.0785L27.2024 17.0843L27.1947 17.0901L27.1872 17.0939L27.1795 17.0998L27.1661 17.1113L27.1585 17.1152L27.1508 17.121L27.1431 17.1268L27.1355 17.1307L27.1335 17.1326L27.1277 17.1365L27.1201 17.1423L27.1124 17.1481L27.1047 17.152L27.0971 17.1577L27.0933 17.1597L27.0894 17.1635L27.0818 17.1693L27.0722 17.1751L27.0589 17.1848H27.0568L27.0531 17.1887L27.0493 17.1906L27.0416 17.1964L27.0339 17.2022L27.0187 17.2119L27.0129 17.2177H27.011L27.0034 17.2235L26.9709 17.2467C26.4967 17.5815 26.0109 18.0267 25.7299 18.4835C25.5633 18.7538 25.2995 19.3114 25.5455 19.6321C25.5464 19.6329 26.1739 19.9583 26.8039 20.3355C27.8225 20.9451 28.986 21.2599 30.0248 21.2014C30.851 21.1548 31.7732 20.8907 32.4392 20.5663C33.1094 20.2397 33.9335 19.7248 34.7368 19.0974C34.8611 19.0045 35.0979 18.7692 35.2459 18.6982C35.3765 18.6356 35.7973 18.6719 35.7779 18.8165C35.7628 18.9298 35.2686 19.1319 35.0905 19.2658C34.2118 19.9264 33.2335 20.5734 32.5977 20.87C31.9407 21.1765 30.8351 21.5303 30.0878 21.5749C29.4051 21.6157 28.8254 21.539 28.2319 21.3359C27.6582 21.1395 27.3181 20.969 26.7071 20.6119C26.5123 20.498 26.325 20.4029 26.0613 20.2363L26.0706 20.2364Z" fill="#FCC624"/>
<path fill-rule="evenodd" clip-rule="evenodd" d="M48.5217 42.5884C48.5553 42.5244 48.6233 42.2688 48.6285 42.2168C48.7569 40.922 46.2681 40.6308 44.3309 40.696C43.4521 40.7256 42.7669 40.8308 42.3577 40.9528C41.6453 41.166 41.2941 41.6544 41.2153 42.2656C41.0553 43.5028 41.4181 46.1168 42.6309 46.6888C43.8853 47.28 45.7849 46.436 46.9061 45.1628C47.6657 44.3004 48.1489 43.2968 48.5217 42.5884Z" fill="#191919"/>
</svg>
