<svg width="14" height="14" viewBox="0 0 14 14" fill="none" xmlns="http://www.w3.org/2000/svg">
<path fill-rule="evenodd" clip-rule="evenodd" d="M1.08296 6C1.55904 3.16229 4.027 1 7 1C9.973 1 12.441 3.16229 12.917 6H12C11.4477 6 11 6.44772 11 7V9C11 9.55228 11.4477 10 12 10H13C13.5523 10 14 9.55228 14 9V7C14 3.13401 10.866 0 7 0C3.13401 0 0 3.13401 0 7V9C0 9.55228 0.447715 10 1 10H2C2.55228 10 3 9.55228 3 9V7C3 6.44772 2.55228 6 2 6H1.08296ZM1 7V9H2V7H1ZM13 7H12V9H13V7Z" fill="#CED0D6"/>
<path d="M3.23086 10.5775C3.69976 10.2115 4.00126 9.64094 4.00126 9V7C4.00126 6.11034 3.42037 5.35636 2.61719 5.09664C2.7927 4.81423 3.00771 4.54259 3.26474 4.28556C5.28891 2.26143 8.11263 2.77022 10.1592 4.81673C10.3651 5.0226 10.5559 5.23599 10.7306 5.45541C10.2852 5.82223 10.0013 6.37795 10.0013 7V9C10.0013 9.88312 10.5736 10.6326 11.3677 10.8976C11.187 11.1822 10.9657 11.4581 10.7016 11.7223C8.63269 13.7911 5.73573 13.1532 3.77917 11.1967C3.58203 10.9995 3.39883 10.7925 3.23086 10.5775Z" fill="#45322B"/>
<path d="M10.7306 5.45541C10.5559 5.23599 10.3651 5.0226 10.1592 4.81673C8.11263 2.77022 5.28891 2.26143 3.26474 4.28556C3.00771 4.54259 2.7927 4.81423 2.61719 5.09664C2.94316 5.20205 3.23251 5.38886 3.46128 5.63312C3.51887 5.53978 3.58221 5.44778 3.65149 5.3573L9.6307 11.3365C8.91072 11.8937 8.11348 12.0704 7.31592 11.9759C6.3516 11.8617 5.33688 11.3401 4.48627 10.4895C4.25023 10.2535 4.04023 10.0037 3.85781 9.7452C3.72519 10.0753 3.50707 10.3619 3.23086 10.5775C3.39883 10.7925 3.58203 10.9995 3.77917 11.1967C5.73573 13.1532 8.63269 13.7911 10.7016 11.7223C10.9657 11.4581 11.187 11.1822 11.3677 10.8976C11.0429 10.7892 10.7553 10.5998 10.5287 10.3534C10.4705 10.4457 10.4064 10.5373 10.3364 10.628L4.36009 4.65169C5.05955 4.11729 5.82764 3.93663 6.59716 4.01898C7.53971 4.11984 8.55509 4.62687 9.45208 5.52384C9.7068 5.77856 9.93085 6.04177 10.1237 6.30944C10.2474 5.97305 10.459 5.67911 10.7306 5.45541Z" fill="#C77D55"/>
<rect x="12" y="7" width="1" height="2" fill="#43454A"/>
<rect x="1" y="7" width="1" height="2" fill="#43454A"/>
</svg>
