<svg width="14" height="14" viewBox="0 0 14 14" fill="none" xmlns="http://www.w3.org/2000/svg">
<path fill-rule="evenodd" clip-rule="evenodd" d="M12.6398 9H7.36023L10 10.8855L12.6398 9ZM7 9.97159L9.70938 11.9069C9.88323 12.031 10.1168 12.031 10.2906 11.9069L13 9.97159V13H7V9.97159ZM6 13V9C6 8.44772 6.44772 8 7 8H13C13.5523 8 14 8.44772 14 9V13C14 13.5523 13.5523 14 13 14H7C6.44772 14 6 13.5523 6 13Z" fill="#6C707E"/>
<path d="M14 7C14 3.13401 10.866 0 7 0C3.13401 0 0 3.13401 0 7C0 10.171 2.10851 12.8496 5 13.7101V9C5 7.89543 5.89543 7 7 7H14Z" fill="#EDF3FF"/>
<path d="M1 7C1 9.61244 2.66962 11.8349 5 12.6586V13.7101C2.10851 12.8496 0 10.171 0 7C0 3.13401 3.13401 0 7 0C10.866 0 14 3.13401 14 7H13C13 3.68629 10.3137 1 7 1C3.68629 1 1 3.68629 1 7Z" fill="#3574F0"/>
<path d="M5 9.74579C4.24867 9.11684 3.78711 8.14134 3.78711 7C3.78711 4.99378 5.21321 3.5 7.13241 3.5C7.49877 3.5 7.85225 3.55444 8.18169 3.65553C8.82484 3.8529 9.37637 4.22809 9.75323 4.72326L9.00846 5.33823C8.72514 4.93305 8.2807 4.6271 7.73941 4.49498C7.54822 4.44832 7.34494 4.42334 7.13241 4.42334C5.79332 4.42334 4.82647 5.49655 4.82647 7C4.82647 7.49405 4.93088 7.94164 5.11859 8.31995C5.04184 8.53224 5 8.76123 5 9V9.74579Z" fill="#3574F0"/>
</svg>
