<svg width="16" height="16" viewBox="0 0 16 16" fill="none" xmlns="http://www.w3.org/2000/svg">
<path d="M13.9603 7.97781C15.6154 6.32272 15.1636 4.09059 13.5263 2.45338C11.8891 0.816174 9.63012 0.409145 8.01078 2.02845C6.39145 3.64775 6.85708 5.99211 8.42233 7.55732C9.98758 9.12254 12.3051 9.63289 13.9603 7.97781Z" fill="#45322B"/>
<path d="M7.96026 13.9778C9.61538 12.3227 9.16358 10.0906 7.52634 8.45338C5.8891 6.81617 3.63012 6.40914 2.01078 8.02845C0.391449 9.64775 0.857084 11.9921 2.42233 13.5573C3.98758 15.1225 6.30514 15.6329 7.96026 13.9778Z" fill="#45322B"/>
<path fill-rule="evenodd" clip-rule="evenodd" d="M12.8192 3.1605C13.518 3.85924 13.9051 4.62771 13.9844 5.32235C14.0442 5.84607 13.9368 6.37523 13.585 6.87793L9.11211 2.40501C9.60199 2.06741 10.1283 1.95763 10.6554 2.01405C11.355 2.08891 12.1269 2.46818 12.8192 3.1605ZM8.40382 3.11093L12.8791 7.58617C12.3735 7.93928 11.8254 8.04732 11.2753 7.98213C10.5564 7.89695 9.78438 7.50514 9.12943 6.85021C8.4809 6.20169 8.09686 5.42651 8.01619 4.70244C7.9545 4.14873 8.06497 3.60363 8.40382 3.11093ZM6.81924 9.1605C7.51799 9.85924 7.90507 10.6277 7.98439 11.3223C8.0442 11.8461 7.93682 12.3752 7.58504 12.8779L3.11211 8.40501C3.60199 8.06741 4.12827 7.95763 4.65544 8.01405C5.35503 8.08891 6.12691 8.46818 6.81924 9.1605ZM2.40382 9.11093L6.87906 13.5862C6.37353 13.9393 5.82543 14.0473 5.27527 13.9821C4.55643 13.8969 3.78438 13.5051 3.12943 12.8502C2.4809 12.2017 2.09686 11.4265 2.01619 10.7024C1.9545 10.1487 2.06497 9.60363 2.40382 9.11093ZM13.9603 7.97781C15.6154 6.32272 15.1636 4.09059 13.5263 2.45338C11.8891 0.816174 9.63012 0.409145 8.01078 2.02845C6.39145 3.64775 6.85708 5.99211 8.42233 7.55732C9.98758 9.12254 12.3051 9.63289 13.9603 7.97781ZM7.96026 13.9778C9.61538 12.3227 9.16358 10.0906 7.52634 8.45338C5.8891 6.81617 3.63012 6.40914 2.01078 8.02845C0.391449 9.64775 0.857084 11.9921 2.42233 13.5573C3.98758 15.1225 6.30514 15.6329 7.96026 13.9778Z" fill="#C77D55"/>
</svg>
