<svg width="16" height="16" viewBox="0 0 16 16" fill="none" xmlns="http://www.w3.org/2000/svg">
<path d="M2.21799 3.09202C2 3.51984 2 4.0799 2 5.2V10.8C2 11.9201 2 12.4802 2.21799 12.908C2.40973 13.2843 2.71569 13.5903 3.09202 13.782C3.51984 14 4.0799 14 5.2 14H8V11C8 9.34315 9.34315 8 11 8H14V5.2C14 4.0799 14 3.51984 13.782 3.09202C13.5903 2.71569 13.2843 2.40973 12.908 2.21799C12.4802 2 11.9201 2 10.8 2H5.2C4.0799 2 3.51984 2 3.09202 2.21799C2.71569 2.40973 2.40973 2.71569 2.21799 3.09202Z" fill="#2F2936"/>
<path d="M2 5.2C2 4.0799 2 3.51984 2.21799 3.09202C2.40973 2.71569 2.71569 2.40973 3.09202 2.21799C3.51984 2 4.0799 2 5.2 2H10.8C11.9201 2 12.4802 2 12.908 2.21799C13.2843 2.40973 13.5903 2.71569 13.782 3.09202C14 3.51984 14 4.0799 14 5.2V8H13V5.2C13 4.62345 12.9992 4.25117 12.9761 3.96784C12.9539 3.69617 12.9162 3.59545 12.891 3.54601C12.7951 3.35785 12.6422 3.20487 12.454 3.10899C12.4045 3.0838 12.3038 3.04612 12.0322 3.02393C11.7488 3.00078 11.3766 3 10.8 3H5.2C4.62345 3 4.25117 3.00078 3.96784 3.02393C3.69617 3.04612 3.59545 3.0838 3.54601 3.10899C3.35785 3.20487 3.20487 3.35785 3.10899 3.54601C3.0838 3.59545 3.04612 3.69617 3.02393 3.96784C3.00078 4.25117 3 4.62345 3 5.2V8.13631L3.83063 7.31334C4.39813 6.75109 5.30671 6.73225 5.89702 7.2705L8.38112 9.53551C8.20514 9.84954 8.08401 10.1985 8.03069 10.5693L5.22325 8.00944C5.02648 7.83002 4.72362 7.8363 4.53445 8.02372L3 9.54402V10.8C3 11.3766 3.00078 11.7488 3.02393 12.0322C3.04612 12.3038 3.0838 12.4045 3.10899 12.454C3.20487 12.6422 3.35785 12.7951 3.54601 12.891C3.59545 12.9162 3.69617 12.9539 3.96784 12.9761C4.25117 12.9992 4.62345 13 5.2 13H8V14H5.2C4.0799 14 3.51984 14 3.09202 13.782C2.71569 13.5903 2.40973 13.2843 2.21799 12.908C2 12.4802 2 11.9201 2 10.8V5.2Z" fill="#A571E6"/>
<path fill-rule="evenodd" clip-rule="evenodd" d="M8 6C8 4.89543 8.89543 4 10 4C11.1046 4 12 4.89543 12 6C12 7.10457 11.1046 8 10 8C8.89543 8 8 7.10457 8 6ZM10 5C9.44772 5 9 5.44772 9 6C9 6.55228 9.44772 7 10 7C10.5523 7 11 6.55228 11 6C11 5.44772 10.5523 5 10 5Z" fill="#A571E6"/>
<path d="M12 9H11C9.89543 9 9 9.89543 9 11V12H10V11C10 10.4477 10.4477 10 11 10H12V9Z" fill="#CED0D6"/>
<path d="M13 9V10H14C14.5523 10 15 10.4477 15 11V12H16V11C16 9.89543 15.1046 9 14 9H13Z" fill="#CED0D6"/>
<path d="M16 13H15V14C15 14.5523 14.5523 15 14 15H13V16H14C15.1046 16 16 15.1046 16 14V13Z" fill="#CED0D6"/>
<path d="M12 16V15H11C10.4477 15 10 14.5523 10 14V13H9V14C9 15.1046 9.89543 16 11 16H12Z" fill="#CED0D6"/>
</svg>
