<svg width="16" height="16" viewBox="0 0 16 16" fill="none" xmlns="http://www.w3.org/2000/svg">
<path fill-rule="evenodd" clip-rule="evenodd" d="M15.3798 12.7117C15.5435 12.8691 15.5436 13.131 15.3799 13.2884L12.6774 15.8876C12.4232 16.132 12 15.9519 12 15.5993L12 10.4038C12 10.0513 12.423 9.87118 12.6772 10.1154L15.3798 12.7117Z" fill="#57965C"/>
<path fill-rule="evenodd" clip-rule="evenodd" d="M7.62255 13.2883C7.45909 13.1309 7.45916 12.8692 7.62271 12.7119L10.3216 10.1163C10.5757 9.87185 10.9989 10.0519 10.9989 10.4045V15.5986C10.9989 15.9514 10.5755 16.1314 10.3214 15.8868L7.62255 13.2883Z" fill="#DB5C5C"/>
<path d="M8.05553 1C3.71741 3.4758 1.02469 8.11458 1 13.1529C3.20839 14.3698 5.60388 14.9744 7.95735 14.9992L6.92897 14.0091C6.90634 13.9873 6.88462 13.9649 6.86378 13.9421C5.22321 13.7892 3.57788 13.3324 2.01658 12.5567C2.23083 8.30287 4.48713 4.42364 8.05004 2.16981C10.7047 3.88412 12.6181 6.5051 13.4836 9.50362L14.797 10.7653C14.1016 6.69982 11.6581 3.10102 8.05553 1Z" fill="white"/>
<path fill-rule="evenodd" clip-rule="evenodd" d="M10.5722 9.00237C10.847 8.3101 10.9962 7.56175 11 6.79162C9.05475 5.71968 6.77077 5.75637 5.00063 6.78047L5 6.79576C5.00215 8.68971 5.88458 10.4562 7.3545 11.5829L9.6284 9.39597C9.90628 9.12872 10.242 9.00648 10.5722 9.00237ZM9.95995 7.40004C8.65087 6.86116 7.23298 6.87834 6.03456 7.38144C6.19443 8.7458 6.90066 9.98307 7.9818 10.8036C9.07063 9.99312 9.7878 8.76244 9.95995 7.40004Z" fill="white"/>
</svg>
