<svg width="16" height="16" viewBox="0 0 16 16" fill="none" xmlns="http://www.w3.org/2000/svg">
<path d="M8.5 8C8.77614 8 9 8.22386 9 8.5V9.326L9.181 9.16238C9.90358 8.44447 10.9005 8 12.0002 8C13.1046 8 14.1053 8.44826 14.8286 9.17157C15.1887 9.5316 15.4806 9.96029 15.6831 10.4368C15.8159 10.7493 15.9101 11.0822 15.9597 11.4292C15.9988 11.7026 15.8089 11.9559 15.5356 11.995C15.2622 12.0341 15.0089 11.8442 14.9698 11.5708C14.9326 11.3108 14.8621 11.0617 14.7627 10.8279C14.6111 10.4711 14.3922 10.1493 14.1215 9.87868C13.5781 9.33524 12.8288 9 12.0002 9C11.1716 9 10.4223 9.33524 9.87888 9.87868L9.86997 9.88759L9.74562 10H10.5C10.7761 10 11 10.2239 11 10.5C11 10.7761 10.7761 11 10.5 11H8.5C8.22386 11 8 10.7761 8 10.5V8.5C8 8.22386 8.22386 8 8.5 8Z" fill="#3574F0"/>
<path d="M8.46491 12.005C8.73827 11.9659 8.99157 12.1558 9.03067 12.4292C9.12449 13.0851 9.43079 13.6732 9.87894 14.1213C10.4224 14.6648 11.1717 15 12.0003 15C12.8288 15 13.5781 14.6648 14.1216 14.1213L14.1305 14.1124L14.2487 14H13.5C13.2239 14 13 13.7761 13 13.5C13 13.2239 13.2239 13 13.5 13H15.5C15.7761 13 16 13.2239 16 13.5V15.5C16 15.7761 15.7761 16 15.5 16C15.2239 16 15 15.7761 15 15.5V14.6657L14.8241 14.833C14.1011 15.5536 13.1024 16 12.0003 16C10.8958 16 9.89515 15.5517 9.17184 14.8284C8.57574 14.2323 8.16618 13.4477 8.04075 12.5708C8.00165 12.2974 8.19155 12.0441 8.46491 12.005Z" fill="#3574F0"/>
<path d="M8.05553 1C3.71741 3.4758 1.02469 8.11458 1 13.1529C3.22165 14.3771 5.63265 14.9817 7.99973 14.9996C7.76513 14.687 7.56604 14.3457 7.40876 13.9817C5.58882 13.8865 3.75086 13.4183 2.01658 12.5567C2.23083 8.30287 4.48713 4.42364 8.05004 2.16981C9.94139 3.39118 11.4564 5.07276 12.4844 7.02321C12.921 7.06527 13.3414 7.16358 13.738 7.31067C12.5565 4.70403 10.5937 2.48027 8.05553 1Z" fill="#39207C"/>
<path d="M10.9906 7.10221C10.9963 6.99913 10.9995 6.89557 11 6.79162C9.05475 5.71968 6.77077 5.75637 5.00063 6.78047L5 6.79576C5.00215 8.68816 5.88314 10.4533 7.35089 11.5801C7.36678 11.5596 7.3832 11.5396 7.40012 11.5199C7.15182 11.2523 7 10.8939 7 10.5V9.81244C6.47679 9.11025 6.13902 8.27297 6.03456 7.38144C6.73884 7.08578 7.51891 6.95794 8.30815 7.01215C8.37097 7.00413 8.435 7 8.5 7C8.71909 7 8.92722 7.04697 9.11485 7.1314C9.39936 7.19634 9.68211 7.28567 9.95995 7.40004C9.95842 7.41217 9.95684 7.42428 9.95522 7.43639C10.2831 7.28924 10.6298 7.17629 10.9906 7.10221Z" fill="#39207C"/>
</svg>
