<svg width="16" height="16" viewBox="0 0 16 16" fill="none" xmlns="http://www.w3.org/2000/svg">
<circle cx="8" cy="8" r="6.5" fill="#FFF7F7" stroke="#DB3B4B"/>
<path d="M10.0657 5.24609C9.25361 5.24609 8.636 5.64767 8.29593 6.31574C8.00368 5.64294 7.40552 5.24609 6.6071 5.24609C5.84915 5.24609 5.28147 5.60983 4.96189 6.24898V5.37224H4V10.7546H4.99869V7.59038C4.99869 6.68105 5.5138 6.10812 6.32852 6.10812C7.0749 6.10812 7.50591 6.61797 7.50591 7.43795V10.7546H8.49409V7.59038C8.49409 6.68105 9.01971 6.10812 9.82392 6.10812C10.5756 6.10812 11.0013 6.61797 11.0013 7.43795V10.7546H12V7.3591C12 6.07132 11.2168 5.24609 10.0657 5.24609Z" fill="#DB3B4B"/>
</svg>
