<svg width="16" height="16" viewBox="0 0 16 16" fill="none" xmlns="http://www.w3.org/2000/svg">
<path d="M7 14.9285V1.07031C3.60771 1.55554 1 4.47295 1 7.99942C1 11.5259 3.60771 14.4433 7 14.9285Z" fill="#EDF3FF"/>
<path d="M9 14.9285C12.3923 14.4433 15 11.5259 15 7.99942C15 4.47295 12.3923 1.55554 9 1.07031V14.9285Z" fill="#FFFAEB"/>
<path d="M7 2.08238C4.16229 2.55846 2 5.02643 2 7.99942C2 10.9724 4.16229 13.4404 7 13.9165V14.9285C3.60771 14.4433 1 11.5259 1 7.99942C1 4.47295 3.60771 1.55554 7 1.07031V2.08238Z" fill="#3574F0"/>
<path d="M9 14.9285C12.3923 14.4433 15 11.5259 15 7.99942C15 4.47295 12.3923 1.55554 9 1.07031V2.08238C11.8377 2.55846 14 5.02643 14 7.99942C14 10.9724 11.8377 13.4404 9 13.9165V14.9285Z" fill="#C27D04"/>
<path fill-rule="evenodd" clip-rule="evenodd" d="M8.14645 4.64645C8.34171 4.45118 8.65829 4.45118 8.85355 4.64645L11.8536 7.64645C12.0488 7.84171 12.0488 8.15829 11.8536 8.35355L8.85355 11.3536C8.65829 11.5488 8.34171 11.5488 8.14645 11.3536C7.95118 11.1583 7.95118 10.8417 8.14645 10.6464L10.2929 8.49998H4.5C4.22386 8.49998 4 8.27612 4 7.99998C4 7.72384 4.22386 7.49998 4.5 7.49998H10.2929L8.14645 5.35355C7.95118 5.15829 7.95118 4.84171 8.14645 4.64645Z" fill="#6C707E"/>
</svg>
