<svg width="16" height="16" viewBox="0 0 16 16" fill="none" xmlns="http://www.w3.org/2000/svg">
<path d="M11 2C10.4477 2 10 2.44772 10 3V6C10 6.55228 10.4477 7 11 7H14C14.5523 7 15 6.55228 15 6V3C15 2.44772 14.5523 2 14 2H11Z" fill="#25324D"/>
<path d="M1 8C1 7.44772 1.44772 7 2 7H7C7.55228 7 8 7.44772 8 8V13C8 13.5523 7.55228 14 7 14H2C1.44772 14 1 13.5523 1 13V8Z" fill="#25324D"/>
<path d="M10 10C10 9.44772 10.4477 9 11 9H14C14.5523 9 15 9.44772 15 10V13C15 13.5523 14.5523 14 14 14H11C10.4477 14 10 13.5523 10 13V10Z" fill="#25324D"/>
<path fill-rule="evenodd" clip-rule="evenodd" d="M11 2C10.4477 2 10 2.44772 10 3V4H5C4.44772 4 4 4.44772 4 5V7H2C1.44772 7 1 7.44772 1 8V13C1 13.5523 1.44772 14 2 14H7C7.55228 14 8 13.5523 8 13V12H10V13C10 13.5523 10.4477 14 11 14H14C14.5523 14 15 13.5523 15 13V10C15 9.44772 14.5523 9 14 9H11C10.4477 9 10 9.44772 10 10V11H8V8C8 7.44772 7.55228 7 7 7H5V5H10V6C10 6.55228 10.4477 7 11 7H14C14.5523 7 15 6.55228 15 6V3C15 2.44772 14.5523 2 14 2H11ZM14 3H11V6H14V3ZM2 8H7V13H2L2 8ZM14 10H11V13H14V10Z" fill="#548AF7"/>
</svg>
