<svg width="16" height="16" viewBox="0 0 16 16" fill="none" xmlns="http://www.w3.org/2000/svg">
<path d="M8.00275 15.8925C7.7914 15.8925 7.58149 15.8371 7.39619 15.7304L5.46549 14.5873C5.17713 14.4261 5.31784 14.369 5.41295 14.3362C5.79744 14.2015 5.87546 14.1711 6.28587 13.9381C6.329 13.9135 6.38546 13.9222 6.42961 13.9482L7.56753 14.6235L8.67565 15.6904L8.61162 15.7273C8.42633 15.8345 8.21642 15.8895 8.00217 15.8895L8.00275 15.8925Z" fill="#369650"/>
<path d="M15 10.9602V4.66024C15 4.22595 14.7669 3.82206 14.3934 3.60637L8.61162 0.265243C8.24827 0.0582327 7.76187 0.0582327 7.39562 0.265243L1.60656 3.60492C1.23162 3.81917 1 4.2245 1 4.65879V11.3324C1 11.7652 1.23162 12.1705 1.60656 12.3877L3.12367 13.262C3.85906 13.6239 4.12253 13.6239 4.45693 13.6239C5.5441 13.6239 6.16948 12.9653 6.16948 11.8188V5.22916C6.16948 5.13506 6.0942 5.06268 6.003 5.06268H5.2705C5.1764 5.06268 5.10257 5.13506 5.10257 5.22916V11.8159C5.10257 12.3254 4.57709 12.8321 3.7172 12.4021L2.13349 11.4872C2.07848 11.4568 2.04374 11.396 2.04374 11.3324V4.65879C2.04374 4.5951 2.07935 4.53285 2.13537 4.501L7.91517 1.16567C7.96873 1.13382 8.03966 1.13382 8.09323 1.16567L13.8742 4.501C13.9289 4.5343 13.9636 4.59365 13.9636 4.66024V9.96453L15 10.9602Z" fill="#369650"/>
<path d="M12.6462 9.02154C12.515 8.01415 11.6701 7.71683 10.0426 7.5008C8.24757 7.26339 8.06517 7.14034 8.06517 6.71908C8.06517 6.37165 8.22006 5.90841 9.55043 5.90841C10.7389 5.90841 11.1761 6.16464 11.3571 6.96517C11.373 7.04045 11.441 7.09546 11.5192 7.09546H12.2705C12.3168 7.09546 12.3617 7.07519 12.3936 7.0419C12.4254 7.00715 12.4428 6.96083 12.4384 6.91306C12.3226 5.53202 11.4048 4.88928 9.55333 4.88928C7.90448 4.88928 6.92009 5.58414 6.92009 6.75093C6.92009 8.0176 7.89869 8.36648 9.48239 8.52282C10.7112 8.64307 11.2048 8.80174 11.3998 9H12.2126L12.418 9.00107C12.494 9.00154 12.5703 9.00825 12.6462 9.02154Z" fill="#369650"/>
<path d="M7.96312 10.9971C6.97968 10.5891 6.72799 9.8292 6.72799 9.15818C6.72799 9.06554 6.80269 8.99171 6.89548 8.99171H7.64246C7.72497 8.99171 7.79446 9.05178 7.80749 9.13328C7.89019 9.69079 8.09249 10.0459 8.79606 10.196L7.96312 10.9971Z" fill="#369650"/>
<path fill-rule="evenodd" clip-rule="evenodd" d="M15.3798 12.7117C15.5435 12.8691 15.5436 13.131 15.3799 13.2884L12.6774 15.8876C12.4232 16.132 12 15.9519 12 15.5993L12 10.4038C12 10.0513 12.423 9.87118 12.6772 10.1154L15.3798 12.7117Z" fill="#55A76A"/>
<path fill-rule="evenodd" clip-rule="evenodd" d="M7.62255 13.2883C7.45909 13.1309 7.45916 12.8692 7.62271 12.7119L10.3216 10.1163C10.5757 9.87185 10.9989 10.0519 10.9989 10.4045V15.5986C10.9989 15.9514 10.5755 16.1314 10.3214 15.8868L7.62255 13.2883Z" fill="#E55765"/>
</svg>
