<svg width="16" height="16" viewBox="0 0 16 16" fill="none" xmlns="http://www.w3.org/2000/svg">
<path d="M12.99 13.545C12.99 13.3317 13.0283 13.1433 13.105 12.98C13.1817 12.8133 13.2733 12.67 13.38 12.55C13.4867 12.43 13.63 12.29 13.81 12.13C13.9833 11.97 14.12 11.835 14.22 11.725C14.32 11.615 14.4033 11.485 14.47 11.335C14.54 11.185 14.575 11.0167 14.575 10.83C14.575 10.6267 14.53 10.4467 14.44 10.29C14.3533 10.1333 14.2317 10.0117 14.075 9.925C13.9217 9.835 13.745 9.79 13.545 9.79C13.3217 9.79 13.1233 9.84 12.95 9.94C12.7767 10.0367 12.6433 10.1733 12.55 10.35C12.46 10.5233 12.415 10.725 12.415 10.955H11.375C11.375 10.5417 11.465 10.1783 11.645 9.865C11.8283 9.54834 12.0833 9.305 12.41 9.135C12.74 8.965 13.1217 8.88 13.555 8.88C13.9717 8.88 14.3367 8.96 14.65 9.12C14.9633 9.27667 15.205 9.49834 15.375 9.785C15.545 10.0683 15.6283 10.3983 15.625 10.775C15.625 11.065 15.5783 11.3183 15.485 11.535C15.395 11.7517 15.285 11.9333 15.155 12.08C15.025 12.2267 14.8567 12.39 14.65 12.57C14.4967 12.7033 14.375 12.8167 14.285 12.91C14.1983 13.0033 14.1267 13.1067 14.07 13.22C14.0133 13.3333 13.985 13.4583 13.985 13.595V13.785H12.99V13.545ZM12.885 14.755H14.13V16H12.885V14.755Z" fill="#6C707E"/>
<path d="M4 5.8975V2.90498L12 2.10498V5.0975L4 5.8975Z" fill="#FFF7F7"/>
<path d="M4 6.90249L12 6.10249V8.22184C11.984 8.22975 11.968 8.23781 11.952 8.24602L11.9484 8.24794C11.5082 8.47701 11.1462 8.80102 10.875 9.21L4 9.8975V6.90249Z" fill="#FFF7F7"/>
<path d="M10.4434 10.2582L4 10.9025V13.895L11.9227 13.1027C11.9411 12.9989 11.9666 12.8958 12 12.7939V11.9961H10.375V10.955C10.375 10.7179 10.397 10.4848 10.4434 10.2582Z" fill="#FFF7F7"/>
<path fill-rule="evenodd" clip-rule="evenodd" d="M11.885 14.1115L4.09951 14.89C3.51082 14.9489 3 14.4866 3 13.895V2.90496C3 2.3912 3.38929 1.96104 3.9005 1.90992L11.9005 1.10992C12.4892 1.05105 13 1.51333 13 2.10496V7.91805C12.6515 7.96736 12.3159 8.06599 12 8.22184V6.10246L4 6.90246L4 9.89747L10.875 9.20997C10.8419 9.26003 10.81 9.31137 10.7796 9.36397L10.7779 9.36688C10.6165 9.64782 10.507 9.94695 10.4434 10.2581L4 10.9025L4 13.895L11.9227 13.1027C11.8968 13.2496 11.885 13.3977 11.885 13.545V14.1115ZM4 5.89747L4 2.90496L12 2.10496V5.09747L4 5.89747Z" fill="#DB3B4B"/>
</svg>
