<svg width="16" height="16" viewBox="0 0 16 16" fill="none" xmlns="http://www.w3.org/2000/svg">
<path d="M15.7673 10.5015C14.8426 9.81209 13.3803 9.20072 11.9994 9.20072C10.6133 9.20072 9.15571 9.81011 8.23268 10.4995C8.10783 10.5927 7.93753 10.4645 8.02316 10.3342C8.43197 9.71196 9.03954 9.07293 9.56039 8.72801C10.2761 8.25407 11.1273 8 11.9994 8C12.8715 8 13.7227 8.25407 14.4384 8.72801C14.9598 9.07327 15.5681 9.71324 15.9769 10.336C16.0624 10.4663 15.8921 10.5946 15.7673 10.5015Z" fill="#E66D17"/>
<path d="M8.23274 13.4985C9.15736 14.1879 10.6197 14.7993 12.0006 14.7993C13.3867 14.7993 14.8443 14.1899 15.7673 13.5005C15.8922 13.4073 16.0625 13.5355 15.9768 13.6658C15.568 14.288 14.9605 14.9271 14.4396 15.272C13.7239 15.7459 12.8727 16 12.0006 16C11.1285 16 10.2773 15.7459 9.56156 15.272C9.0402 14.9267 8.43194 14.2868 8.02312 13.664C7.93758 13.5337 8.10787 13.4054 8.23274 13.4985Z" fill="#E66D17"/>
<path fill-rule="evenodd" clip-rule="evenodd" d="M3 3.60275C3 3.50293 3.05102 3.35087 3.2675 3.15519C3.48396 2.95953 3.82523 2.7604 4.28947 2.58291C5.21452 2.22925 6.52624 2 8 2C9.47376 2 10.7855 2.22925 11.7105 2.58291C12.1748 2.7604 12.516 2.95953 12.7325 3.15519C12.949 3.35087 13 3.50293 13 3.60275C13 3.70256 12.949 3.85463 12.7325 4.05031C12.516 4.24597 12.1748 4.4451 11.7105 4.62258C10.7855 4.97625 9.47376 5.2055 8 5.2055C6.52624 5.2055 5.21452 4.97625 4.28947 4.62258C3.82523 4.4451 3.48396 4.24597 3.2675 4.05031C3.05102 3.85463 3 3.70256 3 3.60275ZM13.4031 2.41334C13.6924 2.67483 13.9214 3.00406 13.9834 3.39248H14V3.60275V6.54659V7.41604C13.5843 7.2344 13.1391 7.10766 12.6735 7.04498C12.6941 7.02802 12.7138 7.01107 12.7325 6.99415C12.949 6.79847 13 6.64641 13 6.54659V5.09723C12.7276 5.27221 12.4117 5.42512 12.0676 5.55665C11.0021 5.96403 9.56381 6.2055 8 6.2055C6.43619 6.2055 4.99792 5.96403 3.93236 5.55665C3.58833 5.42512 3.27236 5.27221 3 5.09723V6.54659C3 6.64641 3.05102 6.79847 3.2675 6.99415C3.48396 7.18981 3.82523 7.38894 4.28947 7.56643C5.21452 7.92009 6.52624 8.14934 8 8.14934C8.28709 8.14934 8.56803 8.14064 8.84116 8.12402C8.47913 8.41942 8.15926 8.76454 7.89197 9.14895C6.37002 9.13811 4.97333 8.89847 3.93236 8.50049C3.58833 8.36896 3.27236 8.21605 3 8.04108V9.49045C3 9.59026 3.05102 9.74233 3.2675 9.938C3.48396 10.1337 3.82523 10.3328 4.28947 10.5103C5.01861 10.789 5.98799 10.9905 7.08759 11.0633C7.03009 11.3668 7 11.6799 7 12C7 12.0199 7.00012 12.0398 7.00035 12.0597C5.8284 11.9804 4.76625 11.7632 3.93236 11.4443C3.58833 11.3128 3.27236 11.1599 3 10.9849V12.4343C3 12.5341 3.05102 12.6862 3.2675 12.8818C3.48396 13.0775 3.82523 13.2766 4.28947 13.4541C5.09281 13.7613 6.18777 13.9746 7.42722 14.0254C7.58773 14.3872 7.78991 14.7265 8.0277 15.037C8.01847 15.037 8.00924 15.037 8 15.037C6.43619 15.037 4.99792 14.7956 3.93236 14.3882C3.40129 14.1852 2.9371 13.9312 2.59694 13.6237C2.27682 13.3343 2.03053 12.962 2.00264 12.5184H2V12.4343V9.49045V6.54659V3.60275V3.39248H2.01664C2.07865 3.00406 2.30764 2.67483 2.59694 2.41334C2.9371 2.10586 3.40129 1.85189 3.93236 1.64885C4.99792 1.24147 6.43619 1 8 1C9.56381 1 11.0021 1.24147 12.0676 1.64885C12.5987 1.85189 13.0629 2.10586 13.4031 2.41334Z" fill="#6C707E"/>
</svg>
