<svg width="16" height="16" viewBox="0 0 16 16" fill="none" xmlns="http://www.w3.org/2000/svg">
<g clip-path="url(#clip0_9855_15254)">
<path d="M12 15.5L8.5 14V10L12 8.5L15.5 10V14L12 15.5Z" fill="#EBECF0"/>
<path d="M12 15.5L8.5 14V10M12 15.5L15.5 14V10M12 15.5V11.5M8.5 10L12 11.5M8.5 10L12 8.5L15.5 10M12 11.5L15.5 10" stroke="#6C707E" stroke-linejoin="round"/>
</g>
<path d="M3.60505 8.85501C3.87005 9.08501 3.99755 9.39251 3.98755 9.77751L3.95755 11.57C3.95255 12.06 4.05755 12.4875 4.27255 12.8525C4.49255 13.2225 4.80255 13.505 5.20255 13.7C5.60755 13.9 6.07755 14 6.61255 14H7V12.995H6.62005C6.14505 12.995 5.76755 12.8625 5.48755 12.5975C5.21255 12.3375 5.08005 11.9875 5.09005 11.5475L5.12005 9.77001C5.13005 9.30501 4.99255 8.91001 4.70755 8.58501C4.42255 8.25501 4.03755 8.04501 3.55255 7.95501C4.03755 7.92001 4.42255 7.74251 4.70755 7.42251C4.99255 7.09751 5.13005 6.68001 5.12005 6.17001L5.09005 4.6025C5.08505 4.1125 5.23255 3.725 5.53255 3.44C5.83755 3.15 6.25005 3.005 6.77005 3.005H7.5V2H6.76255C6.18755 2 5.68755 2.105 5.26255 2.315C4.83755 2.525 4.51005 2.825 4.28005 3.215C4.05505 3.605 3.94755 4.06 3.95755 4.58L3.98755 6.16251C3.99755 6.54751 3.87005 6.85501 3.60505 7.08501C3.34005 7.31501 2.98255 7.43001 2.53255 7.43001H2V8.51001H2.53255C2.98255 8.51001 3.34005 8.62501 3.60505 8.85501Z" fill="#834DF0"/>
<path d="M12.3492 7.04121C12.0376 6.96661 11.7077 6.9933 11.4091 7.12128L11.151 7.23189C10.9636 6.93927 10.8739 6.58531 10.882 6.17001L10.912 4.6025C10.917 4.1125 10.767 3.725 10.462 3.44C10.162 3.15 9.75205 3.005 9.23205 3.005H8.5V2H9.23955C9.81455 2 10.3145 2.105 10.7395 2.315C11.1645 2.525 11.4895 2.825 11.7145 3.215C11.9445 3.605 12.0545 4.06 12.0445 4.58L12.0145 6.16251C12.0052 6.52357 12.1167 6.81647 12.3492 7.04121Z" fill="#834DF0"/>
<defs>
<clipPath id="clip0_9855_15254">
<rect width="8" height="8" fill="white" transform="translate(8 8)"/>
</clipPath>
</defs>
</svg>
