<svg width="14" height="14" viewBox="0 0 14 14" fill="none" xmlns="http://www.w3.org/2000/svg">
<circle cx="7" cy="7" r="6.5" fill="#FFF4EB" stroke="#E66D17"/>
<path d="M7.16182 4C7.61415 4 8.01282 4.08242 8.35782 4.24725C8.70665 4.41208 8.9769 4.65358 9.16857 4.97175C9.36024 5.28608 9.45607 5.65792 9.45607 6.08725V10.026H8.42682V7.82375H8.69132C8.69132 8.31058 8.60507 8.73033 8.43257 9.083C8.2639 9.43183 8.02049 9.70017 7.70232 9.888C7.38415 10.072 7.00657 10.164 6.56957 10.164C6.19007 10.164 5.8489 10.0912 5.54607 9.9455C5.24707 9.79983 5.01132 9.59858 4.83882 9.34175C4.66632 9.08492 4.58007 8.79358 4.58007 8.46775C4.58007 8.15725 4.66057 7.87167 4.82157 7.611C4.98257 7.35033 5.2049 7.13758 5.48857 6.97275C5.77224 6.80408 6.09232 6.70058 6.44882 6.66225L8.01282 6.4955C8.13932 6.48017 8.23707 6.43033 8.30607 6.346C8.3789 6.25783 8.41532 6.1275 8.41532 5.955L8.48432 7.19125L6.63857 7.39825C6.45074 7.41742 6.28207 7.47108 6.13257 7.55925C5.9869 7.64742 5.87382 7.76433 5.79332 7.91C5.71282 8.05183 5.67257 8.209 5.67257 8.3815C5.67257 8.56933 5.7224 8.73608 5.82207 8.88175C5.92174 9.02742 6.05974 9.1405 6.23607 9.221C6.4124 9.3015 6.61557 9.34175 6.84557 9.34175C7.1599 9.34175 7.43399 9.2785 7.66782 9.152C7.90549 9.0255 8.08949 8.84725 8.21982 8.61725C8.35015 8.38725 8.41532 8.12275 8.41532 7.82375V5.9665C8.41532 5.748 8.36165 5.55633 8.25432 5.3915C8.14699 5.22283 7.99749 5.0925 7.80582 5.0005C7.61799 4.9085 7.39757 4.8625 7.14457 4.8625C6.8954 4.8625 6.66924 4.90658 6.46607 4.99475C6.26674 5.07908 6.10574 5.19408 5.98307 5.33975C5.86424 5.48158 5.7914 5.63683 5.76457 5.8055H4.71232C4.75832 5.4605 4.89057 5.15192 5.10907 4.87975C5.3314 4.60375 5.62082 4.38908 5.97732 4.23575C6.33382 4.07858 6.72865 4 7.16182 4Z" fill="#E66D17"/>
</svg>
