<svg width="16" height="16" viewBox="0 0 16 16" fill="none" xmlns="http://www.w3.org/2000/svg">
<path fill-rule="evenodd" clip-rule="evenodd" d="M12 9.94999C13.1411 9.71836 14 8.70948 14 7.5C14 6.11929 12.8807 5 11.5 5C10.1193 5 9 6.11929 9 7.5C9 8.70948 9.85888 9.71836 11 9.94999V14H12V13H14V12H12V9.94999ZM13 7.5C13 8.32843 12.3284 9 11.5 9C10.6716 9 10 8.32843 10 7.5C10 6.67157 10.6716 6 11.5 6C12.3284 6 13 6.67157 13 7.5Z" fill="#CED0D6"/>
<path d="M13.618 4.71336C13.03 4.26575 12.296 4 11.5 4C9.567 4 8 5.567 8 7.5C8 8.89683 8.81758 10.1012 10 10.6629V13.3264C9.09074 13.7583 8.0736 14 7 14C3.13401 14 0 10.866 0 7C0 3.13401 3.13401 0 7 0C10.0653 0 12.6704 1.97021 13.618 4.71336Z" fill="#45322B"/>
<path d="M10 13.3264C9.09074 13.7583 8.0736 14 7 14C3.13401 14 0 10.866 0 7C0 3.13401 3.13401 0 7 0C10.0653 0 12.6704 1.97021 13.618 4.71336C13.2181 4.40893 12.7507 4.18863 12.2421 4.07883C11.2164 2.24204 9.25323 1 7 1C3.68629 1 1 3.68629 1 7C1 10.3137 3.68629 13 7 13C8.09286 13 9.11748 12.7078 10 12.1973V13.3264Z" fill="#C77D55"/>
<path d="M8.35783 4.24725C8.01283 4.08242 7.61416 4 7.16183 4C6.72866 4 6.33383 4.07858 5.97733 4.23575C5.62083 4.38908 5.33141 4.60375 5.10908 4.87975C4.89058 5.15192 4.75833 5.4605 4.71233 5.8055H5.76458C5.79141 5.63683 5.86424 5.48158 5.98308 5.33975C6.10574 5.19408 6.26674 5.07908 6.46608 4.99475C6.66925 4.90658 6.89541 4.8625 7.14458 4.8625C7.39758 4.8625 7.61799 4.9085 7.80583 5.0005C7.99749 5.0925 8.14699 5.22283 8.25433 5.3915C8.34287 5.52747 8.39489 5.68169 8.41039 5.85418C8.59817 5.5024 8.84427 5.18645 9.13578 4.91924C8.94653 4.62689 8.68721 4.40289 8.35783 4.24725Z" fill="#C77D55"/>
<path d="M9.07755 10.026C8.81967 9.77872 8.59958 9.49235 8.42683 9.17636V10.026H9.07755Z" fill="#C77D55"/>
<path d="M8.40559 9.13691C8.23832 9.4596 8.00391 9.70996 7.70233 9.888C7.38416 10.072 7.00658 10.164 6.56958 10.164C6.19008 10.164 5.84891 10.0912 5.54608 9.9455C5.24708 9.79983 5.01133 9.59858 4.83883 9.34175C4.66633 9.08492 4.58008 8.79358 4.58008 8.46775C4.58008 8.15725 4.66058 7.87167 4.82158 7.611C4.98258 7.35033 5.20491 7.13758 5.48858 6.97275C5.77224 6.80408 6.09233 6.70058 6.44883 6.66225L8.01283 6.4955C8.06635 6.48901 8.11472 6.47635 8.15795 6.45751C8.07963 6.70887 8.02888 6.97239 8.00925 7.24453L6.63858 7.39825C6.45074 7.41742 6.28208 7.47108 6.13258 7.55925C5.98691 7.64742 5.87383 7.76433 5.79333 7.91C5.71283 8.05183 5.67258 8.209 5.67258 8.3815C5.67258 8.56933 5.72241 8.73608 5.82208 8.88175C5.92174 9.02742 6.05974 9.1405 6.23608 9.221C6.41241 9.3015 6.61558 9.34175 6.84558 9.34175C7.15991 9.34175 7.434 9.2785 7.66783 9.152C7.89137 9.03302 8.06743 8.86826 8.19601 8.65772C8.2541 8.82352 8.32431 8.9836 8.40559 9.13691Z" fill="#C77D55"/>
</svg>
