<svg width="16" height="16" viewBox="0 0 16 16" fill="none" xmlns="http://www.w3.org/2000/svg">
<path fill-rule="evenodd" clip-rule="evenodd" d="M14 11.95C15.1411 11.7184 16 10.7095 16 9.5C16 8.11929 14.8807 7 13.5 7C12.1193 7 11 8.11929 11 9.5C11 10.7095 11.8589 11.7184 13 11.95V16H14V15H16V14H14V11.95ZM15 9.5C15 10.3284 14.3284 11 13.5 11C12.6716 11 12 10.3284 12 9.5C12 8.67157 12.6716 8 13.5 8C14.3284 8 15 8.67157 15 9.5Z" fill="#6C707E"/>
<path d="M15 4.5C15 5.10431 14.8468 5.67284 14.5772 6.16891C14.2379 6.05925 13.8759 6 13.5 6C12.1713 6 11.0155 6.74038 10.4228 7.83109C9.01686 7.37677 8 6.05714 8 4.5C8 2.567 9.567 1 11.5 1C13.433 1 15 2.567 15 4.5Z" fill="#FFF4EB"/>
<path d="M4.5 15C6.433 15 8 13.433 8 11.5C8 9.567 6.433 8 4.5 8C2.567 8 1 9.567 1 11.5C1 13.433 2.567 15 4.5 15Z" fill="#FFF4EB"/>
<path d="M14 4.5C14 5.0628 13.814 5.58217 13.5002 6C13.876 6.00002 14.2379 6.05926 14.5772 6.16891C14.8468 5.67284 15 5.10431 15 4.5C15 2.567 13.433 1 11.5 1C9.567 1 8 2.567 8 4.5C8 6.05714 9.01686 7.37677 10.4228 7.83109C10.598 7.50872 10.8223 7.21695 11.0858 6.96585C9.90223 6.76852 9 5.73963 9 4.5C9 3.11929 10.1193 2 11.5 2C12.8807 2 14 3.11929 14 4.5Z" fill="#E66D17"/>
<path fill-rule="evenodd" clip-rule="evenodd" d="M8 11.5C8 13.433 6.433 15 4.5 15C2.567 15 1 13.433 1 11.5C1 9.567 2.567 8 4.5 8C6.433 8 8 9.567 8 11.5ZM7 11.5C7 12.8807 5.88071 14 4.5 14C3.11929 14 2 12.8807 2 11.5C2 10.1193 3.11929 9 4.5 9C5.88071 9 7 10.1193 7 11.5Z" fill="#E66D17"/>
<path d="M8.3317 3.01083C8.22206 3.00365 8.11145 3 8 3C5.23858 3 3 5.23858 3 8C3 8.11145 3.00365 8.22206 3.01083 8.3317C3.3187 8.18674 3.65112 8.08533 4.00015 8.03542C4.00005 8.02363 4 8.01182 4 8C4 5.79086 5.79086 4 8 4C8.01182 4 8.02363 4.00005 8.03542 4.00016C8.08533 3.65112 8.18674 3.3187 8.3317 3.01083Z" fill="#6C707E"/>
<path d="M7.66831 12.9892C7.81326 12.6813 7.91467 12.3489 7.96458 11.9998C7.97637 11.9999 7.98818 12 8 12C8.91318 12 9.75488 11.694 10.4282 11.1789C10.5897 11.4739 10.7926 11.743 11.0289 11.9785C10.1883 12.6194 9.13861 13 8 13C7.88855 13 7.77794 12.9964 7.66831 12.9892Z" fill="#6C707E"/>
</svg>
