<svg width="14" height="14" viewBox="0 0 14 14" fill="none" xmlns="http://www.w3.org/2000/svg">
<g clip-path="url(#clip0_8037_14397)">
<path d="M14 11.5C14 12.8807 12.8807 14 11.5 14C10.1193 14 9 12.8807 9 11.5C9 10.1193 10.1193 9 11.5 9C12.8807 9 14 10.1193 14 11.5Z" fill="#E66D17"/>
<path fill-rule="evenodd" clip-rule="evenodd" d="M1 2.39246H1.01664C1.07865 2.00405 1.30765 1.67483 1.59694 1.41334C1.9371 1.10586 2.40129 0.851887 2.93236 0.648849C3.99792 0.241467 5.43619 0 7 0C8.56381 0 10.0021 0.241467 11.0676 0.648849C11.5987 0.851887 12.0629 1.10586 12.4031 1.41334C12.6924 1.67483 12.9213 2.00405 12.9834 2.39246H13V8.33682C12.6891 8.18915 12.3531 8.08595 12 8.03544V7.04112C11.7276 7.21609 11.4117 7.369 11.0676 7.50053C10.0021 7.90791 8.56381 8.14938 7 8.14938C5.43619 8.14938 3.99792 7.90791 2.93236 7.50053C2.58833 7.369 2.27236 7.21609 2 7.04112V8.49048C2 8.59029 2.05102 8.74236 2.2675 8.93804C2.48396 9.1337 2.82523 9.33283 3.28947 9.51031C4.21452 9.86398 5.52624 10.0932 7 10.0932C7.45893 10.0932 7.90215 10.071 8.32288 10.0297C8.17476 10.3492 8.07342 10.6949 8.02767 11.0578C7.69323 11.0811 7.34976 11.0932 7 11.0932C5.43619 11.0932 3.99792 10.8518 2.93236 10.4444C2.58833 10.3128 2.27236 10.1599 2 9.98496V11.4343C2 11.5341 2.05102 11.6862 2.2675 11.8819C2.48396 12.0775 2.82523 12.2767 3.28947 12.4542C4.21452 12.8078 5.52624 13.0371 7 13.0371C7.45946 13.0371 7.90317 13.0148 8.32432 12.9734C8.48452 13.3181 8.69918 13.6323 8.95725 13.9051C8.34254 13.991 7.68325 14.0371 7 14.0371C5.43619 14.0371 3.99792 13.7956 2.93236 13.3882C2.40129 13.1852 1.9371 12.9312 1.59694 12.6237C1.2768 12.3344 1.03051 11.9621 1.00263 11.5184H1V2.39246ZM2 2.60275C2 2.50293 2.05102 2.35087 2.2675 2.15519C2.48396 1.95953 2.82523 1.7604 3.28947 1.58291C4.21452 1.22925 5.52624 1 7 1C8.47376 1 9.78548 1.22925 10.7105 1.58291C11.1748 1.7604 11.516 1.95953 11.7325 2.15519C11.949 2.35087 12 2.50293 12 2.60275C12 2.70256 11.949 2.85463 11.7325 3.05031C11.516 3.24597 11.1748 3.4451 10.7105 3.62258C9.78548 3.97625 8.47376 4.2055 7 4.2055C5.52624 4.2055 4.21452 3.97625 3.28947 3.62258C2.82523 3.4451 2.48396 3.24597 2.2675 3.05031C2.05102 2.85463 2 2.70256 2 2.60275ZM2 5.54663V4.09723C2.27236 4.27221 2.58833 4.42512 2.93236 4.55665C3.99792 4.96403 5.43619 5.2055 7 5.2055C8.56381 5.2055 10.0021 4.96403 11.0676 4.55665C11.4117 4.42512 11.7276 4.27221 12 4.09723V5.54663C12 5.64645 11.949 5.79851 11.7325 5.99419C11.516 6.18985 11.1748 6.38898 10.7105 6.56647C9.78548 6.92013 8.47376 7.14938 7 7.14938C5.52624 7.14938 4.21452 6.92013 3.28947 6.56647C2.82523 6.38898 2.48396 6.18985 2.2675 5.99419C2.05102 5.79851 2 5.64645 2 5.54663Z" fill="#6C707E"/>
</g>
<defs>
<clipPath id="clip0_8037_14397">
<rect width="14" height="14" fill="white"/>
</clipPath>
</defs>
</svg>
