<svg width="16" height="16" viewBox="0 0 16 16" fill="none" xmlns="http://www.w3.org/2000/svg">
<path d="M7.99225 14.9998C7.99205 14.9998 7.99245 14.9998 7.99225 14.9998L7.99284 3.70623C8.72778 3.7099 9.4598 3.80044 10.1734 3.97604L10.5879 2.53582C10.4641 2.46544 10.361 2.36374 10.289 2.24094C10.2169 2.11814 10.1785 1.97856 10.1774 1.83621C10.1828 1.61571 10.2742 1.40605 10.4321 1.252C10.5901 1.09795 10.802 1.01172 11.0227 1.01172C11.2434 1.01172 11.4553 1.09795 11.6132 1.252C11.7712 1.40605 11.8626 1.61571 11.8679 1.83621C11.8648 2.04341 11.784 2.24191 11.6415 2.39246C11.4991 2.543 11.3053 2.63464 11.0984 2.64926L10.6769 4.11696C12.2764 4.62168 13.9984 5.74557 13.9984 8.2492C13.9864 11.7438 9.10724 14.9998 7.99225 14.9998Z" fill="#A36B4E"/>
<path d="M9.50445 11.3022C8.55445 9.83298 8.95445 6.41336 11.4409 5.92462C11.8425 5.88134 12.2458 5.9895 12.5717 6.22791C12.8976 6.46631 13.1228 6.81777 13.2029 7.21342C13.8234 9.2533 10.1709 12.1082 9.50445 11.3022Z" fill="white"/>
<path d="M10.9973 8.15439C10.8511 8.1593 10.7096 8.20714 10.5904 8.29195C10.4712 8.37676 10.3796 8.49478 10.3271 8.6313C10.2745 8.76782 10.2633 8.91679 10.2949 9.05963C10.3264 9.20248 10.3993 9.33287 10.5045 9.43456C10.6097 9.53624 10.7424 9.60471 10.8863 9.63143C11.0301 9.65815 11.1786 9.64194 11.3133 9.58482C11.4479 9.52769 11.5628 9.43219 11.6436 9.31021C11.7243 9.18823 11.7674 9.04517 11.7673 8.89889C11.7637 8.69815 11.6805 8.50706 11.5362 8.3675C11.3919 8.22795 11.1981 8.15131 10.9973 8.15439Z" fill="#A36B4E"/>
<path d="M5.80498 4.00979L5.39348 2.51311C5.51248 2.44163 5.61106 2.34072 5.67971 2.22011C5.74837 2.0995 5.7848 1.96325 5.78548 1.82449C5.78011 1.60399 5.6887 1.39434 5.53077 1.24028C5.37284 1.08623 5.16091 1 4.94023 1C4.71955 1 4.50762 1.08623 4.34969 1.24028C4.19176 1.39434 4.10035 1.60399 4.09499 1.82449C4.09867 2.04407 4.18922 2.25326 4.34683 2.40628C4.50444 2.55931 4.71627 2.64372 4.93598 2.64104L5.34848 4.14022C3.74249 4.65544 2 5.78382 2 8.24897C2.0355 11.8125 6.87947 14.9998 7.99446 14.9998V3.70596C7.25531 3.72195 6.52053 3.82391 5.80498 4.00979Z" fill="#C77D55"/>
<path d="M6.65322 11.3025C5.98672 12.1101 2.33374 9.25362 2.95324 7.21374C3.03344 6.81752 3.259 6.4656 3.58558 6.22713C3.91217 5.98866 4.31618 5.88087 4.71823 5.92494C7.20422 6.41367 7.60621 9.8333 6.65472 11.304L6.65322 11.3025Z" fill="white"/>
<path d="M5.11453 8.17685C4.96833 8.18176 4.8268 8.2296 4.70761 8.31441C4.58842 8.39922 4.49683 8.51724 4.44428 8.65376C4.39172 8.79028 4.38051 8.93925 4.41206 9.08209C4.44361 9.22494 4.51651 9.35533 4.62168 9.45702C4.72685 9.5587 4.85962 9.62717 5.00345 9.65389C5.14727 9.68061 5.29578 9.6644 5.43045 9.60728C5.56512 9.55015 5.68 9.45465 5.76075 9.33267C5.8415 9.21069 5.88455 9.06763 5.88453 8.92135C5.88085 8.72061 5.79773 8.52952 5.65339 8.38996C5.50906 8.25041 5.31528 8.17377 5.11453 8.17685Z" fill="#C77D55"/>
</svg>
