<svg width="16" height="16" viewBox="0 0 16 16" fill="none" xmlns="http://www.w3.org/2000/svg">
<path d="M4.38955 1.74196L4.74902 1.3848C5.29982 0.843301 6.19848 0.877866 6.7029 1.45969L11.6775 7.22034C12.1123 7.72152 12.1065 8.46464 11.6659 8.96006L6.7087 14.5421C6.19849 15.1124 5.31142 15.1412 4.76642 14.5997L4.40695 14.2426C3.91993 13.7587 3.88514 12.9867 4.32578 12.4568L7.29429 8.91972C7.70013 8.43583 7.70593 7.7388 7.31169 7.24338L4.2968 3.49896C3.86775 2.9805 3.90833 2.22009 4.38955 1.74196Z" fill="#92D13D"/>
<path d="M7.28887 8.93138L4.32036 12.4684C3.87973 12.9926 3.91451 13.7703 4.40153 14.2542L4.76101 14.6114C5.306 15.1529 6.19307 15.1241 6.70328 14.5538L7.77588 13.344C8.18173 12.5491 8.40785 11.6504 8.40785 10.6999C8.40785 9.52473 8.05998 8.43596 7.4686 7.52002C7.68892 7.96935 7.63094 8.52814 7.28887 8.93138Z" fill="#49691F"/>
</svg>
