<svg width="40" height="40" viewBox="0 0 40 40" fill="none" xmlns="http://www.w3.org/2000/svg">
<path d="M11.3502 18.7509C10.0089 17.9907 8.94644 16.8206 8.31879 15.4123C7.69114 14.004 7.5313 12.4317 7.8627 10.9259C7.87508 10.8894 7.87508 10.8499 7.8627 10.8134C7.73758 10.7981 7.6107 10.8195 7.49752 10.8749C7.38433 10.9304 7.28972 11.0176 7.2252 11.1259C6.38867 12.7434 6.18124 14.6135 6.64296 16.3749C7.10468 18.1364 8.2028 19.6643 9.7252 20.6634C9.81156 20.233 10.006 19.8316 10.2903 19.497C10.5746 19.1624 10.9393 18.9057 11.3502 18.7509Z" fill="#F68E1E" stroke="#362F8A" stroke-width="0.5" stroke-miterlimit="10"/>
<path d="M26.5492 31.25H24.6367L25.4617 37.5H26.7117C26.7867 37.5006 26.8608 37.4839 26.9283 37.4511C26.9958 37.4184 27.0548 37.3705 27.1008 37.3113C27.1467 37.252 27.1784 37.1829 27.1933 37.1094C27.2082 37.0359 27.206 36.96 27.1867 36.8875L26.5492 31.25Z" fill="#362F8A" stroke="#362F8A" stroke-width="0.5" stroke-miterlimit="10"/>
<path d="M12.4996 36.6992C12.4342 36.9232 12.3001 37.121 12.1161 37.2646C11.9322 37.4081 11.7078 37.4902 11.4746 37.4992H13.8746C14.0812 37.4637 14.2738 37.3711 14.4306 37.232C14.5874 37.0928 14.7022 36.9126 14.7621 36.7117C15.2871 34.9992 15.8621 32.3867 17.1371 31.2617H14.8496C13.5746 32.3742 12.9871 34.9992 12.4996 36.6992Z" fill="#362F8A" stroke="#362F8A" stroke-width="0.5" stroke-miterlimit="10"/>
<path d="M24.9125 31.25H20.5625C21.8125 32.375 22.2875 35 22.8 36.7C22.8673 36.93 23.0071 37.1321 23.1985 37.2763C23.39 37.4204 23.6229 37.4989 23.8625 37.5H25.1125C25.1864 37.4987 25.2591 37.4806 25.325 37.447C25.3909 37.4135 25.4483 37.3654 25.4929 37.3063C25.5374 37.2473 25.568 37.179 25.5822 37.1064C25.5964 37.0338 25.594 36.959 25.575 36.8875L24.9125 31.25Z" fill="#F68E1E" stroke="#362F8A" stroke-width="0.5" stroke-miterlimit="10"/>
<path d="M10.6261 30.3887L8.90107 36.8887C8.88184 36.9612 8.87959 37.0371 8.8945 37.1106C8.90941 37.1841 8.94107 37.2532 8.98703 37.3124C9.03299 37.3717 9.09201 37.4196 9.15948 37.4523C9.22696 37.485 9.30107 37.5018 9.37607 37.5012H11.3136C11.5527 37.4981 11.7846 37.4189 11.9757 37.275C12.1668 37.1311 12.307 36.9301 12.3761 36.7012C12.8886 34.9887 13.4636 32.3762 14.7511 31.2512L10.6261 30.3887Z" fill="#F68E1E" stroke="#362F8A" stroke-width="0.5" stroke-miterlimit="10"/>
<path d="M24.425 28.7492C24.0836 27.5288 23.9153 26.2665 23.925 24.9992C23.9166 23.7321 24.0849 22.4699 24.425 21.2492C24.5964 20.3408 25.0889 19.5245 25.8125 18.9492C25.9851 18.8293 26.1898 18.764 26.4 18.7617H11.25C11.1708 18.7785 11.0948 18.8081 11.025 18.8492C9.775 19.3492 8.8875 21.7242 8.8125 24.6492C8.8125 24.6492 8.8125 25.3367 8.8125 25.3492C8.8875 28.2742 9.8125 30.6617 11.025 31.1492C11.0928 31.1969 11.1692 31.2308 11.25 31.2492H26.4C26.1898 31.2469 25.9851 31.1816 25.8125 31.0617C25.0863 30.4834 24.5936 29.6621 24.425 28.7492Z" fill="#F68E1E" stroke="#362F8A" stroke-width="0.5" stroke-miterlimit="10"/>
<path d="M26.5 20C27.2128 21.5654 27.5222 23.2843 27.4 25C27.5222 26.7157 27.2128 28.4346 26.5 30" stroke="#362F8A" stroke-width="0.5" stroke-miterlimit="10"/>
<path d="M34.3485 10.437C34.3485 9.0745 33.211 8.287 31.8485 7.937C29.8392 7.29761 27.7991 6.75943 25.736 6.3245C25.486 6.3245 25.0985 6.3245 24.6485 6.2495C23.682 5.08473 22.7766 3.8706 21.936 2.612C21.9111 2.56194 21.8728 2.51982 21.8253 2.49037C21.7778 2.46092 21.7231 2.44531 21.6672 2.44531C21.6113 2.44531 21.5566 2.46092 21.5091 2.49037C21.4616 2.51982 21.4233 2.56194 21.3985 2.612C21.1205 3.62948 20.9446 4.67213 20.8735 5.7245C20.8485 6.05319 20.8485 6.3833 20.8735 6.712L20.261 6.9745C18.683 6.16504 17.2677 5.07179 16.086 3.7495C16.0472 3.70699 15.9967 3.67707 15.9408 3.66359C15.8849 3.65011 15.8263 3.65369 15.7724 3.67388C15.7186 3.69407 15.6721 3.72992 15.6388 3.77683C15.6056 3.82373 15.5872 3.87952 15.586 3.937V4.7495C15.5828 6.99429 16.0961 9.20973 17.086 11.2245V11.5495C17.0275 12.3465 17.1463 13.1465 17.4337 13.8921C17.7212 14.6377 18.1702 15.3105 18.7485 15.862L18.811 15.9245C19.9643 16.9916 21.4772 17.5852 23.0485 17.587H27.3235C28.8653 17.6022 30.3562 17.0353 31.4985 15.9995C32.2014 15.3476 32.7963 14.5881 33.261 13.7495C33.7088 12.9428 34.0372 12.0755 34.236 11.1745C34.2888 10.9995 34.3224 10.8193 34.336 10.637V10.437H34.3485ZM32.711 11.687C32.6728 11.743 32.6228 11.79 32.5645 11.8246C32.5061 11.8591 32.4409 11.8804 32.3735 11.887H32.1235C31.5706 11.8893 31.0256 11.7563 30.536 11.4995C30.4747 11.4668 30.4214 11.4211 30.3797 11.3656C30.338 11.3101 30.309 11.2462 30.2947 11.1782C30.2804 11.1103 30.2812 11.0401 30.2969 10.9725C30.3127 10.9049 30.3431 10.8416 30.386 10.787C30.6888 10.3847 31.0741 10.0517 31.516 9.81026C31.9579 9.56883 32.4463 9.42452 32.9485 9.387C33.002 9.38532 33.0554 9.39443 33.1054 9.41378C33.1553 9.43313 33.2009 9.46233 33.2394 9.49964C33.2779 9.53695 33.3085 9.58162 33.3294 9.63098C33.3502 9.68034 33.361 9.7334 33.361 9.787C33.3451 10.4875 33.1186 11.1671 32.711 11.737V11.687Z" fill="#F68E1E" stroke="#362F8A" stroke-width="0.5" stroke-miterlimit="10"/>
<path d="M32.7116 11.7377C32.6734 11.7937 32.6234 11.8407 32.5651 11.8753C32.5068 11.9098 32.4416 11.9311 32.3741 11.9377H32.1241C31.5712 11.94 31.0262 11.807 30.5366 11.5502C30.4754 11.5175 30.422 11.4718 30.3803 11.4163C30.3387 11.3608 30.3096 11.2969 30.2953 11.2289C30.281 11.161 30.2818 11.0908 30.2976 11.0232C30.3133 10.9556 30.3437 10.8923 30.3866 10.8377C30.6895 10.4354 31.0747 10.1024 31.5167 9.86096C31.9586 9.61953 32.4469 9.47522 32.9491 9.4377C33.0027 9.43602 33.056 9.44513 33.106 9.46448C33.156 9.48383 33.2016 9.51303 33.2401 9.55034C33.2785 9.58765 33.3091 9.63232 33.33 9.68168C33.3509 9.73104 33.3616 9.7841 33.3616 9.8377C33.3359 10.5211 33.1099 11.1818 32.7116 11.7377Z" fill="#362F8A"/>
<path d="M22.5989 21.625H21.1239C21.0542 21.6363 20.9829 21.6323 20.9149 21.6133C20.8469 21.5943 20.7838 21.5607 20.7301 21.515C20.6763 21.4692 20.6331 21.4123 20.6035 21.3482C20.5739 21.2841 20.5586 21.2144 20.5586 21.1438C20.5586 21.0731 20.5739 21.0034 20.6035 20.9393C20.6331 20.8752 20.6763 20.8183 20.7301 20.7725C20.7838 20.7268 20.8469 20.6932 20.9149 20.6742C20.9829 20.6552 21.0542 20.6512 21.1239 20.6625H22.5989C22.6686 20.6512 22.7399 20.6552 22.8079 20.6742C22.8759 20.6932 22.939 20.7268 22.9927 20.7725C23.0465 20.8183 23.0897 20.8752 23.1193 20.9393C23.1489 21.0034 23.1642 21.0731 23.1642 21.1438C23.1642 21.2144 23.1489 21.2841 23.1193 21.3482C23.0897 21.4123 23.0465 21.4692 22.9927 21.515C22.939 21.5607 22.8759 21.5943 22.8079 21.6133C22.7399 21.6323 22.6686 21.6363 22.5989 21.625Z" fill="white"/>
<path d="M17.4991 21.625H16.0366C15.9223 21.6065 15.8183 21.5479 15.7432 21.4598C15.6682 21.3716 15.627 21.2596 15.627 21.1438C15.627 21.0279 15.6682 20.9159 15.7432 20.8277C15.8183 20.7396 15.9223 20.681 16.0366 20.6625H17.4991C17.5688 20.6512 17.6402 20.6552 17.7081 20.6742C17.7761 20.6932 17.8392 20.7268 17.893 20.7725C17.9467 20.8183 17.9899 20.8752 18.0195 20.9393C18.0491 21.0034 18.0645 21.0731 18.0645 21.1438C18.0645 21.2144 18.0491 21.2841 18.0195 21.3482C17.9899 21.4123 17.9467 21.4692 17.893 21.515C17.8392 21.5607 17.7761 21.5943 17.7081 21.6133C17.6402 21.6323 17.5688 21.6363 17.4991 21.625Z" fill="white"/>
<path d="M12.5989 21.625H11.1239C11.0542 21.6363 10.9829 21.6323 10.9149 21.6133C10.8469 21.5943 10.7838 21.5607 10.7301 21.515C10.6763 21.4692 10.6331 21.4123 10.6035 21.3482C10.5739 21.2841 10.5586 21.2144 10.5586 21.1438C10.5586 21.0731 10.5739 21.0034 10.6035 20.9393C10.6331 20.8752 10.6763 20.8183 10.7301 20.7725C10.7838 20.7268 10.8469 20.6932 10.9149 20.6742C10.9829 20.6552 11.0542 20.6512 11.1239 20.6625H12.5989C12.7132 20.681 12.8172 20.7396 12.8923 20.8277C12.9674 20.9159 13.0086 21.0279 13.0086 21.1438C13.0086 21.2596 12.9674 21.3716 12.8923 21.4598C12.8172 21.5479 12.7132 21.6065 12.5989 21.625Z" fill="white"/>
<path d="M21.9742 2.65071C21.9516 2.60002 21.9147 2.55696 21.8682 2.52675C21.8216 2.49654 21.7672 2.48047 21.7117 2.48047C21.6562 2.48047 21.6019 2.49654 21.5553 2.52675C21.5087 2.55696 21.4719 2.60002 21.4492 2.65071C21.1474 3.99924 20.9593 5.37072 20.8867 6.75071C22.091 6.33483 23.3645 6.15654 24.6367 6.22571C23.6502 5.11112 22.7595 3.9152 21.9742 2.65071Z" fill="#362F8A" stroke="#362F8A" stroke-width="0.5" stroke-miterlimit="10"/>
<path d="M21.4484 18.7501C21.3822 18.7396 21.3147 18.7396 21.2484 18.7501C19.9984 19.2501 19.0984 21.6251 19.0234 24.5501V25.3126C19.0984 28.2376 20.0359 30.6251 21.2484 31.1126C21.3112 31.1608 21.3837 31.1949 21.4609 31.2126" stroke="#362F8A" stroke-width="0.5" stroke-miterlimit="10"/>
<path d="M15.9746 18.75C15.8954 18.7668 15.8194 18.7964 15.7496 18.8375C14.4996 19.3375 13.6121 21.7125 13.5371 24.6375V25.4C13.6121 28.325 14.5496 30.7125 15.7496 31.2C15.8174 31.2476 15.8938 31.2816 15.9746 31.3" stroke="#362F8A" stroke-width="0.5" stroke-miterlimit="10"/>
<path d="M26.2883 31.2512C27.5931 31.2512 28.6508 28.4418 28.6508 24.9762C28.6508 21.5106 27.5931 18.7012 26.2883 18.7012C24.9835 18.7012 23.9258 21.5106 23.9258 24.9762C23.9258 28.4418 24.9835 31.2512 26.2883 31.2512Z" stroke="#362F8A" stroke-width="0.5" stroke-miterlimit="10"/>
<path d="M27.0625 19.8377C26.9797 19.7531 26.8757 19.6922 26.7614 19.6615C26.6471 19.6307 26.5266 19.6311 26.4125 19.6627C26.2125 19.6627 26.075 19.8127 26.075 19.9252C26.0645 19.9577 26.0645 19.9927 26.075 20.0252C26.7878 21.5905 27.0972 23.3095 26.975 25.0252C27.0972 26.7408 26.7878 28.4598 26.075 30.0252C25.9875 30.1752 26.075 30.3377 26.3875 30.3877C26.4997 30.4182 26.6181 30.418 26.7302 30.3873C26.8423 30.3565 26.9441 30.2962 27.025 30.2127C27.8114 28.5935 28.1563 26.7954 28.025 25.0002C28.1591 23.2249 27.8273 21.4454 27.0625 19.8377Z" fill="#362F8A"/>
</svg>
