<svg width="16" height="16" viewBox="0 0 16 16" fill="none" xmlns="http://www.w3.org/2000/svg">
<path d="M9 7C8.44772 7 8 7.44771 8 8V13.5C8 13.7761 8.22386 14 8.5 14C8.77614 14 9 13.7761 9 13.5V8L13.5 8C13.7761 8 14 7.77614 14 7.5C14 7.22386 13.7761 7 13.5 7H9Z" fill="#3574F0"/>
<path d="M12 12H14V11H12V12Z" fill="#3574F0"/>
<path d="M12 14H14V13H12V14Z" fill="#3574F0"/>
<path fill-rule="evenodd" clip-rule="evenodd" d="M10 10C10 9.44772 10.4477 9 11 9H15C15.5523 9 16 9.44772 16 10V15C16 15.5523 15.5523 16 15 16H11C10.4477 16 10 15.5523 10 15V10ZM11 10H15V15H11V10Z" fill="#3574F0"/>
<path fill-rule="evenodd" clip-rule="evenodd" d="M12 5V4C12 3.44772 11.5523 3 11 3H7C5.13616 3 3.57006 4.27477 3.12602 6H1C0.447715 6 0 6.44772 0 7V9C0 9.55228 0.447715 10 1 10H3.12602C3.57006 11.7252 5.13616 13 7 13V12C5.34315 12 4 10.6569 4 9V7C4 5.34315 5.34315 4 7 4H11V6H15.5C15.7761 6 16 5.77614 16 5.5C16 5.22386 15.7761 5 15.5 5H12ZM3 7V9H1V7L3 7Z" fill="#6C707E"/>
</svg>
