<svg width="16" height="16" viewBox="0 0 16 16" fill="none" xmlns="http://www.w3.org/2000/svg">
<rect x="13" y="9" width="3" height="3" rx="1" fill="#548AF7"/>
<rect x="9" y="9" width="3" height="3" rx="1" fill="#F2C55C"/>
<rect x="9" y="13" width="3" height="3" rx="1" fill="#548AF7"/>
<rect x="13" y="13" width="3" height="3" rx="1" fill="#57965C"/>
<path d="M2.63333 2C1.73127 2 1 2.83574 1 3.86667V12.1333C1 13.1643 1.73127 14 2.63333 14H8V10C8 8.89543 8.89543 8 10 8H15V6C15 4.89543 14.1046 4 13 4L8.46667 4L6.84336 2.30775C6.65477 2.11115 6.39413 2 6.1217 2H2.63333Z" fill="#253627"/>
<path d="M6.1217 3L2.63333 3C2.40481 3 2 3.25841 2 3.86667V12.1333C2 12.7416 2.40481 13 2.63333 13H8V14H2.63333C1.73127 14 1 13.1643 1 12.1333V3.86667C1 2.83574 1.73127 2 2.63333 2H6.1217C6.39413 2 6.65477 2.11115 6.84336 2.30775L8.46667 4L13 4C14.1046 4 15 4.89543 15 6V8H14V6C14 5.44771 13.5523 5 13 5H8.04022L6.1217 3Z" fill="#57965C"/>
</svg>
