<svg width="16" height="16" viewBox="0 0 16 16" fill="none" xmlns="http://www.w3.org/2000/svg">
<path d="M14.759 9.82767C14.9162 9.24503 15 8.63231 15 8C15 4.13401 11.866 1 8 1C4.13401 1 1 4.13401 1 8C1 11.8639 4.13069 14.9967 7.99386 15C7.68052 14.6003 7.45755 14.2129 7.30908 13.916C7.21202 13.7219 7.12241 13.5226 7.05199 13.3171L6.94629 13L7.05199 12.6829C7.12241 12.4774 7.21202 12.2781 7.30908 12.084C7.47486 11.7525 7.73352 11.3082 8.10716 10.8598C8.86061 9.95567 10.1193 9 12.0004 9C13.1395 9 14.0503 9.35044 14.759 9.82767Z" fill="#2F2936"/>
<path d="M8.57081 5C7.72702 5 7.06335 5.37098 6.68265 5.99832V5.12281H5.7002V12H6.70312V9.52032C7.08689 10.1272 7.74186 10.4854 8.57081 10.4854C10.0291 10.4854 11.0474 9.36988 11.0474 7.74269C11.0474 6.1155 10.0291 5 8.57081 5ZM8.36101 9.5848C7.38367 9.5848 6.70312 8.8326 6.70312 7.74269C6.70312 6.65278 7.38367 5.90058 8.36101 5.90058C9.33324 5.90058 10.0036 6.65278 10.0036 7.74269C10.0036 8.8326 9.33324 9.5848 8.36101 9.5848Z" fill="#A571E6"/>
<path d="M12 14C12.5523 14 13 13.5523 13 13C13 12.4477 12.5523 12 12 12C11.4477 12 11 12.4477 11 13C11 13.5523 11.4477 14 12 14Z" fill="#CED0D6"/>
<path fill-rule="evenodd" clip-rule="evenodd" d="M12 16C9 16 8 13 8 13C8 13 9 10 12 10C15 10 16 13 16 13C16 13 15 16 12 16ZM14.9024 12.9785L14.9131 13L14.9024 13.0215C14.787 13.2525 14.6081 13.5582 14.3568 13.8598C13.8602 14.4557 13.1189 15 12 15C10.8811 15 10.1398 14.4557 9.64322 13.8598C9.39186 13.5582 9.21302 13.2525 9.09755 13.0215L9.08686 13L9.09755 12.9785C9.21302 12.7475 9.39186 12.4418 9.64322 12.1402C10.1398 11.5443 10.8811 11 12 11C13.1189 11 13.8602 11.5443 14.3568 12.1402C14.6081 12.4418 14.787 12.7475 14.9024 12.9785Z" fill="#CED0D6"/>
<path d="M13.8486 9.3454C13.9477 8.91289 14 8.46256 14 8C14 4.68629 11.3137 2 8 2C4.68629 2 2 4.68629 2 8C2 11.0883 4.3332 13.6316 7.33302 13.9633C7.48115 14.2535 7.69693 14.6212 7.99386 15C4.13069 14.9967 1 11.8639 1 8C1 4.13401 4.13401 1 8 1C11.866 1 15 4.13401 15 8C15 8.63231 14.9162 9.24503 14.759 9.82767C14.486 9.64384 14.183 9.47882 13.8486 9.3454Z" fill="#A571E6"/>
</svg>
