<svg width="16" height="16" viewBox="0 0 16 16" fill="none" xmlns="http://www.w3.org/2000/svg">
<circle cx="8" cy="8" r="6.5" fill="#FFF7F7" stroke="#DB3B4B"/>
<path d="M9 5.14584H9.99942V12.0104H9.00492L9 6.16584V5.14584ZM8.30622 10.1999C7.96962 10.3937 7.58032 10.4906 7.13832 10.4906C6.66232 10.4906 6.23732 10.3767 5.86332 10.1489C5.48932 9.91774 5.19692 9.59474 4.98612 9.17994C4.77532 8.76514 4.66992 8.29084 4.66992 7.75704C4.66992 7.22324 4.77532 6.74894 4.98612 6.33414C5.19692 5.91934 5.48762 5.59804 5.85822 5.37024C6.23222 5.13904 6.65892 5.02344 7.13832 5.02344C7.58032 5.02344 7.96962 5.12204 8.30622 5.31924C8.64282 5.51304 8.90462 5.78674 9.09162 6.14034C9.27862 6.49054 9.37552 6.89854 9.38232 7.36434H9.03552V8.14974H9.38232C9.37552 8.61554 9.27862 9.02524 9.09162 9.37884C8.90462 9.72904 8.64282 10.0027 8.30622 10.1999ZM6.49572 9.36354C6.74392 9.51654 7.02782 9.59304 7.34742 9.59304C7.67042 9.59304 7.95772 9.51654 8.20932 9.36354C8.46092 9.20714 8.65642 8.99124 8.79582 8.71584C8.93522 8.43704 9.00492 8.11744 9.00492 7.75704C9.00492 7.39664 8.93522 7.07874 8.79582 6.80334C8.65642 6.52454 8.46092 6.30864 8.20932 6.15564C7.95772 5.99924 7.67042 5.92104 7.34742 5.92104C7.02782 5.92104 6.74392 5.99924 6.49572 6.15564C6.24752 6.30864 6.05372 6.52454 5.91432 6.80334C5.77832 7.07874 5.71032 7.39664 5.71032 7.75704C5.71032 8.11744 5.77832 8.43704 5.91432 8.71584C6.05372 8.99124 6.24752 9.20714 6.49572 9.36354Z" fill="#DB3B4B"/>
</svg>
