<svg width="16" height="16" viewBox="0 0 16 16" fill="none" xmlns="http://www.w3.org/2000/svg">
<path d="M14.9899 7.62031C14.4249 7.22916 13.7392 7 13 7C11.067 7 9.5 8.567 9.5 10.5C9.5 11.614 10.0209 12.6056 10.8293 13.2456L11 14.099V14.3264C10.0907 14.7583 9.0736 15 8 15C4.13401 15 1 11.866 1 8C1 4.13401 4.13401 1 8 1C11.7386 1 14.7927 3.93088 14.9899 7.62031Z" fill="#2F2936"/>
<path d="M6.5 11V5H10.5V6H7.5V8.03933H9.99487V8.70475C9.93027 8.81264 9.87133 8.92431 9.81843 9.03933H7.5V11H6.5Z" fill="#A571E6"/>
<path d="M10.8378 13.2878C9.99286 13.7422 9.02653 14 8 14C4.68629 14 2 11.3137 2 8C2 4.68629 4.68629 2 8 2C11.0171 2 13.5141 4.22696 13.9369 7.12681C14.318 7.23243 14.6729 7.40088 14.9899 7.62031C14.7927 3.93088 11.7386 1 8 1C4.13401 1 1 4.13401 1 8C1 11.866 4.13401 15 8 15C9.0736 15 10.0907 14.7583 11 14.3264V14.099L10.8378 13.2878Z" fill="#A571E6"/>
<path d="M12 15H14V15.5C14 15.7761 13.7761 16 13.5 16H12.5C12.2239 16 12 15.7761 12 15.5V15Z" fill="#CED0D6"/>
<path fill-rule="evenodd" clip-rule="evenodd" d="M14.2691 12.6544C15.0058 12.2194 15.5 11.4174 15.5 10.5C15.5 9.11929 14.3807 8 13 8C11.6193 8 10.5 9.11929 10.5 10.5C10.5 11.4174 10.9942 12.2194 11.7309 12.6544L12 14H14L14.2691 12.6544Z" fill="#F2C55C"/>
</svg>
