<svg width="20" height="20" viewBox="0 0 20 20" fill="none" xmlns="http://www.w3.org/2000/svg">
<g clip-path="url(#clip0_15423_1432)">
<path fill-rule="evenodd" clip-rule="evenodd" d="M17.6117 2.38884C17.6141 2.78135 17.5916 3.25748 17.5159 3.78762C17.3519 4.93521 16.9421 6.32105 16.0008 7.67439C15.7033 8.10205 15.3528 8.52646 14.9401 8.93909L9.35286 14.5264C9.15905 14.7202 8.84395 14.7216 8.64724 14.5249L5.47565 11.3533C5.27894 11.1566 5.28035 10.8415 5.47415 10.6477L11.0614 5.06043C11.474 4.64789 11.8983 4.29742 12.3259 4C13.6793 3.05858 15.0653 2.64869 16.2129 2.48473C16.7431 2.40899 17.2192 2.38647 17.6117 2.38884ZM14.5008 11.4998L12.5008 13.4998V16.3787L14.3543 14.5251C14.4481 14.4314 14.5008 14.3042 14.5008 14.1716V11.4998ZM6.50052 7.5L8.50053 5.5H5.82918C5.69657 5.5 5.56939 5.55268 5.47563 5.64645L3.62207 7.5L6.50052 7.5Z" fill="#EDF3FF"/>
<path fill-rule="evenodd" clip-rule="evenodd" d="M10.0005 3.99975L5.82884 4C5.29841 4 4.7897 4.21071 4.41463 4.58579L1.28074 7.71967C0.80827 8.19214 1.1429 9 1.81107 9H5.00018L4.41316 9.58702C3.63212 10.3681 3.63361 11.6329 4.41465 12.4139L7.58624 15.5855C8.36729 16.3666 9.63214 16.3681 10.4132 15.587L11.0004 14.9998V18.1893C11.0004 18.8575 11.8083 19.1921 12.2808 18.7197L15.4146 15.5858C15.7897 15.2107 16.0004 14.702 16.0004 14.1716L16.0005 9.99975C20.0005 5.99975 19.0005 0.999748 19.0005 0.999748C19.0005 0.999748 14.0005 -9.60827e-05 10.0005 3.99975ZM17.5155 3.78762C17.5913 3.25748 17.6138 2.78135 17.6114 2.38884C17.2189 2.38647 16.7427 2.40899 16.2126 2.48473C15.0649 2.64869 13.679 3.05858 12.3256 4C11.898 4.29742 11.4736 4.6479 11.0611 5.06043L5.47381 10.6477C5.28002 10.8415 5.27861 11.1566 5.47531 11.3533L8.6469 14.5249C8.84361 14.7216 9.15871 14.7202 9.35253 14.5264L14.9398 8.93909C15.3524 8.52646 15.703 8.10205 16.0004 7.67439C16.9418 6.32105 17.3516 4.93521 17.5155 3.78762ZM12.5004 13.4998L14.5004 11.4998V14.1716C14.5004 14.3042 14.4477 14.4314 14.354 14.5251L12.5004 16.3787V13.4998ZM8.5002 5.5L6.50019 7.5L3.62174 7.5L5.47529 5.64645C5.56906 5.55268 5.69624 5.5 5.82884 5.5H8.5002Z" fill="#3574F0"/>
<path d="M3 14.0606C3.29289 13.7677 3.29289 13.2928 3 12.9999C2.70711 12.7071 2.23223 12.7071 1.93934 12.9999L1 13.9392C0.707107 14.2321 0.707107 14.707 1 14.9999C1.29289 15.2928 1.76777 15.2928 2.06066 14.9999L3 14.0606Z" fill="#3574F0"/>
<path d="M5 16.0605C5.29289 15.7677 5.29289 15.2928 5 14.9999C4.70711 14.707 4.23223 14.707 3.93934 14.9999L0.999943 17.9393C0.70705 18.2322 0.70705 18.7071 0.999943 19C1.29284 19.2929 1.76771 19.2929 2.0606 19L5 16.0605Z" fill="#3574F0"/>
<path d="M6.99989 18.0607C7.29278 17.7678 7.29278 17.2929 6.99989 17C6.70699 16.7071 6.23212 16.7071 5.93923 17L4.99989 17.9393C4.70699 18.2322 4.70699 18.7071 4.99989 19C5.29278 19.2929 5.76765 19.2929 6.06055 19L6.99989 18.0607Z" fill="#3574F0"/>
<circle cx="13.5" cy="6.5" r="1.5" fill="#3574F0"/>
</g>
<defs>
<clipPath id="clip0_15423_1432">
<rect width="20" height="20" fill="white"/>
</clipPath>
</defs>
</svg>
