<svg width="16" height="16" viewBox="0 0 16 16" fill="none" xmlns="http://www.w3.org/2000/svg">
<path d="M8.5 8C8.77614 8 9 8.22386 9 8.5V9.326L9.181 9.16238C9.90358 8.44447 10.9005 8 12.0002 8C13.1046 8 14.1053 8.44826 14.8286 9.17157C15.1887 9.5316 15.4806 9.96029 15.6831 10.4368C15.8159 10.7493 15.9101 11.0822 15.9597 11.4292C15.9988 11.7026 15.8089 11.9559 15.5356 11.995C15.2622 12.0341 15.0089 11.8442 14.9698 11.5708C14.9326 11.3108 14.8621 11.0617 14.7627 10.8279C14.6111 10.4711 14.3922 10.1493 14.1215 9.87868C13.5781 9.33524 12.8288 9 12.0002 9C11.1716 9 10.4223 9.33524 9.87888 9.87868L9.86997 9.88759L9.74562 10H10.5C10.7761 10 11 10.2239 11 10.5C11 10.7761 10.7761 11 10.5 11H8.5C8.22386 11 8 10.7761 8 10.5V8.5C8 8.22386 8.22386 8 8.5 8Z" fill="#3574F0"/>
<path d="M8.46491 12.005C8.73827 11.9659 8.99157 12.1558 9.03067 12.4292C9.12449 13.0851 9.43079 13.6732 9.87894 14.1213C10.4224 14.6648 11.1717 15 12.0003 15C12.8288 15 13.5781 14.6648 14.1216 14.1213L14.1305 14.1124L14.2487 14H13.5C13.2239 14 13 13.7761 13 13.5C13 13.2239 13.2239 13 13.5 13H15.5C15.7761 13 16 13.2239 16 13.5V15.5C16 15.7761 15.7761 16 15.5 16C15.2239 16 15 15.7761 15 15.5V14.6657L14.8241 14.833C14.1011 15.5536 13.1024 16 12.0003 16C10.8958 16 9.89515 15.5517 9.17184 14.8284C8.57574 14.2323 8.16618 13.4477 8.04075 12.5708C8.00165 12.2974 8.19155 12.0441 8.46491 12.005Z" fill="#3574F0"/>
<path d="M7.5963 1.30366C7.70872 1.24807 7.83117 1.21564 7.95636 1.20828H7.95199C8.10827 1.20197 8.26365 1.23491 8.40393 1.3041L13.272 3.62416C13.5257 3.74535 13.7117 3.97591 13.7751 4.25066L14.5708 7.71088C13.8198 7.26007 12.9398 7.00006 12.0003 7.00006C11.1625 7.00006 10.372 7.20684 9.67809 7.57131C9.40339 7.22338 8.97784 7.00006 8.50012 7.00006C7.67169 7.00006 7.00012 7.67163 7.00012 8.50006V10.5001C7.00012 10.8939 7.15194 11.2524 7.40025 11.52C7.12701 11.8369 6.98705 12.2657 7.05094 12.7125C7.16014 13.4758 7.44129 14.1827 7.85253 14.7927H5.30336C5.02161 14.794 4.7543 14.6684 4.57624 14.4497L1.20749 10.261C1.18911 10.2374 1.17161 10.2129 1.15499 10.1875C1.0128 9.97753 0.966863 9.72072 1.02374 9.47572L2.21724 4.25591C2.28068 3.98116 2.46574 3.7506 2.72036 3.62941L7.5963 1.30366Z" fill="#6C707E"/>
<path fill-rule="evenodd" clip-rule="evenodd" d="M8.02015 2.94037C8.20966 2.95963 8.351 3.12348 8.34177 3.31427V3.40497C8.33333 3.49957 8.31981 3.59295 8.30071 3.68644C8.27339 3.85607 8.26247 4.02794 8.2681 4.19967C8.27763 4.24411 8.30418 4.28348 8.34205 4.30961L8.36254 4.32376L8.3636 4.34864L8.36505 4.37169C8.36621 4.3888 8.36778 4.41218 8.36889 4.43514C9.27212 4.52701 10.1143 4.93386 10.7479 5.58313L10.8404 5.51728L10.8609 5.52079C10.9091 5.52905 10.9586 5.52424 11.0042 5.50694C11.138 5.4025 11.2614 5.286 11.3731 5.15826C11.4341 5.08553 11.4991 5.01635 11.5679 4.95105L11.571 4.94809L11.6337 4.89835C11.679 4.85353 11.7358 4.82216 11.7979 4.8078C11.861 4.79321 11.9269 4.79676 11.988 4.81804C12.0492 4.83935 12.1031 4.87755 12.1435 4.92822C12.1839 4.97888 12.2091 5.03995 12.2162 5.10435C12.2234 5.16875 12.2121 5.23385 12.1838 5.29212C12.1559 5.34942 12.1127 5.39782 12.0589 5.4319L11.9937 5.48458C11.9147 5.53712 11.8326 5.58491 11.7481 5.62809C11.5993 5.7128 11.4577 5.81179 11.327 5.92377C11.298 5.95944 11.2836 6.00484 11.2869 6.05031L11.2886 6.07433L11.199 6.15718C11.3751 6.42629 11.5154 6.71445 11.6182 7.01445C11.3246 7.03671 11.0379 7.0844 10.7605 7.15526C10.7041 7.01245 10.6366 6.87356 10.5583 6.73991L9.65783 7.54585C9.38271 7.21249 8.96635 7 8.50037 7C7.67194 7 7.00037 7.67157 7.00037 8.5V10.5C7.00037 10.699 7.0391 10.8889 7.10944 11.0626L7.10619 11.0684C7.10834 11.0691 7.1105 11.0698 7.11266 11.0705C7.18143 11.2376 7.2795 11.3895 7.40049 11.5199C7.28332 11.6558 7.19067 11.8123 7.12808 11.9819C6.97906 11.9463 6.83168 11.9016 6.68675 11.8477L6.63021 11.9507L6.60597 11.9545C6.56995 11.9601 6.53641 11.9762 6.50949 12.0008C6.46338 12.057 6.4293 12.1322 6.3967 12.2211C6.38473 12.2537 6.37269 12.289 6.36027 12.3254C6.34016 12.3844 6.31902 12.4465 6.2954 12.5051C6.27234 12.596 6.24405 12.686 6.21051 12.7742L6.20889 12.7785L6.17342 12.8506C6.15115 12.9091 6.11332 12.9604 6.06399 12.9989C6.01399 13.038 5.95415 13.0624 5.89111 13.0695C5.82821 13.0761 5.76432 13.0652 5.70725 13.0379C5.65018 13.0107 5.60176 12.9682 5.56732 12.9152C5.53288 12.8621 5.51376 12.8006 5.51209 12.7374C5.51043 12.6749 5.52589 12.6131 5.55677 12.5588L5.5951 12.4776C5.64356 12.3956 5.69687 12.3166 5.75439 12.2407C5.85415 12.0951 5.93976 11.9404 6.00998 11.779C6.01461 11.7345 6.0068 11.6898 5.98742 11.6493L5.97709 11.6277L6.02113 11.5356C5.24459 11.0645 4.6602 10.3329 4.37178 9.4712L4.26243 9.48942L4.24558 9.47739C4.20579 9.44896 4.15925 9.43186 4.11052 9.42796C3.9421 9.46013 3.77734 9.509 3.61832 9.57257C3.53161 9.6099 3.44243 9.64289 3.35169 9.66971L3.34313 9.67224L3.26025 9.68066C3.20219 9.69802 3.14051 9.69971 3.08149 9.68547C3.01963 9.67055 2.96314 9.63872 2.91833 9.59353C2.87394 9.54812 2.84276 9.49102 2.82876 9.42907C2.81475 9.36713 2.81822 9.30251 2.83876 9.24242C2.85931 9.18233 2.89613 9.12911 2.94512 9.08871C2.99412 9.0483 3.05336 9.02228 3.11627 9.01355L3.12314 9.0126L3.12632 9.01307L3.20254 8.99585C3.2969 8.98297 3.39195 8.97571 3.48716 8.97373C3.65745 8.96239 3.82625 8.93476 3.99126 8.89121C4.03267 8.86386 4.0677 8.82749 4.09451 8.78488L4.1047 8.76869L4.20387 8.74036C4.08454 7.8371 4.29158 6.92065 4.78828 6.15695L4.70928 6.08447L4.70816 6.06415C4.70544 6.01506 4.68956 5.96765 4.66223 5.92687C4.53101 5.81235 4.38968 5.71477 4.23974 5.63126C4.15516 5.58807 4.07314 5.54006 3.99407 5.48745L3.99049 5.48507L3.93117 5.43755C3.77156 5.32204 3.73423 5.0995 3.84893 4.93861L3.85073 4.93609C3.88353 4.89564 3.92551 4.86359 3.9731 4.84244C4.02065 4.8213 4.07252 4.81172 4.12448 4.81445C4.20882 4.81848 4.28975 4.84894 4.35574 4.9019L4.4238 4.95616C4.49251 5.02133 4.55731 5.09051 4.61812 5.16311C4.73388 5.29005 4.86163 5.40552 4.99957 5.50793C5.0403 5.52881 5.08745 5.5333 5.13121 5.52004L5.15463 5.51294L5.2443 5.57646C5.75926 5.04142 6.42016 4.66979 7.14457 4.5063C7.30592 4.46964 7.46949 4.44346 7.63427 4.42777L7.63964 4.32675L7.65533 4.31288C7.69233 4.28015 7.71967 4.23786 7.73414 4.1911C7.74112 4.01978 7.7316 3.84818 7.7057 3.67868C7.68713 3.58608 7.67291 3.49225 7.66488 3.39729L7.66453 3.39308L7.66471 3.31208C7.65529 3.11742 7.80303 2.95089 7.99776 2.9372L8.01257 2.93616L8.02015 2.94037ZM5.95934 6.07827L7.16349 6.93147C7.22618 6.97723 7.3073 6.9871 7.37355 6.95177C7.44501 6.91366 7.48891 6.8481 7.49238 6.77308L7.49459 6.72539H7.50167L7.58306 5.30392C7.50061 5.31456 7.41818 5.32856 7.3369 5.34592C6.81999 5.46213 6.34425 5.71525 5.95934 6.07827ZM8.41949 5.30482L8.50281 6.77297C8.50387 6.85202 8.54972 6.92391 8.62114 6.95769C8.69272 6.99153 8.7773 6.98164 8.83891 6.93234L8.84113 6.93057L10.0336 6.0832C9.58796 5.66422 9.02468 5.39244 8.41949 5.30482ZM6.42133 8.09662V8.09179L6.45806 8.08168C6.53109 8.06157 6.58815 8.0026 6.60501 7.92848C6.62197 7.85393 6.59683 7.77605 6.53955 7.72615L6.52239 7.7112V7.70428L5.43791 6.73653C5.12685 7.26667 4.98944 7.88044 5.04426 8.4927L6.42133 8.09662ZM6.90346 9.36332V9.35733L6.90749 9.34791C6.93468 9.28435 6.9286 9.21187 6.89102 9.15427C6.85802 9.10369 6.80522 9.0702 6.74652 9.06176L6.7434 9.06645L6.71342 9.06338C6.70022 9.06202 6.68713 9.06198 6.67448 9.06321L5.23205 9.30788C5.45121 9.87813 5.84039 10.3665 6.3476 10.7062L6.90346 9.36332Z" fill="white"/>
</svg>
