<svg width="16" height="16" viewBox="0 0 16 16" fill="none" xmlns="http://www.w3.org/2000/svg">
<g clip-path="url(#clip0_12148_9616)">
<path d="M2.47423 3.34189C2.40618 3.13772 2.21511 3 1.99989 3C1.78468 3 1.59361 3.13772 1.52555 3.34189L0.0255499 7.84189C-0.061774 8.10386 0.079806 8.38702 0.341778 8.47434C0.603749 8.56167 0.886909 8.42009 0.974233 8.15811L1.99989 5.08114L4.52555 12.6581C4.59361 12.8623 4.78468 13 4.99989 13C5.21511 13 5.40618 12.8623 5.47423 12.6581L7.99989 5.08114L8.64171 7.00661C9.06135 7.04593 9.43075 7.25813 9.67797 7.57125C9.73617 7.54068 9.79504 7.51122 9.85457 7.4829L8.47423 3.34189C8.40618 3.13772 8.21511 3 7.99989 3C7.78468 3 7.59361 3.13772 7.52555 3.34189L4.99989 10.9189L2.47423 3.34189Z" fill="#CED0D6"/>
<path d="M12.3032 7.00906C12.6469 7.02966 12.9813 7.08506 13.303 7.17174L13.9999 5.08114L14.9637 7.9727C15.1668 8.12227 15.358 8.28675 15.5357 8.46447C15.5461 8.4748 15.5564 8.48519 15.5666 8.49562C15.5971 8.49148 15.6277 8.48444 15.658 8.47434C15.92 8.38702 16.0616 8.10386 15.9742 7.84189L14.4742 3.34189C14.4062 3.13772 14.2151 3 13.9999 3C13.7847 3 13.5936 3.13772 13.5255 3.34189L12.3032 7.00906Z" fill="#CED0D6"/>
<path d="M8.5 8C8.77614 8 9 8.22386 9 8.5V9.326L9.181 9.16238C9.90358 8.44447 10.9005 8 12.0002 8C13.1046 8 14.1053 8.44826 14.8286 9.17157C15.1887 9.5316 15.4806 9.96029 15.6831 10.4368C15.8159 10.7493 15.9101 11.0822 15.9597 11.4292C15.9988 11.7026 15.8089 11.9559 15.5356 11.995C15.2622 12.0341 15.0089 11.8442 14.9698 11.5708C14.9326 11.3108 14.8621 11.0617 14.7627 10.8279C14.6111 10.4711 14.3922 10.1493 14.1215 9.87868C13.5781 9.33524 12.8288 9 12.0002 9C11.1716 9 10.4223 9.33524 9.87888 9.87868L9.86997 9.88759L9.74562 10H10.5C10.7761 10 11 10.2239 11 10.5C11 10.7761 10.7761 11 10.5 11H8.5C8.22386 11 8 10.7761 8 10.5V8.5C8 8.22386 8.22386 8 8.5 8Z" fill="#548AF7"/>
<path d="M8.46491 12.005C8.73827 11.9659 8.99157 12.1558 9.03067 12.4292C9.12449 13.0851 9.43079 13.6732 9.87894 14.1213C10.4224 14.6648 11.1717 15 12.0003 15C12.8288 15 13.5781 14.6648 14.1216 14.1213L14.1305 14.1124L14.2487 14H13.5C13.2239 14 13 13.7761 13 13.5C13 13.2239 13.2239 13 13.5 13H15.5C15.7761 13 16 13.2239 16 13.5V15.5C16 15.7761 15.7761 16 15.5 16C15.2239 16 15 15.7761 15 15.5V14.6657L14.8241 14.833C14.1011 15.5536 13.1024 16 12.0003 16C10.8958 16 9.89515 15.5517 9.17184 14.8284C8.57574 14.2323 8.16618 13.4477 8.04075 12.5708C8.00165 12.2974 8.19155 12.0441 8.46491 12.005Z" fill="#548AF7"/>
</g>
<defs>
<clipPath id="clip0_12148_9616">
<rect width="16" height="16" fill="white"/>
</clipPath>
</defs>
</svg>
