<svg width="16" height="16" viewBox="0 0 16 16" fill="none" xmlns="http://www.w3.org/2000/svg">
<path d="M15 10.5C15 10.3393 14.9227 10.1884 14.7924 10.0944C14.662 10.0004 14.4944 9.97484 14.3419 10.0257L12.8419 10.5257C12.5799 10.613 12.4383 10.8961 12.5257 11.1581C12.613 11.4201 12.8961 11.5617 13.1581 11.4743L14 11.1937V15H13.5C13.2239 15 13 15.2239 13 15.5C13 15.7761 13.2239 16 13.5 16H15.5C15.7761 16 16 15.7761 16 15.5C16 15.2239 15.7761 15 15.5 15H15V10.5Z" fill="#CED0D6"/>
<path fill-rule="evenodd" clip-rule="evenodd" d="M10 10C9.25097 10 8.73553 10.4803 8.43382 11.046C8.13474 11.6068 8 12.3185 8 13C8 13.6815 8.13474 14.3933 8.43382 14.9541C8.73553 15.5198 9.25097 16 10 16C10.749 16 11.2645 15.5198 11.5662 14.9541C11.8653 14.3933 12 13.6815 12 13C12 12.3185 11.8653 11.6068 11.5662 11.046C11.2645 10.4803 10.749 10 10 10ZM10 15C9.74903 15 9.51447 14.8553 9.31618 14.4835C9.11526 14.1068 9 13.5685 9 13C9 12.4315 9.11526 11.8933 9.31618 11.5166C9.51447 11.1448 9.74903 11 10 11C10.251 11 10.4855 11.1448 10.6838 11.5166C10.8847 11.8933 11 12.4315 11 13C11 13.5685 10.8847 14.1068 10.6838 14.4835C10.4855 14.8553 10.251 15 10 15Z" fill="#CED0D6"/>
<path d="M3 4V2C3 1.44772 3.44772 1 4 1H12C12.5523 1 13 1.44772 13 2V4C13 4.55228 12.5523 5 12 5H4C3.44772 5 3 4.55228 3 4Z" fill="#3D3223"/>
<path d="M3 7V9C3 9.55228 3.44772 10 4 10H7.93687C8.38911 9.45533 9.06808 9.00001 10 9.00001C10.8752 9.00001 11.5273 9.40156 11.978 9.90157C12.1304 9.75955 12.3151 9.64718 12.5257 9.57699L12.8905 9.45536C12.9605 9.31878 13 9.164 13 9V7C13 6.44772 12.5523 6 12 6H4C3.44772 6 3 6.44772 3 7Z" fill="#3D3223"/>
<path d="M7.35607 11C7.1026 11.6435 7 12.352 7 13C7 13.648 7.10259 14.3565 7.35605 15H4C3.44772 15 3 14.5523 3 14V12C3 11.4477 3.44772 11 4 11H7.35607Z" fill="#3D3223"/>
<path fill-rule="evenodd" clip-rule="evenodd" d="M3 2V4C3 4.55228 3.44772 5 4 5H12C12.5523 5 13 4.55228 13 4V2C13 1.44772 12.5523 1 12 1H4C3.44772 1 3 1.44772 3 2ZM4 4V2H12V4H4Z" fill="#D6AE58"/>
<path fill-rule="evenodd" clip-rule="evenodd" d="M3 9V7C3 6.44772 3.44772 6 4 6H12C12.5523 6 13 6.44772 13 7V9C13 9.164 12.9605 9.31878 12.8905 9.45536L12.5257 9.57699C12.3151 9.64718 12.1304 9.75955 11.978 9.90157C11.5273 9.40156 10.8752 9.00001 10 9.00001C9.06808 9.00001 8.38911 9.45533 7.93687 10H4C3.44772 10 3 9.55228 3 9ZM4 7V9H12V7H4Z" fill="#D6AE58"/>
<path d="M7.35607 11H4C3.44772 11 3 11.4477 3 12V14C3 14.5523 3.44772 15 4 15H7.35605C7.22911 14.6777 7.14001 14.3391 7.08269 14H4V12H7.08269C7.14001 11.6609 7.22912 11.3223 7.35607 11Z" fill="#D6AE58"/>
</svg>
