<svg width="16" height="16" viewBox="0 0 16 16" fill="none" xmlns="http://www.w3.org/2000/svg">
<path d="M7 5H6V6H7V5Z" fill="#DB3B4B"/>
<path d="M9 5H10V6H9V5Z" fill="#DB3B4B"/>
<path fill-rule="evenodd" clip-rule="evenodd" d="M7 2H6V3H5C4.44727 3 4 3.44727 4 4V5H3V6H4V8C4 8.55273 4.44727 9 5 9H6V10H4C2.89453 10 2 10.8955 2 12V13.5C2 13.7764 2.22461 14 2.5 14C2.77539 14 3 13.7764 3 13.5V12C3 11.4473 3.44727 11 4 11H12C12.5527 11 13 11.4473 13 12V13.5C13 13.7764 13.2246 14 13.5 14C13.7754 14 14 13.7764 14 13.5V12C14 10.8955 13.1055 10 12 10H10V9H11C11.5527 9 12 8.55273 12 8V6H13V5H12V4C12 3.44727 11.5527 3 11 3H10V2H9V3H7V2ZM11 4H5V8H11V4ZM9 10V9H7V10H9Z" fill="#DB3B4B"/>
<path d="M2.5 14H13.5C13.2246 14 13 13.7764 13 13.5V12C13 11.4473 12.5527 11 12 11H4C3.44727 11 3 11.4473 3 12V13.5C3 13.7764 2.77539 14 2.5 14Z" fill="#FFF7F7"/>
<path fill-rule="evenodd" clip-rule="evenodd" d="M5 4H11V8H5V4ZM7 5H6V6H7V5ZM9 5H10V6H9V5Z" fill="#FFF7F7"/>
</svg>
