<svg width="16" height="16" viewBox="0 0 16 16" fill="none" xmlns="http://www.w3.org/2000/svg">
<path fill-rule="evenodd" clip-rule="evenodd" d="M14.4122 8.29497C14.0217 7.90444 13.3885 7.90444 12.998 8.29497L11.6466 9.64633L8 13.2929V16H10.7071L15.7051 11.0021C16.0956 10.6116 16.0956 9.97839 15.7051 9.58786L14.4122 8.29497ZM14 11.2929L14.998 10.295L13.7051 9.00208L12.7071 10L14 11.2929ZM12 10.7072L13.2929 12L10.2929 15H9V13.7072L12 10.7072Z" fill="#3574F0"/>
<path d="M14.9795 7.46041C14.704 3.84655 11.6844 1 8 1C4.13401 1 1 4.13401 1 8C1 11.5265 3.60771 14.4439 7 14.9291V13.917C4.16229 13.441 2 10.973 2 8C2 4.68629 4.68629 2 8 2C10.9777 2 13.4487 4.16909 13.9193 7.01339C14.2988 7.05403 14.6689 7.20304 14.9795 7.46041Z" fill="#6C707E"/>
<path fill-rule="evenodd" clip-rule="evenodd" d="M11 8.8786V8C11 7.44772 10.5523 7 10 7V6C10 4.89543 9.10457 4 8 4C6.89543 4 6 4.89543 6 6V7C5.44772 7 5 7.44772 5 8V11C5 11.5523 5.44772 12 6 12H7.8786L8.8786 11H6V8H10V9.8786L11 8.8786ZM7 6C7 5.44772 7.44772 5 8 5C8.55228 5 9 5.44772 9 6V7H7V6Z" fill="#6C707E"/>
</svg>
