<svg width="16" height="16" viewBox="0 0 16 16" fill="none" xmlns="http://www.w3.org/2000/svg">
<path fill-rule="evenodd" clip-rule="evenodd" d="M14.4122 8.29491C14.0217 7.90438 13.3885 7.90438 12.998 8.29491L11.6466 9.64627L8 13.2929V16H10.7071L15.7051 11.002C16.0956 10.6115 16.0956 9.97832 15.7051 9.5878L14.4122 8.29491ZM14 11.2929L14.998 10.2949L13.7051 9.00201L12.7071 9.99999L14 11.2929ZM12 10.7071L13.2929 12L10.2929 15H9V13.7071L12 10.7071Z" fill="#548AF7"/>
<path fill-rule="evenodd" clip-rule="evenodd" d="M3.5 5C3.5 7.03981 5.02684 8.723 7 8.96905V11H5.5C5.22386 11 5 11.2239 5 11.5C5 11.7761 5.22386 12 5.5 12H7V13L8 12V8.96905C9.97316 8.723 11.5 7.03981 11.5 5C11.5 2.79086 9.70914 1 7.5 1C5.29086 1 3.5 2.79086 3.5 5ZM7.5 8C5.84315 8 4.5 6.65685 4.5 5C4.5 3.34315 5.84315 2 7.5 2C9.15685 2 10.5 3.34315 10.5 5C10.5 6.65685 9.15685 8 7.5 8Z" fill="#D6AE58"/>
<path d="M7 14V13H5.5C5.22386 13 5 13.2239 5 13.5C5 13.7761 5.22386 14 5.5 14H7Z" fill="#D6AE58"/>
</svg>
