<svg width="16" height="16" viewBox="0 0 16 16" fill="none" xmlns="http://www.w3.org/2000/svg">
<g clip-path="url(#clip0_13283_12487)">
<path d="M2 4C2 3.44772 2.44772 3 3 3H5V13H3C2.44772 13 2 12.5523 2 12V4Z" fill="#43454A"/>
<path fill-rule="evenodd" clip-rule="evenodd" d="M14.4122 8.29497C14.0217 7.90444 13.3885 7.90444 12.998 8.29497L11.6466 9.64633L8 13.2929V16H10.7071L15.7051 11.0021C16.0956 10.6116 16.0956 9.97839 15.7051 9.58786L14.4122 8.29497ZM14 11.2929L14.998 10.295L13.7051 9.00208L12.7071 10L14 11.2929ZM12 10.7072L13.2929 12L10.2929 15H9V13.7072L12 10.7072Z" fill="#548AF7"/>
<path fill-rule="evenodd" clip-rule="evenodd" d="M3 2C1.89543 2 1 2.89543 1 4V12C1 13.1046 1.89543 14 3 14H7V13H6V3H13C13.5523 3 14 3.44772 14 4V7.02369C14.3594 7.07699 14.7072 7.2283 15 7.47762V4C15 2.89543 14.1046 2 13 2H3ZM5 3H3C2.44772 3 2 3.44772 2 4V12C2 12.5523 2.44772 13 3 13H5V3Z" fill="#CED0D6"/>
</g>
<defs>
<clipPath id="clip0_13283_12487">
<rect width="16" height="16" fill="white"/>
</clipPath>
</defs>
</svg>
