<svg width="17" height="16" viewBox="0 0 17 16" fill="none" xmlns="http://www.w3.org/2000/svg">
<path fill-rule="evenodd" clip-rule="evenodd" d="M6 15V12L12.7031 5.29692C13.0937 4.9064 13.7268 4.9064 14.1173 5.29692L15.7031 6.88271C16.0937 7.27323 16.0937 7.9064 15.7031 8.29692L9 15H6ZM7 14V12.4143L11.3536 8.06071L12.9393 9.64649L8.58579 14H7ZM13.6464 8.93939L14.996 7.58981L13.4102 6.00403L12.0607 7.35361L13.6464 8.93939Z" fill="#CED0D6"/>
<path fill-rule="evenodd" clip-rule="evenodd" d="M2 11V8.00005L8.70313 1.29692C9.09365 0.906397 9.72682 0.906398 10.1173 1.29692L11.7031 2.88271C12.0937 3.27323 12.0937 3.9064 11.7031 4.29692L5 11H2ZM3 10V8.41426L7.35355 4.06071L8.93934 5.64649L4.58579 10H3ZM9.64645 4.93939L10.996 3.58981L9.41023 2.00403L8.06066 3.35361L9.64645 4.93939Z" fill="#57965C"/>
</svg>
