<svg width="16" height="16" viewBox="0 0 16 16" fill="none" xmlns="http://www.w3.org/2000/svg">
<path d="M2.07026 8.84002H3.28576L4.44926 13H3.18176L2.07026 8.84002ZM0.614258 3.90002H2.17426C2.67259 3.90002 3.07776 3.99752 3.38976 4.19253C3.70609 4.38319 3.93792 4.67352 4.08526 5.06352C4.23693 5.45352 4.31276 5.94752 4.31276 6.54552C4.31276 7.15219 4.23476 7.65269 4.07876 8.04702C3.92709 8.43702 3.69093 8.72952 3.37026 8.92452C3.04959 9.11519 2.63359 9.21052 2.12226 9.21052H1.80376V13H0.614258V3.90002ZM2.17426 8.07302C2.41259 8.07302 2.59676 8.02319 2.72676 7.92352C2.86109 7.82386 2.95426 7.66569 3.00626 7.44902C3.06259 7.23236 3.09076 6.93119 3.09076 6.54552C3.09076 6.16852 3.06259 5.87169 3.00626 5.65503C2.95426 5.43836 2.86109 5.28236 2.72676 5.18702C2.59676 5.08736 2.41259 5.03752 2.17426 5.03752H1.80376V8.07302H2.17426Z" fill="#548AF7"/>
<path d="M5.42578 3.90002H7.18078L7.92178 9.68502L7.95428 10.5495H8.09728L8.11678 9.68502L8.79928 3.90002H10.5868V13H9.49478V6.01252L9.57278 5.14802L9.42978 5.13502L9.38428 6.00602L8.48078 13H7.54478L6.62178 6.04502L6.57628 5.17402L6.43328 5.18702L6.51128 6.05152V13H5.42578V3.90002Z" fill="#548AF7"/>
<path d="M11.9004 3.90002H13.6944C14.1624 3.90002 14.5437 4.03219 14.8384 4.29652C15.1331 4.56086 15.3497 4.97036 15.4884 5.52502C15.6271 6.07536 15.6964 6.79252 15.6964 7.67652V9.22353C15.6964 10.1075 15.6271 10.8269 15.4884 11.3815C15.3497 11.9319 15.1331 12.3392 14.8384 12.6035C14.5437 12.8679 14.1624 13 13.6944 13H11.9004V3.90002ZM13.6944 11.9145C13.8764 11.9145 14.0259 11.8214 14.1429 11.635C14.2599 11.4444 14.3444 11.1519 14.3964 10.7575C14.4527 10.3632 14.4809 9.85186 14.4809 9.22353V7.67652C14.4809 7.04819 14.4527 6.53686 14.3964 6.14252C14.3444 5.74819 14.2599 5.45786 14.1429 5.27153C14.0259 5.08086 13.8764 4.98552 13.6944 4.98552H13.0899V11.9145H13.6944Z" fill="#548AF7"/>
</svg>
