<svg width="16" height="16" viewBox="0 0 16 16" fill="none" xmlns="http://www.w3.org/2000/svg">
<path fill-rule="evenodd" clip-rule="evenodd" d="M11.5 2C11.3328 2 11.1767 2.08355 11.084 2.22265L9.23241 5H6.94999C6.71836 3.85888 5.70948 3 4.5 3C3.11929 3 2 4.11929 2 5.5C2 6.68524 2.8248 7.67783 3.93173 7.93513L7.09715 13H2.5C2.22386 13 2 13.2239 2 13.5C2 13.7761 2.22386 14 2.5 14H13.5C13.7761 14 14 13.7761 14 13.5C14 13.2239 13.7761 13 13.5 13H11.2766L6.93758 6.05761C6.94194 6.03849 6.94608 6.01929 6.94999 6H9.23241L11.084 8.77735C11.1767 8.91645 11.3328 9 11.5 9H13.5C13.7761 9 14 8.77614 14 8.5C14 8.22386 13.7761 8 13.5 8H11.7676L10.1009 5.5L11.7676 3H13.5C13.7761 3 14 2.77614 14 2.5C14 2.22386 13.7761 2 13.5 2H11.5ZM5.10538 7.9262L8.27638 13H10.0973L6.41461 7.10765C6.08059 7.50504 5.62513 7.79694 5.10538 7.9262ZM4.5 4C5.32843 4 6 4.67157 6 5.5C6 6.32843 5.32843 7 4.5 7C3.67157 7 3 6.32843 3 5.5C3 4.67157 3.67157 4 4.5 4Z" fill="#548AF7"/>
<circle cx="4.5" cy="5.5" r="1.5" fill="#25324D"/>
</svg>
