<svg width="16" height="16" viewBox="0 0 16 16" fill="none" xmlns="http://www.w3.org/2000/svg">
<circle cx="8" cy="8" r="7" fill="#EBECF0"/>
<path fill-rule="evenodd" clip-rule="evenodd" d="M12.1147 2.33644L11.5263 3.14498C10.5365 2.42466 9.31933 2 8 2C6.68067 2 5.46346 2.42466 4.47371 3.14498L3.88527 2.33644C5.04025 1.49587 6.46221 1 8 1C9.53778 1 10.9598 1.49587 12.1147 2.33644ZM2.33644 3.88527L3.14498 4.47371C2.42466 5.46346 2 6.68067 2 8C2 9.31933 2.42466 10.5365 3.14498 11.5263L2.33644 12.1147C1.49587 10.9598 1 9.53779 1 8C1 6.46221 1.49587 5.04025 2.33644 3.88527ZM3.88527 13.6636C5.04025 14.5041 6.46221 15 8 15C9.53779 15 10.9598 14.5041 12.1147 13.6636L11.5263 12.855C10.5365 13.5753 9.31933 14 8 14C6.68067 14 5.46346 13.5753 4.47371 12.855L3.88527 13.6636ZM13.6636 12.1147L12.855 11.5263C13.5753 10.5365 14 9.31933 14 8C14 6.68067 13.5753 5.46346 12.855 4.47371L13.6636 3.88527C14.5041 5.04025 15 6.46221 15 8C15 9.53778 14.5041 10.9598 13.6636 12.1147Z" fill="#6C707E"/>
<path d="M5.50002 5H6.55595L9.49182 9.39898V5H10.4836V10.985H9.41914L6.4918 6.60102V11H5.5L5.50002 5Z" fill="#6C707E"/>
</svg>
