<svg width="20" height="20" viewBox="0 0 20 20" fill="none" xmlns="http://www.w3.org/2000/svg">
<path fill-rule="evenodd" clip-rule="evenodd" d="M15.2277 13.0403C15.2277 13.0403 15.8329 13.217 16.1845 13.3892C16.3065 13.449 16.5176 13.5683 16.6699 13.7248C16.8191 13.8782 16.8918 14.0335 16.8918 14.0335L19.2771 17.9262L15.4218 17.9278L13.619 14.651C13.619 14.651 13.2498 14.0371 13.0227 13.859C12.8332 13.7106 12.7524 13.6577 12.565 13.6577C12.4346 13.6577 11.649 13.6577 11.649 13.6577L11.6498 17.9255L8.23828 17.9269V7.02515H15.089C15.089 7.02515 18.2092 7.07962 18.2092 9.95299C18.2092 12.8264 15.2277 13.0403 15.2277 13.0403ZM13.7438 9.38988L11.6785 9.38859L11.6775 11.2423L13.7438 11.2416C13.7438 11.2416 14.7007 11.2388 14.7007 10.2987C14.7007 9.3397 13.7438 9.38988 13.7438 9.38988Z" fill="#6C707E"/>
<path fill-rule="evenodd" clip-rule="evenodd" d="M18.9835 12.3333C19.6345 11.4729 20 10.5053 20 9.48241C20 5.90226 15.5229 3 10 3C4.47717 3 0 5.90226 0 9.48241C0 12.4636 3.10446 14.9747 7.33203 15.7315V13.6608C5.28153 12.8671 3.92981 11.5086 3.92981 9.96603C3.92981 7.51851 7.33283 5.5344 11.5307 5.5344C15.7285 5.5344 18.8264 6.89185 18.8264 9.96603C18.8264 10.9153 18.5312 11.7009 17.9995 12.3333H18.9835Z" fill="#6C707E"/>
</svg>
