<svg width="16" height="16" viewBox="0 0 16 16" fill="none" xmlns="http://www.w3.org/2000/svg">
<g clip-path="url(#clip0_16143_10279)">
<path fill-rule="evenodd" clip-rule="evenodd" d="M9 9.50215C9 8.32441 10.2951 7.60608 11.2942 8.22967L15.2962 10.7275C16.2372 11.3149 16.2372 12.6851 15.2962 13.2725L11.2942 15.7703C10.2951 16.3939 9 15.6756 9 14.4978V9.50215ZM10.7647 9.07799C10.4317 8.87013 10 9.10957 10 9.50215V14.4978C10 14.8904 10.4317 15.1298 10.7647 14.922L14.7667 12.4241C15.0804 12.2284 15.0804 11.7716 14.7667 11.5758L10.7647 9.07799Z" fill="#208A3C"/>
<path d="M10 9.50214C10 9.10956 10.4317 8.87012 10.7647 9.07798L14.7667 11.5758C15.0804 11.7716 15.0804 12.2284 14.7667 12.4241L10.7647 14.922C10.4317 15.1298 10 14.8904 10 14.4978V9.50214Z" fill="#F2FCF3"/>
<path d="M7.79059 0.0460203C7.92354 -0.0153401 8.0767 -0.0153401 8.20965 0.0460203L11.7096 1.6614C11.9604 1.77712 12.0698 2.07419 11.9541 2.32491C11.8384 2.57564 11.5413 2.68508 11.2906 2.56936L8.00012 1.05069L2.69327 3.5L8.00012 5.94932L14.2906 3.04602C14.4454 2.97457 14.626 2.98693 14.7696 3.07883C14.9132 3.17073 15.0001 3.32949 15.0001 3.5V6.5C15.0001 6.69503 14.8867 6.87225 14.7096 6.95398L12.6569 7.9014L11.8237 7.38136C11.7606 7.342 11.6969 7.30584 11.6325 7.27282L14.0001 6.18008V4.28145L8.20965 6.95398C8.0767 7.01534 7.92354 7.01534 7.79059 6.95398L1.29059 3.95398C1.11352 3.87225 1.00012 3.69503 1.00012 3.5C1.00012 3.30497 1.11352 3.12775 1.29059 3.04602L7.79059 0.0460203Z" fill="#DB3B4B"/>
<path d="M7.79059 9.95398C7.85703 9.98464 7.92851 9.99998 8 10V8.94926L1.70965 6.04602C1.55483 5.97457 1.37427 5.98693 1.23064 6.07883C1.08702 6.17073 1.00012 6.32949 1.00012 6.5V9.5C1.00012 9.69503 1.11352 9.87225 1.29059 9.95398L7.79059 12.954C7.85703 12.9846 7.92851 13 8 13V11.9493L2.00012 9.18008V7.28145L7.79059 9.95398Z" fill="#DB3B4B"/>
<path d="M8 14.9493L1.70965 12.046C1.45892 11.9303 1.16186 12.0397 1.04614 12.2905C0.930421 12.5412 1.03987 12.8383 1.29059 12.954L7.79059 15.954C7.85703 15.9846 7.92851 16 8 16V14.9493Z" fill="#DB3B4B"/>
</g>
<defs>
<clipPath id="clip0_16143_10279">
<rect width="16" height="16" fill="white"/>
</clipPath>
</defs>
</svg>
