<svg width="16" height="16" viewBox="0 0 16 16" fill="none" xmlns="http://www.w3.org/2000/svg">
<g clip-path="url(#clip0_8811_12827)">
<path fill-rule="evenodd" clip-rule="evenodd" d="M8.00497 3.80108C10.0763 3.80108 12.2698 4.71813 13.6568 5.75228C13.8441 5.89194 14.0995 5.69949 13.9712 5.50403C13.358 4.56985 12.4456 3.60991 11.6635 3.09202C10.59 2.38111 9.31317 2 8.00497 2C6.6968 2 5.41998 2.38111 4.34645 3.09202C3.56517 3.6094 2.65381 4.56794 2.04061 5.50124C1.91215 5.69675 2.1676 5.88909 2.35489 5.74922C3.73942 4.71517 5.92586 3.80108 8.00497 3.80108ZM8 12.1989C5.93069 12.1969 3.74039 11.2807 2.35496 10.2477C2.16767 10.1081 1.91223 10.3005 2.04054 10.496C2.65377 11.4301 3.56615 12.3901 4.3482 12.908C5.41991 13.6177 6.69416 13.9987 8 14V12.1989Z" fill="#6C707E"/>
<path fill-rule="evenodd" clip-rule="evenodd" d="M9 9.50215C9 8.32441 10.2951 7.60608 11.2942 8.22967L15.2962 10.7275C16.2372 11.3149 16.2372 12.6851 15.2962 13.2725L11.2942 15.7703C10.2951 16.3939 9 15.6756 9 14.4978V9.50215ZM10.7647 9.07799C10.4317 8.87013 10 9.10957 10 9.50215V14.4978C10 14.8904 10.4317 15.1298 10.7647 14.922L14.7667 12.4241C15.0804 12.2284 15.0804 11.7716 14.7667 11.5758L10.7647 9.07799Z" fill="#208A3C"/>
<path d="M10 9.50226C10 9.10968 10.4317 8.87024 10.7647 9.0781L14.7667 11.5759C15.0804 11.7717 15.0804 12.2285 14.7667 12.4243L10.7647 14.9221C10.4317 15.13 10 14.8905 10 14.4979V9.50226Z" fill="#F2FCF3"/>
</g>
<defs>
<clipPath id="clip0_8811_12827">
<rect width="16" height="16" fill="white"/>
</clipPath>
</defs>
</svg>
