<svg width="24" height="24" viewBox="0 0 24 24" fill="none" xmlns="http://www.w3.org/2000/svg">
<path fill-rule="evenodd" clip-rule="evenodd" d="M21 4.81818L12 1L3 4.81818V12.7681C3 15.4169 4.33867 17.354 6.04856 18.8864C7.30624 20.0135 8.8377 20.9801 10.2429 21.8669C10.7097 22.1615 11.1627 22.4474 11.5869 22.7274L12 23L12.4131 22.7274C12.8374 22.4474 13.2903 22.1616 13.7571 21.8669C15.1623 20.9801 16.6938 20.0135 17.9514 18.8864C19.6613 17.354 21 15.4169 21 12.7681V4.81818ZM11.0001 15.0608L17.0608 9.00011L16.0001 7.93945L11.0001 12.9395L8.50011 10.4395L7.43945 11.5001L11.0001 15.0608Z" fill="#57965C"/>
</svg>
