<svg width="16" height="16" viewBox="0 0 16 16" fill="none" xmlns="http://www.w3.org/2000/svg">
<path d="M15.5 9.5L10.5 10M15.5 12.25L10.5 12.75M15.5 15L10.5 15.5" stroke="#6C707E" stroke-linecap="round" stroke-linejoin="round"/>
<path d="M1.5 10C1.5 6.41015 4.41015 3.5 8 3.5C10.9362 3.5 13.4178 5.44691 14.224 8.12024L15.2356 8.01908C14.3668 4.83816 11.4564 2.5 8 2.5C3.85786 2.5 0.5 5.85786 0.5 10C0.5 11.1604 0.877241 12.6805 1.36637 13.7304C1.44463 13.8984 1.61594 14 1.80126 14H9.00756V13H2.13917C1.76974 12.0874 1.5 10.8909 1.5 10Z" fill="#6C707E"/>
<path fill-rule="evenodd" clip-rule="evenodd" d="M10.5579 8.48686L10.3509 8.50756C9.52654 8.58999 8.92513 9.32505 9.00756 10.1494V11.2918C8.72005 11.4864 8.3733 11.6 8.00001 11.6C7.0059 11.6 6.20001 10.7941 6.20001 9.8C6.20001 8.80589 7.0059 8 8.00001 8C8.33937 8 8.6568 8.09391 8.92772 8.25717L11.4055 6.26663C11.6638 6.0591 12.0415 6.10028 12.249 6.35861C12.4566 6.61695 12.4154 6.99461 12.157 7.20214L10.5579 8.48686ZM8.00001 10.6C8.44184 10.6 8.80001 10.2418 8.80001 9.8C8.80001 9.35817 8.44184 9 8.00001 9C7.55818 9 7.20001 9.35817 7.20001 9.8C7.20001 10.2418 7.55818 10.6 8.00001 10.6Z" fill="#6C707E"/>
</svg>
