<svg width="16" height="16" viewBox="0 0 16 16" fill="none" xmlns="http://www.w3.org/2000/svg">
<path d="M4.00002 13.5C4.00003 13.2238 4.22388 13 4.50002 13L11.5 13C11.7761 13 12 13.2239 12 13.5C12 13.7761 11.7761 14 11.5 14L4.50002 14C4.22387 14 4.00001 13.7761 4.00002 13.5Z" fill="#6C707E"/>
<path d="M12 2.5C12.8284 2.5 13.5 3.17157 13.5 4V10C13.5 10.8284 12.8284 11.5 12 11.5H4C3.17157 11.5 2.5 10.8284 2.5 10L2.5 4C2.5 3.17157 3.17157 2.5 4 2.5L12 2.5Z" fill="#EBECF0" stroke="#6C707E"/>
</svg>
