<svg width="16" height="16" viewBox="0 0 16 16" fill="none" xmlns="http://www.w3.org/2000/svg">
<path d="M7.14645 3.14718C6.95118 3.34244 6.95118 3.65902 7.14645 3.85429L10.2927 7.00049L2.49914 7.00049C2.223 7.00049 1.99914 7.22435 1.99914 7.50049C1.99914 7.77664 2.223 8.00049 2.49914 8.00049L10.2931 8.00049L7.14644 11.1472C6.95118 11.3424 6.95118 11.659 7.14644 11.8543C7.34171 12.0495 7.65829 12.0495 7.85355 11.8543L11.8536 7.85429C11.9473 7.76052 12 7.63334 12 7.50073C12 7.36812 11.9473 7.24095 11.8536 7.14718L7.85355 3.14718C7.65829 2.95192 7.34171 2.95192 7.14645 3.14718Z" fill="#57965C"/>
<path d="M13.5 11.5V3.5" stroke="#CED0D6" stroke-linecap="round" stroke-linejoin="round"/>
</svg>
