<svg width="16" height="16" viewBox="0 0 16 16" fill="none" xmlns="http://www.w3.org/2000/svg">
<rect x="9.5" y="9.5" width="6" height="6" rx="1.5" fill="#F2FCF3" stroke="#208A3C"/>
<path d="M14.9326 8.14778C14.6885 6.52441 13.7924 4.91468 12.4211 3.54342C9.55592 0.678305 5.60271 -0.0339965 2.76887 2.79978C-0.0649633 5.63356 0.749897 9.73619 3.48908 12.4753C4.82534 13.8116 6.47491 14.7085 8.15037 14.9404C8.0528 14.6446 8 14.3285 8 14V11C8 9.34315 9.34315 8 11 8H14C14.3256 8 14.639 8.05187 14.9326 8.14778Z" fill="#FFF4EB"/>
<path d="M14.9326 8.14778C14.6885 6.52441 13.7924 4.91468 12.4211 3.54342C9.55592 0.678305 5.60271 -0.0339965 2.76887 2.79978C-0.0649632 5.63356 0.749897 9.73619 3.48908 12.4753C4.82534 13.8116 6.47491 14.7085 8.15037 14.9404C8.0528 14.6446 8 14.3285 8 14V13.9003C6.67106 13.6449 5.32751 12.8967 4.19761 11.7668C2.96238 10.5316 2.1978 9.02377 2.03495 7.5621C1.89119 6.27175 2.20946 4.98843 3.13864 3.87802L8.54131 9.28059C8.73424 9.00521 8.97226 8.76373 9.24466 8.56688L3.84627 3.1686C4.96097 2.22632 6.21752 1.89609 7.47661 2.03083C8.90451 2.18363 10.4065 2.94592 11.7126 4.25194C12.8782 5.4176 13.6227 6.72614 13.8884 8H14C14.3256 8 14.639 8.05187 14.9326 8.14778Z" fill="#E66D17"/>
</svg>
