<svg width="16" height="16" viewBox="0 0 16 16" fill="none" xmlns="http://www.w3.org/2000/svg">
<path fill-rule="evenodd" clip-rule="evenodd" d="M2.17619 4.92865C2.03535 5.07635 2 5.19227 2 5.27419C2 5.35612 2.03535 5.47203 2.17619 5.61973C2.31947 5.76999 2.5505 5.92806 2.8743 6.07168C3.52061 6.35835 4.44852 6.54839 5.5 6.54839C6.55148 6.54839 7.47939 6.35835 8.1257 6.07168C8.4495 5.92806 8.68053 5.76999 8.82381 5.61973C8.96465 5.47203 9 5.35612 9 5.27419C9 5.19227 8.96465 5.07635 8.82381 4.92865C8.68053 4.7784 8.4495 4.62033 8.1257 4.47671C7.47939 4.19004 6.55148 4 5.5 4C4.44852 4 3.52061 4.19004 2.8743 4.47671C2.5505 4.62033 2.31947 4.7784 2.17619 4.92865ZM9 6.74193C8.85368 6.83135 8.69628 6.91256 8.53115 6.9858C7.72975 7.34126 6.65766 7.54839 5.5 7.54839C4.34234 7.54839 3.27025 7.34126 2.46885 6.9858C2.30372 6.91256 2.14632 6.83135 2 6.74193V7.7583C2 7.84023 2.03535 7.95614 2.17619 8.10384C2.31947 8.25409 2.5505 8.41217 2.8743 8.55579C3.52061 8.84246 4.44852 9.03249 5.5 9.03249C6.55148 9.03249 7.47939 8.84246 8.1257 8.55579C8.4495 8.41217 8.68053 8.25409 8.82381 8.10384C8.96465 7.95614 9 7.84023 9 7.7583V6.74193ZM10 5.27419C10 4.86619 9.81149 4.51537 9.54751 4.23854C9.28597 3.96427 8.93121 3.74004 8.53115 3.56259C7.72975 3.20713 6.65766 3 5.5 3C4.34234 3 3.27025 3.20713 2.46885 3.56259C2.06879 3.74004 1.71403 3.96427 1.45249 4.23854C1.18851 4.51537 1 4.86619 1 5.27419V12.7258C1 13.1338 1.18851 13.4846 1.45249 13.7615C1.71403 14.0357 2.06879 14.26 2.46885 14.4374C3.27025 14.7929 4.34234 15 5.5 15C6.65766 15 7.72975 14.7929 8.53115 14.4374C8.93121 14.26 9.28597 14.0357 9.54751 13.7615C9.81149 13.4846 10 13.1338 10 12.7258V5.27419ZM9 9.22604C8.85368 9.31545 8.69628 9.39666 8.53115 9.4699C7.72975 9.82536 6.65766 10.0325 5.5 10.0325C4.34234 10.0325 3.27025 9.82536 2.46885 9.4699C2.30372 9.39666 2.14632 9.31545 2 9.22604V10.2419C2 10.3239 2.03535 10.4398 2.17619 10.5875C2.31947 10.7377 2.5505 10.8958 2.8743 11.0394C3.52061 11.3261 4.44852 11.5161 5.5 11.5161C6.55148 11.5161 7.47939 11.3261 8.1257 11.0394C8.4495 10.8958 8.68053 10.7377 8.82381 10.5875C8.96465 10.4398 9 10.3239 9 10.2419V9.22604ZM9 11.7097C8.85368 11.7991 8.69628 11.8803 8.53115 11.9535C7.72975 12.309 6.65766 12.5161 5.5 12.5161C4.34234 12.5161 3.27025 12.309 2.46885 11.9535C2.30372 11.8803 2.14632 11.7991 2 11.7097V12.7258C2 12.8077 2.03535 12.9236 2.17619 13.0713C2.31947 13.2216 2.5505 13.3797 2.8743 13.5233C3.52061 13.81 4.44852 14 5.5 14C6.55148 14 7.47939 13.81 8.1257 13.5233C8.4495 13.3797 8.68053 13.2216 8.82381 13.0713C8.96465 12.9236 9 12.8077 9 12.7258V11.7097Z" fill="#6C707E"/>
<path d="M10.8804 4.53999C11.7743 4.50035 12.5582 4.32321 13.1253 4.07168C13.4491 3.92806 13.6801 3.76999 13.8234 3.61973C13.9643 3.47203 13.9996 3.35612 13.9996 3.27419C13.9996 3.19227 13.9643 3.07635 13.8234 2.92865C13.6801 2.7784 13.4491 2.62033 13.1253 2.47671C12.479 2.19004 11.5511 2 10.4996 2C9.5936 2 8.77934 2.14109 8.15791 2.36352C7.68582 2.22268 7.17407 2.1216 6.64062 2.06232C6.87426 1.8665 7.15769 1.70043 7.46844 1.56259C8.26985 1.20713 9.34194 1 10.4996 1C11.6573 1 12.7294 1.20713 13.5308 1.56259C13.9308 1.74004 14.2856 1.96427 14.5471 2.23854C14.8111 2.51537 14.9996 2.86619 14.9996 3.27419V10.7258C14.9996 11.1338 14.8111 11.4846 14.5471 11.7615C14.2856 12.0357 13.9308 12.26 13.5308 12.4374C12.8426 12.7426 11.955 12.9385 10.9849 12.9877C10.9945 12.9027 10.9996 12.8154 10.9996 12.7258V11.9855C11.844 11.936 12.5836 11.7636 13.1253 11.5233C13.4491 11.3797 13.6801 11.2216 13.8234 11.0713C13.9643 10.9236 13.9996 10.8077 13.9996 10.7258V9.70968C13.8533 9.79909 13.6959 9.8803 13.5308 9.95354C12.8461 10.2572 11.9639 10.4526 10.9996 10.5031V9.5016C11.844 9.45211 12.5836 9.27971 13.1253 9.03942C13.4491 8.8958 13.6801 8.73773 13.8234 8.58748C13.9643 8.43978 13.9996 8.32386 13.9996 8.24194V7.22604C13.8533 7.31545 13.6959 7.39666 13.5308 7.4699C12.8461 7.77357 11.9639 7.96899 10.9996 8.01948V7.01797C11.844 6.96847 12.5836 6.79608 13.1253 6.55579C13.4491 6.41217 13.6801 6.25409 13.8234 6.10384C13.9643 5.95614 13.9996 5.84023 13.9996 5.7583V4.74193C13.8533 4.83135 13.6959 4.91256 13.5308 4.9858C12.8461 5.28946 11.9639 5.48488 10.9996 5.53538V5.27419C10.9996 5.00962 10.9552 4.7644 10.8804 4.53999Z" fill="#6C707E"/>
<path d="M2 5.27419C2 5.19227 2.03535 5.07635 2.17619 4.92865C2.31947 4.7784 2.5505 4.62033 2.8743 4.47671C3.52061 4.19004 4.44852 4 5.5 4C6.55148 4 7.47939 4.19004 8.1257 4.47671C8.4495 4.62033 8.68053 4.7784 8.82381 4.92865C8.96465 5.07635 9 5.19227 9 5.27419C9 5.35612 8.96465 5.47203 8.82381 5.61973C8.68053 5.76999 8.4495 5.92806 8.1257 6.07168C7.47939 6.35835 6.55148 6.54839 5.5 6.54839C4.44852 6.54839 3.52061 6.35835 2.8743 6.07168C2.5505 5.92806 2.31947 5.76999 2.17619 5.61973C2.03535 5.47203 2 5.35612 2 5.27419Z" fill="#EBECF0"/>
<path d="M8.53115 6.9858C8.69628 6.91256 8.85368 6.83135 9 6.74193V7.7583C9 7.84023 8.96465 7.95614 8.82381 8.10384C8.68053 8.25409 8.4495 8.41217 8.1257 8.55579C7.47939 8.84246 6.55148 9.03249 5.5 9.03249C4.44852 9.03249 3.52061 8.84246 2.8743 8.55579C2.5505 8.41217 2.31947 8.25409 2.17619 8.10384C2.03535 7.95614 2 7.84023 2 7.7583V6.74193C2.14632 6.83135 2.30372 6.91256 2.46885 6.9858C3.27025 7.34126 4.34234 7.54839 5.5 7.54839C6.65766 7.54839 7.72975 7.34126 8.53115 6.9858Z" fill="#EBECF0"/>
<path d="M8.53115 9.4699C8.69628 9.39666 8.85368 9.31545 9 9.22604V10.2419C9 10.3239 8.96465 10.4398 8.82381 10.5875C8.68053 10.7377 8.4495 10.8958 8.1257 11.0394C7.47939 11.3261 6.55148 11.5161 5.5 11.5161C4.44852 11.5161 3.52061 11.3261 2.8743 11.0394C2.5505 10.8958 2.31947 10.7377 2.17619 10.5875C2.03535 10.4398 2 10.3239 2 10.2419V9.22604C2.14632 9.31545 2.30372 9.39666 2.46885 9.4699C3.27025 9.82536 4.34234 10.0325 5.5 10.0325C6.65766 10.0325 7.72975 9.82536 8.53115 9.4699Z" fill="#EBECF0"/>
<path d="M8.53115 11.9535C8.69628 11.8803 8.85368 11.7991 9 11.7097V12.7258C9 12.8077 8.96465 12.9236 8.82381 13.0713C8.68053 13.2216 8.4495 13.3797 8.1257 13.5233C7.47939 13.81 6.55148 14 5.5 14C4.44852 14 3.52061 13.81 2.8743 13.5233C2.5505 13.3797 2.31947 13.2216 2.17619 13.0713C2.03535 12.9236 2 12.8077 2 12.7258V11.7097C2.14632 11.7991 2.30372 11.8803 2.46885 11.9535C3.27025 12.309 4.34234 12.5161 5.5 12.5161C6.65766 12.5161 7.72975 12.309 8.53115 11.9535Z" fill="#EBECF0"/>
</svg>
