<svg width="16" height="16" viewBox="0 0 16 16" fill="none" xmlns="http://www.w3.org/2000/svg">
<path d="M6.36909 4.97354C6.63066 4.7701 6.67778 4.39313 6.47434 4.13157C6.2709 3.87 5.89393 3.82288 5.63237 4.02632L0.523438 7.99993L5.63237 11.9735C5.89393 12.177 6.2709 12.1299 6.47434 11.8683C6.67778 11.6067 6.63066 11.2298 6.36909 11.0263L2.47802 7.99993L6.36909 4.97354Z" fill="#6C707E"/>
<path d="M9.63237 4.97354C9.3708 4.7701 9.32368 4.39313 9.52712 4.13157C9.73056 3.87 10.1075 3.82288 10.3691 4.02632L15.478 7.99993L10.3691 11.9735C10.1075 12.177 9.73056 12.1299 9.52712 11.8683C9.32368 11.6067 9.3708 11.2298 9.63237 11.0263L13.5234 7.99993L9.63237 4.97354Z" fill="#6C707E"/>
</svg>
