<svg width="16" height="16" viewBox="0 0 16 16" fill="none" xmlns="http://www.w3.org/2000/svg">
<path d="M8 1.5C4.96243 1.5 2.5 2.44143 2.5 3.60275V12.4343C2.5 13.5956 4.96243 14.537 8 14.537C11.0376 14.537 13.5 13.5956 13.5 12.4343V3.60275C13.5 2.44143 11.0376 1.5 8 1.5Z" fill="#FAF5FF"/>
<ellipse cx="8" cy="3.60275" rx="5.5" ry="2.10275" stroke="#834DF0"/>
<path d="M13.5 12.4336C13.5 13.5949 11.0376 14.5363 8 14.5363C4.96243 14.5363 2.5 13.5949 2.5 12.4336" stroke="#834DF0"/>
<path d="M13.5 9.49045C13.5 10.6518 11.0376 11.5932 8 11.5932C4.96243 11.5932 2.5 10.6518 2.5 9.49045" stroke="#834DF0"/>
<path d="M13.5 6.54688C13.5 7.70819 11.0376 8.64962 8 8.64962C4.96243 8.64962 2.5 7.70819 2.5 6.54688" stroke="#834DF0"/>
<path d="M13.5 3.39249V12.5184" stroke="#834DF0"/>
<path d="M2.5 3.39249V12.5184" stroke="#834DF0"/>
</svg>
