<svg width="16" height="16" viewBox="0 0 16 16" fill="none" xmlns="http://www.w3.org/2000/svg">
<path fill-rule="evenodd" clip-rule="evenodd" d="M6.5 4C9.53757 4 12 5.34315 12 7V11C12 12.6569 9.53757 14 6.5 14C3.46243 14 1 12.6569 1 11V7C1 5.34315 3.46243 4 6.5 4ZM11 7C11 7.29093 10.77 7.77446 9.91024 8.24343C9.08827 8.69177 7.88444 9 6.5 9C5.11556 9 3.91173 8.69177 3.08976 8.24343C2.22999 7.77446 2 7.29093 2 7C2 6.70907 2.22999 6.22554 3.08976 5.75658C3.91173 5.30823 5.11556 5 6.5 5C7.88444 5 9.08827 5.30823 9.91024 5.75658C10.77 6.22554 11 6.70907 11 7ZM11 8.72532C10.0046 9.4963 8.36016 10 6.5 10C4.63984 10 2.99537 9.4963 2 8.72532V11C2 11.2909 2.22999 11.7745 3.08976 12.2434C3.91173 12.6918 5.11556 13 6.5 13C7.88444 13 9.08827 12.6918 9.91024 12.2434C10.77 11.7745 11 11.2909 11 11V8.72532Z" fill="#CED0D6"/>
<path d="M9.91024 8.24343C10.77 7.77446 11 7.29093 11 7C11 6.70907 10.77 6.22554 9.91024 5.75658C9.08827 5.30823 7.88444 5 6.5 5C5.11556 5 3.91173 5.30823 3.08976 5.75658C2.22999 6.22554 2 6.70907 2 7C2 7.29093 2.22999 7.77446 3.08976 8.24343C3.91173 8.69177 5.11556 9 6.5 9C7.88444 9 9.08827 8.69177 9.91024 8.24343Z" fill="#43454A"/>
<path d="M6.5 10C8.36016 10 10.0046 9.4963 11 8.72532V11C11 11.2909 10.77 11.7745 9.91024 12.2434C9.08827 12.6918 7.88444 13 6.5 13C5.11556 13 3.91173 12.6918 3.08976 12.2434C2.22999 11.7745 2 11.2909 2 11V8.72532C2.99537 9.4963 4.63984 10 6.5 10Z" fill="#43454A"/>
<path d="M15.0007 5C15.0007 3.34315 12.5383 2 9.50071 2C7.81464 2 6.30577 2.41383 5.29688 3.06543C5.68886 3.02226 6.09151 3 6.50071 3C7.04084 3 7.56956 3.03879 8.07743 3.11325C8.5218 3.04041 8.99942 3 9.50071 3C10.8851 3 12.089 3.30823 12.9109 3.75658C13.7707 4.22554 14.0007 4.70907 14.0007 5C14.0007 5.28054 13.7869 5.74015 13.0007 6.19311V7.31428C13.3801 7.14335 13.7168 6.94521 14.0007 6.72532V9C14.0007 9.28054 13.7869 9.74015 13.0007 10.1931V11C13.0007 11.1099 12.9942 11.2175 12.9817 11.3228C14.2141 10.7726 15.0007 9.93642 15.0007 9V5Z" fill="#CED0D6"/>
<path d="M12.9995 10.1931V7.31428C13.3789 7.14335 13.7156 6.94521 13.9995 6.72532V9C13.9995 9.28054 13.7856 9.74015 12.9995 10.1931Z" fill="#43454A"/>
<path d="M10.8674 4.00078C11.7809 4.49906 12.6098 5.25814 12.8947 6.25156C12.8997 6.24885 12.9047 6.24614 12.9097 6.24343C13.7695 5.77446 13.9995 5.29093 13.9995 5C13.9995 4.70907 13.7695 4.22554 12.9097 3.75658C12.0877 3.30823 10.8839 3 9.49945 3C8.99816 3 8.52055 3.04041 8.07617 3.11325C9.12266 3.2667 10.0806 3.57162 10.8674 4.00078Z" fill="#43454A"/>
</svg>
