<svg width="24" height="24" viewBox="0 0 24 24" fill="none" xmlns="http://www.w3.org/2000/svg">
<path d="M20.4315 7.0125L16.977 3.558C15.654 2.235 13.8795 1.5 12 1.5C10.1205 1.5 8.346 2.235 7.0125 3.5685L3.5685 7.0125C2.235 8.346 1.5 10.1205 1.5 12C1.5 13.8795 2.235 15.654 3.5685 16.9875L7.023 20.442C8.346 21.765 10.1205 22.5 12 22.5C13.827 22.5 15.57 21.7965 16.893 20.526L16.9035 20.5155L16.914 20.505L20.442 16.977C21.765 15.654 22.5 13.8795 22.5 12C22.5 10.1205 21.765 8.346 20.4315 7.0125Z" fill="black"/>
<path d="M14.5203 18.0791C13.8693 18.7091 12.9768 19.0976 11.9898 19.0976C10.9818 19.0976 10.0788 18.6881 9.41734 18.0266L11.1183 16.3256C11.3388 16.5461 11.6538 16.6931 11.9898 16.6931C12.3363 16.6931 12.6408 16.5566 12.8613 16.3256L16.3158 12.8711C16.5363 12.6506 16.6833 12.3356 16.6833 11.9996C16.6833 11.6531 16.5468 11.3486 16.3158 11.1281C16.0953 10.9076 15.7803 10.7606 15.4443 10.7606C15.0978 10.7606 14.7933 10.8971 14.5728 11.1281L11.1183 14.5826C10.4568 15.2441 9.54334 15.6536 8.54584 15.6536C7.53784 15.6536 6.63484 15.2441 5.97334 14.5826C5.31184 13.9211 4.90234 13.0076 4.90234 12.0101C4.90234 11.0021 5.31184 10.0991 5.97334 9.43761L9.42784 5.98311C10.0893 5.32161 11.0028 4.91211 12.0003 4.91211C13.0083 4.91211 13.9113 5.32161 14.5728 5.98311L12.8718 7.68411C12.6513 7.46361 12.3363 7.31661 12.0003 7.31661C11.6538 7.31661 11.3493 7.45311 11.1288 7.68411L7.67434 11.1386C7.45384 11.3591 7.30684 11.6741 7.30684 12.0101C7.30684 12.3566 7.44334 12.6611 7.67434 12.8816C7.89484 13.1021 8.20984 13.2491 8.54584 13.2491C8.89234 13.2491 9.19684 13.1126 9.41734 12.8816L12.8718 9.42711C13.5333 8.76561 14.4468 8.35611 15.4443 8.35611C16.4418 8.35611 17.3553 8.76561 18.0168 9.42711C18.6783 10.0886 19.0878 11.0021 19.0878 11.9996C19.0878 13.0076 18.6783 13.9106 18.0168 14.5721L14.5203 18.0791Z" fill="white"/>
</svg>
