<svg width="16" height="16" viewBox="0 0 16 16" fill="none" xmlns="http://www.w3.org/2000/svg">
<circle cx="8" cy="8" r="6.5" fill="#2F2936" stroke="#A571E6"/>
<path fill-rule="evenodd" clip-rule="evenodd" d="M11.3536 8.14645C11.5488 8.34171 11.5488 8.65829 11.3536 8.85355L8.35355 11.8536C8.15829 12.0488 7.84171 12.0488 7.64645 11.8536L4.64645 8.85355C4.45118 8.65829 4.45118 8.34171 4.64645 8.14645C4.84171 7.95118 5.15829 7.95118 5.35355 8.14645L7.50002 10.2929L7.50002 4.5C7.50002 4.22386 7.72388 4 8.00002 4C8.27616 4 8.50002 4.22386 8.50002 4.5L8.50002 10.2929L10.6464 8.14645C10.8417 7.95118 11.1583 7.95118 11.3536 8.14645Z" fill="#A571E6"/>
</svg>
