<svg width="16" height="16" viewBox="0 0 16 16" fill="none" xmlns="http://www.w3.org/2000/svg">
<rect x="5.70117" y="12" width="4.6" height="1" fill="#6C707E"/>
<path d="M6 14H10C10 14.5523 9.55228 15 9 15H7C6.44772 15 6 14.5523 6 14Z" fill="#6C707E"/>
<path fill-rule="evenodd" clip-rule="evenodd" d="M10.8707 9.14748C12.042 8.27221 12.8002 6.87465 12.8002 5.3C12.8002 2.64903 10.6512 0.5 8.0002 0.5C5.34923 0.5 3.2002 2.64903 3.2002 5.3C3.2002 6.87464 3.95842 8.27218 5.12968 9.14746L5.50018 11H10.5002L10.8707 9.14748Z" fill="#FFAF0F"/>
<path d="M8.00795 9.08984C7.61564 9.08984 7.26839 9.01526 6.9662 8.86609C6.66402 8.71692 6.4281 8.50835 6.25845 8.2404C6.0888 7.97244 6.00265 7.66443 6 7.31636H6.8827C6.8827 7.50973 6.93042 7.681 7.02584 7.83018C7.12127 7.97658 7.25514 8.09123 7.42744 8.1741C7.59974 8.25697 7.79722 8.29841 8.01988 8.29841C8.23724 8.29841 8.4281 8.26111 8.59245 8.18653C8.75944 8.11194 8.88801 8.00559 8.97813 7.86747C9.06826 7.72935 9.11332 7.57051 9.11332 7.39095C9.11332 7.16443 9.04705 6.96968 8.91451 6.80669C8.78463 6.64371 8.61233 6.54288 8.39761 6.50421L7.46322 6.33846C7.19284 6.2915 6.95825 6.19343 6.75944 6.04426C6.56064 5.89509 6.40689 5.70863 6.29821 5.48487C6.19218 5.26111 6.13917 5.01664 6.13917 4.75145C6.13917 4.43377 6.21869 4.14924 6.37773 3.89785C6.53678 3.64647 6.75679 3.44896 7.03777 3.30531C7.32141 3.16167 7.64215 3.08984 8 3.08984C8.36315 3.08984 8.68655 3.16029 8.97018 3.30117C9.25646 3.43929 9.4778 3.63404 9.63419 3.88542C9.79324 4.13404 9.87409 4.41857 9.87674 4.73901H8.99801C8.99801 4.57327 8.95693 4.42548 8.87475 4.29564C8.79258 4.16305 8.67594 4.06084 8.52485 3.98902C8.37641 3.91719 8.20411 3.88128 8.00795 3.88128C7.81445 3.88128 7.64215 3.91581 7.49105 3.98487C7.34261 4.05393 7.22598 4.152 7.14115 4.27907C7.05898 4.40614 7.01789 4.55393 7.01789 4.72244C7.01789 4.91857 7.07886 5.08846 7.2008 5.23211C7.32538 5.37576 7.48708 5.46553 7.68588 5.50145L8.60835 5.66305C8.87873 5.71001 9.11995 5.81636 9.33201 5.98211C9.54407 6.14509 9.70842 6.34675 9.82505 6.58708C9.94168 6.82741 10 7.08294 10 7.35366C10 7.67962 9.91518 7.9752 9.74553 8.2404C9.57853 8.50283 9.34394 8.71001 9.04175 8.86194C8.73956 9.01388 8.39496 9.08984 8.00795 9.08984Z" fill="black"/>
</svg>
