<svg width="16" height="16" viewBox="0 0 16 16" fill="none" xmlns="http://www.w3.org/2000/svg">
<path d="M1.5 2C1.77614 2 2 2.22386 2 2.5V8.29289V9.70711V13H14.5C14.7761 13 15 13.2239 15 13.5C15 13.7761 14.7761 14 14.5 14H2C1.44772 14 1 13.5523 1 13V2.5C1 2.22386 1.22386 2 1.5 2Z" fill="#3574F0"/>
<path d="M14.8536 4.85355C15.0488 4.65829 15.0488 4.34171 14.8536 4.14645C14.6583 3.95118 14.3417 3.95118 14.1464 4.14645L9.5 8.79289L6.20711 5.5C5.81658 5.10948 5.18342 5.10948 4.79289 5.5L2 8.29289V9.70711L5.5 6.20711L8.79289 9.5C9.18342 9.89052 9.81658 9.89052 10.2071 9.5L14.8536 4.85355Z" fill="#3574F0"/>
</svg>
