<svg width="16" height="16" viewBox="0 0 16 16" fill="none" xmlns="http://www.w3.org/2000/svg">
<path fill-rule="evenodd" clip-rule="evenodd" d="M12 10H9.5V9H15.5V10H13V16H12V10Z" fill="#57965C"/>
<path d="M15 8C15 4.13401 11.866 1 8 1C4.13401 1 1 4.13401 1 8C1 11.866 4.13401 15 8 15C9.0736 15 10.0907 14.7583 11 14.3264V11H8.5V8H15Z" fill="#253627"/>
<path d="M11 13.1973C10.1175 13.7078 9.09286 14 8 14C4.68629 14 2 11.3137 2 8C2 4.68629 4.68629 2 8 2C11.3137 2 14 4.68629 14 8H15C15 4.13401 11.866 1 8 1C4.13401 1 1 4.13401 1 8C1 11.866 4.13401 15 8 15C9.0736 15 10.0907 14.7583 11 14.3264V13.1973Z" fill="#57965C"/>
<path d="M6.68265 5.99832C7.06335 5.37098 7.72702 5 8.57081 5C10.0291 5 11.0474 6.1155 11.0474 7.74269C11.0474 7.82996 11.0445 7.91576 11.0387 8H9.99063C9.99918 7.91658 10.0036 7.83074 10.0036 7.74269C10.0036 6.65278 9.33324 5.90058 8.36101 5.90058C7.38367 5.90058 6.70312 6.65278 6.70312 7.74269C6.70312 8.8326 7.38367 9.5848 8.36101 9.5848C8.40813 9.5848 8.45454 9.58303 8.50019 9.57954V10.4845C7.70466 10.4647 7.07593 10.1099 6.70312 9.52032V12H5.7002V5.12281H6.68265V5.99832Z" fill="#57965C"/>
</svg>
