<svg width="16" height="16" viewBox="0 0 16 16" fill="none" xmlns="http://www.w3.org/2000/svg">
<path d="M4 2C2.89543 2 2 2.89543 2 4V12C2 13.1046 2.89543 14 4 14H8.75772C8.2791 13.2851 8 12.4253 8 11.5C8 10.6716 8.67157 10 9.5 10C9.67532 10 9.84361 10.0301 10 10.0854V8.5C10 7.11929 11.1193 6 12.5 6C13.0628 6 13.5822 6.18597 14 6.49982V4C14 2.89543 13.1046 2 12 2H4Z" fill="#FFFAEB"/>
<path fill-rule="evenodd" clip-rule="evenodd" d="M7.5 5.5H5V4.5H11V5.5H8.5V11.5H7.5V5.5Z" fill="#C27D04"/>
<path fill-rule="evenodd" clip-rule="evenodd" d="M11 8.5C11 7.67157 11.6716 7 12.5 7C13.3284 7 14 7.67157 14 8.5V11.5C14 12.3284 13.3284 13 12.5 13C11.6716 13 11 12.3284 11 11.5V8.5ZM13 8.5V11.5C13 11.7761 12.7761 12 12.5 12C12.2239 12 12 11.7761 12 11.5V8.5C12 8.22386 12.2239 8 12.5 8C12.7761 8 13 8.22386 13 8.5Z" fill="#6C707E"/>
<path d="M9.5 11C9.77614 11 10 11.2239 10 11.5C10 12.8807 11.1193 14 12.5 14C13.8807 14 15 12.8807 15 11.5C15 11.2239 15.2239 11 15.5 11C15.7761 11 16 11.2239 16 11.5C16 13.2632 14.6961 14.7219 13 14.9646V15.5C13 15.7761 12.7761 16 12.5 16C12.2239 16 12 15.7761 12 15.5V14.9646C10.3039 14.7219 9 13.2632 9 11.5C9 11.2239 9.22386 11 9.5 11Z" fill="#6C707E"/>
<path d="M4 3H12C12.5523 3 13 3.44772 13 4V6.05001C13.3694 6.125 13.7093 6.28146 14 6.49982V4C14 2.89543 13.1046 2 12 2H4C2.89543 2 2 2.89543 2 4V12C2 13.1046 2.89543 14 4 14H8.75772C8.5512 13.6915 8.38183 13.3561 8.25599 13H4C3.44772 13 3 12.5523 3 12V4C3 3.44772 3.44772 3 4 3Z" fill="#C27D04"/>
</svg>
