<svg width="16" height="16" viewBox="0 0 16 16" fill="none" xmlns="http://www.w3.org/2000/svg">
<path d="M4 2C2.89543 2 2 2.89543 2 4V12C2 13.1046 2.89543 14 4 14H8V12C8 10.8954 8.89543 10 10 10H14V4C14 2.89543 13.1046 2 12 2H4Z" fill="#253627"/>
<path fill-rule="evenodd" clip-rule="evenodd" d="M7.5 5.5H5V4.5H11V5.5H8.5V11.5H7.5V5.5Z" fill="#57965C"/>
<path fill-rule="evenodd" clip-rule="evenodd" d="M14 15.0002C13.9999 15.5524 13.5522 16 13 16H10C9.44772 16 9 15.5523 9 15V12C9 11.4477 9.44772 11 10 11H13C13.5523 11 14 11.4477 14 12L15.2764 11.362C15.6088 11.1958 16 11.4375 16 11.8092V15.1912C16 15.5629 15.6088 15.8046 15.2764 15.6384L14 15.0002ZM10 12H13V15H10L10 12ZM14 13.8822L15 14.3822V12.6183L14 13.1183V13.8822Z" fill="#CED0D6"/>
<path d="M4 3H12C12.5523 3 13 3.44772 13 4V10H14V4C14 2.89543 13.1046 2 12 2H4C2.89543 2 2 2.89543 2 4V12C2 13.1046 2.89543 14 4 14H8V13H4C3.44772 13 3 12.5523 3 12V4C3 3.44772 3.44772 3 4 3Z" fill="#57965C"/>
</svg>
