<svg width="16" height="16" viewBox="0 0 16 16" fill="none" xmlns="http://www.w3.org/2000/svg">
<path fill-rule="evenodd" clip-rule="evenodd" d="M12.5 9C12.7761 9 13 9.22386 13 9.5V12H15.5C15.7761 12 16 12.2239 16 12.5C16 12.7761 15.7761 13 15.5 13H13V15.5C13 15.7761 12.7761 16 12.5 16C12.2239 16 12 15.7761 12 15.5V13H9.5C9.22386 13 9 12.7761 9 12.5C9 12.2239 9.22386 12 9.5 12H12V9.5C12 9.22386 12.2239 9 12.5 9Z" fill="#CED0D6"/>
<path d="M7.99998 1.5L14.5 4.5V8.00007L12.4998 8C11.6714 8 10.9998 8.67157 10.9998 9.5V11H8.5V14.2708L8 14.5L1.5 11.5199V4.5L7.99998 1.5Z" fill="#3D3223"/>
<path fill-rule="evenodd" clip-rule="evenodd" d="M8.2095 1.04602C8.07656 0.98466 7.92339 0.98466 7.79045 1.04602L1.29047 4.04602C1.1134 4.12775 1 4.30497 1 4.5V11.5199C1 11.7154 1.11392 11.8929 1.29162 11.9744L7.79162 14.9545C7.92392 15.0152 8.07608 15.0152 8.20838 14.9545L8.5 14.8208V7.81992L14 5.28145V8.00014L15 8V4.5C15 4.30497 14.8866 4.12775 14.7095 4.04602L8.2095 1.04602ZM2.69315 4.5L7.99998 2.05069L13.3068 4.5L8 6.94932L2.69315 4.5ZM7.5 7.81992V13.7207L2 11.1991V5.28145L7.5 7.81992Z" fill="#D6AE58"/>
</svg>
