<svg width="16" height="16" viewBox="0 0 16 16" fill="none" xmlns="http://www.w3.org/2000/svg">
<path d="M13 4C13.5523 4 14 3.55228 14 3C14 2.44772 13.5523 2 13 2C12.4477 2 12 2.44772 12 3C12 3.55228 12.4477 4 13 4Z" fill="#D6AE58"/>
<path d="M14 6C14 6.55228 13.5523 7 13 7C12.4477 7 12 6.55228 12 6C12 5.44772 12.4477 5 13 5C13.5523 5 14 5.44772 14 6Z" fill="#D6AE58"/>
<path d="M3 8C3.55228 8 4 7.55228 4 7C4 6.44772 3.55228 6 3 6C2.44772 6 2 6.44772 2 7C2 7.55228 2.44772 8 3 8Z" fill="#D6AE58"/>
<path d="M6 9C6.55228 9 7 8.55229 7 8C7 7.44772 6.55228 7 6 7C5.44772 7 5 7.44772 5 8C5 8.55229 5.44772 9 6 9Z" fill="#D6AE58"/>
<path d="M3 10C3 10.5523 2.55228 11 2 11C1.44772 11 1 10.5523 1 10C1 9.44771 1.44772 9 2 9C2.55228 9 3 9.44771 3 10Z" fill="#D6AE58"/>
<path d="M6 13C6.55228 13 7 12.5523 7 12C7 11.4477 6.55228 11 6 11C5.44772 11 5 11.4477 5 12C5 12.5523 5.44772 13 6 13Z" fill="#D6AE58"/>
<path d="M4 13C4 13.5523 3.55228 14 3 14C2.44772 14 2 13.5523 2 13C2 12.4477 2.44772 12 3 12C3.55228 12 4 12.4477 4 13Z" fill="#D6AE58"/>
<path d="M13 14C13.5523 14 14 13.5523 14 13C14 12.4477 13.5523 12 13 12C12.4477 12 12 12.4477 12 13C12 13.5523 12.4477 14 13 14Z" fill="#D6AE58"/>
<path d="M15 10C15 10.5523 14.5523 11 14 11C13.4477 11 13 10.5523 13 10C13 9.44771 13.4477 9 14 9C14.5523 9 15 9.44771 15 10Z" fill="#D6AE58"/>
<path d="M11 10C11.5523 10 12 9.55229 12 9C12 8.44771 11.5523 8 11 8C10.4477 8 10 8.44771 10 9C10 9.55229 10.4477 10 11 10Z" fill="#D6AE58"/>
<path d="M11 2C11 2.55228 10.5523 3 10 3C9.44771 3 9 2.55228 9 2C9 1.44772 9.44771 1 10 1C10.5523 1 11 1.44772 11 2Z" fill="#D6AE58"/>
<path d="M7 4C7.55228 4 8 3.55228 8 3C8 2.44772 7.55228 2 7 2C6.44772 2 6 2.44772 6 3C6 3.55228 6.44772 4 7 4Z" fill="#D6AE58"/>
<path d="M11 5C11 5.55228 10.5523 6 10 6C9.44771 6 9 5.55228 9 5C9 4.44772 9.44771 4 10 4C10.5523 4 11 4.44772 11 5Z" fill="#D6AE58"/>
<path d="M10 13C10.5523 13 11 12.5523 11 12C11 11.4477 10.5523 11 10 11C9.44771 11 9 11.4477 9 12C9 12.5523 9.44771 13 10 13Z" fill="#D6AE58"/>
</svg>
