<svg width="20" height="20" viewBox="0 0 20 20" fill="none" xmlns="http://www.w3.org/2000/svg">
<path d="M10 13H5V14.5H10V13Z" fill="#6C707E"/>
<path d="M10.75 6.5H12.5V11H14V6.5H15.75V5.00335L10.75 5V6.5Z" fill="#6C707E"/>
<path d="M6.49956 9.19418L4.16992 5H5.88578L7.24972 7.45557L8.61431 5H10.3304L7.99956 9.19426V10.9999H6.49956V9.19418Z" fill="#6C707E"/>
<path fill-rule="evenodd" clip-rule="evenodd" d="M2 4C2 2.89543 2.89543 2 4 2H16C17.1046 2 18 2.89543 18 4V16C18 17.1046 17.1046 18 16 18H4C2.89543 18 2 17.1046 2 16V4ZM4 3.5H16C16.2761 3.5 16.5 3.72386 16.5 4V16C16.5 16.2761 16.2761 16.5 16 16.5H4C3.72386 16.5 3.5 16.2761 3.5 16V4C3.5 3.72386 3.72386 3.5 4 3.5Z" fill="#6C707E"/>
</svg>
