<svg width="20" height="20" viewBox="0 0 20 20" fill="none" xmlns="http://www.w3.org/2000/svg">
<path fill-rule="evenodd" clip-rule="evenodd" d="M14.0009 18.9999C14.5532 18.9999 15.0009 18.5522 15.0009 17.9999V14.9999H18.0009C18.5532 14.9999 19.0009 14.5522 19.0009 13.9999V9.41411C19.0009 9.14889 18.8955 8.89454 18.708 8.707L11.8749 1.87393C11.3392 1.33826 10.5469 1.15122 9.82824 1.39077L4.44955 3.18367C3.85234 3.38274 3.38371 3.85137 3.18464 4.44858L1.39175 9.82726C1.15219 10.5459 1.33924 11.3383 1.8749 11.8739L8.70798 18.707C8.89551 18.8945 9.14987 18.9999 9.41508 18.9999H14.0009ZM6.56164 5.5L14.5615 13.4999H17.5009V9.62121L13.3797 5.5H6.56164ZM5.50098 6.56066L13.5009 14.5606V17.4999H9.62219L5.50098 13.3787V6.56066ZM4.00098 6.743V11.8787L2.93556 10.8133C2.80165 10.6794 2.75489 10.4813 2.81478 10.3016L4.00098 6.743ZM6.74397 4H11.8797L10.8142 2.93459C10.6803 2.80067 10.4822 2.75391 10.3026 2.8138L6.74397 4Z" fill="#6C707E"/>
</svg>
