<svg width="20" height="20" viewBox="0 0 20 20" fill="none" xmlns="http://www.w3.org/2000/svg">
<path d="M6.2924 10.2267C6.10452 10.233 5.92266 10.2945 5.7695 10.4034C5.61634 10.5124 5.49865 10.6641 5.43111 10.8395C5.36357 11.0149 5.34918 11.2064 5.38972 11.3899C5.43025 11.5735 5.52394 11.741 5.65908 11.8717C5.79422 12.0024 5.96483 12.0904 6.14965 12.1247C6.33447 12.159 6.5253 12.1382 6.69836 12.0648C6.87141 11.9914 7.01902 11.8687 7.12279 11.7119C7.22655 11.5552 7.28187 11.3713 7.28185 11.1834C7.27712 10.9254 7.17031 10.6799 6.98484 10.5005C6.79937 10.3212 6.55036 10.2227 6.2924 10.2267Z" fill="#6C707E"/>
<path d="M13.849 10.1984C13.6612 10.2047 13.4793 10.2661 13.3261 10.3751C13.173 10.4841 13.0553 10.6358 12.9878 10.8112C12.9202 10.9866 12.9058 11.1781 12.9464 11.3616C12.9869 11.5452 13.0806 11.7127 13.2157 11.8434C13.3509 11.9741 13.5215 12.062 13.7063 12.0964C13.8911 12.1307 14.0819 12.1099 14.255 12.0365C14.4281 11.9631 14.5757 11.8403 14.6794 11.6836C14.7832 11.5269 14.8385 11.343 14.8385 11.155C14.8338 10.8971 14.727 10.6515 14.5415 10.4722C14.356 10.2929 14.107 10.1944 13.849 10.1984Z" fill="#6C707E"/>
<path fill-rule="evenodd" clip-rule="evenodd" d="M6.64975 2.94543L7.17853 4.86974C8.09778 4.63081 9.04173 4.49972 9.9913 4.47911C10.9357 4.48383 11.8766 4.60014 12.7936 4.82592L13.3262 2.97421C13.1671 2.88372 13.0347 2.75296 12.9421 2.59508C12.8495 2.43719 12.8 2.25773 12.7987 2.07471C12.8056 1.79121 12.9231 1.52165 13.126 1.32359C13.329 1.12552 13.6013 1.01465 13.8849 1.01465C14.1685 1.01465 14.4408 1.12552 14.6438 1.32359C14.8467 1.52165 14.9642 1.79121 14.9711 2.07471C14.967 2.34111 14.8632 2.59632 14.6801 2.78988C14.4971 2.98344 14.248 3.10127 13.9822 3.12006L13.4406 5.0071C15.496 5.65603 17.7088 7.10103 17.7088 10.32C17.6933 14.8126 11.4257 18.9988 9.99206 18.9996C8.55927 18.9996 2.33468 14.9018 2.28906 10.3201C2.28906 7.15063 4.52819 5.69985 6.59192 5.03743L6.06186 3.10991C5.77952 3.11335 5.50731 3.00482 5.30478 2.80808C5.10226 2.61133 4.9859 2.34238 4.98116 2.06006C4.98806 1.77657 5.10552 1.507 5.30846 1.30894C5.5114 1.11087 5.78374 1 6.06732 1C6.35089 1 6.62323 1.11087 6.82617 1.30894C7.02912 1.507 7.14658 1.77657 7.15347 2.06006C7.1526 2.23847 7.10579 2.41365 7.01756 2.56872C6.92934 2.72379 6.80267 2.85352 6.64975 2.94543ZM3.51628 8.98878C2.72022 11.6115 7.41436 15.284 8.27082 14.2458L8.27275 14.2477C9.49544 12.3568 8.97886 7.96013 5.78433 7.33175C5.26768 7.27509 4.74852 7.41367 4.32885 7.72028C3.90919 8.02689 3.61934 8.47936 3.51628 8.98878ZM14.4197 7.33134C11.2246 7.95971 10.7105 12.3564 11.9313 14.2453C12.7878 15.2817 17.4813 11.6111 16.6839 8.98837C16.5809 8.47968 16.2916 8.0278 15.8728 7.72128C15.454 7.41476 14.9358 7.2757 14.4197 7.33134Z" fill="#6C707E"/>
</svg>
