<svg width="20" height="20" viewBox="0 0 20 20" fill="none" xmlns="http://www.w3.org/2000/svg">
<path d="M4.75 6.5H6.5V11H8V6.5H9.75V5.00335L4.75 5V6.5Z" fill="#CED0D6"/>
<path d="M12.9854 5C11.2683 5 10 6.33171 10 8C10 9.6683 11.2683 11 12.9854 11C14.1073 11 14.7805 10.6 15.3756 9.96586L14.5561 9.14635C14.0976 9.56586 13.6878 9.82928 13.0244 9.82928C12.0293 9.82928 11.3366 8.99513 11.3366 8C11.3366 7.00488 12.0293 6.17073 13.0244 6.17073C13.6878 6.17073 14.0976 6.43415 14.5561 6.85366L15.3756 6.03415C14.7805 5.4 14.1073 5 12.9854 5Z" fill="#CED0D6"/>
<path d="M10 13H5V14.5H10V13Z" fill="#CED0D6"/>
<path fill-rule="evenodd" clip-rule="evenodd" d="M16 2H4C2.89543 2 2 2.89543 2 4V16C2 17.1046 2.89543 18 4 18H16C17.1046 18 18 17.1046 18 16V4C18 2.89543 17.1046 2 16 2ZM4 3.5H16C16.2761 3.5 16.5 3.72386 16.5 4V16C16.5 16.2761 16.2761 16.5 16 16.5H4C3.72386 16.5 3.5 16.2761 3.5 16V4C3.5 3.72386 3.72386 3.5 4 3.5Z" fill="#CED0D6"/>
</svg>
