<svg width="16" height="16" viewBox="0 0 16 16" fill="none" xmlns="http://www.w3.org/2000/svg">
<path fill-rule="evenodd" clip-rule="evenodd" d="M5 3.875V12.125C5 12.6082 5.39175 13 5.875 13H7C9.76142 13 12 10.7614 12 8C12 5.23858 9.76142 3 7 3H5.875C5.39175 3 5 3.39175 5 3.875ZM7 12H6V4H7C9.20914 4 11 5.79086 11 8C11 10.2091 9.20914 12 7 12Z" fill="#CED0D6"/>
<path fill-rule="evenodd" clip-rule="evenodd" d="M3 3V13C3 14.1046 3.89543 15 5 15H7C10.866 15 14 11.866 14 8C14 4.13401 10.866 1 7 1H5C3.89543 1 3 1.89543 3 3ZM4 13V3C4 2.44772 4.44772 2 5 2H7C10.3137 2 13 4.68629 13 8C13 11.3137 10.3137 14 7 14H5C4.44772 14 4 13.5523 4 13Z" fill="#CED0D6"/>
</svg>
