<svg width="20" height="20" viewBox="0 0 20 20" fill="none" xmlns="http://www.w3.org/2000/svg">
<path d="M2 2.75C2 2.33579 2.33579 2 2.75 2C3.16421 2 3.5 2.33579 3.5 2.75V17.25C3.5 17.6642 3.16421 18 2.75 18C2.33579 18 2 17.6642 2 17.25V2.75Z" fill="#CED0D6"/>
<path d="M5 3.75C5 3.33579 5.33579 3 5.75 3C6.16421 3 6.5 3.33579 6.5 3.75V16.25C6.5 16.6642 6.16421 17 5.75 17C5.33579 17 5 16.6642 5 16.25V3.75Z" fill="#CED0D6"/>
<path d="M8 5.25C8 4.83579 8.33579 4.5 8.75 4.5C9.16421 4.5 9.5 4.83579 9.5 5.25V14.75C9.5 15.1642 9.16421 15.5 8.75 15.5C8.33579 15.5 8 15.1642 8 14.75V5.25Z" fill="#CED0D6"/>
<path d="M17 3.75C17 3.33579 17.3358 3 17.75 3C18.1642 3 18.5 3.33579 18.5 3.75V16.25C18.5 16.6642 18.1642 17 17.75 17C17.3358 17 17 16.6642 17 16.25V3.75Z" fill="#CED0D6"/>
<path d="M14 5.75C14 5.33579 14.3358 5 14.75 5C15.1642 5 15.5 5.33579 15.5 5.75V14.25C15.5 14.6642 15.1642 15 14.75 15C14.3358 15 14 14.6642 14 14.25V5.75Z" fill="#CED0D6"/>
<path d="M11 6.75C11 6.33579 11.3358 6 11.75 6C12.1642 6 12.5 6.33579 12.5 6.75V13.25C12.5 13.6642 12.1642 14 11.75 14C11.3358 14 11 13.6642 11 13.25V6.75Z" fill="#CED0D6"/>
</svg>
