<svg width="20" height="20" viewBox="0 0 20 20" fill="none" xmlns="http://www.w3.org/2000/svg">
<path fill-rule="evenodd" clip-rule="evenodd" d="M7 5V15C7 15.5523 7.44772 16 8 16H9C12.3137 16 15 13.3137 15 10C15 6.68629 12.3137 4 9 4H8C7.44772 4 7 4.44772 7 5ZM9 14.5H8.5V5.5H9C11.4853 5.5 13.5 7.51472 13.5 10C13.5 12.4853 11.4853 14.5 9 14.5Z" fill="#6C707E"/>
<path fill-rule="evenodd" clip-rule="evenodd" d="M4 3V17C4 18.1046 4.89543 19 6 19H9C13.9706 19 18 14.9706 18 10C18 5.02944 13.9706 1 9 1H6C4.89543 1 4 1.89543 4 3ZM5.5 17V3C5.5 2.72386 5.72386 2.5 6 2.5H9C13.1421 2.5 16.5 5.85786 16.5 10C16.5 14.1421 13.1421 17.5 9 17.5H6C5.72386 17.5 5.5 17.2761 5.5 17Z" fill="#6C707E"/>
</svg>
