<svg width="20" height="20" viewBox="0 0 20 20" fill="none" xmlns="http://www.w3.org/2000/svg">
<path fill-rule="evenodd" clip-rule="evenodd" d="M8.69621 14.525C8.75268 14.2158 8.92208 13.9065 8.80914 13.6591C8.75887 13.8512 8.47033 14.1539 8.35739 14.2776C8.24446 14.4013 8.24446 14.4013 8.01858 14.525C7.26861 14.6928 6.62293 14.6716 5.87276 14.525C5.52037 14.4631 4.67932 13.8863 4.63045 13.6591C4.61563 13.9136 4.63045 14.1539 4.85632 14.525C5.0822 14.8961 5.0822 15.2672 5.0822 15.5146C5.0822 15.762 4.9317 15.9698 4.74339 16.3804C4.75903 16.6395 4.80624 16.753 4.74339 16.9989C4.63883 17.4077 4.23103 17.206 3.95282 17.1226C3.61026 17.0199 3.09709 17.0043 3.27519 16.5041C3.43196 16.0639 3.42448 15.3884 3.50107 14.7724C2.87344 13.7821 2.37073 12.635 2.25875 11.4326C2.17179 10.4989 2.30017 9.90084 2.48463 9.32975C2.77691 8.42492 3.0708 7.85763 3.72695 7.22691C4.61196 6.37637 5.02915 6.20588 6.32451 5.98995C6.01303 6.37185 6.00629 6.41531 5.67037 6.84834C5.33031 7.2868 5.12821 7.7296 4.91232 8.2091C4.61403 8.87141 4.62041 9.12343 5.01586 9.70483C5.35662 10.2059 5.54058 10.4315 5.68935 10.9217C5.56647 11.1992 5.52181 11.4336 5.48048 11.8124C5.89773 12.3119 6.20776 12.6542 6.61287 12.7596C7.01023 12.8631 7.34209 12.843 7.69756 12.644C8.48716 12.2018 9.38666 11.5799 10.2773 11.5563C10.6894 10.4467 10.4788 9.57076 10.281 8.49725C10.1459 7.76412 9.98057 6.98477 9.93852 6.23734C9.61509 6.83251 9.36287 8.06826 9.48677 8.83497C9.63621 9.75898 9.59971 10.0719 9.48677 10.5667C8.92208 10.6904 8.85743 10.8971 8.13152 11.3089C7.83977 11.4745 7.11508 11.68 6.77626 11.5563C6.43745 11.4326 6.60456 11.0613 6.77626 10.6904C7.05218 10.0947 7.79734 7.38013 8.13152 6.79398C7.72228 7.33503 6.42072 9.40433 6.09864 9.94823C5.97552 9.56404 5.87276 9.32975 5.64689 9.08236C5.42101 8.83497 6.08655 7.59609 6.45103 7.16507C7.0808 6.4202 7.21693 5.98133 7.90564 5.24777C8.27956 4.84947 8.47033 4.75299 8.92208 4.5056C9.37383 4.2582 10.046 4.37454 10.5032 4.2582C10.2773 4.01081 10.0515 3.88711 9.71265 3.88711C10.0515 3.26863 10.2671 3.22488 10.955 2.89754C11.8137 2.48903 12.001 2.44773 12.5361 2.46461C13.0563 2.48102 13.3485 2.60303 14.0043 3.20678C14.3491 3.52423 14.6711 3.67508 15.0207 3.94896C14.894 3.96084 15.1383 4.07984 14.9938 4.142C15.1697 4.1053 15.1771 4.15983 15.3595 4.19635C15.4108 4.23274 15.4578 4.23146 15.5854 4.32005C15.8256 4.48683 15.9832 4.56011 16.1501 4.81484C16.3265 5.08401 16.4027 5.50054 16.3488 5.49485C16.242 5.48361 16.1399 5.51236 16.0548 5.56973C16.0514 5.57148 16.048 5.57318 16.0445 5.57502C15.908 5.6478 15.6965 5.73079 15.555 5.75596C15.6271 5.78325 15.7868 5.79346 15.8621 5.76083C15.8722 5.75642 15.8825 5.75309 15.893 5.75032C15.859 5.81362 15.8368 5.88554 15.83 5.96321C15.821 6.06618 15.8401 6.16501 15.8805 6.25083C15.8937 6.28466 15.9115 6.31506 15.931 6.33694C15.8663 6.363 15.8003 6.39285 15.7322 6.42523C16.0478 6.37257 16.1809 6.37842 16.4889 6.42289C16.5092 6.52924 16.6812 6.62701 16.7002 6.74165C16.662 6.74498 16.6239 6.74814 16.5858 6.75143C16.5827 6.75173 16.5796 6.75203 16.5765 6.75233C16.4308 6.62475 16.2684 6.64619 16.0466 6.70164C15.372 6.87013 15.5305 7.28475 15.2201 7.90944C15.5423 7.47799 15.5185 7.0266 16.0436 6.89039C16.166 6.85865 16.2493 6.81896 16.3321 6.8326C16.183 6.91474 16.054 7.05086 16.0029 7.20894C15.8588 7.65474 15.9483 8.03036 15.7899 8.44673C15.9861 8.07452 15.9979 7.71124 16.1733 7.31965C16.2363 7.17896 16.4701 6.95378 16.6136 6.95031C16.653 6.94941 16.6923 6.94847 16.7317 6.94754C16.7663 7.19535 16.7282 7.57946 16.7148 7.78355C16.6903 8.15591 16.5418 8.56165 16.4889 8.77312C16.7148 8.83497 17.0536 8.58757 17.2795 7.96909C17.5054 7.35061 17.4636 6.90192 17.3924 6.48474C17.2948 5.91229 17.5317 6.32156 17.8442 6.0518C18.0739 5.85344 18.3112 5.53396 18.5218 5.30962C18.7307 5.08717 18.905 5.58691 18.9871 5.80441C19.3434 6.74845 19.2935 7.51223 19.1994 8.46388C19.0938 9.53175 18.7177 10.4739 17.8577 10.9997C16.7615 11.6698 15.5588 11.2778 14.4696 10.876C14.2371 10.7902 13.8834 10.6459 13.679 10.5049C13.7347 10.7793 13.6868 11.3366 13.679 11.6181C13.6655 12.1129 13.7277 12.333 13.866 12.4704C14.0043 12.6077 14.0817 12.6077 14.2302 12.6077C14.456 12.6077 14.7948 12.484 14.9078 12.2366C15.0207 11.9892 15.0207 11.9274 15.0207 11.8037C15.1033 11.8316 15.2719 11.9042 15.3595 11.9274C15.3595 11.9274 15.282 12.0797 15.2326 12.2564C15.1041 12.7153 14.6819 13.1025 14.2302 13.1025C13.7784 13.1025 13.4947 12.7886 13.2128 12.5139C13.0185 12.3246 12.8316 12.1435 12.6463 11.9642C12.1381 11.7885 11.9914 11.444 11.5197 11.0615C11.4067 11.8037 11.5197 12.0511 11.9714 12.4222C11.9033 13.1828 11.7319 13.5354 11.5197 14.0302C11.3834 14.3477 10.707 15.5096 10.5032 15.6383C10.3579 15.7299 9.65801 16.5171 9.48677 16.6278C9.35928 16.8133 9.22669 17.1354 9.03502 17.2463C8.4509 17.5846 8.2784 17.3207 8.01858 16.7515C7.90564 16.5041 7.79271 16.2567 8.01858 16.133C8.24446 16.0094 8.48391 15.6383 8.58327 15.5146C8.68263 15.3909 8.63974 14.8342 8.69621 14.525ZM12.1973 14.525C12.1429 14.7554 11.9714 15.0198 11.8585 15.2672C11.7455 15.5146 11.4845 15.967 11.2938 16.133C11.3309 16.1658 11.4482 16.2733 11.5696 16.2858C11.6555 16.2946 11.994 16.2964 12.079 16.2982C12.2661 16.302 12.3372 16.2853 12.3561 16.0326C12.3653 15.9089 12.3572 15.8858 12.305 15.7774C12.3004 15.5839 12.2958 15.3905 12.2912 15.197C12.2868 15.0137 12.2223 14.6213 12.1973 14.525ZM2.4576 14.9673L2.45752 14.9762C2.43833 15.0643 2.41611 15.1501 2.36954 15.2189C2.15049 15.5425 1.59326 15.0675 1.43197 14.8857C1.25566 14.6869 1.13765 14.4515 1.10955 14.2307C1.08912 14.0696 1.10895 14.0657 1.21071 13.9518C1.34785 13.7985 1.48513 13.6451 1.62221 13.4918C1.65222 13.4032 1.68234 13.3147 1.71235 13.2262C1.87468 13.8461 2.15113 14.4552 2.4576 14.9673ZM9.67384 17.6119C9.49123 17.9104 9.46869 18.0951 9.17614 18.2686C8.30526 18.7847 7.84306 18.1861 7.32753 17.316C7.08189 16.9014 6.54482 15.9548 7.11475 15.6339C7.35488 15.4987 7.53689 15.3973 7.71844 15.2815C7.12053 15.3628 6.53373 15.3637 5.92356 15.2632C5.93436 15.3438 5.94378 15.4206 5.9514 15.4909C5.99106 15.8561 5.9857 16.0094 5.87276 16.2567C5.75983 16.5041 5.64689 16.6278 5.53395 16.7515C5.56297 17.0684 5.61558 17.4711 5.53395 17.8029C5.35247 18.5405 3.97635 18.0892 3.46393 17.9374C2.84736 17.7548 1.96633 17.5847 2.32784 16.7165C2.41255 16.5131 2.47908 16.3051 2.52913 16.1066C1.99001 16.368 1.2408 15.8136 0.883975 15.4218C0.544579 15.0491 0.360213 14.6163 0.295978 14.1963C0.241276 13.8389 0.291362 13.8406 0.524246 13.5879C0.7373 13.357 0.950282 13.1257 1.16328 12.8948C1.24928 12.6384 1.33545 12.3822 1.42141 12.1259C1.38791 11.9345 1.363 11.7435 1.34816 11.5544C1.28628 10.7659 1.30708 10.2044 1.40992 9.68823C1.03479 9.84855 0.604342 9.77345 0.412887 9.3374C0.340081 9.17163 0.296711 9.00278 0.241722 8.75764C-0.595093 7.87456 0.973074 6.71686 1.43054 6.6298C1.37824 6.79257 1.32094 6.94147 1.27051 7.08911C1.58076 7.26502 1.54272 7.76624 1.47685 8.08894C1.36524 7.93469 1.30357 7.73298 1.13942 7.72432C1.11538 8.08926 1.11953 8.49253 0.859314 8.70679C0.936347 8.93233 0.932307 8.93252 1.15124 8.84032C1.46218 8.7092 1.69632 8.41712 1.93185 8.13207C2.18551 7.59089 2.51067 7.10948 2.95799 6.67511C4.05722 5.6077 5.09625 5.25848 6.76929 4.96646C6.99198 4.71193 7.22211 4.46634 7.46913 4.22754C7.8038 3.90409 8.02109 3.83693 8.33761 3.81885C8.86137 3.05153 9.27348 2.51717 10.1274 2.12349C11.9173 1.29832 13.1511 1.25854 14.5877 2.55593C15.0624 2.98461 15.4673 3.43638 15.9891 3.79425C16.2531 3.97534 16.4418 4.10551 16.642 4.36661C16.8938 4.69518 17.0994 5.02377 17.2425 5.4467C17.4274 5.36336 17.6382 5.28483 17.8085 5.12544C18.0283 4.91971 18.1682 4.57536 18.3718 4.34932C18.6421 4.04936 19.2585 4.41147 19.395 4.69764C19.8593 5.67082 20.0474 6.90035 19.99 7.96909C19.877 10.0719 19.3324 11.0958 18.2718 11.7158C17.5507 12.1372 16.7525 12.3463 15.9242 12.1748C15.8113 12.9169 15.1337 13.9065 14.3431 13.9065C13.5525 13.9065 13.5525 13.7828 13.2137 13.5354C12.9942 13.3751 12.7475 13.1176 12.7335 13.1493C12.7043 13.2152 12.6623 13.2681 12.649 13.3499C12.7919 13.6588 12.7171 13.4144 12.8394 13.7328C12.9739 14.0835 13.0393 14.3137 13.0486 14.689C13.0567 15.0222 13.0648 15.3555 13.073 15.6887C13.2087 15.9527 13.2206 16.017 13.2008 16.3191C13.159 16.9559 12.8388 17.0167 12.3051 17.013C12.1273 17.0118 11.4561 17.0163 11.2851 17.0028C10.945 16.9759 10.7208 16.9474 10.6036 16.7936C10.2945 17.0671 9.77469 17.5512 9.67384 17.6119ZM12.6121 7.17276C12.5623 7.05882 12.5385 6.93859 12.5377 6.81985C12.3544 6.97961 12.1553 7.13106 11.9486 7.21857C12.2339 6.94038 12.6216 6.28429 12.9025 6.07718C13.2212 5.84206 13.6538 5.88784 14.0255 5.70016C13.8986 5.82602 13.736 5.92742 13.5704 6.02394C13.7528 6.09682 13.9104 6.24426 14.0003 6.45004C14.0382 6.53683 14.0609 6.62744 14.0701 6.71811C14.3197 6.62859 14.5649 6.58622 14.772 6.58947C14.0312 6.81647 13.2433 7.34736 12.7 8.05039C12.761 7.86705 12.8463 7.70159 12.949 7.55383C12.8066 7.47258 12.6864 7.34268 12.6121 7.17276Z" fill="#CED0D6"/>
</svg>
