<svg width="20" height="20" viewBox="0 0 20 20" fill="none" xmlns="http://www.w3.org/2000/svg">
<circle cx="15.5" cy="15.5" r="3.75" stroke="#CED0D6" stroke-width="1.5"/>
<circle cx="15.5" cy="15.5" r="1.5" fill="#CED0D6"/>
<path fill-rule="evenodd" clip-rule="evenodd" d="M6.53744 5.51374C6.51277 5.34607 6.5 5.17453 6.5 5C6.5 3.067 8.067 1.5 10 1.5C11.933 1.5 13.5 3.067 13.5 5C13.5 5.17453 13.4872 5.34607 13.4626 5.51374C14.0451 5.84241 14.5371 6.31288 14.8916 6.87831L17.1449 5.66673C17.5097 5.47057 17.9645 5.6073 18.1606 5.97212C18.3568 6.33694 18.2201 6.7917 17.8552 6.98786L15.4369 8.28819C15.4783 8.51919 15.5 8.75706 15.5 9V9.5C14.9821 9.5 14.4794 9.56563 14 9.68903V9C14 7.61929 12.8807 6.5 11.5 6.5H8.5C7.11929 6.5 6 7.61929 6 9V12.5C6 14.5671 7.56792 16.2679 9.57933 16.4781C9.66693 17.0124 9.82511 17.5229 10.044 17.9998C10.0293 17.9999 10.0147 18 10 18C7.90206 18 6.07848 16.8254 5.15102 15.0979L2.85315 16.3335C2.48833 16.5296 2.03357 16.3929 1.83741 16.0281C1.64125 15.6632 1.77798 15.2085 2.1428 15.0123L4.62623 13.677C4.54356 13.2978 4.5 12.904 4.5 12.5V11.7501H1.5C1.08579 11.7501 0.75 11.4143 0.75 11.0001C0.75 10.5859 1.08579 10.2501 1.5 10.2501H4.5V9C4.5 8.7574 4.5216 8.51984 4.56297 8.28915L2.1428 6.98786C1.77798 6.7917 1.64125 6.33694 1.83741 5.97212C2.03357 5.6073 2.48833 5.47057 2.85315 5.66673L5.10795 6.87909C5.46246 6.31331 5.95459 5.84256 6.53744 5.51374ZM8.00023 5.03092L8 5C8 3.89543 8.89543 3 10 3C11.1046 3 12 3.89543 12 5L11.9998 5.03092C11.836 5.01051 11.6692 5 11.5 5H8.5C8.33075 5 8.16396 5.01051 8.00023 5.03092Z" fill="#CED0D6"/>
</svg>
