<svg width="16" height="16" viewBox="0 0 16 16" fill="none" xmlns="http://www.w3.org/2000/svg">
<path d="M6 1H9V2H6V1Z" fill="#CED0D6"/>
<path d="M6 3H5V2H6V3Z" fill="#CED0D6"/>
<path d="M6 4V3H7V4H6Z" fill="#CED0D6"/>
<path d="M5 5V4H6V5H5Z" fill="#CED0D6"/>
<path d="M4 6V5H5V6H4Z" fill="#CED0D6"/>
<path d="M3 7V6H4V7H3Z" fill="#CED0D6"/>
<path d="M2 9V7H3V9H2Z" fill="#CED0D6"/>
<path d="M2 13H1V9H2V13Z" fill="#CED0D6"/>
<path d="M3 14H2V13H3V14Z" fill="#CED0D6"/>
<path fill-rule="evenodd" clip-rule="evenodd" d="M11 13V14H3V15H13V14H14V13H13V12H14V11H15V9H14V7H13V6H12V5H11V3H10V2H9V3H10V5H11V6H10V7H9V9H6V10H5V11H6V10H9V9H10V7H11V6H12V7H13V9H11V10H13V9H14V11H13V12H12V11H10V12H9V11H7V12H9V13H11ZM12 13V12H11V13H12ZM12 13V14H13V13H12Z" fill="#CED0D6"/>
</svg>
