<svg width="20" height="20" viewBox="0 0 20 20" fill="none" xmlns="http://www.w3.org/2000/svg">
<path d="M16.5 4V8.9391C17.0231 9.14374 17.5258 9.41447 18 9.73977V4C18 2.89543 17.1046 2 16 2H4C2.89543 2 2 2.89543 2 4V16C2 17.1046 2.89543 18 4 18H9.6864C9.37289 17.5276 9.11232 17.0243 8.91597 16.5H4C3.72386 16.5 3.5 16.2761 3.5 16V4C3.5 3.72386 3.72386 3.5 4 3.5H16C16.2761 3.5 16.5 3.72386 16.5 4Z" fill="#6C707E"/>
<path fill-rule="evenodd" clip-rule="evenodd" d="M18.7003 18.7223C20.7692 16.6534 20.2045 13.8632 18.1579 11.8167C16.1114 9.77022 13.2876 9.26143 11.2635 11.2856C9.23931 13.3097 9.82136 16.2401 11.7779 18.1967C13.7345 20.1532 16.6314 20.7911 18.7003 18.7223ZM18.4821 15.4313C18.3908 14.6317 17.9407 13.7209 17.0973 12.8774C16.2634 12.0436 15.3491 11.6024 14.5427 11.5161C13.9951 11.4575 13.4483 11.5543 12.9283 11.8677L18.121 17.0603C18.4499 16.526 18.5442 15.9754 18.4821 15.4313ZM17.0615 18.1221L11.8665 12.9271C11.5525 13.4518 11.4541 14.0203 11.5187 14.6004C11.6123 15.4404 12.0614 16.3589 12.8386 17.136C13.6253 17.9227 14.5407 18.3807 15.3735 18.4794C15.9501 18.5477 16.5225 18.4517 17.0615 18.1221Z" fill="#6C707E"/>
</svg>
