<svg width="20" height="20" viewBox="0 0 20 20" fill="none" xmlns="http://www.w3.org/2000/svg">
<path fill-rule="evenodd" clip-rule="evenodd" d="M19.7803 14.2197C20.0732 14.5126 20.0732 14.9874 19.7803 15.2803L15.2803 19.7803C14.9874 20.0732 14.5126 20.0732 14.2197 19.7803L11.7197 17.2803C11.4268 16.9874 11.4268 16.5126 11.7197 16.2197C12.0126 15.9268 12.4874 15.9268 12.7803 16.2197L14.75 18.1893L18.7197 14.2197C19.0126 13.9268 19.4874 13.9268 19.7803 14.2197Z" fill="#6C707E"/>
<path d="M2.6484 9.64419L9.64614 2.64645C9.84141 2.45118 10.158 2.45118 10.3533 2.64645L17.351 9.64419C17.5463 9.83945 17.5463 10.156 17.351 10.3513L13.1922 14.5101L14.2528 15.5708L18.4117 11.412C19.1927 10.6309 19.1927 9.36458 18.4117 8.58353L11.4139 1.58579C10.6329 0.804738 9.36653 0.804738 8.58548 1.58579L1.58774 8.58353C0.806691 9.36458 0.806691 10.6309 1.58774 11.412L8.58548 18.4097C9.24822 19.0724 10.2604 19.1728 11.0289 18.7109L9.74236 17.4243C9.70807 17.4037 9.67572 17.3786 9.64614 17.349L2.6484 10.3513C2.45314 10.156 2.45314 9.83945 2.6484 9.64419Z" fill="#6C707E"/>
</svg>
