<svg width="20" height="20" viewBox="0 0 20 20" fill="none" xmlns="http://www.w3.org/2000/svg">
<path fill-rule="evenodd" clip-rule="evenodd" d="M17.2481 18.3089C16.6075 18.7451 15.8335 19 15 19C12.7909 19 11 17.2091 11 15C11 12.7909 12.7909 11 15 11C17.2091 11 19 12.7909 19 15C19 15.8336 18.745 16.6076 18.3088 17.2483L19.7803 18.7198C20.0732 19.0127 20.0732 19.4875 19.7803 19.7804C19.4874 20.0733 19.0126 20.0733 18.7197 19.7804L17.2481 18.3089ZM17.5 15C17.5 16.3807 16.3807 17.5 15 17.5C13.6193 17.5 12.5 16.3807 12.5 15C12.5 13.6193 13.6193 12.5 15 12.5C16.3807 12.5 17.5 13.6193 17.5 15Z" fill="#CED0D6"/>
<path d="M5.75 2C6.16421 2 6.5 2.33579 6.5 2.75V5L13.5 5V2.75C13.5 2.33579 13.8358 2 14.25 2C14.6642 2 15 2.33579 15 2.75V5H17.25C17.6642 5 18 5.33579 18 5.75C18 6.16421 17.6642 6.5 17.25 6.5H15V9.5C14.48 9.5 13.9768 9.57217 13.5 9.70703V6.5L6.5 6.5V13.5H9.70703C9.57217 13.9768 9.5 14.48 9.5 15H6.5V17.25C6.5 17.6642 6.16421 18 5.75 18C5.33579 18 5 17.6642 5 17.25V15H2.75C2.33579 15 2 14.6642 2 14.25C2 13.8358 2.33579 13.5 2.75 13.5H5V6.5H2.75C2.33579 6.5 2 6.16421 2 5.75C2 5.33579 2.33579 5 2.75 5H5V2.75C5 2.33579 5.33579 2 5.75 2Z" fill="#CED0D6"/>
</svg>
