<svg width="20" height="20" viewBox="0 0 20 20" fill="none" xmlns="http://www.w3.org/2000/svg">
<path d="M18.75 7.39062C18.75 8.15001 18.1344 8.76562 17.375 8.76562C16.6156 8.76562 16 8.15001 16 7.39062C16 6.63124 16.6156 6.01562 17.375 6.01562C18.1344 6.01562 18.75 6.63124 18.75 7.39062Z" fill="#6C707E"/>
<path d="M8.3861 6.27664L6.89154 2.25879C6.89154 2.25879 6.21083 3.43743 6.01374 5.34109C5.86828 6.74608 6.16529 7.80469 6.16529 7.80469M8.1126 4.76294C10.8334 4.7629 11.2081 4.68776 12.2703 5.26357C12.645 5.4667 12.9499 5.79883 13.452 6.33807C13.452 6.33807 15.9374 6.48076 17.015 6.58221C17.015 6.58221 18.2503 6.65057 18.2503 7.38299C18.2503 11.7578 12.2703 12.2609 12.2703 12.2609M12.2703 17.25C12.2703 17.25 12.2081 15.5875 12.5121 14.5896C12.8133 13.6008 13.7781 12.2653 13.7781 12.2653" stroke="#6C707E" stroke-width="1.5" stroke-linecap="round" stroke-linejoin="round"/>
<circle cx="11.75" cy="8.01562" r="0.75" fill="#6C707E"/>
<path fill-rule="evenodd" clip-rule="evenodd" d="M5 20C2.23858 20 0 18.8747 0 17.4949V12.4983C0 11.1185 2.23869 10 5.00011 10C7.76153 10 10.0001 11.1185 10.0001 12.4983L10 12.5V17.4949C10 18.8747 7.76142 20 5 20ZM7.86306 17.9241C8.35614 17.6768 8.47563 17.4887 8.5 17.4427V16.7825C7.59812 17.226 6.36273 17.5 5 17.5C3.63727 17.5 2.40188 17.226 1.5 16.7825V17.4427C1.52437 17.4887 1.64386 17.6768 2.13694 17.9241C2.79261 18.2529 3.80289 18.5 5 18.5C6.19711 18.5 7.20739 18.2529 7.86306 17.9241ZM1.5 14.9427V14.2876C2.40188 14.731 3.63727 15.0051 5 15.0051C6.36273 15.0051 7.59812 14.731 8.5 14.2876V14.9427C8.47563 14.9887 8.35614 15.1768 7.86306 15.4241C7.20739 15.7529 6.19711 16 5 16C3.80289 16 2.79261 15.7529 2.13694 15.4241C1.64386 15.1768 1.52437 14.9887 1.5 14.9427ZM2.13503 12.0736C2.74976 11.7664 3.6766 11.5311 4.77752 11.5028C4.85092 11.501 4.92509 11.5 5 11.5C6.19848 11.5 7.20934 11.7459 7.86508 12.0736C8.24501 12.2634 8.40262 12.418 8.46582 12.4996C8.40276 12.5816 8.24496 12.7376 7.86306 12.9291C7.20739 13.258 6.19711 13.5051 5 13.5051C3.80289 13.5051 2.79261 13.258 2.13694 12.9291C1.75515 12.7377 1.59734 12.5817 1.53424 12.4997C1.5974 12.4181 1.75499 12.2635 2.13503 12.0736Z" fill="#6C707E"/>
</svg>
