<svg width="20" height="20" viewBox="0 0 20 20" fill="none" xmlns="http://www.w3.org/2000/svg">
<path fill-rule="evenodd" clip-rule="evenodd" d="M10.0252 3.67542C10.2621 3.6995 10.4388 3.90431 10.4272 4.14279V4.25617C10.4167 4.37441 10.3998 4.49115 10.3759 4.608C10.3417 4.82004 10.3281 5.03488 10.3351 5.24954C10.347 5.30509 10.3802 5.3543 10.4276 5.38697L10.4532 5.40465L10.4545 5.43575L10.4563 5.46456C10.4578 5.48596 10.4597 5.51516 10.4611 5.54388C11.5901 5.65872 12.6428 6.16728 13.4348 6.97887L13.5505 6.89656L13.5761 6.90095C13.6364 6.91126 13.6982 6.90526 13.7552 6.88363C13.9226 6.75308 14.0768 6.60745 14.2164 6.44777C14.2926 6.35687 14.3739 6.27039 14.4599 6.18877L14.4638 6.18506L14.5422 6.12289C14.5987 6.06686 14.6698 6.02766 14.7474 6.0097C14.8262 5.99147 14.9086 5.9959 14.985 6.02251C15.0615 6.04914 15.1289 6.09689 15.1794 6.16022C15.2299 6.22356 15.2614 6.29989 15.2703 6.38039C15.2792 6.46089 15.2651 6.54227 15.2297 6.61511C15.1949 6.68673 15.1408 6.74722 15.0736 6.78983L14.9921 6.85568C14.8934 6.92135 14.7908 6.9811 14.6852 7.03507C14.4991 7.14096 14.3221 7.26469 14.1588 7.40467C14.1225 7.44925 14.1045 7.50601 14.1086 7.56284L14.1108 7.59287L13.9987 7.69643C14.6217 8.64818 14.886 9.79061 14.7441 10.9193L14.8649 10.9551L14.8773 10.9772C14.9077 11.0312 14.9517 11.0761 15.0043 11.107C15.2107 11.162 15.4223 11.1967 15.636 11.2106C15.755 11.213 15.8738 11.2223 15.9918 11.2384L15.9978 11.2393L16.1009 11.264C16.1786 11.2751 16.2517 11.3072 16.3124 11.357C16.3739 11.4074 16.4201 11.4739 16.446 11.5491C16.4713 11.6244 16.4753 11.7056 16.4574 11.7829C16.4395 11.8603 16.4005 11.9311 16.3446 11.9876C16.2888 12.0441 16.2184 12.084 16.1413 12.1028C16.0675 12.1208 15.9903 12.1189 15.9175 12.0973H15.9048L15.9052 12.0956C15.8933 12.0927 15.8796 12.09 15.8645 12.087L15.8594 12.086C15.8432 12.0828 15.825 12.0791 15.8095 12.0749L15.807 12.0742C15.6944 12.0387 15.5833 11.9965 15.4748 11.9465C15.2732 11.8716 15.0666 11.8058 14.8567 11.7652C14.7995 11.7648 14.7439 11.7857 14.7014 11.8245L14.6787 11.8452L14.5467 11.822C14.1892 12.9022 13.4603 13.8209 12.4896 14.4139C12.5018 14.4453 12.5153 14.4763 12.5302 14.5066L12.5456 14.5381L12.5267 14.5677C12.5106 14.5928 12.4998 14.6208 12.4948 14.6501C12.4902 14.6775 12.4907 14.7054 12.4963 14.7326C12.5882 14.93 12.6936 15.1179 12.8155 15.2941C12.8874 15.3886 12.9539 15.4872 13.0145 15.5893L13.0172 15.5939L13.0636 15.6904C13.1026 15.7583 13.1224 15.8356 13.1206 15.914C13.1188 15.9932 13.095 16.0704 13.0521 16.1369C13.0086 16.2031 12.9475 16.2563 12.8759 16.29C12.8043 16.3237 12.7248 16.337 12.6462 16.3283C12.5675 16.3196 12.4928 16.2894 12.4303 16.2408C12.3686 16.193 12.3211 16.1291 12.293 16.0563L12.2464 15.9608C12.204 15.8497 12.1682 15.7362 12.1387 15.621C12.0769 15.4152 11.9962 15.2158 11.8966 15.0254C11.8614 14.9801 11.8104 14.9497 11.7545 14.9415L11.723 14.9368L11.661 14.818C10.5942 15.208 9.42325 15.205 8.35844 14.8096L8.28776 14.9383L8.25746 14.943C8.21244 14.9501 8.17051 14.9702 8.13686 15.0009C8.07923 15.0712 8.03663 15.1652 7.99587 15.2763C7.98091 15.3171 7.96587 15.3612 7.95034 15.4067C7.9252 15.4805 7.89878 15.5581 7.86926 15.6314C7.84043 15.7449 7.80506 15.8574 7.76313 15.9677L7.76111 15.9731L7.71677 16.0633C7.68894 16.1363 7.64165 16.2005 7.57999 16.2486C7.51749 16.2974 7.44269 16.328 7.36388 16.3368C7.28526 16.345 7.2054 16.3314 7.13407 16.2974C7.06273 16.2633 7.0022 16.2102 6.95915 16.1439C6.91609 16.0776 6.8922 16.0007 6.89011 15.9217C6.88804 15.8435 6.90736 15.7663 6.94596 15.6984L6.99388 15.5969C7.05446 15.4945 7.12109 15.3957 7.19299 15.3008C7.31769 15.1189 7.4247 14.9255 7.51247 14.7238C7.51827 14.668 7.5085 14.6122 7.48427 14.5616L7.47136 14.5346L7.52641 14.4195C6.55574 13.8306 5.82524 12.9161 5.46473 11.839L5.32804 11.8617L5.30698 11.8467C5.25724 11.8112 5.19906 11.7898 5.13815 11.7849C4.92762 11.8251 4.72168 11.8862 4.5229 11.9657C4.41451 12.0123 4.30304 12.0536 4.18961 12.0871L4.17891 12.0903L4.07532 12.1008C4.00274 12.1225 3.92563 12.1246 3.85186 12.1068C3.77454 12.0881 3.70392 12.0483 3.64791 11.9919C3.59242 11.9351 3.55345 11.8637 3.53595 11.7863C3.51844 11.7089 3.52277 11.6281 3.54845 11.553C3.57413 11.4779 3.62016 11.4113 3.6814 11.3608C3.74265 11.3103 3.81671 11.2778 3.89534 11.2669L3.90393 11.2657L3.90789 11.2663L4.00318 11.2448C4.12113 11.2287 4.23993 11.2196 4.35895 11.2171C4.57181 11.2029 4.78281 11.1684 4.98907 11.114C5.04084 11.0798 5.08462 11.0343 5.11814 10.9811L5.13088 10.9608L5.25484 10.9254C5.10567 9.79633 5.36448 8.65077 5.98535 7.69614L5.8866 7.60554L5.8852 7.58014C5.8818 7.51878 5.86195 7.45952 5.82779 7.40854C5.66376 7.2654 5.48709 7.14342 5.29967 7.03903C5.19395 6.98505 5.09142 6.92503 4.99259 6.85927L4.98811 6.85629L4.91396 6.79689C4.71445 6.6525 4.66779 6.37432 4.81116 6.17322L4.81342 6.17006C4.85441 6.1195 4.90689 6.07944 4.96637 6.053C5.02581 6.02659 5.09065 6.0146 5.1556 6.01802C5.26103 6.02305 5.36219 6.06112 5.44468 6.12733L5.52975 6.19516C5.61564 6.27661 5.69663 6.36309 5.77264 6.45384C5.91736 6.61251 6.07704 6.75686 6.24946 6.88486C6.30037 6.91097 6.35931 6.91657 6.41401 6.9L6.44329 6.89113L6.55538 6.97052C7.19908 6.30173 8.02521 5.8372 8.93072 5.63283C9.1324 5.587 9.33687 5.55428 9.54283 5.53466L9.54955 5.4084L9.56916 5.39105C9.61541 5.35014 9.64959 5.29728 9.66767 5.23883C9.67641 5.02468 9.6645 4.81018 9.63212 4.59831C9.60891 4.48255 9.59114 4.36527 9.5811 4.24656L9.58066 4.2413L9.58088 4.14005C9.56911 3.89673 9.75379 3.68857 9.9972 3.67145L10.0157 3.67015L10.0252 3.67542ZM7.44918 7.59779L8.95436 8.66429C9.03273 8.72149 9.13413 8.73383 9.21694 8.68967C9.30627 8.64202 9.36114 8.56008 9.36548 8.4663L9.36824 8.40669H9.37709L9.47883 6.62985C9.37577 6.64315 9.27272 6.66065 9.17113 6.68235C8.52498 6.82761 7.93031 7.14402 7.44918 7.59779ZM10.5244 6.63098L10.6285 8.46616C10.6298 8.56498 10.6872 8.65484 10.7764 8.69706C10.8659 8.73937 10.9716 8.727 11.0486 8.66538L11.0514 8.66316L12.5419 7.60395C11.985 7.08023 11.2808 6.7405 10.5244 6.63098ZM8.02666 10.1207V10.1147L8.07257 10.1021C8.16386 10.0769 8.23519 10.0032 8.25627 9.91056C8.27747 9.81737 8.24604 9.72002 8.17444 9.65764L8.15299 9.63896V9.63031L6.79739 8.42062C6.40856 9.08329 6.2368 9.8505 6.30532 10.6158L8.02666 10.1207ZM13.1979 8.42484L11.8321 9.64725C11.7601 9.71081 11.7289 9.80765 11.7497 9.90099C11.7703 9.99356 11.8405 10.067 11.9331 10.0922L11.9792 10.1047V10.1125L13.7023 10.609C13.7605 9.84652 13.5844 9.08459 13.1979 8.42484ZM11.6344 11.3145L11.6324 11.3218L11.5873 11.3245C11.5457 11.3269 11.5053 11.3393 11.4695 11.3606C11.4337 11.3819 11.4035 11.4115 11.3815 11.4469C11.3595 11.4823 11.3463 11.5224 11.3431 11.564C11.3399 11.6055 11.3466 11.6472 11.3629 11.6856L12.0671 13.3905C12.7087 12.9621 13.2045 12.3436 13.4717 11.623L11.6502 11.3157C11.646 11.3151 11.6405 11.3147 11.6344 11.3145ZM8.62932 11.7041V11.6966L8.63436 11.6848C8.66834 11.6054 8.66075 11.5148 8.61377 11.4428C8.57252 11.3796 8.50652 11.3377 8.43315 11.3272L8.42925 11.333L8.39177 11.3292C8.37527 11.3275 8.35891 11.3274 8.3431 11.329L6.54006 11.6348C6.81402 12.3476 7.30049 12.9581 7.9345 13.3827L8.62932 11.7041ZM10.2535 12.2586H10.2461L10.2283 12.226C10.2053 12.1836 10.171 12.1485 10.1292 12.1245C10.1095 12.1133 10.0886 12.1047 10.0669 12.0989L9.99599 12.1006C9.90412 12.1028 9.82066 12.1514 9.77547 12.2301L8.88273 13.8355C9.51301 14.0358 10.1855 14.064 10.8307 13.9168L11.1243 13.8301L10.2535 12.2586ZM9.73794 9.76435H10.2638L10.5848 10.172L10.468 10.6823L9.99554 10.9095L9.52239 10.6824L9.41111 10.1726L9.73794 9.76435Z" fill="#CED0D6"/>
<path fill-rule="evenodd" clip-rule="evenodd" d="M9.93998 1.51057C9.92989 1.51121 9.91981 1.51198 9.90975 1.51288C9.76571 1.52577 9.62519 1.56526 9.49537 1.62945L3.40045 4.53664C3.08217 4.68812 2.85084 4.97633 2.77155 5.31976L1.27967 11.8445C1.20858 12.1508 1.266 12.4718 1.44373 12.7343C1.46452 12.766 1.48639 12.7966 1.50936 12.8262L5.7203 18.062C5.94287 18.3354 6.27702 18.4923 6.6292 18.4907H13.3831C13.7364 18.4912 14.0711 18.3266 14.2931 18.057L18.5019 12.8202C18.7228 12.5467 18.8054 12.1858 18.7206 11.8434L17.2189 5.3132C17.1396 4.96976 16.9072 4.68156 16.59 4.53008L10.5049 1.63C10.3444 1.55082 10.168 1.50962 9.98945 1.50928C9.97479 1.50925 9.96013 1.5095 9.94545 1.51002L9.93998 1.51057ZM9.99963 3.05083L4.1961 5.81902L2.77996 12.0126L6.78367 16.9907H13.2257L17.2217 12.0185L15.7946 5.81264L9.99963 3.05083Z" fill="#CED0D6"/>
</svg>
