<svg width="16" height="16" viewBox="0 0 16 16" fill="none" xmlns="http://www.w3.org/2000/svg">
<path fill-rule="evenodd" clip-rule="evenodd" d="M8.02015 2.94043C8.20966 2.95969 8.351 3.12354 8.34177 3.31433V3.40503C8.33333 3.49963 8.31981 3.59301 8.30071 3.6865C8.27339 3.85613 8.26247 4.028 8.2681 4.19973C8.27763 4.24417 8.30418 4.28354 8.34205 4.30968L8.36254 4.32382L8.3636 4.3487L8.36505 4.37175C8.36621 4.38886 8.36778 4.41224 8.36889 4.4352C9.27212 4.52707 10.1143 4.93392 10.7479 5.58319L10.8404 5.51734L10.8609 5.52085C10.9091 5.52911 10.9586 5.52431 11.0042 5.507C11.138 5.40256 11.2614 5.28606 11.3731 5.15832C11.4341 5.08559 11.4991 5.01641 11.5679 4.95111L11.571 4.94815L11.6337 4.89841C11.679 4.85359 11.7358 4.82222 11.7979 4.80786C11.861 4.79327 11.9269 4.79682 11.988 4.8181C12.0492 4.83941 12.1031 4.87761 12.1435 4.92828C12.1839 4.97894 12.2091 5.04001 12.2162 5.10441C12.2234 5.16881 12.2121 5.23391 12.1838 5.29218C12.1559 5.34948 12.1127 5.39788 12.0589 5.43196L11.9937 5.48464C11.9147 5.53718 11.8326 5.58498 11.7481 5.62815C11.5993 5.71286 11.4577 5.81185 11.327 5.92383C11.298 5.9595 11.2836 6.0049 11.2869 6.05037L11.2886 6.07439L11.199 6.15724C11.6974 6.91864 11.9088 7.83258 11.7953 8.73551L11.8919 8.76415L11.9019 8.78183C11.9262 8.82505 11.9614 8.86098 12.0035 8.88571C12.1686 8.92972 12.3378 8.95747 12.5088 8.96854C12.604 8.97052 12.699 8.97797 12.7934 8.99085L12.7982 8.9915L12.8807 9.01131C12.9428 9.02016 13.0014 9.04587 13.0499 9.08566C13.0991 9.12599 13.1361 9.17921 13.1568 9.23937C13.177 9.29958 13.1803 9.36457 13.1659 9.42645C13.1516 9.48833 13.1204 9.54502 13.0757 9.5902C13.0311 9.63538 12.9748 9.66728 12.913 9.68234C12.854 9.69676 12.7922 9.69522 12.734 9.67795H12.7239L12.7242 9.67656C12.7147 9.67426 12.7037 9.6721 12.6916 9.6697L12.6876 9.6689C12.6746 9.66633 12.66 9.66339 12.6476 9.66002L12.6456 9.65949C12.5555 9.6311 12.4667 9.59732 12.3798 9.55734C12.2186 9.49736 12.0533 9.44477 11.8854 9.41229C11.8396 9.41191 11.7952 9.4287 11.7611 9.45971L11.743 9.47626L11.6373 9.45766C11.3514 10.3219 10.7682 11.0569 9.99168 11.5312C10.0014 11.5564 10.0123 11.5811 10.0241 11.6054L10.0365 11.6306L10.0213 11.6543C10.0085 11.6743 9.99984 11.6967 9.99585 11.7202C9.99213 11.7421 9.99255 11.7644 9.99708 11.7862C10.0706 11.9441 10.1549 12.0945 10.2524 12.2354C10.31 12.311 10.3631 12.3898 10.4116 12.4716L10.4138 12.4752L10.4508 12.5524C10.4821 12.6067 10.4979 12.6686 10.4965 12.7313C10.495 12.7947 10.476 12.8564 10.4416 12.9096C10.4069 12.9626 10.358 13.0052 10.3007 13.0321C10.2435 13.0591 10.1799 13.0697 10.1169 13.0627C10.054 13.0558 9.99424 13.0316 9.94422 12.9928C9.89485 12.9545 9.85689 12.9034 9.83442 12.8451L9.79713 12.7687C9.76317 12.6799 9.73452 12.5891 9.71096 12.4969C9.66154 12.3323 9.59698 12.1727 9.5173 12.0204C9.48911 11.9842 9.44834 11.9599 9.40362 11.9533L9.37837 11.9496L9.32878 11.8545C8.47536 12.1665 7.5386 12.1641 6.68675 11.8478L6.63021 11.9507L6.60597 11.9545C6.56995 11.9602 6.53641 11.9763 6.50949 12.0008C6.46338 12.057 6.4293 12.1323 6.3967 12.2211C6.38473 12.2537 6.37269 12.289 6.36027 12.3255C6.34016 12.3845 6.31902 12.4465 6.2954 12.5052C6.27234 12.596 6.24405 12.686 6.21051 12.7743L6.20889 12.7785L6.17342 12.8507C6.15115 12.9092 6.11332 12.9605 6.06399 12.999C6.014 13.0381 5.95415 13.0625 5.89111 13.0696C5.82821 13.0761 5.76432 13.0652 5.70725 13.038C5.65018 13.0107 5.60176 12.9683 5.56732 12.9152C5.53288 12.8622 5.51376 12.8006 5.51209 12.7374C5.51043 12.6749 5.52589 12.6132 5.55677 12.5588L5.5951 12.4776C5.64356 12.3957 5.69687 12.3166 5.75439 12.2408C5.85415 12.0952 5.93976 11.9405 6.00998 11.7791C6.01461 11.7345 6.0068 11.6899 5.98742 11.6493L5.97709 11.6278L6.02113 11.5357C5.24459 11.0646 4.6602 10.333 4.37178 9.47126L4.26243 9.48948L4.24558 9.47745C4.20579 9.44903 4.15925 9.43192 4.11052 9.42802C3.9421 9.46019 3.77734 9.50906 3.61832 9.57263C3.53161 9.60996 3.44243 9.64295 3.35169 9.66977L3.34313 9.6723L3.26025 9.68072C3.20219 9.69808 3.14051 9.69977 3.08149 9.68553C3.01963 9.67061 2.96314 9.63878 2.91833 9.5936C2.87394 9.54818 2.84276 9.49108 2.82876 9.42914C2.81475 9.36719 2.81822 9.30257 2.83876 9.24248C2.85931 9.18239 2.89613 9.12917 2.94512 9.08877C2.99412 9.04836 3.05336 9.02234 3.11627 9.01361L3.12314 9.01266L3.12632 9.01314L3.20254 8.99591C3.2969 8.98303 3.39195 8.97577 3.48716 8.97379C3.65745 8.96245 3.82625 8.93482 3.99126 8.89127C4.03267 8.86392 4.0677 8.82756 4.09451 8.78494L4.1047 8.76875L4.20387 8.74042C4.08454 7.83716 4.29158 6.92071 4.78828 6.15701L4.70928 6.08453L4.70816 6.06421C4.70544 6.01512 4.68956 5.96771 4.66223 5.92693C4.53101 5.81241 4.38968 5.71483 4.23974 5.63132C4.15516 5.58813 4.07314 5.54012 3.99407 5.48751L3.99049 5.48513L3.93117 5.43761C3.77156 5.3221 3.73423 5.09956 3.84893 4.93867L3.85073 4.93615C3.88353 4.8957 3.92551 4.86365 3.9731 4.8425C4.02065 4.82137 4.07252 4.81178 4.12448 4.81451C4.20882 4.81854 4.28975 4.849 4.35574 4.90196L4.4238 4.95622C4.49251 5.02139 4.55731 5.09057 4.61812 5.16317C4.73388 5.29011 4.86163 5.40558 4.99957 5.50799C5.0403 5.52888 5.08745 5.53336 5.13121 5.5201L5.15463 5.513L5.2443 5.57652C5.75926 5.04148 6.42017 4.66986 7.14457 4.50636C7.30592 4.4697 7.46949 4.44352 7.63427 4.42783L7.63964 4.32681L7.65533 4.31294C7.69233 4.28021 7.71967 4.23793 7.73414 4.19116C7.74112 4.01984 7.7316 3.84825 7.7057 3.67874C7.68713 3.58614 7.67291 3.49232 7.66488 3.39735L7.66453 3.39314L7.66471 3.31214C7.65529 3.11748 7.80303 2.95095 7.99776 2.93726L8.01257 2.93622L8.02015 2.94043ZM5.95934 6.07833L7.16349 6.93153C7.22618 6.97729 7.3073 6.98716 7.37355 6.95183C7.44501 6.91372 7.48891 6.84816 7.49238 6.77314L7.49459 6.72545H7.50167L7.58306 5.30398C7.50061 5.31462 7.41818 5.32862 7.3369 5.34598C6.81999 5.46219 6.34425 5.71532 5.95934 6.07833ZM8.41949 5.30488L8.50281 6.77303C8.50387 6.85208 8.54972 6.92397 8.62114 6.95775C8.69272 6.9916 8.7773 6.9817 8.83891 6.93241L8.84113 6.93063L10.0336 6.08326C9.58796 5.66429 9.02468 5.3925 8.41949 5.30488ZM6.42133 8.09668V8.09186L6.45806 8.08174C6.53109 8.06163 6.58815 8.00267 6.60501 7.92855C6.62197 7.85399 6.59683 7.77611 6.53955 7.72621L6.52239 7.71127V7.70434L5.43791 6.73659C5.12685 7.26673 4.98944 7.8805 5.04426 8.49276L6.42133 8.09668ZM10.5583 6.73997L9.46568 7.71789C9.40811 7.76875 9.38313 7.84622 9.39976 7.92089C9.41626 7.99495 9.47241 8.05371 9.54649 8.07382L9.58339 8.08384V8.09013L10.9619 8.48726C11.0084 7.87732 10.8675 7.26777 10.5583 6.73997ZM9.30753 9.05168L9.30596 9.05757L9.26987 9.05968C9.23658 9.06162 9.20425 9.07152 9.1756 9.08856C9.14694 9.1056 9.1228 9.12927 9.1052 9.15759C9.08761 9.1859 9.07707 9.21803 9.07448 9.25127C9.07189 9.28451 9.07732 9.31788 9.09031 9.34858L9.6537 10.7125C10.167 10.3698 10.5636 9.87496 10.7773 9.2985L9.32017 9.05262C9.31678 9.05217 9.31243 9.05185 9.30753 9.05168ZM6.90346 9.36338V9.35739L6.90749 9.34797C6.93468 9.28441 6.9286 9.21193 6.89102 9.15433C6.85802 9.10375 6.80522 9.07026 6.74652 9.06182L6.7434 9.06651L6.71342 9.06344C6.70022 9.06208 6.68713 9.06205 6.67448 9.06327L5.23205 9.30795C5.45121 9.87819 5.84039 10.3666 6.3476 10.7063L6.90346 9.36338ZM8.20281 9.80701H8.19685L8.18265 9.78088C8.16424 9.747 8.13678 9.7189 8.10333 9.69972C8.08761 9.6907 8.07086 9.68382 8.05351 9.67919L7.99679 9.68056C7.9233 9.68233 7.85653 9.72125 7.82038 9.78421L7.10619 11.0685C7.61041 11.2287 8.14841 11.2513 8.66454 11.1336L8.89945 11.0642L8.20281 9.80701ZM7.79035 7.81157H8.21106L8.46782 8.13772L8.3744 8.54595L7.99643 8.72767L7.61791 8.54606L7.52889 8.13821L7.79035 7.81157Z" fill="#CED0D6"/>
<path fill-rule="evenodd" clip-rule="evenodd" d="M7.95199 1.20855L7.93183 1.21005C7.81519 1.21998 7.70137 1.25171 7.5963 1.30366L2.72036 3.62941C2.46574 3.7506 2.28068 3.98116 2.21724 4.25591L1.02374 9.47572C0.966863 9.72072 1.0128 9.97753 1.15499 10.1875C1.17161 10.2129 1.18911 10.2374 1.20749 10.261L4.57624 14.4497C4.7543 14.6684 5.02161 14.794 5.30336 14.7927H10.7065C10.9891 14.7931 11.2569 14.6614 11.4345 14.4457L14.8015 10.2562C14.9782 10.0375 15.0443 9.74872 14.9765 9.47485L13.7751 4.25066C13.7117 3.97591 13.5257 3.74535 13.272 3.62416L8.40393 1.3041C8.27374 1.23988 8.13054 1.20689 7.98569 1.20753C7.97592 1.20757 7.96614 1.20777 7.95636 1.20812L7.95199 1.20855ZM2.00741 9.66002L3.18347 4.51644L7.99967 2.21919L12.8089 4.51123L13.994 9.66461L10.6764 13.7927H5.33113L2.00741 9.66002Z" fill="#CED0D6"/>
</svg>
