<svg width="16" height="16" viewBox="0 0 16 16" fill="none" xmlns="http://www.w3.org/2000/svg">
<path fill-rule="evenodd" clip-rule="evenodd" d="M4 2C2.89543 2 2 2.89543 2 4V12C2 13.1046 2.89543 14 4 14H12C13.1046 14 14 13.1046 14 12V4C14 2.89543 13.1046 2 12 2H4ZM11 9.63492V8H10V9.63413L8.58398 8.81659L8.08398 9.68262L9.50068 10.5005L8.08589 11.3174L8.58589 12.1834L10 11.367V13H11V11.3662L12.4141 12.1826L12.9141 11.3166L11.5007 10.5005L12.916 9.68341L12.416 8.81738L11 9.63492Z" fill="#55A76A"/>
</svg>
