<svg width="16" height="16" viewBox="0 0 16 16" fill="none" xmlns="http://www.w3.org/2000/svg">
<path d="M12 2C13.1046 2 14 2.89543 14 4V9.99945L13.37 9.39422C13.0897 9.12497 12.7508 9.0031 12.418 9.00107C11.8809 8.99779 11.5037 8.99907 11.0416 9.00063C10.9 9.00111 10.7505 9.00162 10.586 9.00203C10.2513 9.00286 9.91014 9.12476 9.6284 9.39573L6.92953 11.9913C6.36009 12.539 6.35681 13.4482 6.91987 14H4C2.89543 14 2 13.1046 2 12V4C2 2.89543 2.89543 2 4 2H12Z" fill="#548AF7"/>
<path d="M12.3006 9.0009C11.824 8.99847 11.469 8.99967 11.0411 9.00112C10.8996 9.0016 10.75 9.0021 10.5855 9.00251C10.3295 9.00315 10.0697 9.07462 9.83563 9.22945C9.64396 9.17188 9.47188 9.08819 9.31938 8.97839C9.10563 8.82449 8.94033 8.63212 8.82348 8.40127C8.70948 8.16757 8.65248 7.91249 8.65248 7.63604C8.65248 7.30544 8.73798 7.00904 8.90898 6.74684C9.08283 6.48179 9.32365 6.27517 9.63145 6.12697C9.93925 5.97592 10.287 5.90039 10.6746 5.90039C11.0707 5.90039 11.4227 5.97307 11.7305 6.11842C12.0411 6.26377 12.2834 6.46612 12.4572 6.72547C12.6311 6.98482 12.7194 7.28122 12.7223 7.61467H11.7091C11.7091 7.45222 11.6664 7.30687 11.5809 7.17862C11.4954 7.04752 11.3757 6.94634 11.2218 6.87509C11.0679 6.80384 10.8897 6.76822 10.6874 6.76822C10.485 6.76822 10.3069 6.80242 10.153 6.87082C9.9991 6.93922 9.8794 7.03612 9.7939 7.16152C9.7084 7.28692 9.66565 7.43227 9.66565 7.59757C9.66565 7.79137 9.72835 7.95952 9.85375 8.10202C9.97915 8.24167 10.143 8.32859 10.3454 8.36279L11.3415 8.52524C11.635 8.57654 11.8958 8.68627 12.1238 8.85442C12.1866 8.90018 12.2455 8.94901 12.3006 9.0009Z" fill="white"/>
<path d="M7.87147 6.00049H3.13477V7.00049H4.99976V12.0005H5.99976V7.00049H7.87147V6.00049Z" fill="white"/>
<path fill-rule="evenodd" clip-rule="evenodd" d="M15.3798 12.7117C15.5435 12.8691 15.5436 13.131 15.3799 13.2884L12.6774 15.8876C12.4232 16.132 12 15.9519 12 15.5993L12 10.4038C12 10.0513 12.423 9.87118 12.6772 10.1154L15.3798 12.7117Z" fill="#57965C"/>
<path fill-rule="evenodd" clip-rule="evenodd" d="M7.62255 13.2883C7.45909 13.1309 7.45916 12.8692 7.62271 12.7119L10.3216 10.1163C10.5757 9.87185 10.9989 10.0519 10.9989 10.4045V15.5986C10.9989 15.9514 10.5755 16.1314 10.3214 15.8868L7.62255 13.2883Z" fill="#DB5C5C"/>
</svg>
