<svg width="16" height="16" viewBox="0 0 16 16" fill="none" xmlns="http://www.w3.org/2000/svg">
<rect x="2" y="2" width="12" height="12" rx="2" fill="white"/>
<path fill-rule="evenodd" clip-rule="evenodd" d="M12 2C13.1046 2 14 2.89543 14 4V12C14 13.1046 13.1046 14 12 14H4C2.89543 14 2 13.1046 2 12V4C2 2.89543 2.89543 2 4 2H12ZM9.41974 11.8594C9.74749 12.0133 10.1237 12.0902 10.5483 12.0902C10.9701 12.0902 11.3449 12.0118 11.6727 11.8551C12.0004 11.6983 12.2555 11.4832 12.4379 11.2096C12.6203 10.9331 12.7115 10.6239 12.7115 10.2819C12.7115 9.99973 12.6488 9.73325 12.5234 9.48245C12.398 9.23165 12.2199 9.02217 11.989 8.85402C11.761 8.68587 11.5002 8.57615 11.2067 8.52485L10.2106 8.3624C10.0083 8.3282 9.84439 8.24127 9.71899 8.10162C9.59359 7.95913 9.53089 7.79098 9.53089 7.59717C9.53089 7.43187 9.57364 7.28653 9.65914 7.16113C9.74464 7.03572 9.86434 6.93882 10.0182 6.87043C10.1721 6.80202 10.3503 6.76783 10.5526 6.76783C10.755 6.76783 10.9331 6.80345 11.087 6.8747C11.2409 6.94595 11.3606 7.04713 11.4461 7.17823C11.5316 7.30648 11.5743 7.45183 11.5743 7.61427H12.5875C12.5847 7.28083 12.4963 6.98443 12.3225 6.72507C12.1486 6.46572 11.9064 6.26338 11.5957 6.11802C11.2879 5.97268 10.9359 5.9 10.5398 5.9C10.1522 5.9 9.80449 5.97553 9.49669 6.12657C9.18889 6.27478 8.94806 6.4814 8.77421 6.74645C8.60321 7.00865 8.51771 7.30505 8.51771 7.63565C8.51771 7.9121 8.57471 8.16717 8.68871 8.40088C8.80556 8.63173 8.97086 8.8241 9.18461 8.978C9.39836 9.1319 9.65059 9.2345 9.94129 9.2858L10.9545 9.4568C11.1768 9.49385 11.3549 9.5936 11.4888 9.75605C11.6228 9.91565 11.6898 10.1066 11.6898 10.3289C11.6898 10.5056 11.6427 10.6623 11.5487 10.7992C11.4575 10.9331 11.3264 11.0371 11.1554 11.1112C10.9844 11.1853 10.7863 11.2224 10.5612 11.2224C10.3303 11.2224 10.1251 11.1825 9.94556 11.1027C9.76886 11.02 9.63064 10.9046 9.53089 10.7564C9.43114 10.6082 9.38126 10.4401 9.38126 10.252H8.36809C8.37094 10.6111 8.46499 10.9303 8.65024 11.2096C8.83549 11.486 9.09199 11.7026 9.41974 11.8594ZM7.7367 5.99996H3V6.99996H4.86499V12H5.86499V6.99996H7.7367V5.99996Z" fill="#6C707E"/>
</svg>
