<svg width="16" height="16" viewBox="0 0 16 16" fill="none" xmlns="http://www.w3.org/2000/svg">
<g clip-path="url(#clip0_7133_52134)">
<path fill-rule="evenodd" clip-rule="evenodd" d="M5.31766 1.73227C3.94933 3.26592 0.999999 6.92789 1 10C1 12.7614 3.23858 15 6 15C8.76142 15 11 12.7614 11 10C11 6.92789 8.05067 3.26592 6.68234 1.73227C6.26905 1.26906 6 1 6 1C6 1 5.73094 1.26906 5.31766 1.73227Z" fill="#253627"/>
<path fill-rule="evenodd" clip-rule="evenodd" d="M4.31373 4.58124C3.07307 6.31817 2 8.34156 2 10C2 12.2091 3.79086 14 6 14C8.20914 14 10 12.2091 10 10C10 8.34156 8.92693 6.31817 7.68627 4.58124C7.08627 3.74124 6.48415 3.01848 6.03141 2.50537C6.02086 2.49341 6.01038 2.48156 6 2.46984C5.98961 2.48156 5.97914 2.49341 5.96859 2.50537C5.51584 3.01848 4.91373 3.74124 4.31373 4.58124ZM5.31766 1.73227C3.94933 3.26592 0.999999 6.92789 1 10C1 12.7614 3.23858 15 6 15C8.76142 15 11 12.7614 11 10C11 6.92789 8.05067 3.26592 6.68234 1.73227C6.26905 1.26906 6 1 6 1C6 1 5.73094 1.26906 5.31766 1.73227Z" fill="#57965C"/>
<path d="M9.37437 14.9613C9.57905 14.9869 9.78757 15 9.99916 15C12.7606 15 14.9992 12.7614 14.9992 10C14.9992 6.92789 12.0498 3.26591 10.6815 1.73227C10.2682 1.26906 9.99916 1 9.99916 1C9.99916 1 9.7301 1.26906 9.31682 1.73227C9.11971 1.95319 8.8898 2.21827 8.64062 2.51939C8.84225 2.77774 9.04999 3.0533 9.25851 3.34294C9.51689 3.02498 9.7583 2.74274 9.96775 2.50537L9.99916 2.46984L10.0306 2.50537C10.4833 3.01848 11.0854 3.74124 11.6854 4.58124C12.9261 6.31817 13.9992 8.34155 13.9992 10C13.9992 12.0399 12.4722 13.7232 10.4988 13.9691C10.1673 14.3446 9.78953 14.6784 9.37437 14.9613Z" fill="#57965C"/>
</g>
<defs>
<clipPath id="clip0_7133_52134">
<rect width="16" height="16" fill="white"/>
</clipPath>
</defs>
</svg>
