<svg width="16" height="16" viewBox="0 0 16 16" fill="none" xmlns="http://www.w3.org/2000/svg">
<g clip-path="url(#clip0_13312_10740)">
<path d="M11.5016 4.54313C11.4082 4.20954 11.3084 3.88907 11.2089 3.58789C10.854 4.17237 10.3368 4.66879 9.79162 5.05397C9.1536 5.50478 8.40739 5.85314 7.67597 6.02381C7.10799 6.15696 6.57857 6.18384 6.07535 6.20933L6.03999 6.21112C5.96593 6.21489 5.89191 6.21865 5.81663 6.2227C5.22691 6.25451 4.66353 6.30436 4.09053 6.5208C2.78649 7.01315 2.15956 8.01355 2.02658 8.9613C1.96447 9.40399 2.00949 9.82953 2.1401 10.1909C2.0998 10.3539 2.0682 10.5178 2.0452 10.6817C1.99897 11.0112 1.98765 11.3649 2.01758 11.7248C1.18232 11.0436 0.890211 9.85976 1.03588 8.8215C1.21718 7.52932 2.07457 6.21204 3.73691 5.58441C4.46391 5.3098 5.15949 5.25582 5.76238 5.22331C5.839 5.21918 5.91451 5.21534 5.9879 5.21162L5.98905 5.21156C6.51596 5.18481 6.96827 5.16167 7.448 5.0492C8.63534 4.77226 9.9641 3.888 10.467 2.86143L11.379 1L12.0515 2.95735C12.083 3.04907 12.1149 3.14338 12.147 3.24007L11.5686 4.42063C11.5489 4.46084 11.5266 4.50173 11.5016 4.54313Z" fill="#57965C"/>
<path d="M8.5 8C8.77614 8 9 8.22386 9 8.5V9.326L9.181 9.16238C9.90358 8.44447 10.9005 8 12.0002 8C13.1046 8 14.1053 8.44826 14.8286 9.17157C15.1887 9.5316 15.4806 9.96029 15.6831 10.4368C15.8159 10.7493 15.9101 11.0822 15.9597 11.4292C15.9988 11.7026 15.8089 11.9559 15.5356 11.995C15.2622 12.0341 15.0089 11.8442 14.9698 11.5708C14.9326 11.3108 14.8621 11.0617 14.7627 10.8279C14.6111 10.4711 14.3922 10.1493 14.1215 9.87868C13.5781 9.33524 12.8288 9 12.0002 9C11.1716 9 10.4223 9.33524 9.87888 9.87868L9.86997 9.88759L9.74562 10H10.5C10.7761 10 11 10.2239 11 10.5C11 10.7761 10.7761 11 10.5 11H8.5C8.22386 11 8 10.7761 8 10.5V8.5C8 8.22386 8.22386 8 8.5 8Z" fill="#CED0D6"/>
<path d="M8.46491 12.005C8.73827 11.9659 8.99157 12.1558 9.03067 12.4292C9.12449 13.0851 9.43079 13.6732 9.87894 14.1213C10.4224 14.6648 11.1717 15 12.0003 15C12.8288 15 13.5781 14.6648 14.1216 14.1213L14.1305 14.1124L14.2487 14H13.5C13.2239 14 13 13.7761 13 13.5C13 13.2239 13.2239 13 13.5 13H15.5C15.7761 13 16 13.2239 16 13.5V15.5C16 15.7761 15.7761 16 15.5 16C15.2239 16 15 15.7761 15 15.5V14.6657L14.8241 14.833C14.1011 15.5536 13.1024 16 12.0003 16C10.8958 16 9.89515 15.5517 9.17184 14.8284C8.57574 14.2323 8.16618 13.4477 8.04075 12.5708C8.00165 12.2974 8.19155 12.0441 8.46491 12.005Z" fill="#CED0D6"/>
<path d="M11.8653 7.00182C12.3835 6.62437 12.8708 6.14632 13.2099 5.58789C13.3823 6.10964 13.5552 6.68923 13.6951 7.29463C13.166 7.10405 12.5955 7 12.0012 7C11.9557 7 11.9104 7.00061 11.8653 7.00182Z" fill="#253627"/>
<path d="M7.01518 8.29275C6.70633 8.33588 6.40031 8.40414 6.09151 8.52079C4.78746 9.01314 4.16053 10.0135 4.02756 10.9613C3.96726 11.3911 4.00793 11.8047 4.12987 12.1591C4.27801 12.5889 4.54569 12.9315 4.89775 13.1102L5.20831 13.2678C5.58248 13.1904 6.32832 13.0304 7.07126 12.8372C7.06427 12.7958 7.05777 12.7542 7.0518 12.7124C6.9879 12.2657 7.12786 11.8368 7.4011 11.5199C7.15279 11.2523 7.00098 10.8939 7.00098 10.5V8.5C7.00098 8.42968 7.00582 8.36049 7.01518 8.29275Z" fill="#253627"/>
<path d="M7.2713 13.624C6.99 13.7078 6.67738 13.8014 6.31451 13.9194L6.32043 13.919L6.36639 13.9159L6.38211 13.9149L6.39098 13.9145C6.70206 13.901 7.03531 13.904 7.38038 13.9123C7.34118 13.8177 7.30478 13.7216 7.2713 13.624Z" fill="#253627"/>
<path d="M14.0514 4.9571L13.379 3L12.467 4.86143C11.9641 5.888 10.6353 6.77226 9.448 7.0492C9.32633 7.07772 9.20643 7.1005 9.08663 7.11905C9.31995 7.21829 9.52297 7.37493 9.67797 7.57125C10.3343 7.22655 11.077 7.02289 11.8643 7.00182C12.3825 6.62438 12.8698 6.14633 13.2089 5.58791C13.3813 6.10965 13.5542 6.68923 13.6941 7.29463C14.1007 7.44106 14.4828 7.63858 14.8325 7.87924C14.6459 6.79888 14.3324 5.77499 14.0514 4.9571Z" fill="#57965C"/>
<path d="M7.94844 14.93C7.72151 14.6166 7.52979 14.2754 7.37941 13.9123C7.03433 13.904 6.70109 13.901 6.39 13.9146L6.38114 13.915L6.36541 13.9159L6.31945 13.919L6.31354 13.9194C6.6764 13.8014 6.98902 13.7078 7.27033 13.6241C7.18328 13.3705 7.11596 13.1076 7.07029 12.8372C6.32734 13.0304 5.5815 13.1904 5.20733 13.2678L4.89678 13.1102C4.54471 12.9315 4.27703 12.5889 4.1289 12.1592C4.00695 11.8047 3.96628 11.3911 4.02658 10.9613C4.15956 10.0135 4.78649 9.01315 6.09053 8.5208C6.39934 8.40415 6.70535 8.33589 7.0142 8.29276C7.07638 7.84278 7.33817 7.45655 7.7073 7.22633C7.11729 7.2593 6.44187 7.31812 5.73691 7.58441C4.07471 8.21199 3.21732 9.5291 3.03593 10.8212C3.01214 10.9907 2.99999 11.1641 3 11.3385C2.99999 12.2327 3.3186 13.1547 4.01758 13.7248C4.1467 13.8301 4.28878 13.9231 4.44424 14.002C4.45247 14.021 4.46246 14.0455 4.47667 14.0804L4.50988 14.1616C4.54521 14.2481 4.63084 14.4576 4.78708 14.6329C4.88103 14.7383 5.01876 14.8542 5.21022 14.9279C5.4062 15.0034 5.60455 15.0138 5.78396 14.9847C5.94384 14.9588 6.10825 14.9407 6.23598 14.929C6.29896 14.9233 6.35103 14.9193 6.38666 14.9167L6.42669 14.914L6.43355 14.9136C6.43355 14.9136 7.3198 14.9153 7.94844 14.93Z" fill="#57965C"/>
</g>
<defs>
<clipPath id="clip0_13312_10740">
<rect width="16" height="16" fill="white"/>
</clipPath>
</defs>
</svg>
