<svg width="16" height="16" viewBox="0 0 16 16" fill="none" xmlns="http://www.w3.org/2000/svg">
<path fill-rule="evenodd" clip-rule="evenodd" d="M12 7.5C12 7.22386 11.7761 7 11.5 7C11.2239 7 11 7.22386 11 7.5V8.03544C10.407 8.12026 9.86204 8.3537 9.40391 8.69681L9.02513 8.31802C8.82986 8.12276 8.51328 8.12276 8.31802 8.31802C8.12276 8.51328 8.12276 8.82986 8.31802 9.02513L8.69681 9.40391C8.3537 9.86204 8.12026 10.407 8.03544 11H7.5C7.22386 11 7 11.2239 7 11.5C7 11.7761 7.22386 12 7.5 12H8.03544C8.12026 12.593 8.3537 13.138 8.69681 13.5961L8.31802 13.9749C8.12276 14.1701 8.12276 14.4867 8.31802 14.682C8.51328 14.8772 8.82986 14.8772 9.02513 14.682L9.40391 14.3032C9.86204 14.6463 10.407 14.8797 11 14.9646V15.5C11 15.7761 11.2239 16 11.5 16C11.7761 16 12 15.7761 12 15.5V14.9646C12.593 14.8797 13.138 14.6463 13.5961 14.3032L13.9749 14.682C14.1701 14.8772 14.4867 14.8772 14.682 14.682C14.8772 14.4867 14.8772 14.1701 14.682 13.9749L14.3032 13.5961C14.6463 13.138 14.8797 12.593 14.9646 12H15.5C15.7761 12 16 11.7761 16 11.5C16 11.2239 15.7761 11 15.5 11H14.9646C14.8797 10.407 14.6463 9.86204 14.3032 9.40391L14.682 9.02513C14.8772 8.82986 14.8772 8.51328 14.682 8.31802C14.4867 8.12276 14.1701 8.12276 13.9749 8.31802L13.5961 8.69681C13.138 8.3537 12.593 8.12026 12 8.03544V7.5ZM14 11.5C14 10.9905 13.8476 10.5165 13.5858 10.1213C13.4 9.84084 13.1592 9.59999 12.8787 9.41422C12.4835 9.15245 12.0096 9 11.5 9C10.1193 9 9 10.1193 9 11.5C9 12.0096 9.15245 12.4835 9.41422 12.8787C9.59999 13.1592 9.84084 13.4 10.1213 13.5858C10.5165 13.8476 10.9905 14 11.5 14C12.8807 14 14 12.8807 14 11.5Z" fill="#039BA1"/>
<path d="M14 6.59971V3C14 1.89543 13.1046 1 12 1H4C3.73932 1 3.49028 1.04987 3.26192 1.1406C2.52265 1.4343 2 2.15611 2 3V13C2 14.1046 2.89543 15 4 15H7.25716C7.00353 14.6929 6.78261 14.3578 6.59971 14H4C3.44772 14 3 13.5523 3 13V3C3 2.44772 3.44772 2 4 2H12C12.5523 2 13 2.44772 13 3V6.20703C13.3486 6.30564 13.6832 6.43777 14 6.59971Z" fill="#6C707E"/>
<path d="M7.72506 7.5H5.5C5.22386 7.5 5 7.72386 5 8C5 8.27614 5.22386 8.5 5.5 8.5H6.88947C7.12796 8.13421 7.40882 7.79856 7.72506 7.5Z" fill="#6C707E"/>
<path d="M6.20703 10H5.5C5.22386 10 5 10.2239 5 10.5C5 10.7761 5.22386 11 5.5 11H6.02242C6.05337 10.6566 6.11588 10.3223 6.20703 10Z" fill="#6C707E"/>
<path d="M10.5 6C10.7761 6 11 5.77614 11 5.5C11 5.22386 10.7761 5 10.5 5H5.5C5.22386 5 5 5.22386 5 5.5C5 5.77614 5.22386 6 5.5 6H10.5Z" fill="#6C707E"/>
</svg>
