<svg width="16" height="16" viewBox="0 0 16 16" fill="none" xmlns="http://www.w3.org/2000/svg">
<path d="M15 8C15 8.5779 14.93 9.13945 14.7979 9.67661L13.5607 8.43934C12.9749 7.85355 12.0251 7.85355 11.4393 8.43934C10.8536 9.02513 10.8536 9.97487 11.4393 10.5607L11.8787 11H8.5C7.67157 11 7 11.6716 7 12.5C7 13.1531 7.4174 13.7087 8 13.9146V15C4.13401 15 1 11.866 1 8C1 4.13401 4.13401 1 8 1C11.866 1 15 4.13401 15 8Z" fill="#FAF5FF"/>
<path d="M7.5459 11H8.46582L10.8213 5H9.79004L8.04395 9.70508L6.23926 5H5.17871L7.5459 11Z" fill="#834DF0"/>
<path fill-rule="evenodd" clip-rule="evenodd" d="M12.1464 9.14645C12.3417 8.95118 12.6583 8.95118 12.8536 9.14645L15.8536 12.1464C16.0488 12.3417 16.0488 12.6583 15.8536 12.8536L12.8536 15.8536C12.6583 16.0488 12.3417 16.0488 12.1464 15.8536C11.9512 15.6583 11.9512 15.3417 12.1464 15.1464L14.2929 13H8.5C8.22386 13 8 12.7761 8 12.5C8 12.2238 8.22386 12 8.5 12H14.2929L12.1464 9.85355C11.9512 9.65829 11.9512 9.34171 12.1464 9.14645Z" fill="#6C707E"/>
<path d="M8 14C4.68629 14 2 11.3137 2 8C2 4.68629 4.68629 2 8 2C11.3137 2 14 4.68629 14 8C14 8.27911 13.9809 8.55376 13.9441 8.82274L14.7979 9.67661C14.93 9.13945 15 8.5779 15 8C15 4.13401 11.866 1 8 1C4.13401 1 1 4.13401 1 8C1 11.866 4.13401 15 8 15V14Z" fill="#834DF0"/>
</svg>
