<svg width="16" height="16" viewBox="0 0 16 16" fill="none" xmlns="http://www.w3.org/2000/svg">
<path fill-rule="evenodd" clip-rule="evenodd" d="M1 10.5C1 10.2239 1.22386 10 1.5 10H5.5C5.77614 10 6 10.2239 6 10.5V14.5C6 14.7761 5.77614 15 5.5 15C5.22386 15 5 14.7761 5 14.5V11.7071L0.853553 15.8536C0.658291 16.0488 0.341709 16.0488 0.146447 15.8536C-0.0488155 15.6583 -0.0488155 15.3417 0.146447 15.1464L4.29289 11H1.5C1.22386 11 1 10.7761 1 10.5Z" fill="#CED0D6"/>
<path d="M3 9V6C3 5.44772 3.44772 5 4 5H10C10.5523 5 11 5.44772 11 6V10C11 10.5523 10.5523 11 10 11H7V10.5C7 9.67157 6.32843 9 5.5 9H3Z" fill="#25324D"/>
<path d="M12 8.49986L14 9.99986V5.99986L12 7.49986V8.49986Z" fill="#25324D"/>
<path fill-rule="evenodd" clip-rule="evenodd" d="M12 10V9.74986L13.4 10.7999C14.0592 11.2943 15 10.8239 15 9.99986V5.99986C15 5.17582 14.0592 4.70544 13.4 5.19986L12 6.24986V6C12 4.89543 11.1046 4 10 4H4C2.89543 4 2 4.89543 2 6V9H3V6C3 5.44772 3.44772 5 4 5H10C10.5523 5 11 5.44772 11 6V10C11 10.5523 10.5523 11 10 11H7V12H10C11.1046 12 12 11.1046 12 10ZM14 9.99986L12 8.49986V7.49986L14 5.99986V9.99986Z" fill="#548AF7"/>
</svg>
