<svg width="16" height="16" viewBox="0 0 16 16" fill="none" xmlns="http://www.w3.org/2000/svg">
<path d="M10 9V8H11V9C11 10.1046 10.1046 11 9 11H8V10H9C9.55228 10 10 9.55228 10 9Z" fill="#DB5C5C"/>
<path d="M8 5V6H7C6.44772 6 6 6.44772 6 7V8H5V7C5 5.89543 5.89543 5 7 5H8Z" fill="#DB5C5C"/>
<path fill-rule="evenodd" clip-rule="evenodd" d="M5 11H4C2.89543 11 2 10.1046 2 9V4C2 2.89543 2.89543 2 4 2H9C10.1046 2 11 2.89543 11 4V5H12C13.1046 5 14 5.89543 14 7V12C14 13.1046 13.1046 14 12 14H7C5.89543 14 5 13.1046 5 12V11ZM4 3H9C9.55228 3 10 3.44772 10 4V5H9V6H10V7H11V6H12C12.5523 6 13 6.44772 13 7V12C13 12.5523 12.5523 13 12 13H7C6.44772 13 6 12.5523 6 12V11H7V10H6V9H5V10H4C3.44772 10 3 9.55228 3 9V4C3 3.44772 3.44772 3 4 3Z" fill="#DB5C5C"/>
<path fill-rule="evenodd" clip-rule="evenodd" d="M9 3H4C3.44772 3 3 3.44772 3 4V9C3 9.55228 3.44772 10 4 10H5V9H6V10H7V11H6V12C6 12.5523 6.44772 13 7 13H12C12.5523 13 13 12.5523 13 12V7C13 6.44772 12.5523 6 12 6H11V7H10V6H9V5H10V4C10 3.44772 9.55228 3 9 3ZM8 5V6H7C6.44772 6 6 6.44772 6 7V8H5V7C5 5.89543 5.89543 5 7 5H8ZM10 9V8H11V9C11 10.1046 10.1046 11 9 11H8V10H9C9.55228 10 10 9.55228 10 9Z" fill="#402929"/>
</svg>
