<svg width="14" height="14" viewBox="0 0 14 14" fill="none" xmlns="http://www.w3.org/2000/svg">
<g clip-path="url(#clip0_9582_13022)">
<path fill-rule="evenodd" clip-rule="evenodd" d="M11.7383 12.4454C11.2479 12.7946 10.6479 13 10 13C8.34315 13 7 11.6569 7 10C7 8.34315 8.34315 7 10 7C11.6569 7 13 8.34315 13 10C13 10.6479 12.7946 11.2479 12.4454 11.7383L13.8536 13.1464C14.0488 13.3417 14.0488 13.6583 13.8536 13.8536C13.6583 14.0488 13.3417 14.0488 13.1464 13.8536L11.7383 12.4454ZM12 10C12 11.1046 11.1046 12 10 12C8.89543 12 8 11.1046 8 10C8 8.89543 8.89543 8 10 8C11.1046 8 12 8.89543 12 10Z" fill="#CED0D6"/>
<path fill-rule="evenodd" clip-rule="evenodd" d="M11.7383 12.4454C11.2479 12.7946 10.6479 13 10 13C8.34315 13 7 11.6569 7 10C7 8.34315 8.34315 7 10 7C11.6569 7 13 8.34315 13 10C13 10.6479 12.7946 11.2479 12.4454 11.7383L13.8536 13.1464C14.0488 13.3417 14.0488 13.6583 13.8536 13.8536C13.6583 14.0488 13.3417 14.0488 13.1464 13.8536L11.7383 12.4454ZM12 10C12 11.1046 11.1046 12 10 12C8.89543 12 8 11.1046 8 10C8 8.89543 8.89543 8 10 8C11.1046 8 12 8.89543 12 10Z" fill="#548AF7"/>
<path fill-rule="evenodd" clip-rule="evenodd" d="M14 7C14 3.13401 10.866 0 7 0C3.13401 0 0 3.13401 0 7C0 10.866 3.13401 14 7 14C7.42169 14 7.83467 13.9627 8.23582 13.8913C8.39711 13.8625 8.55648 13.8283 8.71374 13.7887C8.16424 13.6022 7.66839 13.2995 7.25545 12.9099C7.13579 12.9861 7.05035 13 7 13C6.92395 13 6.76787 12.9683 6.5347 12.7382C6.29723 12.5038 6.03751 12.1151 5.79782 11.5558C5.60693 11.1104 5.44122 10.586 5.31105 10H6C6 9.6547 6.04375 9.31962 6.12602 9H5.13293C5.04739 8.37645 5 7.70458 5 7C5 6.29542 5.04739 5.62355 5.13293 5H8.86707C8.91675 5.36217 8.95357 5.74064 8.9757 6.13236C9.29326 6.04847 9.6263 6.00267 9.96963 6.00012C9.94867 5.65815 9.91711 5.32415 9.87577 5H12.6586C12.8797 5.62556 13 6.29873 13 7C13 7.11521 12.9968 7.22967 12.9903 7.34328C13.3413 7.738 13.6152 8.20266 13.7887 8.71374C13.8283 8.55648 13.8625 8.39711 13.8913 8.23582C13.9627 7.83467 14 7.42169 14 7ZM4.2887 10C4.51457 11.1094 4.86182 12.0582 5.2904 12.7529C3.80644 12.3126 2.56266 11.3137 1.80269 10H4.2887ZM4.12423 9H1.34141C1.12031 8.37444 1 7.70127 1 7C1 6.29873 1.12031 5.62556 1.34141 5H4.12423C4.0434 5.63371 4 6.30503 4 7C4 7.69497 4.0434 8.36629 4.12423 9ZM5.2904 1.24707C3.80644 1.6874 2.56266 2.68625 1.80269 4H4.2887C4.51457 2.89059 4.86182 1.9418 5.2904 1.24707ZM6.5347 1.26184C6.76787 1.03173 6.92395 1 7 1C7.07605 1 7.23213 1.03173 7.4653 1.26184C7.70277 1.4962 7.96249 1.8849 8.20218 2.44417C8.39307 2.8896 8.55878 3.41404 8.68895 4H5.31105C5.44122 3.41404 5.60693 2.8896 5.79782 2.44417C6.03751 1.8849 6.29723 1.4962 6.5347 1.26184ZM9.7113 4C9.48543 2.89059 9.13818 1.9418 8.7096 1.24707C10.1936 1.6874 11.4373 2.68625 12.1973 4H9.7113Z" fill="#CED0D6"/>
</g>
<defs>
<clipPath id="clip0_9582_13022">
<rect width="14" height="14" fill="white"/>
</clipPath>
</defs>
</svg>
