<svg width="16" height="16" viewBox="0 0 16 16" fill="none" xmlns="http://www.w3.org/2000/svg">
<path fill-rule="evenodd" clip-rule="evenodd" d="M13.7383 14.4454C13.2479 14.7946 12.6479 15 12 15C10.3431 15 9 13.6569 9 12C9 10.3431 10.3431 9 12 9C13.6569 9 15 10.3431 15 12C15 12.6479 14.7946 13.2479 14.4454 13.7383L15.8536 15.1464C16.0488 15.3417 16.0488 15.6583 15.8536 15.8536C15.6583 16.0488 15.3417 16.0488 15.1464 15.8536L13.7383 14.4454ZM14 12C14 13.1046 13.1046 14 12 14C10.8954 14 10 13.1046 10 12C10 10.8954 10.8954 10 12 10C13.1046 10 14 10.8954 14 12Z" fill="#CED0D6"/>
<path fill-rule="evenodd" clip-rule="evenodd" d="M15 8C15 4.13401 11.866 1 8 1C4.13401 1 1 4.13401 1 8C1 11.866 4.13401 15 8 15C8.42169 15 8.83467 14.9627 9.23582 14.8913C8.9034 14.5734 8.62571 14.1987 8.41831 13.7829C8.21105 13.9725 8.07082 14 8 14C7.92395 14 7.76787 13.9683 7.5347 13.7382C7.29723 13.5038 7.03751 13.1151 6.79782 12.5558C6.60693 12.1104 6.44122 11.586 6.31105 11H8.12602C8.21733 10.6452 8.35609 10.3095 8.53513 10H6.13293C6.04739 9.37645 6 8.70458 6 8C6 7.29542 6.04739 6.62355 6.13293 6H9.86707C9.95261 6.62355 10 7.29542 10 8C10 8.18247 9.99682 8.36276 9.99062 8.54057C10.3026 8.35898 10.6413 8.21838 10.9995 8.12614C10.9998 8.08418 11 8.04214 11 8C11 7.30503 10.9566 6.63371 10.8758 6H13.6586C13.8797 6.62556 14 7.29873 14 8C14 8.17596 13.9924 8.35015 13.9776 8.52226C14.3161 8.7152 14.6238 8.95613 14.8913 9.23582C14.9627 8.83467 15 8.42169 15 8ZM2.34141 10H5.12423C5.0434 9.36629 5 8.69497 5 8C5 7.30503 5.0434 6.63371 5.12423 6H2.34141C2.12031 6.62556 2 7.29873 2 8C2 8.70127 2.12031 9.37444 2.34141 10ZM5.2887 11H2.80269C3.56266 12.3137 4.80644 13.3126 6.2904 13.7529C5.86182 13.0582 5.51457 12.1094 5.2887 11ZM9.68895 5H6.31105C6.44122 4.41404 6.60693 3.8896 6.79782 3.44417C7.03751 2.8849 7.29723 2.4962 7.5347 2.26184C7.76787 2.03173 7.92395 2 8 2C8.07605 2 8.23213 2.03173 8.4653 2.26184C8.70277 2.4962 8.96249 2.8849 9.20218 3.44417C9.39307 3.8896 9.55878 4.41404 9.68895 5ZM13.1973 5H10.7113C10.4854 3.89059 10.1382 2.9418 9.7096 2.24707C11.1936 2.6874 12.4373 3.68625 13.1973 5ZM5.2887 5C5.51457 3.89059 5.86182 2.9418 6.2904 2.24707C4.80644 2.6874 3.56266 3.68625 2.80269 5H5.2887Z" fill="#CED0D6"/>
</svg>
