<svg width="16" height="16" viewBox="0 0 16 16" fill="none" xmlns="http://www.w3.org/2000/svg">
<path d="M1 7.19428C1 8.45256 1.6882 9.60212 2.75179 10.3633C2.84563 10.4254 2.89255 10.5186 2.89255 10.6429C2.89255 10.674 2.8769 10.7206 2.8769 10.7516C2.79871 11.0623 2.65792 11.575 2.6423 11.5905C2.62665 11.6371 2.611 11.6682 2.611 11.7148C2.611 11.808 2.68922 11.8857 2.78306 11.8857C2.81436 11.8857 2.84563 11.8701 2.8769 11.8546L3.98742 11.2177C4.06561 11.1711 4.15945 11.14 4.25332 11.14C4.30021 11.14 4.36278 11.14 4.40971 11.1556C4.92587 11.3109 5.48892 11.3886 6.06765 11.3886C8.86735 11.3886 11.1353 9.5089 11.1353 7.19428C11.1353 4.87966 8.86733 3 6.06765 3C3.26792 3 1 4.87966 1 7.19428Z" fill="url(#paint0_linear_15846_10776)"/>
<path d="M10.7871 13.8545C11.2708 13.8545 11.7389 13.7919 12.1601 13.6667C12.1914 13.6511 12.2382 13.6511 12.285 13.6511C12.363 13.6511 12.441 13.6823 12.5034 13.7136L13.424 14.2458C13.4552 14.2614 13.4708 14.2771 13.502 14.2771C13.58 14.2771 13.6424 14.2145 13.6424 14.1362C13.6424 14.1049 13.6268 14.0736 13.6268 14.0267C13.6268 14.011 13.502 13.5884 13.4396 13.3224C13.424 13.2911 13.424 13.2598 13.424 13.2285C13.424 13.1345 13.4708 13.0563 13.5488 12.9937C14.4382 12.352 14.9999 11.3973 14.9999 10.333C14.9999 8.39225 13.1119 6.81152 10.7871 6.81152C8.4622 6.81152 6.57422 8.37661 6.57422 10.333C6.57422 12.2737 8.4622 13.8545 10.7871 13.8545Z" fill="url(#paint1_linear_15846_10776)"/>
<path d="M5.03494 5.8413C5.03494 6.20364 4.74718 6.49046 4.3837 6.49046C4.02018 6.49046 3.73242 6.20364 3.73242 5.8413C3.73242 5.47896 4.02021 5.19214 4.3837 5.19214C4.74718 5.19214 5.03494 5.47896 5.03494 5.8413ZM8.41338 5.8413C8.41338 6.20364 8.12559 6.49046 7.7621 6.49046C7.39862 6.49046 7.11086 6.20364 7.11086 5.8413C7.11086 5.47896 7.39864 5.19214 7.7621 5.19214C8.12562 5.19214 8.41338 5.47896 8.41338 5.8413Z" fill="#187E28"/>
<path d="M11.6523 9.25223C11.6523 9.56782 11.9056 9.82028 12.2222 9.82028C12.5388 9.82028 12.792 9.56782 12.792 9.25223C12.792 8.93666 12.5387 8.6842 12.2222 8.6842C11.9056 8.6842 11.6523 8.93663 11.6523 9.25223ZM8.84375 9.25225C8.84375 9.56782 9.09702 9.82028 9.41359 9.82028C9.73018 9.82028 9.98346 9.56782 9.98346 9.25223C9.98346 8.93666 9.73018 8.6842 9.41359 8.6842C9.097 8.6842 8.84375 8.93666 8.84375 9.25225Z" fill="#858C8C"/>
<defs>
<linearGradient id="paint0_linear_15846_10776" x1="6.07326" y1="11.3659" x2="6.07326" y2="3.0388" gradientUnits="userSpaceOnUse">
<stop stop-color="#78D431"/>
<stop offset="1" stop-color="#9EEE69"/>
</linearGradient>
<linearGradient id="paint1_linear_15846_10776" x1="10.7946" y1="13.7944" x2="10.7946" y2="6.80879" gradientUnits="userSpaceOnUse">
<stop stop-color="#E4E6E6"/>
<stop offset="1" stop-color="#F5F5FF"/>
</linearGradient>
</defs>
</svg>
