<svg width="40" height="40" viewBox="0 0 40 40" fill="none" xmlns="http://www.w3.org/2000/svg">
<path d="M2 16.7836C2 20.0187 3.76937 22.9742 6.5039 24.9313C6.74517 25.091 6.86581 25.3307 6.86581 25.6502C6.86581 25.7301 6.82557 25.8499 6.82557 25.9297C6.62454 26.7285 6.26256 28.0465 6.22239 28.0865C6.18216 28.2062 6.14192 28.2861 6.14192 28.406C6.14192 28.6456 6.34303 28.8453 6.5843 28.8453C6.66477 28.8453 6.74517 28.8054 6.82557 28.7654L9.68073 27.1279C9.88177 27.0081 10.123 26.9282 10.3644 26.9282C10.4849 26.9282 10.6458 26.9282 10.7665 26.9682C12.0935 27.3676 13.5411 27.5672 15.0291 27.5672C22.2272 27.5672 28.0581 22.7346 28.0581 16.7836C28.0581 10.8327 22.2271 6 15.0291 6C7.83089 6 2 10.8327 2 16.7836Z" fill="url(#paint0_linear_15844_10697)"/>
<path d="M27.1693 33.9138C28.4129 33.9138 29.6164 33.7529 30.6994 33.431C30.7797 33.3908 30.9001 33.3908 31.0204 33.3908C31.221 33.3908 31.4216 33.4712 31.5821 33.5517L33.9489 34.9199C34.0291 34.96 34.0693 35.0003 34.1495 35.0003C34.3501 35.0003 34.5105 34.8394 34.5105 34.6382C34.5105 34.5577 34.4704 34.4772 34.4704 34.3565C34.4704 34.3162 34.1495 33.2298 33.989 32.5457C33.9489 32.4653 33.9489 32.3847 33.9489 32.3043C33.9489 32.0628 34.0693 31.8616 34.2698 31.7006C36.5565 30.0509 38.0007 27.5962 38.0007 24.86C38.0007 19.8703 33.1466 15.8062 27.1693 15.8062C21.1919 15.8062 16.3379 19.83 16.3379 24.86C16.3379 29.8497 21.1919 33.9138 27.1693 33.9138Z" fill="url(#paint1_linear_15844_10697)"/>
<path d="M12.3605 13.3024C12.3605 14.234 11.6207 14.9714 10.6862 14.9714C9.75156 14.9714 9.01172 14.234 9.01172 13.3024C9.01172 12.3708 9.75163 11.6334 10.6862 11.6334C11.6207 11.6334 12.3605 12.3708 12.3605 13.3024ZM21.0466 13.3024C21.0466 14.234 20.3067 14.9714 19.3721 14.9714C18.4376 14.9714 17.6978 14.234 17.6978 13.3024C17.6978 12.3708 18.4377 11.6334 19.3721 11.6334C20.3068 11.6334 21.0466 12.3708 21.0466 13.3024Z" fill="#187E28"/>
<path d="M29.4182 22.0643C29.4182 22.8757 30.0693 23.5248 30.8833 23.5248C31.6973 23.5248 32.3484 22.8757 32.3484 22.0643C32.3484 21.253 31.6972 20.6039 30.8833 20.6039C30.0693 20.6039 29.4182 21.2529 29.4182 22.0643ZM22.1973 22.0644C22.1973 22.8757 22.8484 23.5248 23.6623 23.5248C24.4763 23.5248 25.1275 22.8757 25.1275 22.0643C25.1275 21.253 24.4763 20.6039 23.6623 20.6039C22.8484 20.6039 22.1973 21.253 22.1973 22.0644Z" fill="#858C8C"/>
<defs>
<linearGradient id="paint0_linear_15844_10697" x1="15.0435" y1="27.5089" x2="15.0435" y2="6.09975" gradientUnits="userSpaceOnUse">
<stop stop-color="#78D431"/>
<stop offset="1" stop-color="#9EEE69"/>
</linearGradient>
<linearGradient id="paint1_linear_15844_10697" x1="27.1886" y1="33.7593" x2="27.1886" y2="15.7991" gradientUnits="userSpaceOnUse">
<stop stop-color="#E4E6E6"/>
<stop offset="1" stop-color="#F5F5FF"/>
</linearGradient>
</defs>
</svg>
