<svg width="16" height="16" viewBox="0 0 16 16" fill="none" xmlns="http://www.w3.org/2000/svg">
<path fill-rule="evenodd" clip-rule="evenodd" d="M11.9958 8.65695L12.5275 10.2459L13.4553 8.65695H11.9958ZM11.8989 5.22108V8.15949H13.4733L11.8989 5.22108ZM11.4013 6.88008V4.50668H10.607L11.4013 6.88008ZM9.66918 1.70489L10.4404 4.00898H11.2496L9.93617 1.55776L9.73749 1.66711L9.66918 1.70489ZM8.58495 14.5022H9.76552L9.32012 13.6815L9.17248 13.8417C8.99732 14.055 8.80215 14.2757 8.58495 14.5022ZM8.00692 13.7539L8.02694 8.96698C7.89983 9.04079 7.71716 9.1554 7.50222 9.30528C7.52248 9.89632 7.61732 11.9092 8.00692 13.7539ZM6.65995 9.96238C6.67797 10.341 6.79057 11.7002 7.49071 13.1797C7.23823 11.7307 7.14639 10.2954 7.11436 9.59004C6.95927 9.70967 6.80774 9.83383 6.65995 9.96238ZM6.22906 14.5022H7.45767L7.36384 14.3921C7.13317 14.146 6.91375 13.8896 6.70624 13.6238L6.22906 14.5022ZM5.8362 10.7844C5.88049 11.0514 6.22606 12.058 7.08484 13.2566C6.51932 12.03 6.33991 10.9075 6.28361 10.3089C6.12757 10.4609 5.97846 10.6195 5.8362 10.7844ZM6.45702 8.31614V9.45467C6.65667 9.28222 6.86523 9.12035 7.08183 8.96973C7.63258 8.56186 7.85679 8.47803 7.99817 8.46903L7.99742 8.31614H6.45702ZM2.53921 8.65695L3.53111 10.3553L4.21373 8.65695H2.53921ZM4.33334 5.96025L2.61578 8.15925H4.33309L4.33334 5.96025ZM4.83129 5.32292V7.1213L6.03914 4.11583L5.87774 3.98296L4.83129 5.32292ZM12.8561 10.6708H13.7716L14.0206 10.9198V14.7507L13.7716 15H2.25846L2.00974 14.7513V10.92L2.25846 10.671H3.13876L1.89062 8.53409L1.90914 8.25533L5.64253 3.47575L5.98159 3.43821L5.98784 3.4297L7.66511 4.68785L7.36634 5.08621L6.45952 4.40559L3.8489 10.9L5.80267 14.2443L6.38095 13.1797C5.40131 11.7568 5.32999 10.7769 5.32649 10.7216L5.38479 10.5465C5.56733 10.3294 5.75892 10.1201 5.95907 9.91909V8.06741L6.20829 7.81844H9.78654L10.0355 8.06741V9.86129C10.2392 10.0619 10.4514 10.2892 10.6681 10.5467L10.7261 10.7216C10.7231 10.7777 10.6498 11.7785 9.6394 13.2268L10.1924 14.2443L12.1937 10.8177L9.22628 1.94911L8.41229 2.39827L8.17207 1.96237L9.9159 1L10.2557 1.10059L14.1084 8.29086L14.1039 8.53409L12.8561 10.6708Z" fill="#4682FA"/>
</svg>
