<svg width="16" height="16" viewBox="0 0 16 16" fill="none" xmlns="http://www.w3.org/2000/svg">
<path d="M7.05121 14.7394L2.9402 13.6005L1.81445 1H14.1844L13.431 9.42353C12.6503 8.52406 11.4094 8 10.1324 8C8.03836 8 6 9.43944 6 11.5997C6 12.5554 6.42133 13.3963 7.06742 14.0145C7.06331 14.0261 7.05535 14.049 7.04734 14.0756C7.02371 14.1541 6.99887 14.2656 6.99887 14.4024C6.99887 14.52 7.01723 14.6332 7.05121 14.7394Z" fill="#548AF7"/>
<path d="M4.11719 3.57617L4.25796 5.12159H10.1773L10.0363 6.7041H4.396L4.5348 8.24949L8.62995 8.24949C9.10786 8.08671 9.61844 8 10.1324 8C10.5862 8 11.0354 8.06618 11.461 8.19187L11.557 7.11909L11.5948 6.7041L11.8744 3.57617H4.11719Z" fill="white"/>
<path d="M6.00484 11.7767C6.00163 11.7181 6 11.6591 6 11.5997C6 11.1138 6.10312 10.6644 6.28679 10.2596L6.2688 10.2548L6.15855 9.02222H4.604L4.82096 11.4487L6.00484 11.7767Z" fill="white"/>
<path fill-rule="evenodd" clip-rule="evenodd" d="M13.9228 13.2207C13.7263 13.2207 13.569 13.0635 13.569 12.867C13.569 12.6704 13.7263 12.5132 13.9228 12.5132C14.1194 12.5132 14.2766 12.6704 14.2766 12.867C14.2766 13.0537 14.1194 13.2207 13.9228 13.2207ZM12.1792 13.2207C11.9827 13.2207 11.8255 13.0635 11.8255 12.867C11.8255 12.6704 11.9827 12.5132 12.1792 12.5132C12.3758 12.5132 12.533 12.6704 12.533 12.867C12.533 13.0537 12.3758 13.2207 12.1792 13.2207ZM14.7666 15.2064C15.3181 14.8094 15.6664 14.2189 15.6664 13.5701C15.6664 12.3696 14.5053 11.4014 13.0637 11.4014C11.622 11.4014 10.4609 12.3696 10.4609 13.5701C10.4609 14.7707 11.622 15.7389 13.0637 15.7389C13.3636 15.7389 13.6442 15.7002 13.9151 15.6228C13.9345 15.6131 13.9635 15.6131 13.9925 15.6131C14.0409 15.6131 14.0893 15.6324 14.128 15.6518L14.6988 15.981C14.7182 15.9907 14.7279 16.0004 14.7472 16.0004C14.7587 16.0004 14.77 15.9982 14.7806 15.9938C14.7912 15.9894 14.8008 15.983 14.8089 15.9749C14.817 15.9668 14.8234 15.9572 14.8278 15.9466C14.8321 15.936 14.8344 15.9247 14.8343 15.9132C14.8343 15.8938 14.8246 15.8745 14.8246 15.8454C14.8246 15.8358 14.7472 15.5743 14.7085 15.4097C14.6988 15.3904 14.6988 15.371 14.6988 15.3516C14.6892 15.2839 14.7182 15.2355 14.7666 15.2064Z" fill="url(#paint0_linear_15854_10693)"/>
<path fill-rule="evenodd" clip-rule="evenodd" d="M13.9225 13.2207C13.726 13.2207 13.5688 13.0635 13.5688 12.867C13.5688 12.6704 13.726 12.5132 13.9225 12.5132C14.1191 12.5132 14.2763 12.6704 14.2763 12.867C14.2763 13.0537 14.1191 13.2207 13.9225 13.2207ZM12.179 13.2207C11.9824 13.2207 11.8252 13.0635 11.8252 12.867C11.8252 12.6704 11.9824 12.5132 12.179 12.5132C12.3755 12.5132 12.5327 12.6704 12.5327 12.867C12.5327 13.0537 12.3755 13.2207 12.179 13.2207Z" fill="#858C8C"/>
<path fill-rule="evenodd" clip-rule="evenodd" d="M11.1441 11.1731C10.9185 11.1731 10.7398 10.9945 10.7398 10.7688C10.7398 10.5432 10.9185 10.3645 11.1441 10.3645C11.3698 10.3645 11.5485 10.5432 11.5485 10.7688C11.5485 10.9851 11.3698 11.1731 11.1441 11.1731ZM9.07207 11.1731C8.84642 11.1731 8.66777 10.9945 8.66777 10.7688C8.66777 10.5432 8.84642 10.3645 9.07207 10.3645C9.29773 10.3645 9.47638 10.5432 9.47638 10.7688C9.47638 10.9851 9.29773 11.1731 9.07207 11.1731ZM10.1324 9C8.40613 9 7 10.1597 7 11.5997C7 12.3825 7.41699 13.088 8.08615 13.5616C8.13464 13.6003 8.17342 13.6582 8.17342 13.7355C8.17342 13.7549 8.16372 13.7839 8.16372 13.8032C8.11523 13.9965 8.02795 14.3154 8.01825 14.3251C8.00857 14.3541 7.99887 14.3734 7.99887 14.4024C7.99887 14.4604 8.04736 14.5087 8.10553 14.5087C8.12493 14.5087 8.14431 14.499 8.16372 14.4894L8.85226 14.0931C8.90075 14.0641 8.95894 14.0448 9.01711 14.0448C9.04622 14.0448 9.07531 14.0448 9.10439 14.0545C9.42443 14.1414 9.77352 14.1994 10.1227 14.1994H10.2972C10.2293 13.9965 10.1905 13.7839 10.1905 13.5616C10.1905 12.2569 11.4706 11.1938 13.0417 11.1938H13.2162C12.9932 9.94709 11.6937 9 10.1324 9Z" fill="url(#paint1_linear_15854_10693)"/>
<path fill-rule="evenodd" clip-rule="evenodd" d="M11.1443 11.1731C10.9187 11.1731 10.74 10.9945 10.74 10.7688C10.74 10.5432 10.9187 10.3645 11.1443 10.3645C11.37 10.3645 11.5487 10.5432 11.5487 10.7688C11.5487 10.9851 11.37 11.1731 11.1443 11.1731ZM9.07228 11.1731C8.84662 11.1731 8.66797 10.9945 8.66797 10.7688C8.66797 10.5432 8.84662 10.3645 9.07228 10.3645C9.29793 10.3645 9.47658 10.5432 9.47658 10.7688C9.47658 10.9851 9.29793 11.1731 9.07228 11.1731Z" fill="#187E28"/>
<defs>
<linearGradient id="paint0_linear_15854_10693" x1="13.0683" y1="15.703" x2="13.0683" y2="11.3997" gradientUnits="userSpaceOnUse">
<stop stop-color="#E4E6E6"/>
<stop offset="1" stop-color="#F5F5FF"/>
</linearGradient>
<linearGradient id="paint1_linear_15854_10693" x1="10.1116" y1="14.1864" x2="10.1116" y2="9.02405" gradientUnits="userSpaceOnUse">
<stop stop-color="#78D431"/>
<stop offset="1" stop-color="#9EEE69"/>
</linearGradient>
</defs>
</svg>
