<svg width="16" height="16" viewBox="0 0 16 16" fill="none" xmlns="http://www.w3.org/2000/svg">
<rect x="11" y="12" width="4" height="3" fill="#43454A"/>
<path fill-rule="evenodd" clip-rule="evenodd" d="M15 11V10C15 8.89543 14.1046 8 13 8C11.8954 8 11 8.89543 11 10V11C10.4477 11 10 11.4477 10 12V15C10 15.5523 10.4477 16 11 16H15C15.5523 16 16 15.5523 16 15V12C16 11.4477 15.5523 11 15 11ZM12 10C12 9.44772 12.4477 9 13 9C13.5523 9 14 9.44772 14 10V11H12V10ZM11 15L11 12H15V15H11Z" fill="#CED0D6"/>
<path d="M9 14.6089C8.91274 14.6602 8.816 14.6952 8.71446 14.7114C7.64566 14.8634 6.56967 14.9597 5.49086 14.9999C4.90934 15.0044 4.55283 14.8499 4.45383 14.6119C4.41305 14.5155 4.39192 14.4119 4.39167 14.3073C4.39143 14.2026 4.41207 14.099 4.4524 14.0024C4.49273 13.9058 4.55192 13.8182 4.62652 13.7448C4.70113 13.6714 4.78963 13.6136 4.88684 13.5749C4.79595 13.5191 4.70997 13.4557 4.62984 13.3854C4.60033 13.3558 4.57022 13.3161 4.54233 13.2793C4.48942 13.2094 4.44451 13.1501 4.42683 13.1913C4.39195 13.2766 4.36221 13.4 4.32878 13.5388C4.25438 13.8476 4.16169 14.2323 3.95331 14.4414C3.5383 14.8609 2.75328 14.7209 2.28926 14.4774C1.77975 14.2069 2.32526 13.5709 2.32526 13.5709C2.28159 13.593 2.2339 13.6061 2.18505 13.6095C2.13619 13.6128 2.08717 13.6063 2.04089 13.5903C1.9946 13.5743 1.95202 13.5491 1.91566 13.5163C1.8793 13.4835 1.84991 13.4437 1.82925 13.3994C1.5637 12.956 1.44684 12.4393 1.49574 11.9248C1.62385 11.3607 1.93055 10.8531 2.37026 10.4773C2.301 9.72811 2.41388 8.97331 2.69927 8.27719C3.07621 7.55153 3.61828 6.92451 4.28182 6.44663C4.28182 6.44663 3.31279 5.3731 3.6738 4.40807C3.89421 3.815 3.99094 3.78331 4.06571 3.75881C4.07049 3.75724 4.07519 3.7557 4.07982 3.75405C4.35208 3.67012 4.60079 3.52333 4.80584 3.32554C5.08172 3.02181 5.42478 2.78677 5.80763 2.63919C6.19049 2.4916 6.60254 2.43555 7.01091 2.47551C7.01091 2.47551 7.59893 0.699453 8.13745 1.04446C8.43536 1.50172 8.69189 1.98465 8.90397 2.48751C8.90397 2.48751 9.54449 2.1135 9.61649 2.253C9.98478 3.23135 10.0753 4.29251 9.878 5.3191C9.64524 6.3043 9.20171 7.22735 8.57796 8.02468C8.55799 8.05796 8.61769 8.11259 8.72544 8.21119C8.98197 8.44592 9.51085 8.92986 9.8855 9.96825C9.92352 10.0727 9.95598 10.1758 9.98355 10.2772C9.39483 10.6253 9 11.2665 9 12V14.6089Z" fill="#498DB7"/>
</svg>
