<svg width="16" height="16" viewBox="0 0 16 16" fill="none" xmlns="http://www.w3.org/2000/svg">
<path d="M7.5 1C7.77614 1 8 1.22386 8 1.5V7H13.5C13.7761 7 14 7.22386 14 7.5C14 7.77614 13.7761 8 13.5 8H8V13.5C8 13.7761 7.77614 14 7.5 14C7.22386 14 7 13.7761 7 13.5V8H1.5C1.22386 8 1 7.77614 1 7.5C1 7.22386 1.22386 7 1.5 7H7V1.5C7 1.22386 7.22386 1 7.5 1Z" fill="#C27D04"/>
<path d="M11 10C11 10.5523 10.5523 11 10 11C9.44771 11 9 10.5523 9 10C9 9.44771 9.44771 9 10 9C10.5523 9 11 9.44771 11 10Z" fill="#C27D04"/>
<path d="M5 6C5.55228 6 6 5.55228 6 5C6 4.44772 5.55228 4 5 4C4.44772 4 4 4.44772 4 5C4 5.55228 4.44772 6 5 6Z" fill="#C27D04"/>
<path d="M3 5C3 5.55228 2.55228 6 2 6C1.44772 6 1 5.55228 1 5C1 4.44772 1.44772 4 2 4C2.55228 4 3 4.44772 3 5Z" fill="#C27D04"/>
<path d="M5 11C5.55228 11 6 10.5523 6 10C6 9.44771 5.55228 9 5 9C4.44772 9 4 9.44771 4 10C4 10.5523 4.44772 11 5 11Z" fill="#C27D04"/>
<path fill-rule="evenodd" clip-rule="evenodd" d="M2.5 14C3.32843 14 4 13.3284 4 12.5C4 11.6716 3.32843 11 2.5 11C1.67157 11 1 11.6716 1 12.5C1 13.3284 1.67157 14 2.5 14ZM2.5 13C2.77614 13 3 12.7761 3 12.5C3 12.2239 2.77614 12 2.5 12C2.22386 12 2 12.2239 2 12.5C2 12.7761 2.22386 13 2.5 13Z" fill="#C27D04"/>
<path fill-rule="evenodd" clip-rule="evenodd" d="M12 4.5C12 5.32843 11.3284 6 10.5 6C9.67157 6 9 5.32843 9 4.5C9 3.67157 9.67157 3 10.5 3C11.3284 3 12 3.67157 12 4.5ZM11 4.5C11 4.77614 10.7761 5 10.5 5C10.2239 5 10 4.77614 10 4.5C10 4.22386 10.2239 4 10.5 4C10.7761 4 11 4.22386 11 4.5Z" fill="#C27D04"/>
<path d="M14 12C14 12.5523 13.5523 13 13 13C12.4477 13 12 12.5523 12 12C12 11.4477 12.4477 11 13 11C13.5523 11 14 11.4477 14 12Z" fill="#C27D04"/>
<path d="M13 3C13.5523 3 14 2.55228 14 2C14 1.44772 13.5523 1 13 1C12.4477 1 12 1.44772 12 2C12 2.55228 12.4477 3 13 3Z" fill="#C27D04"/>
<path d="M4 2C4 2.55228 3.55228 3 3 3C2.44772 3 2 2.55228 2 2C2 1.44772 2.44772 1 3 1C3.55228 1 4 1.44772 4 2Z" fill="#C27D04"/>
<path d="M10 14C10.5523 14 11 13.5523 11 13C11 12.4477 10.5523 12 10 12C9.44771 12 9 12.4477 9 13C9 13.5523 9.44771 14 10 14Z" fill="#C27D04"/>
</svg>
