<svg width="16" height="16" viewBox="0 0 16 16" fill="none" xmlns="http://www.w3.org/2000/svg">
<path d="M1 3.86667C1 2.83574 1.7835 2 2.75 2H6.03823C6.29871 2 6.5489 2.10163 6.73559 2.28327L8.5 4L13 4C14.1046 4 15 4.89543 15 6V7.47774C14.2142 6.80872 13.0333 6.84543 12.2909 7.58786L7 12.8787V14H2.75C1.7835 14 1 13.1643 1 12.1333V3.86667Z" fill="#43454A"/>
<path d="M8.09379 5H13C13.5523 5 14 5.44772 14 6V7.02381C14.3594 7.07711 14.7072 7.22842 15 7.47774V6C15 4.89543 14.1046 4 13 4L8.5 4L6.73559 2.28327C6.5489 2.10163 6.29871 2 6.03823 2H2.75C1.7835 2 1 2.83574 1 3.86667V12.1333C1 13.1643 1.7835 14 2.75 14H7V13H2.75C2.3956 13 2 12.6738 2 12.1333V3.86667C2 3.32624 2.3956 3 2.75 3H6.03823L8.09379 5Z" fill="#CED0D6"/>
<path fill-rule="evenodd" clip-rule="evenodd" d="M14.4122 8.29485C14.0217 7.90432 13.3885 7.90432 12.998 8.29485L11.6466 9.64621L8 13.2928V15.9999H10.7071L15.7051 11.002C16.0956 10.6114 16.0956 9.97826 15.7051 9.58774L14.4122 8.29485ZM14 11.2928L14.998 10.2948L13.7051 9.00195L12.7071 9.99992L14 11.2928ZM12 10.707L13.2929 11.9999L10.2929 14.9999H9V13.707L12 10.707Z" fill="#CED0D6"/>
</svg>
