<svg width="16" height="16" viewBox="0 0 16 16" fill="none" xmlns="http://www.w3.org/2000/svg">
<path fill-rule="evenodd" clip-rule="evenodd" d="M15.3798 12.7116C15.5435 12.8689 15.5436 13.1309 15.3799 13.2883L12.6774 15.8875C12.4232 16.1319 12 15.9518 12 15.5992L12 10.4037C12 10.0512 12.423 9.87106 12.6772 10.1153L15.3798 12.7116Z" fill="#55A76A"/>
<path fill-rule="evenodd" clip-rule="evenodd" d="M7.62255 13.2884C7.45909 13.131 7.45916 12.8693 7.62271 12.712L10.3216 10.1164C10.5757 9.87198 10.9989 10.0521 10.9989 10.4047V15.5988C10.9989 15.9515 10.5755 16.1315 10.3214 15.8869L7.62255 13.2884Z" fill="#E55765"/>
<path d="M1 3.86667C1 2.83574 1.7835 2 2.75 2H6.03823C6.29871 2 6.5489 2.10163 6.73559 2.28327L8.5 4L13 4C14.1046 4 15 4.89543 15 6V10.9602L13.37 9.39427C12.8081 8.85449 12.0104 8.90704 11.499 9.33004C10.9874 8.90755 10.1899 8.85552 9.6284 9.39554L6.92953 11.9912C6.36003 12.5389 6.35681 13.4482 6.92007 14H2.75C1.7835 14 1 13.1643 1 12.1333V3.86667Z" fill="#EBECF0"/>
<path d="M6.03823 3L8.09379 5H13C13.5523 5 14 5.44772 14 6V9.9995L15 10.9602V6C15 4.89543 14.1046 4 13 4L8.5 4L6.73559 2.28327C6.5489 2.10163 6.29871 2 6.03823 2H2.75C1.7835 2 1 2.83574 1 3.86667V12.1333C1 13.1643 1.7835 14 2.75 14H6.92007C6.63997 13.7256 6.49996 13.3628 6.5 13H2.75C2.3956 13 2 12.6738 2 12.1333V3.86667C2 3.32624 2.3956 3 2.75 3H6.03823Z" fill="#6C707E"/>
</svg>
