<svg width="12" height="12" viewBox="0 0 12 12" fill="none" xmlns="http://www.w3.org/2000/svg">
<path fill-rule="evenodd" clip-rule="evenodd" d="M5.625 0.75C5.83211 0.75 6 0.917893 6 1.125V5.25H10.125C10.3321 5.25 10.5 5.41789 10.5 5.625C10.5 5.83211 10.3321 6 10.125 6H6V10.125C6 10.3321 5.83211 10.5 5.625 10.5C5.41789 10.5 5.25 10.3321 5.25 10.125V6H1.125C0.917893 6 0.75 5.83211 0.75 5.625C0.75 5.41789 0.917893 5.25 1.125 5.25H5.25V1.125C5.25 0.917893 5.41789 0.75 5.625 0.75Z" fill="#6C707E"/>
</svg>
