<svg width="12" height="12" viewBox="0 0 12 12" fill="none" xmlns="http://www.w3.org/2000/svg">
<path fill-rule="evenodd" clip-rule="evenodd" d="M8.6205 3.36597C8.47518 3.21014 8.22934 3.2067 8.07972 3.3584L6.0006 5.46646L3.92158 3.3585C3.77196 3.2068 3.52612 3.21024 3.38081 3.36607C3.24384 3.51295 3.24704 3.74171 3.38807 3.88469L5.47436 6.00003L3.38822 8.1152C3.24719 8.25819 3.24399 8.48694 3.38096 8.63382C3.52627 8.78965 3.77211 8.7931 3.92173 8.64139L6.0006 6.53359L8.07957 8.64149C8.22919 8.7932 8.47503 8.78975 8.62034 8.63392C8.75731 8.48704 8.75411 8.25829 8.61308 8.1153L6.52684 6.00003L8.61324 3.88459C8.75426 3.74161 8.75746 3.51285 8.6205 3.36597Z" fill="#6F737A"/>
</svg>
