<svg width="16" height="16" viewBox="0 0 16 16" fill="none" xmlns="http://www.w3.org/2000/svg">
<path fill-rule="evenodd" clip-rule="evenodd" d="M11.4939 4.4879C11.3002 4.28013 10.9724 4.27554 10.7729 4.47781L8.00073 7.28855L5.22871 4.47794C5.02921 4.27567 4.70142 4.28026 4.50767 4.48804C4.32505 4.68388 4.32932 4.98888 4.51735 5.17953L7.29908 7.99997L4.51755 10.8202C4.32952 11.0109 4.32525 11.3159 4.50787 11.5117C4.70163 11.7195 5.02942 11.7241 5.22891 11.5218L8.00073 8.71139L10.7727 11.5219C10.9722 11.7242 11.3 11.7196 11.4937 11.5118C11.6763 11.316 11.6721 11.011 11.484 10.8203L8.70239 7.99997L11.4842 5.1794C11.6723 4.98875 11.6765 4.68374 11.4939 4.4879Z" fill="#6F737A"/>
</svg>
