<svg width="16" height="16" viewBox="0 0 16 16" fill="none" xmlns="http://www.w3.org/2000/svg">
<path d="M10.986 0.0806949C10.7135 0.0356266 10.4561 0.219948 10.4111 0.492387C10.366 0.764827 10.5503 1.02222 10.8228 1.06729C12.9246 1.41499 14.5851 3.0754 14.9328 5.17727C14.9778 5.44971 15.2352 5.63403 15.5077 5.58896C15.7801 5.54389 15.9644 5.2865 15.9193 5.01406C15.5018 2.48976 13.5103 0.498277 10.986 0.0806949Z" fill="#369650"/>
<path d="M9.99995 2.95876C10.045 2.68632 10.3024 2.502 10.5748 2.54706C12.0477 2.79072 13.2093 3.95223 13.4529 5.42512C13.498 5.69756 13.3137 5.95496 13.0412 6.00002C12.7688 6.04509 12.5114 5.86077 12.4663 5.58833C12.2925 4.53787 11.4621 3.70743 10.4116 3.53366C10.1392 3.48859 9.95488 3.2312 9.99995 2.95876Z" fill="#369650"/>
<path d="M11 6C11 6.55228 10.5523 7 10 7C9.44772 7 9 6.55228 9 6C9 5.44772 9.44772 5 10 5C10.5523 5 11 5.44772 11 6Z" fill="#369650"/>
<path d="M9.47576 1.93812C9.05176 1.66106 8.54508 1.5 8.00078 1.5C6.50961 1.5 5.30078 2.70883 5.30078 4.2C5.30078 4.2788 5.30416 4.35681 5.31077 4.43389C4.83907 4.69432 4.43388 5.06044 4.12713 5.50031L2.0178 4.3602C1.77487 4.2289 1.4715 4.31939 1.34019 4.56231C1.20889 4.80524 1.29938 5.10862 1.5423 5.23992L3.67821 6.3944C3.5626 6.74192 3.5 7.11365 3.5 7.5V8.50006H1.09961C0.823467 8.50006 0.599609 8.72392 0.599609 9.00006C0.599609 9.2762 0.823467 9.50006 1.09961 9.50006H3.5V10C3.5 10.4892 3.57807 10.9602 3.72243 11.4012L1.52989 12.6671C1.29075 12.8051 1.20881 13.1109 1.34688 13.3501C1.48495 13.5892 1.79075 13.6712 2.02989 13.5331L4.14018 12.3147C4.92704 13.624 6.36122 14.5 8 14.5C9.6382 14.5 11.0719 13.6246 11.859 12.3161L13.967 13.5331C14.2061 13.6712 14.5119 13.5893 14.65 13.3501C14.7881 13.111 14.7061 12.8052 14.467 12.6671L12.2771 11.4028C12.4217 10.9613 12.5 10.4898 12.5 10V9.49982H14.9004C15.1765 9.49982 15.4004 9.27596 15.4004 8.99982C15.4004 8.72367 15.1765 8.49982 14.9004 8.49982H12.5V7.5C12.5 7.30189 12.4835 7.10762 12.4519 6.91849C12.2504 6.8458 12.0668 6.73073 11.9139 6.58228C11.8288 6.86227 11.684 7.11626 11.4943 7.32938C11.4981 7.38576 11.5 7.44265 11.5 7.5V10C11.5 11.933 9.933 13.5 8 13.5C6.067 13.5 4.5 11.933 4.5 10V7.5C4.5 6.11929 5.61929 5 7 5H8.26757C8.51876 4.56575 8.92854 4.23472 9.41772 4.08609C9.39624 4.06396 9.37546 4.04119 9.3554 4.01782C9.23854 4.00604 9.11997 4 9 4H7C6.76231 4 6.53015 4.02369 6.30577 4.06885C6.37272 3.19125 7.10603 2.5 8.00078 2.5C8.37777 2.5 8.7261 2.62272 9.008 2.83038C9.00965 2.81878 9.01143 2.80717 9.01335 2.79555C9.07005 2.45285 9.23872 2.15662 9.47576 1.93812Z" fill="#6C707E"/>
</svg>
