<svg width="20" height="20" viewBox="0 0 20 20" fill="none" xmlns="http://www.w3.org/2000/svg">
<g clip-path="url(#clip0_3286_47057)">
<path d="M13.9702 0.14422C13.5639 0.0634214 13.1691 0.327257 13.0883 0.733514C13.0075 1.13977 13.2713 1.53461 13.6776 1.61541C16.0458 2.08642 17.9134 3.95399 18.3844 6.32227C18.4652 6.72852 18.8601 6.99236 19.2663 6.91156C19.6726 6.83076 19.9364 6.43592 19.8556 6.02967C19.2663 3.06633 16.9335 0.733588 13.9702 0.14422Z" fill="#57965C"/>
<path d="M12.4999 3.67582C12.5807 3.26956 12.9755 3.00573 13.3818 3.08653C15.1603 3.44025 16.5597 4.83959 16.9134 6.61813C16.9942 7.02438 16.7304 7.41922 16.3241 7.50002C15.9178 7.58082 15.523 7.31698 15.4422 6.91073C15.2068 5.72725 14.2727 4.79309 13.0892 4.55771C12.6829 4.47691 12.4191 4.08208 12.4999 3.67582Z" fill="#57965C"/>
<path d="M14 7.5C14 8.32843 13.3284 9 12.5 9C11.6716 9 11 8.32843 11 7.5C11 6.67157 11.6716 6 12.5 6C13.3284 6 14 6.67157 14 7.5Z" fill="#57965C"/>
<path d="M11.8649 2.0377C11.325 1.69709 10.6855 1.5 10 1.5C8.067 1.5 6.5 3.067 6.5 5C6.5 5.17453 6.51277 5.34607 6.53744 5.51374C5.95466 5.84252 5.46257 6.3132 5.10808 6.87889L2.85315 5.66646C2.48833 5.4703 2.03357 5.60703 1.83741 5.97185C1.64125 6.33667 1.77798 6.79143 2.1428 6.98759L4.56302 8.2889C4.52161 8.51967 4.5 8.75731 4.5 9V10.25H1.5C1.08579 10.25 0.75 10.5858 0.75 11C0.75 11.4142 1.08579 11.75 1.5 11.75H4.5V12.5C4.5 12.904 4.54356 13.2979 4.62625 13.6771L2.1428 15.0124C1.77798 15.2086 1.64125 15.6633 1.83741 16.0282C2.03357 16.393 2.48833 16.5297 2.85315 16.3335L5.15106 15.098C6.07853 16.8254 7.90209 18 10 18C12.0976 18 13.9209 16.8258 14.8485 15.0988L17.1449 16.3335C17.5097 16.5297 17.9645 16.393 18.1606 16.0282C18.3568 15.6633 18.2201 15.2086 17.8552 15.0124L15.3735 13.678C15.4564 13.2985 15.5 12.9044 15.5 12.5V11.75H18.5C18.9142 11.75 19.25 11.4142 19.25 11C19.25 10.5858 18.9142 10.25 18.5 10.25H15.5V9C15.5 8.96993 15.4997 8.93994 15.499 8.91003C15.3989 8.87825 15.3013 8.83956 15.2071 8.79443C14.9452 9.34131 14.5224 9.79647 14 10.0986V12.5C14 14.7091 12.2091 16.5 10 16.5C7.79086 16.5 6 14.7091 6 12.5V9C6 7.61929 7.11929 6.5 8.5 6.5H9.6707C9.88915 5.88195 10.3044 5.35686 10.8411 5H8.5C8.33075 5 8.16396 5.01051 8.00023 5.03092L8 5C8 3.89543 8.89543 3 10 3C10.3842 3 10.7431 3.10833 11.0478 3.29612C11.1722 2.77736 11.4691 2.34146 11.8649 2.0377Z" fill="#CED0D6"/>
</g>
<defs>
<clipPath id="clip0_3286_47057">
<rect width="20" height="20" fill="white"/>
</clipPath>
</defs>
</svg>
