<svg width="16" height="16" viewBox="0 0 16 16" fill="none" xmlns="http://www.w3.org/2000/svg">
<rect x="2.5" y="3.5" width="9" height="10" rx="1.5" stroke="#A8ADBD"/>
<rect x="5" y="10" width="4" height="1" rx="0.5" fill="#A8ADBD"/>
<rect x="5" y="8" width="4" height="1" rx="0.5" fill="#A8ADBD"/>
<rect x="5" y="6" width="4" height="1" rx="0.5" fill="#A8ADBD"/>
<path fill-rule="evenodd" clip-rule="evenodd" d="M11.0027 2H11.6008C12.374 2 13.0008 2.6268 13.0008 3.4V3.91081C13.0021 3.94038 13.0027 3.97011 13.0027 4V11.5482C13.6072 11.1124 14.0008 10.4021 14.0008 9.6V3.4C14.0008 2.07452 12.9262 1 11.6008 1H6.40075C5.59774 1 4.88684 1.39437 4.45117 2H6.40075H11.0027Z" fill="#A8ADBD"/>
</svg>
