<svg width="16" height="16" viewBox="0 0 16 16" fill="none" xmlns="http://www.w3.org/2000/svg">
<path d="M7.56602 1.76749C7.75797 1.43159 8.24232 1.43159 8.43426 1.7675L14.711 12.7519C14.9014 13.0853 14.6607 13.5 14.2768 13.5H1.7232C1.33928 13.5 1.0986 13.0853 1.28908 12.7519L7.56602 1.76749Z" fill="#3D3223" stroke="#D6AE58"/>
<path d="M7.9999 5.00146C8.33127 5.00146 8.5999 5.27009 8.5999 5.60146L8.5999 8.9999C8.5999 9.33127 8.33127 9.5999 7.9999 9.5999C7.66853 9.5999 7.3999 9.33127 7.3999 8.9999L7.3999 5.60146C7.3999 5.27009 7.66853 5.00146 7.9999 5.00146Z" fill="#D6AE58"/>
<path d="M8.8002 11.1999C8.8002 11.6417 8.44202 11.9999 8.0002 11.9999C7.55837 11.9999 7.2002 11.6417 7.2002 11.1999C7.2002 10.7581 7.55837 10.3999 8.0002 10.3999C8.44202 10.3999 8.8002 10.7581 8.8002 11.1999Z" fill="#D6AE58"/>
</svg>
