<svg width="16" height="16" viewBox="0 0 16 16" fill="none" xmlns="http://www.w3.org/2000/svg">
<rect x="2" y="14" width="12" height="1" rx="0.5" fill="#6C707E"/>
<path fill-rule="evenodd" clip-rule="evenodd" d="M12.3536 7.65354C12.5488 7.45828 12.5488 7.1417 12.3536 6.94643C12.1583 6.75117 11.8417 6.75117 11.6465 6.94643L8.50003 10.0929L8.50003 2C8.50003 1.72386 8.27617 1.5 8.00003 1.5C7.72389 1.5 7.50003 1.72386 7.50003 2L7.50003 10.0929L4.35358 6.94643C4.15832 6.75117 3.84174 6.75117 3.64648 6.94643C3.45121 7.1417 3.45121 7.45828 3.64648 7.65354L7.64648 11.6535L8.00003 12.0071L8.35358 11.6535L12.3536 7.65354Z" fill="#6C707E"/>
</svg>
