<svg width="16" height="16" viewBox="0 0 16 16" fill="none" xmlns="http://www.w3.org/2000/svg">
<path d="M6.67099 10.5796V10.4318C6.67478 9.74623 6.73917 9.20077 6.86417 8.79547C6.99296 8.39017 7.17478 8.06441 7.40962 7.8182C7.64447 7.5682 7.93046 7.33903 8.26758 7.1307C8.49864 6.98676 8.70508 6.82956 8.8869 6.6591C9.0725 6.48486 9.21834 6.29168 9.3244 6.07956C9.43046 5.86365 9.48349 5.62312 9.48349 5.35797C9.48349 5.05873 9.41341 4.79926 9.27326 4.57956C9.13311 4.35986 8.94372 4.18941 8.70508 4.0682C8.47023 3.94698 8.20697 3.88638 7.91531 3.88638C7.64637 3.88638 7.39068 3.94509 7.14826 4.06251C6.90962 4.17615 6.71076 4.35039 6.55167 4.58524C6.39637 4.8163 6.30924 5.10986 6.29031 5.46592H4.26758C4.28652 4.74623 4.46076 4.14395 4.79031 3.65911C5.12364 3.17426 5.56303 2.81062 6.10849 2.5682C6.65773 2.32577 7.26379 2.20456 7.92667 2.20456C8.65015 2.20456 9.28652 2.33145 9.83576 2.58524C10.3888 2.83903 10.8187 3.20077 11.1255 3.67047C11.4361 4.13638 11.5914 4.68941 11.5914 5.32956C11.5914 5.76138 11.5214 6.14774 11.3812 6.48865C11.2449 6.82956 11.0498 7.13259 10.796 7.39774C10.5422 7.66289 10.2411 7.89964 9.89258 8.10797C9.58576 8.29736 9.33387 8.49433 9.1369 8.69888C8.94372 8.90342 8.79978 9.14395 8.70508 9.42047C8.61417 9.6932 8.56682 10.0303 8.56303 10.4318V10.5796H6.67099ZM7.65962 14.125C7.31871 14.125 7.02515 14.0038 6.77894 13.7614C6.53273 13.519 6.40962 13.2235 6.40962 12.875C6.40962 12.5341 6.53273 12.2424 6.77894 12C7.02515 11.7576 7.31871 11.6364 7.65962 11.6364C7.99674 11.6364 8.28841 11.7576 8.53462 12C8.78462 12.2424 8.90962 12.5341 8.90962 12.875C8.90962 13.1061 8.85091 13.3163 8.73349 13.5057C8.61985 13.6951 8.46834 13.8466 8.27894 13.9602C8.09334 14.0701 7.8869 14.125 7.65962 14.125Z" fill="#818594"/>
</svg>
