<svg width="20" height="20" viewBox="0 0 20 20" fill="none" xmlns="http://www.w3.org/2000/svg">
<g clip-path="url(#clip0_3286_47069)">
<path fill-rule="evenodd" clip-rule="evenodd" d="M12.9697 0.46967C13.2626 0.176777 13.7374 0.176777 14.0303 0.46967L16.25 2.68934L18.4697 0.46967C18.7626 0.176777 19.2374 0.176777 19.5303 0.46967C19.8232 0.762563 19.8232 1.23744 19.5303 1.53033L17.3107 3.75L19.5303 5.96967C19.8232 6.26256 19.8232 6.73744 19.5303 7.03033C19.2374 7.32322 18.7626 7.32322 18.4697 7.03033L16.25 4.81066L14.0303 7.03033C13.7374 7.32322 13.2626 7.32322 12.9697 7.03033C12.6768 6.73744 12.6768 6.26256 12.9697 5.96967L15.1893 3.75L12.9697 1.53033C12.6768 1.23744 12.6768 0.762563 12.9697 0.46967Z" fill="#DB5C5C"/>
<path d="M11.3918 1.78765C10.9652 1.60259 10.4946 1.5 10 1.5C8.067 1.5 6.5 3.067 6.5 5C6.5 5.17453 6.51277 5.34607 6.53744 5.51374C5.95466 5.84252 5.46257 6.3132 5.10808 6.87889L2.85315 5.66646C2.48833 5.4703 2.03357 5.60703 1.83741 5.97185C1.64125 6.33667 1.77798 6.79143 2.1428 6.98759L4.56302 8.2889C4.52161 8.51967 4.5 8.75731 4.5 9V10.25H1.5C1.08579 10.25 0.75 10.5858 0.75 11C0.75 11.4142 1.08579 11.75 1.5 11.75H4.5V12.5C4.5 12.904 4.54356 13.2979 4.62625 13.6771L2.1428 15.0124C1.77798 15.2086 1.64125 15.6633 1.83741 16.0282C2.03357 16.393 2.48833 16.5297 2.85315 16.3335L5.15106 15.098C6.07853 16.8254 7.90209 18 10 18C12.0976 18 13.9209 16.8258 14.8485 15.0988L17.1449 16.3335C17.5097 16.5297 17.9645 16.393 18.1606 16.0282C18.3568 15.6633 18.2201 15.2086 17.8552 15.0124L15.3735 13.678C15.4564 13.2985 15.5 12.9044 15.5 12.5V11.75H18.5C18.9142 11.75 19.25 11.4142 19.25 11C19.25 10.5858 18.9142 10.25 18.5 10.25H15.5V9C15.5 8.75698 15.4783 8.51902 15.4368 8.28794L16.8475 7.52945L16.25 6.93198L15.091 8.09099C14.775 8.40699 14.3884 8.60935 13.982 8.69806C13.9939 8.79704 14 8.8978 14 9V12.5C14 14.7091 12.2091 16.5 10 16.5C7.79086 16.5 6 14.7091 6 12.5V9C6 7.61929 7.11929 6.5 8.5 6.5H11.25C11.25 5.96815 11.4374 5.43631 11.8122 5.012C11.7092 5.00405 11.6051 5 11.5 5H8.5C8.33075 5 8.16396 5.01051 8.00023 5.03092L8 5C8 3.89543 8.89543 3 10 3C11.0458 3 11.9041 3.80266 11.9925 4.82552L13.068 3.75L11.909 2.59099C11.6735 2.35543 11.501 2.08064 11.3918 1.78765Z" fill="#CED0D6"/>
</g>
<defs>
<clipPath id="clip0_3286_47069">
<rect width="20" height="20" fill="white"/>
</clipPath>
</defs>
</svg>
