<svg width="16" height="16" viewBox="0 0 16 16" fill="none" xmlns="http://www.w3.org/2000/svg">
<path fill-rule="evenodd" clip-rule="evenodd" d="M10.1464 0.146447C10.3417 -0.0488155 10.6583 -0.0488155 10.8536 0.146447L13 2.29289L15.1464 0.146447C15.3417 -0.0488155 15.6583 -0.0488155 15.8536 0.146447C16.0488 0.341709 16.0488 0.658291 15.8536 0.853553L13.7071 3L15.8536 5.14645C16.0488 5.34171 16.0488 5.65829 15.8536 5.85355C15.6583 6.04882 15.3417 6.04882 15.1464 5.85355L13 3.70711L10.8536 5.85355C10.6583 6.04882 10.3417 6.04882 10.1464 5.85355C9.95118 5.65829 9.95118 5.34171 10.1464 5.14645L12.2929 3L10.1464 0.853553C9.95118 0.658291 9.95118 0.341709 10.1464 0.146447Z" fill="#DB3B4B"/>
<path fill-rule="evenodd" clip-rule="evenodd" d="M10.5553 3.32339C10.1913 2.26252 9.1851 1.5 8.00078 1.5C6.50961 1.5 5.30078 2.70883 5.30078 4.2C5.30078 4.2788 5.30416 4.35681 5.31077 4.43389C4.83907 4.69432 4.43388 5.06044 4.12713 5.50031L2.0178 4.3602C1.77487 4.2289 1.4715 4.31939 1.34019 4.56231C1.20889 4.80524 1.29938 5.10862 1.5423 5.23992L3.67821 6.3944C3.5626 6.74192 3.5 7.11365 3.5 7.5V8.50006H1.09961C0.823467 8.50006 0.599609 8.72392 0.599609 9.00006C0.599609 9.2762 0.823467 9.50006 1.09961 9.50006H3.5V10C3.5 10.4892 3.57807 10.9602 3.72243 11.4012L1.52989 12.6671C1.29075 12.8051 1.20881 13.1109 1.34688 13.3501C1.48495 13.5892 1.79075 13.6712 2.02989 13.5331L4.14018 12.3147C4.92704 13.624 6.36122 14.5 8 14.5C9.6382 14.5 11.0719 13.6246 11.859 12.3161L13.967 13.5331C14.2061 13.6712 14.5119 13.5893 14.65 13.3501C14.7881 13.111 14.7061 12.8052 14.467 12.6671L12.2771 11.4028C12.4217 10.9613 12.5 10.4898 12.5 10V9.49982H14.9004C15.1765 9.49982 15.4004 9.27596 15.4004 8.99982C15.4004 8.72367 15.1765 8.49982 14.9004 8.49982H12.5V7.5C12.5 7.11368 12.4374 6.74198 12.3218 6.39448L13.5879 5.70921L13 5.12132L11.5607 6.56066C11.5023 6.61905 11.4403 6.67161 11.3754 6.71836C11.4562 6.96427 11.5 7.22702 11.5 7.5V10C11.5 11.933 9.933 13.5 8 13.5C6.067 13.5 4.5 11.933 4.5 10V7.5C4.5 6.11929 5.61929 5 7 5H9C9.02842 5 9.05673 5.00047 9.08492 5.00142C9.15707 4.79616 9.27522 4.60346 9.43934 4.43934L10.5553 3.32339ZM8.00078 2.5C7.10603 2.5 6.37272 3.19125 6.30577 4.06885C6.53015 4.02369 6.76231 4 7 4H9C9.23825 4 9.47094 4.02381 9.69582 4.06917C9.62902 3.19142 8.89564 2.5 8.00078 2.5Z" fill="#6C707E"/>
</svg>
